<svg width="27" height="25" viewBox="0 0 27 25" fill="none" xmlns="http://www.w3.org/2000/svg">
<path d="M15.375 11.75C16.5353 11.75 17.6481 11.2891 18.4686 10.4686C19.2891 9.64812 19.75 8.53532 19.75 7.375C19.75 6.21468 19.2891 5.10188 18.4686 4.28141C17.6481 3.46094 16.5353 3 15.375 3M14.9287 23H3.32125C2.03875 23 1 22.0412 1 20.8575C1 17.8987 3.59875 15.5 6.80375 15.5H11.4463C12.6889 15.4956 13.9035 15.8692 14.9287 16.5713M22.25 15.5V23M26 19.25H18.5M13.5 7.375C13.5 8.53532 13.0391 9.64812 12.2186 10.4686C11.3981 11.2891 10.2853 11.75 9.125 11.75C7.96468 11.75 6.85188 11.2891 6.03141 10.4686C5.21094 9.64812 4.75 8.53532 4.75 7.375C4.75 6.21468 5.21094 5.10188 6.03141 4.28141C6.85188 3.46094 7.96468 3 9.125 3C10.2853 3 11.3981 3.46094 12.2186 4.28141C13.0391 5.10188 13.5 6.21468 13.5 7.375Z" stroke="#FF9600" stroke-width="2" stroke-linecap="round" stroke-linejoin="round"/>
</svg>
