<svg width="25" height="30" viewBox="0 0 25 30" fill="none" xmlns="http://www.w3.org/2000/svg">
<path d="M4 0.5H21C22.933 0.5 24.5 2.067 24.5 4V26C24.5 27.933 22.933 29.5 21 29.5H4C2.067 29.5 0.5 27.933 0.5 26V4C0.5 2.067 2.067 0.5 4 0.5Z" fill="#FFFEFA"/>
<path d="M4 0.5H21C22.933 0.5 24.5 2.067 24.5 4V26C24.5 27.933 22.933 29.5 21 29.5H4C2.067 29.5 0.5 27.933 0.5 26V4C0.5 2.067 2.067 0.5 4 0.5Z" stroke="#FFAA1E"/>
<path d="M7.474 9.742H17.54V10.876H7.474V9.742ZM6.298 18.044H18.73V19.22H6.298V18.044Z" fill="#FF9600"/>
</svg>
