<svg width="25" height="30" viewBox="0 0 25 30" fill="none" xmlns="http://www.w3.org/2000/svg">
<path d="M4 0.5H21C22.933 0.5 24.5 2.067 24.5 4V26C24.5 27.933 22.933 29.5 21 29.5H4C2.067 29.5 0.5 27.933 0.5 26V4C0.5 2.067 2.067 0.5 4 0.5Z" fill="#FFFEFA"/>
<path d="M4 0.5H21C22.933 0.5 24.5 2.067 24.5 4V26C24.5 27.933 22.933 29.5 21 29.5H4C2.067 29.5 0.5 27.933 0.5 26V4C0.5 2.067 2.067 0.5 4 0.5Z" stroke="#FFAA1E"/>
<path d="M7.964 8.692H17.148V20.396H16.028V9.742H9.042V20.466H7.964V8.692ZM8.692 13.536H16.504V14.572H8.692V13.536ZM8.664 18.506H16.518V19.556H8.664V18.506Z" fill="#FF9600"/>
</svg>
