<svg width="25" height="30" viewBox="0 0 25 30" fill="none" xmlns="http://www.w3.org/2000/svg">
<path d="M4 0.5H21C22.933 0.5 24.5 2.067 24.5 4V26C24.5 27.933 22.933 29.5 21 29.5H4C2.067 29.5 0.5 27.933 0.5 26V4C0.5 2.067 2.067 0.5 4 0.5Z" fill="#FFFEFA"/>
<path d="M4 0.5H21C22.933 0.5 24.5 2.067 24.5 4V26C24.5 27.933 22.933 29.5 21 29.5H4C2.067 29.5 0.5 27.933 0.5 26V4C0.5 2.067 2.067 0.5 4 0.5Z" stroke="#FFAA1E"/>
<path d="M6.76 9.028H18.282V20.102H17.19V10.036H7.824V20.214H6.76V9.028ZM7.32 18.198H17.778V19.22H7.32V18.198ZM13.312 9.7H14.334V14.152C14.334 14.4413 14.3713 14.6047 14.446 14.642C14.53 14.6793 14.656 14.698 14.824 14.698C14.8893 14.698 14.9873 14.698 15.118 14.698C15.258 14.698 15.3747 14.698 15.468 14.698C15.5613 14.698 15.65 14.6933 15.734 14.684C15.8273 14.6747 15.8973 14.6653 15.944 14.656C15.9907 14.628 16.0327 14.5907 16.07 14.544C16.1073 14.488 16.1353 14.4087 16.154 14.306C16.182 14.2033 16.196 14.04 16.196 13.816C16.2053 13.592 16.2147 13.326 16.224 13.018C16.3267 13.102 16.4527 13.186 16.602 13.27C16.7607 13.3447 16.9053 13.4053 17.036 13.452C17.0267 13.7413 17.008 14.0307 16.98 14.32C16.9613 14.6093 16.9287 14.8193 16.882 14.95C16.8353 15.0713 16.77 15.174 16.686 15.258C16.6113 15.3327 16.518 15.398 16.406 15.454C16.3033 15.5007 16.168 15.5333 16 15.552C15.8413 15.5707 15.6873 15.58 15.538 15.58C15.4727 15.58 15.3747 15.58 15.244 15.58C15.1227 15.58 14.9967 15.58 14.866 15.58C14.7447 15.58 14.6513 15.58 14.586 15.58C14.4273 15.58 14.2593 15.5613 14.082 15.524C13.914 15.4867 13.774 15.4213 13.662 15.328C13.5313 15.244 13.438 15.118 13.382 14.95C13.3353 14.782 13.312 14.488 13.312 14.068V9.7ZM10.456 9.658H11.478C11.4313 10.7033 11.3333 11.66 11.184 12.528C11.044 13.3867 10.7827 14.1473 10.4 14.81C10.0173 15.4727 9.448 16.0233 8.692 16.462C8.636 16.3407 8.538 16.2053 8.398 16.056C8.26733 15.9067 8.146 15.7853 8.034 15.692C8.706 15.3093 9.21 14.8287 9.546 14.25C9.882 13.662 10.106 12.9853 10.218 12.22C10.3393 11.4453 10.4187 10.5913 10.456 9.658Z" fill="#FF9600"/>
</svg>
