<svg width="27" height="27" viewBox="0 0 27 27" fill="none" xmlns="http://www.w3.org/2000/svg">
<path d="M24.9676 7.01553C25.6285 6.3548 25.9999 5.4586 26 4.52408C26.0001 3.58955 25.629 2.69325 24.9683 2.03236C24.3075 1.37147 23.4113 1.00012 22.4768 1C21.5423 0.999883 20.646 1.37101 19.9851 2.03174L3.30244 18.7181C3.01221 19.0075 2.79758 19.3638 2.67743 19.7556L1.02617 25.1957C0.993862 25.3038 0.991422 25.4186 1.01911 25.528C1.04679 25.6374 1.10357 25.7372 1.18342 25.817C1.26326 25.8967 1.3632 25.9533 1.47262 25.9808C1.58204 26.0083 1.69687 26.0057 1.80493 25.9732L7.24623 24.3232C7.63769 24.2041 7.99395 23.9908 8.28374 23.7019L24.9676 7.01553Z" stroke="#FF9600" stroke-width="2" stroke-linecap="round" stroke-linejoin="round"/>
</svg>
