<svg width="1500" height="500" viewBox="0 0 1500 500" fill="none" xmlns="http://www.w3.org/2000/svg">
<path d="M1357.14 0H142.86C63.9606 0 0 63.9605 0 142.86V357.14C0 436.04 63.9606 500 142.86 500H1357.14C1436.04 500 1500 436.04 1500 357.14V142.86C1500 63.9605 1436.04 0 1357.14 0Z" fill="#FFFEFA"/>
<path fill-rule="evenodd" clip-rule="evenodd" d="M1101.94 286.41C1102.61 286.49 1103.22 286.82 1103.69 287.34C1104.15 287.86 1104.42 288.53 1104.54 289.2C1104.73 290.33 1104.9 291.46 1105.06 292.58C1105.46 295.42 1105.75 298.25 1105.95 301.07C1106.4 300.75 1106.87 300.44 1107.36 300.14C1113.31 296.52 1120.39 296.22 1126.04 297.03C1129.27 297.6 1134.13 298.32 1137.89 303.66C1141.41 309.43 1139.67 314.59 1138.54 317.74C1137.55 320.12 1136.45 322.19 1135.26 324.06C1136.65 323.28 1138.04 322.51 1139.44 321.74C1142.33 320.13 1145.22 318.52 1148.11 316.92C1148.76 316.56 1149.54 316.47 1150.27 316.66C1151 316.85 1151.63 317.31 1152.01 317.94C1152.39 318.57 1152.51 319.33 1152.34 320.06C1152.17 320.78 1151.72 321.42 1151.09 321.82C1148.29 323.58 1145.49 325.34 1142.69 327.1C1132.76 333.33 1122.8 339.53 1112.89 345.8C1108.07 349.08 1103.08 352.08 1098.21 355.18C1098.11 355.25 1098.01 355.31 1097.91 355.38C1097.36 355.7 1096.8 355.89 1096.26 355.98C1096.11 356.18 1095.94 356.36 1095.75 356.52C1095.18 356.99 1094.45 357.22 1093.71 357.16C1092.98 357.1 1092.3 356.76 1091.81 356.21C1091.32 355.66 1091.06 354.94 1091.05 354.22C1091.05 354.16 1091.05 354.11 1091.05 354.05C1090.87 352.95 1090.7 351.84 1090.54 350.74C1089.11 340.61 1088.98 330.63 1090.14 320.8C1091.3 310.97 1093.75 301.29 1097.5 291.75C1097.92 290.69 1098.35 289.63 1098.8 288.57C1099.07 287.94 1099.48 287.36 1100.06 286.96C1100.63 286.56 1101.31 286.37 1101.97 286.45L1101.94 286.41ZM1123.65 311.14C1115.21 308.09 1109.52 313.61 1105.5 322.22C1105.49 322.32 1105.48 322.43 1105.47 322.53C1104.82 327.98 1103.78 333.38 1102.34 338.74C1107.49 333.44 1112.23 327.77 1116.91 322.62C1120.06 319.12 1123.06 315.24 1124.37 312.22C1124.5 311.92 1124.6 311.64 1124.68 311.41C1124.39 311.31 1124.04 311.22 1123.66 311.14H1123.65Z" fill="#FF9600"/>
<path fill-rule="evenodd" clip-rule="evenodd" d="M352.82 142.891C353.55 142.791 354.3 142.961 354.89 143.381C355.48 143.791 355.89 144.431 356.03 145.151C356.17 145.871 356.02 146.621 355.66 147.251C354.15 149.881 352.62 152.511 351.08 155.131C348.15 160.111 345.17 165.061 342.15 169.971C341.12 171.631 340.09 173.291 339.05 174.951C343.27 174.841 349.93 177.351 352.44 182.351C355.11 187.271 354.96 191.311 354.82 194.881C354.74 196.141 354.65 197.371 354.56 198.611C354.37 200.861 354.2 203.051 354.01 205.231C360.85 199.521 367.78 193.901 374.81 188.391C377.41 186.351 380.03 184.321 382.66 182.301C385.08 180.441 387.52 178.601 389.96 176.771C390.54 176.331 391.27 176.081 392.01 176.121C392.75 176.151 393.45 176.471 393.95 176.991C394.45 177.511 394.72 178.221 394.71 178.951C394.71 179.681 394.41 180.381 393.93 180.931C391.93 183.231 389.91 185.511 387.89 187.781C385.71 190.221 383.52 192.651 381.32 195.071C381.5 196.651 381.68 198.231 381.85 199.821C384.46 223.991 385.76 248.161 385.76 272.331C385.76 296.501 384.46 320.671 381.85 344.841C381.56 347.531 381.25 350.211 380.93 352.901C380.84 353.611 380.53 354.301 379.99 354.801C379.46 355.301 378.75 355.591 378.03 355.591C377.31 355.591 376.6 355.301 376.07 354.801C375.54 354.301 375.22 353.611 375.13 352.901C374.81 350.211 374.5 347.531 374.21 344.841C371.6 320.671 370.3 296.501 370.3 272.331C370.3 248.161 371.49 226.201 373.87 203.131C365.77 211.801 357.5 220.291 349.06 228.601C343.16 233.951 334.86 229.211 336.9 221.571C337.91 214.851 338.53 205.661 339.15 197.501C339.24 196.291 339.32 195.091 339.41 193.861C339.6 191.931 339.29 190.201 339.15 189.791C339 189.761 338.81 189.731 338.57 189.731C335.63 189.601 330.27 191.591 326.12 193.961C319.43 198.151 312.12 190.641 316.78 184.321C322.25 177.431 327.84 170.621 333.53 163.881C337.26 159.471 341.04 155.091 344.87 150.741C346.88 148.451 348.91 146.181 350.94 143.911C351.43 143.371 352.09 142.991 352.83 142.881L352.82 142.891ZM339.3 189.821C339.37 189.861 339.43 189.901 339.47 189.901C339.52 189.901 339.47 189.871 339.3 189.821Z" fill="#FF9600"/>
<path d="M537.29 189.09C538.01 189.09 538.7 189.37 539.24 189.87C539.77 190.37 540.09 191.05 540.19 191.76C540.51 194.06 540.82 196.37 541.11 198.67C542.47 209.54 543.48 220.4 544.13 231.27C549.52 215.48 558.97 201.08 578.64 193.25C589.83 190.39 602.03 187.63 615.63 191.65C627.99 195.11 635.97 207.52 638.38 217.54C641.2 227.91 641.62 237.74 641.94 247.4C642.55 274.16 641.49 300.63 639.57 327.15C639.57 331.53 635.4 333.33 631.78 330.79C625.89 325.98 620.02 321.13 614.16 316.28C609.59 312.49 605.04 308.68 600.49 304.87C600.14 304.58 599.86 304.22 599.68 303.81C596.65 306.48 593.38 308.87 589.88 310.93C581.89 315.62 572.8 318.78 562.92 319.17C561.82 319.2 560.71 319.19 559.56 319.11C558.88 319.04 558.19 318.83 557.63 318.42C557.07 318.02 556.68 317.45 556.55 316.82C556.41 316.19 556.53 315.52 556.88 314.92C557.22 314.32 557.76 313.86 558.36 313.52C559.14 313.03 559.92 312.5 560.71 311.97C567.82 307.05 574.68 302.11 581.95 297.86C589.22 293.56 596.87 289.77 605.29 286.31C606.22 285.93 607.16 285.55 608.13 285.17C608.77 284.92 609.47 284.78 610.16 284.87C610.85 284.97 611.46 285.29 611.88 285.78C612.3 286.28 612.52 286.92 612.5 287.61C612.48 288.3 612.22 288.95 611.86 289.53C611.29 290.42 610.72 291.28 610.13 292.13C608.14 294.95 605.95 297.61 603.58 300.08C603.73 300.15 603.88 300.23 604.02 300.32C608.95 303.63 613.88 306.95 618.8 310.28C622.46 312.76 626.11 315.26 629.76 317.75C629.42 294.46 628.85 271.08 627.51 248.02C626.41 230.02 624.03 209.49 610.85 206.14C603.15 203.67 592.55 205.15 582.57 207.66C563.14 213.35 553.92 241.08 548.32 265.21C558.27 262.83 567.79 258.71 577.33 254.74C587.67 250.34 598.12 245.67 609.18 240.93C610.39 240.41 611.63 239.88 612.88 239.34C613.53 239.06 614.25 238.94 614.95 239.06C615.65 239.19 616.27 239.55 616.68 240.08C617.09 240.62 617.28 241.3 617.21 242C617.14 242.7 616.82 243.35 616.38 243.89C615.49 244.96 614.58 246 613.67 247.01C605.33 256.18 595.12 263.77 583.44 268.74C572.13 273.47 559.33 276.13 546.52 273.54C545.75 277.45 545.06 281.39 544.44 285.35C543.82 297.94 542.72 310.53 541.14 323.12C540.85 325.42 540.54 327.73 540.22 330.03C540.22 330.04 540.22 330.05 540.22 330.07C540.18 330.77 539.89 331.44 539.39 331.95C538.87 332.48 538.15 332.79 537.41 332.81C536.66 332.83 535.93 332.56 535.38 332.05C534.83 331.54 534.5 330.84 534.44 330.11C534.44 330.06 534.44 330.01 534.43 329.96C534.11 327.68 533.81 325.4 533.52 323.12C530.91 302.38 529.61 281.64 529.61 260.9C529.61 240.16 530.92 219.41 533.52 198.68C533.81 196.38 534.12 194.07 534.44 191.77C534.54 191.06 534.86 190.38 535.4 189.88C535.93 189.38 536.62 189.1 537.34 189.1L537.29 189.09Z" fill="#FF9600"/>
<path d="M854.26 188.641C854.98 188.641 855.67 188.92 856.21 189.42C856.74 189.92 857.06 190.601 857.16 191.311C857.48 193.621 857.79 195.93 858.08 198.25C859.41 208.85 860.4 219.451 861.05 230.041C864.19 223.591 868.43 217.42 874.33 211.8C889.65 199.63 907.67 184.32 933.87 190.82C950.24 196.72 954.87 213.49 956.08 225.55C959.14 259.98 957.1 293.651 953.42 327.351C953.23 331.751 948.95 333.37 945.44 330.63C940.47 326.1 935.51 321.551 930.57 316.991C929.97 316.431 929.37 315.88 928.77 315.32C924.6 311.47 920.44 307.601 916.28 303.721C912.8 306.661 909 309.11 905.11 311.17C896.89 315.45 887.93 318.01 878.5 318.82C877.45 318.91 876.38 318.98 875.34 319.01C874.65 319.03 873.95 318.92 873.33 318.59C872.72 318.27 872.26 317.76 872.03 317.15C871.81 316.54 871.84 315.851 872.09 315.221C872.35 314.591 872.82 314.05 873.37 313.63C874.15 313.02 874.96 312.401 875.77 311.791C882.98 306.301 890.31 301.64 897.85 297.71C905.36 293.72 913.19 290.681 920.67 286.931C921.5 286.501 922.32 286.04 923.11 285.57C923.69 285.2 924.35 284.931 925.05 284.891C925.74 284.861 926.41 285.05 926.92 285.46C927.43 285.86 927.77 286.461 927.89 287.141C928.01 287.811 927.89 288.51 927.65 289.15C927.23 290.18 926.72 291.19 926.16 292.17C924.53 294.94 922.63 297.42 920.55 299.67C924.95 302.97 929.33 306.27 933.71 309.59C934.37 310.09 935.02 310.591 935.67 311.081C938.43 313.181 941.19 315.28 943.95 317.38C944.55 287.15 944.38 256.611 941.09 227.201C939.89 216.701 935.76 207.38 928.67 205.19C916.02 201.08 897.36 211.591 883.68 222.661C872.39 232.141 866.75 249.87 863.08 266.84C872.76 265.18 882.95 258.98 892.88 253.8C903.49 248.05 914.33 242.18 925.89 236.65C927.16 236.05 928.45 235.431 929.78 234.811C930.42 234.511 931.14 234.36 931.84 234.48C932.55 234.59 933.18 234.941 933.6 235.471C934.03 236.001 934.23 236.691 934.17 237.391C934.12 238.091 933.8 238.751 933.36 239.291C932.42 240.431 931.48 241.53 930.54 242.61C921.95 252.37 911.98 260.83 900.29 267.17C889.14 272.81 876.37 278.411 861.77 274.951C861.31 291.001 860.08 307.051 858.06 323.101C857.77 325.411 857.46 327.731 857.14 330.041C857.14 330.061 857.14 330.08 857.13 330.11C857.08 330.75 856.83 331.381 856.39 331.871C855.89 332.431 855.19 332.77 854.44 332.82C853.7 332.87 852.95 332.631 852.38 332.141C851.8 331.661 851.44 330.971 851.35 330.241C851.31 329.901 851.27 329.561 851.23 329.221C850.95 327.181 850.68 325.14 850.42 323.11C847.81 302.31 846.51 281.5 846.51 260.69C846.51 239.88 847.81 219.081 850.42 198.271C850.71 195.961 851.02 193.641 851.34 191.331C851.44 190.621 851.76 189.94 852.3 189.44C852.84 188.94 853.53 188.661 854.24 188.661L854.26 188.641Z" fill="#FF9600"/>
<path d="M1223.5 164.082C1229.33 163.212 1235.15 162.812 1241.35 163.582C1244.07 163.982 1246.9 164.501 1249.94 166.341C1251.43 167.271 1253.06 168.742 1253.99 170.872C1254.94 172.992 1254.9 175.361 1254.49 177.151C1247.4 197.311 1236.6 212.151 1225.92 228.261C1226.39 246.431 1226.7 264.601 1226.82 282.771C1226.89 287.071 1229.07 292.171 1232.42 295.271C1236.52 299.251 1242.93 301.121 1250.09 301.171C1281.91 301.431 1313.78 302.212 1345.61 303.492C1344.09 297.692 1342.58 291.901 1341.1 286.091C1339.72 280.691 1338.35 275.292 1337 269.892C1336.82 269.182 1336.91 268.411 1337.27 267.751C1337.63 267.101 1338.23 266.612 1338.95 266.392C1339.66 266.182 1340.44 266.251 1341.11 266.591C1341.78 266.931 1342.29 267.512 1342.55 268.202C1344.52 273.422 1346.46 278.642 1348.4 283.872C1351.28 291.652 1354.12 299.432 1356.93 307.222C1357.87 310.742 1355.84 313.761 1352.15 313.611C1318.15 315.051 1284.1 315.912 1250.1 316.202C1240.7 316.322 1229.67 313.911 1221.69 306.231C1215.27 300.021 1211.65 291.841 1211.52 282.771C1211.65 263.971 1211.97 245.172 1212.47 226.372C1212.49 225.402 1213.14 223.271 1213.73 222.501C1225.21 207.151 1238.43 190.621 1245.69 174.981C1245.88 174.431 1245.89 174.222 1245.9 174.082C1245.9 173.942 1245.75 173.581 1245.22 173.151C1244.15 172.261 1242.08 171.481 1239.98 170.981C1235.06 169.831 1229.48 169.561 1224.12 169.761C1223.37 169.801 1222.62 169.561 1222.05 169.091C1221.47 168.611 1221.1 167.942 1221.02 167.202C1220.94 166.472 1221.16 165.731 1221.63 165.151C1222.1 164.561 1222.79 164.191 1223.52 164.071L1223.5 164.082Z" fill="#FF9600"/>
<path fill-rule="evenodd" clip-rule="evenodd" d="M176.92 162.661C177.66 162.631 178.38 162.89 178.93 163.38C179.49 163.87 179.83 164.56 179.92 165.28C180.39 168.88 180.82 172.591 181.22 176.241C181.64 180.321 182.03 184.391 182.39 188.471C183.67 188.321 184.97 188.25 186.3 188.28C188.6 188.28 190.88 188.41 193.28 188.88C197.21 189.63 203.16 191.821 206.14 197.701C208.93 203.521 207.62 208.64 206.35 212.34C203.49 219.81 199.09 224.941 194.44 229.741C191.38 232.771 188.14 235.56 184.74 238.11C184.72 249.05 184.28 260.04 183.3 271.1C185.67 268.63 188.14 266.22 190.86 263.88C192.74 262.28 194.65 260.73 197.11 259.23C198.33 258.52 199.69 257.741 201.71 257.181C202.72 256.931 203.99 256.66 205.77 256.94C207.48 257.17 209.48 258.361 210.48 259.741C215.26 267.071 216.01 273.54 217.29 280.28C217.89 284.02 218.32 287.74 218.55 291.52C218.59 292.25 218.38 292.98 217.92 293.56C217.46 294.15 216.8 294.53 216.07 294.63C215.34 294.73 214.6 294.54 213.99 294.11C213.38 293.68 212.97 293.03 212.81 292.32C211.98 288.88 210.97 285.4 209.86 282.01C208.22 277.11 206.21 271.71 203.82 268.11C203.68 268.21 203.53 268.32 203.39 268.44C202.04 269.49 200.58 270.92 199.16 272.42C196.3 275.46 193.56 278.83 190.86 282.28C185.5 289.19 180.32 296.46 175.44 303.73C170.35 311 158.22 303.21 162.92 295.69C165.18 291.34 166.56 281.98 167.47 274.23C168.4 265.29 169.14 256.27 169.78 247.19C167.13 248.46 164.43 249.6 161.66 250.6C159.18 251.49 156.62 252.23 154.06 252.83C153.91 253.69 153.77 254.55 153.64 255.42C153.54 256.13 153.2 256.81 152.65 257.3C152.1 257.79 151.39 258.06 150.67 258.04C149.94 258.02 149.25 257.721 148.73 257.201C148.21 256.691 147.91 255.99 147.84 255.27C147.59 252.48 147.48 249.671 147.49 246.87C147.5 245.421 147.53 243.96 147.6 242.5C146.74 236.79 145.76 231.04 145.06 225.27C143.9 216.24 143.18 207.11 142.93 197.82C142.9 196.77 142.87 195.731 142.86 194.721C144 194.491 145.13 194.25 146.27 194.02C146.67 194.97 147.05 195.95 147.43 196.94C149.71 202.97 151.51 209.131 152.81 215.391C153.26 214.201 153.73 213.01 154.25 211.83C157.34 204.22 163.94 195.77 172.83 191.36C173.08 186.39 173.33 181.43 173.6 176.46C173.78 172.83 173.96 169.11 174.14 165.51C174.18 164.79 174.46 164.08 174.98 163.54C175.5 163.01 176.19 162.691 176.93 162.661H176.92ZM171.91 209.9C164.07 217.97 158.65 232.31 155.58 245.44C156.52 244.91 157.46 244.37 158.37 243.81C162.66 241.14 166.75 238.15 170.58 234.92C171.08 226.61 171.5 218.27 171.91 209.9ZM186.31 203.48C185.38 203.43 184.46 203.46 183.57 203.56C183.95 209.28 184.25 215.02 184.45 220.76C187.88 216.46 190.94 211.711 192.14 207.681C192.79 205.671 192.46 204.22 192.44 204.52C192.44 204.61 192.56 204.66 192.22 204.46C191.9 204.28 191.21 204.02 190.24 203.83C189.17 203.62 187.83 203.49 186.3 203.48H186.31Z" fill="#FF9600"/>
<path d="M274.47 147.551C275.17 147.551 275.85 147.841 276.37 148.341C276.89 148.831 277.21 149.501 277.34 150.181C277.64 151.841 277.93 153.511 278.19 155.171C278.84 159.171 279.38 163.171 279.83 167.161C282.55 165.621 285.28 164.031 288.01 162.321C288.92 161.751 289.82 161.171 290.73 160.561C291.3 160.171 291.97 159.891 292.67 159.851C293.37 159.811 294.04 160.011 294.56 160.421C295.08 160.831 295.43 161.431 295.54 162.121C295.65 162.801 295.52 163.511 295.26 164.141C294.79 165.231 294.27 166.301 293.7 167.341C290.49 173.311 286.01 178.481 280.92 182.771C280.79 187.081 280.08 191.261 279.01 195.271C279.45 199.581 279.8 203.881 280.06 208.191C283.93 208.991 287.66 210.111 291.27 211.551C298.23 214.341 304.7 218.311 310.67 223.471C311.33 224.051 311.99 224.641 312.64 225.241C313.13 225.701 313.57 226.251 313.79 226.891C314.01 227.521 314.01 228.191 313.77 228.771C313.53 229.361 313.06 229.841 312.45 230.141C311.84 230.441 311.14 230.541 310.46 230.541C309.57 230.521 308.68 230.491 307.8 230.451C299.86 230.051 292.41 228.461 285.46 225.681C283.82 225.021 282.2 224.301 280.62 223.511C280.67 227.551 280.64 231.601 280.53 235.641C280 252.661 278.31 269.621 274.35 286.641C273.87 288.591 273.41 290.441 272.65 292.541C272.38 293.191 271.92 293.781 271.29 294.141C270.66 294.511 269.93 294.631 269.24 294.481C268.55 294.331 267.94 293.911 267.53 293.321C267.12 292.731 266.95 292.001 266.99 291.301C266.98 289.811 266.86 287.841 266.75 285.981C265.46 269.171 264.56 252.141 265.08 235.221C265.2 230.971 265.39 226.721 265.66 222.481C261.03 228.951 255.68 234.851 249.75 240.141C248.45 241.291 247.1 242.421 245.73 243.491C245.17 243.921 244.48 244.211 243.76 244.231C243.04 244.251 242.34 244.021 241.81 243.571C241.28 243.121 240.95 242.471 240.88 241.771C240.81 241.071 241 240.351 241.35 239.741C242.17 238.331 242.98 236.881 243.77 235.441C249.13 225.631 254.1 215.801 258.46 206.071C259.86 202.921 261.18 199.771 262.37 196.641C262.8 195.511 263.21 194.371 263.6 193.241C256.68 196.131 249.31 197.911 241.71 198.481C240.54 198.561 239.36 198.611 238.17 198.631C237.48 198.631 236.77 198.481 236.17 198.111C235.57 197.751 235.14 197.211 234.95 196.571C234.76 195.941 234.84 195.251 235.14 194.631C235.45 194.011 235.96 193.501 236.54 193.131C237.46 192.531 238.39 191.931 239.3 191.331C247.53 185.881 255.57 180.831 263.66 176.221C265 175.451 266.35 174.701 267.69 173.941C268.43 167.651 269.39 161.351 270.57 155.071C270.88 153.421 271.21 151.761 271.55 150.111C271.69 149.421 272.03 148.761 272.56 148.281C273.09 147.801 273.78 147.541 274.47 147.541V147.551Z" fill="#FF9600"/>
<path d="M1128.14 245.182C1128.81 245.182 1129.49 245.262 1130.1 245.512C1130.7 245.762 1131.18 246.162 1131.46 246.692C1131.74 247.212 1131.8 247.832 1131.67 248.472C1131.53 249.102 1131.2 249.702 1130.82 250.252C1130.43 250.812 1130.03 251.362 1129.63 251.892C1125.97 256.692 1121.7 260.342 1116.84 262.862C1111.97 265.372 1106.49 266.752 1100.41 266.992C1099.73 267.012 1099.05 267.032 1098.36 267.022C1097.69 267.022 1097.01 266.942 1096.4 266.692C1095.8 266.442 1095.32 266.042 1095.04 265.512C1094.76 264.992 1094.7 264.372 1094.83 263.732C1094.97 263.102 1095.3 262.502 1095.68 261.952C1096.07 261.392 1096.47 260.842 1096.87 260.312C1100.53 255.512 1104.8 251.862 1109.66 249.342C1114.53 246.832 1120.01 245.452 1126.09 245.212C1126.77 245.192 1127.45 245.172 1128.14 245.182Z" fill="#FF9600"/>
<path d="M1129.3 213.332C1129.98 213.352 1130.6 213.572 1131.06 213.992C1131.53 214.402 1131.81 214.992 1131.9 215.662C1131.98 216.322 1131.85 217.002 1131.63 217.632C1131.33 218.432 1131 219.212 1130.64 219.972C1127.41 226.902 1121.95 232.492 1115.58 236.172C1109.2 239.852 1101.86 241.772 1094.16 241.522C1093.31 241.492 1092.42 241.432 1091.57 241.332C1090.9 241.232 1090.22 241.032 1089.67 240.662C1089.11 240.282 1088.71 239.762 1088.55 239.162C1088.38 238.562 1088.47 237.912 1088.76 237.312C1089.05 236.712 1089.54 236.212 1090.07 235.802C1090.65 235.322 1091.26 234.822 1091.84 234.352C1097.15 229.952 1102.32 226.152 1107.73 223.032C1113.16 219.882 1118.81 217.402 1125.17 214.712C1125.87 214.412 1126.59 214.102 1127.32 213.792C1127.94 213.512 1128.61 213.322 1129.28 213.342L1129.3 213.332Z" fill="#FF9600"/>
<path d="M1123.2 185.91C1123.87 185.76 1124.57 185.71 1125.23 185.88C1125.89 186.05 1126.45 186.41 1126.81 186.93C1127.17 187.45 1127.32 188.1 1127.24 188.76C1127.16 189.43 1126.87 190.06 1126.49 190.61C1125.98 191.34 1125.46 192.051 1124.92 192.741C1120.04 199.001 1113.7 203.88 1106.51 206.92C1099.31 209.94 1091.28 211.26 1083.02 209.98C1082.09 209.83 1081.18 209.64 1080.24 209.39C1079.59 209.19 1078.96 208.89 1078.47 208.41C1077.98 207.94 1077.69 207.351 1077.63 206.721C1077.58 206.091 1077.79 205.46 1078.19 204.92C1078.6 204.39 1079.17 203.99 1079.78 203.69C1080.46 203.32 1081.15 202.93 1081.85 202.53C1088.1 198.92 1094.09 195.55 1100.4 192.91C1106.7 190.23 1113.32 188.18 1120.71 186.45C1121.53 186.26 1122.36 186.07 1123.2 185.89V185.91Z" fill="#FF9600"/>
<path d="M1093.79 148.59C1100.29 147.71 1106.44 148.081 1112.24 149.681C1118.04 151.281 1123.49 154.121 1128.58 158.201C1129.14 158.651 1129.71 159.121 1130.26 159.601C1130.77 160.041 1131.23 160.551 1131.5 161.141C1131.78 161.741 1131.84 162.371 1131.68 162.951C1131.51 163.541 1131.12 164.041 1130.57 164.411C1130.02 164.781 1129.36 164.981 1128.7 165.101C1127.97 165.231 1127.24 165.341 1126.52 165.441C1120.02 166.321 1113.87 165.951 1108.07 164.351C1102.28 162.751 1096.83 159.911 1091.73 155.831C1091.17 155.381 1090.6 154.911 1090.04 154.431C1089.54 153.991 1089.08 153.481 1088.8 152.891C1088.53 152.291 1088.46 151.661 1088.62 151.081C1088.79 150.491 1089.18 149.991 1089.73 149.621C1090.28 149.251 1090.94 149.051 1091.6 148.931C1092.33 148.801 1093.06 148.69 1093.78 148.59H1093.79Z" fill="#FF9600"/>
</svg>
