<svg width="1000" height="1000" viewBox="0 0 1000 1000" fill="none" xmlns="http://www.w3.org/2000/svg">
<path d="M700 0H300C134.31 0 0 134.31 0 300V700C0 865.69 134.32 1000 300 1000H700C865.69 1000 1000 865.68 1000 700V300C1000 134.31 865.69 0 700 0Z" fill="#FFFEFA"/>
<path d="M848.31 377.95C846.87 359.6 844.36 341.39 840.74 323.3C831.97 282.13 822.29 241 794.93 200.84C781.17 181.11 759.46 161.71 731.97 154.18C704.75 146.49 678.06 150.3 655.84 156.4C567.62 184.73 503.95 236.14 435.56 281.93C328.51 358.1 235.91 453.03 175.71 566.65C160.91 597.21 146.74 630.45 150.67 664.48C152.22 698.52 171.31 730.1 195.11 755.48C271.41 834.99 393.53 859.37 503.24 846.73C730.43 819.91 866.95 584.27 848.31 377.95ZM643.27 598.95C614.54 685.56 529.25 775.41 425.59 760.72C380.33 757.53 331.28 726.24 317.77 681.35C302.96 637.8 308.31 593.91 318.44 553.53C318.74 552.37 319.05 551.21 319.37 550.06C324.09 532.72 329.68 515.43 337.02 499.28C343.94 481.12 351.89 464.33 361.01 447.19C390.39 392.6 437.08 334.13 511.22 326.25C585.61 318.16 654.29 383.35 661.3 456.91C666.85 505.65 659.4 553.88 643.27 598.95Z" fill="#FF9600"/>
<path d="M661.3 456.91C654.29 383.35 585.61 318.161 511.22 326.251C437.08 334.131 390.39 392.601 361.01 447.191C351.89 464.331 343.94 481.121 337.02 499.281C329.68 515.431 324.09 532.721 319.37 550.061C319.05 551.211 318.74 552.371 318.44 553.531C308.31 593.911 302.96 637.801 317.77 681.35C331.28 726.24 380.33 757.53 425.59 760.72C529.25 775.41 614.54 685.56 643.27 598.95C659.4 553.88 666.85 505.65 661.3 456.91ZM596.27 581.921C569.72 657.631 508.67 726.071 428.67 721.641C424.76 721.421 420.79 721.93 416.85 721.7C413.13 721.48 409.43 721.03 405.77 720.33C398.86 719 392.12 716.781 385.8 713.671C371.22 706.501 359.37 694.861 350.52 681.361C340.83 666.591 334.53 649.75 330.63 632.58C326.43 614.09 324.96 594.971 325.84 576.041C326.26 566.991 327.3 557.991 328.36 549.001C329.34 540.631 330.03 532.221 331.81 523.951C334.31 512.261 338.31 500.901 343.66 490.211C348.91 479.711 355.85 470.521 362.59 461.031C363.56 459.681 364.54 458.331 365.54 456.991C366.68 455.421 367.84 453.861 369.02 452.301C405.66 403.351 457.35 359.221 512.7 360.111C567.4 359.941 611.32 409.631 614.31 461.621C617.24 501.531 610.14 543.361 596.27 581.921Z" fill="#FFFEFA"/>
<path d="M614.31 461.62C611.32 409.63 567.4 359.94 512.7 360.11C457.35 359.22 405.66 403.35 369.02 452.3C367.84 453.86 366.68 455.42 365.54 456.99C364.54 458.33 363.56 459.68 362.59 461.03C355.85 470.52 348.91 479.71 343.66 490.21C338.31 500.9 334.31 512.26 331.81 523.95C330.03 532.22 329.34 540.63 328.36 549C327.3 557.99 326.26 566.99 325.84 576.04C324.96 594.97 326.43 614.09 330.63 632.58C334.53 649.75 340.83 666.59 350.52 681.36C359.37 694.86 371.22 706.5 385.8 713.67C392.12 716.78 398.86 719 405.77 720.33C409.43 721.03 413.13 721.48 416.85 721.7C420.79 721.93 424.76 721.42 428.67 721.64C508.67 726.07 569.72 657.63 596.27 581.92C610.14 543.36 617.24 501.53 614.31 461.62Z" fill="#FF9600"/>
<path d="M415.95 479.24C416.22 487.21 417.91 512.44 405.16 518.07C393.5 523.22 389.69 495.23 389.69 482.94C389.69 463.96 395.73 440.28 404.33 446.88C414.46 454.66 415.58 468.14 415.95 479.24Z" fill="white"/>
</svg>
