<svg width="1500" height="1500" viewBox="0 0 1500 1500" fill="none" xmlns="http://www.w3.org/2000/svg">
<path d="M1050 0H450C201.472 0 0 201.472 0 450V1050C0 1298.53 201.472 1500 450 1500H1050C1298.53 1500 1500 1298.53 1500 1050V450C1500 201.472 1298.53 0 1050 0Z" fill="#FFFEFA"/>
<path fill-rule="evenodd" clip-rule="evenodd" d="M1039.83 1154.74C1040.38 1154.8 1040.89 1155.08 1041.27 1155.5C1041.65 1155.92 1041.87 1156.47 1041.97 1157.02C1042.13 1157.94 1042.27 1158.86 1042.4 1159.78C1042.73 1162.1 1042.97 1164.41 1043.14 1166.71C1043.51 1166.45 1043.9 1166.19 1044.3 1165.95C1049.2 1162.99 1055.03 1162.75 1059.68 1163.41C1062.34 1163.88 1066.34 1164.46 1069.44 1168.82C1072.34 1173.53 1070.9 1177.75 1069.97 1180.32C1069.16 1182.26 1068.25 1183.95 1067.27 1185.48C1068.42 1184.85 1069.56 1184.22 1070.71 1183.58C1073.09 1182.27 1075.47 1180.95 1077.85 1179.64C1078.39 1179.34 1079.03 1179.27 1079.63 1179.43C1080.23 1179.59 1080.75 1179.96 1081.07 1180.48C1081.39 1181 1081.48 1181.62 1081.34 1182.21C1081.2 1182.8 1080.83 1183.32 1080.31 1183.65C1078.01 1185.09 1075.7 1186.52 1073.39 1187.96C1065.21 1193.05 1057.01 1198.11 1048.85 1203.23C1044.88 1205.91 1040.77 1208.36 1036.76 1210.89C1036.68 1210.94 1036.6 1211 1036.51 1211.05C1036.05 1211.31 1035.59 1211.47 1035.15 1211.54C1035.03 1211.7 1034.89 1211.85 1034.73 1211.98C1034.26 1212.36 1033.66 1212.55 1033.05 1212.5C1032.45 1212.45 1031.89 1212.17 1031.48 1211.72C1031.08 1211.27 1030.86 1210.69 1030.85 1210.09C1030.85 1210.04 1030.85 1210 1030.85 1209.95C1030.7 1209.05 1030.56 1208.15 1030.43 1207.24C1029.25 1198.97 1029.14 1190.82 1030.1 1182.79C1031.05 1174.76 1033.08 1166.85 1036.16 1159.07C1036.5 1158.2 1036.86 1157.34 1037.23 1156.48C1037.45 1155.97 1037.79 1155.49 1038.27 1155.16C1038.74 1154.83 1039.3 1154.68 1039.85 1154.74H1039.83ZM1057.71 1174.93C1050.76 1172.44 1046.07 1176.95 1042.76 1183.98C1042.75 1184.07 1042.74 1184.15 1042.73 1184.23C1042.2 1188.68 1041.34 1193.09 1040.15 1197.47C1044.39 1193.14 1048.29 1188.51 1052.15 1184.31C1054.74 1181.45 1057.22 1178.29 1058.29 1175.82C1058.4 1175.58 1058.48 1175.35 1058.54 1175.15C1058.3 1175.07 1058.02 1175 1057.7 1174.93H1057.71Z" fill="#FF9600"/>
<path fill-rule="evenodd" clip-rule="evenodd" d="M422.91 1037.52C423.51 1037.43 424.12 1037.57 424.61 1037.92C425.1 1038.26 425.43 1038.78 425.55 1039.37C425.66 1039.96 425.54 1040.57 425.24 1041.08C423.99 1043.23 422.74 1045.38 421.47 1047.51C419.06 1051.58 416.6 1055.62 414.11 1059.63C413.27 1060.99 412.41 1062.34 411.56 1063.7C415.03 1063.61 420.52 1065.66 422.59 1069.74C424.79 1073.76 424.67 1077.06 424.55 1079.97C424.48 1081 424.41 1082 424.34 1083.02C424.19 1084.86 424.04 1086.65 423.88 1088.43C429.51 1083.76 435.22 1079.18 441.01 1074.68C443.15 1073.01 445.31 1071.35 447.48 1069.71C449.48 1068.19 451.48 1066.68 453.49 1065.19C453.97 1064.83 454.57 1064.63 455.18 1064.66C455.79 1064.69 456.36 1064.94 456.77 1065.37C457.18 1065.8 457.41 1066.37 457.4 1066.97C457.4 1067.57 457.15 1068.14 456.76 1068.59C455.11 1070.46 453.45 1072.33 451.78 1074.19C449.99 1076.18 448.18 1078.17 446.37 1080.14C446.52 1081.43 446.67 1082.72 446.81 1084.02C448.96 1103.76 450.03 1123.5 450.03 1143.24C450.03 1162.98 448.96 1182.72 446.81 1202.46C446.57 1204.65 446.32 1206.85 446.05 1209.04C445.98 1209.62 445.72 1210.18 445.28 1210.6C444.84 1211.01 444.26 1211.25 443.67 1211.25C443.08 1211.25 442.5 1211.02 442.06 1210.6C441.62 1210.19 441.36 1209.63 441.29 1209.04C441.02 1206.85 440.77 1204.65 440.53 1202.46C438.38 1182.72 437.31 1162.98 437.31 1143.24C437.31 1123.5 438.29 1105.56 440.25 1086.73C433.58 1093.81 426.77 1100.75 419.81 1107.53C414.95 1111.9 408.12 1108.03 409.79 1101.79C410.62 1096.3 411.13 1088.79 411.64 1082.14C411.71 1081.15 411.78 1080.17 411.86 1079.17C412.01 1077.6 411.77 1076.18 411.64 1075.85C411.52 1075.83 411.36 1075.8 411.16 1075.8C408.74 1075.7 404.33 1077.32 400.91 1079.26C395.4 1082.68 389.38 1076.55 393.22 1071.39C397.73 1065.76 402.33 1060.2 407.02 1054.7C410.09 1051.1 413.21 1047.52 416.36 1043.97C418.02 1042.1 419.68 1040.24 421.36 1038.39C421.76 1037.95 422.31 1037.64 422.91 1037.55V1037.52ZM411.78 1075.85C411.83 1075.89 411.89 1075.92 411.92 1075.91C411.96 1075.91 411.92 1075.88 411.78 1075.85Z" fill="#FF9600"/>
<path d="M574.83 1075.25C575.42 1075.25 575.99 1075.48 576.43 1075.89C576.87 1076.3 577.13 1076.85 577.21 1077.43C577.47 1079.31 577.73 1081.19 577.97 1083.08C579.09 1091.95 579.92 1100.83 580.46 1109.7C584.9 1096.81 592.68 1085.04 608.88 1078.65C618.09 1076.31 628.14 1074.06 639.34 1077.35C649.52 1080.17 656.09 1090.31 658.07 1098.49C660.39 1106.96 660.74 1114.98 661 1122.88C661.5 1144.73 660.63 1166.35 659.05 1188.01C659.05 1191.59 655.62 1193.05 652.63 1190.98C647.78 1187.05 642.94 1183.09 638.12 1179.13C634.36 1176.03 630.61 1172.93 626.86 1169.81C626.57 1169.57 626.34 1169.28 626.19 1168.94C623.69 1171.12 621 1173.07 618.12 1174.76C611.54 1178.59 604.05 1181.17 595.92 1181.49C595.01 1181.51 594.1 1181.51 593.15 1181.44C592.59 1181.38 592.02 1181.21 591.56 1180.88C591.1 1180.55 590.78 1180.09 590.67 1179.57C590.55 1179.05 590.65 1178.5 590.94 1178.02C591.22 1177.53 591.67 1177.15 592.16 1176.87C592.8 1176.47 593.45 1176.04 594.1 1175.6C599.96 1171.58 605.61 1167.55 611.59 1164.07C617.58 1160.56 623.87 1157.47 630.81 1154.64C631.58 1154.33 632.35 1154.02 633.15 1153.71C633.67 1153.5 634.25 1153.39 634.82 1153.47C635.39 1153.55 635.89 1153.81 636.24 1154.22C636.59 1154.62 636.76 1155.15 636.75 1155.71C636.73 1156.27 636.52 1156.81 636.23 1157.28C635.76 1158.01 635.29 1158.71 634.8 1159.4C633.16 1161.71 631.36 1163.88 629.41 1165.89C629.53 1165.95 629.66 1166.01 629.77 1166.09C633.83 1168.79 637.89 1171.5 641.94 1174.23C644.96 1176.26 647.96 1178.29 650.97 1180.33C650.69 1161.31 650.22 1142.22 649.11 1123.39C648.2 1108.69 646.25 1091.92 635.39 1089.19C629.05 1087.17 620.32 1088.38 612.1 1090.43C596.1 1095.08 588.5 1117.73 583.89 1137.43C592.09 1135.49 599.93 1132.13 607.78 1128.88C616.3 1125.28 624.9 1121.48 634.01 1117.6C635.01 1117.18 636.03 1116.74 637.06 1116.31C637.59 1116.08 638.19 1115.98 638.76 1116.08C639.34 1116.19 639.84 1116.48 640.18 1116.92C640.52 1117.36 640.67 1117.92 640.62 1118.49C640.56 1119.06 640.3 1119.59 639.94 1120.03C639.2 1120.91 638.46 1121.75 637.71 1122.58C630.84 1130.07 622.43 1136.27 612.82 1140.32C603.5 1144.18 592.96 1146.35 582.41 1144.24C581.78 1147.44 581.21 1150.65 580.7 1153.88C580.19 1164.16 579.28 1174.44 577.98 1184.72C577.74 1186.6 577.49 1188.48 577.22 1190.37C577.22 1190.38 577.22 1190.39 577.22 1190.4C577.18 1190.97 576.95 1191.52 576.54 1191.94C576.11 1192.38 575.52 1192.63 574.91 1192.64C574.29 1192.66 573.69 1192.43 573.24 1192.02C572.78 1191.6 572.51 1191.03 572.46 1190.43C572.46 1190.39 572.46 1190.35 572.45 1190.31C572.19 1188.45 571.94 1186.59 571.7 1184.73C569.55 1167.79 568.48 1150.85 568.48 1133.91C568.48 1116.97 569.56 1100.03 571.7 1083.09C571.94 1081.21 572.19 1079.33 572.46 1077.44C572.54 1076.86 572.81 1076.31 573.25 1075.9C573.69 1075.49 574.26 1075.26 574.85 1075.26L574.83 1075.25Z" fill="#FF9600"/>
<path d="M835.86 1074.89C836.45 1074.89 837.02 1075.12 837.46 1075.52C837.9 1075.93 838.16 1076.48 838.24 1077.06C838.5 1078.95 838.76 1080.84 839 1082.73C840.1 1091.38 840.91 1100.04 841.44 1108.69C844.03 1103.42 847.52 1098.38 852.38 1093.8C865 1083.86 879.84 1071.36 901.41 1076.67C914.89 1081.48 918.71 1095.18 919.7 1105.03C922.22 1133.15 920.54 1160.64 917.51 1188.16C917.35 1191.76 913.83 1193.08 910.94 1190.84C906.85 1187.14 902.76 1183.42 898.69 1179.7C898.2 1179.24 897.7 1178.79 897.21 1178.33C893.77 1175.18 890.35 1172.02 886.93 1168.86C884.07 1171.26 880.93 1173.26 877.73 1174.95C870.96 1178.45 863.58 1180.53 855.82 1181.2C854.95 1181.27 854.07 1181.33 853.22 1181.35C852.65 1181.37 852.07 1181.28 851.57 1181.01C851.07 1180.75 850.69 1180.33 850.5 1179.83C850.32 1179.33 850.34 1178.77 850.55 1178.26C850.77 1177.74 851.15 1177.31 851.6 1176.96C852.24 1176.46 852.91 1175.95 853.58 1175.46C859.52 1170.98 865.56 1167.17 871.76 1163.96C877.95 1160.7 884.39 1158.22 890.55 1155.16C891.23 1154.81 891.91 1154.44 892.56 1154.05C893.04 1153.75 893.58 1153.53 894.16 1153.5C894.73 1153.47 895.28 1153.63 895.7 1153.96C896.12 1154.29 896.4 1154.78 896.5 1155.33C896.6 1155.88 896.5 1156.45 896.3 1156.97C895.95 1157.81 895.53 1158.64 895.07 1159.44C893.73 1161.7 892.17 1163.73 890.45 1165.56C894.07 1168.25 897.68 1170.95 901.29 1173.66C901.83 1174.06 902.37 1174.47 902.91 1174.88C905.18 1176.59 907.46 1178.31 909.73 1180.03C910.23 1155.34 910.09 1130.4 907.38 1106.38C906.39 1097.8 902.99 1090.19 897.15 1088.41C886.73 1085.05 871.36 1093.63 860.1 1102.67C850.8 1110.41 846.16 1124.89 843.14 1138.75C851.11 1137.39 859.5 1132.33 867.68 1128.1C876.42 1123.4 885.34 1118.61 894.87 1114.1C895.91 1113.61 896.98 1113.1 898.07 1112.59C898.59 1112.34 899.19 1112.22 899.77 1112.32C900.35 1112.41 900.87 1112.7 901.22 1113.13C901.57 1113.57 901.74 1114.13 901.69 1114.7C901.65 1115.27 901.39 1115.81 901.03 1116.25C900.25 1117.18 899.48 1118.08 898.71 1118.96C891.64 1126.93 883.42 1133.84 873.8 1139.02C864.62 1143.63 854.1 1148.2 842.08 1145.37C841.7 1158.48 840.69 1171.58 839.03 1184.69C838.79 1186.58 838.54 1188.47 838.27 1190.36C838.27 1190.38 838.27 1190.4 838.26 1190.41C838.22 1190.93 838.02 1191.44 837.65 1191.84C837.24 1192.3 836.66 1192.57 836.05 1192.62C835.44 1192.66 834.83 1192.46 834.35 1192.07C833.87 1191.68 833.58 1191.12 833.5 1190.52C833.46 1190.24 833.44 1189.96 833.4 1189.68C833.17 1188.02 832.95 1186.35 832.74 1184.69C830.59 1167.7 829.52 1150.71 829.52 1133.71C829.52 1116.71 830.59 1099.73 832.74 1082.73C832.98 1080.84 833.23 1078.95 833.5 1077.06C833.58 1076.48 833.85 1075.92 834.29 1075.52C834.73 1075.12 835.3 1074.89 835.89 1074.89H835.86Z" fill="#FF9600"/>
<path d="M1139.94 1054.83C1144.74 1054.12 1149.54 1053.79 1154.64 1054.42C1156.88 1054.75 1159.21 1055.17 1161.72 1056.68C1162.94 1057.44 1164.29 1058.64 1165.05 1060.38C1165.83 1062.11 1165.8 1064.04 1165.46 1065.51C1159.62 1081.97 1150.72 1094.09 1141.93 1107.25C1142.32 1122.09 1142.57 1136.93 1142.67 1151.77C1142.73 1155.29 1144.52 1159.45 1147.28 1161.98C1150.66 1165.23 1155.94 1166.76 1161.83 1166.79C1188.03 1167 1214.28 1167.64 1240.49 1168.68C1239.24 1163.95 1238 1159.21 1236.78 1154.47C1235.64 1150.06 1234.52 1145.65 1233.4 1141.24C1233.25 1140.66 1233.32 1140.03 1233.62 1139.49C1233.92 1138.96 1234.41 1138.56 1235 1138.38C1235.59 1138.21 1236.23 1138.26 1236.78 1138.54C1237.33 1138.82 1237.75 1139.29 1237.96 1139.86C1239.58 1144.12 1241.18 1148.39 1242.78 1152.66C1245.15 1159.01 1247.49 1165.36 1249.8 1171.73C1250.57 1174.61 1248.9 1177.07 1245.86 1176.94C1217.86 1178.11 1189.82 1178.82 1161.82 1179.05C1154.08 1179.15 1145 1177.18 1138.42 1170.91C1133.14 1165.84 1130.15 1159.16 1130.04 1151.75C1130.15 1136.4 1130.41 1121.04 1130.82 1105.69C1130.84 1104.9 1131.37 1103.15 1131.86 1102.53C1141.31 1089.99 1152.2 1076.5 1158.18 1063.72C1158.34 1063.27 1158.34 1063.1 1158.35 1062.99C1158.35 1062.87 1158.23 1062.58 1157.79 1062.23C1156.91 1061.51 1155.21 1060.87 1153.47 1060.46C1149.42 1059.52 1144.82 1059.3 1140.41 1059.46C1139.79 1059.49 1139.18 1059.3 1138.7 1058.92C1138.22 1058.53 1137.92 1057.98 1137.85 1057.38C1137.79 1056.79 1137.97 1056.18 1138.35 1055.71C1138.74 1055.23 1139.3 1054.92 1139.91 1054.83H1139.94Z" fill="#FF9600"/>
<path fill-rule="evenodd" clip-rule="evenodd" d="M278.05 1053.67C278.66 1053.65 279.25 1053.86 279.71 1054.26C280.17 1054.66 280.45 1055.22 280.53 1055.81C280.92 1058.75 281.27 1061.78 281.6 1064.76C281.95 1068.09 282.27 1071.42 282.57 1074.75C283.62 1074.63 284.69 1074.57 285.79 1074.6C287.68 1074.6 289.56 1074.71 291.54 1075.09C294.78 1075.7 299.68 1077.49 302.13 1082.3C304.43 1087.06 303.35 1091.23 302.31 1094.26C299.96 1100.36 296.33 1104.55 292.5 1108.47C289.98 1110.95 287.31 1113.23 284.51 1115.3C284.49 1124.23 284.13 1133.21 283.32 1142.24C285.27 1140.23 287.31 1138.25 289.54 1136.34C291.09 1135.03 292.66 1133.77 294.69 1132.54C295.69 1131.96 296.81 1131.33 298.48 1130.87C299.31 1130.66 300.36 1130.45 301.82 1130.68C303.23 1130.87 304.87 1131.84 305.7 1132.96C309.63 1138.95 310.26 1144.23 311.31 1149.73C311.8 1152.78 312.16 1155.82 312.35 1158.91C312.38 1159.5 312.21 1160.1 311.83 1160.58C311.45 1161.06 310.91 1161.37 310.31 1161.45C309.71 1161.53 309.1 1161.38 308.6 1161.03C308.1 1160.68 307.76 1160.15 307.63 1159.57C306.94 1156.76 306.11 1153.92 305.2 1151.15C303.85 1147.15 302.2 1142.73 300.23 1139.79C300.11 1139.88 300 1139.97 299.88 1140.06C298.77 1140.92 297.57 1142.08 296.4 1143.31C294.05 1145.79 291.79 1148.54 289.57 1151.36C285.16 1157 280.89 1162.94 276.87 1168.88C272.68 1174.82 262.69 1168.46 266.56 1162.31C268.42 1158.76 269.55 1151.11 270.31 1144.79C271.08 1137.49 271.69 1130.12 272.21 1122.71C270.03 1123.74 267.8 1124.68 265.52 1125.5C263.47 1126.22 261.37 1126.83 259.26 1127.32C259.14 1128.02 259.02 1128.73 258.91 1129.43C258.82 1130.01 258.55 1130.57 258.1 1130.97C257.65 1131.37 257.07 1131.59 256.47 1131.57C255.87 1131.55 255.3 1131.31 254.87 1130.88C254.44 1130.46 254.19 1129.89 254.14 1129.31C253.94 1127.03 253.85 1124.73 253.85 1122.45C253.85 1121.26 253.89 1120.07 253.94 1118.88C253.23 1114.21 252.42 1109.52 251.85 1104.81C250.9 1097.44 250.3 1089.98 250.1 1082.39C250.07 1081.53 250.05 1080.69 250.04 1079.86C250.98 1079.67 251.91 1079.48 252.85 1079.29C253.18 1080.06 253.5 1080.86 253.81 1081.68C255.69 1086.61 257.17 1091.64 258.24 1096.75C258.61 1095.78 259 1094.81 259.43 1093.85C261.98 1087.63 267.41 1080.74 274.73 1077.13C274.93 1073.07 275.14 1069.02 275.37 1064.97C275.52 1062 275.67 1058.97 275.82 1056.03C275.85 1055.44 276.08 1054.86 276.51 1054.42C276.93 1053.98 277.51 1053.72 278.11 1053.7L278.05 1053.67ZM273.93 1092.25C267.47 1098.84 263.01 1110.55 260.48 1121.27C261.26 1120.84 262.02 1120.4 262.78 1119.94C266.31 1117.76 269.68 1115.32 272.83 1112.68C273.24 1105.89 273.59 1099.08 273.93 1092.25ZM285.78 1087.01C285.01 1086.97 284.26 1086.99 283.52 1087.08C283.83 1091.75 284.08 1096.44 284.25 1101.13C287.07 1097.62 289.59 1093.74 290.59 1090.45C291.13 1088.81 290.85 1087.63 290.84 1087.87C290.84 1087.94 290.94 1087.98 290.66 1087.82C290.4 1087.68 289.83 1087.46 289.03 1087.31C288.15 1087.14 287.04 1087.03 285.78 1087.02V1087.01Z" fill="#FF9600"/>
<path d="M358.39 1041.34C358.97 1041.34 359.52 1041.58 359.95 1041.98C360.38 1042.38 360.64 1042.92 360.75 1043.48C361 1044.84 361.23 1046.2 361.45 1047.56C361.98 1050.82 362.43 1054.09 362.8 1057.35C365.04 1056.09 367.29 1054.8 369.53 1053.4C370.28 1052.94 371.02 1052.46 371.77 1051.96C372.24 1051.64 372.79 1051.41 373.36 1051.38C373.94 1051.35 374.49 1051.51 374.92 1051.84C375.35 1052.18 375.63 1052.67 375.73 1053.23C375.82 1053.79 375.72 1054.36 375.5 1054.88C375.11 1055.77 374.68 1056.64 374.22 1057.5C371.58 1062.37 367.89 1066.6 363.69 1070.1C363.58 1073.62 363 1077.03 362.11 1080.3C362.47 1083.82 362.76 1087.34 362.97 1090.85C366.15 1091.5 369.23 1092.42 372.2 1093.6C377.93 1095.88 383.26 1099.12 388.18 1103.34C388.73 1103.81 389.27 1104.29 389.81 1104.78C390.22 1105.16 390.57 1105.61 390.76 1106.13C390.94 1106.65 390.94 1107.19 390.74 1107.67C390.54 1108.15 390.16 1108.54 389.66 1108.79C389.16 1109.04 388.58 1109.12 388.02 1109.12C387.28 1109.1 386.55 1109.08 385.83 1109.05C379.29 1108.72 373.16 1107.42 367.43 1105.15C366.08 1104.61 364.75 1104.02 363.44 1103.38C363.48 1106.68 363.46 1109.98 363.36 1113.28C362.93 1127.18 361.53 1141.03 358.27 1154.93C357.87 1156.52 357.5 1158.04 356.87 1159.74C356.65 1160.27 356.27 1160.75 355.75 1161.05C355.23 1161.35 354.63 1161.45 354.06 1161.33C353.49 1161.21 352.99 1160.87 352.65 1160.38C352.31 1159.9 352.17 1159.3 352.2 1158.73C352.19 1157.52 352.1 1155.9 352 1154.38C350.94 1140.65 350.2 1126.75 350.62 1112.93C350.72 1109.46 350.88 1105.99 351.1 1102.53C347.28 1107.81 342.88 1112.63 337.99 1116.95C336.92 1117.89 335.81 1118.81 334.68 1119.69C334.22 1120.04 333.65 1120.28 333.06 1120.3C332.47 1120.32 331.89 1120.13 331.46 1119.76C331.03 1119.39 330.76 1118.87 330.69 1118.29C330.63 1117.71 330.79 1117.13 331.08 1116.63C331.75 1115.48 332.42 1114.3 333.07 1113.12C337.48 1105.11 341.58 1097.08 345.16 1089.14C346.31 1086.57 347.4 1084 348.38 1081.44C348.73 1080.51 349.07 1079.59 349.39 1078.66C343.69 1081.02 337.62 1082.47 331.36 1082.94C330.4 1083.01 329.42 1083.05 328.45 1083.06C327.88 1083.06 327.3 1082.94 326.8 1082.64C326.31 1082.34 325.95 1081.9 325.8 1081.38C325.65 1080.86 325.71 1080.3 325.96 1079.8C326.21 1079.29 326.64 1078.88 327.12 1078.58C327.88 1078.09 328.64 1077.6 329.39 1077.11C336.17 1072.66 342.79 1068.53 349.45 1064.77C350.56 1064.14 351.67 1063.53 352.77 1062.91C353.38 1057.77 354.17 1052.63 355.15 1047.5C355.41 1046.15 355.68 1044.8 355.96 1043.45C356.08 1042.89 356.36 1042.35 356.8 1041.96C357.24 1041.57 357.8 1041.35 358.38 1041.36L358.39 1041.34Z" fill="#FF9600"/>
<path d="M1061.41 1121.07C1061.96 1121.07 1062.52 1121.13 1063.02 1121.34C1063.52 1121.54 1063.91 1121.87 1064.14 1122.3C1064.37 1122.73 1064.42 1123.23 1064.31 1123.75C1064.19 1124.27 1063.93 1124.75 1063.61 1125.2C1063.29 1125.66 1062.96 1126.11 1062.63 1126.54C1059.61 1130.46 1056.1 1133.44 1052.09 1135.5C1048.08 1137.55 1043.57 1138.68 1038.56 1138.87C1038 1138.89 1037.44 1138.9 1036.87 1138.9C1036.32 1138.9 1035.76 1138.84 1035.26 1138.63C1034.76 1138.43 1034.37 1138.1 1034.14 1137.67C1033.91 1137.24 1033.86 1136.74 1033.97 1136.22C1034.09 1135.7 1034.35 1135.22 1034.67 1134.77C1034.99 1134.31 1035.32 1133.86 1035.65 1133.43C1038.66 1129.51 1042.18 1126.53 1046.19 1124.47C1050.2 1122.42 1054.71 1121.29 1059.72 1121.1C1060.28 1121.08 1060.84 1121.07 1061.41 1121.07Z" fill="#FF9600"/>
<path d="M1062.36 1095.05C1062.92 1095.07 1063.43 1095.25 1063.81 1095.59C1064.19 1095.93 1064.43 1096.41 1064.5 1096.95C1064.57 1097.49 1064.46 1098.04 1064.28 1098.56C1064.03 1099.21 1063.76 1099.85 1063.47 1100.47C1060.81 1106.13 1056.31 1110.7 1051.07 1113.7C1045.82 1116.7 1039.77 1118.28 1033.43 1118.07C1032.73 1118.04 1032 1118 1031.3 1117.91C1030.75 1117.83 1030.19 1117.67 1029.74 1117.36C1029.28 1117.05 1028.95 1116.63 1028.82 1116.14C1028.68 1115.65 1028.75 1115.12 1029 1114.63C1029.24 1114.14 1029.64 1113.73 1030.08 1113.39C1030.56 1113 1031.06 1112.59 1031.54 1112.2C1035.92 1108.61 1040.17 1105.5 1044.63 1102.95C1049.1 1100.38 1053.76 1098.35 1058.99 1096.15C1059.57 1095.9 1060.16 1095.65 1060.76 1095.4C1061.27 1095.17 1061.82 1095.02 1062.38 1095.03L1062.36 1095.05Z" fill="#FF9600"/>
<path d="M1057.34 1072.66C1057.89 1072.54 1058.47 1072.5 1059.01 1072.64C1059.55 1072.78 1060.01 1073.08 1060.31 1073.5C1060.61 1073.92 1060.73 1074.45 1060.66 1075C1060.59 1075.55 1060.35 1076.06 1060.04 1076.51C1059.62 1077.11 1059.19 1077.69 1058.74 1078.25C1054.72 1083.36 1049.5 1087.35 1043.58 1089.83C1037.65 1092.3 1031.04 1093.38 1024.23 1092.33C1023.47 1092.21 1022.71 1092.05 1021.94 1091.85C1021.4 1091.69 1020.88 1091.44 1020.48 1091.05C1020.08 1090.67 1019.84 1090.18 1019.79 1089.67C1019.75 1089.16 1019.92 1088.64 1020.25 1088.2C1020.59 1087.76 1021.06 1087.44 1021.56 1087.2C1022.12 1086.9 1022.69 1086.58 1023.26 1086.26C1028.41 1083.31 1033.34 1080.56 1038.54 1078.4C1043.73 1076.21 1049.18 1074.53 1055.26 1073.13C1055.94 1072.97 1056.62 1072.82 1057.31 1072.67L1057.34 1072.66Z" fill="#FF9600"/>
<path d="M1033.12 1042.18C1038.48 1041.46 1043.54 1041.76 1048.31 1043.07C1053.09 1044.38 1057.57 1046.69 1061.77 1050.03C1062.23 1050.4 1062.7 1050.78 1063.15 1051.18C1063.57 1051.54 1063.95 1051.95 1064.17 1052.44C1064.4 1052.93 1064.45 1053.44 1064.32 1053.92C1064.18 1054.4 1063.86 1054.81 1063.41 1055.11C1062.96 1055.41 1062.41 1055.57 1061.87 1055.67C1061.27 1055.78 1060.67 1055.87 1060.08 1055.95C1054.72 1056.67 1049.66 1056.37 1044.88 1055.06C1040.11 1053.75 1035.62 1051.44 1031.42 1048.1C1030.96 1047.73 1030.49 1047.35 1030.03 1046.95C1029.62 1046.59 1029.24 1046.18 1029.01 1045.69C1028.79 1045.2 1028.73 1044.69 1028.86 1044.21C1029 1043.73 1029.32 1043.32 1029.78 1043.02C1030.23 1042.72 1030.78 1042.56 1031.32 1042.46C1031.92 1042.35 1032.52 1042.26 1033.12 1042.18Z" fill="#FF9600"/>
<path d="M1048.55 482.99C1047.32 467.26 1045.16 451.65 1042.06 436.15C1034.54 400.86 1026.25 365.61 1002.79 331.18C991 314.27 972.39 297.64 948.82 291.19C925.49 284.6 902.61 287.86 883.57 293.09C807.95 317.37 753.38 361.44 694.76 400.69C603 465.98 523.63 547.35 472.03 644.74C459.34 670.93 447.2 699.43 450.57 728.59C451.9 757.77 468.26 784.84 488.66 806.59C554.06 874.74 658.73 895.64 752.77 884.8C947.5 861.81 1064.52 659.83 1048.54 482.99H1048.55ZM872.8 672.42C848.17 746.66 775.07 823.67 686.22 811.08C647.43 808.35 605.38 781.53 593.8 743.05C581.11 705.72 585.69 668.1 594.37 633.49C594.63 632.5 594.89 631.5 595.17 630.52C599.22 615.66 604.01 600.84 610.3 586.99C616.23 571.42 623.05 557.03 630.86 542.34C656.04 495.55 696.06 445.43 759.61 438.68C823.37 431.75 882.24 487.62 888.25 550.67C893.01 592.45 886.62 633.79 872.8 672.42Z" fill="#FF9600"/>
<path d="M888.25 550.67C882.24 487.62 823.37 431.74 759.61 438.68C696.06 445.43 656.04 495.551 630.86 542.341C623.04 557.031 616.23 571.421 610.3 586.991C604.01 600.831 599.22 615.651 595.17 630.521C594.9 631.511 594.63 632.501 594.37 633.491C585.69 668.101 581.1 705.721 593.8 743.051C605.38 781.531 647.42 808.351 686.22 811.081C775.07 823.671 848.18 746.66 872.8 672.42C886.63 633.79 893.01 592.45 888.25 550.67ZM832.51 657.821C809.75 722.711 757.42 781.381 688.85 777.581C685.5 777.391 682.1 777.83 678.72 777.63C675.53 777.44 672.36 777.06 669.22 776.46C663.3 775.32 657.52 773.421 652.1 770.751C639.6 764.601 629.45 754.631 621.86 743.061C613.55 730.401 608.15 715.971 604.81 701.251C601.21 685.401 599.95 669.011 600.7 652.791C601.06 645.031 601.95 637.321 602.86 629.611C603.7 622.441 604.29 615.23 605.82 608.14C607.96 598.12 611.39 588.381 615.98 579.221C620.48 570.221 626.43 562.34 632.21 554.21C633.04 553.05 633.88 551.901 634.74 550.751C635.72 549.401 636.71 548.071 637.72 546.731C669.13 504.771 713.43 466.95 760.87 467.71C807.76 467.56 845.4 510.161 847.96 554.721C850.47 588.931 844.39 624.781 832.5 657.831L832.51 657.821Z" fill="#FFFEFA"/>
<path d="M847.98 554.7C845.42 510.14 807.77 467.55 760.89 467.69C713.45 466.93 669.14 504.75 637.74 546.71C636.73 548.05 635.73 549.38 634.76 550.73C633.9 551.88 633.06 553.04 632.23 554.19C626.45 562.32 620.5 570.2 616 579.2C611.41 588.36 607.99 598.1 605.84 608.12C604.31 615.21 603.72 622.42 602.88 629.59C601.97 637.3 601.08 645.01 600.72 652.77C599.97 669 601.23 685.38 604.83 701.23C608.17 715.95 613.57 730.38 621.88 743.04C629.47 754.61 639.62 764.59 652.12 770.73C657.54 773.4 663.31 775.3 669.24 776.44C672.38 777.04 675.55 777.43 678.74 777.61C682.12 777.81 685.52 777.37 688.87 777.56C757.44 781.36 809.77 722.69 832.53 657.8C844.42 624.75 850.5 588.89 847.99 554.69L847.98 554.7Z" fill="#FF9600"/>
<path d="M677.96 569.8C678.19 576.63 679.64 598.26 668.71 603.08C658.72 607.49 655.45 583.5 655.45 572.97C655.45 556.7 660.63 536.41 668 542.06C676.68 548.73 677.64 560.28 677.96 569.8Z" fill="white"/>
</svg>
