<svg width="30" height="30" viewBox="0 0 30 30" fill="none" xmlns="http://www.w3.org/2000/svg">
<path d="M0.75 11.6872V27.3127C0.75 27.7271 0.914594 28.1244 1.20757 28.4174C1.50055 28.7104 1.89792 28.875 2.31225 28.875H27.3127C27.7271 28.875 28.1244 28.7104 28.4174 28.4174C28.7104 28.1244 28.875 27.7271 28.875 27.3127V11.6872M0.75 11.6872H28.875M0.75 11.6872V5.43749C0.75 5.02316 0.914594 4.6258 1.20757 4.33282C1.50055 4.03984 1.89792 3.87524 2.31225 3.87524H27.3127C27.7271 3.87524 28.1244 4.03984 28.4174 4.33282C28.7104 4.6258 28.875 5.02316 28.875 5.43749V11.6872" stroke="#FFFEFA" stroke-width="1.5" stroke-linecap="round" stroke-linejoin="round"/>
<path d="M21.0622 0.75V6.99975M8.56274 0.75V6.99975" stroke="#FFFEFA" stroke-width="1.5" stroke-linecap="round" stroke-linejoin="round"/>
</svg>
