<svg width="30" height="30" viewBox="0 0 30 30" fill="none" xmlns="http://www.w3.org/2000/svg">
<path d="M6.34137 21.8301V7.12459C6.34137 5.23278 6.42155 3.03715 7.83935 1.77969C9.00117 0.750092 10.644 0.750092 12.1997 0.750092H22.4816C23.9261 0.750092 25.4241 0.77541 26.7181 1.41117C26.8231 1.46275 26.923 1.51666 27.0177 1.57293C28.9405 2.70239 28.8814 5.39453 28.8814 7.6211V22.4349C28.8814 23.8991 28.8139 25.4042 28.2062 26.7376C27.6239 28.0133 26.8278 28.5858 25.3594 28.8558M6.34137 21.8301H18.7612C19.3421 21.8301 19.8654 22.186 20.0693 22.7275C20.2466 23.2015 20.3928 23.6094 20.5237 23.9934C20.978 25.3409 21.3774 26.7629 22.3339 27.815C22.9092 28.4479 23.5126 28.7686 24.3171 28.8558M6.34137 21.8301H2.11327C1.33545 21.8301 0.691249 22.4588 0.754544 23.2324C0.820652 24.0426 0.965527 24.7487 1.23277 25.504C1.70537 26.8402 2.5268 28.1919 3.87709 28.6336C4.37501 28.7954 4.92638 28.8488 5.63669 28.8558H24.3171M25.3594 28.8558C25.0122 28.8882 24.6643 28.8882 24.3171 28.8558M25.3594 28.8558H24.3171M12.6624 7.78286H22.5083M12.6624 13.4091H17.5854" stroke="#FFFEFA" stroke-width="1.5" stroke-linecap="round" stroke-linejoin="round"/>
</svg>
