<svg width="25" height="25" viewBox="0 0 25 25" fill="none" xmlns="http://www.w3.org/2000/svg">
<path d="M22.5386 6.21861C23.1394 5.61796 23.477 4.80324 23.4771 3.95368C23.4772 3.10411 23.1398 2.28931 22.5391 1.6885C21.9385 1.0877 21.1238 0.750107 20.2742 0.75C19.4246 0.749893 18.6098 1.08728 18.009 1.68793L2.84311 16.8573C2.57927 17.1203 2.38415 17.4442 2.27493 17.8004L0.773789 22.7459C0.74442 22.8442 0.742202 22.9486 0.76737 23.048C0.792538 23.1474 0.844153 23.2382 0.91674 23.3107C0.989326 23.3831 1.08018 23.4346 1.17965 23.4596C1.27913 23.4846 1.38352 23.4822 1.48174 23.4527L6.42834 21.9527C6.78421 21.8445 7.10808 21.6505 7.37152 21.3879L22.5386 6.21861Z" stroke="#FFFEFA" stroke-width="1.5" stroke-linecap="round" stroke-linejoin="round"/>
</svg>
