<svg width="182" height="137" viewBox="0 0 182 137" fill="none" xmlns="http://www.w3.org/2000/svg">
<path d="M35.0205 50.3846C36.9347 48.1044 38.2599 43.1027 40.2478 37.6597C41.4172 34.4578 41.4401 31.6122 41.2157 28.539C40.8931 28.7842 40.0711 29.1274 39.3643 28.539C38.6575 27.9506 37.6955 27.4112 37.3028 27.215L35.0205 28.539V31.9225L33.4008 33.3936L32.1491 31.9225L29.7195 32.8052L26.8482 31.9225L23.0198 33.6142L21.1055 35.306L22.5044 37.6597L20.5165 38.1746C19.633 39.3515 17.2182 41.8964 14.6266 42.6614C12.035 43.4264 12.3688 44.6964 12.8596 45.2358C12.197 45.7016 10.6804 46.5892 9.91466 46.4127C9.14897 46.2361 8.27041 48.0554 7.92684 48.9871L6.45301 48.1044C6.37653 49.9383 6.4641 51.6101 6.67523 52.6648C7.41146 54.4301 9.2815 58.2107 10.8718 59.2111C12.4621 60.2114 13.3505 61.3442 13.5959 61.7855L10.8718 64.4334L13.5959 66.5665L10.8718 68.1111L12.8596 71.2004L6.67523 76.055C8.58448 79.3649 9.91466 84.4402 19.1177 87.603C26.4065 82.2335 32.1491 61.7119 32.1491 59.2111C32.1491 56.7102 33.1063 52.6648 35.0205 50.3846Z" fill="#F59100"/>
<path d="M7.41147 28.539C8.14771 29.7894 9.47294 37.2184 7.92684 40.5283C7.01411 42.4823 6.56322 45.4617 6.45301 48.1044L7.92684 48.9871C8.27041 48.0554 9.14897 46.2361 9.91466 46.4127C10.6804 46.5892 12.197 45.7016 12.8596 45.2358C12.3688 44.6964 12.035 43.4264 14.6266 42.6614C17.2182 41.8964 19.633 39.3515 20.5165 38.1746L22.5044 37.6597L21.1055 35.306L23.0198 33.6142L26.8482 31.9225L29.7195 32.8052L32.1491 31.9225L33.4008 33.3936L35.0205 31.9225V28.539L37.3028 27.215C37.6955 27.4112 38.6575 27.9506 39.3643 28.539C40.0711 29.1274 40.8931 28.7842 41.2157 28.539C41.0586 26.388 40.7805 24.1256 40.6895 21.5514C40.5128 16.5497 37.131 15.005 35.4622 14.8579C36.0512 8.50286 32.2228 5.19783 30.2349 4.33969C27.1722 2.92745 24.3941 4.92813 23.3879 6.10499C21.9743 1.6329 18.4305 0.171626 16.8353 0C9.00173 1.11802 9.59563 8.60583 10.8718 12.21C11.5786 7.38484 14.0622 5.24686 15.2156 4.78102C15.2156 5.95789 17.4979 12.5778 18.6759 15.5935C19.8539 18.6092 19.3386 24.9349 19.2649 27.215C19.206 29.0392 18.3078 32.0941 17.8661 33.3936C17.8661 32.658 16.4672 30.7456 16.0991 29.2746C15.731 27.8035 15.3628 26.3324 12.8596 22.1398C10.8571 18.7857 7.90229 18.8789 6.67523 19.3447C-0.510486 20.8747 -0.490853 27.2396 0.417177 30.2308C0.932546 27.1415 2.03691 28.539 2.55228 26.7737C2.96457 25.3615 4.58921 24.42 5.34999 24.1258C5.20274 25.5968 6.67523 27.2886 7.41147 28.539Z" fill="#FFBE46"/>
<path d="M6.67523 52.6648C7.08752 54.7243 7.92684 59.2111 0.417177 64.4334C4.02478 67.7434 4.17198 71.7153 6.67523 76.055L12.8596 71.2004L10.8718 68.1111L13.5959 66.5665L10.8718 64.4334L13.5959 61.7855C13.3505 61.3442 12.4621 60.2114 10.8718 59.2111C9.2815 58.2107 7.41146 54.4301 6.67523 52.6648Z" fill="#FFBE46"/>
<path d="M38.2853 35.7424C38.6534 38.8317 39.2866 42.936 38.2853 47.8789C37.0569 53.9429 29.9375 59.0479 37.8225 82.0815C37.9714 82.5164 38.1256 82.9577 38.2853 83.4055C40.5677 89.8047 39.4633 85.8328 40.1259 94.9535C40.7885 104.074 53.0163 109.199 60.8143 110.547C73.5989 112.757 79.6059 117.217 85.1839 120.549C86.7419 121.479 88.2664 122.321 89.8958 123.002C93.8885 124.67 98.511 125.366 105.799 124.007C116.964 121.926 121.039 127.906 123.321 133.055C123.837 129.303 123.91 124.007 126.045 124.89C128.18 125.773 133.408 136.217 133.408 136.217C133.923 130.407 131.567 120.579 134.733 125.272C137.899 129.965 143.273 136.217 143.273 136.217C143.273 136.217 141.727 127.244 140.917 123.493C140.107 119.741 152.697 129.965 152.697 129.965V124.007C152.697 120.624 156.305 116.799 159.839 120.403C163.373 124.007 165.189 126.288 167.054 129.377C167.054 126.729 166.053 122.169 166.17 118.049C166.288 113.93 171.398 121.58 176.772 125.272C176.772 125.272 173.459 117.976 174.048 116.799C174.637 115.622 178.76 120.992 182 122.242C176.772 115.622 174.048 112.165 174.048 110.106C174.048 108.458 178.171 108.831 180.233 109.223C167.496 95.9833 177.361 88.8485 174.048 75.8294C170.735 62.8103 174.564 49.5706 175.594 37.5813C176.625 25.5919 177.877 4.48191 161.385 1.24553C144.893 -1.99085 147.691 2.79017 130.315 4.48191C112.94 6.17366 116.106 7.27697 111.32 7.93896C106.535 8.60094 103.075 15.6621 99.4669 20.958C95.8594 26.2539 85.6256 28.6077 79.9566 29.7845C75.4213 30.726 72.0788 28.5096 70.6799 27.725C70.5818 28.9754 69.9584 31.4763 68.2503 31.4763C66.5422 31.4763 63.5384 26.3275 61.4769 24.4886C62.0659 28.9019 65.1139 32.3001 62.8758 33.83C60.6376 35.3599 57.8693 28.9019 53.9673 25.0771C53.9673 25.0771 56.9122 36.7722 55.9551 37.4342C54.998 38.0962 47.8564 28.9019 47.8564 28.9019C48.2982 32.2854 51.4788 37.8167 49.7707 39.3466C48.0626 40.8765 45.4269 36.2573 41.0094 31.4763C41.8929 35.4482 44.9704 42.3329 44.028 43.0978C43.0856 43.8628 40.7885 39.0524 38.2853 35.7424Z" fill="#FFBE46"/>
<path d="M150.048 74.7997C151.579 69.0919 150.269 58.1029 146.735 56.4111C143.201 54.7194 137.267 49.7913 137.974 44.2011C138.857 37.2135 147.766 29.0491 148.649 27.4309C149.533 25.8127 157.437 20.9763 161.754 18.9721C169.043 15.5886 168.391 8.41577 169.043 9.11589C171.988 12.2787 171.399 21.3259 171.104 24.4152C170.81 27.5044 167.423 37.0665 166.981 47.2169C166.54 57.3674 160.723 67.665 160.282 77.3006C159.84 86.9362 148.944 99.661 147.103 101.059C144.1 103.339 140.623 108.929 136.647 112.018C132.671 115.107 128.991 113.71 128.771 112.018C128.55 110.326 133.039 98.2634 134.808 95.6156C135.89 93.9956 148.134 81.9345 150.048 74.7997Z" fill="#FFAE1E"/>
<path d="M125.898 14.8531C125.544 15.0296 125.26 15.9564 125.161 16.3977C128.622 16.3977 127.444 14.8531 127.444 14.4117C127.444 13.9704 126.339 14.6324 125.898 14.8531Z" fill="#FB9700"/>
<path d="M132.966 12.4994C132.436 12.9113 132.303 13.9459 132.303 14.4117C133.555 14.6324 133.775 13.1613 133.775 12.8671C133.775 12.5729 133.628 11.9845 132.966 12.4994Z" fill="#FB9700"/>
<path d="M129.8 15.5151C129.623 15.8681 129.726 16.9371 129.8 17.4275C130.168 17.6481 131.567 16.7655 131.567 16.3977C131.567 16.0299 131.199 15.6622 130.978 15.5151C130.757 15.3679 130.021 15.0737 129.8 15.5151Z" fill="#FB9700"/>
<path d="M123.468 17.7952C122.879 18.0895 122.683 18.8985 122.658 19.2663C123.321 19.2663 124.425 19.0457 124.72 18.6779C125.014 18.3101 124.793 17.7952 124.72 17.4275C124.646 17.0597 124.204 17.4275 123.468 17.7952Z" fill="#FB9700"/>
<path d="M128.106 12.8671C127.93 13.0437 128.18 13.5781 128.327 13.8233C129.211 13.8233 129.8 13.0878 129.579 12.8671C129.358 12.6465 128.327 12.6464 128.106 12.8671Z" fill="#FB9700"/>
<path d="M130.242 10.734C130.065 10.9694 129.873 11.6657 129.8 11.9845C130.389 11.9845 131.346 11.2489 131.346 10.734C131.346 10.2192 130.462 10.4398 130.242 10.734Z" fill="#FB9700"/>
<path d="M134.07 7.79188C133.658 7.90957 133.702 8.82164 133.775 9.26297C134.364 9.26297 135.469 8.30676 135.69 7.79188C135.911 7.27701 134.585 7.64478 134.07 7.79188Z" fill="#FB9700"/>
<path d="M132.303 5.36457C131.95 5.65878 131.665 6.02655 131.567 6.17366C132.156 6.17366 133.775 5.80589 134.07 5.36457C134.364 4.92324 132.745 4.99679 132.303 5.36457Z" fill="#FB9700"/>
<path d="M135.248 12.8671C134.895 13.1613 135.101 14.1666 135.248 14.6324C135.763 14.6324 137.015 13.4555 136.794 12.8671C136.573 12.2787 135.69 12.4994 135.248 12.8671Z" fill="#FB9700"/>
<path d="M119.64 19.7076C119.286 19.8842 119.345 20.7129 119.419 21.1052C119.811 21.0316 120.715 20.7815 121.186 20.3696C121.775 19.8548 121.407 19.487 121.186 19.2663C120.965 19.0457 120.081 19.487 119.64 19.7076Z" fill="#FB9700"/>
<path d="M114.56 22.282C114.383 22.7528 114.486 23.4099 114.56 23.6796C115.517 23.2382 115.885 22.282 115.885 22.0614C115.885 21.8407 115.738 21.5465 115.517 21.3258C115.296 21.1052 114.78 21.6936 114.56 22.282Z" fill="#FB9700"/>
<path d="M112.204 22.0614C112.027 22.4733 112.032 22.9685 112.056 23.1647C112.999 23.1647 113.514 22.3077 113.74 21.9308L113.75 21.9143C113.971 21.5465 113.382 21.4729 113.087 21.3258C112.793 21.1787 112.425 21.5465 112.204 22.0614Z" fill="#FB9700"/>
<path d="M126.708 17.7952C125.824 18.0895 125.603 19.3889 125.603 20.0019C127.738 20.0019 128.327 18.4572 128.327 18.0159C128.327 17.5746 127.812 17.4275 126.708 17.7952Z" fill="#FB9700"/>
<path d="M146.071 2.12821C145.482 2.24589 145.138 2.96182 145.04 3.30507C146.881 3.30507 147.47 2.49598 147.47 2.12821C147.47 1.76043 146.807 1.9811 146.071 2.12821Z" fill="#FB9700"/>
<path d="M149.531 2.12821C149.119 2.12821 148.623 2.56953 148.427 2.7902C148.427 2.83923 148.618 2.98144 149.384 3.15797C150.341 3.37863 150.783 2.9373 151.298 2.9373C151.813 2.9373 151.74 2.64309 151.372 2.34887C151.004 2.05466 150.046 2.12821 149.531 2.12821Z" fill="#FB9700"/>
<path d="M150.856 4.04062C150.444 4.04062 149.899 4.92327 149.899 5.21748C149.899 5.5117 151.077 6.12955 151.372 6.24724C151.74 6.39435 153.728 5.21748 153.728 4.84971C153.728 4.48194 152.918 4.48194 152.329 4.48194C151.74 4.48194 151.372 4.04062 150.856 4.04062Z" fill="#FB9700"/>
<path d="M61.6968 52.8805C61.6379 53.7632 62.5558 54.6213 63.0221 54.9401C63.9792 55.1607 64.3473 54.3516 64.5682 54.0574C64.789 53.7632 63.1693 53.2483 62.6539 52.6599C62.1386 52.0714 61.7705 51.7772 61.6968 52.8805Z" fill="#FB8200"/>
<path d="M58.0156 50.4532C58.1383 50.9436 58.3985 52.0714 58.4574 52.6599C58.7426 55.5094 61.6342 53.3435 60.3716 51.7037C59.7826 50.9387 58.5555 50.5513 58.0156 50.4532Z" fill="#FB8200"/>
<path d="M66.0407 56.7053C66.0407 57.3526 66.4824 58.25 67.3659 58.5442C68.2494 58.8384 68.6175 58.1764 69.4274 57.4409C70.2372 56.7053 69.0592 56.5582 68.2494 56.3376C67.6015 56.161 66.5069 55.3323 66.0407 54.9401V56.7053Z" fill="#FB8200"/>
<path d="M70.5317 58.7649C70.2372 59.6475 71.1943 60.5302 72.1515 60.9715C73.1086 61.4128 75.17 60.0153 73.9184 59.4269C72.9171 58.9561 71.6361 58.0538 71.1207 57.6616C71.0471 57.6616 70.8262 57.8822 70.5317 58.7649Z" fill="#FB8200"/>
<path d="M90.4102 73.5492C90.4102 74.3731 90.1894 74.5055 90.7783 75.0203C91.3673 75.5352 91.8091 74.7997 92.03 74.4319C92.2508 74.0641 92.2508 73.5492 91.6618 73.255C91.0728 72.9608 90.4102 72.5195 90.4102 73.5492Z" fill="#FB8200"/>
<path d="M93.9442 77.8154C94.0031 78.8157 94.8522 79.262 95.2694 79.36C95.8584 79.36 96.0793 78.9923 96.3002 78.698C96.521 78.4038 96.3002 77.9625 95.5639 77.5947C94.9749 77.3005 94.2387 76.6385 93.9442 76.3443C93.9196 76.4179 93.8853 76.8151 93.9442 77.8154Z" fill="#FB8200"/>
<path d="M98.8034 80.0956C98.8034 81.0518 99.5396 82.9642 100.349 83.1113C101.159 83.2584 101.1 83.3172 101.454 82.67C101.896 81.8609 102.043 81.7873 102.558 81.0518C103.074 80.3162 101.896 80.0956 100.57 80.0956C99.2451 80.0956 98.8034 79.1394 98.8034 80.0956Z" fill="#FB8200"/>
<path d="M103.957 84.803C103.78 85.8034 104.104 86.7154 105.135 87.1568C106.166 87.5981 106.681 86.9361 107.27 86.7154C107.859 86.4948 108.743 85.3179 107.417 85.1708C106.092 85.0237 105.43 84.5088 104.767 83.9939C104.104 83.4791 104.178 83.5526 103.957 84.803Z" fill="#FB8200"/>
<path d="M109.847 90.1725C109.994 91.9378 111.025 92.232 111.54 92.5998C112.056 92.9675 113.72 93.5118 114.485 93.3353C115.442 93.1147 115.59 92.4527 115.295 91.7907C115.001 91.1287 114.338 91.2022 113.528 90.9816C112.718 90.7609 112.35 91.4229 112.056 91.4229C111.761 91.4229 111.761 90.8345 111.393 89.9518C111.099 89.2457 110.24 88.4317 109.847 88.113C109.798 88.211 109.729 88.7602 109.847 90.1725Z" fill="#FB8200"/>
<path d="M116.326 94.218C116.267 94.8064 117.283 95.6155 117.872 95.8362C118.461 96.0568 119.271 96.1304 119.565 96.2039C119.418 95.9587 118.991 95.2624 118.461 94.4386C117.798 93.4089 117.357 93.3353 117.062 93.1147C116.768 92.894 116.4 93.4824 116.326 94.218Z" fill="#FB8200"/>
<path d="M38.2853 35.7424C38.6534 38.8317 39.2866 42.936 38.2853 47.8789C37.0569 53.9429 29.9375 59.0479 37.8225 82.0815C41.8052 78.8942 49.7707 71.4603 49.7707 67.2236C49.7707 61.9277 52.3475 59.8682 54.7035 54.8665C56.5883 50.8652 50.9241 48.0995 47.8564 47.2169C50.8014 46.4078 54.1145 45.9812 54.7035 45.1574C55.2925 44.3336 52.7893 43.5392 50.2124 42.0681C53.4519 42.0681 57.9577 42.8036 58.6056 41.6268C59.2535 40.4499 57.2803 39.935 55.9551 38.7582C57.9184 38.9543 61.9481 39.2289 62.3604 38.7582C62.7727 38.2874 60.667 36.9193 59.5627 35.7424C62.1395 36.1102 65.9974 37.2282 67.2932 36.4044C68.589 35.5806 66.7778 34.6391 65.6735 33.4623C68.1276 33.9036 73.2273 34.5214 73.993 33.4623C74.7587 32.4031 72.1033 29.1961 70.6799 27.725C70.5818 28.9755 69.9584 31.4763 68.2503 31.4763C66.5422 31.4763 63.5384 26.3275 61.4769 24.4886C62.0659 28.9019 65.1139 32.3001 62.8758 33.83C60.6376 35.36 57.8693 28.9019 53.9673 25.0771C53.9673 25.0771 56.9122 36.7722 55.9551 37.4342C54.998 38.0962 47.8564 28.9019 47.8564 28.9019C48.2982 32.2854 51.4788 37.8167 49.7707 39.3466C48.0626 40.8765 45.4269 36.2573 41.0094 31.4763C41.8929 35.4482 44.9704 42.3329 44.028 43.0979C43.0856 43.8628 40.7885 39.0524 38.2853 35.7424Z" fill="#F59100"/>
<path d="M111.1 101.72C109.259 102.677 104.768 106.281 97.5527 106.722C90.3376 107.164 85.1839 116.284 89.8958 123.002C92.1782 117.069 101.013 112.239 107.566 110.915C114.118 109.591 123.321 104.442 122.29 102.456C121.26 100.47 112.94 100.764 111.1 101.72Z" fill="#F59100"/>
<path fill-rule="evenodd" clip-rule="evenodd" d="M143.297 45.8193C144.305 43.9804 145.379 43.6568 146.145 40.3027C147.102 36.1101 153.802 30.52 157.41 31.9911C161.017 33.4622 161.827 37.8019 161.312 39.4201C160.796 41.0382 160.87 42.73 161.312 43.9804C161.753 45.2308 158.514 54.7193 152.035 55.0871C145.787 55.4417 142.289 47.6581 143.297 45.8193Z" fill="#FA9B00"/>
<path d="M149.016 45.8192C149.605 43.0242 155.495 38.1696 156.82 38.8329C158.618 39.7326 158.808 43.3197 156.673 46.7032C154.538 50.0867 148.427 48.6143 149.016 45.8192Z" fill="#E6820F"/>
<path fill-rule="evenodd" clip-rule="evenodd" d="M156.82 38.8329C155.495 38.1696 149.605 43.0242 149.016 45.8192C148.427 48.6143 154.538 50.0867 156.673 46.7032C158.808 43.3197 158.618 39.7326 156.82 38.8329Z" fill="#E6820F"/>
<path d="M152.551 47.879C150.268 47.879 150.899 45.1575 151.152 44.3485C151.405 43.5394 152.845 40.8178 154.759 41.9946C156.674 43.1715 154.833 47.879 152.551 47.879Z" fill="black"/>
<path d="M167.276 23.3117C166.466 23.3852 165.509 19.9284 166.687 19.4134C168.393 18.6674 168.085 23.2383 167.276 23.3117Z" fill="#82460F"/>
<path d="M134.512 105.619C132.598 112.239 135.837 111.135 136.795 110.621C140.329 108.487 141.58 103.118 141.875 101.72C142.112 100.594 142.39 96.9395 141.359 95.1742C140.535 93.7619 139.936 95.3213 139.74 96.2775C139.268 95.7479 138.611 96.4982 138.341 96.9395C136.5 96.9395 136.426 98.999 134.512 105.619Z" fill="#FFA421"/>
<path d="M82.3852 44.2748C81.4428 44.3336 80.6673 45.6723 80.3973 46.3343C81.5753 46.555 83.0478 46.3343 83.4895 45.4517C83.9313 44.569 83.5632 44.2012 82.3852 44.2748Z" fill="#FB9700"/>
<path d="M90.5574 46.0401C89.8506 45.9812 88.6432 47.3886 88.1278 48.0996C89.674 48.4674 91.5146 47.8054 91.7354 47.0698C91.9563 46.3343 91.4409 46.1136 90.5574 46.0401Z" fill="#FB9700"/>
<path d="M79.293 48.5409C78.8218 48.6586 78.3113 49.5216 78.115 49.9384C79.6611 50.1591 80.1764 49.6442 80.2501 49.1293C80.3237 48.6145 79.8819 48.3938 79.293 48.5409Z" fill="#FB9700"/>
<path d="M83.4895 48.0996C82.7827 48.5703 82.4588 49.5216 82.3852 49.9384C83.9313 50.2327 85.4774 49.4236 85.6246 49.1293C85.7719 48.8351 85.1093 48.5409 84.962 48.0996C84.8148 47.6583 84.373 47.5111 83.4895 48.0996Z" fill="#FB9700"/>
<path d="M91.3673 54.131C90.366 54.2487 89.8212 55.5531 89.674 56.1905C90.7783 56.5583 92.7662 55.6757 92.987 55.0137C93.2079 54.3517 92.6189 53.9839 91.3673 54.131Z" fill="#FB9700"/>
<path d="M85.6246 54.4252C84.8589 54.4841 84.373 55.7737 84.2258 56.4112C86.6554 56.9996 87.6861 55.7492 87.6861 55.0137C87.6861 54.2781 86.5817 54.3517 85.6246 54.4252Z" fill="#FB9700"/>
<path d="M80.9863 54.4252C80.3384 54.6606 80.2255 55.455 80.2501 55.8228C80.8391 55.8718 82.0318 55.8228 82.0907 55.2343C82.1643 54.4988 81.7962 54.131 80.9863 54.4252Z" fill="#FB9700"/>
<path d="M80.9863 40.1557C80.3384 40.2734 79.7838 41.2836 79.5874 41.7739C80.8391 42.0682 82.3852 41.7739 82.606 40.9648C82.8269 40.1557 81.7962 40.0086 80.9863 40.1557Z" fill="#FB9700"/>
<path d="M83.4895 37.4342C82.8416 37.6696 82.4833 38.2188 82.3852 38.464C82.6551 38.6601 83.357 39.0524 84.0049 39.0524C84.8148 39.0524 85.6246 37.9491 85.3301 37.4342C85.0356 36.9193 84.2994 37.14 83.4895 37.4342Z" fill="#FB9700"/>
<path d="M75.8326 41.1855C75.0669 41.1855 74.4338 42.2643 74.2129 42.8037C75.5381 42.8037 76.8634 42.1417 76.8634 41.7739C76.8634 41.4062 76.7897 41.1855 75.8326 41.1855Z" fill="#FB9700"/>
<path d="M87.0235 40.6706C86.3167 41.0825 85.7964 42.0681 85.6246 42.5094C86.0909 42.6075 87.2444 42.7448 88.1278 42.5094C89.2322 42.2152 89.0113 40.9648 88.8641 40.6706C88.7168 40.3764 87.907 40.1557 87.0235 40.6706Z" fill="#FB9700"/>
<path d="M92.5453 42.2888C91.8385 42.5242 91.4655 43.1714 91.3673 43.4657H93.576C94.2386 43.4657 94.165 42.5094 94.0178 42.2888C93.8705 42.0681 93.4288 41.9946 92.5453 42.2888Z" fill="#FB9700"/>
<path d="M94.9749 36.5516C94.5626 36.4927 93.7233 37.6058 93.3552 38.1698C94.9749 38.5375 96.0056 38.1698 96.3737 37.4342C96.7419 36.6986 95.4903 36.6251 94.9749 36.5516Z" fill="#FB9700"/>
<path d="M88.4223 37.9491C88.1867 38.0079 87.7843 38.513 87.6125 38.7582C87.8824 38.8562 88.6432 38.9936 89.5267 38.7582C90.6311 38.4639 90.4102 37.9491 90.0421 37.7284C89.674 37.5077 88.7168 37.8755 88.4223 37.9491Z" fill="#FB9700"/>
<path d="M115.001 44.9367C114.235 44.9956 114.044 46.3342 114.044 46.9962C114.044 46.6285 115.516 45.8194 115.811 45.6723C116.105 45.5251 115.958 44.8632 115.001 44.9367Z" fill="#FB9700"/>
<path d="M112.866 47.8789C112.453 48.1731 112.399 49.4235 112.424 50.012C112.964 49.5706 114.044 48.5997 114.044 48.2467C114.044 47.8053 113.381 47.5111 112.866 47.8789Z" fill="#FB9700"/>
<path d="M111.319 51.5566C110.73 52.2627 111.074 53.5671 111.319 54.131C111.688 53.8368 112.424 53.1601 112.424 52.807C112.424 52.3657 112.866 51.8508 112.866 51.5566C112.866 51.2624 112.056 50.6739 111.319 51.5566Z" fill="#FB9700"/>
<path d="M111.761 55.9698C111.526 56.4994 111.859 57.7597 112.056 58.3236C112.35 57.9558 113.234 56.3376 113.013 55.9698C112.792 55.6021 112.056 55.3078 111.761 55.9698Z" fill="#FB9700"/>
<path d="M110.436 60.898C110.377 61.7218 110.853 62.8594 111.099 63.3253C111.099 62.8104 112.424 61.56 112.866 60.898C113.307 60.236 112.424 59.9418 111.761 59.6475C111.099 59.3533 110.51 59.8682 110.436 60.898Z" fill="#FB9700"/>
<path d="M111.319 66.6352C111.319 67.5178 112.056 68.5721 112.424 68.9889C112.424 68.4005 113.455 66.6352 113.528 65.8261C113.602 65.017 113.013 64.7963 112.424 65.2377C111.835 65.679 111.319 65.5319 111.319 66.6352Z" fill="#FB9700"/>
<path d="M101.896 40.0821C101.307 40.0821 100.619 40.9158 100.349 41.3326C101.675 41.8474 102.411 41.1119 102.558 40.6706C102.705 40.2293 102.632 40.0821 101.896 40.0821Z" fill="#FB9700"/>
<path d="M100.129 35.4482C99.4807 35.4482 98.877 36.2818 98.6561 36.6987C99.466 36.8457 101.012 36.1102 101.159 35.6689C101.307 35.2276 100.938 35.4482 100.129 35.4482Z" fill="#FB9700"/>
<path d="M76.2007 47.7318C75.6706 47.7318 75.2436 48.5654 75.0964 48.9822C75.9799 49.2764 76.8634 48.7615 77.1579 48.3202C77.4524 47.8789 76.8634 47.7318 76.2007 47.7318Z" fill="#FB9700"/>
<path d="M174.268 13.3085C174.437 14.6355 174.56 15.9746 174.657 17.3142C175.073 23.7801 175.096 30.3312 173.68 36.7711C172.418 42.1835 171.769 47.7115 170.993 53.2679C170.674 55.1039 170.616 56.8477 169.661 58.8422C167.571 63.3277 165.978 68.6784 165.522 73.6963C165.046 78.8421 163.235 83.4986 161.216 88.0558C160.644 89.2644 160.027 90.4845 159.249 91.5702C159.944 90.4315 160.472 89.1817 160.96 87.9454C162.663 83.3362 164.214 78.453 164.462 73.6963C164.778 68.2085 166.124 63.1734 168.422 58.0993C169.046 56.8008 169.259 54.8063 169.536 53.0564C170.307 47.5417 171.05 41.9357 172.5 36.4786C174.062 30.2988 174.371 23.7797 174.377 17.3252C174.369 15.9859 174.34 14.6442 174.268 13.3085Z" fill="#964B00"/>
<path d="M76.643 78.551C76.7166 77.9871 77.0258 76.8151 77.6737 76.6386C78.4836 76.4179 78.0418 78.1832 76.643 78.551Z" fill="#E07B16"/>
<path d="M75.465 81.4196C74.9349 81.8315 74.8515 82.572 74.876 82.8907C75.9068 83.0378 76.4957 81.9345 76.643 81.4196C76.7902 80.9047 76.1276 80.9047 75.465 81.4196Z" fill="#E07B16"/>
<path d="M72.3728 84.656C71.9016 85.1856 72.0783 86.1026 72.2255 86.4949C72.6182 86.3232 73.5066 85.877 73.9189 85.4651C74.4343 84.9502 74.287 84.4353 74.1398 84.0676C73.9925 83.6998 72.9618 83.994 72.3728 84.656Z" fill="#E07B16"/>
<path d="M67.7345 89.437C67.3664 90.0255 67.2927 90.9081 67.44 91.2759C68.3235 90.9081 69.207 90.0255 68.9861 89.3635C68.7961 88.7942 68.1026 88.8486 67.7345 89.437Z" fill="#E07B16"/>
<path d="M66.4092 94.218C66.5859 94.8653 66.4829 95.4685 66.4092 95.6891C66.8019 95.3949 67.6314 94.6594 67.8081 94.0709C68.029 93.3354 67.8081 92.9676 67.2927 92.8205C66.7774 92.6734 66.1884 93.4089 66.4092 94.218Z" fill="#E07B16"/>
<path d="M64.4214 96.866C63.9502 97.0425 63.7342 98.1654 63.6851 98.7048C64.0042 98.7048 64.76 98.6019 65.2312 98.19C65.8202 97.6751 65.4521 97.7486 65.4521 97.1602C65.4521 96.5718 65.0104 96.6453 64.4214 96.866Z" fill="#E07B16"/>
<path d="M62.3599 100.47C62.0065 101 62.0163 101.917 62.0654 102.309C62.2863 101.966 62.8017 101.25 63.0962 101.132C63.4643 100.985 63.7588 100.102 63.5379 99.7346C63.317 99.3668 62.8016 99.8082 62.3599 100.47Z" fill="#E07B16"/>
<path d="M61.1083 104.221C60.9316 104.574 61.0347 105.398 61.1083 105.766C61.3783 105.545 61.9476 105.031 62.0654 104.736C62.2126 104.369 62.2127 104.001 62.0654 103.78C61.9181 103.559 61.3292 103.78 61.1083 104.221Z" fill="#E07B16"/>
<path d="M70.6058 88.0395C70.3702 88.3926 70.1641 89.0693 70.3113 89.5841C70.9003 89.5106 71.4893 88.8486 71.7838 88.5544C72.1519 88.1866 71.8574 87.8188 71.6366 87.5982C71.4157 87.3775 70.9003 87.5982 70.6058 88.0395Z" fill="#E07B16"/>
<path d="M69.3542 90.9081C69.0597 91.0846 69.0597 91.6436 69.0597 92.085C69.0597 92.5263 69.3689 93.2324 69.4278 93.1147C69.5015 92.9676 70.3849 92.2321 70.4586 91.9379C70.5322 91.6436 70.1641 91.1288 70.1641 90.9081C70.1641 90.6874 69.7223 90.6874 69.3542 90.9081Z" fill="#E07B16"/>
<path d="M137.824 54.9401C137.648 55.352 137.555 55.7001 137.53 55.8227C138.045 55.6021 139.164 55.1166 139.518 54.9401C139.96 54.7194 140.033 54.2781 139.886 53.9839C139.739 53.6897 139.076 53.7632 138.561 53.2483C138.045 52.7335 137.53 52.807 137.383 52.9541C137.235 53.1012 138.045 54.4252 137.824 54.9401Z" fill="#FFE6BF"/>
<path d="M138.119 57.3674C138.178 57.897 137.751 58.6669 137.53 58.9856C138.708 58.2501 139.886 58.9856 140.475 58.6914C141.064 58.3972 141.138 57.6616 141.138 57.0732C141.138 56.4848 140.107 55.8227 139.371 56.0434C138.634 56.2641 138.045 56.7054 138.119 57.3674Z" fill="#FFE6BF"/>
<path d="M144.303 63.1782C144.303 63.6489 145.04 64.4531 145.408 64.7964C146.218 65.017 147.322 63.1782 147.027 62.5897C146.733 62.0013 146.659 61.8542 146.365 61.1922C146.07 60.5302 145.408 60.3831 145.113 60.9716C144.819 61.56 144.303 62.5897 144.303 63.1782Z" fill="#FFE6BF"/>
<path d="M140.328 65.2377C140.18 65.8997 140.696 66.7088 140.917 66.8559C141.138 67.003 142.095 66.8559 142.389 66.8559C142.757 66.8559 143.567 65.8261 143.714 65.5319C143.862 65.2377 143.42 64.2815 142.905 63.8402C142.389 63.3988 141.653 63.7666 141.138 64.2815C140.622 64.7964 140.475 64.5757 140.328 65.2377Z" fill="#FFE6BF"/>
<path d="M143.862 69.3567C143.744 69.7686 144.009 70.5091 144.156 70.8278C146.438 70.1658 147.985 67.1501 147.837 66.8559C147.69 66.5617 147.027 66.6352 146.218 66.8559C145.408 67.0766 145.113 67.5914 144.966 68.1063C144.819 68.6212 144.009 68.8419 143.862 69.3567Z" fill="#FFE6BF"/>
<path d="M143.494 76.2708C143.317 76.8593 142.684 77.2515 142.389 77.3741C144.23 77.7419 146.218 73.9906 145.997 73.5493C145.776 73.108 145.187 73.77 144.966 74.2849C144.745 74.7997 143.714 75.5353 143.494 76.2708Z" fill="#FFE6BF"/>
<path d="M141.358 82.8171C140.711 82.876 140.868 83.332 141.064 83.6262C141.506 83.9205 142.978 83.5527 143.346 82.7436C143.714 81.9345 143.494 81.1989 143.199 80.7576C142.905 80.3163 142.095 81.0518 142.389 81.4932C142.684 81.9345 142.168 82.7436 141.358 82.8171Z" fill="#FFE6BF"/>
<path d="M138.266 86.642C137.824 87.1568 136.941 86.8626 135.91 86.4948C135.542 88.1866 137.456 89.5841 137.604 88.9957C137.751 88.4073 139.591 87.3775 139.812 87.0833C140.033 86.7891 140.549 85.3915 140.254 84.8767C139.96 84.3618 138.932 85.8661 138.266 86.642Z" fill="#FFE6BF"/>
<path d="M133.849 90.9081C133.333 91.1288 133.333 91.8643 133.481 91.9379C133.922 92.4527 134.217 92.3792 135.321 92.5263C136.426 92.6734 136.057 93.6296 136.646 92.5263C137.235 91.423 136.794 89.9519 136.278 89.1428C135.763 88.3337 135.1 89.7312 134.732 89.8048C134.364 89.8783 134.364 90.6874 133.849 90.9081Z" fill="#FFE6BF"/>
<path d="M129.873 97.4544C129.284 96.8071 129.628 96.0078 129.873 95.6891C131.935 92.9676 132.818 95.1007 133.039 96.2775C133.216 97.219 132.965 99.612 132.818 100.691C132.744 99.5875 130.609 98.2635 129.873 97.4544Z" fill="#FFE6BF"/>
<path d="M137.751 61.56C137.692 62.3838 138.512 62.884 138.929 63.0311C139.739 63.0311 140.107 61.4129 140.033 60.8244C139.96 60.236 139.518 60.236 138.929 60.0889C138.34 59.9418 137.824 60.5302 137.751 61.56Z" fill="#FFE6BF"/>
<path d="M136.646 65.8261C136.705 66.1792 137.407 66.6597 137.751 66.8559C138.119 67.0905 138.561 66.8559 138.782 65.8261C139.002 64.7964 138.782 64.5022 138.413 64.2815C138.045 64.0608 137.53 64.9435 137.088 65.0906C136.646 65.2377 136.573 65.3848 136.646 65.8261Z" fill="#FFE6BF"/>
<path d="M137.898 70.9013C137.545 71.5486 138.438 73.0834 138.929 73.7699C138.929 73.8925 139.091 74.1671 139.739 74.2848C140.549 74.4319 143.346 72.4459 143.42 72.0046C143.494 71.5633 142.168 69.8716 142.095 69.5773C142.021 69.2831 142.021 68.8418 140.99 68.7683C139.96 68.6947 140.107 69.3567 139.371 69.8716C138.634 70.3865 138.34 70.0922 137.898 70.9013Z" fill="#FFC55C"/>
<path d="M140.843 75.7559C140.725 76.1089 140.77 77.227 142.021 77.1534C143.273 77.0799 143.42 75.5352 143.862 75.0203C144.304 74.5055 145.334 73.8435 144.377 73.1079C143.882 72.7274 142.978 74.1377 142.316 74.6526C141.653 75.1674 140.99 75.3146 140.843 75.7559Z" fill="#FFC55C"/>
<path d="M139.444 81.1253C139.091 81.4784 139.248 82.3512 139.371 82.7435C140.033 83.6262 140.843 82.5964 141.506 82.3758C142.168 82.1551 142.316 81.7873 142.021 81.4195C141.773 81.1103 141.653 80.3162 141.653 79.9485C141.653 79.5807 141.211 80.2427 140.549 80.6105C139.886 80.9782 139.886 80.684 139.444 81.1253Z" fill="#FFC55C"/>
<path d="M135.91 85.0237C135.498 85.2002 135.493 85.6857 135.542 85.9064C135.837 86.4212 135.91 86.2741 137.088 86.5683C138.266 86.8626 138.561 85.9064 138.855 85.5386C139.15 85.1708 138.855 84.7295 138.561 84.2882C138.266 83.8468 137.751 84.1411 137.53 84.5088C137.309 84.8766 136.426 84.803 135.91 85.0237Z" fill="#FFC55C"/>
<path d="M133.923 71.4162C133.746 72.0635 134.438 72.9118 134.806 73.255C134.904 73.3286 135.263 73.5346 135.91 73.7699C136.72 74.0642 137.088 73.7699 137.457 73.255C137.825 72.7401 136.647 71.4162 136.279 71.0484C135.91 70.6806 135.321 70.5335 135.101 70.6071C134.88 70.6806 134.143 70.6071 133.923 71.4162Z" fill="#FFC55C"/>
<path d="M130.462 78.7716C130.344 79.36 131.198 79.8014 131.64 79.9485C131.886 80.022 132.553 80.2133 133.26 80.3898C134.143 80.6105 134.806 79.7278 135.101 79.2865C135.395 78.8452 133.923 77.9625 133.407 77.6683C132.892 77.3741 132.597 77.4476 132.082 76.9327C131.567 76.4179 131.125 76.8592 131.125 77.4476C131.125 78.0361 130.609 78.0361 130.462 78.7716Z" fill="#FFC55C"/>
<path d="M176.097 25.0896C176.23 29.588 175.902 33.9931 175.594 37.5813C174.563 49.5706 170.735 62.8104 174.048 75.8295C176.085 83.8369 173.138 89.6183 173.53 95.9633C172.405 96.8711 171.169 97.804 169.935 98.6317C168.665 99.484 167.394 100.226 166.247 100.715C165.104 101.203 164.071 101.444 163.282 101.278C162.819 101.18 162.154 101.231 161.349 101.395C160.546 101.558 159.612 101.832 158.615 102.172C156.622 102.851 154.386 103.792 152.458 104.638C150.533 105.483 148.912 106.234 148.157 106.529C147.97 106.602 147.828 106.65 147.747 106.663C147.726 106.666 147.703 106.668 147.682 106.664C147.663 106.661 147.619 106.649 147.605 106.6C147.594 106.562 147.613 106.529 147.621 106.516C147.632 106.498 147.647 106.481 147.664 106.463C147.732 106.395 147.871 106.289 148.084 106.142C148.298 105.994 148.593 105.801 148.975 105.557C152.018 103.615 155.232 100.099 158.1 95.8023C160.968 91.5069 163.487 86.4376 165.143 81.3966C165.912 79.0533 165.985 76.5832 166.244 73.6531C166.502 70.7262 166.944 67.3539 168.457 63.2264L168.457 63.226C168.968 61.8537 169.74 59.6959 170.394 57.683C170.721 56.6765 171.018 55.707 171.238 54.8902C171.458 54.0713 171.6 53.4125 171.618 53.0242C171.666 52.0266 172.108 48.5839 172.649 45.1002C172.919 43.3574 173.214 41.6025 173.496 40.136C173.779 38.6717 174.05 37.4887 174.273 36.8935C174.712 35.7255 174.84 34.8321 174.913 33.7332C174.986 32.6339 175.005 31.323 175.226 29.3351C175.308 28.5951 175.656 26.8649 176.097 25.0896Z" fill="#F59100"/>
<path d="M153.835 41.4834C154.213 41.4878 154.57 41.6195 154.874 41.8086C156.03 42.5879 155.849 44.0757 155.516 45.1162C155.143 46.1955 154.486 47.2521 153.422 47.7744C153.151 47.8988 152.851 47.9717 152.551 47.9619C152.259 47.971 151.952 47.9368 151.671 47.8135C151.025 47.5497 150.751 46.8043 150.724 46.1787C150.686 45.5336 150.795 44.901 150.97 44.292C151.447 43.0511 152.225 41.5923 153.835 41.4834ZM153.829 41.9248C152.646 41.956 151.779 43.283 151.334 44.4053C151.01 45.4819 150.697 47.0141 151.764 47.6162C151.997 47.7361 152.275 47.7869 152.551 47.7959C152.822 47.7871 153.086 47.7061 153.325 47.5791C155.05 46.5163 156.197 43.4951 154.645 42.1807C154.388 42.024 154.111 41.9283 153.829 41.9248Z" fill="#FFE691"/>
<path d="M152.035 44.3483C151.814 44.3483 151.682 44.0247 151.741 43.6128C151.814 43.0979 152.182 43.0243 152.256 43.6127C152.292 43.9041 152.256 44.3483 152.035 44.3483Z" fill="#FFF5D7"/>
</svg>
