<svg width="282" height="240" viewBox="0 0 282 240" fill="none" xmlns="http://www.w3.org/2000/svg">
<g clip-path="url(#clip0_1470_5038)">
<path d="M205.682 49.6507C204.873 49.0367 203.277 46.916 203.354 43.3474C203.432 39.7788 199.054 39.5332 196.857 39.8563C198.409 39.1453 200.93 37.6065 198.602 37.1411C196.275 36.6756 194.012 35.6543 193.172 35.2016C195.563 35.2664 200.348 35.2792 200.348 34.8137C200.348 34.3482 197.309 33.0682 195.79 32.4863C197.084 32.7127 199.65 33.0294 199.572 32.4863C199.495 31.9433 197.342 30.3207 196.275 29.5771L199.087 30.6438L198.021 28.3164C199.96 29.8034 203.742 32.5251 203.354 31.5166C202.966 30.5081 199.184 27.0882 197.342 25.5042C199.442 26.7003 203.8 29.0147 204.421 28.7043C205.042 28.394 203.063 25.666 201.997 24.3405L206.748 26.377L205.972 24.1466C206.878 24.5992 208.727 25.3878 208.882 24.9224C209.076 24.3405 209.27 24.3405 209.658 23.8556C209.968 23.4678 206.684 20.5263 205.003 19.104C206.845 19.7827 210.588 21.1016 210.821 20.9464C211.054 20.7913 208.915 18.2959 207.815 17.0675C209.464 17.8756 212.838 19.4142 213.149 19.104C213.459 18.7937 212.373 17.617 211.791 17.0675C213.182 17.3908 215.922 17.9015 215.767 17.3584C215.612 16.8154 214.409 15.9685 213.827 15.6129C214.991 15.6776 217.415 15.8456 217.803 16.0008C218.288 16.1948 219.161 15.225 218.385 14.6432C217.765 14.1777 217.221 13.8674 217.028 13.7704C218.74 14.0613 222.245 14.6432 222.555 14.6432C222.865 14.6432 222.167 13.8674 221.779 13.4795C222.943 13.6734 225.367 14.0031 225.755 13.7704C226.24 13.4795 227.598 12.4128 228.567 12.5097C229.537 12.6067 231.089 11.249 233.222 11.4429C235.356 11.6368 238.847 10.5701 239.719 8.04875C240.592 5.52743 246.411 0.678743 251.356 0.872691C256.302 1.06664 260.957 0.872724 262.314 0.387855C263.672 -0.0970147 274.436 -0.48491 277.442 2.23036C280.448 4.94563 281.612 6.30338 281.709 10.4733C281.806 14.6431 280.254 25.5042 279.091 30.7408C277.927 35.9774 276.86 38.7896 277.151 43.5413C277.442 48.2931 276.182 49.9416 275.309 51.9781C274.436 54.0145 273.175 59.4451 274.727 62.4512L272.497 61.4815L274.727 65.5544C273.66 64.8432 271.624 63.6343 272.012 64.4877C272.4 65.3411 273.984 68.0111 274.727 69.2394L271.333 67.2999L273.563 70.791C272.076 69.5627 269.18 67.5327 269.49 69.2394C269.772 70.7815 270.652 71.5425 271.178 71.7941L271.333 71.8577C271.286 71.8422 271.234 71.8211 271.178 71.7941L267.551 70.3061L268.424 72.6335L266.387 71.1789C266.484 71.7607 266.853 73.1959 267.551 74.2821H264.836L267.26 75.5427C265.611 75.1548 262.217 74.6118 261.829 75.5427C261.345 76.7064 262.508 78.258 260.666 79.4217C258.823 80.5854 258.532 82.04 257.369 83.8825C256.205 85.725 249.417 90.4767 243.501 84.9492C243.534 85.725 243.715 87.5287 244.18 88.5372L244.24 88.6675C244.789 89.8531 245.15 90.6346 245.15 92.3192C245.15 94.0647 245.15 98.5255 246.023 99.5922L245.15 99.9801L246.411 102.114C246.056 102.211 245.557 102.657 246.411 103.665C247.477 104.926 246.217 106.186 246.895 110.065C247.574 113.944 248.253 127.23 247.962 128.781C247.671 130.333 249.999 137.315 249.902 138.77C250.094 138.382 250.363 137.412 249.902 136.636C250.644 136.572 252.093 136.811 251.938 138.285C251.744 140.127 250.58 144.2 250.871 145.073C251.162 145.946 252.714 146.14 253.587 145.073C254.459 144.006 260.181 137.024 263.09 137.897C265.417 138.595 263.09 143.295 261.635 145.558C261.345 144.62 260.53 143.095 259.599 144.491C258.435 146.237 256.399 148.079 257.466 147.982C258.532 147.885 262.702 147.303 264.157 146.431C265.611 145.558 273.369 144.879 273.66 148.37C273.951 151.861 272.012 153.704 269.684 154.189C269.781 153.607 270.111 152.307 270.654 151.764C271.333 151.085 269.393 148.855 267.745 149.825C266.426 150.6 264.609 151.441 263.866 151.764C265.644 153.283 268.191 157.156 264.157 160.492C264.06 160.201 263.788 159.445 263.478 158.746C263.09 157.874 264.448 155.061 261.635 155.643C258.823 156.225 251.647 160.007 248.738 158.746C245.829 157.486 236.616 158.358 233.804 149.34C230.992 140.321 232.543 139.545 232.64 135.763C232.718 132.738 232.025 130.559 231.671 129.848C231.541 131.141 231.205 133.805 230.895 134.115C230.507 134.503 229.925 132.757 229.246 133.63C228.567 134.503 230.119 135.86 230.022 136.248C229.925 136.636 228.18 136.151 228.18 136.636C228.18 137.121 229.246 137.8 229.246 138.285C229.246 138.77 226.919 138.382 227.21 139.061C227.501 139.739 228.18 140.709 228.18 141.485C228.18 142.261 225.852 138.964 225.755 140.709C225.658 142.455 224.882 142.843 226.337 144.394L224.688 144.103C224.398 144.297 223.835 144.879 223.913 145.655C223.99 146.431 224.462 147.53 224.688 147.982L222.167 146.915C222.006 147.142 221.837 147.749 222.458 148.37C221.843 148.112 220.693 147.749 221.003 148.37C221.314 148.991 222.619 150.439 223.234 151.085L221.003 150.794L223.234 153.51L220.616 152.443C220.131 152.992 219.045 154.169 218.579 154.479C218.114 154.79 217.673 156.16 217.512 156.807L216.543 155.546C216.316 156.031 215.767 157.078 215.379 157.389C214.991 157.699 215.8 159.199 216.252 159.91L213.827 158.552C212.988 158.908 211.325 159.794 211.403 160.492C211.5 161.365 210.336 163.595 211.597 165.631C211.015 165.502 209.774 165.069 209.464 164.371C209.076 163.498 208.494 163.304 208.3 163.401C208.106 163.498 206.554 163.789 206.942 165.631C207.253 167.105 207.46 168.573 207.524 169.122C206.327 168.735 203.936 168.133 203.936 168.832C203.936 169.704 204.518 171.45 204.615 172.032C204.712 172.614 203.354 170.189 202.191 170.771C201.027 171.353 199.572 170.965 199.281 172.614C199.049 173.932 198.151 174.973 197.73 175.329C197.697 174.521 197.458 173.001 196.76 173.389C196.062 173.777 196.145 174.844 196.275 175.329C195.629 175.07 194.219 174.786 193.754 175.717C193.288 176.648 193.56 177.268 193.754 177.462C192.719 176.525 190.476 175.038 189.778 176.589C189.08 178.141 187.418 179.563 186.675 180.081C186.933 178.884 187.179 176.783 186.093 177.947C184.735 179.402 181.923 180.178 181.729 181.535C181.535 182.893 179.983 179.693 176.202 182.893L175.814 184.638C175.102 183.83 173.525 182.35 172.904 182.893C172.543 183.209 172.427 183.629 172.419 183.995C172.472 184.212 172.503 184.438 172.517 184.638C172.463 184.49 172.413 184.256 172.419 183.995C172.215 183.16 171.685 182.438 170.577 183.669L169.801 184.638L168.444 183.281C168.023 183.442 167.338 183.94 167.959 184.638C168.735 185.511 172.517 188.129 172.517 191.233C172.517 194.336 173.583 196.275 172.517 197.536C171.45 198.796 165.34 208.397 163.983 208.882C165.955 209.334 170.112 210.976 170.965 213.924C172.064 214.442 174.398 216.135 174.941 218.773C173.389 217.706 170.15 215.864 169.607 217.028C168.934 218.471 169.12 218.577 170.45 219.337L170.48 219.355C171.838 220.131 173.292 220.422 173.777 221.682C174.262 222.943 177.365 230.119 173.777 232.543C173.874 230.507 173.835 226.24 172.904 225.464C171.741 224.495 168.638 223.234 166.601 223.816C164.565 224.398 163.886 225.464 162.237 225.464C160.589 225.464 158.649 225.076 155.449 227.113C152.249 229.149 152.928 229.731 153.898 231.574C154.867 233.416 155.934 234.192 156.128 235.259C156.322 236.325 156.807 238.653 156.128 239.913C155.578 238.492 154.053 235.569 152.346 235.259C150.213 234.871 149.922 230.992 146.818 230.022C143.715 229.052 139.739 225.755 139.642 219.355C139.545 212.955 142.552 206.36 144.685 203.839C146.818 201.318 150.794 198.312 153.122 197.536C146.721 198.151 133.32 196.76 130.915 186.287C129.622 187.127 126.279 188.944 123.254 189.487C119.472 190.166 103.18 194.724 91.3494 194.239C81.8847 193.851 75.2517 190.909 73.1183 189.487C49.3597 190.037 1.474 172.827 0 99.5922C2.39202 81.8136 6.72999 44.3171 4.94567 36.5592C2.71527 26.8618 6.3033 27.8316 7.46699 32.1954C8.63067 36.5592 11.055 53.3357 10.2792 64.8756C9.50344 76.4155 5.81843 98.6225 12.4127 112.587C19.0069 126.551 33.262 153.801 64.0997 161.462C94.9374 169.122 114.623 153.801 115.884 147.691C117.144 141.582 121.799 128.49 138.673 119.084L136.151 118.599L139.933 117.241L138.673 115.496C138.802 115.237 138.828 114.584 137.897 114.041C136.966 113.498 139.966 112.975 141.582 112.781C141.582 111.94 141.33 110.182 140.321 109.871C139.313 109.561 140.418 109.419 141.097 109.387L139.061 107.738C140.645 108.094 143.735 108.591 143.424 107.738C143.114 106.885 141.226 105.314 140.321 104.635L144.976 106.186L141.582 102.598C143.327 103.439 146.76 104.868 146.528 103.859C146.295 102.851 143.909 101.435 142.746 100.853C144.006 101.014 146.741 101.59 147.594 102.598L144.976 97.7497C147.303 98.784 151.337 100.31 148.855 98.1376C147.115 96.6155 146.036 95.9251 145.457 95.6594C145.287 95.612 145.125 95.5649 144.976 95.5193C145.053 95.5096 145.209 95.5457 145.457 95.6594C147.458 96.2154 150.697 96.8062 150.697 95.5193C150.697 94.1229 151.279 93.9032 151.57 93.9678L147.594 90.5737C149.501 91.3495 153.18 92.5907 152.637 91.3495C152.094 90.1082 150.6 89.7333 149.922 89.7009H153.801L149.922 86.1129L152.637 87.3735L151.57 85.725L155.837 86.8887C156.16 86.7593 156.943 86.4232 157.486 86.1129C158.029 85.8026 155.643 84.7552 154.382 84.2704H157.001L153.025 80.1005C155.223 81.2318 159.464 83.2037 158.843 82.04C158.223 80.8763 156.322 79.745 155.449 79.3247L160.201 80.6823L159.522 78.9368C160.233 79.4541 161.578 80.1781 161.268 78.9368C160.957 77.6955 159.263 75.2518 158.455 74.1851C159.845 74.9609 162.722 76.4349 163.11 76.1246C163.595 75.7367 164.759 76.3185 165.243 75.2518C165.631 74.3984 163.466 72.8274 162.334 72.1486C163.401 72.6981 165.399 73.4675 164.856 72.1486C164.313 70.8298 163.466 69.7243 163.11 69.3364L166.601 71.7607C167.086 71.8901 168.017 71.9741 167.862 71.2759C167.707 70.5777 166.957 68.2697 166.601 67.203C167.635 68.3021 169.685 70.2673 169.607 69.3364C169.53 68.4054 169.575 66.7505 169.607 66.0393C170.48 67.3323 172.323 69.8019 172.71 69.3364C173.098 68.8709 173.454 65.2635 173.583 63.518C173.713 64.2937 174.087 65.9811 174.553 66.5241C175.135 67.203 175.814 65.2635 174.941 63.518C174.068 61.7724 176.008 63.0331 176.589 64.0028C177.171 64.9726 179.014 66.5241 179.014 65.5544C179.014 64.7786 178.755 63.421 178.626 62.8391C179.305 63.8089 180.682 65.3992 180.759 64.0028C180.837 62.6064 180.792 61.5461 180.759 61.1906C180.824 61.74 181.147 62.8391 181.923 62.8391C182.699 62.8391 182.957 61.74 182.99 61.1906L181.923 59.4451C182.925 60.3824 184.91 62.044 184.832 61.1906C184.755 60.3372 184.024 59.6714 183.669 59.4451C184.347 59.7036 185.841 60.4148 186.384 61.1906C187.063 62.1603 188.129 61.7724 188.129 60.6087V58.9602C188.582 59.1217 189.506 59.5614 189.584 60.0269C189.681 60.6087 190.748 60.2208 191.135 60.0269C191.523 59.833 193.075 58.1844 194.433 57.9904C195.519 57.8353 196.308 56.1803 196.566 55.3722V54.2085C197.569 54.3378 199.378 54.3636 198.602 53.4327C197.827 52.5017 196.921 51.2347 196.566 50.7174L199.572 52.172L199.087 48.9719L201.609 51.1053L200.833 48.39C202.158 49.6507 204.848 51.9587 205.003 51.1053C205.158 50.2519 205.521 49.7801 205.682 49.6507Z" fill="#FFD588"/>
<path d="M278.703 3.39404C279.574 4.23946 280.27 4.9066 280.751 5.75854C281.442 6.97756 281.758 8.37706 281.806 10.4709C281.855 12.5643 281.49 16.329 280.969 20.2198C280.449 24.1123 279.768 28.1398 279.186 30.7616C278.021 36.0093 276.958 38.8013 277.249 43.5354C277.357 45.2968 277.253 46.6364 277.031 47.7295C276.562 48.2561 276.069 48.7993 275.577 49.3311C274.132 50.8903 272.679 52.36 271.779 53.0257C270.687 53.8325 269.945 55.2403 269.499 56.5786C269.275 57.246 269.128 57.8918 269.049 58.4302C268.969 58.9721 268.959 59.3947 269.004 59.6199C269.031 59.7545 269.037 59.9789 269.014 60.2682C268.992 60.5603 268.944 60.9255 268.857 61.345C268.684 62.1841 268.364 63.2432 267.821 64.3722C266.735 66.6309 264.755 69.1708 261.289 70.782C259.57 71.581 258.286 72.2408 257.27 72.7709C256.256 73.3002 255.503 73.7026 254.85 73.9833C254.194 74.2649 253.636 74.4262 253.005 74.4726C252.377 74.5189 251.682 74.4507 250.757 74.2804L250.705 74.2709L250.686 74.223C250.362 73.4627 249.923 72.3735 249.663 71.5798C249.599 71.3814 249.545 71.2003 249.506 71.0467C249.468 70.895 249.444 70.7637 249.44 70.6681C249.44 70.6219 249.444 70.5719 249.462 70.53C249.471 70.5077 249.489 70.4835 249.514 70.4652C249.541 70.4462 249.57 70.4387 249.601 70.4396C249.654 70.4416 249.7 70.4697 249.739 70.4982C249.78 70.5292 249.826 70.5733 249.877 70.6287C250.113 70.8894 250.435 71.1693 250.765 71.3925C251.099 71.6173 251.428 71.7767 251.684 71.8101C251.81 71.8266 251.909 71.8108 251.981 71.7682C252.049 71.7269 252.107 71.6516 252.138 71.518C252.2 71.2416 252.138 70.75 251.847 69.9515C251.554 69.1479 251.436 68.5772 251.44 68.1776C251.444 67.7752 251.578 67.5271 251.809 67.4078C252.028 67.2946 252.309 67.3134 252.573 67.3687C252.838 67.4247 253.112 67.5244 253.327 67.5958C253.36 67.607 253.381 67.6072 253.393 67.6053C253.403 67.6037 253.409 67.5999 253.416 67.5919C253.436 67.5706 253.455 67.5176 253.461 67.4137C253.469 67.2114 253.414 66.8982 253.319 66.5267C253.127 65.7886 252.786 64.8623 252.528 64.2335L252.509 64.1858L252.536 64.1431C252.695 63.9046 252.92 63.5174 253.075 63.1348C253.153 62.9434 253.213 62.7564 253.238 62.5917C253.263 62.4247 253.253 62.2936 253.209 62.2038C253.164 62.1133 253.153 62.0248 253.176 61.9405C253.199 61.8592 253.25 61.7931 253.308 61.7382C253.366 61.6833 253.438 61.6338 253.509 61.5879C253.585 61.5394 253.655 61.4981 253.727 61.4494C253.872 61.3528 253.981 61.2583 254.023 61.1445C254.062 61.04 254.054 60.892 253.895 60.6643C253.219 59.6975 252.433 58.5219 252.138 57.6333C252.096 57.507 252.094 57.3901 252.129 57.282C252.163 57.1755 252.229 57.0856 252.313 57.0068C252.472 56.8528 252.714 56.7213 252.943 56.5858C253.42 56.3047 253.878 55.9905 253.878 55.3722C253.878 55.1971 253.897 55.0662 253.942 54.9688C253.987 54.866 254.056 54.8053 254.142 54.7704C254.217 54.7386 254.307 54.7291 254.382 54.7202C254.464 54.7105 254.543 54.7008 254.623 54.674C254.776 54.6234 254.95 54.5051 255.115 54.1579C255.28 53.8061 255.43 53.225 255.527 52.2594L255.53 52.219L255.563 52.1934C256.562 51.3878 258.129 49.9944 259.582 48.4353C261.037 46.8736 262.367 45.1564 262.902 43.7018C263.442 42.2373 263.552 41.1859 263.474 40.4704C263.399 39.766 263.143 39.3979 262.953 39.2672C261.973 39.0358 260.554 38.4844 259.45 37.5698C258.337 36.6474 257.536 35.346 257.856 33.6322C258.244 31.5479 258.682 29.8126 259.283 28.7065C259.586 28.153 259.933 27.7457 260.348 27.5361C260.767 27.3239 261.24 27.3212 261.772 27.5485C262.02 27.655 262.173 27.665 262.268 27.6298C262.353 27.5972 262.419 27.5144 262.46 27.3507C262.501 27.1866 262.511 26.9633 262.505 26.6883C262.499 26.4143 262.48 26.0993 262.46 25.7518C262.388 24.3736 262.357 22.5142 263.601 21.1715C266.021 18.5573 267.183 16.9123 267.666 16.2353C267.736 16.1389 267.858 16.0244 268.015 15.8987C268.174 15.7716 268.376 15.6278 268.606 15.4732C269.07 15.1638 269.659 14.8079 270.292 14.4496C271.554 13.7335 272.988 13.0042 273.915 12.6143C274.351 12.4301 274.859 11.9556 275.393 11.3302C275.922 10.7084 276.465 9.95107 276.975 9.21796C277.483 8.4869 277.957 7.7774 278.346 7.2588C278.542 6.99961 278.717 6.7839 278.868 6.63528C278.944 6.56113 279.016 6.50043 279.083 6.45952C279.149 6.41994 279.223 6.39061 279.299 6.40138C279.304 6.40223 279.308 6.40155 279.308 6.40155C279.308 6.40155 279.308 6.40136 279.31 6.40062C279.312 6.39796 279.322 6.38728 279.334 6.35704C279.353 6.29507 279.361 6.18992 279.353 6.04112C279.337 5.74762 279.262 5.32788 279.151 4.85131C279.039 4.36229 278.856 3.91163 278.703 3.39404Z" fill="#FFBE46"/>
<path d="M226.822 68.9481C227.908 67.4741 230.604 67.8812 232.447 68.9481C234.289 70.015 236.733 73.5837 236.81 75.0577C236.888 76.5317 239.817 79.9386 240.398 80.6822C240.495 81.0701 240.515 82.1562 239.817 83.3974C239.118 84.6387 234.613 83.9145 232.447 83.3974C232.059 84.3672 230.759 86.2873 228.665 86.2097C226.046 86.1127 220.616 78.5487 221.198 77.482C221.779 76.4153 223.331 74.8637 223.428 72.5364C223.525 70.209 225.464 70.7906 226.822 68.9481Z" fill="#FAAE23"/>
<path d="M264.932 20.9463C262.76 22.6531 262.702 25.9888 263.671 27.7345C264.641 29.48 265.223 30.3916 269.102 30.1588C273.951 29.8679 273.951 24.1465 273.951 22.9828C273.951 22.4979 273.722 20.4614 272.399 19.0068C271.429 17.9401 267.647 18.8128 264.932 20.9463Z" fill="#FBAF25"/>
<path d="M266.484 24.0504C264.7 25.1366 265.321 26.7657 266.775 27.2506C268.23 27.7355 271.624 26.5714 271.721 23.5656C271.752 22.5772 268.715 22.6928 266.484 24.0504Z" fill="#EA9D0D"/>
<path d="M255.914 56.2446C254.285 58.7271 254.524 59.6063 254.848 59.7356C254.848 61.2618 257.078 59.251 257.272 58.1842C257.466 57.1175 258.824 55.469 259.212 54.5962C259.599 53.7234 260.86 51.8807 261.636 50.1352C262.412 48.3897 257.951 53.1414 255.914 56.2446Z" fill="#EEA725"/>
<path d="M218.094 24.5341C219.103 24.3013 219.355 24.825 219.355 25.1159C218.967 25.601 217.706 25.3099 217.318 24.922C216.93 24.5341 216.833 24.825 218.094 24.5341Z" fill="#FFB733"/>
<path d="M216.155 23.2735C215.922 23.0408 215.024 23.2412 214.604 23.3705C214.733 23.4999 215.127 23.7974 215.67 23.9526C216.349 24.1465 216.446 23.5645 216.155 23.2735Z" fill="#FFB733"/>
<path d="M220.615 26.0861C220.15 26.2412 219.581 26.28 219.354 26.28C219.839 26.6679 221.1 26.9588 221.391 26.474C221.682 25.9891 221.197 25.8921 220.615 26.0861Z" fill="#FFB733"/>
<path d="M223.04 28.7043C223.04 28.381 223.156 27.7928 223.622 28.0255C224.204 28.3164 223.428 28.7043 223.04 28.7043Z" fill="#FFB733"/>
<path d="M225.949 31.0317C225.723 30.6438 225.406 29.8487 225.949 29.7711C226.628 29.6741 226.337 31.0317 225.949 31.0317Z" fill="#FFB733"/>
<path d="M241.174 44.5111C240.631 44.7438 241.401 45.6424 241.853 46.0627C242.726 46.0627 243.404 45.3838 243.404 44.9959C243.404 44.6081 242.92 44.9959 242.629 44.9959C242.338 44.9959 241.853 44.2202 241.174 44.5111Z" fill="#FFB733"/>
<path d="M244.568 47.7112C244.258 48.0215 244.892 48.7455 245.247 49.0688C246.508 49.5537 247.187 48.7779 247.381 48.39C247.575 48.0021 246.314 48.0991 245.926 48.0021C245.538 47.9052 244.956 47.3233 244.568 47.7112Z" fill="#FFB733"/>
<path d="M238.265 41.8927C237.955 41.9703 238.395 42.7655 238.653 43.1534C239.074 43.024 239.913 42.7073 239.913 42.4745C239.913 42.1836 239.429 42.2806 239.138 42.2806C238.847 42.2806 238.653 41.7957 238.265 41.8927Z" fill="#FFB733"/>
<path d="M236.034 39.1774C235.646 39.0222 235.873 40.0177 236.034 40.535C236.486 40.4704 237.47 40.2829 237.78 40.0501C238.168 39.7592 237.101 39.7592 236.81 39.7592C236.519 39.7592 236.519 39.3713 236.034 39.1774Z" fill="#FFB733"/>
<path d="M233.804 37.0441C233.572 36.9665 233.837 37.7229 233.998 38.1108C234.677 38.3048 235.065 37.8199 234.968 37.626C234.871 37.432 234.095 37.1411 233.804 37.0441Z" fill="#FFB733"/>
<path d="M281.515 15.2249C281.398 15.9384 281.278 16.655 281.156 17.371C280.18 22.6657 279.441 27.9699 277.486 33.1447C276.976 34.1532 276.499 35.2026 276.041 36.2496C274.905 38.9569 273.609 41.7546 273.109 44.5271C271.918 48.1607 269.664 50.8467 267.669 53.8082C267.248 54.3965 266.817 54.9896 266.387 55.566C266.775 54.9603 267.164 54.34 267.545 53.7266C269.333 50.7183 271.515 47.6207 272.465 44.4949C272.931 41.388 274.18 38.7065 275.33 35.9389C275.793 34.8811 276.28 33.826 276.815 32.7975C278.708 27.9438 279.713 22.528 281.012 17.3416C281.179 16.6351 281.348 15.9283 281.515 15.2249Z" fill="#E59A11"/>
<path d="M277.734 12.2185C277.423 12.5288 277.637 14.0609 277.928 14.061C278.218 14.0611 278.393 13.1107 278.315 12.8003C278.218 12.4124 278.121 11.8306 277.734 12.2185Z" fill="#EB9833"/>
<path d="M258.666 0.763672C258.649 1.46979 258.707 2.35336 258.918 3.37421C259.066 4.08301 259.085 4.60717 259.004 5.00003C258.922 5.39735 258.736 5.65883 258.478 5.83738C258.226 6.01261 257.91 6.10367 257.576 6.17526C257.235 6.24836 256.882 6.30049 256.521 6.39686C255.745 6.60373 255.028 6.23825 254.585 5.59437C254.143 4.95075 253.971 4.02256 254.269 3.0738C254.541 2.2189 254.421 1.43287 254.199 0.845304C255.635 0.859321 256.988 0.839337 258.177 0.787725C258.342 0.780483 258.507 0.772144 258.666 0.763672Z" fill="#FFBE46"/>
<path d="M231.865 61.2874C233.126 56.6327 233.223 50.0386 234.968 51.9779L235.024 52.04C236.723 53.9282 237.197 54.4544 237.102 59.2509C237.005 64.0996 239.041 66.0391 238.071 67.6877C237.102 69.3362 235.938 73.797 238.071 76.5123C240.205 79.2276 243.308 84.1728 240.69 89.1187C238.071 94.0644 232.835 90.1856 231.865 92.513C230.895 94.8402 225.271 94.6462 226.046 97.2645C226.822 99.8828 226.046 102.792 226.046 105.12C226.046 107.447 215.961 106.768 212.761 103.568C209.561 100.368 205.888 101.143 205.197 97.2645C205.424 96.8766 205.74 95.8487 205.197 94.8402C204.518 93.5795 203.936 92.8037 205.197 91.64C206.206 90.7091 206.2 89.9591 206.07 89.7005C206.458 89.3127 207.35 88.6532 207.815 89.1187C208.397 89.7005 210.337 87.5673 210.143 87.0824C209.949 86.5976 212.761 87.0824 212.761 86.3067C212.761 85.5309 211.306 83.3005 209.561 81.7489C207.815 80.1973 211.209 81.6519 211.597 78.3548C211.985 75.0577 214.41 72.7303 215.864 74.5728C217.319 76.4153 218.095 68.2695 219.452 67.6877C220.81 67.1058 223.622 65.1664 224.786 66.427C225.95 67.6877 230.604 65.9421 231.865 61.2874ZM232.447 68.9479C230.604 67.881 227.908 67.4739 226.822 68.9479C225.465 70.7904 223.525 70.2088 223.428 72.5362C223.331 74.8635 221.78 76.4151 221.198 77.4818C220.616 78.5486 226.046 86.1123 228.665 86.2095C230.759 86.2871 232.059 84.367 232.447 83.3972C234.613 83.9143 239.119 84.6385 239.817 83.3972C240.515 82.156 240.496 81.0699 240.399 80.682C239.817 79.9384 236.888 76.5317 236.811 75.0577C236.733 73.5837 234.289 70.0149 232.447 68.9479Z" fill="#FFB733"/>
<path d="M240.569 80.6197C241.087 81.2347 242.254 82.5954 242.794 83.1348C243.071 83.4127 243.505 83.9767 243.928 84.5624C244.351 85.1453 244.77 85.7568 245.03 86.146L245.385 86.4756C244.789 86.1332 244.196 85.706 243.612 85.1806C243.635 85.5652 243.688 86.0933 243.775 86.6406C243.882 87.3122 244.041 88.0044 244.268 88.4963L244.328 88.6266C244.878 89.8165 245.247 90.6132 245.247 92.319C245.247 93.1922 245.247 94.7402 245.356 96.2028C245.41 96.9344 245.491 97.6419 245.614 98.2315C245.736 98.8259 245.897 99.2839 246.098 99.5308L246.178 99.6289L246.062 99.6807L245.29 100.024L246.494 102.064L246.558 102.173L246.436 102.207C246.279 102.25 246.102 102.367 246.052 102.571C245.999 102.775 246.065 103.107 246.484 103.602C247.049 104.268 246.992 104.94 246.896 105.893C246.799 106.849 246.655 108.123 246.991 110.049C247.332 111.995 247.671 116.291 247.889 120.291C247.999 122.291 248.077 124.22 248.112 125.746C248.127 126.508 248.133 127.171 248.125 127.692C248.117 128.21 248.096 128.596 248.057 128.799C248.024 128.979 248.028 129.246 248.063 129.586C248.098 129.924 248.164 130.327 248.251 130.773C248.426 131.666 248.688 132.727 248.953 133.788C249.219 134.848 249.492 135.907 249.694 136.792C249.793 137.234 249.876 137.635 249.931 137.971C249.948 138.08 249.962 138.184 249.973 138.281C250.008 138.147 250.037 137.998 250.051 137.84C250.082 137.465 250.036 137.051 249.818 136.686L249.739 136.553L249.894 136.539C250.276 136.506 250.844 136.55 251.304 136.798C251.533 136.923 251.738 137.101 251.874 137.349C252.012 137.598 252.076 137.91 252.035 138.295C251.936 139.222 251.595 140.71 251.318 142.062C251.178 142.741 251.056 143.386 250.984 143.916C250.949 144.181 250.928 144.415 250.922 144.608C250.918 144.804 250.933 144.949 250.963 145.042C251.093 145.428 251.508 145.68 252.016 145.703C252.52 145.726 253.096 145.52 253.511 145.011C253.947 144.478 255.6 142.461 257.508 140.686C258.463 139.799 259.485 138.969 260.452 138.416C261.416 137.865 262.351 137.574 263.117 137.804C263.426 137.896 263.662 138.057 263.831 138.274C264.002 138.49 264.101 138.756 264.145 139.056C264.234 139.651 264.112 140.392 263.874 141.169C263.397 142.726 262.446 144.475 261.717 145.61L261.605 145.785L261.542 145.586C261.399 145.121 261.129 144.527 260.792 144.221C260.627 144.07 260.458 144.001 260.286 144.032C260.113 144.064 259.906 144.205 259.681 144.545C259.095 145.421 258.288 146.328 257.772 146.987C257.642 147.153 257.532 147.303 257.446 147.434C257.359 147.565 257.303 147.672 257.278 147.752C257.25 147.837 257.268 147.859 257.272 147.863C257.283 147.874 257.328 147.897 257.458 147.885C257.987 147.837 259.293 147.668 260.646 147.402C261.323 147.269 262.012 147.112 262.621 146.934C263.23 146.756 263.753 146.559 264.106 146.347C264.489 146.118 265.264 145.91 266.201 145.778C267.144 145.646 268.265 145.588 269.353 145.667C270.437 145.746 271.494 145.963 272.303 146.385C273.111 146.809 273.68 147.446 273.757 148.362C273.905 150.127 273.488 151.486 272.731 152.466C271.975 153.445 270.887 154.037 269.704 154.283L269.566 154.312L269.589 154.172C269.638 153.877 269.746 153.401 269.911 152.93C270.074 152.462 270.297 151.983 270.586 151.695C270.714 151.566 270.734 151.349 270.627 151.073C270.522 150.802 270.303 150.502 270.008 150.249C269.419 149.743 268.567 149.453 267.793 149.908C266.546 150.642 264.859 151.431 264.044 151.791C264.919 152.574 265.939 153.891 266.286 155.425C266.467 156.228 266.463 157.091 266.155 157.966C265.848 158.842 265.239 159.723 264.219 160.566L264.11 160.657L264.066 160.522C263.969 160.233 263.697 159.48 263.389 158.785C263.333 158.66 263.311 158.506 263.305 158.342C263.3 158.177 263.311 157.993 263.325 157.804C263.354 157.421 263.399 157.017 263.369 156.657C263.34 156.298 263.238 156.009 262.999 155.839C262.759 155.667 262.349 155.594 261.655 155.738C260.961 155.881 259.993 156.224 258.878 156.641C257.764 157.058 256.511 157.546 255.255 157.977C253.998 158.408 252.735 158.783 251.601 158.97C250.47 159.158 249.454 159.162 248.699 158.835C247.986 158.526 246.88 158.346 245.555 158.108C244.238 157.872 242.72 157.58 241.203 157.044C238.164 155.97 235.129 153.914 233.711 149.368C232.303 144.854 231.985 142.394 232.035 140.585C232.059 139.681 232.175 138.942 232.289 138.197C232.406 137.452 232.52 136.699 232.543 135.761C232.592 133.875 232.34 132.322 232.059 131.253C232.342 127.627 232.685 123.085 232.958 119.101C233.127 116.625 233.271 114.365 233.358 112.676C233.401 111.831 233.43 111.13 233.441 110.616C233.447 110.359 233.447 110.15 233.443 109.993C233.441 109.915 233.437 109.851 233.434 109.801C233.43 109.75 233.424 109.719 233.42 109.705C233.393 109.616 233.408 109.514 233.443 109.411C233.478 109.306 233.536 109.187 233.614 109.057C233.769 108.798 234.006 108.482 234.297 108.128C234.879 107.419 235.691 106.544 236.533 105.635C237.375 104.726 238.249 103.782 238.961 102.933C239.677 102.08 240.216 101.334 240.404 100.82C240.978 99.2414 241.872 98.4064 242.363 98.1169L241.496 97.3368L241.378 97.2292L241.529 97.1737C241.83 97.0626 242.26 96.8582 242.576 96.6091C242.733 96.4844 242.856 96.3537 242.92 96.2241C242.982 96.0985 242.991 95.9765 242.929 95.8535C242.782 95.5587 242.452 95.1803 242.091 94.8217C241.735 94.4658 241.352 94.1384 241.114 93.9464L241.201 93.7777C241.638 93.9067 242.27 94.0855 242.755 94.203C242.935 94.2466 243.092 94.281 243.211 94.3015C243.201 94.2907 243.191 94.2794 243.181 94.268C243.121 94.196 243.051 94.1064 242.976 94.0042C242.825 93.8 242.648 93.5418 242.468 93.267C242.105 92.7168 241.721 92.0948 241.479 91.69L241.403 91.5632L241.548 91.544C241.921 91.4955 242.408 91.4138 242.673 91.3273C242.702 91.3176 242.728 91.3081 242.749 91.2994C242.697 91.2837 242.621 91.2672 242.516 91.2511C241.851 91.1485 241.44 90.7374 241.223 90.3545C241.114 90.1639 241.052 89.9769 241.031 89.8336C241.021 89.763 241.019 89.6959 241.031 89.6418C241.036 89.615 241.046 89.584 241.067 89.5576C241.091 89.5308 241.122 89.5108 241.16 89.5073C241.162 89.5064 241.166 89.5048 241.172 89.5019C241.186 89.493 241.205 89.4782 241.23 89.4565C241.281 89.4137 241.343 89.3508 241.411 89.2752C241.546 89.1239 241.702 88.9274 241.82 88.75C241.88 88.661 241.929 88.5787 241.961 88.5105C241.977 88.4785 241.989 88.4507 241.994 88.428C241.956 88.4416 241.894 88.4703 241.804 88.5232C241.397 88.7686 240.875 88.8504 240.398 88.857C239.921 88.8636 239.477 88.7946 239.211 88.7281L239.147 88.7123L239.138 88.6487L238.944 87.3881L238.918 87.2228L239.076 87.2828L239.962 87.6235C239.791 87.4274 239.603 87.1974 239.434 86.9703C239.302 86.7909 239.182 86.6111 239.093 86.4501C239.008 86.294 238.944 86.1394 238.944 86.0157C238.944 85.9451 238.967 85.8827 239.012 85.833C239.054 85.7853 239.11 85.7554 239.171 85.7368C239.287 85.7 239.44 85.6986 239.595 85.7129C239.838 85.7358 240.117 85.801 240.344 85.8673C240.167 85.3805 239.828 84.8059 239.652 84.5374C239.648 84.5306 239.642 84.5242 239.638 84.5178V84.5176C239.638 84.5165 239.636 84.5151 239.636 84.514L239.799 84.4104C239.803 84.4158 239.807 84.4213 239.811 84.4271L239.83 84.4484C239.878 84.4973 239.964 84.5367 240.096 84.5595C240.241 84.585 240.423 84.5867 240.621 84.572C240.914 84.5498 241.228 84.4924 241.488 84.4321C241.003 84.1125 240.726 83.4794 240.571 82.8208C240.391 82.0553 240.365 81.2163 240.398 80.6763L240.412 80.4341L240.569 80.6197Z" fill="#FFBE46"/>
<path d="M188.162 58.8689C188.393 58.9515 188.744 59.1047 189.049 59.2977C189.201 59.3943 189.345 59.5027 189.458 59.6194C189.569 59.7354 189.656 59.8673 189.679 60.011C189.698 60.1185 189.755 60.1765 189.845 60.2083C189.943 60.2428 190.078 60.2453 190.236 60.222C190.55 60.1755 190.903 60.0345 191.092 59.9402C191.131 59.9206 191.191 59.8791 191.273 59.8151C191.354 59.7523 191.45 59.6724 191.561 59.5797C191.782 59.3952 192.057 59.1633 192.362 58.9315C192.409 58.8958 192.456 58.8601 192.505 58.8246C192.451 58.9109 192.399 58.9963 192.348 59.0807C192.06 59.5566 191.808 59.9926 191.638 60.3231C191.553 60.4889 191.49 60.6254 191.453 60.7259C191.434 60.7767 191.424 60.8145 191.42 60.8405C191.418 60.8493 191.418 60.8553 191.418 60.859C191.45 60.9146 191.464 60.9842 191.467 61.055C191.471 61.1336 191.462 61.2246 191.443 61.3229C191.404 61.5195 191.322 61.7556 191.198 61.9986C190.949 62.484 190.523 63.0112 189.918 63.3138C189.471 63.5372 189.265 63.8103 189.181 64.0517C189.096 64.2961 189.132 64.5178 189.188 64.6423L189.235 64.7478L189.122 64.7757L188.079 65.0364C188.239 65.3756 188.381 66.0432 188.022 66.7616C187.529 67.7476 186.45 68.8252 186.258 69.0172C186.215 69.0608 186.149 69.0763 186.096 69.0833C186.037 69.0913 185.965 69.0918 185.888 69.0882C185.731 69.0804 185.535 69.0536 185.327 69.0174C184.93 68.9483 184.482 68.8428 184.173 68.7627C184.019 68.8735 183.829 69.0236 183.716 69.1471C183.686 69.1801 183.663 69.209 183.648 69.2325C183.647 69.2344 183.646 69.2365 183.645 69.2383C183.652 69.2389 183.66 69.2394 183.668 69.2394C183.787 69.2394 183.906 69.2334 184.02 69.2288C184.134 69.2243 184.245 69.221 184.342 69.2274C184.436 69.2338 184.531 69.2501 184.605 69.2941C184.643 69.3172 184.677 69.3488 184.701 69.3909C184.724 69.433 184.735 69.4803 184.735 69.5304C184.735 69.6525 184.645 69.7447 184.559 69.8104C184.468 69.8799 184.349 69.944 184.235 70.004C184.117 70.0658 184.005 70.1236 183.915 70.1838C183.821 70.2466 183.773 70.2978 183.76 70.3368C183.717 70.4671 183.686 70.6341 183.583 70.8149C183.477 71.0005 183.296 71.2041 182.949 71.4518C182.616 71.69 182.426 71.8791 182.279 72.0141C182.138 72.1436 182.019 72.2402 181.84 72.245C181.843 72.2625 181.848 72.2854 181.857 72.3149C181.867 72.3482 181.883 72.3946 181.895 72.4371C181.92 72.5238 181.944 72.6351 181.92 72.7425C181.894 72.8595 181.815 72.9557 181.668 73.0144C181.554 73.0598 181.363 73.0837 181.143 73.0959C180.919 73.1083 180.649 73.1095 180.369 73.1038C179.973 73.0957 179.553 73.0736 179.204 73.0499C179.394 73.1845 179.601 73.3568 179.782 73.5581C180.078 73.8882 180.316 74.3098 180.274 74.7757C180.252 75.0125 180.129 75.2788 179.956 75.5476C179.782 75.8187 179.55 76.1027 179.298 76.3769C178.805 76.9138 178.229 77.4203 177.838 77.7318C177.706 78.2206 177.465 78.937 177.161 79.5383C177.005 79.8447 176.831 80.1263 176.643 80.3325C176.457 80.5365 176.242 80.6824 176.007 80.6824C175.8 80.6824 175.568 80.8034 175.314 81.0094C175.063 81.2132 174.807 81.4867 174.552 81.7659C174.299 82.0427 174.046 82.3263 173.808 82.5394C173.689 82.6463 173.57 82.7386 173.454 82.8043C173.338 82.8699 173.218 82.9128 173.098 82.9128C172.969 82.9128 172.797 82.975 172.593 83.091C172.393 83.2054 172.175 83.3652 171.957 83.5452C171.536 83.8937 171.126 84.3109 170.868 84.5985V85.0462C170.868 85.2541 170.755 85.4172 170.617 85.5508C170.48 85.6825 170.301 85.8014 170.149 85.9123C169.991 86.0279 169.861 86.136 169.791 86.2547C169.757 86.3121 169.738 86.3703 169.735 86.4321C169.734 86.4942 169.748 86.5661 169.791 86.6513C169.969 87.008 170.35 87.212 170.65 87.3867C170.723 87.4292 170.792 87.4709 170.849 87.5124C170.904 87.5528 170.957 87.5999 170.989 87.6565C171.024 87.7199 171.031 87.7923 170.995 87.8646C170.963 87.9288 170.902 87.9843 170.824 88.0361C170.526 88.2351 170.032 88.482 169.561 88.6183C169.326 88.6864 169.091 88.7287 168.885 88.7205C168.68 88.7124 168.49 88.6532 168.368 88.5008C168.344 88.4719 168.331 88.4647 168.326 88.4632C168.323 88.4643 168.318 88.4674 168.31 88.475C168.298 88.4862 168.283 88.5043 168.267 88.5308C168.198 88.6418 168.131 88.8406 168.064 89.0733C167.998 89.2989 167.933 89.5535 167.867 89.7527C167.834 89.8526 167.799 89.9445 167.761 90.0157C167.743 90.0514 167.721 90.0849 167.697 90.1127C167.674 90.1398 167.642 90.1672 167.601 90.1809C167.53 90.2046 167.432 90.2166 167.327 90.2228C167.219 90.2292 167.096 90.2298 166.972 90.2269C166.869 90.2246 166.765 90.2193 166.666 90.2135C166.782 90.3072 166.899 90.4205 166.996 90.5494C167.185 90.8016 167.309 91.1274 167.177 91.4806C167.051 91.8169 166.798 92.0578 166.542 92.2215C166.285 92.3852 166.017 92.4767 165.844 92.5112L165.835 92.5132H164.823C164.919 92.705 165.013 92.9511 165.046 93.1883C165.067 93.3402 165.064 93.4961 165.013 93.6334C164.961 93.7744 164.861 93.891 164.7 93.96C164.309 94.1276 163.928 94.2713 163.671 94.3636C163.854 94.4503 164.049 94.5677 164.183 94.7079C164.282 94.8107 164.36 94.9362 164.363 95.0795C164.367 95.2269 164.293 95.3675 164.143 95.4961C163.664 95.9059 163.251 96.2455 163.048 96.41C163.185 96.6093 163.334 96.8898 163.382 97.1605C163.41 97.3151 163.406 97.4757 163.339 97.6173C163.27 97.762 163.142 97.8737 162.946 97.9389C162.746 98.0056 162.509 98.1654 162.247 98.3781C161.985 98.5899 161.71 98.8446 161.429 99.095C161.15 99.3434 160.867 99.5868 160.597 99.7682C160.33 99.9476 160.061 100.077 159.813 100.077C159.622 100.077 159.506 100.144 159.424 100.249C159.337 100.361 159.283 100.524 159.241 100.727C159.198 100.935 159.174 101.15 159.131 101.388C159.089 101.618 159.033 101.853 158.93 102.06C158.844 102.231 158.69 102.407 158.505 102.577C158.318 102.749 158.094 102.92 157.86 103.081C157.422 103.383 156.946 103.651 156.619 103.818C156.646 104.08 156.649 104.443 156.576 104.754C156.536 104.923 156.472 105.085 156.37 105.206C156.264 105.331 156.12 105.411 155.934 105.411C155.56 105.411 154.601 105.577 153.868 105.83C153.686 105.892 153.52 105.96 153.382 106.03C153.243 106.101 153.137 106.172 153.072 106.24C153.006 106.308 152.992 106.36 153 106.4C153.008 106.444 153.049 106.51 153.174 106.59C153.438 106.758 153.714 106.914 153.97 107.062C154.224 107.208 154.459 107.347 154.634 107.479C154.722 107.544 154.798 107.611 154.855 107.678C154.911 107.744 154.954 107.819 154.963 107.902C154.973 107.989 154.942 108.069 154.88 108.138C154.82 108.204 154.73 108.261 154.615 108.312C154.432 108.393 154.324 108.552 154.249 108.767C154.174 108.985 154.14 109.24 154.089 109.502C154.041 109.756 153.978 110.018 153.837 110.216C153.69 110.422 153.465 110.55 153.121 110.55C152.506 110.55 151.766 110.717 151.168 110.944C150.869 111.058 150.61 111.185 150.421 111.311C150.326 111.375 150.252 111.436 150.199 111.493C150.146 111.552 150.121 111.6 150.113 111.636C150.095 111.73 150.117 111.843 150.165 111.986C150.209 112.12 150.281 112.293 150.33 112.463C150.38 112.64 150.414 112.836 150.387 113.047C150.361 113.26 150.274 113.482 150.095 113.713C149.934 113.92 149.856 114.106 149.828 114.28C149.799 114.455 149.817 114.626 149.859 114.808C149.901 114.997 149.961 115.172 150.017 115.388C150.071 115.597 150.115 115.824 150.115 116.078C150.115 116.304 150.011 116.497 149.854 116.656C149.698 116.815 149.487 116.945 149.259 117.051C148.893 117.221 148.47 117.333 148.13 117.396C148.188 117.442 148.245 117.493 148.298 117.546C148.409 117.659 148.508 117.791 148.554 117.931C148.602 118.076 148.593 118.232 148.483 118.372C148.378 118.505 148.191 118.613 147.912 118.692C146.865 118.991 146.223 119.945 146.035 120.383L146.026 120.404L146.007 120.419C145.818 120.577 145.533 120.853 145.295 121.165C145.055 121.481 144.879 121.814 144.879 122.09C144.879 122.416 144.778 122.848 144.656 123.248C144.537 123.641 144.394 124.013 144.296 124.244C144.294 124.51 144.249 124.904 144.116 125.248C143.981 125.597 143.742 125.924 143.338 125.969C143.147 125.99 142.965 126.092 142.785 126.243C142.606 126.395 142.438 126.589 142.274 126.783C142.113 126.974 141.953 127.169 141.796 127.308C141.642 127.445 141.467 127.551 141.275 127.519C141.192 127.506 141.109 127.554 141.012 127.707C140.918 127.856 140.837 128.067 140.751 128.294C140.667 128.516 140.579 128.752 140.474 128.932C140.373 129.106 140.233 129.266 140.03 129.266C139.903 129.266 139.819 129.298 139.756 129.343C139.688 129.39 139.636 129.456 139.576 129.541C139.457 129.707 139.319 129.929 138.994 130.037C138.896 130.07 138.812 130.185 138.74 130.392C138.67 130.593 138.623 130.846 138.574 131.103C138.526 131.354 138.476 131.613 138.399 131.808C138.325 131.996 138.206 132.175 137.994 132.175C137.877 132.175 137.697 132.247 137.485 132.378C137.278 132.506 137.056 132.68 136.86 132.864C136.663 133.049 136.497 133.24 136.399 133.398C136.349 133.478 136.321 133.543 136.311 133.592C136.301 133.64 136.312 133.654 136.317 133.658C136.384 133.726 136.392 133.813 136.37 133.892C136.349 133.966 136.301 134.042 136.242 134.116C136.124 134.265 135.935 134.437 135.729 134.613C135.625 134.701 135.516 134.792 135.406 134.882C135.297 134.973 135.188 135.063 135.084 135.151C134.875 135.328 134.692 135.493 134.577 135.632C134.447 135.788 134.292 135.904 134.133 136.003C134.054 136.053 133.972 136.099 133.893 136.145C133.812 136.19 133.734 136.235 133.657 136.283C133.352 136.47 133.083 136.696 132.947 137.149C132.822 137.565 132.537 137.857 132.238 138.051C131.976 138.221 131.698 138.32 131.495 138.365C131.49 138.611 131.458 138.956 131.377 139.276C131.332 139.454 131.271 139.628 131.189 139.775C131.108 139.921 131.001 140.047 130.861 140.117C130.615 140.24 130.248 140.331 129.897 140.395C129.568 140.455 129.243 140.493 129.028 140.511C128.903 140.687 128.732 140.96 128.597 141.243C128.525 141.394 128.465 141.547 128.427 141.688C128.389 141.83 128.376 141.954 128.392 142.051C128.438 142.324 128.295 142.611 128.125 142.844C127.953 143.08 127.734 143.283 127.583 143.401C127.361 143.592 127.042 143.906 126.809 144.228C126.692 144.389 126.6 144.548 126.55 144.69C126.5 144.834 126.499 144.947 126.541 145.03C126.624 145.196 126.66 145.464 126.658 145.758C126.657 146.057 126.617 146.398 126.536 146.721C126.455 147.043 126.333 147.353 126.164 147.585C125.995 147.817 125.769 147.982 125.484 147.982C125.439 147.982 125.407 147.992 125.383 148.008C125.359 148.023 125.337 148.047 125.318 148.083C125.277 148.16 125.256 148.281 125.252 148.442C125.245 148.764 125.307 149.189 125.35 149.621C125.392 150.042 125.417 150.475 125.317 150.779C125.266 150.935 125.179 151.068 125.035 151.145C124.893 151.221 124.712 151.231 124.492 151.18C124.079 151.082 123.804 151.03 123.602 151.026C123.406 151.022 123.287 151.063 123.181 151.149C123.068 151.241 122.964 151.388 122.808 151.617C122.655 151.843 122.46 152.137 122.166 152.504C121.87 152.873 121.58 153.123 121.297 153.247C121.011 153.373 120.734 153.368 120.48 153.231C120.232 153.097 120.017 152.842 119.835 152.487C119.653 152.132 119.499 151.669 119.377 151.106C119.317 150.829 119.246 150.688 119.182 150.629C119.153 150.603 119.129 150.596 119.107 150.596C119.082 150.596 119.047 150.606 119.001 150.635C118.908 150.695 118.798 150.817 118.673 150.99C118.55 151.162 118.419 151.374 118.283 151.607C118.013 152.069 117.721 152.612 117.439 153.035C117.297 153.247 117.154 153.434 117.013 153.57C116.875 153.702 116.723 153.801 116.563 153.801C116.364 153.801 116.221 153.906 116.103 154.092C115.983 154.282 115.898 154.542 115.82 154.821C115.742 155.094 115.67 155.388 115.575 155.622C115.482 155.851 115.352 156.062 115.135 156.124C114.848 156.206 114.455 156.222 114.089 156.21C113.742 156.2 113.408 156.164 113.192 156.132C113.022 156.247 112.751 156.409 112.447 156.544C112.124 156.687 111.753 156.807 111.423 156.807C110.888 156.807 110.454 156.712 110.228 156.641C110.153 156.893 110.015 157.202 109.813 157.4C109.696 157.514 109.55 157.598 109.377 157.602C109.204 157.606 109.024 157.53 108.837 157.364C108.497 157.062 107.98 156.743 107.466 156.465C107.447 156.455 107.428 156.445 107.409 156.435C108.999 155.449 110.378 154.428 111.533 153.424C114.034 151.252 115.48 149.167 115.789 147.672C117.048 141.57 121.679 128.543 138.394 119.129L136.133 118.694L135.785 118.627L136.118 118.508L139.779 117.194L138.594 115.553L138.56 115.505L138.586 115.453C138.688 115.248 138.743 114.647 137.848 114.125C137.726 114.054 137.632 113.963 137.625 113.845C137.618 113.726 137.702 113.633 137.795 113.564C137.987 113.424 138.342 113.298 138.759 113.186C139.572 112.969 140.68 112.795 141.484 112.695C141.476 112.283 141.41 111.691 141.238 111.157C141.05 110.58 140.749 110.104 140.293 109.964C140.164 109.925 140.065 109.886 139.993 109.849C139.925 109.814 139.862 109.771 139.834 109.711C139.818 109.677 139.813 109.638 139.825 109.6C139.836 109.564 139.859 109.537 139.881 109.517C139.923 109.48 139.984 109.453 140.046 109.433C140.238 109.369 140.553 109.328 140.843 109.306L139 107.814L139.082 107.643C139.872 107.821 141.035 108.033 141.959 108.095C142.424 108.126 142.817 108.118 143.073 108.054C143.201 108.022 143.279 107.979 143.317 107.935C143.348 107.898 143.362 107.851 143.333 107.771C143.262 107.575 143.095 107.327 142.862 107.051C142.63 106.777 142.34 106.482 142.03 106.192C141.409 105.61 140.713 105.05 140.263 104.712L140.352 104.543L144.64 105.972L141.511 102.665L141.624 102.511C142.495 102.93 143.785 103.495 144.826 103.83C145.349 103.998 145.799 104.104 146.1 104.109C146.253 104.111 146.347 104.087 146.395 104.051C146.417 104.035 146.43 104.017 146.436 103.994C146.443 103.969 146.445 103.933 146.433 103.881C146.381 103.655 146.204 103.393 145.932 103.113C145.663 102.835 145.312 102.549 144.929 102.275C144.163 101.726 143.281 101.229 142.702 100.94L142.758 100.757C143.392 100.838 144.397 101.023 145.351 101.315C145.828 101.462 146.295 101.635 146.697 101.836C146.897 101.937 147.083 102.044 147.247 102.161L144.891 97.7957L144.755 97.5455L145.015 97.6611C146.179 98.1782 147.762 98.8149 148.742 99.0519C148.987 99.1111 149.188 99.1439 149.333 99.1452C149.406 99.146 149.458 99.1388 149.493 99.127C149.526 99.1153 149.533 99.1031 149.535 99.0992C149.537 99.0938 149.543 99.0748 149.527 99.0294C149.511 98.984 149.477 98.9231 149.419 98.845C149.302 98.689 149.1 98.4806 148.791 98.2106C147.06 96.6958 145.99 96.0124 145.422 95.7502C145.255 95.7036 145.095 95.6573 144.948 95.6123L144.964 95.4232C145.021 95.416 145.095 95.4265 145.179 95.4497C145.263 95.473 145.366 95.5114 145.489 95.5675C146.486 95.8442 147.785 96.128 148.833 96.1836C149.359 96.2116 149.811 96.1813 150.128 96.0707C150.285 96.0157 150.403 95.9431 150.481 95.8539C150.558 95.7664 150.6 95.6578 150.6 95.5194C150.6 94.8103 150.748 94.3801 150.95 94.134C151.065 93.994 151.196 93.9162 151.32 93.8821L147.531 90.6474L147.631 90.4839C148.583 90.871 149.974 91.3731 151.056 91.6235C151.601 91.7496 152.053 91.8082 152.331 91.7653C152.471 91.7436 152.543 91.6997 152.572 91.6526C152.6 91.6092 152.61 91.531 152.548 91.3883C152.289 90.7956 151.801 90.4057 151.288 90.1592C150.775 89.9125 150.245 89.8134 149.917 89.7977L149.922 89.604H153.553L149.856 86.1841L149.962 86.025L152.373 87.1439L151.489 85.7776L151.351 85.5648L151.596 85.6315L155.831 86.7865C156.169 86.6497 156.916 86.3264 157.437 86.0285C157.46 86.0155 157.466 86.006 157.467 86.0039C157.467 86.0033 157.469 86.0002 157.466 85.9893C157.458 85.9595 157.424 85.9073 157.342 85.8344C157.185 85.6936 156.908 85.5233 156.565 85.3429C155.884 84.9843 154.976 84.6028 154.347 84.361L154.382 84.1734H156.774L152.955 80.1674L153.069 80.0144C154.167 80.5794 155.773 81.3534 157.026 81.8406C157.655 82.0852 158.185 82.2533 158.516 82.2906C158.598 82.2999 158.663 82.3005 158.712 82.2941C158.763 82.2873 158.787 82.2743 158.796 82.2654C158.802 82.2601 158.809 82.252 158.807 82.2273C158.806 82.1983 158.793 82.1525 158.758 82.0856C158.458 81.5241 157.843 80.9609 157.184 80.482C156.527 80.0049 155.839 79.6199 155.407 79.412L155.476 79.2316L160.04 80.5353L159.432 78.9721L159.312 78.6641L159.579 78.8585C159.933 79.116 160.434 79.4161 160.8 79.5018C160.988 79.5458 161.101 79.5243 161.155 79.4663C161.211 79.4072 161.25 79.2665 161.173 78.9603C161.022 78.3565 160.53 77.4473 159.966 76.547C159.404 75.6504 158.781 74.7751 158.378 74.2437L158.503 74.1003C159.196 74.4875 160.26 75.0486 161.198 75.4739C161.668 75.6866 162.103 75.8641 162.443 75.9688C162.613 76.0214 162.756 76.0546 162.865 76.0656C162.92 76.0713 162.963 76.0711 162.995 76.0664C163.028 76.0617 163.043 76.0536 163.049 76.0488C163.194 75.9332 163.382 75.895 163.571 75.8781C163.667 75.8694 163.767 75.8659 163.867 75.8622C163.967 75.8587 164.068 75.855 164.168 75.8461C164.369 75.8284 164.559 75.7908 164.727 75.6987C164.893 75.6077 165.042 75.4603 165.155 75.2117C165.232 75.0429 165.19 74.8216 165.029 74.5523C164.869 74.286 164.607 73.9956 164.293 73.7061C163.665 73.1279 162.847 72.5691 162.284 72.2319L162.379 72.0625C162.91 72.3362 163.665 72.6601 164.215 72.7536C164.351 72.7768 164.471 72.7852 164.569 72.7765C164.668 72.7677 164.736 72.7427 164.779 72.7074C164.852 72.6473 164.899 72.5096 164.766 72.1855C164.228 70.8795 163.388 69.7833 163.039 69.402L163.165 69.2567L166.642 71.6708C166.878 71.7321 167.206 71.7786 167.454 71.7332C167.58 71.7101 167.671 71.6659 167.724 71.6027C167.773 71.5435 167.801 71.451 167.767 71.2968C167.613 70.6048 166.865 68.3031 166.509 67.2336L166.672 67.1365C167.188 67.6848 167.955 68.4472 168.582 68.9555C168.899 69.2121 169.168 69.3946 169.348 69.459C169.443 69.4927 169.48 69.4821 169.49 69.4761C169.493 69.4735 169.52 69.4524 169.511 69.3446C169.432 68.4066 169.478 66.7459 169.51 66.035L169.524 65.7422L169.688 65.9852C170.123 66.6301 170.799 67.5672 171.414 68.2841C171.722 68.6434 172.011 68.9427 172.244 69.1227C172.361 69.2136 172.457 69.2678 172.528 69.2881C172.596 69.3075 172.621 69.2924 172.636 69.2743C172.671 69.2317 172.715 69.1405 172.762 68.9947C172.807 68.8527 172.853 68.6704 172.897 68.4567C172.987 68.0292 173.071 67.4829 173.148 66.8946C173.301 65.7187 173.422 64.3824 173.486 63.5108L173.679 63.5021C173.743 63.8871 173.868 64.4992 174.035 65.0816C174.119 65.3729 174.212 65.6553 174.313 65.8973C174.414 66.1409 174.52 66.337 174.627 66.4611C174.69 66.5346 174.744 66.5604 174.784 66.5651C174.823 66.5696 174.867 66.557 174.919 66.5127C175.026 66.42 175.132 66.2121 175.198 65.9097C175.327 65.3122 175.28 64.4136 174.854 63.5614C174.743 63.3399 174.674 63.1607 174.643 63.0192C174.612 62.8816 174.611 62.7598 174.666 62.6706C174.726 62.5715 174.831 62.5448 174.932 62.5519C175.032 62.5587 175.145 62.5983 175.262 62.6551C175.497 62.7695 175.775 62.9697 176.029 63.2007C176.283 63.4319 176.521 63.6999 176.673 63.953C176.955 64.4245 177.552 65.0455 178.077 65.4276C178.342 65.6206 178.574 65.7404 178.73 65.7612C178.805 65.7713 178.845 65.7561 178.867 65.7354C178.891 65.7131 178.917 65.6632 178.917 65.5544C178.917 64.7907 178.661 63.4425 178.531 62.8601L178.705 62.7835C179.043 63.2668 179.551 63.897 179.978 64.2321C180.084 64.3153 180.182 64.3776 180.268 64.4152C180.355 64.4532 180.421 64.4617 180.468 64.4516C180.511 64.4427 180.552 64.416 180.587 64.3485C180.624 64.2777 180.653 64.1654 180.662 63.9976C180.74 62.6051 180.694 61.5494 180.663 61.1993L180.855 61.1792C180.887 61.4458 180.981 61.8452 181.16 62.1747C181.339 62.5065 181.589 62.7422 181.923 62.7422C182.255 62.7422 182.488 62.5093 182.648 62.179C182.801 61.8621 182.871 61.4802 182.89 61.2143L181.84 59.4957L181.989 59.3743C182.489 59.8417 183.232 60.4877 183.838 60.9098C184.144 61.1227 184.404 61.2705 184.576 61.3159C184.665 61.3396 184.703 61.3281 184.715 61.3198C184.721 61.3155 184.744 61.2938 184.736 61.1993C184.699 60.7975 184.508 60.4352 184.278 60.1427C184.049 59.8502 183.785 59.6344 183.616 59.5269L183.703 59.3545C184.047 59.4854 184.595 59.7302 185.126 60.0401C185.654 60.3485 186.179 60.7288 186.463 61.1349C186.786 61.5958 187.181 61.711 187.479 61.608C187.781 61.5042 188.032 61.1627 188.032 60.6088V58.8225L188.162 58.8689Z" fill="#FFCC6F"/>
<path d="M228.459 108.257C228.639 108.254 228.812 108.306 228.932 108.452C229.165 108.73 229.444 108.917 229.76 109.123C230.074 109.329 230.421 109.552 230.769 109.9C230.933 110.063 230.976 110.284 230.953 110.515C230.928 110.745 230.836 110.998 230.712 111.245C230.52 111.632 230.245 112.022 230.001 112.322C230.21 112.285 230.449 112.273 230.664 112.325C230.829 112.365 230.986 112.445 231.102 112.585C231.217 112.726 231.283 112.918 231.283 113.168C231.283 113.668 231.023 114.11 230.712 114.455C230.441 114.757 230.121 114.992 229.878 115.136C230.123 115.447 230.45 115.953 230.728 116.566C231.034 117.243 231.283 118.057 231.283 118.89C231.283 119.1 231.257 119.267 231.207 119.395C231.156 119.525 231.079 119.618 230.97 119.666C230.866 119.713 230.747 119.71 230.629 119.679C230.513 119.649 230.386 119.588 230.262 119.511C230.016 119.358 229.746 119.125 229.49 118.871L230.35 120.28L230.266 120.331C230.136 120.408 229.828 120.743 229.828 121.411C229.828 121.601 229.937 121.86 230.111 122.163C230.282 122.462 230.507 122.785 230.72 123.102C230.931 123.416 231.133 123.726 231.251 123.99C231.31 124.121 231.35 124.249 231.358 124.364C231.368 124.481 231.341 124.594 231.253 124.68C230.914 125.02 230.547 125.195 230.334 125.262C230.348 125.298 230.369 125.346 230.4 125.406C230.47 125.543 230.588 125.741 230.78 126.01C230.819 126.066 230.852 126.148 230.879 126.243C230.908 126.34 230.933 126.459 230.957 126.598C231.003 126.874 231.044 127.23 231.077 127.641C231.147 128.464 231.191 129.511 231.222 130.585C231.248 131.517 231.263 132.47 231.271 133.313C231.255 133.386 231.24 133.456 231.222 133.522C231.184 133.68 231.143 133.819 231.102 133.929C231.063 134.034 231.019 134.128 230.963 134.183C230.895 134.252 230.813 134.279 230.724 134.265C230.646 134.252 230.573 134.206 230.509 134.156C230.443 134.103 230.377 134.037 230.311 133.969C230.245 133.899 230.179 133.828 230.111 133.759C229.971 133.619 229.84 133.515 229.715 133.486C229.655 133.473 229.597 133.477 229.535 133.504C229.473 133.533 229.401 133.588 229.324 133.689C229.174 133.88 229.145 134.098 229.19 134.334C229.234 134.574 229.357 134.826 229.5 135.072C229.646 135.321 229.803 135.543 229.929 135.747C229.989 135.845 230.043 135.939 230.078 136.022C230.111 136.102 230.136 136.191 230.117 136.271C230.094 136.36 230.026 136.414 229.954 136.445C229.882 136.476 229.795 136.492 229.702 136.501C229.518 136.518 229.283 136.508 229.062 136.502C228.835 136.496 228.623 136.494 228.47 136.521C228.393 136.534 228.342 136.553 228.311 136.575C228.286 136.593 228.276 136.61 228.276 136.636C228.276 136.725 228.327 136.837 228.426 136.973C228.521 137.107 228.651 137.248 228.784 137.395C228.916 137.539 229.054 137.689 229.159 137.834C229.26 137.976 229.343 138.131 229.343 138.284C229.343 138.392 229.275 138.466 229.196 138.513C229.118 138.558 229.015 138.588 228.907 138.61C228.686 138.654 228.397 138.672 228.127 138.696C227.852 138.721 227.601 138.75 227.438 138.811C227.357 138.842 227.314 138.875 227.295 138.905C227.281 138.926 227.272 138.959 227.299 139.022C227.371 139.187 227.466 139.372 227.57 139.571C227.673 139.769 227.788 139.98 227.89 140.193C228.098 140.619 228.276 141.073 228.276 141.485C228.276 141.54 228.267 141.603 228.226 141.649C228.177 141.703 228.111 141.707 228.061 141.697C228.013 141.688 227.962 141.663 227.914 141.634C227.865 141.604 227.811 141.566 227.755 141.521C227.642 141.433 227.51 141.316 227.373 141.192C227.235 141.067 227.087 140.933 226.94 140.807C226.793 140.68 226.647 140.564 226.511 140.472C226.374 140.38 226.252 140.319 226.155 140.297C226.06 140.276 225.999 140.294 225.959 140.339C225.908 140.392 225.864 140.503 225.852 140.714C225.827 141.158 225.759 141.515 225.695 141.822C225.631 142.133 225.573 142.384 225.561 142.628C225.54 143.101 225.691 143.562 226.409 144.327L226.606 144.54L224.712 144.205C224.578 144.301 224.392 144.476 224.244 144.712C224.085 144.965 223.973 145.283 224.009 145.645C224.046 146.02 224.18 146.48 224.335 146.906C224.49 147.331 224.663 147.715 224.776 147.938L224.892 148.173L222.208 147.037C222.086 147.27 221.998 147.773 222.526 148.301L222.421 148.459C222.115 148.331 221.684 148.179 221.37 148.136C221.292 148.125 221.226 148.122 221.172 148.126C221.118 148.129 221.085 148.141 221.067 148.152C221.056 148.16 221.05 148.168 221.048 148.187C221.048 148.211 221.056 148.256 221.091 148.326C221.24 148.624 221.636 149.133 222.078 149.655C222.52 150.173 222.997 150.696 223.304 151.018L223.492 151.217L221.234 150.922L223.309 153.448L223.197 153.599L220.643 152.558C220.396 152.834 220.028 153.239 219.659 153.618C219.271 154.018 218.876 154.398 218.633 154.56C218.534 154.625 218.43 154.754 218.323 154.932C218.216 155.109 218.115 155.325 218.022 155.553C217.836 156.01 217.687 156.51 217.607 156.83L217.559 157.025L216.562 155.73C216.446 155.968 216.283 156.282 216.104 156.582C215.998 156.764 215.883 156.942 215.771 157.095C215.66 157.247 215.548 157.378 215.439 157.464C215.387 157.506 215.356 157.607 215.385 157.799C215.41 157.983 215.485 158.213 215.59 158.461C215.798 158.957 216.11 159.505 216.333 159.857L216.205 159.994L213.821 158.66C213.406 158.839 212.813 159.137 212.326 159.473C212.074 159.647 211.855 159.829 211.705 160.006C211.552 160.186 211.484 160.346 211.5 160.481C211.525 160.717 211.467 161.036 211.391 161.396C211.316 161.762 211.221 162.182 211.16 162.638C211.04 163.548 211.065 164.589 211.68 165.58L211.8 165.776L211.575 165.726C211.279 165.66 210.815 165.517 210.385 165.301C209.96 165.087 209.545 164.791 209.374 164.41C209.188 163.987 208.955 163.736 208.755 163.603C208.655 163.536 208.563 163.499 208.49 163.483C208.414 163.468 208.366 163.477 208.342 163.487C208.311 163.503 208.257 163.521 208.203 163.54C208.143 163.561 208.069 163.587 207.989 163.62C207.828 163.688 207.638 163.786 207.466 163.934C207.295 164.082 207.144 164.28 207.057 164.549C206.967 164.818 206.942 165.164 207.037 165.611C207.347 167.088 207.555 168.559 207.621 169.111L207.638 169.261L207.495 169.214C206.899 169.021 206.007 168.776 205.268 168.665C204.896 168.61 204.57 168.59 204.343 168.623C204.229 168.64 204.147 168.669 204.099 168.706C204.054 168.738 204.033 168.777 204.033 168.831C204.033 169.253 204.174 169.896 204.333 170.516C204.489 171.127 204.661 171.719 204.71 172.015C204.718 172.052 204.721 172.098 204.708 172.138C204.7 172.162 204.681 172.193 204.644 172.209C204.609 172.225 204.576 172.219 204.557 172.213C204.522 172.201 204.489 172.176 204.463 172.155C204.436 172.131 204.405 172.1 204.37 172.065C204.233 171.921 204.044 171.701 203.808 171.47C203.573 171.243 203.307 171.021 203.032 170.892C202.759 170.763 202.489 170.73 202.233 170.857C201.932 171.008 201.614 171.095 201.308 171.167C200.998 171.239 200.707 171.295 200.439 171.384C200.175 171.472 199.946 171.59 199.766 171.779C199.586 171.967 199.446 172.233 199.376 172.63C199.14 173.978 198.224 175.038 197.792 175.402L197.64 175.531L197.633 175.332C197.617 174.932 197.549 174.361 197.404 173.942C197.33 173.731 197.239 173.572 197.14 173.489C197.091 173.449 197.043 173.428 196.993 173.424C196.942 173.42 196.882 173.432 196.806 173.474C196.496 173.647 196.351 173.974 196.304 174.335C196.256 174.695 196.306 175.07 196.368 175.303L196.418 175.49L196.24 175.418C195.924 175.292 195.424 175.161 194.948 175.173C194.475 175.186 194.05 175.34 193.841 175.76C193.39 176.66 193.663 177.234 193.822 177.393L193.689 177.534C193.176 177.069 192.367 176.472 191.605 176.183C191.224 176.038 190.866 175.975 190.567 176.034C190.275 176.092 190.029 176.268 189.866 176.629C189.511 177.419 188.912 178.172 188.313 178.79C187.713 179.409 187.107 179.897 186.73 180.16L186.528 180.3L186.58 180.06C186.709 179.463 186.832 178.65 186.792 178.136C186.781 178.008 186.761 177.905 186.732 177.83C186.702 177.754 186.669 177.722 186.641 177.711C186.616 177.7 186.569 177.697 186.486 177.741C186.403 177.785 186.296 177.871 186.164 178.013C185.473 178.753 184.413 179.32 183.525 179.86C183.077 180.132 182.672 180.398 182.367 180.677C182.062 180.957 181.869 181.241 181.825 181.548C181.8 181.723 181.75 181.858 181.647 181.931C181.542 182.006 181.413 181.994 181.292 181.964C181.168 181.932 181.02 181.871 180.857 181.807C180.691 181.743 180.502 181.673 180.286 181.616C179.857 181.505 179.319 181.449 178.657 181.615C178 181.781 177.215 182.167 176.289 182.946L175.867 184.845L175.741 184.702C175.388 184.301 174.821 183.735 174.268 183.337C173.992 183.138 173.724 182.986 173.493 182.915C173.26 182.844 173.087 182.862 172.968 182.965C172.637 183.256 172.526 183.64 172.516 183.985C172.569 184.205 172.6 184.43 172.613 184.631L172.425 184.671C172.369 184.515 172.318 184.275 172.322 184.007C172.273 183.807 172.205 183.619 172.117 183.467C172.027 183.311 171.92 183.199 171.798 183.145C171.565 183.043 171.2 183.121 170.65 183.732L169.809 184.783L168.421 183.395C168.231 183.478 168.011 183.622 167.893 183.81C167.829 183.91 167.796 184.022 167.81 184.143C167.82 184.227 167.852 184.32 167.917 184.422C167.862 184.376 167.806 184.324 167.754 184.267C167.607 184.107 167.474 183.898 167.474 183.668C167.474 183.635 167.46 183.593 167.421 183.538C167.382 183.484 167.324 183.424 167.249 183.36C167.098 183.231 166.894 183.095 166.68 182.948C166.468 182.803 166.247 182.648 166.073 182.484C165.901 182.323 165.758 182.14 165.729 181.936C165.723 181.893 165.679 181.826 165.56 181.737C165.447 181.653 165.287 181.563 165.091 181.469C164.7 181.282 164.186 181.086 163.669 180.886C163.155 180.686 162.637 180.481 162.248 180.276C162.054 180.174 161.886 180.07 161.766 179.962C161.649 179.858 161.559 179.735 161.559 179.595C161.559 179.468 161.458 179.363 161.227 179.274C161.002 179.187 160.697 179.134 160.38 179.085C160.069 179.037 159.745 178.994 159.502 178.925C159.38 178.891 159.269 178.847 159.186 178.788C159.101 178.728 159.037 178.643 159.037 178.529C159.037 178.501 159.023 178.468 158.964 178.429C158.904 178.388 158.81 178.353 158.687 178.321C158.442 178.258 158.113 178.219 157.776 178.176C157.445 178.134 157.105 178.088 156.855 178.007C156.73 177.967 156.616 177.915 156.536 177.844C156.452 177.768 156.402 177.668 156.42 177.545C156.427 177.494 156.412 177.45 156.369 177.404C156.323 177.355 156.246 177.307 156.141 177.261C155.93 177.17 155.637 177.103 155.331 177.035C155.069 176.978 154.797 176.92 154.58 176.849L154.785 176.881C156.837 177.204 159.967 177.65 162.691 177.938C164.053 178.082 165.312 178.186 166.282 178.215C166.767 178.23 167.178 178.225 167.493 178.199C167.65 178.186 167.781 178.167 167.885 178.143C167.99 178.118 168.058 178.09 168.096 178.062C168.953 177.439 169.688 177.022 169.952 176.89L169.972 176.88H172.904C172.928 176.88 172.978 176.866 173.06 176.824C173.138 176.784 173.233 176.726 173.34 176.655C173.555 176.513 173.81 176.324 174.072 176.135C174.332 175.947 174.6 175.759 174.833 175.625C174.95 175.558 175.061 175.502 175.161 175.466C175.258 175.431 175.358 175.41 175.445 175.427C175.545 175.448 175.746 175.433 176.004 175.379C176.257 175.326 176.551 175.237 176.83 175.118C177.11 174.999 177.369 174.853 177.557 174.686C177.746 174.519 177.85 174.343 177.85 174.165C177.85 173.715 177.998 172.901 178.295 172.246C178.443 171.919 178.633 171.621 178.868 171.431C179.107 171.236 179.396 171.151 179.723 171.261C179.979 171.346 180.284 171.285 180.624 171.134C180.963 170.983 181.317 170.751 181.663 170.521C182.005 170.292 182.343 170.062 182.639 169.928C182.927 169.797 183.222 169.734 183.44 169.921C183.502 169.974 183.555 169.981 183.609 169.965C183.672 169.946 183.748 169.892 183.837 169.796C184.013 169.605 184.201 169.294 184.41 168.951C184.615 168.613 184.837 168.248 185.077 167.968C185.313 167.692 185.586 167.474 185.899 167.474C186.703 167.474 187.274 166.99 187.462 166.746C187.61 166.354 187.867 165.775 188.165 165.29C188.316 165.044 188.481 164.818 188.65 164.653C188.816 164.49 189.002 164.371 189.196 164.371H191.523C191.541 164.371 191.568 164.362 191.608 164.33C191.649 164.297 191.693 164.247 191.743 164.182C191.844 164.048 191.948 163.874 192.073 163.686C192.195 163.503 192.334 163.313 192.495 163.168C192.656 163.022 192.848 162.916 193.075 162.916C193.135 162.916 193.2 162.885 193.275 162.806C193.35 162.727 193.424 162.61 193.499 162.463C193.649 162.168 193.789 161.782 193.943 161.401C194.093 161.027 194.26 160.655 194.46 160.414C194.56 160.293 194.677 160.197 194.813 160.155C194.954 160.111 195.102 160.129 195.255 160.212C195.439 160.313 195.602 160.303 195.753 160.223C195.91 160.14 196.062 159.978 196.197 159.765C196.471 159.34 196.667 158.751 196.762 158.336L196.766 158.319L196.775 158.304C196.971 158.011 197.295 157.57 197.629 157.202C197.796 157.018 197.968 156.85 198.129 156.726C198.286 156.607 198.451 156.516 198.602 156.516C198.661 156.516 198.754 156.498 198.88 156.46C199.002 156.423 199.149 156.368 199.314 156.299C199.64 156.161 200.024 155.969 200.396 155.753C200.769 155.536 201.128 155.297 201.403 155.066C201.543 154.95 201.657 154.837 201.744 154.732C201.832 154.626 201.884 154.533 201.901 154.456C201.946 154.279 202.058 154.107 202.2 153.947C202.344 153.786 202.522 153.631 202.712 153.49C203.079 153.217 203.49 152.987 203.769 152.854L204.611 151.356C204.549 150.829 204.549 150.034 204.745 149.314C204.944 148.581 205.356 147.901 206.141 147.694C207.024 147.462 207.491 146.813 207.89 146.184C208.088 145.874 208.273 145.562 208.48 145.324C208.69 145.084 208.936 144.906 209.262 144.879C209.368 144.87 209.475 144.804 209.58 144.668C209.686 144.532 209.785 144.339 209.878 144.102C210.069 143.627 210.23 143.008 210.414 142.39C210.594 141.779 210.798 141.17 211.069 140.738C211.205 140.521 211.364 140.341 211.55 140.23C211.715 140.132 211.899 140.088 212.101 140.112C212.206 139.599 212.4 138.916 212.671 138.431C212.815 138.176 212.987 137.959 213.197 137.863C213.304 137.814 213.418 137.796 213.54 137.822C213.658 137.848 213.777 137.914 213.893 138.019C214.093 138.202 214.275 138.274 214.432 138.282C214.591 138.289 214.741 138.233 214.878 138.133C215.158 137.931 215.373 137.563 215.482 137.28L215.484 137.278C215.598 137 215.794 136.587 216.013 136.251C216.122 136.084 216.24 135.931 216.358 135.824C216.469 135.724 216.603 135.645 216.742 135.666C216.75 135.654 216.764 135.628 216.775 135.582C216.802 135.483 216.82 135.329 216.831 135.132C216.855 134.737 216.851 134.21 216.87 133.663C216.888 133.124 216.928 132.571 217.039 132.152C217.093 131.943 217.169 131.758 217.274 131.624C217.382 131.487 217.526 131.4 217.706 131.4C217.805 131.4 217.875 131.374 217.929 131.332C217.985 131.289 218.03 131.224 218.063 131.134C218.129 130.952 218.139 130.688 218.104 130.38C218.038 129.765 217.809 129.023 217.615 128.525L217.613 128.516L217.611 128.506C217.53 128.017 217.456 127.282 217.501 126.665C217.522 126.358 217.576 126.071 217.677 125.857C217.782 125.642 217.945 125.484 218.191 125.484C218.556 125.484 218.957 125.331 219.32 125.132C219.632 124.96 219.907 124.759 220.086 124.606C219.704 124.206 219.231 123.583 218.973 122.92C218.701 122.215 218.664 121.438 219.289 120.855C219.65 120.518 219.952 120.21 220.214 119.94C220.476 119.672 220.699 119.439 220.902 119.254C221.306 118.887 221.655 118.686 222.093 118.796C222.122 118.803 222.144 118.8 222.161 118.791C222.182 118.782 222.208 118.763 222.233 118.727C222.287 118.653 222.336 118.531 222.378 118.365C222.466 118.036 222.518 117.584 222.58 117.131C222.64 116.686 222.708 116.237 222.824 115.936C222.883 115.788 222.96 115.656 223.071 115.586C223.193 115.509 223.335 115.521 223.478 115.607C223.594 115.676 223.641 115.668 223.655 115.661C223.67 115.654 223.697 115.624 223.715 115.524C223.732 115.43 223.736 115.303 223.732 115.15C223.726 114.999 223.717 114.83 223.707 114.652C223.689 114.303 223.678 113.918 223.757 113.62C223.796 113.469 223.86 113.331 223.967 113.23C224.075 113.127 224.219 113.071 224.397 113.071C224.857 113.071 225.179 112.808 225.396 112.462C225.617 112.114 225.724 111.693 225.755 111.412L225.757 111.397L225.765 111.383L226.831 109.055L226.839 109.034L226.859 109.02C227.105 108.822 227.501 108.555 227.888 108.395C228.08 108.315 228.278 108.259 228.459 108.257Z" fill="#FFBC42"/>
<path d="M233.29 91.7929C233.618 91.7729 233.986 91.7901 234.386 91.8167L238.131 103.889C237.619 104.462 237.07 105.056 236.533 105.635C235.691 106.544 234.88 107.419 234.297 108.128C234.006 108.482 233.769 108.798 233.614 109.058C233.536 109.187 233.478 109.306 233.443 109.411C233.408 109.514 233.393 109.616 233.42 109.705C233.424 109.719 233.43 109.75 233.434 109.801C233.439 109.851 233.441 109.915 233.443 109.993C233.447 110.15 233.447 110.359 233.441 110.616C233.432 111.13 233.403 111.831 233.358 112.676C233.273 114.365 233.129 116.625 232.958 119.101C232.807 121.307 232.349 127.424 231.729 130.221C231.661 130.843 231.562 131.646 231.446 132.365C231.391 132.709 231.333 133.034 231.271 133.312C231.263 132.469 231.248 131.517 231.223 130.585C231.191 129.511 231.147 128.464 231.077 127.641C231.044 127.23 231.003 126.874 230.957 126.597C230.934 126.459 230.908 126.34 230.879 126.243C230.852 126.148 230.819 126.066 230.78 126.01C230.588 125.741 230.47 125.543 230.4 125.406C230.369 125.346 230.348 125.298 230.334 125.262C230.548 125.195 230.914 125.02 231.254 124.68C231.341 124.594 231.368 124.481 231.358 124.364C231.351 124.249 231.31 124.121 231.252 123.99C231.133 123.726 230.932 123.416 230.72 123.102C230.507 122.785 230.282 122.462 230.111 122.163C229.937 121.86 229.828 121.601 229.828 121.411C229.828 120.743 230.136 120.408 230.266 120.331L230.35 120.28L230.299 120.197L229.491 118.87C229.747 119.125 230.016 119.357 230.262 119.51C230.387 119.588 230.513 119.648 230.629 119.679C230.747 119.71 230.866 119.713 230.97 119.666C231.079 119.618 231.157 119.525 231.207 119.395C231.257 119.267 231.283 119.1 231.283 118.89C231.283 118.057 231.034 117.243 230.728 116.566C230.451 115.953 230.123 115.447 229.878 115.136C230.121 114.992 230.441 114.757 230.712 114.455C231.023 114.11 231.283 113.668 231.283 113.168C231.283 112.918 231.217 112.726 231.102 112.585C230.986 112.445 230.829 112.365 230.664 112.325C230.449 112.273 230.21 112.284 230.001 112.322C230.245 112.022 230.52 111.632 230.712 111.245C230.837 110.998 230.928 110.745 230.953 110.515C230.976 110.284 230.934 110.063 230.769 109.9C230.422 109.552 230.074 109.329 229.76 109.123C229.444 108.917 229.165 108.73 228.932 108.452C228.812 108.306 228.639 108.254 228.459 108.257C228.278 108.259 228.081 108.315 227.889 108.395C227.501 108.555 227.105 108.822 226.859 109.019L226.839 109.034L226.832 109.055L225.765 111.382L225.757 111.397L225.755 111.412C225.724 111.692 225.616 112.114 225.396 112.462C225.179 112.808 224.857 113.071 224.398 113.071C224.219 113.071 224.076 113.127 223.967 113.23C223.86 113.331 223.796 113.469 223.757 113.619C223.678 113.918 223.69 114.303 223.707 114.652C223.717 114.83 223.726 114.999 223.732 115.15C223.736 115.303 223.732 115.43 223.715 115.524C223.697 115.624 223.67 115.654 223.655 115.661C223.643 115.667 223.604 115.674 223.517 115.629L223.451 115.591C223.317 115.519 223.185 115.514 223.071 115.586C222.96 115.656 222.883 115.787 222.825 115.936C222.708 116.237 222.64 116.686 222.58 117.131C222.518 117.584 222.466 118.036 222.379 118.365C222.336 118.531 222.287 118.653 222.233 118.727C222.208 118.762 222.183 118.782 222.161 118.791C222.144 118.8 222.123 118.803 222.093 118.796C221.655 118.686 221.306 118.887 220.903 119.254C220.699 119.439 220.476 119.672 220.214 119.94C219.952 120.21 219.65 120.518 219.289 120.855C218.664 121.438 218.701 122.215 218.973 122.92C219.231 123.583 219.704 124.206 220.086 124.606C219.908 124.759 219.632 124.96 219.32 125.132C218.957 125.331 218.556 125.484 218.191 125.484C217.945 125.484 217.782 125.642 217.677 125.857C217.576 126.071 217.522 126.358 217.501 126.665C217.456 127.281 217.53 128.017 217.611 128.506L217.613 128.516L217.615 128.525C217.809 129.022 218.038 129.765 218.104 130.379C218.139 130.688 218.129 130.952 218.063 131.134C218.03 131.224 217.986 131.289 217.929 131.331C217.875 131.373 217.805 131.399 217.706 131.399C217.526 131.399 217.382 131.486 217.274 131.624C217.169 131.758 217.093 131.943 217.039 132.152C216.929 132.571 216.888 133.123 216.87 133.663C216.851 134.209 216.855 134.737 216.832 135.132C216.82 135.329 216.803 135.483 216.775 135.582C216.764 135.628 216.75 135.654 216.742 135.666C216.603 135.644 216.469 135.724 216.358 135.824C216.24 135.931 216.122 136.084 216.013 136.251C215.794 136.586 215.598 137 215.484 137.278L215.482 137.28C215.373 137.563 215.158 137.931 214.879 138.133C214.741 138.233 214.592 138.289 214.432 138.282C214.275 138.274 214.093 138.202 213.893 138.019C213.777 137.914 213.659 137.847 213.54 137.822C213.418 137.796 213.304 137.814 213.197 137.863C212.988 137.959 212.815 138.176 212.671 138.431C212.4 138.915 212.206 139.599 212.101 140.112C211.9 140.088 211.715 140.131 211.55 140.229C211.364 140.341 211.205 140.52 211.069 140.737C210.798 141.17 210.594 141.779 210.414 142.39C210.23 143.008 210.069 143.627 209.879 144.102C209.785 144.339 209.687 144.532 209.58 144.668C209.475 144.803 209.368 144.87 209.262 144.879C208.936 144.906 208.69 145.084 208.48 145.324C208.273 145.562 208.088 145.874 207.891 146.184C207.491 146.813 207.024 147.462 206.141 147.694C205.356 147.901 204.945 148.581 204.745 149.314C204.549 150.034 204.551 150.829 204.611 151.356L203.769 152.853C203.49 152.987 203.079 153.217 202.712 153.49C202.522 153.631 202.344 153.786 202.2 153.947C202.059 154.107 201.946 154.279 201.902 154.456C201.884 154.533 201.832 154.626 201.744 154.732C201.657 154.837 201.543 154.95 201.403 155.065C201.128 155.297 200.769 155.536 200.396 155.753C200.024 155.969 199.64 156.161 199.314 156.299C199.149 156.368 199.002 156.422 198.88 156.46C198.754 156.498 198.661 156.516 198.602 156.516C198.451 156.516 198.286 156.606 198.129 156.726C197.968 156.849 197.796 157.018 197.629 157.202C197.295 157.57 196.971 158.011 196.775 158.304L196.766 158.319L196.762 158.336C196.667 158.751 196.471 159.34 196.198 159.765C196.062 159.978 195.91 160.14 195.753 160.223C195.602 160.303 195.439 160.313 195.255 160.212C195.102 160.129 194.954 160.111 194.813 160.155C194.677 160.197 194.561 160.293 194.46 160.414C194.26 160.655 194.093 161.027 193.943 161.401C193.789 161.782 193.65 162.168 193.499 162.463C193.424 162.61 193.35 162.727 193.275 162.806C193.2 162.885 193.135 162.916 193.075 162.916C192.848 162.916 192.656 163.022 192.495 163.168C192.334 163.313 192.195 163.503 192.073 163.686C191.948 163.874 191.844 164.048 191.743 164.182C191.693 164.247 191.649 164.297 191.609 164.33C191.568 164.362 191.541 164.37 191.523 164.37H189.196C189.002 164.37 188.816 164.49 188.65 164.653C188.481 164.818 188.316 165.044 188.166 165.289C187.867 165.775 187.61 166.354 187.463 166.746C187.274 166.99 186.704 167.474 185.899 167.474C185.587 167.474 185.313 167.692 185.077 167.968C184.837 168.248 184.615 168.613 184.41 168.951C184.201 169.294 184.013 169.604 183.837 169.796C183.748 169.892 183.672 169.946 183.609 169.965C183.555 169.981 183.502 169.974 183.441 169.921C183.223 169.734 182.927 169.797 182.639 169.928C182.344 170.062 182.006 170.292 181.663 170.52C181.317 170.751 180.963 170.983 180.624 171.134C180.284 171.285 179.979 171.346 179.723 171.26C179.396 171.151 179.107 171.236 178.868 171.43C178.633 171.621 178.443 171.919 178.295 172.246C177.999 172.901 177.85 173.714 177.85 174.165C177.85 174.343 177.746 174.519 177.557 174.686C177.369 174.853 177.11 174.999 176.83 175.118C176.552 175.237 176.258 175.326 176.004 175.379C175.746 175.433 175.545 175.447 175.445 175.427C175.358 175.41 175.259 175.431 175.161 175.466C175.061 175.502 174.95 175.558 174.833 175.625C174.6 175.759 174.332 175.947 174.072 176.135C173.81 176.324 173.555 176.513 173.34 176.655C173.233 176.726 173.138 176.784 173.06 176.824C172.978 176.866 172.928 176.88 172.904 176.88H169.972L169.952 176.89C169.688 177.022 168.953 177.439 168.096 178.062C168.058 178.09 167.99 178.118 167.885 178.143C167.781 178.167 167.65 178.186 167.493 178.199C167.178 178.225 166.767 178.23 166.282 178.215C165.312 178.185 164.053 178.081 162.691 177.938C159.968 177.65 156.837 177.204 154.785 176.881L154.58 176.849C154.549 176.839 154.519 176.828 154.491 176.818C154.377 176.775 154.273 176.723 154.199 176.656C154.123 176.586 154.074 176.493 154.093 176.379C154.098 176.35 154.089 176.316 154.039 176.27C153.986 176.222 153.9 176.174 153.782 176.126C153.548 176.031 153.223 175.95 152.882 175.871C152.545 175.793 152.194 175.716 151.922 175.628C151.787 175.584 151.665 175.536 151.572 175.48C151.483 175.426 151.399 175.353 151.378 175.25C151.372 175.221 151.355 175.196 151.319 175.173C151.279 175.148 151.221 175.128 151.143 175.113C150.986 175.083 150.784 175.08 150.573 175.074C150.371 175.068 150.157 175.059 149.999 175.01C149.92 174.986 149.842 174.948 149.789 174.884C149.732 174.815 149.713 174.73 149.729 174.634C149.735 174.596 149.729 174.569 149.717 174.549C149.703 174.526 149.678 174.502 149.636 174.479C149.549 174.433 149.411 174.403 149.24 174.39C148.902 174.364 148.479 174.406 148.192 174.454L148.099 174.47L148.081 174.378C148.041 174.176 148.066 174.006 148.148 173.864C148.229 173.725 148.358 173.622 148.507 173.544C148.8 173.389 149.205 173.311 149.562 173.233C149.744 173.194 149.915 173.155 150.063 173.106C150.212 173.057 150.327 173.002 150.403 172.936C150.476 172.872 150.512 172.8 150.508 172.706C150.505 172.605 150.456 172.467 150.327 172.28C150.186 172.075 150.113 171.88 150.098 171.695C150.084 171.508 150.129 171.338 150.212 171.184C150.377 170.88 150.692 170.635 151.009 170.434C151.169 170.333 151.334 170.24 151.484 170.155C151.636 170.069 151.772 169.993 151.881 169.921C151.993 169.848 152.061 169.789 152.091 169.743C152.104 169.722 152.104 169.711 152.104 169.708C152.104 169.705 152.102 169.694 152.084 169.675C151.942 169.534 151.858 169.31 151.801 169.054C151.744 168.794 151.71 168.482 151.68 168.149C151.619 167.477 151.571 166.713 151.38 166.046C151.273 165.669 151.382 165.375 151.593 165.144C151.797 164.92 152.097 164.756 152.377 164.622C152.516 164.556 152.659 164.493 152.779 164.437C152.903 164.379 153.006 164.326 153.083 164.275C153.163 164.221 153.194 164.18 153.202 164.154C153.206 164.141 153.21 164.11 153.15 164.051C152.984 163.884 152.882 163.612 152.832 163.307C152.782 162.999 152.782 162.644 152.832 162.296C152.882 161.948 152.981 161.603 153.133 161.318C153.285 161.034 153.493 160.801 153.765 160.692C153.992 160.601 154.125 160.486 154.207 160.351C154.291 160.214 154.329 160.047 154.347 159.841C154.365 159.631 154.361 159.401 154.372 159.128C154.383 158.86 154.407 158.562 154.482 158.239C154.592 157.761 154.493 157.323 154.322 156.967C154.15 156.61 153.907 156.339 153.739 156.203L153.736 156.199L153.732 156.196C153.562 156.026 153.427 155.751 153.327 155.488C153.226 155.222 153.157 154.955 153.124 154.789L153.122 154.78V154.77C153.122 154.463 153.165 154.114 153.276 153.8C153.386 153.486 153.567 153.198 153.847 153.026C154.131 152.853 154.5 152.809 154.966 152.954C155.429 153.099 155.992 153.431 156.676 154.017C157.349 154.594 157.886 154.874 158.3 154.965C158.711 155.054 158.999 154.959 159.19 154.783C159.385 154.604 159.493 154.33 159.516 154.042C159.539 153.755 159.475 153.468 159.345 153.272C159.05 152.83 158.75 152.239 158.674 151.662C158.636 151.373 158.655 151.083 158.762 150.817C158.871 150.55 159.068 150.313 159.375 150.129C160.139 149.671 160.78 149.825 161.232 150.013C161.344 150.06 161.445 150.109 161.531 150.15C161.62 150.192 161.69 150.224 161.746 150.243C161.806 150.262 161.826 150.257 161.83 150.255L161.831 150.255C161.831 150.254 161.833 150.252 161.835 150.249C161.839 150.241 161.846 150.225 161.851 150.196C161.928 149.732 162.328 147.964 162.524 147.114C162.316 146.528 162.133 145.675 162.266 145.005C162.334 144.662 162.487 144.356 162.774 144.164C163.061 143.973 163.462 143.908 164.001 144.007C164.644 144.127 165.095 144.076 165.405 143.934C165.712 143.794 165.893 143.558 165.988 143.283C166.085 143.005 166.095 142.685 166.055 142.384C166.015 142.083 165.927 141.808 165.836 141.625C165.732 141.417 165.698 141.238 165.703 141.069C165.708 140.904 165.751 140.753 165.793 140.609C165.877 140.321 165.966 140.029 165.829 139.573C165.548 138.634 165.097 138.469 164.399 137.771C164.197 137.569 164.146 137.228 164.191 136.878C164.237 136.522 164.386 136.132 164.619 135.804C164.852 135.476 165.176 135.204 165.575 135.099C165.977 134.995 166.441 135.063 166.945 135.391C167.325 135.637 167.616 135.726 167.837 135.722C168.053 135.717 168.212 135.623 168.332 135.474C168.454 135.322 168.536 135.113 168.584 134.885C168.629 134.67 168.644 134.444 168.639 134.248C168.396 133.964 168.125 133.518 168.097 133.071C168.083 132.836 168.135 132.599 168.295 132.39C168.454 132.181 168.712 132.009 169.094 131.888C169.451 131.776 169.681 131.628 169.822 131.47C169.962 131.313 170.021 131.141 170.027 130.967C170.039 130.622 169.846 130.265 169.65 130.03C169.288 129.925 168.797 129.388 169.027 128.085C169.089 127.736 169.237 127.507 169.451 127.384C169.662 127.263 169.919 127.256 170.174 127.306C170.652 127.4 171.176 127.705 171.536 127.972L171.606 128.025L171.617 128.033L171.624 128.044C172.06 128.625 172.694 129.383 173.186 129.782C173.309 129.881 173.419 129.956 173.512 129.999C173.607 130.044 173.668 130.049 173.702 130.039C173.728 130.031 173.761 130.007 173.782 129.917C173.804 129.825 173.807 129.682 173.778 129.473C173.74 129.193 173.763 128.956 173.838 128.752C173.912 128.548 174.036 128.382 174.19 128.245C174.495 127.973 174.929 127.804 175.356 127.647C175.792 127.488 176.224 127.341 176.561 127.115C176.894 126.894 177.127 126.602 177.172 126.153C177.222 125.653 177.38 125.306 177.622 125.087C177.864 124.869 178.176 124.792 178.509 124.805C179.166 124.83 179.936 125.206 180.522 125.597C180.949 125.881 181.46 125.828 181.944 125.627C182.406 125.435 182.825 125.115 183.081 124.867C182.969 124.086 183.045 123.59 183.233 123.26C183.426 122.92 183.726 122.777 183.999 122.677C184.141 122.626 184.262 122.59 184.378 122.543C184.491 122.497 184.578 122.448 184.64 122.381C184.753 122.259 184.81 122.039 184.643 121.538C184.553 121.268 184.545 121.02 184.605 120.791C184.664 120.562 184.788 120.359 184.952 120.174C185.277 119.806 185.773 119.496 186.273 119.194C186.78 118.889 187.295 118.591 187.685 118.244C188.073 117.899 188.323 117.517 188.323 117.047C188.323 116.171 188.972 115.669 189.733 115.399C190.366 115.175 191.101 115.1 191.679 115.099C191.561 114.985 191.462 114.83 191.419 114.631C191.343 114.272 191.457 113.798 191.933 113.204C192.555 112.426 193.463 112.565 194.118 112.735C194.281 112.777 194.438 112.824 194.566 112.859C194.698 112.895 194.803 112.919 194.877 112.923C194.914 112.925 194.937 112.921 194.948 112.917C194.958 112.914 194.958 112.912 194.958 112.911C194.96 112.908 194.964 112.894 194.96 112.86C194.958 112.826 194.947 112.779 194.923 112.716C194.809 112.4 194.952 112.084 195.173 111.787C195.397 111.488 195.726 111.174 196.037 110.858C196.351 110.536 196.651 110.208 196.839 109.868C197.024 109.531 197.094 109.192 196.96 108.838C196.805 108.421 196.863 108.04 197.039 107.701C197.212 107.365 197.499 107.067 197.8 106.804C197.949 106.672 198.106 106.547 198.253 106.43C198.403 106.312 198.542 106.202 198.666 106.098C198.791 105.994 198.893 105.898 198.967 105.81C199.043 105.721 199.08 105.648 199.089 105.59L199.093 105.557C199.142 105.214 199.217 104.678 199.38 104.264C199.462 104.058 199.568 103.868 199.716 103.75C199.871 103.627 200.063 103.587 200.286 103.671C200.645 103.805 201.271 103.786 201.847 103.516C202.415 103.249 202.926 102.74 203.065 101.903C203.125 101.54 203.315 101.052 203.577 100.506C203.841 99.9585 204.18 99.3448 204.547 98.7277C204.754 98.377 204.972 98.0248 205.187 97.6823C205.385 98.4612 205.715 99.0403 206.149 99.5021C206.653 100.038 207.289 100.411 207.995 100.758C209.409 101.454 211.106 102.051 212.693 103.636C213.507 104.451 214.754 105.1 216.155 105.579C217.559 106.059 219.128 106.373 220.594 106.513C222.06 106.653 223.432 106.62 224.44 106.404C224.944 106.296 225.365 106.14 225.662 105.932C225.961 105.722 226.143 105.451 226.143 105.119C226.143 103.96 226.337 102.665 226.434 101.308C226.531 99.9592 226.533 98.563 226.139 97.2368C226.046 96.9255 226.052 96.6623 226.126 96.434C226.201 96.2048 226.349 96.0023 226.556 95.8171C226.975 95.4437 227.619 95.1551 228.337 94.8695C229.046 94.5867 229.826 94.3078 230.484 93.9544C231.141 93.601 231.698 93.1631 231.954 92.55C232.066 92.2803 232.239 92.1034 232.46 91.9876C232.683 91.8702 232.962 91.813 233.29 91.7929Z" fill="#FFCC6F"/>
<path d="M267.163 26.086C266.697 25.4654 266.967 24.6801 267.454 24.4375C267.939 24.1948 268.509 24.0736 268.909 24.6314C269.393 25.3102 269.102 25.7951 268.909 26.086C268.715 26.3769 267.745 26.8618 267.163 26.086Z" fill="#6C4300"/>
<path d="M192.266 92.5717C191.681 91.9069 192.019 90.9065 192.26 90.4895C193.249 90.4868 193.396 91.5198 193.499 92.2476C193.503 92.2767 193.507 92.3054 193.511 92.3334C193.512 92.3425 193.513 92.3514 193.515 92.3603C193.621 93.0888 192.997 93.4028 192.266 92.5717Z" fill="#FFB733"/>
<path d="M188.418 94.2478C187.377 94.3547 186.858 95.189 187.38 95.6041C187.902 96.0191 189.253 94.9745 188.418 94.2478Z" fill="#FFB733"/>
<path d="M184.249 93.0092C184.06 92.3519 184.549 92.117 184.952 91.9234C184.996 91.9025 185.038 91.8821 185.079 91.8618C186.224 91.8587 186.433 91.8581 186.642 92.3782C186.852 92.8982 186.646 93.9399 185.606 94.1509C184.628 94.3491 184.475 93.8098 184.286 93.1397C184.274 93.0966 184.262 93.053 184.249 93.0092Z" fill="#FFB733"/>
<path d="M178.747 99.1664C178.54 98.4816 178.955 98.4296 179.398 98.374C179.493 98.3619 179.59 98.3497 179.682 98.3311C179.834 98.3003 180.003 98.243 180.182 98.1823C180.618 98.0349 181.113 97.8674 181.556 98.0138C182.181 98.2205 181.767 99.1587 181.559 99.3674C181.507 99.4193 181.449 99.5297 181.378 99.6643C181.165 100.07 180.834 100.697 180.209 100.62C179.376 100.518 179.062 100.207 178.747 99.1664Z" fill="#FFB733"/>
<path d="M173.765 105.426C173.681 104.844 174.422 104.488 174.804 104.383C177.027 104.074 176.702 105.047 176.492 105.676C176.486 105.695 176.479 105.713 176.473 105.732C176.267 106.357 176.059 106.67 174.81 106.673C173.819 106.676 173.81 106.348 173.795 105.849C173.791 105.719 173.787 105.577 173.765 105.426Z" fill="#FFB733"/>
<path d="M168.367 111.375C168.365 110.616 168.798 110.548 169.348 110.461L169.349 110.461C169.402 110.453 169.455 110.445 169.51 110.435C170.967 110.223 171.176 110.431 171.386 111.159C171.596 111.887 171.181 112.409 170.037 113.037C168.894 113.665 168.37 112.208 168.367 111.375Z" fill="#FFB733"/>
<path d="M162.97 117.741C163.125 117.191 163.519 117.173 163.97 117.152C164.118 117.145 164.272 117.138 164.426 117.112C165.626 117.109 165.578 117.397 165.481 117.974C165.477 117.998 165.473 118.022 165.469 118.047C165.467 118.058 165.465 118.07 165.464 118.082C165.461 118.097 165.459 118.112 165.456 118.128C165.454 118.143 165.451 118.159 165.449 118.174V118.175V118.176C165.362 118.73 165.302 119.118 164.432 119.507C163.496 119.926 162.763 118.47 162.97 117.741Z" fill="#FFB733"/>
<path d="M157.468 124.106C157.633 123.606 158.438 123.479 158.819 123.478C160.371 123.319 160.19 124.031 160.041 124.62C159.99 124.821 159.942 125.008 159.969 125.141C160.075 125.661 159.244 126.392 158.202 126.186C157.16 125.981 157.261 124.731 157.468 124.106Z" fill="#FFB733"/>
<path d="M151.964 129.847C152.213 129.596 152.969 129.532 153.317 129.531C154.257 129.614 154.286 129.91 154.324 130.301C154.333 130.386 154.342 130.476 154.36 130.569C154.466 131.09 154.051 131.611 153.116 132.343C152.18 133.074 151.24 131.931 151.238 131.098C151.237 130.444 151.493 130.239 151.753 130.03C151.825 129.972 151.897 129.914 151.964 129.847Z" fill="#FFB733"/>
<path d="M189.749 85.8106C190.165 85.4972 190.999 85.7033 191.207 85.8069C191.947 86.0513 191.845 86.4919 191.769 86.8205C191.749 86.9087 191.731 86.9888 191.731 87.055C191.732 87.3672 191.213 88.2016 189.963 87.8924C188.713 87.5833 189.334 86.1242 189.749 85.8106Z" fill="#FFB733"/>
<path d="M193.588 80.4906C193.67 80.074 194.454 80.0371 194.836 80.0709C196.085 80.0676 195.982 80.7966 195.88 81.1093C195.777 81.4219 195.05 82.361 194.218 82.4673C193.385 82.5734 193.485 81.0115 193.588 80.4906Z" fill="#FFB733"/>
<path d="M197.53 75.0664C197.53 74.7332 198.847 74.4382 199.507 74.3323C200.131 74.3307 200.236 74.7469 199.821 75.0604C199.623 75.2099 199.472 75.5249 199.313 75.859C199.138 76.2254 198.952 76.6148 198.68 76.8332C198.161 77.2512 197.532 75.4828 197.53 75.0664Z" fill="#FFB733"/>
<path d="M188.057 76.0279C188.139 75.4447 189.201 75.435 189.722 75.5031C191.598 76.0188 190.56 77.479 189.624 77.7938C188.688 78.1086 187.955 76.757 188.057 76.0279Z" fill="#FFB733"/>
<path d="M183.183 83.2247C183.265 82.6415 183.702 82.4945 184.848 82.8038C185.994 83.1134 185.373 84.4685 184.645 84.8868C183.918 85.3052 183.081 83.9537 183.183 83.2247Z" fill="#FFB733"/>
<path d="M179.342 87.7119C179.424 87.1286 180.625 87.1879 181.215 87.2905C181.574 87.4687 181.625 87.8017 181.699 88.2887L181.699 88.2889C181.711 88.3681 181.724 88.4513 181.739 88.5386C181.845 89.1631 181.325 89.5808 180.388 89.5834C179.451 89.5857 179.24 88.441 179.342 87.7119Z" fill="#FFB733"/>
<path d="M173.841 94.1816C173.923 93.7648 174.776 93.5891 175.192 93.5532C176.174 93.7142 176.193 94.1989 176.207 94.5507C176.211 94.6469 176.214 94.733 176.237 94.7999C176.342 95.112 175.616 96.3633 174.887 96.3653C174.158 96.3672 173.738 94.7024 173.841 94.1816Z" fill="#FFB733"/>
<path d="M168.235 100.755C168.4 100.005 169.552 99.9539 170.108 100.022C171.461 100.018 170.217 102.104 169.385 102.627C168.554 103.149 168.029 101.693 168.235 100.755Z" fill="#FFB733"/>
<path d="M163.876 106.077C164.709 105.991 165.127 106.455 165.231 106.698C166.175 109.403 163.675 108.784 163.256 107.848C162.837 106.912 162.835 106.184 163.876 106.077Z" fill="#FFB733"/>
<path d="M159.213 114.835C158.882 115.419 158.033 114.595 157.65 114.11C157.378 113.798 156.916 112.238 158.583 112.546C160.25 112.854 159.628 114.105 159.213 114.835Z" fill="#FFB733"/>
<path d="M188.529 97.0586C187.611 96.4779 187.176 97.2356 187.073 97.6871L187.076 98.6241C187.077 99.0405 188.747 100.598 189.473 99.5551C190.199 98.5118 189.676 97.7845 188.529 97.0586Z" fill="#FFB733"/>
<path d="M182.509 104.258C182.093 104.426 182.131 105.578 182.201 106.133C182.495 106.717 183.061 107.117 183.73 107.59C183.759 107.611 183.789 107.632 183.819 107.654C183.836 107.666 183.854 107.678 183.871 107.691C184.602 108.209 184.7 105.919 184.699 105.502C184.698 105.284 184.499 105.153 184.293 105.017C184.106 104.893 183.913 104.766 183.863 104.567C183.758 104.151 183.029 104.049 182.509 104.258Z" fill="#FFB733"/>
<path d="M180.127 109.367C179.794 109.451 179.399 109.681 180.13 110.72C180.862 111.759 181.799 111.653 181.485 111.133C181.289 110.808 181.378 110.563 181.447 110.375C181.488 110.262 181.521 110.17 181.482 110.092C181.378 109.884 180.543 109.261 180.127 109.367Z" fill="#FFB733"/>
<path d="M176.904 111.353C176.572 111.687 176.595 112.395 176.908 112.915C177.222 113.434 177.744 113.995 178.578 114.16C179.538 114.349 179.701 114.099 180.045 113.568C180.074 113.523 180.105 113.476 180.137 113.427C180.478 112.913 179.975 112.19 179.727 111.833C179.673 111.756 179.631 111.695 179.612 111.658C179.572 111.578 179.424 111.545 179.246 111.504C178.96 111.44 178.594 111.357 178.465 111.037C178.256 110.517 177.32 110.935 176.904 111.353Z" fill="#FFB733"/>
<path d="M172.236 117.82C171.403 117.489 171.198 118.864 171.304 119.697C171.411 120.53 171.87 121.091 172.871 121.671C173.984 122.316 173.854 120.248 173.812 119.562C173.806 119.477 173.802 119.413 173.802 119.378C173.801 119.066 173.279 118.234 172.236 117.82Z" fill="#FFB733"/>
<path d="M166.528 124.916C166.192 123.917 166.872 123.735 167.254 123.768C168.296 124.078 168.713 124.597 169.027 125.117C169.341 125.637 169.656 126.677 168.72 127.2C167.785 127.723 166.948 126.164 166.528 124.916Z" fill="#FFB733"/>
<path d="M161.031 133.363C160.697 132.864 160.749 131.559 160.817 130.969C160.845 130.657 161.544 130.238 162.692 131.277C163.84 132.315 163.426 133.357 163.115 133.982C162.805 134.608 161.449 133.987 161.031 133.363Z" fill="#FFB733"/>
<path d="M154.904 139.21C154.57 138.878 154.554 137.892 154.587 137.441C154.795 137.128 155.627 137.022 156.461 137.436C157.194 137.8 156.885 139.128 156.729 139.8C156.719 139.844 156.71 139.885 156.701 139.923C156.692 139.966 156.683 140.004 156.676 140.038C156.574 140.559 155.322 139.625 154.904 139.21Z" fill="#FFB733"/>
<path d="M148.778 145.889C148.359 145.141 148.322 143.982 148.355 143.496C148.665 142.662 150.542 143.49 150.96 144.114C151.378 144.737 150.966 146.508 150.551 147.03C150.136 147.552 149.301 146.825 148.778 145.889Z" fill="#FFB733"/>
<path d="M168.308 168.953C168.69 168.952 169.496 169.117 169.664 169.783C169.731 170.05 169.82 170.284 169.899 170.494C170.067 170.938 170.192 171.268 169.981 171.552C169.67 171.969 168.003 171.661 167.793 171.037C167.771 170.971 167.744 170.898 167.715 170.821C167.473 170.161 167.098 169.143 168.308 168.953Z" fill="#FFB733"/>
<path d="M181.822 160.589C181.615 160.832 181.221 161.506 181.306 162.256C181.412 163.193 181.728 164.441 182.872 164.022C184.016 163.602 184.327 162.769 183.492 162.042C183.173 161.764 182.975 161.38 182.807 161.052C182.533 160.521 182.336 160.137 181.822 160.589Z" fill="#FFB733"/>
<path d="M187.975 164.425C187.561 165.467 187.979 166.132 188.814 166.713C189.857 167.439 190.69 167.437 190.895 166.291C191.1 165.146 188.389 163.383 187.975 164.425Z" fill="#FFB733"/>
<path d="M188.244 147.869C187.759 148.148 186.935 148.893 187.52 149.641C188.251 150.576 188.982 151.095 189.293 150.574C189.503 150.221 189.952 149.915 190.188 149.754C190.301 149.678 190.365 149.634 190.331 149.634C190.309 149.634 190.257 149.542 190.177 149.399C189.886 148.881 189.223 147.704 188.244 147.869Z" fill="#FFB733"/>
<path d="M194.052 139.317C194.172 139.475 194.322 139.573 194.467 139.668C194.702 139.822 194.927 139.969 194.993 140.355C194.997 140.377 195.001 140.401 195.004 140.425C195.119 141.088 195.367 142.53 194.06 142.232C192.706 141.923 193.532 139.318 194.052 139.317Z" fill="#FFB733"/>
<path d="M210.596 134.692C210.456 134.415 210.322 133.86 210.906 133.859C211.207 133.858 211.455 133.714 211.696 133.575C212.033 133.38 212.351 133.195 212.778 133.437C213.509 133.852 213.821 134.059 213.926 134.371C214.031 134.683 213.825 135.621 212.993 135.831C212.161 136.042 211.432 135.94 210.596 134.692Z" fill="#FFB733"/>
<path d="M206.829 127.83C206.69 127.484 206.346 126.749 206.096 126.583C205.784 126.375 204.638 126.066 204.954 127.106C205.254 128.099 205.173 128.145 204.533 128.51C204.502 128.528 204.469 128.546 204.436 128.565C204.388 128.593 204.337 128.622 204.285 128.651C203.565 129.057 202.628 129.584 203.505 130.65C204.444 131.793 206.11 131.372 206.108 130.643C206.106 130.319 206.23 130.035 206.339 129.784C206.474 129.471 206.589 129.207 206.416 128.977C206.102 128.561 205.891 127.52 206.829 127.83Z" fill="#FFB733"/>
<path d="M212.904 101.785C212.421 102.342 211.785 103.62 213.119 104.283C213.916 104.679 214.236 104.577 214.591 104.465C214.981 104.341 215.412 104.204 216.556 104.691C218.746 105.622 219.465 101.976 218.526 101.771C218.265 101.713 218.001 101.622 217.749 101.536C217.105 101.314 216.535 101.118 216.236 101.568C216.013 101.904 215.939 102.09 215.889 102.222C215.842 102.336 215.813 102.41 215.718 102.507C215.511 102.715 214.467 101.989 214.673 101.364C214.88 100.739 214.564 99.4901 213.732 100.013C213.061 100.436 213.069 100.516 213.096 100.807V100.807V100.808C213.104 100.876 213.111 100.957 213.111 101.056C213.111 101.472 212.974 101.715 212.904 101.785Z" fill="#FFB733"/>
</g>
<defs>
<clipPath id="clip0_1470_5038">
<rect width="282" height="239.913" fill="white"/>
</clipPath>
</defs>
</svg>
