<svg width="282" height="241" viewBox="0 0 282 241" fill="none" xmlns="http://www.w3.org/2000/svg">
<path d="M85.0205 102.776C86.9347 100.496 88.2599 95.494 90.2478 90.051C91.4172 86.8491 91.4401 84.0035 91.2157 80.9303C90.8931 81.1755 90.0711 81.5187 89.3643 80.9303C88.6575 80.3419 87.6955 79.8025 87.3028 79.6063L85.0205 80.9303V84.3138L83.4008 85.7849L82.1491 84.3138L79.7196 85.1964L76.8482 84.3138L73.0198 86.0055L71.1055 87.6973L72.5044 90.051L70.5165 90.5659C69.633 91.7428 67.2182 94.2877 64.6266 95.0527C62.035 95.8177 62.3688 97.0877 62.8596 97.6271C62.197 98.0929 60.6804 98.9805 59.9147 98.804C59.149 98.6274 58.2704 100.447 57.9268 101.378L56.453 100.496C56.3765 102.33 56.4641 104.001 56.6752 105.056C57.4115 106.821 59.2815 110.602 60.8718 111.602C62.4621 112.603 63.3505 113.735 63.5959 114.177L60.8718 116.825L63.5959 118.958L60.8718 120.502L62.8596 123.592L56.6752 128.446C58.5845 131.756 59.9147 136.831 69.1177 139.994C76.4065 134.625 82.1491 114.103 82.1491 111.602C82.1491 109.102 83.1063 105.056 85.0205 102.776Z" fill="#FFBC4D"/>
<path d="M57.4115 80.9303C58.1477 82.1807 59.4729 89.6097 57.9268 92.9196C57.0141 94.8736 56.5632 97.853 56.453 100.496L57.9268 101.378C58.2704 100.447 59.149 98.6274 59.9147 98.804C60.6804 98.9805 62.197 98.0929 62.8596 97.6271C62.3688 97.0877 62.035 95.8177 64.6266 95.0527C67.2182 94.2877 69.633 91.7428 70.5165 90.5659L72.5044 90.051L71.1055 87.6973L73.0198 86.0055L76.8482 84.3138L79.7196 85.1964L82.1491 84.3138L83.4008 85.7849L85.0205 84.3138V80.9303L87.3028 79.6063C87.6955 79.8025 88.6575 80.3419 89.3643 80.9303C90.0711 81.5187 90.8931 81.1755 91.2157 80.9303C91.0586 78.7793 90.7805 76.5169 90.6895 73.9427C90.5128 68.941 87.131 67.3963 85.4622 67.2492C86.0512 60.8942 82.2228 57.5891 80.2349 56.731C77.1722 55.3188 74.3941 57.3194 73.3879 58.4963C71.9743 54.0242 68.4305 52.5629 66.8353 52.3913C59.0017 53.5093 59.5956 60.9971 60.8718 64.6013C61.5786 59.7761 64.0622 57.6382 65.2156 57.1723C65.2156 58.3492 67.4979 64.9691 68.6759 67.9848C69.8539 71.0005 69.3386 77.3262 69.2649 79.6063C69.206 81.4305 68.3078 84.4854 67.8661 85.7849C67.8661 85.0493 66.4672 83.1369 66.0991 81.6658C65.731 80.1948 65.3629 78.7237 62.8596 74.5311C60.8571 71.177 57.9023 71.2702 56.6752 71.736C49.4895 73.266 49.5091 79.6308 50.4172 82.622C50.9325 79.5328 52.0369 80.9303 52.5523 79.165C52.9646 77.7528 54.5892 76.8113 55.35 76.5171C55.2027 77.9881 56.6752 79.6799 57.4115 80.9303Z" fill="#FFD588"/>
<path d="M56.6752 105.056C57.0875 107.116 57.9268 111.602 50.4172 116.825C54.0248 120.135 54.172 124.107 56.6752 128.446L62.8596 123.592L60.8718 120.502L63.5959 118.958L60.8718 116.825L63.5959 114.177C63.3505 113.735 62.4621 112.603 60.8718 111.602C59.2815 110.602 57.4115 106.821 56.6752 105.056Z" fill="#FFD588"/>
<path d="M88.2853 88.1337C88.6534 91.223 89.2866 95.3273 88.2853 100.27C87.0569 106.334 79.9375 111.439 87.8225 134.473C87.9714 134.908 88.1256 135.349 88.2853 135.797C90.5677 142.196 89.4633 138.224 90.1259 147.345C90.7885 156.466 103.016 161.59 110.814 162.938C123.599 165.148 129.606 169.609 135.184 172.94C136.742 173.87 138.266 174.713 139.896 175.393C143.889 177.061 148.511 177.757 155.799 176.399C166.964 174.317 171.039 180.297 173.321 185.446C173.837 181.695 173.91 176.399 176.045 177.281C178.18 178.164 183.408 188.609 183.408 188.609C183.923 182.798 181.567 172.97 184.733 177.664C187.899 182.357 193.273 188.609 193.273 188.609C193.273 188.609 191.727 179.635 190.917 175.884C190.107 172.133 202.697 182.357 202.697 182.357V176.399C202.697 173.015 206.305 169.19 209.839 172.795C213.373 176.399 215.189 178.679 217.054 181.768C217.054 179.12 216.053 174.56 216.17 170.441C216.288 166.322 221.398 173.971 226.772 177.664C226.772 177.664 223.459 170.367 224.048 169.19C224.637 168.014 228.76 173.383 232 174.633C226.772 168.014 224.048 164.556 224.048 162.497C224.048 160.849 228.171 161.222 230.233 161.614C217.496 148.375 227.361 141.24 224.048 128.221C220.735 115.202 224.564 101.962 225.594 89.9726C226.625 77.9832 227.877 56.8732 211.385 53.6368C194.893 50.4004 197.691 55.1815 180.315 56.8732C162.94 58.565 166.106 59.6683 161.32 60.3303C156.535 60.9922 153.075 68.0534 149.467 73.3493C145.859 78.6452 135.626 80.999 129.957 82.1758C125.421 83.1173 122.079 80.9009 120.68 80.1163C120.582 81.3667 119.958 83.8676 118.25 83.8676C116.542 83.8676 113.538 78.7188 111.477 76.8799C112.066 81.2932 115.114 84.6914 112.876 86.2213C110.638 87.7512 107.869 81.2932 103.967 77.4684C103.967 77.4684 106.912 89.1635 105.955 89.8255C104.998 90.4875 97.8565 81.2932 97.8565 81.2932C98.2982 84.6767 101.479 90.2079 99.7707 91.7379C98.0626 93.2678 95.4269 88.6486 91.0094 83.8676C91.8929 87.8395 94.9704 94.7242 94.028 95.4891C93.0856 96.2541 90.7885 91.4436 88.2853 88.1337Z" fill="#FFD588"/>
<path d="M200.048 127.191C201.579 121.483 200.269 110.494 196.735 108.802C193.201 107.111 187.267 102.183 187.974 96.5924C188.857 89.6048 197.766 81.4404 198.649 79.8222C199.533 78.204 207.437 73.3676 211.754 71.3634C219.043 67.9799 218.391 60.8071 219.043 61.5072C221.988 64.67 221.399 73.7172 221.104 76.8065C220.81 79.8957 217.423 89.4578 216.981 99.6082C216.54 109.759 210.723 120.056 210.282 129.692C209.84 139.327 198.944 152.052 197.103 153.45C194.1 155.73 190.623 161.32 186.647 164.409C182.671 167.499 178.991 166.101 178.771 164.409C178.55 162.718 183.039 150.655 184.808 148.007C185.89 146.387 198.134 134.326 200.048 127.191Z" fill="#FFCC6F"/>
<path d="M175.898 67.2444C175.544 67.4209 175.26 68.3477 175.161 68.789C178.622 68.789 177.444 67.2444 177.444 66.803C177.444 66.3617 176.339 67.0237 175.898 67.2444Z" fill="#FFBC42"/>
<path d="M182.966 64.8906C182.436 65.3026 182.303 66.3372 182.303 66.803C183.555 67.0237 183.775 65.5526 183.775 65.2584C183.775 64.9642 183.628 64.3758 182.966 64.8906Z" fill="#FFBC42"/>
<path d="M179.8 67.9064C179.623 68.2594 179.726 69.3284 179.8 69.8188C180.168 70.0394 181.567 69.1568 181.567 68.789C181.567 68.4212 181.199 68.0535 180.978 67.9064C180.757 67.7592 180.021 67.465 179.8 67.9064Z" fill="#FFBC42"/>
<path d="M173.468 70.1865C172.879 70.4807 172.683 71.2898 172.658 71.6576C173.321 71.6576 174.425 71.437 174.72 71.0692C175.014 70.7014 174.793 70.1865 174.72 69.8188C174.646 69.451 174.204 69.8188 173.468 70.1865Z" fill="#FFBC42"/>
<path d="M178.106 65.2584C177.93 65.435 178.18 65.9694 178.327 66.2146C179.211 66.2146 179.8 65.4791 179.579 65.2584C179.358 65.0378 178.327 65.0377 178.106 65.2584Z" fill="#FFBC42"/>
<path d="M180.242 63.1253C180.065 63.3607 179.873 64.057 179.8 64.3758C180.389 64.3758 181.346 63.6402 181.346 63.1253C181.346 62.6105 180.462 62.8311 180.242 63.1253Z" fill="#FFBC42"/>
<path d="M184.07 60.1832C183.658 60.3009 183.702 61.2129 183.775 61.6543C184.364 61.6543 185.469 60.6981 185.69 60.1832C185.911 59.6683 184.585 60.0361 184.07 60.1832Z" fill="#FFBC42"/>
<path d="M182.303 57.7559C181.95 58.0501 181.665 58.4178 181.567 58.565C182.156 58.565 183.775 58.1972 184.07 57.7559C184.364 57.3145 182.745 57.3881 182.303 57.7559Z" fill="#FFBC42"/>
<path d="M185.248 65.2584C184.895 65.5526 185.101 66.5579 185.248 67.0237C185.763 67.0237 187.015 65.8468 186.794 65.2584C186.573 64.67 185.69 64.8906 185.248 65.2584Z" fill="#FFBC42"/>
<path d="M169.64 72.0989C169.286 72.2755 169.345 73.1042 169.419 73.4965C169.811 73.4229 170.715 73.1728 171.186 72.7609C171.775 72.246 171.407 71.8783 171.186 71.6576C170.965 71.437 170.081 71.8783 169.64 72.0989Z" fill="#FFBC42"/>
<path d="M164.56 74.6733C164.383 75.1441 164.486 75.8012 164.56 76.0709C165.517 75.6295 165.885 74.6733 165.885 74.4527C165.885 74.232 165.738 73.9378 165.517 73.7171C165.296 73.4965 164.78 74.0849 164.56 74.6733Z" fill="#FFBC42"/>
<path d="M162.204 74.4527C162.027 74.8646 162.032 75.3598 162.056 75.556C162.999 75.556 163.514 74.699 163.74 74.3221L163.75 74.3056C163.971 73.9378 163.382 73.8642 163.087 73.7171C162.793 73.57 162.425 73.9378 162.204 74.4527Z" fill="#FFBC42"/>
<path d="M176.708 70.1865C175.824 70.4807 175.603 71.7802 175.603 72.3932C177.738 72.3932 178.327 70.8485 178.327 70.4072C178.327 69.9659 177.812 69.8188 176.708 70.1865Z" fill="#FFBC42"/>
<path d="M196.071 54.5195C195.482 54.6372 195.138 55.3531 195.04 55.6964C196.881 55.6964 197.47 54.8873 197.47 54.5195C197.47 54.1517 196.807 54.3724 196.071 54.5195Z" fill="#FFBC42"/>
<path d="M199.531 54.5195C199.119 54.5195 198.623 54.9608 198.427 55.1815C198.427 55.2305 198.618 55.3727 199.384 55.5493C200.341 55.7699 200.783 55.3286 201.298 55.3286C201.813 55.3286 201.74 55.0344 201.372 54.7402C201.004 54.446 200.046 54.5195 199.531 54.5195Z" fill="#FFBC42"/>
<path d="M200.856 56.4319C200.444 56.4319 199.899 57.3146 199.899 57.6088C199.899 57.903 201.077 58.5209 201.372 58.6385C201.74 58.7856 203.728 57.6088 203.728 57.241C203.728 56.8732 202.918 56.8732 202.329 56.8732C201.74 56.8732 201.372 56.4319 200.856 56.4319Z" fill="#FFBC42"/>
<path d="M111.697 105.272C111.638 106.154 112.556 107.013 113.022 107.331C113.979 107.552 114.347 106.743 114.568 106.449C114.789 106.154 113.169 105.64 112.654 105.051C112.139 104.463 111.77 104.169 111.697 105.272Z" fill="#FFB54D"/>
<path d="M108.016 102.845C108.138 103.335 108.398 104.463 108.457 105.051C108.743 107.901 111.634 105.735 110.372 104.095C109.783 103.33 108.556 102.943 108.016 102.845Z" fill="#FFB54D"/>
<path d="M116.041 109.097C116.041 109.744 116.482 110.641 117.366 110.935C118.249 111.23 118.617 110.568 119.427 109.832C120.237 109.097 119.059 108.95 118.249 108.729C117.601 108.552 116.507 107.724 116.041 107.331V109.097Z" fill="#FFB54D"/>
<path d="M120.532 111.156C120.237 112.039 121.194 112.921 122.151 113.363C123.109 113.804 125.17 112.407 123.918 111.818C122.917 111.347 121.636 110.445 121.121 110.053C121.047 110.053 120.826 110.274 120.532 111.156Z" fill="#FFB54D"/>
<path d="M140.41 125.941C140.41 126.764 140.189 126.897 140.778 127.412C141.367 127.927 141.809 127.191 142.03 126.823C142.251 126.455 142.251 125.941 141.662 125.646C141.073 125.352 140.41 124.911 140.41 125.941Z" fill="#FFB54D"/>
<path d="M143.944 130.207C144.003 131.207 144.852 131.653 145.269 131.751C145.858 131.751 146.079 131.384 146.3 131.089C146.521 130.795 146.3 130.354 145.564 129.986C144.975 129.692 144.239 129.03 143.944 128.736C143.92 128.809 143.885 129.206 143.944 130.207Z" fill="#FFB54D"/>
<path d="M148.803 132.487C148.803 133.443 149.54 135.355 150.349 135.503C151.159 135.65 151.1 135.709 151.454 135.061C151.896 134.252 152.043 134.179 152.558 133.443C153.074 132.708 151.896 132.487 150.57 132.487C149.245 132.487 148.803 131.531 148.803 132.487Z" fill="#FFB54D"/>
<path d="M153.957 137.194C153.78 138.195 154.104 139.107 155.135 139.548C156.166 139.989 156.681 139.327 157.27 139.107C157.859 138.886 158.743 137.709 157.417 137.562C156.092 137.415 155.43 136.9 154.767 136.385C154.104 135.87 154.178 135.944 153.957 137.194Z" fill="#FFB54D"/>
<path d="M159.847 142.564C159.994 144.329 161.025 144.623 161.54 144.991C162.056 145.359 163.72 145.903 164.485 145.727C165.442 145.506 165.59 144.844 165.295 144.182C165.001 143.52 164.338 143.594 163.528 143.373C162.718 143.152 162.35 143.814 162.056 143.814C161.761 143.814 161.761 143.226 161.393 142.343C161.099 141.637 160.24 140.823 159.847 140.504C159.798 140.602 159.729 141.152 159.847 142.564Z" fill="#FFB54D"/>
<path d="M166.326 146.609C166.267 147.198 167.283 148.007 167.872 148.227C168.461 148.448 169.271 148.522 169.565 148.595C169.418 148.35 168.991 147.654 168.461 146.83C167.798 145.8 167.357 145.727 167.062 145.506C166.768 145.285 166.4 145.874 166.326 146.609Z" fill="#FFB54D"/>
<path d="M88.2853 88.1337C88.6534 91.223 89.2866 95.3273 88.2853 100.27C87.0569 106.334 79.9375 111.439 87.8225 134.473C91.8052 131.285 99.7707 123.852 99.7707 119.615C99.7707 114.319 102.348 112.259 104.703 107.258C106.588 103.256 100.924 100.491 97.8564 99.6082C100.801 98.7991 104.114 98.3725 104.703 97.5487C105.292 96.7249 102.789 95.9305 100.212 94.4594C103.452 94.4594 107.958 95.1949 108.606 94.0181C109.253 92.8412 107.28 92.3263 105.955 91.1494C107.918 91.3456 111.948 91.6202 112.36 91.1494C112.773 90.6787 110.667 89.3106 109.563 88.1337C112.14 88.5015 115.997 89.6195 117.293 88.7957C118.589 87.9719 116.778 87.0304 115.673 85.8535C118.128 86.2949 123.227 86.9127 123.993 85.8535C124.759 84.7944 122.103 81.5874 120.68 80.1163C120.582 81.3668 119.958 83.8676 118.25 83.8676C116.542 83.8676 113.538 78.7188 111.477 76.8799C112.066 81.2932 115.114 84.6914 112.876 86.2213C110.638 87.7512 107.869 81.2932 103.967 77.4684C103.967 77.4684 106.912 89.1635 105.955 89.8255C104.998 90.4875 97.8564 81.2932 97.8564 81.2932C98.2982 84.6767 101.479 90.208 99.7707 91.7379C98.0626 93.2678 95.4269 88.6486 91.0094 83.8676C91.8929 87.8395 94.9704 94.7242 94.028 95.4892C93.0856 96.2541 90.7885 91.4437 88.2853 88.1337Z" fill="#FFBC42"/>
<path d="M161.1 154.112C159.259 155.068 154.768 158.672 147.553 159.113C140.338 159.555 135.184 168.676 139.896 175.393C142.178 169.46 151.013 164.63 157.566 163.306C164.118 161.982 173.321 156.833 172.29 154.847C171.26 152.861 162.94 153.156 161.1 154.112Z" fill="#FFBC42"/>
<path fill-rule="evenodd" clip-rule="evenodd" d="M193.297 98.2106C194.305 96.3717 195.379 96.0481 196.145 92.694C197.102 88.5014 203.802 82.9113 207.41 84.3824C211.017 85.8535 211.827 90.1932 211.312 91.8114C210.796 93.4295 210.87 95.1213 211.312 96.3717C211.753 97.6221 208.514 107.111 202.035 107.478C195.787 107.833 192.289 100.049 193.297 98.2106Z" fill="#FFBE46"/>
<path d="M199.016 98.2105C199.605 95.4155 205.495 90.5609 206.82 91.2242C208.618 92.1239 208.808 95.711 206.673 99.0945C204.538 102.478 198.427 101.006 199.016 98.2105Z" fill="#E6820F"/>
<path fill-rule="evenodd" clip-rule="evenodd" d="M206.82 91.2242C205.495 90.5609 199.605 95.4155 199.016 98.2105C198.427 101.006 204.538 102.478 206.673 99.0945C208.808 95.711 208.618 92.1239 206.82 91.2242Z" fill="#E6820F"/>
<path d="M202.551 100.27C200.268 100.27 200.899 97.5488 201.152 96.7397C201.405 95.9307 202.845 93.2091 204.759 94.3859C206.674 95.5628 204.833 100.27 202.551 100.27Z" fill="black"/>
<path d="M217.276 75.703C216.466 75.7765 215.509 72.3197 216.687 71.8047C218.393 71.0587 218.085 75.6296 217.276 75.703Z" fill="#F89132"/>
<path d="M184.512 158.01C182.598 164.63 185.837 163.527 186.795 163.012C190.329 160.879 191.58 155.509 191.875 154.112C192.112 152.985 192.39 149.331 191.359 147.565C190.535 146.153 189.936 147.713 189.74 148.669C189.268 148.139 188.611 148.889 188.341 149.331C186.5 149.331 186.426 151.39 184.512 158.01Z" fill="#FFA421"/>
<path d="M132.385 96.6661C131.443 96.7249 130.667 98.0636 130.397 98.7256C131.575 98.9463 133.048 98.7256 133.49 97.843C133.931 96.9603 133.563 96.5925 132.385 96.6661Z" fill="#FFBC42"/>
<path d="M140.557 98.4314C139.851 98.3725 138.643 99.7799 138.128 100.491C139.674 100.859 141.515 100.197 141.735 99.4611C141.956 98.7256 141.441 98.5049 140.557 98.4314Z" fill="#FFBC42"/>
<path d="M129.293 100.932C128.822 101.05 128.311 101.913 128.115 102.33C129.661 102.55 130.176 102.036 130.25 101.521C130.324 101.006 129.882 100.785 129.293 100.932Z" fill="#FFBC42"/>
<path d="M133.49 100.491C132.783 100.962 132.459 101.913 132.385 102.33C133.931 102.624 135.477 101.815 135.625 101.521C135.772 101.226 135.109 100.932 134.962 100.491C134.815 100.05 134.373 99.9024 133.49 100.491Z" fill="#FFBC42"/>
<path d="M141.367 106.522C140.366 106.64 139.821 107.944 139.674 108.582C140.778 108.95 142.766 108.067 142.987 107.405C143.208 106.743 142.619 106.375 141.367 106.522Z" fill="#FFBC42"/>
<path d="M135.625 106.817C134.859 106.875 134.373 108.165 134.226 108.802C136.655 109.391 137.686 108.141 137.686 107.405C137.686 106.669 136.582 106.743 135.625 106.817Z" fill="#FFBC42"/>
<path d="M130.986 106.817C130.338 107.052 130.226 107.846 130.25 108.214C130.839 108.263 132.032 108.214 132.091 107.626C132.164 106.89 131.796 106.522 130.986 106.817Z" fill="#FFBC42"/>
<path d="M130.986 92.547C130.338 92.6647 129.784 93.6749 129.587 94.1652C130.839 94.4595 132.385 94.1652 132.606 93.3561C132.827 92.547 131.796 92.3999 130.986 92.547Z" fill="#FFBC42"/>
<path d="M133.49 89.8255C132.842 90.0609 132.483 90.6101 132.385 90.8553C132.655 91.0514 133.357 91.4437 134.005 91.4437C134.815 91.4437 135.625 90.3404 135.33 89.8255C135.036 89.3106 134.299 89.5313 133.49 89.8255Z" fill="#FFBC42"/>
<path d="M125.833 93.5768C125.067 93.5768 124.434 94.6556 124.213 95.195C125.538 95.195 126.863 94.533 126.863 94.1652C126.863 93.7975 126.79 93.5768 125.833 93.5768Z" fill="#FFBC42"/>
<path d="M137.023 93.0619C136.317 93.4738 135.796 94.4594 135.625 94.9007C136.091 94.9988 137.244 95.1361 138.128 94.9007C139.232 94.6065 139.011 93.3561 138.864 93.0619C138.717 92.7677 137.907 92.547 137.023 93.0619Z" fill="#FFBC42"/>
<path d="M142.545 94.6801C141.838 94.9155 141.465 95.5627 141.367 95.8569H143.576C144.239 95.8569 144.165 94.9007 144.018 94.6801C143.871 94.4594 143.429 94.3859 142.545 94.6801Z" fill="#FFBC42"/>
<path d="M144.975 88.9429C144.563 88.884 143.723 89.9971 143.355 90.561C144.975 90.9288 146.006 90.561 146.374 89.8255C146.742 89.0899 145.49 89.0164 144.975 88.9429Z" fill="#FFBC42"/>
<path d="M138.422 90.3404C138.187 90.3992 137.784 90.9043 137.612 91.1495C137.882 91.2475 138.643 91.3849 139.527 91.1495C140.631 90.8552 140.41 90.3404 140.042 90.1197C139.674 89.899 138.717 90.2668 138.422 90.3404Z" fill="#FFBC42"/>
<path d="M165.001 97.328C164.235 97.3869 164.044 98.7255 164.044 99.3875C164.044 99.0198 165.516 98.2107 165.811 98.0636C166.105 97.9164 165.958 97.2545 165.001 97.328Z" fill="#FFBC42"/>
<path d="M162.866 100.27C162.453 100.564 162.399 101.815 162.424 102.403C162.964 101.962 164.044 100.991 164.044 100.638C164.044 100.197 163.381 99.9024 162.866 100.27Z" fill="#FFBC42"/>
<path d="M161.319 103.948C160.73 104.654 161.074 105.958 161.319 106.522C161.688 106.228 162.424 105.551 162.424 105.198C162.424 104.757 162.866 104.242 162.866 103.948C162.866 103.654 162.056 103.065 161.319 103.948Z" fill="#FFBC42"/>
<path d="M161.761 108.361C161.526 108.891 161.859 110.151 162.056 110.715C162.35 110.347 163.234 108.729 163.013 108.361C162.792 107.993 162.056 107.699 161.761 108.361Z" fill="#FFBC42"/>
<path d="M160.436 113.289C160.377 114.113 160.853 115.251 161.099 115.717C161.099 115.202 162.424 113.951 162.866 113.289C163.307 112.627 162.424 112.333 161.761 112.039C161.099 111.745 160.51 112.26 160.436 113.289Z" fill="#FFBC42"/>
<path d="M161.319 119.026C161.319 119.909 162.056 120.963 162.424 121.38C162.424 120.792 163.455 119.026 163.528 118.217C163.602 117.408 163.013 117.188 162.424 117.629C161.835 118.07 161.319 117.923 161.319 119.026Z" fill="#FFBC42"/>
<path d="M151.896 92.4734C151.307 92.4734 150.619 93.3071 150.349 93.7239C151.675 94.2387 152.411 93.5032 152.558 93.0619C152.705 92.6206 152.632 92.4734 151.896 92.4734Z" fill="#FFBC42"/>
<path d="M150.129 87.8395C149.481 87.8395 148.877 88.6731 148.656 89.0899C149.466 89.237 151.012 88.5015 151.159 88.0602C151.307 87.6189 150.938 87.8395 150.129 87.8395Z" fill="#FFBC42"/>
<path d="M126.201 100.123C125.671 100.123 125.244 100.957 125.096 101.373C125.98 101.668 126.863 101.153 127.158 100.712C127.452 100.27 126.863 100.123 126.201 100.123Z" fill="#FFBC42"/>
<path d="M224.269 65.6999C224.438 67.0269 224.561 68.3662 224.657 69.7057C225.074 76.1716 225.096 82.7229 223.681 89.1628C222.418 94.5752 221.769 100.103 220.993 105.66C220.674 107.496 220.615 109.239 219.66 111.233C217.57 115.719 215.978 121.07 215.521 126.088C215.046 131.233 213.235 135.89 211.217 140.447C210.645 141.656 210.027 142.876 209.249 143.962C209.944 142.823 210.471 141.573 210.959 140.337C212.662 135.727 214.214 130.844 214.462 126.088C214.778 120.6 216.124 115.565 218.421 110.491C219.045 109.192 219.259 107.198 219.536 105.448C220.307 99.9332 221.05 94.3269 222.5 88.8698C224.062 82.69 224.371 76.1709 224.377 69.7165C224.369 68.3772 224.34 67.0355 224.269 65.6999Z" fill="#E59A11"/>
<path d="M126.643 130.942C126.717 130.378 127.026 129.206 127.674 129.03C128.484 128.809 128.042 130.575 126.643 130.942Z" fill="#FFAD5C"/>
<path d="M125.465 133.811C124.935 134.223 124.851 134.963 124.876 135.282C125.907 135.429 126.496 134.326 126.643 133.811C126.79 133.296 126.128 133.296 125.465 133.811Z" fill="#FFAD5C"/>
<path d="M122.373 137.047C121.902 137.577 122.078 138.494 122.226 138.886C122.618 138.715 123.507 138.268 123.919 137.856C124.434 137.342 124.287 136.827 124.14 136.459C123.993 136.091 122.962 136.385 122.373 137.047Z" fill="#FFAD5C"/>
<path d="M117.734 141.828C117.366 142.417 117.293 143.299 117.44 143.667C118.323 143.299 119.207 142.417 118.986 141.755C118.796 141.185 118.103 141.24 117.734 141.828Z" fill="#FFAD5C"/>
<path d="M116.409 146.609C116.586 147.257 116.483 147.86 116.409 148.08C116.802 147.786 117.631 147.051 117.808 146.462C118.029 145.727 117.808 145.359 117.293 145.212C116.777 145.065 116.188 145.8 116.409 146.609Z" fill="#FFAD5C"/>
<path d="M114.421 149.257C113.95 149.434 113.734 150.557 113.685 151.096C114.004 151.096 114.76 150.993 115.231 150.581C115.82 150.066 115.452 150.14 115.452 149.552C115.452 148.963 115.01 149.037 114.421 149.257Z" fill="#FFAD5C"/>
<path d="M112.36 152.861C112.007 153.391 112.016 154.308 112.065 154.7C112.286 154.357 112.802 153.641 113.096 153.523C113.464 153.376 113.759 152.494 113.538 152.126C113.317 151.758 112.802 152.199 112.36 152.861Z" fill="#FFAD5C"/>
<path d="M111.108 156.613C110.932 156.966 111.035 157.79 111.108 158.157C111.378 157.937 111.948 157.422 112.065 157.128C112.213 156.76 112.213 156.392 112.065 156.171C111.918 155.951 111.329 156.171 111.108 156.613Z" fill="#FFAD5C"/>
<path d="M120.606 140.431C120.37 140.784 120.164 141.461 120.311 141.975C120.9 141.902 121.489 141.24 121.784 140.946C122.152 140.578 121.857 140.21 121.637 139.989C121.416 139.769 120.9 139.989 120.606 140.431Z" fill="#FFAD5C"/>
<path d="M119.354 143.299C119.06 143.476 119.06 144.035 119.06 144.476C119.06 144.918 119.369 145.624 119.428 145.506C119.501 145.359 120.385 144.623 120.459 144.329C120.532 144.035 120.164 143.52 120.164 143.299C120.164 143.079 119.722 143.079 119.354 143.299Z" fill="#FFAD5C"/>
<path d="M187.824 107.331C187.648 107.743 187.555 108.091 187.53 108.214C188.045 107.993 189.164 107.508 189.518 107.331C189.96 107.111 190.033 106.669 189.886 106.375C189.739 106.081 189.076 106.155 188.561 105.64C188.045 105.125 187.53 105.198 187.383 105.345C187.235 105.493 188.045 106.817 187.824 107.331Z" fill="#FFE6BF"/>
<path d="M188.119 109.759C188.178 110.288 187.751 111.058 187.53 111.377C188.708 110.641 189.886 111.377 190.475 111.083C191.064 110.788 191.138 110.053 191.138 109.464C191.138 108.876 190.107 108.214 189.371 108.435C188.634 108.655 188.045 109.097 188.119 109.759Z" fill="#FFE6BF"/>
<path d="M194.303 115.569C194.303 116.04 195.04 116.844 195.408 117.188C196.218 117.408 197.322 115.569 197.027 114.981C196.733 114.393 196.659 114.246 196.365 113.584C196.07 112.922 195.408 112.774 195.113 113.363C194.819 113.951 194.303 114.981 194.303 115.569Z" fill="#FFE6BF"/>
<path d="M190.328 117.629C190.18 118.291 190.696 119.1 190.917 119.247C191.138 119.394 192.095 119.247 192.389 119.247C192.757 119.247 193.567 118.217 193.714 117.923C193.862 117.629 193.42 116.673 192.905 116.231C192.389 115.79 191.653 116.158 191.138 116.673C190.622 117.188 190.475 116.967 190.328 117.629Z" fill="#FFE6BF"/>
<path d="M193.862 121.748C193.744 122.16 194.009 122.9 194.156 123.219C196.438 122.557 197.985 119.541 197.837 119.247C197.69 118.953 197.027 119.027 196.218 119.247C195.408 119.468 195.113 119.983 194.966 120.498C194.819 121.012 194.009 121.233 193.862 121.748Z" fill="#FFE6BF"/>
<path d="M193.494 128.662C193.317 129.251 192.684 129.643 192.389 129.765C194.23 130.133 196.218 126.382 195.997 125.941C195.776 125.499 195.187 126.161 194.966 126.676C194.745 127.191 193.714 127.927 193.494 128.662Z" fill="#FFE6BF"/>
<path d="M191.358 135.208C190.711 135.267 190.868 135.723 191.064 136.018C191.506 136.312 192.978 135.944 193.346 135.135C193.714 134.326 193.494 133.59 193.199 133.149C192.905 132.708 192.095 133.443 192.389 133.884C192.684 134.326 192.168 135.135 191.358 135.208Z" fill="#FFE6BF"/>
<path d="M188.266 139.033C187.824 139.548 186.941 139.254 185.91 138.886C185.542 140.578 187.456 141.975 187.604 141.387C187.751 140.799 189.591 139.769 189.812 139.475C190.033 139.18 190.549 137.783 190.254 137.268C189.96 136.753 188.932 138.257 188.266 139.033Z" fill="#FFE6BF"/>
<path d="M183.849 143.299C183.333 143.52 183.333 144.256 183.481 144.329C183.922 144.844 184.217 144.77 185.321 144.918C186.426 145.065 186.057 146.021 186.646 144.918C187.235 143.814 186.794 142.343 186.278 141.534C185.763 140.725 185.1 142.123 184.732 142.196C184.364 142.27 184.364 143.079 183.849 143.299Z" fill="#FFE6BF"/>
<path d="M179.873 149.846C179.284 149.198 179.628 148.399 179.873 148.08C181.935 145.359 182.818 147.492 183.039 148.669C183.216 149.61 182.965 152.003 182.818 153.082C182.744 151.979 180.609 150.655 179.873 149.846Z" fill="#FFE6BF"/>
<path d="M187.751 113.951C187.692 114.775 188.512 115.275 188.929 115.422C189.739 115.422 190.107 113.804 190.033 113.216C189.96 112.627 189.518 112.627 188.929 112.48C188.34 112.333 187.824 112.922 187.751 113.951Z" fill="#FFE6BF"/>
<path d="M186.646 118.217C186.705 118.57 187.407 119.051 187.751 119.247C188.119 119.482 188.561 119.247 188.782 118.217C189.002 117.188 188.782 116.893 188.413 116.673C188.045 116.452 187.53 117.335 187.088 117.482C186.646 117.629 186.573 117.776 186.646 118.217Z" fill="#FFE6BF"/>
<path d="M187.898 123.293C187.545 123.94 188.438 125.475 188.929 126.161C188.929 126.284 189.091 126.558 189.739 126.676C190.549 126.823 193.346 124.837 193.42 124.396C193.494 123.955 192.168 122.263 192.095 121.969C192.021 121.674 192.021 121.233 190.99 121.16C189.96 121.086 190.107 121.748 189.371 122.263C188.634 122.778 188.34 122.484 187.898 123.293Z" fill="#FFC55C"/>
<path d="M190.843 128.147C190.725 128.5 190.77 129.618 192.021 129.545C193.273 129.471 193.42 127.927 193.862 127.412C194.304 126.897 195.334 126.235 194.377 125.499C193.882 125.119 192.978 126.529 192.316 127.044C191.653 127.559 190.99 127.706 190.843 128.147Z" fill="#FFC55C"/>
<path d="M189.444 133.517C189.091 133.87 189.248 134.743 189.371 135.135C190.033 136.017 190.843 134.988 191.506 134.767C192.168 134.546 192.316 134.179 192.021 133.811C191.773 133.502 191.653 132.708 191.653 132.34C191.653 131.972 191.211 132.634 190.549 133.002C189.886 133.37 189.886 133.075 189.444 133.517Z" fill="#FFC55C"/>
<path d="M185.91 137.415C185.498 137.592 185.493 138.077 185.542 138.298C185.837 138.813 185.91 138.665 187.088 138.96C188.266 139.254 188.561 138.298 188.855 137.93C189.15 137.562 188.855 137.121 188.561 136.679C188.266 136.238 187.751 136.532 187.53 136.9C187.309 137.268 186.426 137.194 185.91 137.415Z" fill="#FFC55C"/>
<path d="M183.923 123.807C183.746 124.455 184.438 125.303 184.806 125.646C184.904 125.72 185.263 125.926 185.91 126.161C186.72 126.455 187.088 126.161 187.457 125.646C187.825 125.131 186.647 123.807 186.279 123.44C185.91 123.072 185.321 122.925 185.101 122.998C184.88 123.072 184.143 122.998 183.923 123.807Z" fill="#FFC55C"/>
<path d="M180.462 131.163C180.344 131.751 181.198 132.193 181.64 132.34C181.886 132.413 182.553 132.605 183.26 132.781C184.143 133.002 184.806 132.119 185.101 131.678C185.395 131.236 183.923 130.354 183.407 130.06C182.892 129.765 182.597 129.839 182.082 129.324C181.567 128.809 181.125 129.25 181.125 129.839C181.125 130.427 180.609 130.427 180.462 131.163Z" fill="#FFC55C"/>
<path d="M226.097 77.4809C226.23 81.9793 225.902 86.3844 225.594 89.9726C224.563 101.962 220.735 115.202 224.048 128.221C226.085 136.228 223.138 142.01 223.53 148.355C222.405 149.262 221.169 150.195 219.935 151.023C218.665 151.875 217.394 152.618 216.247 153.107C215.104 153.594 214.071 153.836 213.282 153.669C212.819 153.571 212.154 153.622 211.349 153.786C210.546 153.95 209.612 154.223 208.615 154.563C206.622 155.242 204.386 156.184 202.458 157.029C200.533 157.874 198.912 158.625 198.157 158.92C197.97 158.993 197.828 159.041 197.747 159.054C197.726 159.057 197.703 159.059 197.682 159.056C197.663 159.053 197.619 159.04 197.605 158.992C197.594 158.953 197.613 158.92 197.621 158.907C197.632 158.89 197.647 158.872 197.664 158.855C197.732 158.787 197.871 158.681 198.084 158.534C198.298 158.385 198.593 158.192 198.975 157.948C202.018 156.007 205.232 152.49 208.1 148.194C210.968 143.898 213.487 138.829 215.143 133.788C215.912 131.445 215.985 128.975 216.244 126.044C216.502 123.117 216.944 119.745 218.457 115.618L218.457 115.617C218.968 114.245 219.74 112.087 220.394 110.074C220.721 109.068 221.018 108.098 221.238 107.282C221.458 106.463 221.6 105.804 221.618 105.416C221.666 104.418 222.108 100.975 222.649 97.4915C222.919 95.7487 223.214 93.9938 223.496 92.5273C223.779 91.063 224.05 89.88 224.273 89.2848C224.712 88.1168 224.84 87.2234 224.913 86.1245C224.986 85.0252 225.005 83.7143 225.226 81.7263C225.308 80.9864 225.656 79.2562 226.097 77.4809Z" fill="#FFBC42"/>
<path d="M203.836 93.8747C204.214 93.8792 204.57 94.0108 204.874 94.1999C206.03 94.9792 205.849 96.4669 205.516 97.5075C205.143 98.5869 204.487 99.6435 203.422 100.166C203.151 100.29 202.851 100.363 202.551 100.353C202.259 100.362 201.952 100.328 201.671 100.205C201.025 99.941 200.752 99.1955 200.725 98.57C200.687 97.9249 200.795 97.2923 200.97 96.6833C201.447 95.4424 202.226 93.9834 203.836 93.8747ZM203.829 94.3161C202.646 94.3474 201.779 95.6743 201.334 96.7966C201.01 97.8734 200.697 99.4056 201.765 100.008C201.998 100.127 202.275 100.178 202.551 100.187C202.822 100.178 203.087 100.098 203.326 99.9704C205.051 98.9074 206.197 95.8863 204.645 94.572C204.388 94.4153 204.111 94.3195 203.829 94.3161Z" fill="#FFE691"/>
<path d="M202.035 96.7396C201.814 96.7396 201.682 96.416 201.741 96.0041C201.814 95.4892 202.182 95.4156 202.256 96.004C202.292 96.2954 202.256 96.7396 202.035 96.7396Z" fill="#FFF5D7"/>
</svg>
