<svg width="25" height="25" viewBox="0 0 25 25" fill="none" xmlns="http://www.w3.org/2000/svg">
<path d="M23.5 8.74744C22.0593 7.24443 20.3436 6.04939 18.4519 5.23114C16.5671 4.41852 14.5438 4 12.5 4C10.4562 4 8.43294 4.41852 6.54815 5.23114C4.65637 6.04939 2.94071 7.24443 1.5 8.74744M5.16943 12.5718C6.12641 11.5705 7.2675 10.775 8.52629 10.2315C9.78508 9.68807 11.1364 9.40748 12.5017 9.4061C13.8669 9.40748 15.2182 9.68807 16.477 10.2315C17.7358 10.775 18.8769 11.5705 19.8339 12.5718M16.1678 16.3944C15.6904 15.8921 15.1201 15.4929 14.4905 15.2203C13.8609 14.9478 13.1847 14.8074 12.5017 14.8074C11.8186 14.8074 11.1424 14.9478 10.5128 15.2203C9.88321 15.4929 9.31296 15.8921 8.83554 16.3944M12.4851 20.149H12.5017V20.166H12.4851V20.149ZM13.3127 20.149C13.3127 20.3747 13.2255 20.5912 13.0703 20.7508C12.9151 20.9103 12.7046 21 12.4851 21C12.2656 21 12.0551 20.9103 11.8999 20.7508C11.7447 20.5912 11.6575 20.3747 11.6575 20.149C11.6575 19.9233 11.7447 19.7069 11.8999 19.5473C12.0551 19.3877 12.2656 19.298 12.4851 19.298C12.7046 19.298 12.9151 19.3877 13.0703 19.5473C13.2255 19.7069 13.3127 19.9233 13.3127 20.149Z" stroke="#FF9600" stroke-width="2" stroke-linecap="round" stroke-linejoin="round"/>
</svg>
