<svg width="20" height="20" viewBox="0 0 20 20" fill="none" xmlns="http://www.w3.org/2000/svg">
<path d="M7.66766 16.7509C7.66766 16.1083 7.66766 15.7879 7.63126 15.5746C7.51739 14.8879 7.49779 14.8438 7.04326 14.3039C6.90139 14.1356 6.37872 13.6847 5.33339 12.7811C4.27675 11.8698 3.53195 10.6706 3.19754 9.34217C2.86314 8.01377 2.95489 6.61877 3.46066 5.34175C3.96642 4.06473 4.86236 2.96588 6.02994 2.1906C7.19751 1.41531 8.58168 1.00014 9.9993 1C11.4169 0.999863 12.8012 1.41477 13.9689 2.18983C15.1366 2.96489 16.0328 4.06357 16.5388 5.34049C17.0449 6.61741 17.1369 8.01239 16.8028 9.34086C16.4687 10.6693 15.7241 11.8687 14.6677 12.7802C13.6214 13.6838 13.0987 14.1356 12.9578 14.303C12.5033 14.8429 12.4837 14.887 12.3689 15.5737C12.3334 15.787 12.3334 16.1083 12.3334 16.75H7.66672C7.66672 17.5915 7.66672 18.0118 7.85432 18.325C7.97719 18.5302 8.15391 18.7006 8.36672 18.8191C8.69152 19 9.12739 19 10.0001 19C10.8727 19 11.3086 19 11.6343 18.82C11.8471 18.7015 12.0239 18.5311 12.1467 18.3259C12.3343 18.0127 12.3343 17.5924 12.3343 16.7509" stroke="#FF9600"/>
<path d="M10 15V12.3333M10 12.3333C10.4054 12.3333 10.8036 12.21 11.1547 11.976C11.5058 11.742 11.7973 11.4054 12 11M10 12.3333C9.59462 12.3333 9.19639 12.21 8.84532 11.976C8.49425 11.742 8.20271 11.4054 8 11" stroke="#FF9600" stroke-linecap="round"/>
</svg>
