<svg width="20" height="20" viewBox="0 0 20 20" fill="none" xmlns="http://www.w3.org/2000/svg">
<g clip-path="url(#clip0_405_4312)">
<path d="M10.7919 5.51543L15.0884 6.65931M9.8721 8.93177L12.0195 9.50416M9.9792 15.3694L10.8378 15.5989C13.2677 16.2468 14.4827 16.5699 15.4403 16.02C16.397 15.4711 16.7228 14.2624 17.3735 11.8468L18.2942 8.42958C18.9457 6.01312 19.2706 4.80534 18.718 3.85316C18.1655 2.90097 16.9514 2.57788 14.5205 1.93079L13.6619 1.70129C11.232 1.05331 10.017 0.730211 9.06032 1.2801C8.10273 1.82909 7.77694 3.03777 7.12535 5.45333L6.20557 8.87057C5.55398 11.287 5.22818 12.4948 5.78167 13.447C6.33426 14.3983 7.54924 14.7223 9.9792 15.3694Z" stroke="#FF9600" stroke-linecap="round" stroke-linejoin="round"/>
<path d="M9.99987 18.0513L9.14308 18.2853C6.71852 18.945 5.50715 19.2753 4.55136 18.7146C3.59738 18.1548 3.27158 16.9236 2.6227 14.4595L1.70381 10.9747C1.05402 8.51149 0.729129 7.27941 1.28082 6.30923C1.75781 5.46954 2.79999 5.50014 4.14997 5.50014" stroke="#FF9600" stroke-linecap="round" stroke-linejoin="round"/>
</g>
<defs>
<clipPath id="clip0_405_4312">
<rect width="20" height="20" fill="white"/>
</clipPath>
</defs>
</svg>
