<svg width="20" height="20" viewBox="0 0 20 20" fill="none" xmlns="http://www.w3.org/2000/svg">
<path d="M0.5 17C0.357333 17 0.238333 16.952 0.143 16.856C0.0476666 16.76 0 16.6413 0 16.5V4.50001C0 4.35801 0.0480001 4.23934 0.144 4.14401C0.24 4.04867 0.359 4.00067 0.501 4.00001C0.643 3.99934 0.761667 4.04734 0.857 4.14401C0.952333 4.24067 1 4.35934 1 4.50001V13H9.5V7C9.5 6.732 9.59967 6.49834 9.799 6.299C9.99833 6.09967 10.232 6 10.5 6H17C17.8253 6 18.5317 6.29367 19.119 6.881C19.7063 7.46834 20 8.17467 20 9V16.5C20 16.642 19.952 16.7607 19.856 16.856C19.76 16.9513 19.641 16.9993 19.499 17C19.357 17.0007 19.2383 16.9527 19.143 16.856C19.0477 16.7593 19 16.6407 19 16.5V14H1V16.5C1 16.642 0.952 16.7607 0.856 16.856C0.76 16.9513 0.642 16.9993 0.5 17ZM4.998 11.116C4.40933 11.116 3.91 10.91 3.5 10.498C3.09 10.086 2.885 9.586 2.885 8.998C2.885 8.41 3.09067 7.91067 3.502 7.5C3.91333 7.08934 4.41333 6.88434 5.002 6.885C5.59067 6.88567 6.09 7.09134 6.5 7.502C6.91 7.91267 7.11533 8.41267 7.116 9.002C7.11667 9.59133 6.91067 10.0907 6.498 10.5C6.08533 10.9093 5.58533 11.1147 4.998 11.116ZM10.5 13H19V9C19 8.45 18.8043 7.97934 18.413 7.588C18.0217 7.19667 17.5507 7.00067 17 7H10.5V13ZM5 10.116C5.30933 10.116 5.57267 10.0073 5.79 9.79C6.00733 9.57267 6.116 9.30933 6.116 9C6.116 8.69067 6.00733 8.42734 5.79 8.21C5.57267 7.99267 5.30933 7.88467 5 7.886C4.69067 7.88734 4.42733 7.996 4.21 8.212C3.99267 8.428 3.88433 8.691 3.885 9.001C3.88567 9.311 3.99433 9.57433 4.211 9.791C4.42767 10.0077 4.69067 10.1153 5 10.116Z" fill="#FF9600"/>
</svg>
