<svg width="20" height="20" viewBox="0 0 20 20" fill="none" xmlns="http://www.w3.org/2000/svg">
<g clip-path="url(#clip0_405_4313)">
<path d="M2.49996 7.91663H4.99996M11.6666 14.5833C12.6612 14.5833 13.615 14.1882 14.3183 13.4849C15.0215 12.7817 15.4166 11.8279 15.4166 10.8333C15.4166 9.83873 15.0215 8.8849 14.3183 8.18164C13.615 7.47838 12.6612 7.08329 11.6666 7.08329C10.6721 7.08329 9.71824 7.47838 9.01498 8.18164C8.31171 8.8849 7.91663 9.83873 7.91663 10.8333C7.91663 11.8279 8.31171 12.7817 9.01498 13.4849C9.71824 14.1882 10.6721 14.5833 11.6666 14.5833ZM19.5833 5.41663H17.0833C16.4203 5.41663 15.7844 5.15323 15.3155 4.68439C14.8467 4.21555 14.5833 3.57967 14.5833 2.91663H8.74996C8.74996 3.57967 8.48657 4.21555 8.01773 4.68439C7.54889 5.15323 6.913 5.41663 6.24996 5.41663H0.416626V17.0833H17.0833C17.7463 17.0833 18.3822 16.8199 18.8511 16.3511C19.3199 15.8822 19.5833 15.2463 19.5833 14.5833V5.41663Z" stroke="#FF9600" stroke-linecap="round" stroke-linejoin="round"/>
</g>
<defs>
<clipPath id="clip0_405_4313">
<rect width="20" height="20" fill="white"/>
</clipPath>
</defs>
</svg>
