<svg width="20" height="20" viewBox="0 0 20 20" fill="none" xmlns="http://www.w3.org/2000/svg">
<path d="M4.42224 19.0001C4.42224 19.0001 4.94248 14.3179 8.58414 10.156" stroke="#FF9600" stroke-linecap="round" stroke-linejoin="round"/>
<path d="M17.0433 1.56371L17.6613 7.98865C18.0504 12.0319 15.0185 15.632 10.9763 16.0211C7.00892 16.403 3.41512 13.5032 3.03326 9.53584C2.84977 7.63067 3.43061 5.73065 4.648 4.25373C5.8654 2.77682 7.61963 1.844 9.52479 1.66048L16.3618 1.0029C16.4434 0.995004 16.5258 1.00328 16.6043 1.02725C16.6827 1.05122 16.7557 1.09041 16.8189 1.14259C16.8822 1.19477 16.9346 1.25891 16.9731 1.33135C17.0116 1.40379 17.0354 1.48206 17.0433 1.56371Z" stroke="#FF9600" stroke-linecap="round" stroke-linejoin="round"/>
</svg>
