<svg width="20" height="20" viewBox="0 0 20 20" fill="none" xmlns="http://www.w3.org/2000/svg">
<path d="M16.6728 10.929C17.8049 10.929 18.7226 9.8736 18.7226 8.57173C18.7226 7.26986 17.8049 6.21448 16.6728 6.21448C15.5408 6.21448 14.623 7.26986 14.623 8.57173C14.623 9.8736 15.5408 10.929 16.6728 10.929Z" stroke="#FF9600"/>
<path d="M16.6728 9.16105C16.9559 9.16105 17.1853 8.8972 17.1853 8.57173C17.1853 8.24627 16.9559 7.98242 16.6728 7.98242C16.3898 7.98242 16.1604 8.24627 16.1604 8.57173C16.1604 8.8972 16.3898 9.16105 16.6728 9.16105Z" fill="#FF9600"/>
<path d="M6.42393 13.8756C7.27298 13.8756 7.96127 13.0841 7.96127 12.1077C7.96127 11.1313 7.27298 10.3397 6.42393 10.3397C5.57489 10.3397 4.8866 11.1313 4.8866 12.1077C4.8866 13.0841 5.57489 13.8756 6.42393 13.8756Z" fill="#FF9600"/>
<path d="M9.4987 1.5H10.5236C11.0893 1.5 11.5505 2.02685 11.5147 2.67627C11.3087 6.40073 10.1075 12.1076 6.42402 12.1076C2.74158 12.1076 1.53938 6.40073 1.33338 2.67627C1.29751 2.02685 1.75871 1.5 2.32445 1.5H3.34934" stroke="#FF9600" stroke-linecap="round"/>
<path d="M16.6729 10.929V13.2862C16.6729 14.8492 16.133 16.3481 15.172 17.4533C14.2109 18.5585 12.9075 19.1793 11.5484 19.1793C10.1893 19.1793 8.88589 18.5585 7.92487 17.4533C6.96385 16.3481 6.42395 14.8492 6.42395 13.2862V12.1076" stroke="#FF9600" stroke-linecap="round"/>
</svg>
