<svg width="51" height="51" viewBox="0 0 51 51" fill="none" xmlns="http://www.w3.org/2000/svg">
<mask id="mask0_461_5012" style="mask-type:alpha" maskUnits="userSpaceOnUse" x="0" y="0" width="51" height="51">
<path d="M0.5 22.7222C0.5 12.2472 0.5 7.00833 3.75556 3.75556C7.01111 0.502778 12.2472 0.5 22.7222 0.5H28.2778C38.7528 0.5 43.9917 0.5 47.2444 3.75556C50.4972 7.01111 50.5 12.2472 50.5 22.7222V28.2778C50.5 38.7528 50.5 43.9917 47.2444 47.2444C43.9889 50.4972 38.7528 50.5 28.2778 50.5H22.7222C12.2472 50.5 7.00833 50.5 3.75556 47.2444C0.502778 43.9889 0.5 38.7528 0.5 28.2778V22.7222Z" fill="#273B4A"/>
</mask>
<g mask="url(#mask0_461_5012)">
<path d="M7.19499 27.139L6.76999 27.564C4.04777 30.2862 2.68666 31.6473 1.86999 33.3223C1.58666 33.9038 1.35518 34.5057 1.17555 35.1279C0.66166 36.9168 0.764437 38.8418 0.967215 42.689L1.88944 60.2223H50.5005V47.0473C50.5005 43.0168 50.5005 41.0001 49.8367 39.1695C49.6561 38.6686 49.4398 38.1812 49.1894 37.7112C48.2728 35.9918 46.7728 34.6445 43.7728 31.9473L43.1783 31.4112C40.6894 29.1695 39.445 28.0501 38.0228 27.7334C37.1299 27.5337 36.2015 27.5575 35.32 27.8029C33.9172 28.1945 32.7311 29.3807 30.3644 31.7473C28.6061 33.5057 27.7283 34.3834 26.7867 34.5029C26.2014 34.5763 25.6079 34.4615 25.0922 34.1751C24.2589 33.714 23.7617 32.5557 22.77 30.2362C20.6561 25.3057 19.6005 22.8418 17.7839 21.9307C16.869 21.472 15.8453 21.2749 14.8255 21.3612C12.8005 21.5334 10.9339 23.4029 7.19499 27.139Z" fill="#FFFEFA" fill-opacity="0.5" stroke="#FFFEFA"/>
</g>
<path d="M0.5 22.7222C0.5 12.2472 0.5 7.00833 3.75556 3.75556C7.01111 0.502778 12.2472 0.5 22.7222 0.5H28.2778C38.7528 0.5 43.9917 0.5 47.2444 3.75556C50.4972 7.01111 50.5 12.2472 50.5 22.7222V28.2778C50.5 38.7528 50.5 43.9917 47.2444 47.2444C43.9889 50.4972 38.7528 50.5 28.2778 50.5H22.7222C12.2472 50.5 7.00833 50.5 3.75556 47.2444C0.502778 43.9889 0.5 38.7528 0.5 28.2778V22.7222Z" stroke="#FFFEFA"/>
<path d="M38 17.1667C40.3012 17.1667 42.1667 15.3012 42.1667 13C42.1667 10.6989 40.3012 8.83337 38 8.83337C35.6989 8.83337 33.8334 10.6989 33.8334 13C33.8334 15.3012 35.6989 17.1667 38 17.1667Z" fill="#FFFEFA"/>
</svg>
