<svg width="20" height="20" viewBox="0 0 20 20" fill="none" xmlns="http://www.w3.org/2000/svg">
<path d="M3.91436 9.49905L6.1963 11.6552M6.95629 6.62511L9.23923 8.78033M10.0002 3.75117L12.2832 5.90639M2.54339 10.7929L11.3692 2.45728C12.2222 1.65261 12.6492 1.25028 13.1391 1.09917C13.5721 0.966944 14.0371 0.966944 14.4691 1.09917C14.9601 1.25028 15.3861 1.65261 16.2371 2.45633L17.457 3.60761C18.309 4.41228 18.735 4.8165 18.895 5.27928C19.035 5.68822 19.035 6.12644 18.895 6.53539C18.735 6.99817 18.309 7.40144 17.457 8.20706L8.63125 16.5427C7.77827 17.3474 7.35128 17.7497 6.86129 17.9008C6.4283 18.0331 5.96431 18.0331 5.53132 17.9008C5.04133 17.7497 4.61334 17.3474 3.76136 16.5418L2.54139 15.3914C1.69141 14.5868 1.26542 14.1854 1.10543 13.7207C0.964858 13.3125 0.964858 12.8728 1.10543 12.4646C1.26542 12.0018 1.69141 11.5986 2.54339 10.7929Z" stroke="#FF9600" stroke-linecap="round" stroke-linejoin="round"/>
</svg>
