<svg width="20" height="20" viewBox="0 0 20 20" fill="none" xmlns="http://www.w3.org/2000/svg">
<path d="M16.3636 12.7273V9.94365C16.3631 8.99448 15.9859 8.08431 15.3149 7.41306C14.6438 6.74181 13.7337 6.36437 12.7845 6.36365H7.21453C6.26552 6.36461 5.35568 6.74216 4.6848 7.41338C4.01392 8.0846 3.63683 8.99463 3.63635 9.94365V12.7273C3.63635 13.563 3.80095 14.3905 4.12076 15.1625C4.44056 15.9346 4.9093 16.6361 5.50022 17.2271C6.09114 17.818 6.79266 18.2867 7.56473 18.6065C8.3368 18.9263 9.1643 19.0909 9.99999 19.0909C10.8357 19.0909 11.6632 18.9263 12.4352 18.6065C13.2073 18.2867 13.9088 17.818 14.4998 17.2271C15.0907 16.6361 15.5594 15.9346 15.8792 15.1625C16.199 14.3905 16.3636 13.563 16.3636 12.7273Z" stroke="#FF9600"/>
<path d="M14.0909 6.81824V5.90915C14.0909 4.82417 13.6599 3.78363 12.8927 3.01644C12.1255 2.24924 11.0849 1.81824 9.99997 1.81824C8.91499 1.81824 7.87445 2.24924 7.10726 3.01644C6.34006 3.78363 5.90906 4.82417 5.90906 5.90915V6.81824" stroke="#FF9600"/>
<path d="M16.3636 11.8181H19.0909M3.63633 11.8181H0.909058M12.2727 2.27269L14.5454 0.909058M7.72724 2.27269L5.45451 0.909058M17.7272 17.2727L15.9091 16.5454M17.7272 6.3636L15.9091 7.09088M2.27269 17.2727L4.09088 16.5454M2.27269 6.3636L4.09088 7.09088M9.99997 18.6363V12.7272" stroke="#FF9600" stroke-linecap="round"/>
</svg>
