<svg width="20" height="20" viewBox="0 0 20 20" fill="none" xmlns="http://www.w3.org/2000/svg">
<path d="M14.8462 1H5.15385C2.85974 1 1 2.85974 1 5.15385V14.8462C1 17.1403 2.85974 19 5.15385 19H14.8462C17.1403 19 19 17.1403 19 14.8462V5.15385C19 2.85974 17.1403 1 14.8462 1Z" stroke="#FF9600" stroke-linejoin="round"/>
<path d="M15.5292 5.4338C14.5119 4.37884 12.671 3 10 3C7.32898 3 5.48813 4.37884 4.47079 5.4338C4.19442 5.72042 4.02666 6.11806 4.00291 6.54282C3.97917 6.96757 4.1013 7.38622 4.34352 7.71041L5.72936 9.56701C5.89783 9.7917 6.13149 9.94015 6.38791 9.98542C6.64434 10.0307 6.90652 9.96976 7.12684 9.81371C7.78898 9.34825 8.82836 8.78905 10.0008 8.78905C11.1733 8.78905 12.2127 9.34825 12.8748 9.81371C13.0951 9.96976 13.3573 10.0307 13.6138 9.98542C13.8702 9.94015 14.1038 9.7917 14.2723 9.56701L15.6565 7.71041C15.8987 7.38622 16.0208 6.96757 15.9971 6.54282C15.9733 6.11806 15.8056 5.72042 15.5292 5.4338Z" stroke="#FF9600" stroke-linejoin="round"/>
</svg>
