<svg width="20" height="20" viewBox="0 0 20 20" fill="none" xmlns="http://www.w3.org/2000/svg">
<g clip-path="url(#clip0_405_4321)">
<path d="M8.05627 5.34738C8.87429 3.01246 10.2837 0.527898 11.9299 1.07712C12.8729 1.39096 12.9789 2.38043 12.8322 3.26819C12.8089 3.40912 13.2332 3.64596 13.3378 3.55006C14.3404 2.62452 15.7585 1.90821 16.9266 3.07639C18.0948 4.24458 17.3785 5.66267 16.453 6.66521C16.3571 6.76983 16.5939 7.19409 16.7348 7.17085C17.6226 7.02555 18.6121 7.13016 18.9259 8.07168C19.4737 9.71353 16.8816 11.1113 14.5815 11.9337" stroke="#FF9600" stroke-linecap="round" stroke-linejoin="round"/>
<path d="M4.57784 7.12142L7.65958 10.2032M6.11944 14.8265L9.05152 17.7586M4.76091 6.9369C1.35225 10.347 0.817562 14.7015 1.04568 17.1817C1.08084 17.6186 1.27032 18.0286 1.58019 18.3385C1.89007 18.6483 2.30011 18.8378 2.73693 18.873C5.21715 19.1011 9.57169 18.565 12.9803 15.1563C15.9153 12.2213 14.2284 9.21369 12.4674 7.45124C10.705 5.69025 7.69736 4.00191 4.76091 6.9369Z" stroke="#FF9600" stroke-linecap="round" stroke-linejoin="round"/>
</g>
<defs>
<clipPath id="clip0_405_4321">
<rect width="20" height="20" fill="white"/>
</clipPath>
</defs>
</svg>
