<svg width="20" height="20" viewBox="0 0 20 20" fill="none" xmlns="http://www.w3.org/2000/svg">
<path d="M9.49998 12.8571C9.07499 12.8571 8.71899 12.72 8.432 12.4457C8.145 12.1714 8.00101 11.8324 8.00001 11.4286V1.42857C8.00001 1.02381 8.144 0.684766 8.432 0.411433C8.71999 0.1381 9.07599 0.000957306 9.49998 4.9261e-06C9.92397 -0.000947454 10.2805 0.136195 10.5695 0.411433C10.8585 0.686671 11.002 1.02572 11 1.42857V11.4286C11 11.8333 10.856 12.1728 10.568 12.4471C10.28 12.7214 9.92397 12.8581 9.49998 12.8571ZM9.49998 20C9.07499 20 8.71899 19.8628 8.432 19.5886C8.145 19.3143 8.00101 18.9752 8.00001 18.5714C7.99901 18.1676 8.143 17.8286 8.432 17.5543C8.72099 17.28 9.07699 17.1428 9.49998 17.1428C9.92297 17.1428 10.2795 17.28 10.5695 17.5543C10.8595 17.8286 11.003 18.1676 11 18.5714C10.997 18.9752 10.853 19.3147 10.568 19.59C10.283 19.8652 9.92697 20.0019 9.49998 20Z" fill="#FFFEFA"/>
</svg>
