<svg width="20" height="20" viewBox="0 0 20 20" fill="none" xmlns="http://www.w3.org/2000/svg">
<g clip-path="url(#clip0_405_4320)">
<path d="M9.89398 18.5381L9.75484 18.5097L9.61571 18.5381C7.36595 18.9877 5.24302 19.4325 3.69081 18.1926C2.14901 16.9575 1 14.6036 1 10.4647C1 6.23117 1.95404 4.51143 3.21001 3.88297C3.8678 3.55455 4.71773 3.45896 5.7986 3.58294C6.87852 3.70788 8.12502 4.04482 9.53053 4.51332L9.77661 4.59472L10.018 4.49818C12.3671 3.55928 14.4787 3.19868 15.9618 3.89149C17.3531 4.53982 18.5097 6.29363 18.5097 10.4647C18.5097 14.6046 17.3616 16.9575 15.8189 18.1917C14.2667 19.4335 12.1437 18.9887 9.89398 18.5381Z" stroke="#FF9600"/>
<path d="M9.75494 4.31264C9.75494 1.94647 8.80847 1 6.91553 1" stroke="#FF9600" stroke-linecap="round" stroke-linejoin="round"/>
</g>
<defs>
<clipPath id="clip0_405_4320">
<rect width="20" height="20" fill="white"/>
</clipPath>
</defs>
</svg>
