<svg width="1650" height="650" viewBox="0 0 1650 650" fill="none" xmlns="http://www.w3.org/2000/svg">
<path d="M1500 0H150C67.1573 0 0 67.1573 0 150V500C0 582.843 67.1573 650 150 650H1500C1582.84 650 1650 582.843 1650 500V150C1650 67.1573 1582.84 0 1500 0Z" fill="#FFFEFA"/>
<path fill-rule="evenodd" clip-rule="evenodd" d="M1316.5 350.489C1316.97 350.539 1317.4 350.779 1317.72 351.139C1318.04 351.499 1318.23 351.969 1318.31 352.439C1318.44 353.229 1318.56 354.019 1318.68 354.809C1318.96 356.799 1319.17 358.779 1319.31 360.749C1319.63 360.529 1319.96 360.309 1320.3 360.099C1324.47 357.569 1329.42 357.349 1333.37 357.919C1335.63 358.319 1339.03 358.819 1341.66 362.559C1344.12 366.599 1342.9 370.209 1342.11 372.409C1341.42 374.079 1340.64 375.519 1339.81 376.829C1340.79 376.289 1341.76 375.749 1342.73 375.199C1344.75 374.069 1346.77 372.949 1348.8 371.829C1349.26 371.579 1349.8 371.509 1350.31 371.649C1350.82 371.779 1351.26 372.099 1351.53 372.549C1351.8 372.989 1351.88 373.519 1351.76 374.029C1351.64 374.539 1351.32 374.979 1350.89 375.259C1348.93 376.489 1346.97 377.719 1345.01 378.949C1338.06 383.309 1331.09 387.649 1324.15 392.039C1320.77 394.339 1317.28 396.429 1313.88 398.599C1313.81 398.649 1313.74 398.689 1313.67 398.739C1313.28 398.969 1312.89 399.099 1312.51 399.159C1312.41 399.299 1312.29 399.429 1312.15 399.539C1311.75 399.869 1311.24 400.029 1310.73 399.989C1310.22 399.949 1309.74 399.709 1309.4 399.319C1309.06 398.929 1308.87 398.429 1308.87 397.929C1308.87 397.889 1308.87 397.849 1308.87 397.809C1308.74 397.039 1308.62 396.259 1308.51 395.489C1307.51 388.399 1307.42 381.409 1308.23 374.529C1309.04 367.649 1310.76 360.869 1313.38 354.199C1313.67 353.459 1313.98 352.719 1314.29 351.979C1314.48 351.539 1314.77 351.129 1315.17 350.849C1315.57 350.569 1316.04 350.439 1316.51 350.489H1316.5ZM1331.7 367.799C1325.79 365.669 1321.81 369.529 1318.99 375.549C1318.98 375.619 1318.97 375.699 1318.97 375.769C1318.52 379.589 1317.79 383.369 1316.78 387.119C1320.38 383.409 1323.7 379.439 1326.98 375.839C1329.18 373.389 1331.29 370.679 1332.2 368.559C1332.29 368.349 1332.36 368.159 1332.41 367.989C1332.21 367.919 1331.96 367.859 1331.69 367.799H1331.7Z" fill="#FF9600"/>
<path fill-rule="evenodd" clip-rule="evenodd" d="M792.12 250.019C792.63 249.949 793.15 250.069 793.57 250.359C793.99 250.649 794.27 251.1 794.36 251.6C794.46 252.11 794.36 252.629 794.1 253.069C793.04 254.909 791.97 256.75 790.9 258.58C788.85 262.07 786.76 265.53 784.65 268.97C783.93 270.13 783.21 271.299 782.48 272.459C785.43 272.379 790.09 274.14 791.86 277.64C793.73 281.09 793.63 283.91 793.53 286.41C793.47 287.29 793.41 288.149 793.35 289.019C793.22 290.599 793.1 292.129 792.96 293.649C797.75 289.649 802.6 285.719 807.52 281.859C809.34 280.429 811.18 279.01 813.02 277.6C814.72 276.3 816.42 275.009 818.13 273.729C818.54 273.419 819.05 273.249 819.57 273.279C820.09 273.299 820.58 273.52 820.93 273.89C821.28 274.26 821.47 274.749 821.46 275.259C821.46 275.769 821.25 276.259 820.91 276.649C819.51 278.259 818.1 279.86 816.68 281.45C815.16 283.16 813.62 284.859 812.08 286.549C812.21 287.659 812.33 288.76 812.45 289.87C814.28 306.79 815.19 323.709 815.19 340.629C815.19 357.549 814.28 374.47 812.45 391.39C812.25 393.27 812.03 395.149 811.81 397.029C811.75 397.529 811.53 398.009 811.15 398.359C810.78 398.709 810.29 398.91 809.78 398.91C809.27 398.91 808.78 398.709 808.41 398.359C808.04 398.009 807.81 397.529 807.75 397.029C807.52 395.149 807.31 393.27 807.11 391.39C805.28 374.47 804.37 357.549 804.37 340.629C804.37 323.709 805.2 308.339 806.87 292.189C801.2 298.259 795.41 304.199 789.5 310.019C785.37 313.759 779.56 310.45 780.99 305.1C781.69 300.4 782.13 293.959 782.56 288.249C782.62 287.399 782.68 286.56 782.74 285.7C782.87 284.35 782.66 283.14 782.56 282.85C782.46 282.83 782.32 282.81 782.15 282.81C780.09 282.72 776.34 284.109 773.43 285.769C768.75 288.699 763.63 283.439 766.89 279.019C770.72 274.199 774.63 269.429 778.62 264.709C781.23 261.619 783.88 258.559 786.56 255.509C787.97 253.909 789.39 252.319 790.81 250.729C791.15 250.349 791.62 250.089 792.13 250.009L792.12 250.019ZM782.65 282.87C782.65 282.87 782.74 282.929 782.77 282.919C782.81 282.919 782.77 282.9 782.65 282.87Z" fill="#FF9600"/>
<path d="M921.25 282.36C921.75 282.36 922.24 282.56 922.61 282.91C922.98 283.26 923.2 283.73 923.28 284.23C923.5 285.84 923.72 287.46 923.92 289.07C924.88 296.68 925.58 304.28 926.03 311.89C929.8 300.84 936.42 290.76 950.18 285.28C958.01 283.28 966.55 281.35 976.07 284.16C984.72 286.58 990.31 295.27 991.99 302.28C993.96 309.54 994.26 316.42 994.48 323.18C994.91 341.91 994.16 360.44 992.82 379C992.82 382.07 989.9 383.32 987.37 381.55C983.25 378.18 979.14 374.79 975.04 371.39C971.84 368.74 968.65 366.07 965.47 363.4C965.23 363.2 965.03 362.94 964.9 362.66C962.78 364.53 960.49 366.2 958.04 367.65C952.45 370.93 946.08 373.14 939.17 373.42C938.4 373.44 937.63 373.43 936.82 373.38C936.34 373.33 935.86 373.18 935.47 372.9C935.08 372.62 934.81 372.22 934.71 371.78C934.61 371.34 934.7 370.87 934.94 370.45C935.18 370.03 935.56 369.71 935.97 369.47C936.51 369.13 937.06 368.76 937.62 368.38C942.6 364.93 947.4 361.48 952.49 358.5C957.58 355.49 962.93 352.84 968.83 350.42C969.48 350.15 970.14 349.89 970.82 349.62C971.27 349.44 971.76 349.35 972.24 349.41C972.72 349.48 973.15 349.7 973.45 350.05C973.75 350.4 973.9 350.85 973.88 351.33C973.87 351.81 973.69 352.27 973.43 352.67C973.03 353.29 972.63 353.9 972.22 354.49C970.83 356.47 969.3 358.33 967.64 360.05C967.75 360.1 967.85 360.15 967.95 360.22C971.4 362.54 974.86 364.86 978.3 367.19C980.86 368.93 983.42 370.67 985.97 372.42C985.73 356.12 985.33 339.75 984.39 323.61C983.62 311.01 981.96 296.64 972.72 294.3C967.33 292.57 959.91 293.61 952.93 295.36C939.33 299.34 932.87 318.76 928.95 335.64C935.92 333.97 942.58 331.09 949.26 328.31C956.5 325.23 963.82 321.96 971.56 318.64C972.41 318.28 973.27 317.91 974.15 317.53C974.6 317.34 975.11 317.25 975.6 317.33C976.09 317.42 976.52 317.67 976.81 318.05C977.1 318.43 977.23 318.9 977.18 319.39C977.13 319.88 976.91 320.34 976.6 320.71C975.97 321.46 975.34 322.19 974.7 322.89C968.86 329.31 961.71 334.62 953.54 338.1C945.62 341.41 936.66 343.27 927.69 341.46C927.15 344.2 926.67 346.96 926.23 349.73C925.79 358.54 925.03 367.35 923.92 376.17C923.72 377.78 923.5 379.4 923.28 381.01C923.28 381.01 923.28 381.03 923.28 381.04C923.25 381.53 923.05 382 922.7 382.36C922.33 382.73 921.83 382.95 921.31 382.96C920.79 382.97 920.28 382.78 919.89 382.43C919.5 382.07 919.27 381.58 919.23 381.07C919.23 381.03 919.23 381 919.22 380.96C919 379.37 918.78 377.77 918.58 376.17C916.75 361.65 915.84 347.13 915.84 332.61C915.84 318.09 916.75 303.57 918.58 289.05C918.78 287.44 919 285.82 919.22 284.21C919.29 283.71 919.52 283.24 919.89 282.89C920.26 282.54 920.75 282.34 921.25 282.34V282.36Z" fill="#FF9600"/>
<path d="M1143.12 282.049C1143.62 282.049 1144.11 282.239 1144.48 282.589C1144.85 282.939 1145.08 283.419 1145.15 283.909C1145.37 285.529 1145.59 287.149 1145.79 288.769C1146.72 296.189 1147.41 303.609 1147.87 311.019C1150.07 306.499 1153.03 302.189 1157.17 298.249C1167.9 289.729 1180.51 279.019 1198.85 283.569C1210.31 287.699 1213.55 299.439 1214.4 307.879C1216.54 331.979 1215.11 355.549 1212.54 379.139C1212.4 382.219 1209.41 383.349 1206.96 381.429C1203.48 378.259 1200.01 375.069 1196.55 371.879C1196.13 371.489 1195.71 371.099 1195.29 370.709C1192.37 368.009 1189.46 365.299 1186.55 362.589C1184.12 364.649 1181.45 366.359 1178.73 367.809C1172.98 370.809 1166.7 372.599 1160.1 373.159C1159.36 373.219 1158.61 373.269 1157.89 373.289C1157.41 373.299 1156.91 373.229 1156.49 372.999C1156.06 372.769 1155.74 372.419 1155.58 371.989C1155.42 371.559 1155.44 371.079 1155.62 370.639C1155.8 370.199 1156.13 369.819 1156.51 369.529C1157.05 369.099 1157.62 368.669 1158.19 368.239C1163.24 364.399 1168.37 361.129 1173.64 358.379C1178.9 355.589 1184.38 353.459 1189.61 350.829C1190.19 350.529 1190.77 350.209 1191.32 349.879C1191.72 349.619 1192.19 349.429 1192.68 349.409C1193.16 349.389 1193.63 349.519 1193.99 349.809C1194.35 350.089 1194.59 350.509 1194.67 350.979C1194.75 351.449 1194.67 351.939 1194.5 352.389C1194.2 353.109 1193.85 353.819 1193.46 354.499C1192.32 356.439 1190.99 358.179 1189.53 359.749C1192.61 362.059 1195.68 364.369 1198.74 366.699C1199.2 367.049 1199.66 367.399 1200.11 367.739C1202.04 369.209 1203.98 370.679 1205.9 372.149C1206.32 350.989 1206.2 329.609 1203.9 309.019C1203.06 301.669 1200.17 295.149 1195.2 293.609C1186.34 290.729 1173.28 298.089 1163.71 305.839C1155.81 312.469 1151.86 324.889 1149.29 336.769C1156.07 335.609 1163.2 331.269 1170.15 327.639C1177.58 323.609 1185.16 319.499 1193.26 315.639C1194.15 315.219 1195.06 314.789 1195.98 314.349C1196.43 314.139 1196.93 314.039 1197.43 314.119C1197.93 314.199 1198.37 314.439 1198.66 314.809C1198.96 315.179 1199.1 315.659 1199.06 316.159C1199.02 316.649 1198.8 317.109 1198.5 317.489C1197.84 318.289 1197.18 319.059 1196.53 319.809C1190.52 326.639 1183.54 332.569 1175.36 336.999C1167.56 340.949 1158.61 344.869 1148.39 342.439C1148.07 353.669 1147.21 364.909 1145.8 376.149C1145.6 377.769 1145.38 379.389 1145.16 381.009C1145.16 381.029 1145.16 381.039 1145.15 381.059C1145.12 381.509 1144.94 381.949 1144.63 382.289C1144.28 382.679 1143.79 382.919 1143.27 382.959C1142.75 382.999 1142.23 382.829 1141.83 382.489C1141.43 382.149 1141.17 381.669 1141.11 381.159C1141.08 380.919 1141.06 380.679 1141.03 380.439C1140.84 379.009 1140.65 377.589 1140.47 376.159C1138.64 361.599 1137.73 347.029 1137.73 332.459C1137.73 317.889 1138.64 303.329 1140.47 288.769C1140.67 287.149 1140.89 285.529 1141.11 283.909C1141.18 283.409 1141.41 282.939 1141.78 282.589C1142.15 282.239 1142.64 282.049 1143.14 282.049H1143.12Z" fill="#FF9600"/>
<path d="M1401.59 264.848C1405.67 264.238 1409.75 263.958 1414.09 264.498C1415.99 264.778 1417.98 265.149 1420.1 266.429C1421.14 267.079 1422.28 268.108 1422.93 269.598C1423.59 271.078 1423.57 272.739 1423.28 273.989C1418.32 288.099 1410.75 298.488 1403.28 309.768C1403.61 322.488 1403.82 335.209 1403.91 347.929C1403.96 350.939 1405.48 354.509 1407.83 356.679C1410.7 359.469 1415.19 360.778 1420.2 360.808C1442.47 360.988 1464.78 361.539 1487.06 362.429C1486 358.369 1484.94 354.318 1483.9 350.248C1482.93 346.468 1481.98 342.689 1481.03 338.909C1480.9 338.409 1480.97 337.869 1481.22 337.409C1481.47 336.949 1481.89 336.608 1482.39 336.458C1482.89 336.308 1483.43 336.358 1483.9 336.598C1484.37 336.838 1484.73 337.248 1484.91 337.728C1486.29 341.378 1487.65 345.039 1489.01 348.699C1491.02 354.139 1493.02 359.588 1494.98 365.048C1495.64 367.518 1494.21 369.628 1491.63 369.518C1467.83 370.528 1443.99 371.128 1420.2 371.328C1413.62 371.418 1405.9 369.728 1400.31 364.348C1395.82 359.998 1393.28 354.279 1393.19 347.929C1393.28 334.769 1393.51 321.609 1393.86 308.449C1393.88 307.769 1394.33 306.279 1394.74 305.739C1402.77 294.989 1412.03 283.429 1417.12 272.469C1417.26 272.079 1417.26 271.938 1417.27 271.838C1417.27 271.738 1417.17 271.488 1416.79 271.188C1416.04 270.568 1414.59 270.018 1413.12 269.668C1409.68 268.858 1405.77 268.668 1402.02 268.818C1401.5 268.848 1400.97 268.678 1400.57 268.348C1400.16 268.018 1399.9 267.538 1399.85 267.028C1399.8 266.518 1399.95 265.998 1400.28 265.598C1400.61 265.188 1401.09 264.928 1401.61 264.838L1401.59 264.848Z" fill="#FF9600"/>
<path fill-rule="evenodd" clip-rule="evenodd" d="M668.99 263.859C669.5 263.839 670.01 264.019 670.4 264.369C670.79 264.709 671.03 265.189 671.1 265.699C671.43 268.219 671.73 270.819 672.01 273.369C672.3 276.219 672.58 279.079 672.83 281.929C673.72 281.829 674.64 281.779 675.57 281.799C677.18 281.799 678.77 281.889 680.45 282.219C683.2 282.739 687.37 284.279 689.45 288.399C691.4 292.479 690.49 296.059 689.6 298.649C687.6 303.879 684.52 307.469 681.26 310.829C679.12 312.949 676.85 314.909 674.47 316.689C674.45 324.349 674.15 332.039 673.46 339.779C675.12 338.049 676.85 336.359 678.75 334.719C680.07 333.599 681.4 332.509 683.13 331.459C683.98 330.959 684.93 330.419 686.35 330.029C687.06 329.849 687.95 329.669 689.19 329.859C690.39 330.019 691.79 330.849 692.49 331.819C695.83 336.949 696.36 341.479 697.26 346.199C697.68 348.819 697.98 351.419 698.14 354.069C698.17 354.579 698.02 355.089 697.7 355.499C697.38 355.909 696.92 356.179 696.41 356.249C695.9 356.319 695.38 356.189 694.96 355.889C694.54 355.589 694.25 355.139 694.13 354.639C693.55 352.229 692.84 349.789 692.06 347.419C690.91 343.989 689.51 340.209 687.83 337.689C687.73 337.759 687.63 337.839 687.53 337.919C686.58 338.659 685.56 339.649 684.57 340.709C682.57 342.839 680.65 345.199 678.76 347.609C675.01 352.449 671.39 357.539 667.97 362.619C664.41 367.709 655.92 362.259 659.21 356.989C660.79 353.949 661.76 347.389 662.39 341.969C663.04 335.709 663.56 329.399 664.01 323.039C662.16 323.929 660.26 324.729 658.33 325.429C656.59 326.049 654.8 326.569 653.01 326.989C652.9 327.589 652.81 328.199 652.72 328.799C652.65 329.299 652.41 329.769 652.03 330.119C651.65 330.459 651.15 330.649 650.64 330.639C650.13 330.629 649.65 330.409 649.28 330.049C648.92 329.689 648.7 329.199 648.66 328.699C648.49 326.749 648.41 324.779 648.41 322.819C648.41 321.799 648.44 320.779 648.48 319.759C647.88 315.759 647.19 311.739 646.7 307.699C645.89 301.379 645.38 294.989 645.21 288.479C645.19 287.749 645.17 287.019 645.16 286.309C645.95 286.149 646.75 285.979 647.54 285.819C647.82 286.479 648.09 287.169 648.35 287.869C649.95 292.089 651.21 296.399 652.11 300.779C652.42 299.949 652.76 299.119 653.12 298.289C655.29 292.959 659.9 287.049 666.13 283.959C666.3 280.479 666.48 277.009 666.67 273.529C666.8 270.989 666.92 268.389 667.05 265.859C667.07 265.349 667.27 264.859 667.64 264.479C668 264.109 668.49 263.879 669 263.859H668.99ZM665.48 296.929C659.99 302.579 656.2 312.619 654.05 321.809C654.71 321.439 655.36 321.059 656 320.669C659 318.799 661.87 316.709 664.55 314.449C664.9 308.629 665.19 302.789 665.48 296.939V296.929ZM675.56 292.439C674.91 292.399 674.27 292.419 673.64 292.499C673.91 296.509 674.12 300.519 674.26 304.539C676.66 301.529 678.8 298.209 679.65 295.379C680.11 293.969 679.87 292.959 679.86 293.169C679.86 293.229 679.95 293.269 679.71 293.129C679.48 293.009 679 292.819 678.32 292.689C677.57 292.539 676.63 292.449 675.56 292.439Z" fill="#FF9600"/>
<path d="M737.27 253.289C737.76 253.289 738.23 253.489 738.6 253.839C738.97 254.179 739.19 254.649 739.28 255.129C739.49 256.289 739.69 257.459 739.88 258.619C740.33 261.419 740.71 264.219 741.03 267.009C742.94 265.929 744.84 264.819 746.75 263.619C747.38 263.219 748.02 262.809 748.65 262.389C749.05 262.119 749.51 261.919 750 261.889C750.49 261.859 750.96 261.999 751.33 262.289C751.7 262.579 751.94 262.999 752.02 263.479C752.1 263.959 752.01 264.449 751.83 264.889C751.5 265.649 751.13 266.399 750.74 267.129C748.49 271.309 745.36 274.929 741.79 277.929C741.7 280.949 741.2 283.869 740.45 286.679C740.76 289.699 741 292.709 741.18 295.729C743.89 296.289 746.5 297.079 749.02 298.079C753.89 300.029 758.42 302.809 762.6 306.429C763.06 306.829 763.53 307.249 763.98 307.669C764.33 307.989 764.63 308.379 764.78 308.829C764.94 309.269 764.93 309.739 764.77 310.149C764.6 310.559 764.27 310.899 763.85 311.109C763.42 311.319 762.93 311.389 762.46 311.389C761.83 311.379 761.21 311.359 760.6 311.329C755.04 311.049 749.83 309.939 744.96 307.989C743.81 307.529 742.68 307.019 741.57 306.469C741.6 309.299 741.58 312.129 741.5 314.959C741.13 326.879 739.95 338.749 737.17 350.659C736.83 352.029 736.51 353.319 735.98 354.789C735.79 355.249 735.47 355.659 735.03 355.909C734.59 356.169 734.08 356.249 733.6 356.149C733.12 356.039 732.69 355.749 732.4 355.339C732.11 354.929 731.99 354.419 732.02 353.919C732.02 352.879 731.93 351.499 731.85 350.189C730.95 338.419 730.32 326.499 730.68 314.659C730.76 311.689 730.9 308.709 731.09 305.739C727.85 310.269 724.1 314.399 719.95 318.099C719.04 318.899 718.1 319.699 717.14 320.449C716.75 320.749 716.27 320.949 715.76 320.969C715.25 320.989 714.77 320.819 714.4 320.509C714.03 320.189 713.8 319.739 713.75 319.249C713.7 318.759 713.83 318.249 714.08 317.829C714.65 316.839 715.22 315.829 715.78 314.819C719.53 307.949 723.01 301.069 726.06 294.259C727.04 292.049 727.96 289.849 728.8 287.659C729.1 286.869 729.39 286.069 729.66 285.279C724.82 287.299 719.66 288.549 714.33 288.949C713.51 289.009 712.68 289.039 711.85 289.049C711.36 289.049 710.87 288.939 710.45 288.689C710.03 288.439 709.73 288.059 709.6 287.609C709.47 287.169 709.52 286.689 709.73 286.249C709.94 285.809 710.3 285.459 710.71 285.199C711.36 284.779 712 284.359 712.64 283.939C718.4 280.119 724.03 276.589 729.69 273.359C730.63 272.819 731.57 272.299 732.51 271.769C733.03 267.369 733.7 262.959 734.53 258.559C734.75 257.399 734.98 256.239 735.22 255.089C735.32 254.609 735.56 254.149 735.93 253.809C736.3 253.469 736.78 253.289 737.27 253.289Z" fill="#FF9600"/>
<path d="M1334.84 321.629C1335.31 321.629 1335.79 321.679 1336.21 321.859C1336.63 322.029 1336.97 322.319 1337.17 322.689C1337.36 323.059 1337.41 323.489 1337.32 323.929C1337.22 324.369 1336.99 324.789 1336.73 325.169C1336.46 325.559 1336.18 325.949 1335.89 326.319C1333.33 329.679 1330.34 332.239 1326.93 333.999C1323.52 335.759 1319.68 336.719 1315.43 336.889C1314.96 336.909 1314.48 336.919 1314 336.909C1313.53 336.909 1313.05 336.859 1312.63 336.679C1312.21 336.509 1311.87 336.219 1311.67 335.849C1311.48 335.479 1311.43 335.049 1311.52 334.609C1311.62 334.169 1311.85 333.749 1312.11 333.369C1312.38 332.979 1312.66 332.589 1312.95 332.219C1315.51 328.859 1318.5 326.299 1321.91 324.539C1325.32 322.779 1329.16 321.819 1333.41 321.649C1333.88 321.629 1334.36 321.619 1334.84 321.629Z" fill="#FF9600"/>
<path d="M1335.65 299.329C1336.12 299.339 1336.56 299.499 1336.88 299.789C1337.21 300.079 1337.41 300.489 1337.46 300.959C1337.52 301.419 1337.42 301.899 1337.27 302.339C1337.06 302.899 1336.83 303.439 1336.58 303.979C1334.32 308.829 1330.49 312.749 1326.04 315.319C1321.58 317.889 1316.44 319.239 1311.05 319.059C1310.46 319.039 1309.83 318.999 1309.24 318.929C1308.77 318.859 1308.3 318.719 1307.91 318.459C1307.52 318.199 1307.24 317.829 1307.13 317.409C1307.01 316.989 1307.07 316.539 1307.28 316.119C1307.48 315.699 1307.82 315.349 1308.2 315.059C1308.6 314.719 1309.04 314.379 1309.44 314.039C1313.16 310.959 1316.77 308.299 1320.56 306.109C1324.36 303.899 1328.32 302.169 1332.77 300.279C1333.26 300.069 1333.77 299.849 1334.27 299.629C1334.7 299.439 1335.17 299.299 1335.64 299.309L1335.65 299.329Z" fill="#FF9600"/>
<path d="M1331.38 280.129C1331.85 280.029 1332.34 279.989 1332.8 280.109C1333.26 280.229 1333.65 280.479 1333.91 280.849C1334.16 281.209 1334.26 281.669 1334.21 282.129C1334.16 282.589 1333.95 283.039 1333.69 283.429C1333.33 283.939 1332.97 284.439 1332.59 284.919C1329.17 289.299 1324.74 292.719 1319.7 294.849C1314.66 296.969 1309.04 297.89 1303.25 296.99C1302.6 296.88 1301.96 296.749 1301.31 296.579C1300.85 296.439 1300.41 296.229 1300.07 295.899C1299.73 295.569 1299.52 295.16 1299.49 294.72C1299.46 294.28 1299.6 293.839 1299.88 293.459C1300.17 293.089 1300.57 292.809 1301 292.599C1301.48 292.339 1301.96 292.069 1302.45 291.789C1306.83 289.259 1311.02 286.899 1315.43 285.049C1319.84 283.179 1324.47 281.739 1329.65 280.529C1330.22 280.399 1330.8 280.269 1331.39 280.139L1331.38 280.129Z" fill="#FF9600"/>
<path d="M1310.8 254.01C1315.35 253.4 1319.66 253.65 1323.71 254.77C1327.77 255.89 1331.58 257.88 1335.15 260.73C1335.54 261.05 1335.94 261.37 1336.33 261.71C1336.68 262.02 1337.01 262.37 1337.2 262.79C1337.39 263.21 1337.44 263.65 1337.33 264.06C1337.21 264.47 1336.94 264.82 1336.55 265.08C1336.17 265.34 1335.7 265.48 1335.24 265.56C1334.73 265.65 1334.22 265.73 1333.72 265.8C1329.17 266.41 1324.86 266.16 1320.8 265.04C1316.74 263.92 1312.93 261.93 1309.36 259.08C1308.97 258.76 1308.57 258.44 1308.18 258.1C1307.83 257.79 1307.51 257.44 1307.31 257.02C1307.12 256.6 1307.07 256.16 1307.18 255.75C1307.3 255.34 1307.57 254.99 1307.96 254.73C1308.34 254.47 1308.81 254.33 1309.27 254.25C1309.78 254.16 1310.29 254.08 1310.8 254.01Z" fill="#FF9600"/>
<path d="M494.29 264.04C493.57 254.87 492.31 245.76 490.51 236.72C486.12 216.14 481.28 195.57 467.6 175.49C460.72 165.63 449.86 155.93 436.12 152.16C422.51 148.32 409.17 150.22 398.05 153.27C353.94 167.44 322.1 193.14 287.91 216.03C234.38 254.12 188.08 301.58 157.98 358.39C150.58 373.67 143.5 390.29 145.46 407.31C146.23 424.33 155.78 440.12 167.68 452.81C205.83 492.56 266.89 504.75 321.75 498.44C435.35 485.03 503.61 367.21 494.29 264.05V264.04ZM391.77 374.54C377.4 417.85 334.76 462.77 282.93 455.43C260.3 453.84 235.77 438.19 229.02 415.75C221.61 393.97 224.29 372.03 229.35 351.84C229.5 351.26 229.65 350.68 229.82 350.11C232.18 341.44 234.98 332.79 238.64 324.72C242.1 315.64 246.08 307.24 250.63 298.68C265.32 271.39 288.67 242.15 325.74 238.21C362.94 234.16 397.28 266.76 400.78 303.54C403.56 327.91 399.83 352.03 391.77 374.56V374.54Z" fill="#FF9600"/>
<path d="M400.79 303.519C397.29 266.739 362.94 234.139 325.75 238.189C288.68 242.129 265.34 271.369 250.64 298.659C246.08 307.229 242.11 315.619 238.65 324.699C234.98 332.769 232.18 341.419 229.83 350.089C229.67 350.659 229.52 351.239 229.36 351.819C224.3 372.009 221.62 393.959 229.03 415.729C235.78 438.169 260.31 453.819 282.94 455.409C334.77 462.749 377.42 417.829 391.78 374.519C399.84 351.989 403.57 327.869 400.79 303.499V303.519ZM368.27 366.019C354.99 403.879 324.47 438.089 284.47 435.879C282.51 435.769 280.53 436.019 278.56 435.909C276.7 435.799 274.85 435.579 273.02 435.219C269.56 434.559 266.2 433.449 263.03 431.889C255.74 428.309 249.82 422.479 245.39 415.729C240.55 408.339 237.39 399.929 235.44 391.339C233.34 382.099 232.61 372.539 233.04 363.069C233.25 358.539 233.77 354.039 234.3 349.549C234.79 345.359 235.13 341.159 236.03 337.019C237.28 331.179 239.28 325.499 241.96 320.149C244.59 314.899 248.05 310.309 251.42 305.559C251.91 304.879 252.4 304.209 252.9 303.539C253.47 302.759 254.05 301.979 254.64 301.199C272.96 276.729 298.81 254.659 326.48 255.109C353.83 255.029 375.79 279.869 377.29 305.859C378.76 325.819 375.21 346.729 368.27 366.009V366.019Z" fill="#FFFEFA"/>
<path d="M377.29 305.87C375.79 279.88 353.83 255.03 326.48 255.12C298.8 254.67 272.96 276.74 254.64 301.21C254.05 301.99 253.47 302.77 252.9 303.55C252.4 304.22 251.91 304.89 251.42 305.57C248.05 310.32 244.58 314.91 241.96 320.16C239.28 325.5 237.28 331.18 236.03 337.03C235.14 341.17 234.79 345.37 234.3 349.56C233.77 354.05 233.25 358.55 233.04 363.08C232.6 372.54 233.34 382.1 235.44 391.35C237.39 399.94 240.54 408.36 245.39 415.74C249.82 422.49 255.74 428.31 263.03 431.9C266.19 433.45 269.56 434.57 273.02 435.23C274.85 435.58 276.7 435.81 278.56 435.92C280.53 436.03 282.51 435.78 284.47 435.89C324.47 438.1 355 403.88 368.27 366.03C375.21 346.75 378.76 325.83 377.29 305.88V305.87Z" fill="#FF9600"/>
<path d="M278.11 314.68C278.24 318.66 279.09 331.28 272.72 334.09C266.89 336.66 264.99 322.67 264.99 316.52C264.99 307.03 268.01 295.19 272.31 298.49C277.38 302.38 277.93 309.12 278.12 314.67L278.11 314.68Z" fill="white"/>
</svg>
