<svg width="26" height="27" viewBox="0 0 26 27" fill="none" xmlns="http://www.w3.org/2000/svg">
<path d="M8.29179 20.4444V21.8333C8.29179 22.9384 8.75272 23.9982 9.5732 24.7796C10.3937 25.561 11.5065 26 12.6668 26C13.8271 26 14.9399 25.561 15.7604 24.7796C16.5809 23.9982 17.0418 22.9384 17.0418 21.8333V20.4444M9.75012 3.77778C9.75012 3.04107 10.0574 2.33453 10.6044 1.81359C11.1514 1.29266 11.8932 1 12.6668 1C13.4403 1 14.1822 1.29266 14.7292 1.81359C15.2762 2.33453 15.5835 3.04107 15.5835 3.77778C17.2582 4.53198 18.6859 5.70601 19.7135 7.17403C20.7411 8.64205 21.3299 10.3487 21.4168 12.1111V16.2778C21.5265 17.1413 21.8476 17.9681 22.3542 18.6918C22.8608 19.4155 23.5388 20.0159 24.3335 20.4444H1.00012C1.79482 20.0159 2.47276 19.4155 2.97935 18.6918C3.48595 17.9681 3.80704 17.1413 3.91679 16.2778V12.1111C4.00365 10.3487 4.59244 8.64205 5.62005 7.17403C6.64766 5.70601 8.07536 4.53198 9.75012 3.77778Z" stroke="#FF9600" stroke-width="2" stroke-linecap="round" stroke-linejoin="round"/>
</svg>
