<svg width="20" height="20" viewBox="0 0 20 20" fill="none" xmlns="http://www.w3.org/2000/svg">
<path d="M14.575 8.89671C15.2115 8.89671 15.822 9.15132 16.2721 9.60455C16.7221 10.0578 16.975 10.6725 16.975 11.3134C16.975 11.9544 16.7221 12.5691 16.2721 13.0223C15.822 13.4755 15.2115 13.7302 14.575 13.7302H16.975C17.6115 13.7302 18.222 13.9848 18.6721 14.438C19.1221 14.8912 19.375 15.5059 19.375 16.1469C19.375 16.7878 19.1221 17.4025 18.6721 17.8558C18.222 18.309 17.6115 18.5636 16.975 18.5636H3.775C3.13848 18.5636 2.52803 18.309 2.07794 17.8558C1.62786 17.4025 1.375 16.7878 1.375 16.1469C1.375 15.5059 1.62786 14.8912 2.07794 14.438C2.52803 13.9848 3.13848 13.7302 3.775 13.7302H6.175C5.53848 13.7302 4.92803 13.4755 4.47794 13.0223C4.02786 12.5691 3.775 11.9544 3.775 11.3134C3.775 10.6725 4.02786 10.0578 4.47794 9.60455C4.92803 9.15132 5.53848 8.89671 6.175 8.89671H8.575C7.93848 8.89671 7.32803 8.64209 6.87794 8.18886C6.42786 7.73564 6.175 7.12094 6.175 6.47998C6.175 5.83903 6.42786 5.22432 6.87794 4.7711C7.32803 4.31788 7.93848 4.06326 8.575 4.06326C9.3476 4.06355 10.0998 3.81355 10.7204 3.3502C11.341 2.88686 11.7972 2.23475 12.0214 1.49025C12.0521 1.38975 12.1083 1.29905 12.1844 1.22712C12.2606 1.15519 12.3541 1.10451 12.4556 1.0801C12.5572 1.0557 12.6633 1.0584 12.7635 1.08795C12.8637 1.11749 12.9546 1.17286 13.027 1.24858C13.9975 2.20431 14.733 3.375 15.175 4.66744C15.7054 6.56054 14.8886 8.89671 12.175 8.89671H14.575Z" stroke="#FF9600" stroke-linecap="round" stroke-linejoin="round"/>
</svg>
