<svg width="20" height="20" viewBox="0 0 20 20" fill="none" xmlns="http://www.w3.org/2000/svg">
<path d="M4.82567 20C4.35226 20 3.94137 19.8493 3.59298 19.5478C3.2446 19.2463 3.04182 18.8678 2.98464 18.4122L1.01211 1.42556C0.96103 1.04037 1.07157 0.706667 1.34372 0.424444C1.61587 0.142222 1.95092 0.000740741 2.34886 0H17.6534C18.0498 0 18.3841 0.141481 18.6563 0.424444C18.9284 0.707407 19.039 1.04074 18.9879 1.42444L17.0382 18.4133C16.9811 18.8689 16.7783 19.247 16.4299 19.5478C16.0823 19.8493 15.6714 20 15.1972 20H4.82567ZM2.82684 7.09445L4.12928 18.2911C4.15825 18.4615 4.23868 18.6037 4.37056 18.7178C4.50244 18.8319 4.65643 18.8889 4.83253 18.8889H15.1903C15.3657 18.8889 15.5193 18.8319 15.6512 18.7178C15.783 18.6037 15.8639 18.4615 15.8936 18.2911L17.1949 7.09445H2.82684ZM2.67247 5.98333H17.3493L17.8513 1.11111H2.12816L2.67247 5.98333ZM10 15.6833C9.57233 15.6833 9.20794 15.5374 8.90682 15.2456C8.60569 14.9537 8.45551 14.6 8.45628 14.1844C8.45628 13.8067 8.563 13.4052 8.77646 12.98C8.98991 12.5548 9.39776 11.94 10 11.1356C10.6022 11.94 11.0101 12.5548 11.2235 12.98C11.437 13.4052 11.5437 13.8067 11.5437 14.1844C11.5437 14.6 11.3935 14.9537 11.0932 15.2456C10.7928 15.5374 10.4284 15.6826 10 15.6833ZM10 16.7956C10.7539 16.7956 11.3905 16.5433 11.9096 16.0389C12.4288 15.5344 12.688 14.9159 12.6872 14.1833C12.6872 13.47 12.4654 12.7737 12.0217 12.0944C11.5788 11.4144 11.1492 10.8026 10.733 10.2589C10.6331 10.1389 10.5203 10.05 10.3945 9.99222C10.2687 9.93445 10.1372 9.90593 10 9.90667C9.86278 9.90741 9.73128 9.93593 9.60549 9.99222C9.47971 10.0485 9.36726 10.1374 9.26816 10.2589C8.85193 10.8026 8.42197 11.4144 7.9783 12.0944C7.53462 12.7744 7.31278 13.4707 7.31278 14.1833C7.31278 14.9159 7.57197 15.5344 8.09036 16.0389C8.61027 16.5426 9.24682 16.7956 10 16.7956Z" fill="#FF9600"/>
</svg>
