<svg width="20" height="20" viewBox="0 0 20 20" fill="none" xmlns="http://www.w3.org/2000/svg">
<path d="M17.5 17.5L12.255 12.255M12.255 12.255C12.7857 11.7244 13.2066 11.0945 13.4938 10.4012C13.7809 9.70786 13.9287 8.96479 13.9287 8.21437C13.9287 7.46394 13.7809 6.72087 13.4938 6.02757C13.2066 5.33427 12.7857 4.70433 12.255 4.1737C11.7244 3.64307 11.0945 3.22215 10.4012 2.93498C9.70786 2.64781 8.96479 2.5 8.21437 2.5C7.46394 2.5 6.72087 2.64781 6.02757 2.93498C5.33427 3.22215 4.70433 3.64307 4.1737 4.1737C3.10205 5.24535 2.5 6.69882 2.5 8.21437C2.5 9.72991 3.10205 11.1834 4.1737 12.255C5.24535 13.3267 6.69882 13.9287 8.21437 13.9287C9.72991 13.9287 11.1834 13.3267 12.255 12.255Z" stroke="#FF9600" stroke-width="2" stroke-linecap="round" stroke-linejoin="round"/>
</svg>
