<svg width="27" height="27" viewBox="0 0 27 27" fill="none" xmlns="http://www.w3.org/2000/svg">
<path d="M4.75 17.25H6.4925C7.475 17.25 7.9675 17.25 8.38125 17.4713C8.79625 17.6938 9.06875 18.1025 9.61375 18.92L9.81375 19.22C10.3412 20.0113 10.605 20.4075 10.9637 20.3863C11.3212 20.365 11.5375 19.9413 11.9675 19.0913L14.425 14.245C14.8737 13.3625 15.0975 12.92 15.4638 12.9063C15.83 12.8913 16.0887 13.3138 16.6062 14.1575L17.4025 15.4575C17.94 16.3338 18.2075 16.7713 18.6338 17.0113C19.0613 17.2488 19.5738 17.2488 20.6 17.2488H22.25" stroke="#FF9600" stroke-width="2" stroke-linecap="round"/>
<path d="M1 13.5C1 7.6075 1 4.66125 2.83 2.83C4.6625 1 7.6075 1 13.5 1C19.3925 1 22.3387 1 24.1687 2.83C26 4.6625 26 7.6075 26 13.5C26 19.3925 26 22.3387 24.1687 24.1687C22.34 26 19.3925 26 13.5 26C7.6075 26 4.66125 26 2.83 24.1687C1 22.34 1 19.3925 1 13.5Z" stroke="#FF9600" stroke-width="2"/>
</svg>
