<svg width="358" height="208" viewBox="0 0 358 208" fill="none" xmlns="http://www.w3.org/2000/svg">
<g filter="url(#filter0_d_1876_5966)">
<path d="M339 0C347.284 5.15406e-06 354 6.71573 354 15V85C354 93.2843 347.284 100 339 100H269C260.716 100 254 106.716 254 115V185C254 185.129 253.998 185.258 253.995 185.387C253.79 193.492 247.155 200 239 200H19C10.7157 200 4 193.284 4 185V15C4 6.71573 10.7157 2.21463e-07 19 0H339Z" fill="#FFFEFA"/>
</g>
<path d="M32.816 54.476H45.992V56.888H32.816V54.476ZM32.024 42.74H45.704V45.116H32.024V42.74ZM40.304 43.64H42.752V70.964C42.752 71.66 42.668 72.2 42.5 72.584C42.332 72.968 42.02 73.268 41.564 73.484C41.132 73.676 40.556 73.808 39.836 73.88C39.116 73.952 38.216 73.976 37.136 73.952C37.088 73.64 36.98 73.244 36.812 72.764C36.668 72.308 36.5 71.912 36.308 71.576C37.1 71.6 37.808 71.612 38.432 71.612C39.056 71.612 39.476 71.6 39.692 71.576C39.932 71.576 40.088 71.528 40.16 71.432C40.256 71.36 40.304 71.204 40.304 70.964V43.64ZM39.908 55.34L41.924 56.024C41.204 57.896 40.304 59.732 39.224 61.532C38.144 63.332 36.98 65 35.732 66.536C34.508 68.048 33.26 69.308 31.988 70.316C31.772 70.004 31.484 69.656 31.124 69.272C30.764 68.888 30.44 68.576 30.152 68.336C31.424 67.472 32.672 66.344 33.896 64.952C35.12 63.56 36.26 62.036 37.316 60.38C38.372 58.7 39.236 57.02 39.908 55.34ZM33.356 46.484L35.768 46.7C35.6 47.948 35.384 49.292 35.12 50.732C34.856 52.148 34.592 53.516 34.328 54.836C34.064 56.156 33.824 57.308 33.608 58.292L31.232 57.932C31.496 56.948 31.748 55.796 31.988 54.476C32.252 53.156 32.504 51.8 32.744 50.408C33.008 48.992 33.212 47.684 33.356 46.484ZM48.188 44.108H60.932V54.656H48.188V52.676H58.484V46.088H48.188V44.108ZM48.152 56.78H63.596V58.796H48.152V56.78ZM46.928 60.956H61.472V63.044H46.928V60.956ZM48.296 48.428H59.492V50.264H48.296V48.428ZM60.716 60.956H63.02C63.02 60.956 63.008 61.088 62.984 61.352C62.984 61.592 62.972 61.808 62.948 62C62.804 64.4 62.648 66.344 62.48 67.832C62.312 69.32 62.12 70.46 61.904 71.252C61.688 72.044 61.424 72.62 61.112 72.98C60.872 73.268 60.584 73.472 60.248 73.592C59.912 73.712 59.516 73.796 59.06 73.844C58.652 73.868 58.076 73.88 57.332 73.88C56.612 73.88 55.856 73.856 55.064 73.808C55.04 73.496 54.968 73.148 54.848 72.764C54.752 72.38 54.62 72.044 54.452 71.756C55.244 71.828 55.976 71.876 56.648 71.9C57.32 71.924 57.788 71.936 58.052 71.936C58.34 71.936 58.568 71.912 58.736 71.864C58.928 71.84 59.084 71.744 59.204 71.576C59.42 71.336 59.612 70.856 59.78 70.136C59.972 69.416 60.14 68.348 60.284 66.932C60.452 65.492 60.596 63.62 60.716 61.316V60.956ZM52.724 40.76L55.604 41.228C55.268 42.02 54.932 42.788 54.596 43.532C54.284 44.252 53.984 44.888 53.696 45.44L51.464 44.936C51.704 44.312 51.944 43.616 52.184 42.848C52.424 42.056 52.604 41.36 52.724 40.76ZM46.928 44.108H49.412V62H46.928V44.108ZM46.568 64.628L48.62 65.204C48.452 66.62 48.164 68.036 47.756 69.452C47.348 70.868 46.724 72.032 45.884 72.944L44.012 71.792C44.78 70.952 45.356 69.884 45.74 68.588C46.148 67.292 46.424 65.972 46.568 64.628ZM49.772 65.636L51.428 65.384C51.668 66.32 51.86 67.34 52.004 68.444C52.148 69.548 52.232 70.496 52.256 71.288L50.492 71.576C50.492 70.784 50.42 69.836 50.276 68.732C50.156 67.604 49.988 66.572 49.772 65.636ZM53.012 65.276L54.524 64.88C54.908 65.672 55.256 66.536 55.568 67.472C55.88 68.384 56.108 69.164 56.252 69.812L54.596 70.28C54.5 69.608 54.296 68.804 53.984 67.868C53.672 66.932 53.348 66.068 53.012 65.276ZM55.964 64.628L57.332 64.052C57.812 64.628 58.268 65.264 58.7 65.96C59.132 66.656 59.444 67.268 59.636 67.796L58.16 68.48C57.944 67.928 57.62 67.292 57.188 66.572C56.78 65.852 56.372 65.204 55.964 64.628ZM81.704 41.264H84.62V70.136C84.62 71.12 84.476 71.852 84.188 72.332C83.9 72.812 83.432 73.16 82.784 73.376C82.112 73.592 81.2 73.736 80.048 73.808C78.92 73.88 77.516 73.904 75.836 73.88C75.788 73.64 75.692 73.34 75.548 72.98C75.428 72.644 75.296 72.308 75.152 71.972C75.008 71.636 74.864 71.336 74.72 71.072C75.608 71.096 76.46 71.108 77.276 71.108C78.092 71.132 78.8 71.132 79.4 71.108C80.024 71.108 80.456 71.108 80.696 71.108C81.056 71.084 81.308 71.012 81.452 70.892C81.62 70.748 81.704 70.496 81.704 70.136V41.264ZM90.38 50.444L92.972 49.472C94.052 51.152 95.072 52.952 96.032 54.872C96.992 56.792 97.832 58.676 98.552 60.524C99.296 62.372 99.824 64.016 100.136 65.456L97.22 66.644C96.956 65.204 96.476 63.56 95.78 61.712C95.108 59.84 94.292 57.932 93.332 55.988C92.396 54.02 91.412 52.172 90.38 50.444ZM72.272 49.724L75.296 50.228C74.888 51.98 74.384 53.828 73.784 55.772C73.184 57.692 72.464 59.552 71.624 61.352C70.784 63.128 69.812 64.688 68.708 66.032C68.492 65.864 68.228 65.696 67.916 65.528C67.628 65.336 67.316 65.156 66.98 64.988C66.668 64.82 66.392 64.688 66.152 64.592C67.232 63.32 68.168 61.832 68.96 60.128C69.752 58.424 70.424 56.672 70.976 54.872C71.552 53.048 71.984 51.332 72.272 49.724ZM114.428 70.604H135.596V73.124H114.428V70.604ZM120.116 51.812H131.852V54.332H120.116V51.812ZM120.116 61.136H131.852V63.656H120.116V61.136ZM118.784 42.668H132.896V71.972H130.232V45.224H121.34V71.972H118.784V42.668ZM102.548 48.104H114.428V50.624H102.548V48.104ZM108.092 40.688L110.684 40.976C110.276 42.752 109.832 44.66 109.352 46.7C108.872 48.716 108.368 50.744 107.84 52.784C107.336 54.824 106.832 56.78 106.328 58.652C105.824 60.524 105.344 62.204 104.888 63.692L102.62 62.54C103.028 61.172 103.484 59.588 103.988 57.788C104.492 55.988 104.984 54.092 105.464 52.1C105.968 50.108 106.448 48.128 106.904 46.16C107.36 44.192 107.756 42.368 108.092 40.688ZM104.06 61.136L105.572 59.228C106.916 59.972 108.284 60.836 109.676 61.82C111.068 62.804 112.364 63.8 113.564 64.808C114.764 65.816 115.712 66.764 116.408 67.652L114.752 69.812C114.056 68.924 113.12 67.964 111.944 66.932C110.768 65.876 109.484 64.844 108.092 63.836C106.724 62.828 105.38 61.928 104.06 61.136ZM113.528 48.104H113.96L114.428 48.032L116.048 48.356C115.712 52.964 115.028 56.924 113.996 60.236C112.988 63.548 111.656 66.32 110 68.552C108.368 70.76 106.424 72.524 104.168 73.844C103.976 73.532 103.724 73.16 103.412 72.728C103.1 72.296 102.788 71.948 102.476 71.684C104.54 70.628 106.328 69.068 107.84 67.004C109.376 64.94 110.624 62.384 111.584 59.336C112.544 56.264 113.192 52.7 113.528 48.644V48.104ZM45.056 98.264C45.056 100.184 44.696 101.792 43.976 103.088C43.272 104.384 42.256 105.36 40.928 106.016C39.6 106.672 37.992 107 36.104 107H31.328V89.864H36.608C38.336 89.864 39.832 90.184 41.096 90.824C42.36 91.464 43.336 92.408 44.024 93.656C44.712 94.888 45.056 96.424 45.056 98.264ZM42.776 98.336C42.776 96.816 42.52 95.568 42.008 94.592C41.512 93.616 40.776 92.896 39.8 92.432C38.84 91.952 37.672 91.712 36.296 91.712H33.488V105.152H35.816C38.136 105.152 39.872 104.584 41.024 103.448C42.192 102.296 42.776 100.592 42.776 98.336ZM58.4353 107H48.8593V89.864H58.4353V91.76H51.0193V97.112H58.0033V98.984H51.0193V105.104H58.4353V107ZM62.1952 107V89.864H64.3552V105.08H71.8432V107H62.1952ZM84.3571 107H74.7811V89.864H84.3571V91.76H76.9411V97.112H83.9251V98.984H76.9411V105.104H84.3571V107ZM93.5411 107H91.3811V91.76H86.0291V89.864H98.8691V91.76H93.5411V107ZM111.029 107H101.453V89.864H111.029V91.76H103.613V97.112H110.597V98.984H103.613V105.104H111.029V107ZM115.605 90.704H122.901V106.4H115.605V104.768H121.245V92.312H115.605V90.704ZM114.549 90.704H116.205V108.296H114.549V90.704ZM115.485 97.376H122.109V98.96H115.485V97.376ZM118.221 86.792L120.165 87.128C119.925 87.88 119.661 88.64 119.373 89.408C119.101 90.176 118.845 90.832 118.605 91.376L117.141 91.016C117.285 90.616 117.421 90.168 117.549 89.672C117.693 89.176 117.821 88.672 117.933 88.16C118.061 87.648 118.157 87.192 118.221 86.792ZM126.333 90.632H133.701V92.288H126.333V90.632ZM133.053 90.632H134.757C134.757 90.632 134.757 90.688 134.757 90.8C134.757 90.912 134.757 91.048 134.757 91.208C134.757 91.352 134.749 91.464 134.733 91.544C134.637 94.296 134.541 96.624 134.445 98.528C134.365 100.432 134.261 101.992 134.133 103.208C134.005 104.408 133.853 105.344 133.677 106.016C133.517 106.688 133.317 107.168 133.077 107.456C132.805 107.808 132.517 108.048 132.213 108.176C131.925 108.32 131.565 108.416 131.133 108.464C130.733 108.496 130.205 108.504 129.549 108.488C128.909 108.488 128.245 108.464 127.557 108.416C127.541 108.16 127.477 107.864 127.365 107.528C127.269 107.192 127.133 106.912 126.957 106.688C127.757 106.752 128.477 106.792 129.117 106.808C129.773 106.824 130.245 106.832 130.533 106.832C130.773 106.832 130.965 106.808 131.109 106.76C131.269 106.696 131.421 106.584 131.565 106.424C131.757 106.216 131.925 105.792 132.069 105.152C132.229 104.496 132.365 103.568 132.477 102.368C132.589 101.168 132.693 99.64 132.789 97.784C132.885 95.912 132.973 93.656 133.053 91.016V90.632ZM126.813 86.744L128.541 87.128C128.253 88.328 127.901 89.504 127.485 90.656C127.085 91.792 126.637 92.864 126.141 93.872C125.661 94.88 125.149 95.768 124.605 96.536C124.493 96.44 124.341 96.328 124.149 96.2C123.973 96.056 123.789 95.928 123.597 95.816C123.405 95.688 123.237 95.584 123.093 95.504C123.653 94.784 124.165 93.96 124.629 93.032C125.093 92.088 125.509 91.08 125.877 90.008C126.245 88.936 126.557 87.848 126.813 86.744ZM125.709 96.848L127.125 96.056C127.573 96.616 128.037 97.232 128.517 97.904C129.013 98.576 129.469 99.224 129.885 99.848C130.317 100.472 130.661 101.024 130.917 101.504L129.381 102.464C129.141 101.968 128.813 101.4 128.397 100.76C127.997 100.104 127.557 99.44 127.077 98.768C126.613 98.08 126.157 97.44 125.709 96.848ZM138.933 91.64H157.989V93.392H138.933V91.64ZM140.037 98.672H157.005V100.424H140.037V98.672ZM137.805 106.352H159.213V108.104H137.805V106.352ZM147.477 93.056H149.421V107.264H147.477V93.056ZM145.437 87.92L146.901 86.936C147.413 87.288 147.949 87.696 148.509 88.16C149.085 88.624 149.621 89.088 150.117 89.552C150.613 90 151.021 90.416 151.341 90.8L149.781 91.928C149.493 91.56 149.101 91.144 148.605 90.68C148.125 90.2 147.605 89.72 147.045 89.24C146.501 88.744 145.965 88.304 145.437 87.92ZM171.213 87.584H173.229C173.197 88.208 173.141 89.032 173.061 90.056C172.981 91.08 172.829 92.24 172.605 93.536C172.397 94.816 172.069 96.152 171.621 97.544C171.173 98.936 170.573 100.312 169.821 101.672C169.069 103.032 168.109 104.32 166.941 105.536C165.789 106.752 164.381 107.808 162.717 108.704C162.573 108.48 162.365 108.24 162.093 107.984C161.821 107.728 161.541 107.504 161.253 107.312C162.901 106.464 164.285 105.472 165.405 104.336C166.525 103.2 167.445 101.984 168.165 100.688C168.885 99.392 169.445 98.088 169.845 96.776C170.245 95.448 170.541 94.184 170.733 92.984C170.925 91.784 171.045 90.72 171.093 89.792C171.157 88.848 171.197 88.112 171.213 87.584ZM173.133 88.064C173.149 88.336 173.181 88.808 173.229 89.48C173.293 90.136 173.405 90.936 173.565 91.88C173.725 92.824 173.957 93.848 174.261 94.952C174.565 96.056 174.973 97.192 175.485 98.36C175.997 99.528 176.629 100.664 177.381 101.768C178.133 102.872 179.037 103.896 180.093 104.84C181.149 105.768 182.389 106.552 183.813 107.192C183.541 107.4 183.277 107.64 183.021 107.912C182.781 108.2 182.581 108.464 182.421 108.704C180.981 108.016 179.709 107.176 178.605 106.184C177.517 105.176 176.581 104.088 175.797 102.92C175.029 101.736 174.381 100.528 173.853 99.296C173.341 98.064 172.925 96.864 172.605 95.696C172.285 94.512 172.045 93.416 171.885 92.408C171.725 91.384 171.613 90.512 171.549 89.792C171.485 89.056 171.445 88.528 171.429 88.208L173.133 88.064Z" fill="#FF9600"/>
<path d="M30.854 153.98H45.146V155.294H30.854V153.98ZM31.682 159.254H44.408V160.568H31.682V159.254ZM30.008 165.014H46.064V166.328H30.008V165.014ZM37.262 155.042H38.72V165.698H37.262V155.042ZM35.732 151.19L36.83 150.452C37.214 150.716 37.616 151.022 38.036 151.37C38.468 151.718 38.87 152.066 39.242 152.414C39.614 152.75 39.92 153.062 40.16 153.35L38.99 154.196C38.774 153.92 38.48 153.608 38.108 153.26C37.748 152.9 37.358 152.54 36.938 152.18C36.53 151.808 36.128 151.478 35.732 151.19ZM47.828 160.208H64.19V161.342H47.828V160.208ZM48.242 151.154H63.74V152.36H48.242V151.154ZM54.056 158.336L55.388 158.678C54.992 159.302 54.56 159.962 54.092 160.658C53.624 161.354 53.156 162.032 52.688 162.692C52.22 163.34 51.788 163.91 51.392 164.402L50.114 163.952C50.51 163.46 50.942 162.89 51.41 162.242C51.878 161.594 52.346 160.928 52.814 160.244C53.282 159.56 53.696 158.924 54.056 158.336ZM59.456 160.622L60.752 161C60.368 161.984 59.828 162.824 59.132 163.52C58.448 164.216 57.608 164.792 56.612 165.248C55.616 165.704 54.452 166.064 53.12 166.328C51.788 166.604 50.282 166.802 48.602 166.922C48.566 166.73 48.494 166.52 48.386 166.292C48.29 166.076 48.182 165.89 48.062 165.734C50.21 165.614 52.04 165.38 53.552 165.032C55.076 164.672 56.318 164.138 57.278 163.43C58.25 162.722 58.976 161.786 59.456 160.622ZM51.104 163.79L51.77 162.8C53.258 163.052 54.734 163.352 56.198 163.7C57.662 164.036 59.036 164.396 60.32 164.78C61.616 165.152 62.726 165.518 63.65 165.878L62.822 166.976C61.91 166.604 60.83 166.226 59.582 165.842C58.346 165.458 57.002 165.092 55.55 164.744C54.11 164.384 52.628 164.066 51.104 163.79ZM53.156 151.604H54.434V157.904H53.156V151.604ZM57.368 151.604H58.646V157.904H57.368V151.604ZM50.42 155.006V157.454H61.652V155.006H50.42ZM49.142 153.89H62.984V158.552H49.142V153.89ZM73.37 151.244H81.074V152.486H73.37V151.244ZM73.478 154.088H79.148V155.204H73.478V154.088ZM73.892 156.77H75.008V163.97H73.892V156.77ZM74.612 156.77H78.662V162.512H74.612V161.36H77.546V157.922H74.612V156.77ZM80.426 151.244H81.704V165.194C81.704 165.602 81.644 165.926 81.524 166.166C81.404 166.406 81.194 166.58 80.894 166.688C80.618 166.808 80.24 166.88 79.76 166.904C79.292 166.94 78.65 166.952 77.834 166.94C77.81 166.82 77.768 166.676 77.708 166.508C77.648 166.352 77.582 166.19 77.51 166.022C77.45 165.866 77.378 165.728 77.294 165.608C77.93 165.632 78.494 165.644 78.986 165.644C79.478 165.644 79.808 165.638 79.976 165.626C80.276 165.614 80.426 165.464 80.426 165.176V151.244ZM69.41 153.422H70.544V155.654H69.41V153.422ZM66.944 155.132H68.168V165.212H66.944V155.132ZM67.664 157.58H71.948V158.534H67.664V157.58ZM65.738 164.978C66.506 164.798 67.43 164.576 68.51 164.312C69.59 164.036 70.688 163.754 71.804 163.466L71.948 164.6C70.94 164.888 69.92 165.182 68.888 165.482C67.868 165.77 66.95 166.022 66.134 166.238L65.738 164.978ZM70.04 162.116L71.12 161.63C71.444 162.038 71.756 162.488 72.056 162.98C72.368 163.472 72.644 163.958 72.884 164.438C73.124 164.906 73.304 165.32 73.424 165.68L72.272 166.238C72.164 165.866 71.99 165.44 71.75 164.96C71.522 164.48 71.258 163.994 70.958 163.502C70.658 162.998 70.352 162.536 70.04 162.116ZM67.736 155.132H72.686V161H67.736V159.974H71.444V156.158H67.736V155.132ZM69.032 150.38H69.77V150.668H70.166V151.046C69.926 151.514 69.62 152.03 69.248 152.594C68.888 153.158 68.462 153.728 67.97 154.304C67.478 154.88 66.908 155.432 66.26 155.96C66.2 155.864 66.116 155.762 66.008 155.654C65.9 155.546 65.786 155.444 65.666 155.348C65.558 155.252 65.456 155.174 65.36 155.114C65.948 154.646 66.476 154.142 66.944 153.602C67.424 153.062 67.838 152.516 68.186 151.964C68.534 151.4 68.816 150.872 69.032 150.38ZM69.392 150.38H70.346C70.718 150.68 71.102 151.016 71.498 151.388C71.894 151.76 72.26 152.132 72.596 152.504C72.944 152.876 73.226 153.212 73.442 153.512L72.56 154.502C72.368 154.202 72.11 153.86 71.786 153.476C71.462 153.092 71.114 152.708 70.742 152.324C70.37 151.928 70.004 151.586 69.644 151.298H69.392V150.38ZM86.672 158.012H96.554V159.146H88.022V166.94H86.672V158.012ZM96.086 158.012H97.454V165.5C97.454 165.86 97.394 166.136 97.274 166.328C97.166 166.52 96.974 166.658 96.698 166.742C96.41 166.838 96.026 166.892 95.546 166.904C95.066 166.928 94.466 166.94 93.746 166.94C93.71 166.772 93.65 166.58 93.566 166.364C93.482 166.16 93.392 165.98 93.296 165.824C93.656 165.836 93.998 165.842 94.322 165.842C94.646 165.842 94.934 165.836 95.186 165.824C95.438 165.824 95.612 165.824 95.708 165.824C95.852 165.824 95.948 165.794 95.996 165.734C96.056 165.686 96.086 165.602 96.086 165.482V158.012ZM87.464 160.532H96.644V161.54H87.464V160.532ZM84.098 152.144H99.938V153.35H84.098V152.144ZM89.102 152.864L90.56 153.296C90.176 153.848 89.75 154.412 89.282 154.988C88.814 155.564 88.388 156.056 88.004 156.464L86.924 156.05C87.164 155.762 87.416 155.432 87.68 155.06C87.956 154.688 88.214 154.31 88.454 153.926C88.706 153.542 88.922 153.188 89.102 152.864ZM94.106 154.016L95.186 153.314C95.714 153.662 96.266 154.052 96.842 154.484C97.43 154.904 97.982 155.33 98.498 155.762C99.014 156.194 99.434 156.584 99.758 156.932L98.624 157.742C98.324 157.382 97.922 156.986 97.418 156.554C96.914 156.11 96.374 155.666 95.798 155.222C95.222 154.778 94.658 154.376 94.106 154.016ZM84.8 155.636C85.604 155.636 86.51 155.63 87.518 155.618C88.538 155.594 89.624 155.576 90.776 155.564C91.928 155.54 93.11 155.516 94.322 155.492C95.546 155.468 96.758 155.444 97.958 155.42L97.886 156.536C96.314 156.584 94.736 156.632 93.152 156.68C91.568 156.728 90.062 156.77 88.634 156.806C87.206 156.842 85.946 156.872 84.854 156.896L84.8 155.636ZM87.464 162.926H96.59V163.934H87.464V162.926ZM91.28 150.362H92.666V152.72H91.28V150.362ZM101.972 156.158H118.028V157.382H101.972V156.158ZM103.556 152.648H113.996V153.836H103.556V152.648ZM106.49 162.206H114.968V163.286H106.49V162.206ZM106.49 165.176H114.968V166.346H106.49V165.176ZM108.182 150.38H109.514V156.806H108.182V150.38ZM116.066 150.992L117.218 151.622C116.018 153.194 114.632 154.634 113.06 155.942C111.5 157.25 109.82 158.42 108.02 159.452C106.22 160.484 104.36 161.366 102.44 162.098C102.392 161.99 102.314 161.87 102.206 161.738C102.098 161.594 101.984 161.456 101.864 161.324C101.756 161.18 101.66 161.06 101.576 160.964C103.52 160.292 105.386 159.464 107.174 158.48C108.962 157.496 110.612 156.374 112.124 155.114C113.648 153.854 114.962 152.48 116.066 150.992ZM105.752 159.272H115.814V166.868H114.428V160.424H107.102V166.94H105.752V159.272Z" fill="#FF9600"/>
<g filter="url(#filter1_d_1876_5966)">
<rect x="264" y="110" width="90" height="90" rx="15" fill="#FFAA1E" shape-rendering="crispEdges"/>
<path d="M309 135V175M329 155H289" stroke="#FFFEFA" stroke-width="1.5" stroke-linecap="round" stroke-linejoin="round"/>
</g>
<defs>
<filter id="filter0_d_1876_5966" x="0" y="0" width="358" height="208" filterUnits="userSpaceOnUse" color-interpolation-filters="sRGB">
<feFlood flood-opacity="0" result="BackgroundImageFix"/>
<feColorMatrix in="SourceAlpha" type="matrix" values="0 0 0 0 0 0 0 0 0 0 0 0 0 0 0 0 0 0 127 0" result="hardAlpha"/>
<feOffset dy="4"/>
<feGaussianBlur stdDeviation="2"/>
<feComposite in2="hardAlpha" operator="out"/>
<feColorMatrix type="matrix" values="0 0 0 0 0 0 0 0 0 0 0 0 0 0 0 0 0 0 0.25 0"/>
<feBlend mode="normal" in2="BackgroundImageFix" result="effect1_dropShadow_1876_5966"/>
<feBlend mode="normal" in="SourceGraphic" in2="effect1_dropShadow_1876_5966" result="shape"/>
</filter>
<filter id="filter1_d_1876_5966" x="260" y="110" width="98" height="98" filterUnits="userSpaceOnUse" color-interpolation-filters="sRGB">
<feFlood flood-opacity="0" result="BackgroundImageFix"/>
<feColorMatrix in="SourceAlpha" type="matrix" values="0 0 0 0 0 0 0 0 0 0 0 0 0 0 0 0 0 0 127 0" result="hardAlpha"/>
<feOffset dy="4"/>
<feGaussianBlur stdDeviation="2"/>
<feComposite in2="hardAlpha" operator="out"/>
<feColorMatrix type="matrix" values="0 0 0 0 0 0 0 0 0 0 0 0 0 0 0 0 0 0 0.25 0"/>
<feBlend mode="normal" in2="BackgroundImageFix" result="effect1_dropShadow_1876_5966"/>
<feBlend mode="normal" in="SourceGraphic" in2="effect1_dropShadow_1876_5966" result="shape"/>
</filter>
</defs>
</svg>
