<svg width="20" height="20" viewBox="0 0 20 20" fill="none" xmlns="http://www.w3.org/2000/svg">
<path d="M9.75 10.5263H3.59211V11.5789H9.75V10.5263ZM15.9079 10.5263H9.75V11.5789H15.9079V10.5263ZM18.4737 7.8947C18.4737 8.24028 18.4073 8.58248 18.2784 8.90175C18.1494 9.22103 17.9604 9.51113 17.7222 9.75549C17.4839 9.99986 17.2011 10.1937 16.8898 10.3259C16.5785 10.4582 16.2448 10.5263 15.9079 10.5263V11.5789C16.8606 11.5789 17.7742 11.1907 18.4479 10.4998C19.1215 9.80889 19.5 8.8718 19.5 7.8947H18.4737ZM15.9079 5.26313C16.2448 5.26313 16.5785 5.3312 16.8898 5.46345C17.2011 5.59569 17.4839 5.78953 17.7222 6.0339C17.9604 6.27826 18.1494 6.56836 18.2784 6.88764C18.4073 7.20691 18.4737 7.54911 18.4737 7.8947H19.5C19.5 6.91759 19.1215 5.9805 18.4479 5.28958C17.7742 4.59866 16.8606 4.2105 15.9079 4.2105V5.26313ZM14.9021 3.42103C14.4566 2.40184 13.7332 1.53658 12.819 0.929579C11.9048 0.322573 10.839 -0.000260789 9.75 1.58067e-07V1.05263C10.6412 1.05235 11.5135 1.31656 12.2616 1.81338C13.0097 2.31021 13.6017 3.01843 13.9661 3.85261L14.9021 3.42103ZM9.75 1.58067e-07C8.66099 -0.000260789 7.59515 0.322573 6.681 0.929579C5.76684 1.53658 5.0434 2.40184 4.59789 3.42103L5.5339 3.85261C5.89831 3.01843 6.49028 2.31021 7.23838 1.81338C7.98648 1.31656 8.85876 1.05235 9.75 1.05263V1.58067e-07ZM3.59211 4.2105C2.63942 4.2105 1.72575 4.59866 1.0521 5.28958C0.378453 5.9805 0 6.91759 0 7.8947H1.02632C1.02632 7.19676 1.29664 6.52741 1.77782 6.0339C2.259 5.54038 2.91162 5.26313 3.59211 5.26313V4.2105ZM0 7.8947C0 8.8718 0.378453 9.80889 1.0521 10.4998C1.72575 11.1907 2.63942 11.5789 3.59211 11.5789V10.5263C2.91162 10.5263 2.259 10.249 1.77782 9.75549C1.29664 9.26198 1.02632 8.59263 1.02632 7.8947H0ZM4.59789 3.42103C4.38339 3.90945 3.98724 4.2105 3.59211 4.2105V5.26313C4.51066 5.26313 5.21061 4.59261 5.5339 3.85261L4.59789 3.42103ZM15.9079 4.2105C15.5128 4.2105 15.1166 3.90945 14.9021 3.42103L13.9661 3.85261C14.2904 4.59261 14.9893 5.26313 15.9079 5.26313V4.2105Z" fill="#FF9600"/>
<path d="M9.74974 16.6053V14.5M14.8813 17.6579V14.5M4.61816 18.7105V14.5" stroke="#FF9600" stroke-width="1.5" stroke-linecap="round"/>
</svg>
