<svg width="22" height="18" viewBox="0 0 22 18" fill="none" xmlns="http://www.w3.org/2000/svg">
<path d="M12.3588 5.52845C15.7525 5.52845 17.6794 7.7082 17.959 10.3425H18.0444C20.2288 10.3425 22 12.0566 22 14.1712C22 16.2859 20.2288 18 18.0444 18H6.67328C4.48886 18 2.71764 16.2859 2.71764 14.1712C2.71764 12.0566 4.48886 10.3425 6.67328 10.3425H6.75867C7.03964 7.69018 8.96375 5.52845 12.3588 5.52845ZM12.3588 6.91417C10.0863 6.91417 8.10706 8.67405 8.10706 11.106C8.10706 11.4912 7.75722 11.7933 7.35642 11.7933H6.5989C5.21608 11.7919 4.09495 12.8728 4.09495 14.2031C4.09495 15.5334 5.21608 16.6143 6.5989 16.6143H18.1187C19.5016 16.6143 20.6227 15.5334 20.6227 14.2031C20.6227 12.8728 19.5016 11.7919 18.1187 11.7919H17.3612C16.9604 11.7933 16.6106 11.4912 16.6106 11.106C16.6106 8.64356 14.63 6.91417 12.3588 6.91417ZM2.44631 9.26991C2.49925 9.42354 2.49681 9.59102 2.4394 9.74302C2.38199 9.89502 2.27327 10.0219 2.13228 10.1013L2.01934 10.1512L0.916114 10.5337C0.753305 10.591 0.575045 10.5848 0.416588 10.5162C0.258131 10.4477 0.131017 10.3218 0.0603847 10.1634C-0.0102474 10.0051 -0.0192535 9.82588 0.0351473 9.6612C0.0895482 9.49651 0.203394 9.35836 0.354171 9.27407L0.46711 9.22418L1.57171 8.84172C1.74432 8.78213 1.93337 8.7939 2.09735 8.87444C2.26134 8.95499 2.38684 9.09772 2.44631 9.2713M9.49401 3.44985C9.95266 3.67434 10.3548 3.96673 10.6978 4.30901C10.1377 4.42541 9.61613 4.59862 9.13315 4.82865C8.5111 4.45195 7.77853 4.30375 7.0601 4.40927C6.34167 4.51479 5.68178 4.86752 5.19273 5.40743C4.70368 5.94733 4.41568 6.64105 4.37775 7.37054C4.33982 8.10002 4.5543 8.82019 4.98469 9.40849C4.53018 9.54429 4.10321 9.74245 3.71068 9.99049C3.17819 9.15594 2.9316 8.16908 3.00852 7.18039C3.08544 6.1917 3.48164 5.25546 4.13671 4.51443C4.79178 3.77341 5.66976 3.26828 6.63675 3.07607C7.60375 2.88386 8.6067 3.01513 9.49263 3.44985M1.22463 3.68543L1.34033 3.72977L2.38984 4.24388C2.54456 4.31955 2.66552 4.45074 2.72893 4.61164C2.79234 4.77254 2.79359 4.95148 2.73245 5.11327C2.67131 5.27505 2.5522 5.40795 2.39856 5.48581C2.24492 5.56367 2.06787 5.58086 1.90227 5.53399L1.7852 5.48965L0.737063 4.97554C0.582344 4.89987 0.461378 4.76868 0.397971 4.60778C0.334564 4.44688 0.333308 4.26793 0.39445 4.10615C0.455592 3.94437 0.574703 3.81147 0.728344 3.73361C0.881985 3.65574 1.05903 3.63856 1.22463 3.68543ZM10.9664 0.394324C11.1114 0.465509 11.2269 0.585662 11.2929 0.733818C11.3588 0.881974 11.371 1.04873 11.3272 1.20497L11.2831 1.32138L10.7722 2.3773C10.6969 2.53296 10.5665 2.65467 10.4066 2.71846C10.2467 2.78226 10.0688 2.78352 9.90805 2.72201C9.74725 2.66049 9.61516 2.54065 9.53776 2.38607C9.46037 2.23149 9.44329 2.05337 9.48988 1.88675L9.53395 1.76897L10.0449 0.713041C10.0846 0.631038 10.14 0.55772 10.2079 0.497293C10.2757 0.436866 10.3548 0.390518 10.4406 0.360907C10.5263 0.331296 10.617 0.319006 10.7075 0.32474C10.7979 0.330474 10.885 0.354121 10.9664 0.394324ZM5.74772 0.34998L5.79868 0.46361L6.17882 1.57496C6.2347 1.73856 6.22774 1.91726 6.1593 2.07595C6.09086 2.23464 5.9659 2.36183 5.80897 2.43252C5.65205 2.50321 5.47452 2.51229 5.31129 2.45796C5.14805 2.40364 5.01092 2.28985 4.92685 2.13896L4.87588 2.02533L4.49712 0.915357C4.44212 0.75215 4.44954 0.574178 4.51794 0.416181C4.58634 0.258184 4.71081 0.131504 4.86705 0.0608705C5.02329 -0.00976292 5.20009 -0.01928 5.36293 0.0341772C5.52576 0.0876344 5.66296 0.200229 5.74772 0.34998Z" fill="#FF9600"/>
</svg>
