<svg width="19" height="20" viewBox="0 0 19 20" fill="none" xmlns="http://www.w3.org/2000/svg">
<path d="M9.74821 18.7501C7.40488 18.7497 5.15413 17.8352 3.47444 16.2013C1.79476 14.5673 0.818597 12.3426 0.753479 10.0002C0.688361 7.6578 1.53942 5.38234 3.12574 3.65758C4.71205 1.93282 6.90852 0.894775 9.24821 0.764122V0.750122C8.89421 1.71612 8.74821 2.66112 8.74821 3.75012C8.74821 6.13707 9.69642 8.42626 11.3842 10.1141C13.0721 11.8019 15.3613 12.7501 17.7482 12.7501C17.9872 12.7501 18.0022 12.7681 18.2362 12.7501C17.6157 14.5053 16.4661 16.0248 14.946 17.0994C13.4258 18.174 11.6098 18.7507 9.74821 18.7501Z" stroke="#FF9600" stroke-width="1.5" stroke-linecap="round" stroke-linejoin="round"/>
</svg>
