<svg width="372" height="600" viewBox="0 0 372 600" fill="none" xmlns="http://www.w3.org/2000/svg">
<path d="M0 16C0 7.16343 7.16344 0 16 0H356C364.837 0 372 7.16344 372 16V584C372 592.837 364.837 600 356 600H16C7.16345 600 0 592.837 0 584V16Z" fill="#FFFEFA"/>
<g filter="url(#filter0_i_382_4074)">
<path d="M76 31C76 22.1634 83.1634 15 92 15H280C288.837 15 296 22.1634 296 31V54C296 62.8366 288.837 70 280 70H92C83.1634 70 76 62.8366 76 54V31Z" fill="#FFFEFA"/>
<path d="M113.575 41.3968C114.212 41.3968 114.822 41.6514 115.272 42.1047C115.722 42.5579 115.975 43.1726 115.975 43.8136C115.975 44.4545 115.722 45.0692 115.272 45.5224C114.822 45.9757 114.212 46.2303 113.575 46.2303H115.975C116.612 46.2303 117.222 46.4849 117.672 46.9381C118.122 47.3913 118.375 48.006 118.375 48.647C118.375 49.288 118.122 49.9027 117.672 50.3559C117.222 50.8091 116.612 51.0637 115.975 51.0637H102.775C102.138 51.0637 101.528 50.8091 101.078 50.3559C100.628 49.9027 100.375 49.288 100.375 48.647C100.375 48.006 100.628 47.3913 101.078 46.9381C101.528 46.4849 102.138 46.2303 102.775 46.2303H105.175C104.538 46.2303 103.928 45.9757 103.478 45.5224C103.028 45.0692 102.775 44.4545 102.775 43.8136C102.775 43.1726 103.028 42.5579 103.478 42.1047C103.928 41.6514 104.538 41.3968 105.175 41.3968H107.575C106.938 41.3968 106.328 41.1422 105.878 40.689C105.428 40.2358 105.175 39.6211 105.175 38.9801C105.175 38.3391 105.428 37.7244 105.878 37.2712C106.328 36.818 106.938 36.5634 107.575 36.5634C108.348 36.5637 109.1 36.3137 109.72 35.8503C110.341 35.387 110.797 34.7349 111.021 33.9904C111.052 33.8899 111.108 33.7992 111.184 33.7272C111.261 33.6553 111.354 33.6046 111.456 33.5802C111.557 33.5558 111.663 33.5585 111.764 33.5881C111.864 33.6176 111.955 33.673 112.027 33.7487C112.998 34.7044 113.733 35.8751 114.175 37.1676C114.705 39.0607 113.889 41.3968 111.175 41.3968H113.575Z" stroke="#FF9600" stroke-linecap="round" stroke-linejoin="round"/>
<path d="M141.552 31.34H143.208V41.468C143.208 42.668 143.152 43.828 143.04 44.948C142.944 46.068 142.728 47.14 142.392 48.164C142.056 49.172 141.56 50.124 140.904 51.02C140.264 51.9 139.392 52.708 138.288 53.444C138.208 53.316 138.088 53.172 137.928 53.012C137.768 52.868 137.608 52.724 137.448 52.58C137.288 52.436 137.144 52.324 137.016 52.244C138.024 51.572 138.832 50.836 139.44 50.036C140.048 49.236 140.504 48.38 140.808 47.468C141.112 46.556 141.312 45.604 141.408 44.612C141.504 43.604 141.552 42.556 141.552 41.468V31.34ZM145.704 31.34H147.408V53.396H145.704V31.34ZM137.616 35.444H142.296V37.1H137.616V35.444ZM146.592 35.444H151.632V37.1H146.592V35.444ZM146.688 40.46H151.392V42.092H146.688V40.46ZM146.568 45.692H152.04V47.348H146.568V45.692ZM137.784 40.46H142.344V42.092H137.784V40.46ZM136.44 46.724C137.128 46.532 137.928 46.292 138.84 46.004C139.768 45.716 140.728 45.412 141.72 45.092L141.984 46.508C141.152 46.828 140.32 47.14 139.488 47.444C138.656 47.732 137.872 48.012 137.136 48.284L136.44 46.724ZM129.672 43.796C130.6 43.524 131.72 43.188 133.032 42.788C134.36 42.372 135.704 41.948 137.064 41.516L137.328 43.172C136.08 43.588 134.824 44.004 133.56 44.42C132.296 44.836 131.152 45.204 130.128 45.524L129.672 43.796ZM130.008 36.188H137.28V37.868H130.008V36.188ZM133.008 31.364H134.688V51.332C134.688 51.812 134.624 52.188 134.496 52.46C134.384 52.732 134.176 52.94 133.872 53.084C133.584 53.228 133.2 53.324 132.72 53.372C132.24 53.42 131.616 53.436 130.848 53.42C130.832 53.212 130.768 52.94 130.656 52.604C130.56 52.284 130.456 51.996 130.344 51.74C130.856 51.756 131.32 51.764 131.736 51.764C132.168 51.78 132.456 51.78 132.6 51.764C132.744 51.764 132.848 51.732 132.912 51.668C132.976 51.62 133.008 51.508 133.008 51.332V31.364ZM160.872 32.708H175.728V34.34H160.872V32.708ZM162.408 46.1C163.176 47.236 164.224 48.188 165.552 48.956C166.896 49.708 168.472 50.3 170.28 50.732C172.104 51.164 174.104 51.452 176.28 51.596C176.152 51.74 176.016 51.908 175.872 52.1C175.728 52.308 175.592 52.508 175.464 52.7C175.352 52.908 175.264 53.1 175.2 53.276C172.992 53.068 170.96 52.7 169.104 52.172C167.264 51.66 165.64 50.956 164.232 50.06C162.84 49.148 161.712 48.012 160.848 46.652L162.408 46.1ZM163.2 41.588V44.084H173.136V41.588H163.2ZM163.2 37.772V40.22H173.136V37.772H163.2ZM161.52 36.356H174.888V45.476H161.52V36.356ZM167.424 33.212H169.2V42.788C169.2 43.652 169.144 44.508 169.032 45.356C168.92 46.204 168.696 47.028 168.36 47.828C168.024 48.612 167.536 49.356 166.896 50.06C166.256 50.748 165.416 51.38 164.376 51.956C163.336 52.548 162.048 53.06 160.512 53.492C160.448 53.348 160.352 53.18 160.224 52.988C160.096 52.812 159.96 52.628 159.816 52.436C159.688 52.26 159.56 52.116 159.432 52.004C160.936 51.652 162.184 51.236 163.176 50.756C164.168 50.26 164.944 49.708 165.504 49.1C166.08 48.492 166.504 47.844 166.776 47.156C167.048 46.468 167.224 45.756 167.304 45.02C167.384 44.268 167.424 43.516 167.424 42.764V33.212ZM159.168 31.436L160.872 31.916C160.408 33.276 159.864 34.62 159.24 35.948C158.616 37.26 157.936 38.5 157.2 39.668C156.464 40.836 155.696 41.876 154.896 42.788C154.848 42.644 154.76 42.46 154.632 42.236C154.504 42.012 154.368 41.788 154.224 41.564C154.08 41.324 153.952 41.14 153.84 41.012C154.56 40.228 155.248 39.324 155.904 38.3C156.576 37.26 157.184 36.156 157.728 34.988C158.288 33.82 158.768 32.636 159.168 31.436ZM156.84 37.604L158.544 35.9L158.568 35.924V53.372H156.84V37.604ZM184.008 34.34H188.568V35.9H184.008V34.34ZM177.984 38.564H189.192V40.196H177.984V38.564ZM183.144 31.46H184.752V39.38H183.144V31.46ZM179.688 33.236H181.176V39.668H179.688V33.236ZM186.72 44.948L188.28 45.428C187.576 47.46 186.48 49.14 184.992 50.468C183.504 51.78 181.6 52.796 179.28 53.516C179.2 53.276 179.056 53.02 178.848 52.748C178.656 52.476 178.464 52.244 178.272 52.052C180.448 51.476 182.24 50.604 183.648 49.436C185.056 48.268 186.08 46.772 186.72 44.948ZM186.072 41.588L187.464 41.108C187.848 41.716 188.216 42.38 188.568 43.1C188.92 43.82 189.176 44.436 189.336 44.948L187.848 45.524C187.72 45.012 187.488 44.388 187.152 43.652C186.816 42.9 186.456 42.212 186.072 41.588ZM183.144 39.716H184.752V46.004C184.752 46.404 184.704 46.724 184.608 46.964C184.528 47.188 184.352 47.364 184.08 47.492C183.808 47.62 183.464 47.7 183.048 47.732C182.632 47.748 182.12 47.756 181.512 47.756C181.496 47.532 181.44 47.284 181.344 47.012C181.264 46.74 181.176 46.492 181.08 46.268C181.48 46.284 181.848 46.292 182.184 46.292C182.52 46.292 182.744 46.284 182.856 46.268C183.048 46.268 183.144 46.172 183.144 45.98V39.716ZM180.096 41.18L181.68 41.54C181.408 42.484 181.056 43.412 180.624 44.324C180.208 45.22 179.76 45.988 179.28 46.628C179.184 46.532 179.048 46.436 178.872 46.34C178.696 46.228 178.512 46.124 178.32 46.028C178.144 45.932 177.992 45.852 177.864 45.788C178.36 45.212 178.8 44.516 179.184 43.7C179.568 42.868 179.872 42.028 180.096 41.18ZM188.976 32.468H199.896V34.028H188.976V32.468ZM191.328 41.42V43.748H197.712V41.42H191.328ZM191.328 45.092V47.444H197.712V45.092H191.328ZM191.328 37.748V40.052H197.712V37.748H191.328ZM189.744 36.332H199.344V48.86H189.744V36.332ZM193.632 33.212L195.528 33.452C195.352 34.14 195.16 34.828 194.952 35.516C194.744 36.204 194.552 36.804 194.376 37.316L192.888 37.028C192.984 36.676 193.08 36.276 193.176 35.828C193.272 35.364 193.36 34.908 193.44 34.46C193.536 33.996 193.6 33.58 193.632 33.212ZM191.904 49.268L193.464 50.204C193.064 50.604 192.584 51.012 192.024 51.428C191.48 51.844 190.904 52.228 190.296 52.58C189.688 52.932 189.096 53.228 188.52 53.468C188.376 53.308 188.184 53.108 187.944 52.868C187.704 52.644 187.488 52.452 187.296 52.292C187.872 52.068 188.456 51.788 189.048 51.452C189.64 51.1 190.184 50.74 190.68 50.372C191.176 49.988 191.584 49.62 191.904 49.268ZM195.264 50.276L196.608 49.388C197.056 49.676 197.52 50.004 198 50.372C198.48 50.74 198.936 51.108 199.368 51.476C199.8 51.828 200.152 52.156 200.424 52.46L199.008 53.444C198.752 53.156 198.408 52.82 197.976 52.436C197.56 52.068 197.112 51.692 196.632 51.308C196.152 50.924 195.696 50.58 195.264 50.276ZM212.016 31.34H213.84V34.724H212.016V31.34ZM212.016 45.044H213.84V53.492H212.016V45.044ZM202.296 46.916H223.728V48.596H202.296V46.916ZM203.016 34.028H223.056V35.708H203.016V34.028ZM221.16 36.356L222.744 37.172C222.136 37.732 221.472 38.276 220.752 38.804C220.032 39.332 219.368 39.796 218.76 40.196L217.44 39.404C217.84 39.132 218.272 38.82 218.736 38.468C219.2 38.116 219.648 37.756 220.08 37.388C220.512 37.004 220.872 36.66 221.16 36.356ZM211.632 35.3L213.192 35.924C212.744 36.532 212.264 37.156 211.752 37.796C211.24 38.42 210.76 38.956 210.312 39.404L209.136 38.876C209.424 38.54 209.72 38.164 210.024 37.748C210.328 37.332 210.616 36.908 210.888 36.476C211.176 36.044 211.424 35.652 211.632 35.3ZM215.136 37.148L216.552 37.844C215.928 38.612 215.24 39.412 214.488 40.244C213.736 41.076 212.976 41.884 212.208 42.668C211.44 43.436 210.72 44.108 210.048 44.684L208.944 44.06C209.632 43.468 210.352 42.772 211.104 41.972C211.856 41.156 212.584 40.332 213.288 39.5C214.008 38.652 214.624 37.868 215.136 37.148ZM208.104 38.852L208.992 37.796C209.456 38.068 209.944 38.38 210.456 38.732C210.968 39.084 211.456 39.436 211.92 39.788C212.384 40.124 212.752 40.436 213.024 40.724L212.088 41.924C211.816 41.62 211.448 41.292 210.984 40.94C210.536 40.572 210.056 40.204 209.544 39.836C209.048 39.468 208.568 39.14 208.104 38.852ZM207.792 43.508C208.576 43.476 209.464 43.444 210.456 43.412C211.464 43.364 212.528 43.308 213.648 43.244C214.784 43.18 215.928 43.124 217.08 43.076L217.056 44.396C215.424 44.524 213.824 44.644 212.256 44.756C210.688 44.868 209.288 44.972 208.056 45.068L207.792 43.508ZM214.224 41.348L215.52 40.724C215.92 41.172 216.32 41.66 216.72 42.188C217.136 42.7 217.504 43.212 217.824 43.724C218.16 44.236 218.416 44.692 218.592 45.092L217.2 45.812C217.04 45.396 216.8 44.932 216.48 44.42C216.16 43.892 215.8 43.364 215.4 42.836C215.016 42.292 214.624 41.796 214.224 41.348ZM202.2 44.012C202.968 43.724 203.888 43.356 204.96 42.908C206.032 42.46 207.128 42.004 208.248 41.54L208.584 42.908C207.64 43.356 206.688 43.804 205.728 44.252C204.768 44.7 203.888 45.1 203.088 45.452L202.2 44.012ZM203.04 37.7L204.24 36.692C204.704 36.916 205.176 37.188 205.656 37.508C206.136 37.812 206.592 38.116 207.024 38.42C207.456 38.724 207.808 39.012 208.08 39.284L206.832 40.412C206.56 40.14 206.208 39.844 205.776 39.524C205.36 39.188 204.912 38.86 204.432 38.54C203.968 38.22 203.504 37.94 203.04 37.7ZM216.984 42.284L218.232 41.252C218.856 41.556 219.512 41.908 220.2 42.308C220.904 42.692 221.568 43.084 222.192 43.484C222.816 43.868 223.336 44.228 223.752 44.564L222.432 45.716C222.048 45.38 221.544 45.012 220.92 44.612C220.312 44.196 219.664 43.788 218.976 43.388C218.288 42.972 217.624 42.604 216.984 42.284ZM229.224 32.972H244.968V53.036H243.048V34.772H231.072V53.156H229.224V32.972ZM230.472 41.276H243.864V43.052H230.472V41.276ZM230.424 49.796H243.888V51.596H230.424V49.796ZM253.032 32.492H271.656V34.124H253.032V32.492ZM253.368 51.212H271.728V52.748H253.368V51.212ZM262.752 46.796H269.424V48.26H262.752V46.796ZM251.928 32.492H253.656V39.596C253.656 40.588 253.624 41.676 253.56 42.86C253.512 44.044 253.408 45.252 253.248 46.484C253.088 47.716 252.848 48.924 252.528 50.108C252.224 51.292 251.824 52.38 251.328 53.372C251.232 53.276 251.088 53.172 250.896 53.06C250.704 52.948 250.512 52.836 250.32 52.724C250.128 52.628 249.96 52.556 249.816 52.508C250.296 51.548 250.672 50.524 250.944 49.436C251.232 48.332 251.448 47.204 251.592 46.052C251.736 44.9 251.824 43.772 251.856 42.668C251.904 41.564 251.928 40.54 251.928 39.596V32.492ZM261.792 44.396H263.544V52.076H261.792V44.396ZM256.44 46.124H258.168V52.076H256.44V46.124ZM254.376 38.396H261.84V39.74H254.376V38.396ZM257.496 35.684H259.008V44.444H257.496V35.684ZM257.28 38.948L258.336 39.356C258.064 39.98 257.728 40.612 257.328 41.252C256.928 41.876 256.488 42.46 256.008 43.004C255.544 43.532 255.072 43.98 254.592 44.348C254.48 44.156 254.32 43.956 254.112 43.748C253.904 43.524 253.72 43.348 253.56 43.22C254.04 42.916 254.512 42.54 254.976 42.092C255.44 41.628 255.872 41.124 256.272 40.58C256.672 40.036 257.008 39.492 257.28 38.948ZM262.56 38.396H271.32V39.74H262.56V38.396ZM265.848 35.684H267.384V44.444H265.848V35.684ZM265.32 38.948L266.4 39.332C266.128 39.972 265.768 40.612 265.32 41.252C264.888 41.892 264.408 42.484 263.88 43.028C263.368 43.556 262.856 43.996 262.344 44.348C262.232 44.172 262.072 43.972 261.864 43.748C261.672 43.524 261.488 43.348 261.312 43.22C261.824 42.932 262.336 42.564 262.848 42.116C263.36 41.652 263.832 41.148 264.264 40.604C264.696 40.044 265.048 39.492 265.32 38.948ZM258.912 39.788C259.04 39.868 259.24 40.004 259.512 40.196C259.784 40.388 260.064 40.596 260.352 40.82C260.656 41.028 260.936 41.228 261.192 41.42C261.448 41.596 261.632 41.732 261.744 41.828L260.808 42.98C260.664 42.836 260.472 42.652 260.232 42.428C259.992 42.204 259.728 41.964 259.44 41.708C259.168 41.452 258.904 41.22 258.648 41.012C258.392 40.788 258.184 40.612 258.024 40.484L258.912 39.788ZM267.888 38.972C268.16 39.516 268.504 40.052 268.92 40.58C269.352 41.108 269.832 41.588 270.36 42.02C270.904 42.436 271.464 42.772 272.04 43.028C271.864 43.172 271.672 43.364 271.464 43.604C271.256 43.828 271.088 44.044 270.96 44.252C270.4 43.916 269.856 43.492 269.328 42.98C268.8 42.452 268.312 41.876 267.864 41.252C267.432 40.612 267.08 39.964 266.808 39.308L267.888 38.972ZM260.256 34.7L261.504 35.684C260.928 35.908 260.264 36.108 259.512 36.284C258.776 36.46 258.008 36.604 257.208 36.716C256.408 36.828 255.632 36.916 254.88 36.98C254.848 36.836 254.784 36.66 254.688 36.452C254.608 36.228 254.528 36.036 254.448 35.876C255.152 35.812 255.864 35.724 256.584 35.612C257.32 35.484 258.016 35.348 258.672 35.204C259.328 35.06 259.856 34.892 260.256 34.7ZM268.944 34.652L270.192 35.612C269.568 35.836 268.848 36.044 268.032 36.236C267.232 36.412 266.4 36.556 265.536 36.668C264.672 36.78 263.84 36.868 263.04 36.932C263.024 36.772 262.968 36.588 262.872 36.38C262.792 36.156 262.704 35.972 262.608 35.828C263.376 35.748 264.152 35.652 264.936 35.54C265.736 35.428 266.488 35.3 267.192 35.156C267.896 34.996 268.48 34.828 268.944 34.652Z" fill="#FF9600"/>
</g>
<path d="M0 116C0 107.163 7.16344 100 16 100H356C364.837 100 372 107.163 372 116V400C372 408.837 364.837 416 356 416H16C7.16345 416 0 408.837 0 400V116Z" fill="#FFFEFA"/>
<path d="M173.799 135L179.073 123.588H172.143V122.148H180.765V123.372L175.545 135H173.799ZM186.224 120.834H195.602V122.148H186.224V120.834ZM186.224 125.172H195.692V126.45H186.224V125.172ZM186.08 129.51H195.602V130.824H186.08V129.51ZM185.378 120.834H186.746V126.378C186.746 127.158 186.704 127.992 186.62 128.88C186.548 129.768 186.392 130.668 186.152 131.58C185.912 132.48 185.552 133.35 185.072 134.19C184.604 135.03 183.98 135.786 183.2 136.458C183.14 136.362 183.044 136.248 182.912 136.116C182.792 135.984 182.666 135.858 182.534 135.738C182.402 135.63 182.282 135.546 182.174 135.486C182.906 134.838 183.482 134.142 183.902 133.398C184.334 132.642 184.652 131.862 184.856 131.058C185.072 130.254 185.21 129.456 185.27 128.664C185.342 127.86 185.378 127.098 185.378 126.378V120.834ZM195.008 120.834H196.43V134.442C196.43 134.922 196.358 135.288 196.214 135.54C196.07 135.792 195.83 135.978 195.494 136.098C195.146 136.218 194.66 136.29 194.036 136.314C193.412 136.35 192.62 136.368 191.66 136.368C191.636 136.224 191.588 136.068 191.516 135.9C191.456 135.732 191.384 135.558 191.3 135.378C191.228 135.21 191.156 135.066 191.084 134.946C191.588 134.958 192.068 134.97 192.524 134.982C192.992 134.982 193.394 134.982 193.73 134.982C194.078 134.97 194.318 134.964 194.45 134.964C194.666 134.952 194.81 134.91 194.882 134.838C194.966 134.754 195.008 134.616 195.008 134.424V120.834Z" fill="#FF9600"/>
<path d="M29.1756 182.562C29.1756 183.33 28.9896 183.984 28.6176 184.524C28.2456 185.052 27.7116 185.46 27.0156 185.748C26.3316 186.036 25.5216 186.18 24.5856 186.18C24.1056 186.18 23.6436 186.156 23.1996 186.108C22.7676 186.06 22.3716 185.994 22.0116 185.91C21.6516 185.814 21.3336 185.7 21.0576 185.568V184.02C21.4896 184.212 22.0236 184.386 22.6596 184.542C23.3076 184.698 23.9736 184.776 24.6576 184.776C25.2936 184.776 25.8276 184.692 26.2596 184.524C26.6916 184.356 27.0156 184.116 27.2316 183.804C27.4476 183.492 27.5556 183.126 27.5556 182.706C27.5556 182.286 27.4656 181.932 27.2856 181.644C27.1056 181.356 26.7936 181.092 26.3496 180.852C25.9176 180.6 25.3116 180.336 24.5316 180.06C23.9796 179.856 23.4936 179.64 23.0736 179.412C22.6656 179.172 22.3236 178.902 22.0476 178.602C21.7716 178.302 21.5616 177.96 21.4176 177.576C21.2856 177.192 21.2196 176.748 21.2196 176.244C21.2196 175.56 21.3936 174.978 21.7416 174.498C22.0896 174.006 22.5696 173.628 23.1816 173.364C23.8056 173.1 24.5196 172.968 25.3236 172.968C26.0316 172.968 26.6796 173.034 27.2676 173.166C27.8556 173.298 28.3896 173.472 28.8696 173.688L28.3656 175.074C27.9216 174.882 27.4356 174.72 26.9076 174.588C26.3916 174.456 25.8516 174.39 25.2876 174.39C24.7476 174.39 24.2976 174.468 23.9376 174.624C23.5776 174.78 23.3076 175.002 23.1276 175.29C22.9476 175.566 22.8576 175.89 22.8576 176.262C22.8576 176.694 22.9476 177.054 23.1276 177.342C23.3076 177.63 23.6016 177.888 24.0096 178.116C24.4176 178.344 24.9696 178.59 25.6656 178.854C26.4216 179.13 27.0576 179.43 27.5736 179.754C28.1016 180.066 28.4976 180.444 28.7616 180.888C29.0376 181.332 29.1756 181.89 29.1756 182.562ZM41.5386 181.464C41.5386 182.352 41.3586 183.156 40.9986 183.876C40.6386 184.584 40.0866 185.148 39.3426 185.568C38.6106 185.976 37.6746 186.18 36.5346 186.18C34.9386 186.18 33.7206 185.748 32.8806 184.884C32.0526 184.008 31.6386 182.856 31.6386 181.428V173.148H33.2586V181.482C33.2586 182.526 33.5346 183.336 34.0866 183.912C34.6506 184.488 35.4966 184.776 36.6246 184.776C37.4046 184.776 38.0346 184.638 38.5146 184.362C39.0066 184.074 39.3666 183.684 39.5946 183.192C39.8226 182.688 39.9366 182.112 39.9366 181.464V173.148H41.5386V181.464ZM55.1186 186H53.2286L46.3526 175.326H46.2806C46.3046 175.602 46.3226 175.932 46.3346 176.316C46.3586 176.688 46.3766 177.09 46.3886 177.522C46.4126 177.942 46.4246 178.374 46.4246 178.818V186H44.9306V173.148H46.8026L53.6606 183.786H53.7326C53.7206 183.594 53.7026 183.306 53.6786 182.922C53.6666 182.538 53.6486 182.118 53.6246 181.662C53.6126 181.206 53.6066 180.786 53.6066 180.402V173.148H55.1186V186Z" fill="#FFC500"/>
<path d="M37 226H28.504V224.686L31.87 221.284C32.518 220.636 33.064 220.06 33.508 219.556C33.952 219.052 34.288 218.56 34.516 218.08C34.744 217.588 34.858 217.054 34.858 216.478C34.858 215.77 34.648 215.236 34.228 214.876C33.808 214.504 33.262 214.318 32.59 214.318C31.966 214.318 31.414 214.426 30.934 214.642C30.466 214.858 29.986 215.158 29.494 215.542L28.648 214.48C28.984 214.192 29.35 213.934 29.746 213.706C30.154 213.478 30.592 213.298 31.06 213.166C31.54 213.034 32.05 212.968 32.59 212.968C33.394 212.968 34.084 213.106 34.66 213.382C35.236 213.658 35.68 214.054 35.992 214.57C36.316 215.074 36.478 215.68 36.478 216.388C36.478 217.06 36.34 217.69 36.064 218.278C35.788 218.866 35.404 219.448 34.912 220.024C34.42 220.588 33.844 221.194 33.184 221.842L30.502 224.488V224.56H37V226ZM47.3007 218.638C47.3007 219.37 47.2467 220.102 47.1387 220.834C47.0427 221.554 46.8687 222.238 46.6167 222.886C46.3647 223.522 46.0167 224.092 45.5727 224.596C45.1287 225.088 44.5647 225.478 43.8807 225.766C43.1967 226.042 42.3687 226.18 41.3967 226.18C41.1567 226.18 40.8747 226.162 40.5507 226.126C40.2387 226.102 39.9807 226.06 39.7767 226V224.65C39.9927 224.722 40.2447 224.782 40.5327 224.83C40.8207 224.866 41.0967 224.884 41.3607 224.884C42.2007 224.884 42.8907 224.746 43.4307 224.47C43.9827 224.194 44.4207 223.822 44.7447 223.354C45.0687 222.874 45.3027 222.322 45.4467 221.698C45.5907 221.062 45.6747 220.396 45.6987 219.7H45.5907C45.4107 219.976 45.1827 220.228 44.9067 220.456C44.6307 220.684 44.2947 220.864 43.8987 220.996C43.5147 221.128 43.0587 221.194 42.5307 221.194C41.7987 221.194 41.1507 221.044 40.5867 220.744C40.0347 220.432 39.6027 219.988 39.2907 219.412C38.9907 218.836 38.8407 218.134 38.8407 217.306C38.8407 216.406 39.0087 215.632 39.3447 214.984C39.6927 214.336 40.1727 213.838 40.7847 213.49C41.3967 213.142 42.1167 212.968 42.9447 212.968C43.5567 212.968 44.1267 213.088 44.6547 213.328C45.1827 213.556 45.6447 213.904 46.0407 214.372C46.4367 214.84 46.7427 215.428 46.9587 216.136C47.1867 216.844 47.3007 217.678 47.3007 218.638ZM42.9447 214.3C42.2007 214.3 41.5887 214.546 41.1087 215.038C40.6407 215.53 40.4067 216.28 40.4067 217.288C40.4067 218.116 40.6047 218.77 41.0007 219.25C41.4087 219.718 42.0327 219.952 42.8727 219.952C43.4487 219.952 43.9467 219.838 44.3667 219.61C44.7867 219.37 45.1107 219.07 45.3387 218.71C45.5787 218.35 45.6987 217.978 45.6987 217.594C45.6987 217.21 45.6387 216.826 45.5187 216.442C45.4107 216.046 45.2427 215.686 45.0147 215.362C44.7867 215.038 44.4987 214.78 44.1507 214.588C43.8027 214.396 43.4007 214.3 42.9447 214.3Z" fill="#FFC500"/>
<path d="M33.7803 260.51C33.7803 259.766 33.8283 259.034 33.9243 258.314C34.0323 257.594 34.2123 256.916 34.4643 256.28C34.7163 255.632 35.0643 255.062 35.5083 254.57C35.9523 254.066 36.5103 253.676 37.1823 253.4C37.8663 253.112 38.6943 252.968 39.6663 252.968C39.9183 252.968 40.1943 252.98 40.4943 253.004C40.8063 253.028 41.0583 253.07 41.2503 253.13V254.48C41.0343 254.408 40.7883 254.354 40.5123 254.318C40.2483 254.282 39.9783 254.264 39.7023 254.264C38.8743 254.264 38.1843 254.402 37.6323 254.678C37.0803 254.954 36.6423 255.332 36.3183 255.812C36.0063 256.292 35.7783 256.844 35.6343 257.468C35.4903 258.092 35.4003 258.758 35.3643 259.466H35.4723C35.6523 259.178 35.8803 258.92 36.1563 258.692C36.4323 258.464 36.7623 258.284 37.1463 258.152C37.5423 258.02 37.9983 257.954 38.5143 257.954C39.2583 257.954 39.9063 258.11 40.4583 258.422C41.0223 258.722 41.4603 259.166 41.7723 259.754C42.0843 260.33 42.2403 261.032 42.2403 261.86C42.2403 262.748 42.0723 263.516 41.7363 264.164C41.4003 264.812 40.9263 265.31 40.3143 265.658C39.7143 266.006 38.9943 266.18 38.1543 266.18C37.5423 266.18 36.9723 266.066 36.4443 265.838C35.9163 265.61 35.4483 265.262 35.0403 264.794C34.6443 264.326 34.3323 263.738 34.1043 263.03C33.8883 262.31 33.7803 261.47 33.7803 260.51ZM38.1363 264.848C38.8923 264.848 39.5043 264.608 39.9723 264.128C40.4403 263.636 40.6743 262.88 40.6743 261.86C40.6743 261.044 40.4643 260.396 40.0443 259.916C39.6363 259.436 39.0183 259.196 38.1903 259.196C37.6263 259.196 37.1343 259.316 36.7143 259.556C36.2943 259.784 35.9643 260.078 35.7243 260.438C35.4963 260.798 35.3823 261.17 35.3823 261.554C35.3823 261.95 35.4363 262.34 35.5443 262.724C35.6643 263.108 35.8383 263.462 36.0663 263.786C36.3063 264.11 36.5943 264.368 36.9303 264.56C37.2783 264.752 37.6803 264.848 38.1363 264.848Z" fill="#FFC500"/>
<path d="M34.03 306H32.482V297.018C32.482 296.67 32.482 296.376 32.482 296.136C32.494 295.896 32.506 295.674 32.518 295.47C32.53 295.254 32.542 295.032 32.554 294.804C32.362 294.996 32.188 295.158 32.032 295.29C31.876 295.422 31.678 295.59 31.438 295.794L30.07 296.91L29.242 295.848L32.716 293.148H34.03V306ZM46.8147 296.154C46.8147 296.73 46.7067 297.228 46.4907 297.648C46.2747 298.068 45.9627 298.41 45.5547 298.674C45.1587 298.938 44.6907 299.124 44.1507 299.232V299.304C45.1827 299.424 45.9507 299.748 46.4547 300.276C46.9587 300.804 47.2107 301.494 47.2107 302.346C47.2107 303.09 47.0367 303.756 46.6887 304.344C46.3407 304.92 45.8007 305.37 45.0687 305.694C44.3487 306.018 43.4187 306.18 42.2787 306.18C41.6067 306.18 40.9827 306.126 40.4067 306.018C39.8307 305.922 39.2787 305.742 38.7507 305.478V304.002C39.2907 304.266 39.8727 304.476 40.4967 304.632C41.1207 304.776 41.7207 304.848 42.2967 304.848C43.4487 304.848 44.2767 304.626 44.7807 304.182C45.2967 303.726 45.5547 303.102 45.5547 302.31C45.5547 301.77 45.4107 301.338 45.1227 301.014C44.8467 300.678 44.4387 300.432 43.8987 300.276C43.3587 300.12 42.7107 300.042 41.9547 300.042H40.7127V298.692H41.9727C42.6807 298.692 43.2687 298.59 43.7367 298.386C44.2167 298.182 44.5767 297.9 44.8167 297.54C45.0687 297.168 45.1947 296.742 45.1947 296.262C45.1947 295.638 44.9847 295.158 44.5647 294.822C44.1447 294.474 43.5747 294.3 42.8547 294.3C42.3987 294.3 41.9847 294.348 41.6127 294.444C41.2407 294.528 40.8927 294.654 40.5687 294.822C40.2567 294.978 39.9387 295.164 39.6147 295.38L38.8227 294.3C39.2787 293.94 39.8427 293.628 40.5147 293.364C41.1987 293.1 41.9727 292.968 42.8367 292.968C44.1807 292.968 45.1767 293.268 45.8247 293.868C46.4847 294.468 46.8147 295.23 46.8147 296.154Z" fill="#FFC500"/>
<ellipse cx="37.903" cy="314.5" rx="3.56272" ry="3.5" fill="#FF9600"/>
<path d="M37 346H28.504V344.686L31.87 341.284C32.518 340.636 33.064 340.06 33.508 339.556C33.952 339.052 34.288 338.56 34.516 338.08C34.744 337.588 34.858 337.054 34.858 336.478C34.858 335.77 34.648 335.236 34.228 334.876C33.808 334.504 33.262 334.318 32.59 334.318C31.966 334.318 31.414 334.426 30.934 334.642C30.466 334.858 29.986 335.158 29.494 335.542L28.648 334.48C28.984 334.192 29.35 333.934 29.746 333.706C30.154 333.478 30.592 333.298 31.06 333.166C31.54 333.034 32.05 332.968 32.59 332.968C33.394 332.968 34.084 333.106 34.66 333.382C35.236 333.658 35.68 334.054 35.992 334.57C36.316 335.074 36.478 335.68 36.478 336.388C36.478 337.06 36.34 337.69 36.064 338.278C35.788 338.866 35.404 339.448 34.912 340.024C34.42 340.588 33.844 341.194 33.184 341.842L30.502 344.488V344.56H37V346ZM47.3547 339.556C47.3547 340.6 47.2767 341.53 47.1207 342.346C46.9647 343.162 46.7127 343.858 46.3647 344.434C46.0287 344.998 45.5847 345.43 45.0327 345.73C44.4927 346.03 43.8387 346.18 43.0707 346.18C42.1107 346.18 41.3127 345.916 40.6767 345.388C40.0527 344.86 39.5847 344.104 39.2727 343.12C38.9727 342.124 38.8227 340.936 38.8227 339.556C38.8227 338.164 38.9607 336.976 39.2367 335.992C39.5247 335.008 39.9807 334.258 40.6047 333.742C41.2287 333.214 42.0507 332.95 43.0707 332.95C44.0307 332.95 44.8287 333.214 45.4647 333.742C46.1007 334.258 46.5747 335.008 46.8867 335.992C47.1987 336.976 47.3547 338.164 47.3547 339.556ZM40.4067 339.556C40.4067 340.732 40.4907 341.71 40.6587 342.49C40.8387 343.27 41.1207 343.858 41.5047 344.254C41.9007 344.638 42.4227 344.83 43.0707 344.83C43.7187 344.83 44.2347 344.638 44.6187 344.254C45.0147 343.87 45.3027 343.288 45.4827 342.508C45.6627 341.716 45.7527 340.732 45.7527 339.556C45.7527 338.38 45.6627 337.408 45.4827 336.64C45.3027 335.86 45.0147 335.278 44.6187 334.894C44.2347 334.498 43.7187 334.3 43.0707 334.3C42.4227 334.3 41.9007 334.498 41.5047 334.894C41.1207 335.278 40.8387 335.86 40.6587 336.64C40.4907 337.408 40.4067 338.38 40.4067 339.556Z" fill="#FFC500"/>
<path d="M37 386H28.504V384.686L31.87 381.284C32.518 380.636 33.064 380.06 33.508 379.556C33.952 379.052 34.288 378.56 34.516 378.08C34.744 377.588 34.858 377.054 34.858 376.478C34.858 375.77 34.648 375.236 34.228 374.876C33.808 374.504 33.262 374.318 32.59 374.318C31.966 374.318 31.414 374.426 30.934 374.642C30.466 374.858 29.986 375.158 29.494 375.542L28.648 374.48C28.984 374.192 29.35 373.934 29.746 373.706C30.154 373.478 30.592 373.298 31.06 373.166C31.54 373.034 32.05 372.968 32.59 372.968C33.394 372.968 34.084 373.106 34.66 373.382C35.236 373.658 35.68 374.054 35.992 374.57C36.316 375.074 36.478 375.68 36.478 376.388C36.478 377.06 36.34 377.69 36.064 378.278C35.788 378.866 35.404 379.448 34.912 380.024C34.42 380.588 33.844 381.194 33.184 381.842L30.502 384.488V384.56H37V386ZM40.3887 386L45.6627 374.588H38.7327V373.148H47.3547V374.372L42.1347 386H40.3887Z" fill="#FFC500"/>
<path d="M73.6673 186L69.4373 174.732H69.3653C69.3893 174.972 69.4073 175.278 69.4193 175.65C69.4433 176.022 69.4613 176.43 69.4733 176.874C69.4853 177.306 69.4913 177.75 69.4913 178.206V186H67.9973V173.148H70.3913L74.3513 183.678H74.4233L78.4553 173.148H80.8313V186H79.2293V178.098C79.2293 177.678 79.2353 177.264 79.2473 176.856C79.2593 176.436 79.2773 176.046 79.3013 175.686C79.3253 175.314 79.3433 175.002 79.3553 174.75H79.2833L74.9993 186H73.6673ZM95.5414 179.556C95.5414 180.552 95.4154 181.458 95.1634 182.274C94.9114 183.078 94.5334 183.774 94.0294 184.362C93.5374 184.95 92.9194 185.4 92.1754 185.712C91.4434 186.024 90.5914 186.18 89.6194 186.18C88.6114 186.18 87.7354 186.024 86.9914 185.712C86.2474 185.388 85.6294 184.938 85.1374 184.362C84.6454 183.774 84.2794 183.072 84.0394 182.256C83.7994 181.44 83.6794 180.534 83.6794 179.538C83.6794 178.218 83.8954 177.066 84.3274 176.082C84.7594 175.098 85.4134 174.33 86.2894 173.778C87.1774 173.226 88.2934 172.95 89.6374 172.95C90.9214 172.95 92.0014 173.226 92.8774 173.778C93.7534 174.318 94.4134 175.086 94.8574 176.082C95.3134 177.066 95.5414 178.224 95.5414 179.556ZM85.3894 179.556C85.3894 180.636 85.5394 181.566 85.8394 182.346C86.1394 183.126 86.6014 183.726 87.2254 184.146C87.8614 184.566 88.6594 184.776 89.6194 184.776C90.5914 184.776 91.3834 184.566 91.9954 184.146C92.6194 183.726 93.0814 183.126 93.3814 182.346C93.6814 181.566 93.8314 180.636 93.8314 179.556C93.8314 177.936 93.4954 176.67 92.8234 175.758C92.1514 174.834 91.0894 174.372 89.6374 174.372C88.6654 174.372 87.8614 174.582 87.2254 175.002C86.6014 175.41 86.1394 176.004 85.8394 176.784C85.5394 177.552 85.3894 178.476 85.3894 179.556ZM108.578 186H106.688L99.8119 175.326H99.7399C99.7639 175.602 99.7819 175.932 99.7939 176.316C99.8179 176.688 99.8359 177.09 99.8479 177.522C99.8719 177.942 99.8839 178.374 99.8839 178.818V186H98.3899V173.148H100.262L107.12 183.786H107.192C107.18 183.594 107.162 183.306 107.138 182.922C107.126 182.538 107.108 182.118 107.084 181.662C107.072 181.206 107.066 180.786 107.066 180.402V173.148H108.578V186Z" fill="#FF9600"/>
<path d="M85.868 216.154C85.868 216.73 85.76 217.228 85.544 217.648C85.328 218.068 85.016 218.41 84.608 218.674C84.212 218.938 83.744 219.124 83.204 219.232V219.304C84.236 219.424 85.004 219.748 85.508 220.276C86.012 220.804 86.264 221.494 86.264 222.346C86.264 223.09 86.09 223.756 85.742 224.344C85.394 224.92 84.854 225.37 84.122 225.694C83.402 226.018 82.472 226.18 81.332 226.18C80.66 226.18 80.036 226.126 79.46 226.018C78.884 225.922 78.332 225.742 77.804 225.478V224.002C78.344 224.266 78.926 224.476 79.55 224.632C80.174 224.776 80.774 224.848 81.35 224.848C82.502 224.848 83.33 224.626 83.834 224.182C84.35 223.726 84.608 223.102 84.608 222.31C84.608 221.77 84.464 221.338 84.176 221.014C83.9 220.678 83.492 220.432 82.952 220.276C82.412 220.12 81.764 220.042 81.008 220.042H79.766V218.692H81.026C81.734 218.692 82.322 218.59 82.79 218.386C83.27 218.182 83.63 217.9 83.87 217.54C84.122 217.168 84.248 216.742 84.248 216.262C84.248 215.638 84.038 215.158 83.618 214.822C83.198 214.474 82.628 214.3 81.908 214.3C81.452 214.3 81.038 214.348 80.666 214.444C80.294 214.528 79.946 214.654 79.622 214.822C79.31 214.978 78.992 215.164 78.668 215.38L77.876 214.3C78.332 213.94 78.896 213.628 79.568 213.364C80.252 213.1 81.026 212.968 81.89 212.968C83.234 212.968 84.23 213.268 84.878 213.868C85.538 214.468 85.868 215.23 85.868 216.154ZM96.7087 219.556C96.7087 220.6 96.6307 221.53 96.4747 222.346C96.3187 223.162 96.0667 223.858 95.7187 224.434C95.3827 224.998 94.9387 225.43 94.3867 225.73C93.8467 226.03 93.1927 226.18 92.4247 226.18C91.4647 226.18 90.6667 225.916 90.0307 225.388C89.4067 224.86 88.9387 224.104 88.6267 223.12C88.3267 222.124 88.1767 220.936 88.1767 219.556C88.1767 218.164 88.3147 216.976 88.5907 215.992C88.8787 215.008 89.3347 214.258 89.9587 213.742C90.5827 213.214 91.4047 212.95 92.4247 212.95C93.3847 212.95 94.1827 213.214 94.8187 213.742C95.4547 214.258 95.9287 215.008 96.2407 215.992C96.5527 216.976 96.7087 218.164 96.7087 219.556ZM89.7607 219.556C89.7607 220.732 89.8447 221.71 90.0127 222.49C90.1927 223.27 90.4747 223.858 90.8587 224.254C91.2547 224.638 91.7767 224.83 92.4247 224.83C93.0727 224.83 93.5887 224.638 93.9727 224.254C94.3687 223.87 94.6567 223.288 94.8367 222.508C95.0167 221.716 95.1067 220.732 95.1067 219.556C95.1067 218.38 95.0167 217.408 94.8367 216.64C94.6567 215.86 94.3687 215.278 93.9727 214.894C93.5887 214.498 93.0727 214.3 92.4247 214.3C91.7767 214.3 91.2547 214.498 90.8587 214.894C90.4747 215.278 90.1927 215.86 90.0127 216.64C89.8447 217.408 89.7607 218.38 89.7607 219.556Z" fill="#FF9600"/>
<path d="M84.5924 266L89.8664 254.588H82.9364V253.148H91.5584V254.372L86.3384 266H84.5924Z" fill="#FF9600"/>
<ellipse cx="86.7634" cy="274.5" rx="3.56272" ry="3.5" fill="#FF9600"/>
<path d="M83.384 306H81.836V297.018C81.836 296.67 81.836 296.376 81.836 296.136C81.848 295.896 81.86 295.674 81.872 295.47C81.884 295.254 81.896 295.032 81.908 294.804C81.716 294.996 81.542 295.158 81.386 295.29C81.23 295.422 81.032 295.59 80.792 295.794L79.424 296.91L78.596 295.848L82.07 293.148H83.384V306ZM97.2307 303.084H95.3587V306H93.8287V303.084H87.6727V301.734L93.7207 293.076H95.3587V301.662H97.2307V303.084ZM93.8287 297.612C93.8287 297.3 93.8287 297.018 93.8287 296.766C93.8407 296.502 93.8527 296.256 93.8647 296.028C93.8767 295.8 93.8827 295.584 93.8827 295.38C93.8947 295.164 93.9067 294.96 93.9187 294.768H93.8467C93.7507 294.996 93.6307 295.242 93.4867 295.506C93.3427 295.77 93.2047 295.992 93.0727 296.172L89.2207 301.662H93.8287V297.612Z" fill="#FF9600"/>
<path d="M86.354 346H77.858V344.686L81.224 341.284C81.872 340.636 82.418 340.06 82.862 339.556C83.306 339.052 83.642 338.56 83.87 338.08C84.098 337.588 84.212 337.054 84.212 336.478C84.212 335.77 84.002 335.236 83.582 334.876C83.162 334.504 82.616 334.318 81.944 334.318C81.32 334.318 80.768 334.426 80.288 334.642C79.82 334.858 79.34 335.158 78.848 335.542L78.002 334.48C78.338 334.192 78.704 333.934 79.1 333.706C79.508 333.478 79.946 333.298 80.414 333.166C80.894 333.034 81.404 332.968 81.944 332.968C82.748 332.968 83.438 333.106 84.014 333.382C84.59 333.658 85.034 334.054 85.346 334.57C85.67 335.074 85.832 335.68 85.832 336.388C85.832 337.06 85.694 337.69 85.418 338.278C85.142 338.866 84.758 339.448 84.266 340.024C83.774 340.588 83.198 341.194 82.538 341.842L79.856 344.488V344.56H86.354V346ZM93.6847 346H92.1367V337.018C92.1367 336.67 92.1367 336.376 92.1367 336.136C92.1487 335.896 92.1607 335.674 92.1727 335.47C92.1847 335.254 92.1967 335.032 92.2087 334.804C92.0167 334.996 91.8427 335.158 91.6867 335.29C91.5307 335.422 91.3327 335.59 91.0927 335.794L89.7247 336.91L88.8967 335.848L92.3707 333.148H93.6847V346Z" fill="#FF9600"/>
<path d="M86.354 386H77.858V384.686L81.224 381.284C81.872 380.636 82.418 380.06 82.862 379.556C83.306 379.052 83.642 378.56 83.87 378.08C84.098 377.588 84.212 377.054 84.212 376.478C84.212 375.77 84.002 375.236 83.582 374.876C83.162 374.504 82.616 374.318 81.944 374.318C81.32 374.318 80.768 374.426 80.288 374.642C79.82 374.858 79.34 375.158 78.848 375.542L78.002 374.48C78.338 374.192 78.704 373.934 79.1 373.706C79.508 373.478 79.946 373.298 80.414 373.166C80.894 373.034 81.404 372.968 81.944 372.968C82.748 372.968 83.438 373.106 84.014 373.382C84.59 373.658 85.034 374.054 85.346 374.57C85.67 375.074 85.832 375.68 85.832 376.388C85.832 377.06 85.694 377.69 85.418 378.278C85.142 378.866 84.758 379.448 84.266 380.024C83.774 380.588 83.198 381.194 82.538 381.842L79.856 384.488V384.56H86.354V386ZM92.4247 372.968C93.1807 372.968 93.8467 373.088 94.4227 373.328C94.9987 373.556 95.4487 373.898 95.7727 374.354C96.1087 374.81 96.2767 375.374 96.2767 376.046C96.2767 376.562 96.1627 377.012 95.9347 377.396C95.7187 377.78 95.4247 378.122 95.0527 378.422C94.6807 378.71 94.2727 378.968 93.8287 379.196C94.3567 379.448 94.8367 379.736 95.2687 380.06C95.7007 380.372 96.0427 380.738 96.2947 381.158C96.5587 381.578 96.6907 382.082 96.6907 382.67C96.6907 383.39 96.5167 384.014 96.1687 384.542C95.8207 385.058 95.3287 385.46 94.6927 385.748C94.0687 386.036 93.3307 386.18 92.4787 386.18C91.5547 386.18 90.7687 386.042 90.1207 385.766C89.4847 385.49 88.9987 385.1 88.6627 384.596C88.3387 384.08 88.1767 383.456 88.1767 382.724C88.1767 382.136 88.2967 381.626 88.5367 381.194C88.7887 380.762 89.1187 380.39 89.5267 380.078C89.9347 379.766 90.3727 379.502 90.8407 379.286C90.4207 379.046 90.0367 378.776 89.6887 378.476C89.3527 378.164 89.0827 377.81 88.8787 377.414C88.6867 377.018 88.5907 376.556 88.5907 376.028C88.5907 375.368 88.7587 374.816 89.0947 374.372C89.4307 373.916 89.8867 373.568 90.4627 373.328C91.0387 373.088 91.6927 372.968 92.4247 372.968ZM89.7247 382.742C89.7247 383.366 89.9467 383.888 90.3907 384.308C90.8347 384.716 91.5187 384.92 92.4427 384.92C93.3187 384.92 93.9847 384.716 94.4407 384.308C94.9087 383.888 95.1427 383.348 95.1427 382.688C95.1427 382.268 95.0287 381.902 94.8007 381.59C94.5847 381.266 94.2727 380.978 93.8647 380.726C93.4687 380.474 92.9947 380.246 92.4427 380.042L92.1547 379.934C91.6267 380.162 91.1827 380.408 90.8227 380.672C90.4627 380.936 90.1867 381.236 89.9947 381.572C89.8147 381.908 89.7247 382.298 89.7247 382.742ZM92.4067 374.246C91.7467 374.246 91.2007 374.408 90.7687 374.732C90.3487 375.044 90.1387 375.5 90.1387 376.1C90.1387 376.544 90.2407 376.916 90.4447 377.216C90.6607 377.516 90.9487 377.774 91.3087 377.99C91.6687 378.194 92.0647 378.392 92.4967 378.584C92.9167 378.404 93.2887 378.206 93.6127 377.99C93.9487 377.774 94.2127 377.516 94.4047 377.216C94.6087 376.904 94.7107 376.532 94.7107 376.1C94.7107 375.5 94.5007 375.044 94.0807 374.732C93.6607 374.408 93.1027 374.246 92.4067 374.246Z" fill="#FF9600"/>
<path d="M126.372 186H124.752V174.57H120.738V173.148H130.368V174.57H126.372V186ZM142.08 181.464C142.08 182.352 141.9 183.156 141.54 183.876C141.18 184.584 140.628 185.148 139.884 185.568C139.152 185.976 138.216 186.18 137.076 186.18C135.48 186.18 134.262 185.748 133.422 184.884C132.594 184.008 132.18 182.856 132.18 181.428V173.148H133.8V181.482C133.8 182.526 134.076 183.336 134.628 183.912C135.192 184.488 136.038 184.776 137.166 184.776C137.946 184.776 138.576 184.638 139.056 184.362C139.548 184.074 139.908 183.684 140.136 183.192C140.364 182.688 140.478 182.112 140.478 181.464V173.148H142.08V181.464ZM152.654 186H145.472V173.148H152.654V174.57H147.092V178.584H152.33V179.988H147.092V184.578H152.654V186Z" fill="#FF9600"/>
<path d="M137.889 226H136.341V217.018C136.341 216.67 136.341 216.376 136.341 216.136C136.353 215.896 136.365 215.674 136.377 215.47C136.389 215.254 136.401 215.032 136.413 214.804C136.221 214.996 136.047 215.158 135.891 215.29C135.735 215.422 135.537 215.59 135.297 215.794L133.929 216.91L133.101 215.848L136.575 213.148H137.889V226Z" fill="#FF9600"/>
<path d="M136.629 252.968C137.385 252.968 138.051 253.088 138.627 253.328C139.203 253.556 139.653 253.898 139.977 254.354C140.313 254.81 140.481 255.374 140.481 256.046C140.481 256.562 140.367 257.012 140.139 257.396C139.923 257.78 139.629 258.122 139.257 258.422C138.885 258.71 138.477 258.968 138.033 259.196C138.561 259.448 139.041 259.736 139.473 260.06C139.905 260.372 140.247 260.738 140.499 261.158C140.763 261.578 140.895 262.082 140.895 262.67C140.895 263.39 140.721 264.014 140.373 264.542C140.025 265.058 139.533 265.46 138.897 265.748C138.273 266.036 137.535 266.18 136.683 266.18C135.759 266.18 134.973 266.042 134.325 265.766C133.689 265.49 133.203 265.1 132.867 264.596C132.543 264.08 132.381 263.456 132.381 262.724C132.381 262.136 132.501 261.626 132.741 261.194C132.993 260.762 133.323 260.39 133.731 260.078C134.139 259.766 134.577 259.502 135.045 259.286C134.625 259.046 134.241 258.776 133.893 258.476C133.557 258.164 133.287 257.81 133.083 257.414C132.891 257.018 132.795 256.556 132.795 256.028C132.795 255.368 132.963 254.816 133.299 254.372C133.635 253.916 134.091 253.568 134.667 253.328C135.243 253.088 135.897 252.968 136.629 252.968ZM133.929 262.742C133.929 263.366 134.151 263.888 134.595 264.308C135.039 264.716 135.723 264.92 136.647 264.92C137.523 264.92 138.189 264.716 138.645 264.308C139.113 263.888 139.347 263.348 139.347 262.688C139.347 262.268 139.233 261.902 139.005 261.59C138.789 261.266 138.477 260.978 138.069 260.726C137.673 260.474 137.199 260.246 136.647 260.042L136.359 259.934C135.831 260.162 135.387 260.408 135.027 260.672C134.667 260.936 134.391 261.236 134.199 261.572C134.019 261.908 133.929 262.298 133.929 262.742ZM136.611 254.246C135.951 254.246 135.405 254.408 134.973 254.732C134.553 255.044 134.343 255.5 134.343 256.1C134.343 256.544 134.445 256.916 134.649 257.216C134.865 257.516 135.153 257.774 135.513 257.99C135.873 258.194 136.269 258.392 136.701 258.584C137.121 258.404 137.493 258.206 137.817 257.99C138.153 257.774 138.417 257.516 138.609 257.216C138.813 256.904 138.915 256.532 138.915 256.1C138.915 255.5 138.705 255.044 138.285 254.732C137.865 254.408 137.307 254.246 136.611 254.246Z" fill="#FF9600"/>
<path d="M132.739 306H131.191V297.018C131.191 296.67 131.191 296.376 131.191 296.136C131.203 295.896 131.215 295.674 131.227 295.47C131.239 295.254 131.251 295.032 131.263 294.804C131.071 294.996 130.897 295.158 130.741 295.29C130.585 295.422 130.387 295.59 130.147 295.794L128.779 296.91L127.951 295.848L131.425 293.148H132.739V306ZM141.6 298.116C142.476 298.116 143.238 298.266 143.886 298.566C144.534 298.866 145.032 299.298 145.38 299.862C145.74 300.414 145.92 301.092 145.92 301.896C145.92 302.784 145.728 303.552 145.344 304.2C144.96 304.836 144.408 305.328 143.688 305.676C142.98 306.012 142.122 306.18 141.114 306.18C140.454 306.18 139.83 306.12 139.242 306C138.666 305.88 138.18 305.706 137.784 305.478V303.984C138.216 304.248 138.738 304.458 139.35 304.614C139.974 304.758 140.568 304.83 141.132 304.83C141.768 304.83 142.32 304.734 142.788 304.542C143.268 304.338 143.64 304.032 143.904 303.624C144.168 303.204 144.3 302.682 144.3 302.058C144.3 301.218 144.042 300.576 143.526 300.132C143.01 299.676 142.194 299.448 141.078 299.448C140.742 299.448 140.358 299.478 139.926 299.538C139.494 299.598 139.146 299.658 138.882 299.718L138.09 299.214L138.576 293.148H145.02V294.588H139.926L139.62 298.314C139.824 298.278 140.1 298.236 140.448 298.188C140.796 298.14 141.18 298.116 141.6 298.116Z" fill="#FF9600"/>
<ellipse cx="136.641" cy="314.5" rx="3.56272" ry="3.5" fill="#FF9600"/>
<ellipse cx="86.7634" cy="354.5" rx="3.56272" ry="3.5" fill="#FF9600"/>
<ellipse cx="37.903" cy="394.5" rx="3.56272" ry="3.5" fill="#FF9600"/>
<ellipse cx="234.362" cy="354.5" rx="3.56272" ry="3.5" fill="#FF9600"/>
<path d="M135.709 346H127.213V344.686L130.579 341.284C131.227 340.636 131.773 340.06 132.217 339.556C132.661 339.052 132.997 338.56 133.225 338.08C133.453 337.588 133.567 337.054 133.567 336.478C133.567 335.77 133.357 335.236 132.937 334.876C132.517 334.504 131.971 334.318 131.299 334.318C130.675 334.318 130.123 334.426 129.643 334.642C129.175 334.858 128.695 335.158 128.203 335.542L127.357 334.48C127.693 334.192 128.059 333.934 128.455 333.706C128.863 333.478 129.301 333.298 129.769 333.166C130.249 333.034 130.759 332.968 131.299 332.968C132.103 332.968 132.793 333.106 133.369 333.382C133.945 333.658 134.389 334.054 134.701 334.57C135.025 335.074 135.187 335.68 135.187 336.388C135.187 337.06 135.049 337.69 134.773 338.278C134.497 338.866 134.113 339.448 133.621 340.024C133.129 340.588 132.553 341.194 131.893 341.842L129.211 344.488V344.56H135.709V346ZM146.01 346H137.514V344.686L140.88 341.284C141.528 340.636 142.074 340.06 142.518 339.556C142.962 339.052 143.298 338.56 143.526 338.08C143.754 337.588 143.868 337.054 143.868 336.478C143.868 335.77 143.658 335.236 143.238 334.876C142.818 334.504 142.272 334.318 141.6 334.318C140.976 334.318 140.424 334.426 139.944 334.642C139.476 334.858 138.996 335.158 138.504 335.542L137.658 334.48C137.994 334.192 138.36 333.934 138.756 333.706C139.164 333.478 139.602 333.298 140.07 333.166C140.55 333.034 141.06 332.968 141.6 332.968C142.404 332.968 143.094 333.106 143.67 333.382C144.246 333.658 144.69 334.054 145.002 334.57C145.326 335.074 145.488 335.68 145.488 336.388C145.488 337.06 145.35 337.69 145.074 338.278C144.798 338.866 144.414 339.448 143.922 340.024C143.43 340.588 142.854 341.194 142.194 341.842L139.512 344.488V344.56H146.01V346Z" fill="#FF9600"/>
<path d="M135.709 386H127.213V384.686L130.579 381.284C131.227 380.636 131.773 380.06 132.217 379.556C132.661 379.052 132.997 378.56 133.225 378.08C133.453 377.588 133.567 377.054 133.567 376.478C133.567 375.77 133.357 375.236 132.937 374.876C132.517 374.504 131.971 374.318 131.299 374.318C130.675 374.318 130.123 374.426 129.643 374.642C129.175 374.858 128.695 375.158 128.203 375.542L127.357 374.48C127.693 374.192 128.059 373.934 128.455 373.706C128.863 373.478 129.301 373.298 129.769 373.166C130.249 373.034 130.759 372.968 131.299 372.968C132.103 372.968 132.793 373.106 133.369 373.382C133.945 373.658 134.389 374.054 134.701 374.57C135.025 375.074 135.187 375.68 135.187 376.388C135.187 377.06 135.049 377.69 134.773 378.278C134.497 378.866 134.113 379.448 133.621 380.024C133.129 380.588 132.553 381.194 131.893 381.842L129.211 384.488V384.56H135.709V386ZM146.01 378.638C146.01 379.37 145.956 380.102 145.848 380.834C145.752 381.554 145.578 382.238 145.326 382.886C145.074 383.522 144.726 384.092 144.282 384.596C143.838 385.088 143.274 385.478 142.59 385.766C141.906 386.042 141.078 386.18 140.106 386.18C139.866 386.18 139.584 386.162 139.26 386.126C138.948 386.102 138.69 386.06 138.486 386V384.65C138.702 384.722 138.954 384.782 139.242 384.83C139.53 384.866 139.806 384.884 140.07 384.884C140.91 384.884 141.6 384.746 142.14 384.47C142.692 384.194 143.13 383.822 143.454 383.354C143.778 382.874 144.012 382.322 144.156 381.698C144.3 381.062 144.384 380.396 144.408 379.7H144.3C144.12 379.976 143.892 380.228 143.616 380.456C143.34 380.684 143.004 380.864 142.608 380.996C142.224 381.128 141.768 381.194 141.24 381.194C140.508 381.194 139.86 381.044 139.296 380.744C138.744 380.432 138.312 379.988 138 379.412C137.7 378.836 137.55 378.134 137.55 377.306C137.55 376.406 137.718 375.632 138.054 374.984C138.402 374.336 138.882 373.838 139.494 373.49C140.106 373.142 140.826 372.968 141.654 372.968C142.266 372.968 142.836 373.088 143.364 373.328C143.892 373.556 144.354 373.904 144.75 374.372C145.146 374.84 145.452 375.428 145.668 376.136C145.896 376.844 146.01 377.678 146.01 378.638ZM141.654 374.3C140.91 374.3 140.298 374.546 139.818 375.038C139.35 375.53 139.116 376.28 139.116 377.288C139.116 378.116 139.314 378.77 139.71 379.25C140.118 379.718 140.742 379.952 141.582 379.952C142.158 379.952 142.656 379.838 143.076 379.61C143.496 379.37 143.82 379.07 144.048 378.71C144.288 378.35 144.408 377.978 144.408 377.594C144.408 377.21 144.348 376.826 144.228 376.442C144.12 376.046 143.952 375.686 143.724 375.362C143.496 375.038 143.208 374.78 142.86 374.588C142.512 374.396 142.11 374.3 141.654 374.3Z" fill="#FF9600"/>
<path d="M183.064 173.148L179.644 186H178.006L175.504 177.576C175.432 177.324 175.36 177.066 175.288 176.802C175.216 176.538 175.15 176.286 175.09 176.046C175.03 175.806 174.976 175.602 174.928 175.434C174.892 175.254 174.868 175.122 174.856 175.038C174.844 175.122 174.82 175.254 174.784 175.434C174.76 175.602 174.718 175.806 174.658 176.046C174.598 176.286 174.532 176.544 174.46 176.82C174.4 177.084 174.328 177.354 174.244 177.63L171.814 186H170.176L166.774 173.148H168.466L170.464 180.996C170.536 181.272 170.602 181.548 170.662 181.824C170.722 182.088 170.776 182.352 170.824 182.616C170.884 182.868 170.932 183.114 170.968 183.354C171.004 183.594 171.04 183.828 171.076 184.056C171.112 183.816 171.148 183.57 171.184 183.318C171.232 183.066 171.286 182.808 171.346 182.544C171.406 182.268 171.472 181.992 171.544 181.716C171.616 181.44 171.688 181.17 171.76 180.906L174.028 173.148H175.702L178.06 180.96C178.144 181.236 178.222 181.518 178.294 181.806C178.366 182.082 178.432 182.352 178.492 182.616C178.552 182.88 178.6 183.138 178.636 183.39C178.684 183.63 178.726 183.852 178.762 184.056C178.798 183.756 178.846 183.444 178.906 183.12C178.966 182.784 179.038 182.436 179.122 182.076C179.206 181.716 179.296 181.35 179.392 180.978L181.372 173.148H183.064ZM192.22 186H185.038V173.148H192.22V174.57H186.658V178.584H191.896V179.988H186.658V184.578H192.22V186ZM205.336 179.448C205.336 180.888 205.066 182.094 204.526 183.066C203.998 184.038 203.236 184.77 202.24 185.262C201.244 185.754 200.038 186 198.622 186H195.04V173.148H199C200.296 173.148 201.418 173.388 202.366 173.868C203.314 174.348 204.046 175.056 204.562 175.992C205.078 176.916 205.336 178.068 205.336 179.448ZM203.626 179.502C203.626 178.362 203.434 177.426 203.05 176.694C202.678 175.962 202.126 175.422 201.394 175.074C200.674 174.714 199.798 174.534 198.766 174.534H196.66V184.614H198.406C200.146 184.614 201.448 184.188 202.312 183.336C203.188 182.472 203.626 181.194 203.626 179.502Z" fill="#FF9600"/>
<path d="M190.214 226H181.718V224.686L185.084 221.284C185.732 220.636 186.278 220.06 186.722 219.556C187.166 219.052 187.502 218.56 187.73 218.08C187.958 217.588 188.072 217.054 188.072 216.478C188.072 215.77 187.862 215.236 187.442 214.876C187.022 214.504 186.476 214.318 185.804 214.318C185.18 214.318 184.628 214.426 184.148 214.642C183.68 214.858 183.2 215.158 182.708 215.542L181.862 214.48C182.198 214.192 182.564 213.934 182.96 213.706C183.368 213.478 183.806 213.298 184.274 213.166C184.754 213.034 185.264 212.968 185.804 212.968C186.608 212.968 187.298 213.106 187.874 213.382C188.45 213.658 188.894 214.054 189.206 214.57C189.53 215.074 189.692 215.68 189.692 216.388C189.692 217.06 189.554 217.69 189.278 218.278C189.002 218.866 188.618 219.448 188.126 220.024C187.634 220.588 187.058 221.194 186.398 221.842L183.716 224.488V224.56H190.214V226Z" fill="#FF9600"/>
<path d="M190.214 258.638C190.214 259.37 190.16 260.102 190.052 260.834C189.956 261.554 189.782 262.238 189.53 262.886C189.278 263.522 188.93 264.092 188.486 264.596C188.042 265.088 187.478 265.478 186.794 265.766C186.11 266.042 185.282 266.18 184.31 266.18C184.07 266.18 183.788 266.162 183.464 266.126C183.152 266.102 182.894 266.06 182.69 266V264.65C182.906 264.722 183.158 264.782 183.446 264.83C183.734 264.866 184.01 264.884 184.274 264.884C185.114 264.884 185.804 264.746 186.344 264.47C186.896 264.194 187.334 263.822 187.658 263.354C187.982 262.874 188.216 262.322 188.36 261.698C188.504 261.062 188.588 260.396 188.612 259.7H188.504C188.324 259.976 188.096 260.228 187.82 260.456C187.544 260.684 187.208 260.864 186.812 260.996C186.428 261.128 185.972 261.194 185.444 261.194C184.712 261.194 184.064 261.044 183.5 260.744C182.948 260.432 182.516 259.988 182.204 259.412C181.904 258.836 181.754 258.134 181.754 257.306C181.754 256.406 181.922 255.632 182.258 254.984C182.606 254.336 183.086 253.838 183.698 253.49C184.31 253.142 185.03 252.968 185.858 252.968C186.47 252.968 187.04 253.088 187.568 253.328C188.096 253.556 188.558 253.904 188.954 254.372C189.35 254.84 189.656 255.428 189.872 256.136C190.1 256.844 190.214 257.678 190.214 258.638ZM185.858 254.3C185.114 254.3 184.502 254.546 184.022 255.038C183.554 255.53 183.32 256.28 183.32 257.288C183.32 258.116 183.518 258.77 183.914 259.25C184.322 259.718 184.946 259.952 185.786 259.952C186.362 259.952 186.86 259.838 187.28 259.61C187.7 259.37 188.024 259.07 188.252 258.71C188.492 258.35 188.612 257.978 188.612 257.594C188.612 257.21 188.552 256.826 188.432 256.442C188.324 256.046 188.156 255.686 187.928 255.362C187.7 255.038 187.412 254.78 187.064 254.588C186.716 254.396 186.314 254.3 185.858 254.3Z" fill="#FF9600"/>
<path d="M182.093 306H180.545V297.018C180.545 296.67 180.545 296.376 180.545 296.136C180.557 295.896 180.569 295.674 180.581 295.47C180.593 295.254 180.605 295.032 180.617 294.804C180.425 294.996 180.251 295.158 180.095 295.29C179.939 295.422 179.741 295.59 179.501 295.794L178.133 296.91L177.305 295.848L180.779 293.148H182.093V306ZM186.994 300.51C186.994 299.766 187.042 299.034 187.138 298.314C187.246 297.594 187.426 296.916 187.678 296.28C187.93 295.632 188.278 295.062 188.722 294.57C189.166 294.066 189.724 293.676 190.396 293.4C191.08 293.112 191.908 292.968 192.88 292.968C193.132 292.968 193.408 292.98 193.708 293.004C194.02 293.028 194.272 293.07 194.464 293.13V294.48C194.248 294.408 194.002 294.354 193.726 294.318C193.462 294.282 193.192 294.264 192.916 294.264C192.088 294.264 191.398 294.402 190.846 294.678C190.294 294.954 189.856 295.332 189.532 295.812C189.22 296.292 188.992 296.844 188.848 297.468C188.704 298.092 188.614 298.758 188.578 299.466H188.686C188.866 299.178 189.094 298.92 189.37 298.692C189.646 298.464 189.976 298.284 190.36 298.152C190.756 298.02 191.212 297.954 191.728 297.954C192.472 297.954 193.12 298.11 193.672 298.422C194.236 298.722 194.674 299.166 194.986 299.754C195.298 300.33 195.454 301.032 195.454 301.86C195.454 302.748 195.286 303.516 194.95 304.164C194.614 304.812 194.14 305.31 193.528 305.658C192.928 306.006 192.208 306.18 191.368 306.18C190.756 306.18 190.186 306.066 189.658 305.838C189.13 305.61 188.662 305.262 188.254 304.794C187.858 304.326 187.546 303.738 187.318 303.03C187.102 302.31 186.994 301.47 186.994 300.51ZM191.35 304.848C192.106 304.848 192.718 304.608 193.186 304.128C193.654 303.636 193.888 302.88 193.888 301.86C193.888 301.044 193.678 300.396 193.258 299.916C192.85 299.436 192.232 299.196 191.404 299.196C190.84 299.196 190.348 299.316 189.928 299.556C189.508 299.784 189.178 300.078 188.938 300.438C188.71 300.798 188.596 301.17 188.596 301.554C188.596 301.95 188.65 302.34 188.758 302.724C188.878 303.108 189.052 303.462 189.28 303.786C189.52 304.11 189.808 304.368 190.144 304.56C190.492 304.752 190.894 304.848 191.35 304.848Z" fill="#FF9600"/>
<path d="M185.063 346H176.567V344.686L179.933 341.284C180.581 340.636 181.127 340.06 181.571 339.556C182.015 339.052 182.351 338.56 182.579 338.08C182.807 337.588 182.921 337.054 182.921 336.478C182.921 335.77 182.711 335.236 182.291 334.876C181.871 334.504 181.325 334.318 180.653 334.318C180.029 334.318 179.477 334.426 178.997 334.642C178.529 334.858 178.049 335.158 177.557 335.542L176.711 334.48C177.047 334.192 177.413 333.934 177.809 333.706C178.217 333.478 178.655 333.298 179.123 333.166C179.603 333.034 180.113 332.968 180.653 332.968C181.457 332.968 182.147 333.106 182.723 333.382C183.299 333.658 183.743 334.054 184.055 334.57C184.379 335.074 184.541 335.68 184.541 336.388C184.541 337.06 184.403 337.69 184.127 338.278C183.851 338.866 183.467 339.448 182.975 340.024C182.483 340.588 181.907 341.194 181.247 341.842L178.565 344.488V344.56H185.063V346ZM194.878 336.154C194.878 336.73 194.77 337.228 194.554 337.648C194.338 338.068 194.026 338.41 193.618 338.674C193.222 338.938 192.754 339.124 192.214 339.232V339.304C193.246 339.424 194.014 339.748 194.518 340.276C195.022 340.804 195.274 341.494 195.274 342.346C195.274 343.09 195.1 343.756 194.752 344.344C194.404 344.92 193.864 345.37 193.132 345.694C192.412 346.018 191.482 346.18 190.342 346.18C189.67 346.18 189.046 346.126 188.47 346.018C187.894 345.922 187.342 345.742 186.814 345.478V344.002C187.354 344.266 187.936 344.476 188.56 344.632C189.184 344.776 189.784 344.848 190.36 344.848C191.512 344.848 192.34 344.626 192.844 344.182C193.36 343.726 193.618 343.102 193.618 342.31C193.618 341.77 193.474 341.338 193.186 341.014C192.91 340.678 192.502 340.432 191.962 340.276C191.422 340.12 190.774 340.042 190.018 340.042H188.776V338.692H190.036C190.744 338.692 191.332 338.59 191.8 338.386C192.28 338.182 192.64 337.9 192.88 337.54C193.132 337.168 193.258 336.742 193.258 336.262C193.258 335.638 193.048 335.158 192.628 334.822C192.208 334.474 191.638 334.3 190.918 334.3C190.462 334.3 190.048 334.348 189.676 334.444C189.304 334.528 188.956 334.654 188.632 334.822C188.32 334.978 188.002 335.164 187.678 335.38L186.886 334.3C187.342 333.94 187.906 333.628 188.578 333.364C189.262 333.1 190.036 332.968 190.9 332.968C192.244 332.968 193.24 333.268 193.888 333.868C194.548 334.468 194.878 335.23 194.878 336.154Z" fill="#FF9600"/>
<path d="M223.413 186H221.793V174.57H217.779V173.148H227.409V174.57H223.413V186ZM239.175 186H237.555V180.006H230.967V186H229.347V173.148H230.967V178.584H237.555V173.148H239.175V186ZM252.463 181.464C252.463 182.352 252.283 183.156 251.923 183.876C251.563 184.584 251.011 185.148 250.267 185.568C249.535 185.976 248.599 186.18 247.459 186.18C245.863 186.18 244.645 185.748 243.805 184.884C242.977 184.008 242.563 182.856 242.563 181.428V173.148H244.183V181.482C244.183 182.526 244.459 183.336 245.011 183.912C245.575 184.488 246.421 184.776 247.549 184.776C248.329 184.776 248.959 184.638 249.439 184.362C249.931 184.074 250.291 183.684 250.519 183.192C250.747 182.688 250.861 182.112 250.861 181.464V173.148H252.463V181.464Z" fill="#FF9600"/>
<path d="M239.082 216.154C239.082 216.73 238.974 217.228 238.758 217.648C238.542 218.068 238.23 218.41 237.822 218.674C237.426 218.938 236.958 219.124 236.418 219.232V219.304C237.45 219.424 238.218 219.748 238.722 220.276C239.226 220.804 239.478 221.494 239.478 222.346C239.478 223.09 239.304 223.756 238.956 224.344C238.608 224.92 238.068 225.37 237.336 225.694C236.616 226.018 235.686 226.18 234.546 226.18C233.874 226.18 233.25 226.126 232.674 226.018C232.098 225.922 231.546 225.742 231.018 225.478V224.002C231.558 224.266 232.14 224.476 232.764 224.632C233.388 224.776 233.988 224.848 234.564 224.848C235.716 224.848 236.544 224.626 237.048 224.182C237.564 223.726 237.822 223.102 237.822 222.31C237.822 221.77 237.678 221.338 237.39 221.014C237.114 220.678 236.706 220.432 236.166 220.276C235.626 220.12 234.978 220.042 234.222 220.042H232.98V218.692H234.24C234.948 218.692 235.536 218.59 236.004 218.386C236.484 218.182 236.844 217.9 237.084 217.54C237.336 217.168 237.462 216.742 237.462 216.262C237.462 215.638 237.252 215.158 236.832 214.822C236.412 214.474 235.842 214.3 235.122 214.3C234.666 214.3 234.252 214.348 233.88 214.444C233.508 214.528 233.16 214.654 232.836 214.822C232.524 214.978 232.206 215.164 231.882 215.38L231.09 214.3C231.546 213.94 232.11 213.628 232.782 213.364C233.466 213.1 234.24 212.968 235.104 212.968C236.448 212.968 237.444 213.268 238.092 213.868C238.752 214.468 239.082 215.23 239.082 216.154Z" fill="#FF9600"/>
<path d="M231.448 266H229.9V257.018C229.9 256.67 229.9 256.376 229.9 256.136C229.912 255.896 229.924 255.674 229.936 255.47C229.948 255.254 229.96 255.032 229.972 254.804C229.78 254.996 229.606 255.158 229.45 255.29C229.294 255.422 229.096 255.59 228.856 255.794L227.488 256.91L226.66 255.848L230.134 253.148H231.448V266ZM244.773 259.556C244.773 260.6 244.695 261.53 244.539 262.346C244.383 263.162 244.131 263.858 243.783 264.434C243.447 264.998 243.003 265.43 242.451 265.73C241.911 266.03 241.257 266.18 240.489 266.18C239.529 266.18 238.731 265.916 238.095 265.388C237.471 264.86 237.003 264.104 236.691 263.12C236.391 262.124 236.241 260.936 236.241 259.556C236.241 258.164 236.379 256.976 236.655 255.992C236.943 255.008 237.399 254.258 238.023 253.742C238.647 253.214 239.469 252.95 240.489 252.95C241.449 252.95 242.247 253.214 242.883 253.742C243.519 254.258 243.993 255.008 244.305 255.992C244.617 256.976 244.773 258.164 244.773 259.556ZM237.825 259.556C237.825 260.732 237.909 261.71 238.077 262.49C238.257 263.27 238.539 263.858 238.923 264.254C239.319 264.638 239.841 264.83 240.489 264.83C241.137 264.83 241.653 264.638 242.037 264.254C242.433 263.87 242.721 263.288 242.901 262.508C243.081 261.716 243.171 260.732 243.171 259.556C243.171 258.38 243.081 257.408 242.901 256.64C242.721 255.86 242.433 255.278 242.037 254.894C241.653 254.498 241.137 254.3 240.489 254.3C239.841 254.3 239.319 254.498 238.923 254.894C238.539 255.278 238.257 255.86 238.077 256.64C237.909 257.408 237.825 258.38 237.825 259.556Z" fill="#FF9600"/>
<path d="M231.448 306H229.9V297.018C229.9 296.67 229.9 296.376 229.9 296.136C229.912 295.896 229.924 295.674 229.936 295.47C229.948 295.254 229.96 295.032 229.972 294.804C229.78 294.996 229.606 295.158 229.45 295.29C229.294 295.422 229.096 295.59 228.856 295.794L227.488 296.91L226.66 295.848L230.134 293.148H231.448V306ZM237.807 306L243.081 294.588H236.151V293.148H244.773V294.372L239.553 306H237.807Z" fill="#FF9600"/>
<path d="M234.418 346H225.922V344.686L229.288 341.284C229.936 340.636 230.482 340.06 230.926 339.556C231.37 339.052 231.706 338.56 231.934 338.08C232.162 337.588 232.276 337.054 232.276 336.478C232.276 335.77 232.066 335.236 231.646 334.876C231.226 334.504 230.68 334.318 230.008 334.318C229.384 334.318 228.832 334.426 228.352 334.642C227.884 334.858 227.404 335.158 226.912 335.542L226.066 334.48C226.402 334.192 226.768 333.934 227.164 333.706C227.572 333.478 228.01 333.298 228.478 333.166C228.958 333.034 229.468 332.968 230.008 332.968C230.812 332.968 231.502 333.106 232.078 333.382C232.654 333.658 233.098 334.054 233.41 334.57C233.734 335.074 233.896 335.68 233.896 336.388C233.896 337.06 233.758 337.69 233.482 338.278C233.206 338.866 232.822 339.448 232.33 340.024C231.838 340.588 231.262 341.194 230.602 341.842L227.92 344.488V344.56H234.418V346ZM245.295 343.084H243.423V346H241.893V343.084H235.737V341.734L241.785 333.076H243.423V341.662H245.295V343.084ZM241.893 337.612C241.893 337.3 241.893 337.018 241.893 336.766C241.905 336.502 241.917 336.256 241.929 336.028C241.941 335.8 241.947 335.584 241.947 335.38C241.959 335.164 241.971 334.96 241.983 334.768H241.911C241.815 334.996 241.695 335.242 241.551 335.506C241.407 335.77 241.269 335.992 241.137 336.172L237.285 341.662H241.893V337.612Z" fill="#FF9600"/>
<path d="M233.932 376.154C233.932 376.73 233.824 377.228 233.608 377.648C233.392 378.068 233.08 378.41 232.672 378.674C232.276 378.938 231.808 379.124 231.268 379.232V379.304C232.3 379.424 233.068 379.748 233.572 380.276C234.076 380.804 234.328 381.494 234.328 382.346C234.328 383.09 234.154 383.756 233.806 384.344C233.458 384.92 232.918 385.37 232.186 385.694C231.466 386.018 230.536 386.18 229.396 386.18C228.724 386.18 228.1 386.126 227.524 386.018C226.948 385.922 226.396 385.742 225.868 385.478V384.002C226.408 384.266 226.99 384.476 227.614 384.632C228.238 384.776 228.838 384.848 229.414 384.848C230.566 384.848 231.394 384.626 231.898 384.182C232.414 383.726 232.672 383.102 232.672 382.31C232.672 381.77 232.528 381.338 232.24 381.014C231.964 380.678 231.556 380.432 231.016 380.276C230.476 380.12 229.828 380.042 229.072 380.042H227.83V378.692H229.09C229.798 378.692 230.386 378.59 230.854 378.386C231.334 378.182 231.694 377.9 231.934 377.54C232.186 377.168 232.312 376.742 232.312 376.262C232.312 375.638 232.102 375.158 231.682 374.822C231.262 374.474 230.692 374.3 229.972 374.3C229.516 374.3 229.102 374.348 228.73 374.444C228.358 374.528 228.01 374.654 227.686 374.822C227.374 374.978 227.056 375.164 226.732 375.38L225.94 374.3C226.396 373.94 226.96 373.628 227.632 373.364C228.316 373.1 229.09 372.968 229.954 372.968C231.298 372.968 232.294 373.268 232.942 373.868C233.602 374.468 233.932 375.23 233.932 376.154ZM241.749 386H240.201V377.018C240.201 376.67 240.201 376.376 240.201 376.136C240.213 375.896 240.225 375.674 240.237 375.47C240.249 375.254 240.261 375.032 240.273 374.804C240.081 374.996 239.907 375.158 239.751 375.29C239.595 375.422 239.397 375.59 239.157 375.794L237.789 376.91L236.961 375.848L240.435 373.148H241.749V386Z" fill="#FF9600"/>
<path d="M275.551 186H273.931V173.148H281.113V174.57H275.551V179.124H280.771V180.546H275.551V186ZM286.811 173.148C287.879 173.148 288.755 173.286 289.439 173.562C290.135 173.826 290.651 174.228 290.987 174.768C291.323 175.308 291.491 175.986 291.491 176.802C291.491 177.486 291.365 178.056 291.113 178.512C290.861 178.968 290.537 179.334 290.141 179.61C289.757 179.874 289.349 180.084 288.917 180.24L292.445 186H290.555L287.441 180.69H284.885V186H283.265V173.148H286.811ZM286.721 174.552H284.885V179.322H286.811C287.855 179.322 288.617 179.118 289.097 178.71C289.577 178.29 289.817 177.678 289.817 176.874C289.817 176.31 289.703 175.86 289.475 175.524C289.259 175.188 288.923 174.942 288.467 174.786C288.011 174.63 287.429 174.552 286.721 174.552ZM298.08 186H293.436V185.064L294.948 184.722V174.444L293.436 174.084V173.148H298.08V174.084L296.568 174.444V184.722L298.08 185.064V186Z" fill="#FF9600"/>
<path d="M289.499 223.084H287.627V226H286.097V223.084H279.941V221.734L285.989 213.076H287.627V221.662H289.499V223.084ZM286.097 217.612C286.097 217.3 286.097 217.018 286.097 216.766C286.109 216.502 286.121 216.256 286.133 216.028C286.145 215.8 286.151 215.584 286.151 215.38C286.163 215.164 286.175 214.96 286.187 214.768H286.115C286.019 214.996 285.899 215.242 285.755 215.506C285.611 215.77 285.473 215.992 285.341 216.172L281.489 221.662H286.097V217.612Z" fill="#FF9600"/>
<ellipse cx="284.239" cy="234.5" rx="3.56272" ry="3.5" fill="#FF9600"/>
<path d="M280.803 266H279.255V257.018C279.255 256.67 279.255 256.376 279.255 256.136C279.267 255.896 279.279 255.674 279.291 255.47C279.303 255.254 279.315 255.032 279.327 254.804C279.135 254.996 278.961 255.158 278.805 255.29C278.649 255.422 278.451 255.59 278.211 255.794L276.843 256.91L276.015 255.848L279.489 253.148H280.803V266ZM291.104 266H289.556V257.018C289.556 256.67 289.556 256.376 289.556 256.136C289.568 255.896 289.58 255.674 289.592 255.47C289.604 255.254 289.616 255.032 289.628 254.804C289.436 254.996 289.262 255.158 289.106 255.29C288.95 255.422 288.752 255.59 288.512 255.794L287.144 256.91L286.316 255.848L289.79 253.148H291.104V266Z" fill="#FF9600"/>
<path d="M280.803 306H279.255V297.018C279.255 296.67 279.255 296.376 279.255 296.136C279.267 295.896 279.279 295.674 279.291 295.47C279.303 295.254 279.315 295.032 279.327 294.804C279.135 294.996 278.961 295.158 278.805 295.29C278.649 295.422 278.451 295.59 278.211 295.794L276.843 296.91L276.015 295.848L279.489 293.148H280.803V306ZM289.844 292.968C290.6 292.968 291.266 293.088 291.842 293.328C292.418 293.556 292.868 293.898 293.192 294.354C293.528 294.81 293.696 295.374 293.696 296.046C293.696 296.562 293.582 297.012 293.354 297.396C293.138 297.78 292.844 298.122 292.472 298.422C292.1 298.71 291.692 298.968 291.248 299.196C291.776 299.448 292.256 299.736 292.688 300.06C293.12 300.372 293.462 300.738 293.714 301.158C293.978 301.578 294.11 302.082 294.11 302.67C294.11 303.39 293.936 304.014 293.588 304.542C293.24 305.058 292.748 305.46 292.112 305.748C291.488 306.036 290.75 306.18 289.898 306.18C288.974 306.18 288.188 306.042 287.54 305.766C286.904 305.49 286.418 305.1 286.082 304.596C285.758 304.08 285.596 303.456 285.596 302.724C285.596 302.136 285.716 301.626 285.956 301.194C286.208 300.762 286.538 300.39 286.946 300.078C287.354 299.766 287.792 299.502 288.26 299.286C287.84 299.046 287.456 298.776 287.108 298.476C286.772 298.164 286.502 297.81 286.298 297.414C286.106 297.018 286.01 296.556 286.01 296.028C286.01 295.368 286.178 294.816 286.514 294.372C286.85 293.916 287.306 293.568 287.882 293.328C288.458 293.088 289.112 292.968 289.844 292.968ZM287.144 302.742C287.144 303.366 287.366 303.888 287.81 304.308C288.254 304.716 288.938 304.92 289.862 304.92C290.738 304.92 291.404 304.716 291.86 304.308C292.328 303.888 292.562 303.348 292.562 302.688C292.562 302.268 292.448 301.902 292.22 301.59C292.004 301.266 291.692 300.978 291.284 300.726C290.888 300.474 290.414 300.246 289.862 300.042L289.574 299.934C289.046 300.162 288.602 300.408 288.242 300.672C287.882 300.936 287.606 301.236 287.414 301.572C287.234 301.908 287.144 302.298 287.144 302.742ZM289.826 294.246C289.166 294.246 288.62 294.408 288.188 294.732C287.768 295.044 287.558 295.5 287.558 296.1C287.558 296.544 287.66 296.916 287.864 297.216C288.08 297.516 288.368 297.774 288.728 297.99C289.088 298.194 289.484 298.392 289.916 298.584C290.336 298.404 290.708 298.206 291.032 297.99C291.368 297.774 291.632 297.516 291.824 297.216C292.028 296.904 292.13 296.532 292.13 296.1C292.13 295.5 291.92 295.044 291.5 294.732C291.08 294.408 290.522 294.246 289.826 294.246Z" fill="#FF9600"/>
<path d="M283.773 346H275.277V344.686L278.643 341.284C279.291 340.636 279.837 340.06 280.281 339.556C280.725 339.052 281.061 338.56 281.289 338.08C281.517 337.588 281.631 337.054 281.631 336.478C281.631 335.77 281.421 335.236 281.001 334.876C280.581 334.504 280.035 334.318 279.363 334.318C278.739 334.318 278.187 334.426 277.707 334.642C277.239 334.858 276.759 335.158 276.267 335.542L275.421 334.48C275.757 334.192 276.123 333.934 276.519 333.706C276.927 333.478 277.365 333.298 277.833 333.166C278.313 333.034 278.823 332.968 279.363 332.968C280.167 332.968 280.857 333.106 281.433 333.382C282.009 333.658 282.453 334.054 282.765 334.57C283.089 335.074 283.251 335.68 283.251 336.388C283.251 337.06 283.113 337.69 282.837 338.278C282.561 338.866 282.177 339.448 281.685 340.024C281.193 340.588 280.617 341.194 279.957 341.842L277.275 344.488V344.56H283.773V346ZM289.664 338.116C290.54 338.116 291.302 338.266 291.95 338.566C292.598 338.866 293.096 339.298 293.444 339.862C293.804 340.414 293.984 341.092 293.984 341.896C293.984 342.784 293.792 343.552 293.408 344.2C293.024 344.836 292.472 345.328 291.752 345.676C291.044 346.012 290.186 346.18 289.178 346.18C288.518 346.18 287.894 346.12 287.306 346C286.73 345.88 286.244 345.706 285.848 345.478V343.984C286.28 344.248 286.802 344.458 287.414 344.614C288.038 344.758 288.632 344.83 289.196 344.83C289.832 344.83 290.384 344.734 290.852 344.542C291.332 344.338 291.704 344.032 291.968 343.624C292.232 343.204 292.364 342.682 292.364 342.058C292.364 341.218 292.106 340.576 291.59 340.132C291.074 339.676 290.258 339.448 289.142 339.448C288.806 339.448 288.422 339.478 287.99 339.538C287.558 339.598 287.21 339.658 286.946 339.718L286.154 339.214L286.64 333.148H293.084V334.588H287.99L287.684 338.314C287.888 338.278 288.164 338.236 288.512 338.188C288.86 338.14 289.244 338.116 289.664 338.116Z" fill="#FF9600"/>
<path d="M285.953 386H284.405V377.018C284.405 376.67 284.405 376.376 284.405 376.136C284.417 375.896 284.429 375.674 284.441 375.47C284.453 375.254 284.465 375.032 284.477 374.804C284.285 374.996 284.111 375.158 283.955 375.29C283.799 375.422 283.601 375.59 283.361 375.794L281.993 376.91L281.165 375.848L284.639 373.148H285.953V386Z" fill="#FF9600"/>
<path d="M328.546 182.562C328.546 183.33 328.36 183.984 327.988 184.524C327.616 185.052 327.082 185.46 326.386 185.748C325.702 186.036 324.892 186.18 323.956 186.18C323.476 186.18 323.014 186.156 322.57 186.108C322.138 186.06 321.742 185.994 321.382 185.91C321.022 185.814 320.704 185.7 320.428 185.568V184.02C320.86 184.212 321.394 184.386 322.03 184.542C322.678 184.698 323.344 184.776 324.028 184.776C324.664 184.776 325.198 184.692 325.63 184.524C326.062 184.356 326.386 184.116 326.602 183.804C326.818 183.492 326.926 183.126 326.926 182.706C326.926 182.286 326.836 181.932 326.656 181.644C326.476 181.356 326.164 181.092 325.72 180.852C325.288 180.6 324.682 180.336 323.902 180.06C323.35 179.856 322.864 179.64 322.444 179.412C322.036 179.172 321.694 178.902 321.418 178.602C321.142 178.302 320.932 177.96 320.788 177.576C320.656 177.192 320.59 176.748 320.59 176.244C320.59 175.56 320.764 174.978 321.112 174.498C321.46 174.006 321.94 173.628 322.552 173.364C323.176 173.1 323.89 172.968 324.694 172.968C325.402 172.968 326.05 173.034 326.638 173.166C327.226 173.298 327.76 173.472 328.24 173.688L327.736 175.074C327.292 174.882 326.806 174.72 326.278 174.588C325.762 174.456 325.222 174.39 324.658 174.39C324.118 174.39 323.668 174.468 323.308 174.624C322.948 174.78 322.678 175.002 322.498 175.29C322.318 175.566 322.228 175.89 322.228 176.262C322.228 176.694 322.318 177.054 322.498 177.342C322.678 177.63 322.972 177.888 323.38 178.116C323.788 178.344 324.34 178.59 325.036 178.854C325.792 179.13 326.428 179.43 326.944 179.754C327.472 180.066 327.868 180.444 328.132 180.888C328.408 181.332 328.546 181.89 328.546 182.562ZM339.199 186L337.651 182.022H332.557L331.027 186H329.389L334.411 173.094H335.869L340.873 186H339.199ZM335.725 176.694C335.689 176.598 335.629 176.424 335.545 176.172C335.461 175.92 335.377 175.662 335.293 175.398C335.221 175.122 335.161 174.912 335.113 174.768C335.053 175.008 334.987 175.254 334.915 175.506C334.855 175.746 334.789 175.968 334.717 176.172C334.657 176.376 334.603 176.55 334.555 176.694L333.097 180.582H337.165L335.725 176.694ZM345.433 186H343.813V174.57H339.799V173.148H349.429V174.57H345.433V186Z" fill="#FFC500"/>
<path d="M333.868 218.116C334.744 218.116 335.506 218.266 336.154 218.566C336.802 218.866 337.3 219.298 337.648 219.862C338.008 220.414 338.188 221.092 338.188 221.896C338.188 222.784 337.996 223.552 337.612 224.2C337.228 224.836 336.676 225.328 335.956 225.676C335.248 226.012 334.39 226.18 333.382 226.18C332.722 226.18 332.098 226.12 331.51 226C330.934 225.88 330.448 225.706 330.052 225.478V223.984C330.484 224.248 331.006 224.458 331.618 224.614C332.242 224.758 332.836 224.83 333.4 224.83C334.036 224.83 334.588 224.734 335.056 224.542C335.536 224.338 335.908 224.032 336.172 223.624C336.436 223.204 336.568 222.682 336.568 222.058C336.568 221.218 336.31 220.576 335.794 220.132C335.278 219.676 334.462 219.448 333.346 219.448C333.01 219.448 332.626 219.478 332.194 219.538C331.762 219.598 331.414 219.658 331.15 219.718L330.358 219.214L330.844 213.148H337.288V214.588H332.194L331.888 218.314C332.092 218.278 332.368 218.236 332.716 218.188C333.064 218.14 333.448 218.116 333.868 218.116Z" fill="#FFC500"/>
<path d="M330.157 266H328.609V257.018C328.609 256.67 328.609 256.376 328.609 256.136C328.621 255.896 328.633 255.674 328.645 255.47C328.657 255.254 328.669 255.032 328.681 254.804C328.489 254.996 328.315 255.158 328.159 255.29C328.003 255.422 327.805 255.59 327.565 255.794L326.197 256.91L325.369 255.848L328.843 253.148H330.157V266ZM343.428 266H334.932V264.686L338.298 261.284C338.946 260.636 339.492 260.06 339.936 259.556C340.38 259.052 340.716 258.56 340.944 258.08C341.172 257.588 341.286 257.054 341.286 256.478C341.286 255.77 341.076 255.236 340.656 254.876C340.236 254.504 339.69 254.318 339.018 254.318C338.394 254.318 337.842 254.426 337.362 254.642C336.894 254.858 336.414 255.158 335.922 255.542L335.076 254.48C335.412 254.192 335.778 253.934 336.174 253.706C336.582 253.478 337.02 253.298 337.488 253.166C337.968 253.034 338.478 252.968 339.018 252.968C339.822 252.968 340.512 253.106 341.088 253.382C341.664 253.658 342.108 254.054 342.42 254.57C342.744 255.074 342.906 255.68 342.906 256.388C342.906 257.06 342.768 257.69 342.492 258.278C342.216 258.866 341.832 259.448 341.34 260.024C340.848 260.588 340.272 261.194 339.612 261.842L336.93 264.488V264.56H343.428V266Z" fill="#FFC500"/>
<path d="M330.157 306H328.609V297.018C328.609 296.67 328.609 296.376 328.609 296.136C328.621 295.896 328.633 295.674 328.645 295.47C328.657 295.254 328.669 295.032 328.681 294.804C328.489 294.996 328.315 295.158 328.159 295.29C328.003 295.422 327.805 295.59 327.565 295.794L326.197 296.91L325.369 295.848L328.843 293.148H330.157V306ZM343.428 298.638C343.428 299.37 343.374 300.102 343.266 300.834C343.17 301.554 342.996 302.238 342.744 302.886C342.492 303.522 342.144 304.092 341.7 304.596C341.256 305.088 340.692 305.478 340.008 305.766C339.324 306.042 338.496 306.18 337.524 306.18C337.284 306.18 337.002 306.162 336.678 306.126C336.366 306.102 336.108 306.06 335.904 306V304.65C336.12 304.722 336.372 304.782 336.66 304.83C336.948 304.866 337.224 304.884 337.488 304.884C338.328 304.884 339.018 304.746 339.558 304.47C340.11 304.194 340.548 303.822 340.872 303.354C341.196 302.874 341.43 302.322 341.574 301.698C341.718 301.062 341.802 300.396 341.826 299.7H341.718C341.538 299.976 341.31 300.228 341.034 300.456C340.758 300.684 340.422 300.864 340.026 300.996C339.642 301.128 339.186 301.194 338.658 301.194C337.926 301.194 337.278 301.044 336.714 300.744C336.162 300.432 335.73 299.988 335.418 299.412C335.118 298.836 334.968 298.134 334.968 297.306C334.968 296.406 335.136 295.632 335.472 294.984C335.82 294.336 336.3 293.838 336.912 293.49C337.524 293.142 338.244 292.968 339.072 292.968C339.684 292.968 340.254 293.088 340.782 293.328C341.31 293.556 341.772 293.904 342.168 294.372C342.564 294.84 342.87 295.428 343.086 296.136C343.314 296.844 343.428 297.678 343.428 298.638ZM339.072 294.3C338.328 294.3 337.716 294.546 337.236 295.038C336.768 295.53 336.534 296.28 336.534 297.288C336.534 298.116 336.732 298.77 337.128 299.25C337.536 299.718 338.16 299.952 339 299.952C339.576 299.952 340.074 299.838 340.494 299.61C340.914 299.37 341.238 299.07 341.466 298.71C341.706 298.35 341.826 297.978 341.826 297.594C341.826 297.21 341.766 296.826 341.646 296.442C341.538 296.046 341.37 295.686 341.142 295.362C340.914 295.038 340.626 294.78 340.278 294.588C339.93 294.396 339.528 294.3 339.072 294.3Z" fill="#FFC500"/>
<ellipse cx="335.135" cy="314.5" rx="3.56272" ry="3.5" fill="#FF9600"/>
<path d="M333.127 346H324.631V344.686L327.997 341.284C328.645 340.636 329.191 340.06 329.635 339.556C330.079 339.052 330.415 338.56 330.643 338.08C330.871 337.588 330.985 337.054 330.985 336.478C330.985 335.77 330.775 335.236 330.355 334.876C329.935 334.504 329.389 334.318 328.717 334.318C328.093 334.318 327.541 334.426 327.061 334.642C326.593 334.858 326.113 335.158 325.621 335.542L324.775 334.48C325.111 334.192 325.477 333.934 325.873 333.706C326.281 333.478 326.719 333.298 327.187 333.166C327.667 333.034 328.177 332.968 328.717 332.968C329.521 332.968 330.211 333.106 330.787 333.382C331.363 333.658 331.807 334.054 332.119 334.57C332.443 335.074 332.605 335.68 332.605 336.388C332.605 337.06 332.467 337.69 332.191 338.278C331.915 338.866 331.531 339.448 331.039 340.024C330.547 340.588 329.971 341.194 329.311 341.842L326.629 344.488V344.56H333.127V346ZM335.058 340.51C335.058 339.766 335.106 339.034 335.202 338.314C335.31 337.594 335.49 336.916 335.742 336.28C335.994 335.632 336.342 335.062 336.786 334.57C337.23 334.066 337.788 333.676 338.46 333.4C339.144 333.112 339.972 332.968 340.944 332.968C341.196 332.968 341.472 332.98 341.772 333.004C342.084 333.028 342.336 333.07 342.528 333.13V334.48C342.312 334.408 342.066 334.354 341.79 334.318C341.526 334.282 341.256 334.264 340.98 334.264C340.152 334.264 339.462 334.402 338.91 334.678C338.358 334.954 337.92 335.332 337.596 335.812C337.284 336.292 337.056 336.844 336.912 337.468C336.768 338.092 336.678 338.758 336.642 339.466H336.75C336.93 339.178 337.158 338.92 337.434 338.692C337.71 338.464 338.04 338.284 338.424 338.152C338.82 338.02 339.276 337.954 339.792 337.954C340.536 337.954 341.184 338.11 341.736 338.422C342.3 338.722 342.738 339.166 343.05 339.754C343.362 340.33 343.518 341.032 343.518 341.86C343.518 342.748 343.35 343.516 343.014 344.164C342.678 344.812 342.204 345.31 341.592 345.658C340.992 346.006 340.272 346.18 339.432 346.18C338.82 346.18 338.25 346.066 337.722 345.838C337.194 345.61 336.726 345.262 336.318 344.794C335.922 344.326 335.61 343.738 335.382 343.03C335.166 342.31 335.058 341.47 335.058 340.51ZM339.414 344.848C340.17 344.848 340.782 344.608 341.25 344.128C341.718 343.636 341.952 342.88 341.952 341.86C341.952 341.044 341.742 340.396 341.322 339.916C340.914 339.436 340.296 339.196 339.468 339.196C338.904 339.196 338.412 339.316 337.992 339.556C337.572 339.784 337.242 340.078 337.002 340.438C336.774 340.798 336.66 341.17 336.66 341.554C336.66 341.95 336.714 342.34 336.822 342.724C336.942 343.108 337.116 343.462 337.344 343.786C337.584 344.11 337.872 344.368 338.208 344.56C338.556 344.752 338.958 344.848 339.414 344.848Z" fill="#FFC500"/>
<path d="M338.278 386H329.782V384.686L333.148 381.284C333.796 380.636 334.342 380.06 334.786 379.556C335.23 379.052 335.566 378.56 335.794 378.08C336.022 377.588 336.136 377.054 336.136 376.478C336.136 375.77 335.926 375.236 335.506 374.876C335.086 374.504 334.54 374.318 333.868 374.318C333.244 374.318 332.692 374.426 332.212 374.642C331.744 374.858 331.264 375.158 330.772 375.542L329.926 374.48C330.262 374.192 330.628 373.934 331.024 373.706C331.432 373.478 331.87 373.298 332.338 373.166C332.818 373.034 333.328 372.968 333.868 372.968C334.672 372.968 335.362 373.106 335.938 373.382C336.514 373.658 336.958 374.054 337.27 374.57C337.594 375.074 337.756 375.68 337.756 376.388C337.756 377.06 337.618 377.69 337.342 378.278C337.066 378.866 336.682 379.448 336.19 380.024C335.698 380.588 335.122 381.194 334.462 381.842L331.78 384.488V384.56H338.278V386Z" fill="#FFC500"/>
<g filter="url(#filter1_i_382_4074)">
<rect x="172.777" y="366" width="27.4186" height="35" rx="13.7093" fill="#FFFEFA"/>
</g>
<path d="M184.577 376.154C184.577 376.73 184.469 377.228 184.253 377.648C184.037 378.068 183.725 378.41 183.317 378.674C182.921 378.938 182.453 379.124 181.913 379.232V379.304C182.945 379.424 183.713 379.748 184.217 380.276C184.721 380.804 184.973 381.494 184.973 382.346C184.973 383.09 184.799 383.756 184.451 384.344C184.103 384.92 183.563 385.37 182.831 385.694C182.111 386.018 181.181 386.18 180.041 386.18C179.369 386.18 178.745 386.126 178.169 386.018C177.593 385.922 177.041 385.742 176.513 385.478V384.002C177.053 384.266 177.635 384.476 178.259 384.632C178.883 384.776 179.483 384.848 180.059 384.848C181.211 384.848 182.039 384.626 182.543 384.182C183.059 383.726 183.317 383.102 183.317 382.31C183.317 381.77 183.173 381.338 182.885 381.014C182.609 380.678 182.201 380.432 181.661 380.276C181.121 380.12 180.473 380.042 179.717 380.042H178.475V378.692H179.735C180.443 378.692 181.031 378.59 181.499 378.386C181.979 378.182 182.339 377.9 182.579 377.54C182.831 377.168 182.957 376.742 182.957 376.262C182.957 375.638 182.747 375.158 182.327 374.822C181.907 374.474 181.337 374.3 180.617 374.3C180.161 374.3 179.747 374.348 179.375 374.444C179.003 374.528 178.655 374.654 178.331 374.822C178.019 374.978 177.701 375.164 177.377 375.38L176.585 374.3C177.041 373.94 177.605 373.628 178.277 373.364C178.961 373.1 179.735 372.968 180.599 372.968C181.943 372.968 182.939 373.268 183.587 373.868C184.247 374.468 184.577 375.23 184.577 376.154ZM195.418 379.556C195.418 380.6 195.34 381.53 195.184 382.346C195.028 383.162 194.776 383.858 194.428 384.434C194.092 384.998 193.648 385.43 193.096 385.73C192.556 386.03 191.902 386.18 191.134 386.18C190.174 386.18 189.376 385.916 188.74 385.388C188.116 384.86 187.648 384.104 187.336 383.12C187.036 382.124 186.886 380.936 186.886 379.556C186.886 378.164 187.024 376.976 187.3 375.992C187.588 375.008 188.044 374.258 188.668 373.742C189.292 373.214 190.114 372.95 191.134 372.95C192.094 372.95 192.892 373.214 193.528 373.742C194.164 374.258 194.638 375.008 194.95 375.992C195.262 376.976 195.418 378.164 195.418 379.556ZM188.47 379.556C188.47 380.732 188.554 381.71 188.722 382.49C188.902 383.27 189.184 383.858 189.568 384.254C189.964 384.638 190.486 384.83 191.134 384.83C191.782 384.83 192.298 384.638 192.682 384.254C193.078 383.87 193.366 383.288 193.546 382.508C193.726 381.716 193.816 380.732 193.816 379.556C193.816 378.38 193.726 377.408 193.546 376.64C193.366 375.86 193.078 375.278 192.682 374.894C192.298 374.498 191.782 374.3 191.134 374.3C190.486 374.3 189.964 374.498 189.568 374.894C189.184 375.278 188.902 375.86 188.722 376.64C188.554 377.408 188.47 378.38 188.47 379.556Z" fill="#FF9600"/>
<ellipse cx="185.501" cy="394.5" rx="3.56272" ry="3.5" fill="#FF9600"/>
<g filter="url(#filter2_d_382_4074)">
<path d="M96 447C96 438.163 103.163 431 112 431H260C268.837 431 276 438.163 276 447V465C276 473.837 268.837 481 260 481H112C103.163 481 96 473.837 96 465V447Z" fill="#FFFEFA" shape-rendering="crispEdges"/>
<path d="M107.3 451.42H124.74V452.94H107.3V451.42ZM111.28 460.34H120.6V461.86H111.28V460.34ZM115.2 447.22H116.78V465.6H115.2V447.22ZM114.72 451.92L116.08 452.36C115.48 453.773 114.747 455.127 113.88 456.42C113.013 457.7 112.053 458.86 111 459.9C109.947 460.927 108.847 461.773 107.7 462.44C107.62 462.32 107.513 462.187 107.38 462.04C107.247 461.88 107.113 461.727 106.98 461.58C106.86 461.433 106.74 461.307 106.62 461.2C107.46 460.76 108.273 460.213 109.06 459.56C109.86 458.907 110.613 458.173 111.32 457.36C112.04 456.533 112.687 455.66 113.26 454.74C113.833 453.82 114.32 452.88 114.72 451.92ZM117.26 451.98C117.793 453.247 118.48 454.473 119.32 455.66C120.16 456.833 121.1 457.893 122.14 458.84C123.193 459.773 124.293 460.52 125.44 461.08C125.32 461.187 125.187 461.313 125.04 461.46C124.907 461.607 124.773 461.767 124.64 461.94C124.507 462.1 124.393 462.253 124.3 462.4C123.14 461.747 122.027 460.913 120.96 459.9C119.907 458.873 118.953 457.72 118.1 456.44C117.247 455.16 116.527 453.827 115.94 452.44L117.26 451.98ZM131.08 448.26H141.5V449.72H131.08V448.26ZM131.08 453.08H141.6V454.5H131.08V453.08ZM130.92 457.9H141.5V459.36H130.92V457.9ZM130.14 448.26H131.66V454.42C131.66 455.287 131.613 456.213 131.52 457.2C131.44 458.187 131.267 459.187 131 460.2C130.733 461.2 130.333 462.167 129.8 463.1C129.28 464.033 128.587 464.873 127.72 465.62C127.653 465.513 127.547 465.387 127.4 465.24C127.267 465.093 127.127 464.953 126.98 464.82C126.833 464.7 126.7 464.607 126.58 464.54C127.393 463.82 128.033 463.047 128.5 462.22C128.98 461.38 129.333 460.513 129.56 459.62C129.8 458.727 129.953 457.84 130.02 456.96C130.1 456.067 130.14 455.22 130.14 454.42V448.26ZM140.84 448.26H142.42V463.38C142.42 463.913 142.34 464.32 142.18 464.6C142.02 464.88 141.753 465.087 141.38 465.22C140.993 465.353 140.453 465.433 139.76 465.46C139.067 465.5 138.187 465.52 137.12 465.52C137.093 465.36 137.04 465.187 136.96 465C136.893 464.813 136.813 464.62 136.72 464.42C136.64 464.233 136.56 464.073 136.48 463.94C137.04 463.953 137.573 463.967 138.08 463.98C138.6 463.98 139.047 463.98 139.42 463.98C139.807 463.967 140.073 463.96 140.22 463.96C140.46 463.947 140.62 463.9 140.7 463.82C140.793 463.727 140.84 463.573 140.84 463.36V448.26ZM156.46 447.2H157.84V455.64C157.84 456.64 157.793 457.607 157.7 458.54C157.62 459.473 157.44 460.367 157.16 461.22C156.88 462.06 156.467 462.853 155.92 463.6C155.387 464.333 154.66 465.007 153.74 465.62C153.673 465.513 153.573 465.393 153.44 465.26C153.307 465.14 153.173 465.02 153.04 464.9C152.907 464.78 152.787 464.687 152.68 464.62C153.52 464.06 154.193 463.447 154.7 462.78C155.207 462.113 155.587 461.4 155.84 460.64C156.093 459.88 156.26 459.087 156.34 458.26C156.42 457.42 156.46 456.547 156.46 455.64V447.2ZM159.92 447.2H161.34V465.58H159.92V447.2ZM153.18 450.62H157.08V452H153.18V450.62ZM160.66 450.62H164.86V452H160.66V450.62ZM160.74 454.8H164.66V456.16H160.74V454.8ZM160.64 459.16H165.2V460.54H160.64V459.16ZM153.32 454.8H157.12V456.16H153.32V454.8ZM152.2 460.02C152.773 459.86 153.44 459.66 154.2 459.42C154.973 459.18 155.773 458.927 156.6 458.66L156.82 459.84C156.127 460.107 155.433 460.367 154.74 460.62C154.047 460.86 153.393 461.093 152.78 461.32L152.2 460.02ZM146.56 457.58C147.333 457.353 148.267 457.073 149.36 456.74C150.467 456.393 151.587 456.04 152.72 455.68L152.94 457.06C151.9 457.407 150.853 457.753 149.8 458.1C148.747 458.447 147.793 458.753 146.94 459.02L146.56 457.58ZM146.84 451.24H152.9V452.64H146.84V451.24ZM149.34 447.22H150.74V463.86C150.74 464.26 150.687 464.573 150.58 464.8C150.487 465.027 150.313 465.2 150.06 465.32C149.82 465.44 149.5 465.52 149.1 465.56C148.7 465.6 148.18 465.613 147.54 465.6C147.527 465.427 147.473 465.2 147.38 464.92C147.3 464.653 147.213 464.413 147.12 464.2C147.547 464.213 147.933 464.22 148.28 464.22C148.64 464.233 148.88 464.233 149 464.22C149.12 464.22 149.207 464.193 149.26 464.14C149.313 464.1 149.34 464.007 149.34 463.86V447.22ZM172.56 448.34H184.94V449.7H172.56V448.34ZM173.84 459.5C174.48 460.447 175.353 461.24 176.46 461.88C177.58 462.507 178.893 463 180.4 463.36C181.92 463.72 183.587 463.96 185.4 464.08C185.293 464.2 185.18 464.34 185.06 464.5C184.94 464.673 184.827 464.84 184.72 465C184.627 465.173 184.553 465.333 184.5 465.48C182.66 465.307 180.967 465 179.42 464.56C177.887 464.133 176.533 463.547 175.36 462.8C174.2 462.04 173.26 461.093 172.54 459.96L173.84 459.5ZM174.5 455.74V457.82H182.78V455.74H174.5ZM174.5 452.56V454.6H182.78V452.56H174.5ZM173.1 451.38H184.24V458.98H173.1V451.38ZM178.02 448.76H179.5V456.74C179.5 457.46 179.453 458.173 179.36 458.88C179.267 459.587 179.08 460.273 178.8 460.94C178.52 461.593 178.113 462.213 177.58 462.8C177.047 463.373 176.347 463.9 175.48 464.38C174.613 464.873 173.54 465.3 172.26 465.66C172.207 465.54 172.127 465.4 172.02 465.24C171.913 465.093 171.8 464.94 171.68 464.78C171.573 464.633 171.467 464.513 171.36 464.42C172.613 464.127 173.653 463.78 174.48 463.38C175.307 462.967 175.953 462.507 176.42 462C176.9 461.493 177.253 460.953 177.48 460.38C177.707 459.807 177.853 459.213 177.92 458.6C177.987 457.973 178.02 457.347 178.02 456.72V448.76ZM171.14 447.28L172.56 447.68C172.173 448.813 171.72 449.933 171.2 451.04C170.68 452.133 170.113 453.167 169.5 454.14C168.887 455.113 168.247 455.98 167.58 456.74C167.54 456.62 167.467 456.467 167.36 456.28C167.253 456.093 167.14 455.907 167.02 455.72C166.9 455.52 166.793 455.367 166.7 455.26C167.3 454.607 167.873 453.853 168.42 453C168.98 452.133 169.487 451.213 169.94 450.24C170.407 449.267 170.807 448.28 171.14 447.28ZM169.2 452.42L170.62 451L170.64 451.02V465.56H169.2V452.42ZM191.84 449.7H195.64V451H191.84V449.7ZM186.82 453.22H196.16V454.58H186.82V453.22ZM191.12 447.3H192.46V453.9H191.12V447.3ZM188.24 448.78H189.48V454.14H188.24V448.78ZM194.1 458.54L195.4 458.94C194.813 460.633 193.9 462.033 192.66 463.14C191.42 464.233 189.833 465.08 187.9 465.68C187.833 465.48 187.713 465.267 187.54 465.04C187.38 464.813 187.22 464.62 187.06 464.46C188.873 463.98 190.367 463.253 191.54 462.28C192.713 461.307 193.567 460.06 194.1 458.54ZM193.56 455.74L194.72 455.34C195.04 455.847 195.347 456.4 195.64 457C195.933 457.6 196.147 458.113 196.28 458.54L195.04 459.02C194.933 458.593 194.74 458.073 194.46 457.46C194.18 456.833 193.88 456.26 193.56 455.74ZM191.12 454.18H192.46V459.42C192.46 459.753 192.42 460.02 192.34 460.22C192.273 460.407 192.127 460.553 191.9 460.66C191.673 460.767 191.387 460.833 191.04 460.86C190.693 460.873 190.267 460.88 189.76 460.88C189.747 460.693 189.7 460.487 189.62 460.26C189.553 460.033 189.48 459.827 189.4 459.64C189.733 459.653 190.04 459.66 190.32 459.66C190.6 459.66 190.787 459.653 190.88 459.64C191.04 459.64 191.12 459.56 191.12 459.4V454.18ZM188.58 455.4L189.9 455.7C189.673 456.487 189.38 457.26 189.02 458.02C188.673 458.767 188.3 459.407 187.9 459.94C187.82 459.86 187.707 459.78 187.56 459.7C187.413 459.607 187.26 459.52 187.1 459.44C186.953 459.36 186.827 459.293 186.72 459.24C187.133 458.76 187.5 458.18 187.82 457.5C188.14 456.807 188.393 456.107 188.58 455.4ZM195.98 448.14H205.08V449.44H195.98V448.14ZM197.94 455.6V457.54H203.26V455.6H197.94ZM197.94 458.66V460.62H203.26V458.66H197.94ZM197.94 452.54V454.46H203.26V452.54H197.94ZM196.62 451.36H204.62V461.8H196.62V451.36ZM199.86 448.76L201.44 448.96C201.293 449.533 201.133 450.107 200.96 450.68C200.787 451.253 200.627 451.753 200.48 452.18L199.24 451.94C199.32 451.647 199.4 451.313 199.48 450.94C199.56 450.553 199.633 450.173 199.7 449.8C199.78 449.413 199.833 449.067 199.86 448.76ZM198.42 462.14L199.72 462.92C199.387 463.253 198.987 463.593 198.52 463.94C198.067 464.287 197.587 464.607 197.08 464.9C196.573 465.193 196.08 465.44 195.6 465.64C195.48 465.507 195.32 465.34 195.12 465.14C194.92 464.953 194.74 464.793 194.58 464.66C195.06 464.473 195.547 464.24 196.04 463.96C196.533 463.667 196.987 463.367 197.4 463.06C197.813 462.74 198.153 462.433 198.42 462.14ZM201.22 462.98L202.34 462.24C202.713 462.48 203.1 462.753 203.5 463.06C203.9 463.367 204.28 463.673 204.64 463.98C205 464.273 205.293 464.547 205.52 464.8L204.34 465.62C204.127 465.38 203.84 465.1 203.48 464.78C203.133 464.473 202.76 464.16 202.36 463.84C201.96 463.52 201.58 463.233 201.22 462.98ZM215.18 447.2H216.7V450.02H215.18V447.2ZM215.18 458.62H216.7V465.66H215.18V458.62ZM207.08 460.18H224.94V461.58H207.08V460.18ZM207.68 449.44H224.38V450.84H207.68V449.44ZM222.8 451.38L224.12 452.06C223.613 452.527 223.06 452.98 222.46 453.42C221.86 453.86 221.307 454.247 220.8 454.58L219.7 453.92C220.033 453.693 220.393 453.433 220.78 453.14C221.167 452.847 221.54 452.547 221.9 452.24C222.26 451.92 222.56 451.633 222.8 451.38ZM214.86 450.5L216.16 451.02C215.787 451.527 215.387 452.047 214.96 452.58C214.533 453.1 214.133 453.547 213.76 453.92L212.78 453.48C213.02 453.2 213.267 452.887 213.52 452.54C213.773 452.193 214.013 451.84 214.24 451.48C214.48 451.12 214.687 450.793 214.86 450.5ZM217.78 452.04L218.96 452.62C218.44 453.26 217.867 453.927 217.24 454.62C216.613 455.313 215.98 455.987 215.34 456.64C214.7 457.28 214.1 457.84 213.54 458.32L212.62 457.8C213.193 457.307 213.793 456.727 214.42 456.06C215.047 455.38 215.653 454.693 216.24 454C216.84 453.293 217.353 452.64 217.78 452.04ZM211.92 453.46L212.66 452.58C213.047 452.807 213.453 453.067 213.88 453.36C214.307 453.653 214.713 453.947 215.1 454.24C215.487 454.52 215.793 454.78 216.02 455.02L215.24 456.02C215.013 455.767 214.707 455.493 214.32 455.2C213.947 454.893 213.547 454.587 213.12 454.28C212.707 453.973 212.307 453.7 211.92 453.46ZM211.66 457.34C212.313 457.313 213.053 457.287 213.88 457.26C214.72 457.22 215.607 457.173 216.54 457.12C217.487 457.067 218.44 457.02 219.4 456.98L219.38 458.08C218.02 458.187 216.687 458.287 215.38 458.38C214.073 458.473 212.907 458.56 211.88 458.64L211.66 457.34ZM217.02 455.54L218.1 455.02C218.433 455.393 218.767 455.8 219.1 456.24C219.447 456.667 219.753 457.093 220.02 457.52C220.3 457.947 220.513 458.327 220.66 458.66L219.5 459.26C219.367 458.913 219.167 458.527 218.9 458.1C218.633 457.66 218.333 457.22 218 456.78C217.68 456.327 217.353 455.913 217.02 455.54ZM207 457.76C207.64 457.52 208.407 457.213 209.3 456.84C210.193 456.467 211.107 456.087 212.04 455.7L212.32 456.84C211.533 457.213 210.74 457.587 209.94 457.96C209.14 458.333 208.407 458.667 207.74 458.96L207 457.76ZM207.7 452.5L208.7 451.66C209.087 451.847 209.48 452.073 209.88 452.34C210.28 452.593 210.66 452.847 211.02 453.1C211.38 453.353 211.673 453.593 211.9 453.82L210.86 454.76C210.633 454.533 210.34 454.287 209.98 454.02C209.633 453.74 209.26 453.467 208.86 453.2C208.473 452.933 208.087 452.7 207.7 452.5ZM219.32 456.32L220.36 455.46C220.88 455.713 221.427 456.007 222 456.34C222.587 456.66 223.14 456.987 223.66 457.32C224.18 457.64 224.613 457.94 224.96 458.22L223.86 459.18C223.54 458.9 223.12 458.593 222.6 458.26C222.093 457.913 221.553 457.573 220.98 457.24C220.407 456.893 219.853 456.587 219.32 456.32ZM229.52 448.56H242.64V465.28H241.04V450.06H231.06V465.38H229.52V448.56ZM230.56 455.48H241.72V456.96H230.56V455.48ZM230.52 462.58H241.74V464.08H230.52V462.58ZM249.36 448.16H264.88V449.52H249.36V448.16ZM250.48 452.78H256.7V453.84H250.48V452.78ZM248.44 448.16H249.88V454.08C249.88 454.907 249.853 455.813 249.8 456.8C249.76 457.787 249.673 458.793 249.54 459.82C249.407 460.847 249.207 461.853 248.94 462.84C248.687 463.827 248.353 464.733 247.94 465.56C247.86 465.48 247.74 465.393 247.58 465.3C247.42 465.207 247.26 465.113 247.1 465.02C246.94 464.94 246.8 464.88 246.68 464.84C247.08 464.04 247.393 463.187 247.62 462.28C247.86 461.36 248.04 460.42 248.16 459.46C248.28 458.5 248.353 457.56 248.38 456.64C248.42 455.72 248.44 454.867 248.44 454.08V448.16ZM253.08 450.78H254.34V458.02H253.08V450.78ZM253.02 453.14L253.9 453.48C253.673 454 253.38 454.527 253.02 455.06C252.673 455.593 252.3 456.093 251.9 456.56C251.5 457.013 251.1 457.387 250.7 457.68C250.593 457.533 250.453 457.367 250.28 457.18C250.107 456.993 249.953 456.847 249.82 456.74C250.233 456.5 250.64 456.187 251.04 455.8C251.44 455.4 251.813 454.973 252.16 454.52C252.507 454.053 252.793 453.593 253.02 453.14ZM257.3 452.78H264.6V453.84H257.3V452.78ZM252.52 461.14H262.24V462.18H252.52V461.14ZM252.52 463.74H262.24V464.88H252.52V463.74ZM260 450.78H261.28V458.02H260V450.78ZM259.62 453.22L260.5 453.56C260.273 454.08 259.973 454.607 259.6 455.14C259.24 455.673 258.847 456.167 258.42 456.62C257.993 457.06 257.56 457.427 257.12 457.72C257.027 457.573 256.893 457.407 256.72 457.22C256.56 457.033 256.413 456.887 256.28 456.78C256.707 456.54 257.127 456.233 257.54 455.86C257.967 455.473 258.36 455.053 258.72 454.6C259.093 454.133 259.393 453.673 259.62 453.22ZM254.26 453.96C254.367 454.027 254.533 454.14 254.76 454.3C254.987 454.447 255.22 454.613 255.46 454.8C255.713 454.973 255.947 455.14 256.16 455.3C256.373 455.46 256.527 455.58 256.62 455.66L255.84 456.64C255.72 456.507 255.56 456.347 255.36 456.16C255.16 455.96 254.94 455.76 254.7 455.56C254.473 455.36 254.253 455.167 254.04 454.98C253.827 454.793 253.653 454.647 253.52 454.54L254.26 453.96ZM261.7 453.26C261.94 453.727 262.233 454.18 262.58 454.62C262.94 455.06 263.347 455.46 263.8 455.82C264.253 456.167 264.713 456.447 265.18 456.66C265.033 456.78 264.873 456.94 264.7 457.14C264.54 457.34 264.407 457.52 264.3 457.68C263.82 457.4 263.36 457.047 262.92 456.62C262.48 456.18 262.073 455.7 261.7 455.18C261.327 454.647 261.027 454.113 260.8 453.58L261.7 453.26ZM251.64 458.54H263.22V465.56H261.7V459.68H253.12V465.58H251.64V458.54ZM255.44 449.96L256.44 450.74C255.947 450.927 255.38 451.1 254.74 451.26C254.113 451.407 253.46 451.533 252.78 451.64C252.1 451.733 251.433 451.807 250.78 451.86C250.767 451.74 250.72 451.6 250.64 451.44C250.573 451.267 250.507 451.113 250.44 450.98C251.04 450.913 251.653 450.833 252.28 450.74C252.92 450.647 253.52 450.533 254.08 450.4C254.64 450.267 255.093 450.12 255.44 449.96ZM262.82 449.92L263.8 450.7C263.28 450.887 262.673 451.053 261.98 451.2C261.3 451.347 260.587 451.467 259.84 451.56C259.093 451.653 258.38 451.727 257.7 451.78C257.673 451.66 257.627 451.513 257.56 451.34C257.493 451.167 257.42 451.02 257.34 450.9C257.993 450.847 258.667 450.773 259.36 450.68C260.053 450.587 260.707 450.473 261.32 450.34C261.933 450.207 262.433 450.067 262.82 449.92Z" fill="#FF9600"/>
</g>
<defs>
<filter id="filter0_i_382_4074" x="76" y="15" width="224" height="59" filterUnits="userSpaceOnUse" color-interpolation-filters="sRGB">
<feFlood flood-opacity="0" result="BackgroundImageFix"/>
<feBlend mode="normal" in="SourceGraphic" in2="BackgroundImageFix" result="shape"/>
<feColorMatrix in="SourceAlpha" type="matrix" values="0 0 0 0 0 0 0 0 0 0 0 0 0 0 0 0 0 0 127 0" result="hardAlpha"/>
<feOffset dx="4" dy="4"/>
<feGaussianBlur stdDeviation="2"/>
<feComposite in2="hardAlpha" operator="arithmetic" k2="-1" k3="1"/>
<feColorMatrix type="matrix" values="0 0 0 0 0 0 0 0 0 0 0 0 0 0 0 0 0 0 0.25 0"/>
<feBlend mode="normal" in2="shape" result="effect1_innerShadow_382_4074"/>
</filter>
<filter id="filter1_i_382_4074" x="172.777" y="366" width="28.4185" height="36" filterUnits="userSpaceOnUse" color-interpolation-filters="sRGB">
<feFlood flood-opacity="0" result="BackgroundImageFix"/>
<feBlend mode="normal" in="SourceGraphic" in2="BackgroundImageFix" result="shape"/>
<feColorMatrix in="SourceAlpha" type="matrix" values="0 0 0 0 0 0 0 0 0 0 0 0 0 0 0 0 0 0 127 0" result="hardAlpha"/>
<feOffset dx="1" dy="1"/>
<feGaussianBlur stdDeviation="1"/>
<feComposite in2="hardAlpha" operator="arithmetic" k2="-1" k3="1"/>
<feColorMatrix type="matrix" values="0 0 0 0 0 0 0 0 0 0 0 0 0 0 0 0 0 0 0.15 0"/>
<feBlend mode="normal" in2="shape" result="effect1_innerShadow_382_4074"/>
</filter>
<filter id="filter2_d_382_4074" x="94" y="431" width="188" height="58" filterUnits="userSpaceOnUse" color-interpolation-filters="sRGB">
<feFlood flood-opacity="0" result="BackgroundImageFix"/>
<feColorMatrix in="SourceAlpha" type="matrix" values="0 0 0 0 0 0 0 0 0 0 0 0 0 0 0 0 0 0 127 0" result="hardAlpha"/>
<feOffset dx="2" dy="4"/>
<feGaussianBlur stdDeviation="2"/>
<feComposite in2="hardAlpha" operator="out"/>
<feColorMatrix type="matrix" values="0 0 0 0 0 0 0 0 0 0 0 0 0 0 0 0 0 0 0.25 0"/>
<feBlend mode="normal" in2="BackgroundImageFix" result="effect1_dropShadow_382_4074"/>
<feBlend mode="normal" in="SourceGraphic" in2="effect1_dropShadow_382_4074" result="shape"/>
</filter>
</defs>
</svg>
