<svg width="312" height="453" viewBox="0 0 312 453" fill="none" xmlns="http://www.w3.org/2000/svg">
<path d="M56.6153 295.146C57.4589 294.584 60.4037 295.303 61.7707 295.732C59.7007 294.443 56.2638 292.006 59.0758 292.569C61.8879 293.131 63.2158 293.506 63.5282 293.623C63.2158 293.076 62.7315 291.96 63.2939 291.866C61.5754 290.85 58.2557 288.585 58.7243 287.648C59.193 286.71 63.6844 288.585 65.8716 289.64C63.9969 287.843 60.7865 284.414 62.9424 285.07C65.0983 285.726 67.59 286.984 68.5664 287.531C67.3166 285.617 65.2389 282 66.9261 282.844C68.6133 283.687 69.8162 285.148 70.2068 285.773C69.8162 284.679 69.1523 282.445 69.6209 282.258C69.8518 282.166 69.6278 281.691 69.3791 281.165C68.9967 280.355 68.556 279.421 69.6209 279.563C70.7012 279.707 70.5863 278.966 70.4734 278.237C70.4026 277.78 70.3325 277.328 70.5583 277.103C71.027 276.634 72.3158 276.907 72.9016 277.103C73.2531 276.829 74.2373 276.447 75.3622 277.103C76.073 277.517 75.7057 276.704 75.2898 275.783C74.8831 274.883 74.43 273.88 74.8935 273.822C75.389 273.76 75.2624 273.01 75.1541 272.369C75.0575 271.798 74.9756 271.313 75.3622 271.479C75.6454 271.6 76.0265 271.833 76.4088 272.067C77.1337 272.511 77.8631 272.957 77.9398 272.65C78.0031 272.397 77.588 271.768 77.1927 271.169C76.8561 270.659 76.5338 270.171 76.5338 269.955C76.5338 269.58 77.8617 269.799 78.5257 269.955H79.6974C78.6819 269.174 76.9556 267.612 78.1742 267.612H80.6347C80.5175 267.065 80.166 265.925 79.6974 265.737C79.1115 265.503 79.3459 264.917 80.6347 264.8C81.6658 264.706 82.3141 264.136 82.5094 263.863L85.6729 263.277C83.6108 261.683 84.8137 259.957 85.6729 259.293C85.5792 258.45 86.5712 256.52 87.0789 255.661C85.6729 254.161 87.6648 252.693 88.8364 252.146C87.6179 250.834 89.8128 248.631 91.0626 247.694L89.5394 248.279C90.159 247.474 89.7957 246.767 89.3851 245.967C89.0192 245.255 88.6156 244.469 88.8364 243.475C89.1029 242.276 88.8013 241.683 88.556 241.201C88.3698 240.835 88.2161 240.533 88.3678 240.078C88.5588 239.505 88.3692 238.482 88.1939 237.536C88.0466 236.741 87.9093 236 88.0163 235.625C88.2037 234.969 87.3133 233.399 86.8446 232.696C86.6913 231.7 84.5331 231.556 82.8615 231.444C81.9774 231.385 81.2294 231.335 80.9862 231.173C80.4238 230.798 78.7991 230.245 78.057 230.016C78.585 230.28 78.6565 230.798 78.057 231.173C77.1197 231.759 75.0107 231.056 73.2531 231.173C71.4956 231.29 73.9561 232.227 74.1905 232.93C74.4248 233.633 72.1986 232.227 71.3785 232.227C70.5583 232.227 70.9098 232.93 71.6128 233.399C72.3158 233.868 71.73 234.336 70.4411 234.219C69.1523 234.102 69.7381 234.571 69.6209 235.157C69.5038 235.742 69.0351 235.625 67.2776 235.625C65.5201 235.625 65.5201 236.211 66.4574 236.445C67.3948 236.68 67.6291 236.914 67.2776 237.383C66.9261 237.851 65.8716 237.148 65.0514 236.914C64.2312 236.68 64.2312 239.023 63.2939 239.96C62.3565 240.898 62.4737 242.187 60.7162 242.89C59.3102 243.452 59.8179 244.452 60.2475 244.882C59.0758 245.467 59.896 246.288 58.6072 247.225C57.3183 248.162 57.787 249.217 57.2012 249.685C56.6153 250.154 56.7325 251.209 54.1548 251.794C52.0926 252.263 54.1548 253.318 55.4436 253.786C55.2874 254.645 54.6938 256.528 53.569 257.184C52.4442 257.84 51.9286 259.254 51.8114 259.879L49.5853 259.527L50.0539 261.051C49.5853 260.855 48.5073 260.441 47.9449 260.348C47.3825 260.254 47.3981 262.183 47.4762 263.16C47.2029 263.043 46.3514 262.878 45.1329 263.16C43.9143 263.441 44.9376 264.449 45.6016 264.917L43.4925 266.206C41.5007 266.323 43.2582 268.081 43.141 268.784C43.0239 269.487 41.8522 268.432 40.7977 268.081C39.7432 267.729 40.9148 269.252 41.3835 269.955C41.8522 270.658 40.2118 270.19 38.8058 270.893C37.3998 271.596 40.6805 272.416 39.2745 273.002C37.8685 273.588 38.4543 275.579 37.9857 276.048C36.7114 277.322 38.697 277.179 37.6342 277.923C36.4625 278.743 37.7513 279.563 35.9938 280.149C34.5878 280.618 35.408 281.36 35.9938 281.672C35.8376 281.867 35.6189 282.375 35.9938 282.844C36.4625 283.43 36.2281 285.07 34.9393 285.773C33.9082 286.335 33.4942 286.71 33.4161 286.828C34.3535 287.101 35.9704 287.882 34.9393 288.819C33.6505 289.991 29.0809 293.623 27.9092 295.146C26.7376 296.67 25.2144 297.841 24.8629 298.427L19.1217 304.754C18.3796 305.731 16.8486 308.199 16.6611 310.261C16.4268 312.839 11.9744 315.182 12.7946 317.76C13.6148 320.337 2.01517 323.853 0.37482 325.727C-1.26553 327.602 2.83534 328.422 5.76453 327.133C8.69373 325.844 0.37482 334.749 0.37482 337.327C0.37482 339.905 4.35855 336.858 6.7019 333.343C8.57658 330.531 11.9354 329.828 12.7946 329.477C10.998 330.805 7.38147 333.765 7.28774 334.983C7.17057 336.507 5.06155 341.076 4.94439 342.131C4.82722 343.185 3.18687 344.708 3.53837 346.114C4.47571 345.45 6.53787 343.888 7.28774 342.951C8.03761 342.014 10.3341 338.811 11.3886 337.327C12.6072 336.389 16.0753 332.328 16.6611 331.82C16.1925 332.796 11.3886 339.084 11.3886 340.49C11.3886 342.248 11.8573 342.717 11.3886 343.888C10.9199 345.06 13.6148 343.888 14.5521 341.193C15.3799 338.813 22.696 330.859 24.4753 328.306C24.7566 327.634 24.8934 327.327 24.8629 327.602C24.8492 327.725 24.7107 327.968 24.4753 328.306C23.678 330.212 21.7199 335.055 19.1217 337.913C16.8036 340.462 16.6611 342.717 16.6611 343.888C16.6611 345.06 25.2144 338.264 29.3153 329.711C33.4161 321.158 33.4161 326.079 35.9938 321.392C38.5715 316.705 38.5715 314.362 50.1711 304.754C50.5617 304.129 51.5302 302.786 52.2801 302.411C53.2175 301.942 55.678 299.833 55.9123 299.13L59.0758 297.194C57.464 296.381 56.0804 295.503 56.6153 295.146Z" fill="#FFB81E"/>
<path d="M308.057 407.745C307.588 406.104 306.393 402.589 305.362 401.652C304.073 400.48 301.613 395.09 301.027 391.575C300.441 388.06 299.855 387.24 300.09 386.42C300.277 385.764 299.699 384.35 299.387 383.725C299.699 383.178 300.137 381.851 299.387 380.913C298.449 379.741 300.558 380.445 298.449 377.398C298.918 376.93 299.574 375.734 298.449 374.703C298.762 373.493 298.824 370.462 296.575 368.025C297.16 367.712 297.981 366.736 296.575 365.33C296.77 364.666 296.223 362.12 292.474 357.245C292.981 356.933 293.294 355.699 290.482 353.262C290.833 352.363 290.599 349.723 286.85 346.349C285.444 342.209 281.554 332.593 277.242 327.25C277.633 326.821 277.875 325.329 275.719 322.798C276.266 322.368 276.586 320.853 273.493 318.228C274.078 317.838 274.594 316.565 271.969 314.596C268.689 312.136 273.961 313.659 273.493 312.956C273.118 312.394 271.384 310.456 270.563 309.558C270.759 309.011 270.751 307.707 269.157 306.863C267.166 305.809 268.923 304.871 265.174 302.528C265.213 301.942 264.822 300.583 262.948 299.833C263.26 299.404 263.393 298.357 261.424 297.607C259.456 296.857 259.432 295.576 259.667 295.029C259.315 294.795 258.495 294.326 258.027 294.326C257.324 293.467 255.73 291.702 254.98 291.514C253.457 294.014 249.778 299.365 247.247 300.771C244.635 302.222 246.896 304.632 248.819 306.681C249.225 307.114 249.615 307.53 249.942 307.918C251.817 310.144 256.152 315.299 257.909 319.869C259.667 324.438 263.182 332.289 265.877 334.163C266.935 334.9 269.025 335.076 271.036 335.245C274.146 335.507 277.07 335.753 275.719 338.03C275.007 339.228 274.212 340.151 273.509 340.967C272.012 342.704 270.933 343.957 271.969 346.349C272.565 347.723 273.698 349.044 274.858 350.395C276.663 352.499 278.531 354.677 278.531 357.245C278.531 359.112 279.242 360.543 279.944 361.954C280.828 363.731 281.696 365.478 281.109 368.025C280.643 370.041 280.064 371.191 279.632 372.047C279.085 373.131 278.776 373.746 279.234 375.055C279.38 375.471 279.755 376.258 280.247 377.289C282.521 382.057 287.285 392.042 283.335 394.739C279.492 397.364 275.016 399.738 273.258 400.597C272.399 402.941 270.142 408.541 267.986 412.197C265.83 415.853 267.088 418.094 267.986 418.758C269.782 416.571 273.891 412.197 275.953 412.197C278.531 412.197 276.539 408.565 278.531 414.306L278.542 414.337C280.527 420.058 281.581 423.096 283.335 424.382C284.741 425.413 285.639 427.077 285.913 427.78C286.225 427.038 286.85 424.875 286.85 422.156C286.85 419.438 285.444 412.822 284.741 409.854C286.655 412.197 290.482 417.516 290.482 420.047C290.482 422.578 292.825 426.96 293.997 428.835C294.856 428.444 296.575 426.773 296.575 423.211C296.575 419.649 294.856 412.822 293.997 409.854C297.434 412.158 304.683 417.305 306.183 419.461C307.682 421.617 310.088 425.906 311.104 427.78C311.572 426.101 312.369 422.344 311.807 420.75C311.104 418.758 308.76 414.54 305.362 412.197C301.964 409.854 298.449 402.706 298.449 401.652C298.449 400.597 302.55 410.791 308.057 407.745Z" fill="#FFD350"/>
<path fill-rule="evenodd" clip-rule="evenodd" d="M170.385 214.301C170.385 214.301 153.552 221.878 149.998 224.494C148.904 226.096 146.6 229.697 146.131 231.29C146.057 231.541 145.997 231.784 145.938 232.017C145.532 233.631 145.233 234.821 141.445 235.742C140.075 236.076 138.741 236.315 137.618 236.517C135.189 236.953 133.755 237.21 135.118 237.851C137.109 238.789 141.093 241.601 140.156 242.421C139.814 242.721 139.768 243.426 139.717 244.219C139.629 245.597 139.523 247.236 137.813 247.459C136.227 247.666 137.034 248.4 137.895 249.183C138.499 249.732 139.129 250.306 138.984 250.74C138.858 251.118 138.415 251.452 137.909 251.832C137.006 252.511 135.905 253.339 136.055 254.841C136.183 256.116 133.393 255.795 131.014 255.521C129.023 255.291 127.319 255.095 127.853 255.895C128.434 256.766 129.819 257.521 130.785 258.048C131.768 258.585 132.317 258.884 131.134 258.824C130.451 258.79 129.479 258.657 128.48 258.519C126.051 258.185 123.459 257.828 124.455 258.824C125.022 259.391 126.52 259.805 127.938 260.197C130.041 260.779 131.97 261.313 130.431 262.222C129.73 262.636 129.116 262.903 128.641 263.11C127.366 263.664 127.084 263.786 128.791 265.152C131.134 267.026 130.197 268.667 127.853 269.135C127.068 269.292 127.138 269.896 127.23 270.692C127.412 272.272 127.681 274.606 121.526 275.697C115.747 276.721 119.697 277.38 123.166 277.958C125.253 278.306 127.166 278.625 126.682 278.977C125.393 279.915 122.229 283.43 126.682 284.133C127.176 284.211 127.664 284.297 128.139 284.391C131.944 285.141 134.897 286.333 133.126 287.062C132.147 287.465 132.611 288.405 133.1 289.396C133.606 290.423 134.139 291.504 133.126 292.1C131.134 293.272 129.962 293.975 131.954 294.795L124.455 297.93L120.355 299.13C118.937 299.286 115.897 299.599 115.082 299.599H112.24L110.513 302.411L107.701 304.754C106.685 305.568 104.654 307.69 104.654 309.675C104.654 311.066 102.813 311.855 101.195 312.548C99.9268 313.091 98.7961 313.576 98.7961 314.245C98.7961 314.925 98.0476 315.325 97.1985 315.779C96.1472 316.34 94.9416 316.984 94.812 318.346C94.6245 320.314 90.2034 321.197 88.0163 321.392L82.0203 324.711C81.8487 324.761 81.6612 324.862 81.4552 325.024C79.8148 326.313 77.5887 327.953 77.5887 325.844C77.5887 324.652 77.0268 324.396 76.4749 324.144C76.0507 323.951 75.6324 323.761 75.4796 323.15C75.3375 322.581 74.6783 322.779 74.0207 322.976C73.0519 323.266 72.0868 323.556 72.7848 321.392C73.5619 318.983 70.2153 320.027 67.634 320.833C66.3237 321.242 65.2106 321.589 64.9344 321.392C64.2964 320.936 66.3531 319.417 67.684 318.433L67.6868 318.431C68.0654 318.152 68.385 317.915 68.5666 317.76C69.2228 317.197 70.7928 315.573 71.4958 314.831C70.4413 314.831 68.2854 314.713 68.0979 314.245C67.8636 313.659 67.0434 312.956 62.8254 313.307C58.8322 313.64 64.1846 311.873 65.6614 311.385L65.7357 311.361C65.7874 311.344 65.833 311.328 65.8717 311.316C66.9262 310.964 67.0435 310.378 64.9344 310.261C63.2472 310.167 64.2314 309.207 64.9344 308.738C62.0052 308.269 57.7168 307.004 63.997 305.692C59.9743 304.442 54.1082 302.036 62.8254 302.411C59.5836 301.161 54.5998 298.755 60.599 299.13C60.7161 298.857 61.1145 298.333 61.7707 298.427C61.013 298.113 60.0064 297.664 59.0758 297.194C57.464 296.381 56.0804 295.503 56.6153 295.146C57.4589 294.584 60.4037 295.303 61.7707 295.732C59.7007 294.443 56.2638 292.006 59.0758 292.569C61.8879 293.131 63.2158 293.506 63.5282 293.623C63.2158 293.076 62.7315 291.96 63.2939 291.866C61.5754 290.85 58.2557 288.585 58.7243 287.648C59.193 286.71 63.6844 288.585 65.8716 289.64C63.9969 287.843 60.7865 284.414 62.9424 285.07C65.0983 285.726 67.59 286.984 68.5664 287.531C67.3166 285.617 65.2389 282 66.9261 282.844C68.6133 283.687 69.8162 285.148 70.2068 285.773C69.8162 284.679 69.1523 282.445 69.6209 282.258C69.8518 282.166 69.6278 281.691 69.3791 281.165C68.9967 280.355 68.556 279.421 69.6209 279.563C70.7012 279.707 70.5863 278.966 70.4734 278.237C70.4026 277.78 70.3325 277.328 70.5583 277.103C71.027 276.634 72.3158 276.907 72.9016 277.103C73.2531 276.829 74.2373 276.447 75.3622 277.103C76.073 277.517 75.7057 276.704 75.2898 275.783C74.8831 274.883 74.43 273.88 74.8935 273.822C75.389 273.76 75.2624 273.01 75.1541 272.369C75.0575 271.798 74.9756 271.313 75.3622 271.479C75.6454 271.6 76.0265 271.833 76.4088 272.067C77.1337 272.511 77.8631 272.957 77.9398 272.65C78.0031 272.397 77.588 271.768 77.1927 271.169C76.8561 270.659 76.5338 270.171 76.5338 269.955C76.5338 269.58 77.8617 269.799 78.5257 269.955H79.6974C78.6819 269.174 76.9556 267.612 78.1742 267.612H80.6347C80.5175 267.065 80.166 265.925 79.6974 265.737C79.1115 265.503 79.3459 264.917 80.6347 264.8C81.6658 264.706 82.3141 264.136 82.5094 263.863L85.6729 263.277C83.6108 261.683 84.8137 259.957 85.6729 259.293C85.5792 258.45 86.5712 256.52 87.0789 255.661C85.6729 254.161 87.6648 252.693 88.8364 252.146C87.6179 250.834 89.8128 248.631 91.0626 247.694L89.5394 248.279C90.159 247.474 89.7957 246.767 89.3851 245.967C89.0192 245.255 88.6156 244.469 88.8364 243.475C89.1029 242.276 88.8013 241.683 88.556 241.201C88.3698 240.835 88.2161 240.533 88.3678 240.078C88.5588 239.505 88.3692 238.482 88.1939 237.536C88.0466 236.741 87.9093 236 88.0163 235.625C88.2037 234.969 87.3133 233.399 86.8446 232.696C86.6913 231.7 84.5331 231.556 82.8615 231.444C81.9774 231.385 81.2294 231.335 80.9862 231.173C80.4238 230.798 78.7991 230.245 78.057 230.016C77.7595 229.867 77.3171 229.8 76.7682 229.884C75.245 230.118 72.7845 229.767 74.542 229.064C75.948 228.501 77.4712 228.517 78.057 228.595L74.1905 227.189L76.7682 225.783L73.2531 224.729L74.1905 223.205L71.3785 222.502L72.433 221.331L71.73 218.519V216.878C71.73 216.597 69.9334 216.293 69.0351 216.175L70.5583 215.121C70.8707 214.848 71.5894 214.301 71.9643 214.301C72.433 214.301 71.4956 212.192 70.7926 212.778C70.0896 213.363 68.6836 213.949 69.0351 213.012C69.1718 212.647 68.9008 212.354 68.6633 212.096C68.2904 211.692 68.0004 211.378 69.5038 211.02C71.9643 210.434 70.4411 209.497 69.9724 209.38C69.7051 209.313 69.6665 209.208 69.5739 208.956C69.5042 208.766 69.4039 208.493 69.1523 208.091C68.9078 207.7 68.3982 207.39 67.9808 207.137C67.398 206.783 66.9952 206.538 67.7463 206.333C68.7773 206.052 69.3475 205.982 69.5038 205.982C69.3866 205.396 69.2694 204.177 69.7381 203.99C70.2068 203.803 70.6364 203.365 70.7926 203.17C70.6755 202.857 70.3942 202.162 70.2068 201.881C70.1411 201.782 69.8357 201.785 69.469 201.789C68.5284 201.797 67.1847 201.81 68.4493 200.123C69.2192 199.097 70.349 198.453 71.1194 198.013C72.1075 197.45 72.5044 197.223 70.7926 196.96C67.7463 196.491 68.4493 195.671 70.2068 194.734C70.5192 194.031 71.4722 192.531 72.7845 192.156L71.73 190.281L72.7845 189.813L70.7926 187.352L73.839 185.712C73.839 185.282 73.6281 184.306 72.7845 183.837C71.9409 183.368 74.3857 182.08 75.7137 181.494C75.9089 180.713 76.2995 178.986 76.2995 178.33C76.2995 177.674 77.7055 176.651 78.4085 176.221C78.2523 175.674 78.1507 174.393 78.9943 173.644C79.5595 173.141 80.0237 171.293 80.459 169.559C80.836 168.058 81.1914 166.643 81.572 166.262C81.9243 165.91 82.2766 164.585 82.6382 163.224C83.1184 161.418 83.615 159.55 84.1497 159.818C84.6211 160.053 84.9148 158.096 85.2243 156.032C85.5302 153.993 85.8518 151.849 86.3759 151.616C87.4304 151.147 89.0708 147.632 89.5394 145.875L93.1716 134.861C97.663 120.098 106.06 85.3226 103.717 64.3261C102.303 51.6577 99.6332 36.1774 97.4603 23.5778C95.1316 10.0745 93.3735 -0.120154 94.3433 0.00106982C96.218 0.235405 99.2643 6.21094 100.319 13.944C100.777 17.3036 102.783 22.8082 104.906 28.6325C107.669 36.2146 110.63 44.3386 110.63 48.9771C110.63 52.1329 112.069 59.521 113.741 68.0982C116.413 81.813 119.678 98.5679 118.597 105.921C117.384 114.166 119.685 125.144 121.575 134.161C122.425 138.213 123.191 141.869 123.518 144.703C123.87 145.797 124.549 148.195 124.455 149.038C124.411 149.435 124.6 150.63 124.814 151.991C125.17 154.242 125.597 156.948 125.158 157.24C125.705 158.529 126.635 161.458 125.979 162.864C125.432 164.036 125.614 164.374 125.796 164.713C125.887 164.882 125.979 165.051 125.979 165.325C125.979 165.981 125.588 167.082 125.393 167.551C126.018 167.863 127.08 168.629 126.33 169.191C125.393 169.894 125.627 170.48 126.33 170.949C126.892 171.324 127.033 173.136 127.033 173.995C127.111 174.971 127.127 177.041 126.564 177.51C127.033 178.018 127.83 179.127 127.267 179.502C126.629 179.821 126.86 180.63 127.073 181.372C127.172 181.72 127.267 182.052 127.267 182.314V184.189C129.181 184.345 132.001 184.939 127.97 186.063H127.853C128.4 186.337 129.447 187.024 129.259 187.587C129.184 187.814 129.34 187.931 129.508 188.056C129.859 188.319 130.26 188.619 128.673 190.047C128.634 190.555 128.884 191.547 130.197 191.453C131.837 191.336 132.188 191.57 130.431 192.976C129.556 193.676 130.017 193.853 130.585 194.072C131.157 194.292 131.839 194.554 131.368 195.437C132.306 195.71 133.782 196.468 132.188 197.311C131.993 197.741 131.72 198.553 132.188 198.366C132.774 198.132 135.821 197.663 134.18 198.952C132.54 200.241 132.774 200.709 133.477 200.826C133.691 200.862 134.045 200.844 134.428 200.824C135.306 200.778 136.335 200.724 136.172 201.295H136.992C137.773 200.123 139.312 198.132 139.219 199.538C139.125 200.944 138.711 202.545 138.516 203.17C138.789 203.092 139.406 202.842 139.687 202.467C139.763 202.365 139.851 202.214 139.946 202.048C140.293 201.448 140.752 200.653 141.21 201.295C141.485 201.679 141.785 201.883 142.05 202.064C142.352 202.269 142.609 202.444 142.734 202.818C142.921 203.381 142.812 204.146 142.734 204.459C143.163 204.459 143.999 204.599 143.905 205.162C143.85 205.496 144.244 205.565 144.635 205.634C145.067 205.71 145.496 205.786 145.311 206.216C145.03 206.872 144.413 207.349 144.14 207.505C144.764 207.466 145.944 207.669 145.663 208.794C146.171 208.52 147.397 207.95 148.24 207.857C148.75 207.8 148.986 207.689 149.226 207.576C149.482 207.454 149.744 207.331 150.349 207.271C150.809 207.225 151.268 207.035 151.734 206.842C152.458 206.543 153.198 206.237 153.982 206.451C155.186 206.779 155.367 206.596 155.96 205.997C156.001 205.955 156.045 205.911 156.091 205.865C156.794 205.162 157.497 205.162 157.497 206.216C158.161 206.255 159.489 206.521 159.489 207.271C159.489 207.836 160.085 207.422 160.686 207.003C161.083 206.728 161.482 206.451 161.715 206.451C162.144 206.06 163.121 205.396 163.589 205.865C163.923 206.199 164.486 206.456 164.929 206.66C165.264 206.813 165.531 206.936 165.581 207.036C165.698 207.271 167.104 206.568 167.807 206.216C168.51 205.865 170.619 206.216 169.448 207.036C168.276 207.857 169.799 208.677 170.737 207.857C171.674 207.036 173.197 206.216 172.846 207.271C172.816 207.359 172.789 207.439 172.763 207.513C172.637 207.88 172.568 208.081 172.639 208.192C172.726 208.325 173.019 208.325 173.666 208.325C173.944 208.325 174.212 208.314 174.458 208.304C175.35 208.268 175.959 208.243 175.775 208.794C175.541 209.497 175.892 210.2 177.767 209.497C179.641 208.794 180.93 209.028 180.344 209.848L183.859 210.662C182.439 210.918 180.704 211.189 178.001 211.137C173.127 211.043 170.385 214.301 170.385 214.301Z" fill="#FFCD4E"/>
<path d="M124.104 329.945C124.292 330.508 126.213 330.57 127.151 330.531L128.674 330.648C128.556 329.711 129.962 328.188 130.548 328.071C131.134 327.953 131.72 326.43 131.72 325.727C131.72 325.36 132.392 324.96 133.034 324.579C133.62 324.231 134.18 323.898 134.18 323.618C134.18 323.354 134.847 322.828 135.601 322.233C136.519 321.509 137.567 320.682 137.695 320.103C137.93 319.049 139.101 318.463 139.57 318.346C139.738 318.304 140.012 318.065 140.381 317.745C141.039 317.172 142 316.336 143.202 315.885C144.702 315.323 145.233 313.542 145.311 312.722C145.581 311.691 144.096 310.261 143.319 309.675C142.537 308.99 142.081 308.081 141.636 307.194C141.016 305.957 140.418 304.763 138.984 304.286C137.433 303.768 136.673 302.227 136.089 301.041C135.746 300.345 135.464 299.772 135.118 299.599C134.741 299.41 134.478 298.73 134.168 297.93C133.708 296.74 133.145 295.285 131.954 294.795L124.455 297.93L120.355 299.13C118.937 299.286 115.897 299.599 115.082 299.599H112.24L110.513 302.411L107.701 304.754C106.685 305.568 104.654 307.69 104.654 309.675C104.654 311.066 102.813 311.855 101.195 312.548C99.9268 313.091 98.7961 313.576 98.7961 314.245C98.7961 314.925 98.0476 315.325 97.1985 315.779C96.1472 316.34 94.9416 316.984 94.812 318.346C94.6245 320.314 90.2034 321.197 88.0163 321.392L82.0203 324.711C82.9613 324.437 83.4233 325.688 83.8274 326.783C83.9364 327.079 84.0412 327.362 84.15 327.602C84.6187 328.633 86.2981 327.172 87.0792 326.313C87.3526 326.743 88.04 327.508 88.6024 327.133C89.0478 326.836 89.4462 327.104 89.7975 327.34C90.0007 327.476 90.1882 327.602 90.3599 327.602C90.5083 327.602 90.7742 327.39 91.0534 327.168C91.6559 326.689 92.3206 326.161 92.0003 327.602C91.5317 329.711 92.7033 329.125 93.7579 328.422C94.6015 327.86 95.6716 327.328 96.1012 327.133C96.1678 327.932 97.0289 327.823 97.7601 327.731C98.3156 327.66 98.7961 327.599 98.7961 327.953C98.7961 328.61 100.983 328.539 102.077 328.422C102.276 329.684 102.927 329.365 103.539 329.065C104.006 328.836 104.451 328.617 104.654 329.125C104.926 329.804 105.906 329.46 106.682 329.187C107.245 328.99 107.701 328.829 107.701 329.125C107.701 329.828 109.927 329.711 110.513 329.477C110.979 329.29 112.334 330.067 112.692 330.393C112.773 330.022 113.414 328.991 113.794 328.422C113.95 328.93 114.426 330.062 115.082 330.531C115.456 330.798 115.781 330.385 116.101 329.977C116.485 329.489 116.862 329.009 117.309 329.711C117.771 330.437 118.792 330.084 119.658 329.785C120.328 329.553 120.905 329.353 121.058 329.711C121.339 330.367 123.206 330.141 124.104 329.945Z" fill="#FFB71A"/>
<path fill-rule="evenodd" clip-rule="evenodd" d="M149.998 224.494C153.552 221.878 170.385 214.301 170.385 214.301C170.385 214.301 173.127 211.043 178.001 211.137C180.704 211.189 182.439 210.918 183.859 210.662C183.992 210.638 184.122 210.615 184.249 210.591C185.837 210.301 187.084 210.072 189.015 210.434C189.637 210.551 190.225 210.694 190.794 210.832C193.656 211.527 196.081 212.116 200.38 208.794C203.875 206.093 207.8 204.793 210.915 203.761C212.396 203.27 213.693 202.84 214.674 202.35C217.721 200.826 226.86 196.491 226.508 205.396C226.626 205.162 227.047 204.67 227.797 204.576C228.164 204.53 228.62 204.198 229.046 203.887C229.711 203.403 230.304 202.971 230.375 203.756C230.492 205.045 230.726 205.747 231.781 205.865C232.835 205.982 234.242 206.919 234.71 207.388C234.898 207.576 235.369 207.556 235.918 207.534C236.738 207.5 237.734 207.459 238.225 208.091C239.045 209.145 240.569 208.325 240.686 207.388C240.803 206.451 243.381 204.224 243.263 206.451C243.243 206.848 243.207 207.261 243.172 207.662C243.012 209.502 242.875 211.078 244.318 209.731C246.075 208.091 249.942 205.044 249.239 207.388C248.536 209.731 246.896 216.175 247.13 218.753C247.364 221.331 248.77 225.197 250.762 223.674C252.754 222.151 260.136 216.996 258.612 222.034C257.873 224.479 257.107 225.627 256.607 226.375C256.077 227.169 255.847 227.513 256.269 228.478C256.509 229.027 256.639 229.475 256.74 229.826C256.985 230.674 257.066 230.953 258.144 230.704C258.883 230.534 258.932 231.19 258.975 231.751C259.02 232.347 259.057 232.834 259.901 232.11C261.542 230.704 268.103 226.955 266.697 229.533C266.247 230.357 265.558 231.277 264.931 232.114C263.6 233.891 262.553 235.288 264.705 234.571C264.877 234.513 265.06 234.452 265.251 234.387C265.383 234.342 265.519 234.296 265.659 234.249C269.028 233.105 274.396 231.282 272.907 233.516C272.199 234.578 270.53 235.793 268.975 236.925C266.928 238.416 265.078 239.763 265.877 240.429C266.657 241.079 269.241 239.601 271.346 238.397C273.036 237.43 274.417 236.64 274.313 237.266C274.193 237.984 272.545 239.65 271.179 241.03C269.872 242.351 268.824 243.411 269.626 243.124C270.726 242.731 272.354 242.76 273.836 242.786H273.838C274.565 242.799 275.258 242.811 275.836 242.772C277.594 242.655 278.648 243.593 277.242 244.413C277.003 244.552 276.625 244.76 276.168 245.01C273.94 246.231 269.845 248.476 270.915 248.865C271.297 249.004 272.42 248.999 273.701 248.993C276.743 248.979 280.679 248.961 277.711 250.857C276.759 251.465 275.844 252.007 275.03 252.489C272.235 254.144 270.638 255.09 272.907 255.544C274.595 255.881 275.31 256.491 275.793 256.903C276.147 257.205 276.376 257.401 276.773 257.301C277.711 257.067 281.694 258.004 279.703 258.59C279.162 258.749 278.406 258.917 277.621 259.091C275.514 259.558 273.203 260.07 274.313 260.582C274.955 260.878 274.452 261.133 273.909 261.408C273.165 261.784 272.348 262.198 274.313 262.808C277.711 263.863 276.656 265.503 274.782 265.034C273.496 264.713 272.266 265.769 271.279 266.616L271.278 266.617C270.826 267.004 270.426 267.348 270.095 267.495C269.64 267.697 269.447 268.619 269.233 269.64L267.4 266.205L261.659 262.807C263.573 262.417 266.955 261.307 265.174 259.995C263.667 258.884 264.2 258.042 264.702 257.251C264.942 256.873 265.174 256.507 265.174 256.129C265.174 255.471 267.276 256.326 268.873 256.975C270.123 257.484 271.064 257.866 270.446 257.3C269.322 256.269 269.978 254.996 270.446 254.488C270.603 253.863 270.212 252.449 267.4 251.793C264.588 251.137 266.228 249.02 267.4 248.044C267.244 246.989 266.58 244.834 265.174 244.646C264.27 244.526 263.738 243.848 263.244 243.218C262.776 242.622 262.342 242.068 261.659 242.068C260.977 242.068 261.177 241.49 261.457 240.68C261.754 239.82 262.142 238.699 261.659 237.733C260.996 236.408 258.868 236.957 257.182 237.392C256.483 237.572 255.861 237.733 255.449 237.733C254.975 237.733 253.758 238.052 252.279 238.439C249.368 239.202 245.444 240.23 244.201 239.608C242.326 238.671 236.233 237.733 234.359 237.733C232.484 237.733 224.517 235.859 222.173 235.156C220.892 234.771 219.086 235.577 217.271 236.387C215.767 237.059 214.256 237.733 213.034 237.733C210.643 237.733 199.767 245.296 196.608 247.493C196.206 247.772 195.929 247.965 195.811 248.044C194.756 248.747 172.143 259.761 170.737 259.995C170.201 260.084 169.274 260.48 168.177 260.948C166.393 261.709 164.159 262.662 162.418 262.807C160.168 262.995 154.919 266.713 152.576 268.548C162.3 265.55 165.299 265.914 167.58 266.192C168.597 266.315 169.472 266.422 170.737 266.205C174.838 265.502 171.908 270.071 165.23 274.29C159.887 277.664 154.568 275.696 152.576 274.29C152.029 277.145 149.037 283.111 141.445 284.133C135.351 284.952 130.662 284.73 128.139 284.391C127.664 284.297 127.176 284.211 126.682 284.133C122.229 283.43 125.393 279.915 126.682 278.977C127.166 278.625 125.253 278.306 123.166 277.958C119.697 277.38 115.747 276.721 121.526 275.697C127.681 274.606 127.412 272.272 127.23 270.692C127.138 269.896 127.068 269.292 127.853 269.135C130.197 268.667 131.134 267.026 128.791 265.152C127.084 263.786 127.366 263.664 128.641 263.11C129.116 262.903 129.73 262.636 130.431 262.222C131.97 261.313 130.041 260.779 127.938 260.197C126.52 259.805 125.022 259.391 124.455 258.824C123.459 257.828 126.051 258.185 128.48 258.519C129.479 258.657 130.451 258.79 131.134 258.824C132.317 258.884 131.768 258.585 130.785 258.048C129.819 257.521 128.434 256.766 127.853 255.895C127.319 255.095 129.023 255.291 131.014 255.521C133.393 255.795 136.183 256.116 136.055 254.841C135.905 253.339 137.006 252.511 137.909 251.832C138.415 251.452 138.858 251.118 138.984 250.74C139.129 250.306 138.499 249.732 137.895 249.183C137.034 248.4 136.227 247.666 137.813 247.459C139.523 247.236 139.629 245.597 139.717 244.219C139.768 243.426 139.814 242.721 140.156 242.421C141.093 241.601 137.109 238.789 135.118 237.851C133.755 237.21 135.189 236.953 137.618 236.517C138.741 236.315 140.075 236.076 141.445 235.742C145.233 234.821 145.532 233.631 145.938 232.017C145.997 231.784 146.057 231.541 146.131 231.29C146.6 229.697 148.904 226.096 149.998 224.494ZM145.311 312.722C145.233 313.542 144.702 315.323 143.202 315.885C142 316.336 141.039 317.172 140.381 317.745C140.012 318.065 139.738 318.304 139.57 318.346C139.101 318.463 137.93 319.049 137.695 320.103C137.567 320.682 136.519 321.509 135.601 322.233C134.847 322.828 134.18 323.354 134.18 323.618C134.18 323.898 133.62 324.231 133.034 324.579C132.392 324.96 131.72 325.36 131.72 325.727C131.72 326.43 131.134 327.953 130.548 328.071C129.962 328.188 128.556 329.711 128.674 330.648C128.743 331.207 128.271 331.558 127.879 331.85C127.614 332.047 127.385 332.217 127.385 332.406C127.385 332.568 127.105 332.827 126.782 333.127C126.171 333.695 125.406 334.406 126.096 334.866C125.822 335.569 125.065 337.092 124.221 337.561C123.167 338.147 122.464 339.202 123.752 339.67C123.362 340.217 122.44 341.428 121.878 341.896C121.175 342.482 120.355 343.302 121.526 343.654C121.37 344.083 120.917 345.036 120.355 345.411C119.652 345.88 119.3 346.232 119.3 347.169C119.3 348.106 118.832 348.692 118.48 348.809C118.129 348.926 117.074 349.512 117.191 350.684C117.252 351.287 116.66 352.014 116.072 352.737C115.517 353.419 114.965 354.099 114.965 354.668C114.965 355.078 114.606 355.69 114.149 356.467C113.301 357.91 112.118 359.924 112.27 362.284C112.36 363.674 112.295 364.962 112.24 366.055C112.151 367.815 112.088 369.069 112.739 369.431C112.543 370.134 112.27 371.563 112.739 371.657C113.026 371.714 112.891 372.334 112.747 372.993C112.598 373.679 112.44 374.407 112.739 374.586C112.779 374.61 112.821 374.635 112.863 374.659C113.429 374.99 114.08 375.37 113.207 376.461C112.27 377.633 111.918 379.39 113.442 378.804C113.364 379.429 113.114 380.749 112.739 381.03C112.27 381.382 112.387 383.139 113.207 383.257C113.129 384.702 113.067 387.662 113.442 387.943C113.364 388.646 113.114 390.146 112.739 390.521C112.27 390.99 112.27 395.208 113.207 395.442C113.52 395.793 114.238 396.543 114.613 396.731C114.811 396.83 114.675 397.345 114.523 397.925C114.313 398.722 114.071 399.642 114.613 399.777C115.095 399.898 115.236 400.543 115.371 401.159C115.499 401.742 115.62 402.298 116.019 402.355C116.376 402.406 116.711 402.723 117.072 403.066C117.54 403.51 118.053 403.995 118.714 403.995C119.886 403.995 122.581 411.025 122.112 411.728C121.737 412.291 121.956 413.447 122.112 413.954C122.542 416.493 123.706 421.688 124.924 422.156C125.757 422.477 125.854 423.183 125.944 423.833C126.018 424.372 126.087 424.873 126.564 425.085C127.181 425.36 127.558 427.399 127.905 429.278C128.151 430.611 128.382 431.864 128.673 432.35C129.22 435.24 130.993 441.278 133.712 442.309C136.43 443.34 135.391 434.771 134.532 430.358C134.813 429.983 134.102 427.468 133.712 426.257C134.532 426.491 136.149 427.148 136.055 427.897C135.938 428.835 136.875 430.944 137.461 431.647C138.047 432.35 139.922 436.685 140.625 438.325C141.249 440.356 143.085 444.863 145.428 446.644C147.772 448.425 148.826 450.979 149.061 452.034C150.076 451.214 151.802 448.378 150.584 443.598C150.271 442.543 149.529 440.223 149.061 439.38C148.475 438.325 146.952 434.576 146.717 432.936C146.659 432.527 146.549 432.001 146.438 431.466C146.103 429.856 145.75 428.16 146.717 429.303C148.006 430.827 150.584 433.639 151.17 434.224C151.56 434.615 152.107 435.474 152.532 436.143C152.745 436.477 152.927 436.763 153.044 436.919C153.396 437.388 157.614 442.543 159.957 442.309C161.832 442.122 162.301 441.606 162.301 441.372C162.965 442.075 164.175 443.926 163.707 445.707C164.371 444.926 165.558 442.965 164.995 441.372C164.81 440.845 164.697 440.368 164.59 439.909C164.29 438.633 164.024 437.502 162.301 435.865C159.957 433.639 152.341 424.734 152.693 422.742C152.839 421.915 154.602 422.098 157.202 422.369C160.861 422.749 166.176 423.303 170.971 421.453C172.689 420.282 175.611 417.727 173.549 416.884C171.487 416.04 166.753 415.829 164.644 415.829C164.925 415.361 164.761 414.228 164.644 413.72C166.144 410.346 158.161 409.58 153.982 409.619C153.879 409.003 153.145 409.017 152.492 409.03C152.4 409.032 152.311 409.033 152.224 409.033C151.662 409.033 151.287 408.721 151.17 408.565C151.076 407.909 149.646 407.198 148.943 406.924C148.662 405.987 147.03 405.831 146.249 405.87C146.327 405.518 146.389 404.745 146.014 404.464C145.931 404.402 145.805 404.332 145.653 404.249C144.945 403.861 143.692 403.175 143.788 401.535C143.882 399.941 143.437 398.293 143.202 397.668C143.483 397.012 143.085 395.442 142.851 394.739C143.226 393.708 142.695 392.669 142.382 392.278C142.944 390.591 142.148 389.623 141.679 389.349C141.96 388.224 141.328 387.553 140.976 387.357C141.036 386.695 140.849 386.218 140.684 385.799C140.529 385.404 140.394 385.061 140.507 384.663C140.742 383.842 139.922 381.499 139.453 380.796C138.984 380.093 138.516 379.273 138.75 378.218C138.921 377.448 138.342 376.74 137.926 376.232C137.772 376.044 137.641 375.884 137.578 375.758C137.482 375.565 137.465 375.194 137.445 374.775C137.418 374.175 137.386 373.477 137.11 373.063C136.735 372.501 136.485 371.579 136.407 371.188L135.821 370.134C135.811 370.12 135.802 370.105 135.793 370.091L135.792 370.09C128.827 359.214 142.388 350.68 147.069 347.872C150.27 345.951 150.683 344.686 151.333 342.695C151.635 341.772 151.987 340.692 152.693 339.319C153.886 336.994 153.8 335.714 153.716 334.467C153.643 333.388 153.572 332.333 154.333 330.648C155.433 328.213 155.163 327.732 154.796 327.075C154.615 326.752 154.41 326.387 154.333 325.727C154.192 324.522 154.772 324.209 155.486 323.823C155.959 323.567 156.491 323.28 156.911 322.681C157.462 321.894 159.167 321.162 160.377 320.641C161.481 320.167 162.174 319.869 161.203 319.869C160.18 319.869 159.338 319.484 158.5 319.101C157.671 318.722 156.847 318.346 155.856 318.346C154.888 318.346 154.114 317.764 153.318 317.167C152.476 316.535 151.611 315.885 150.467 315.885C148.686 315.885 146.288 313.776 145.311 312.722Z" fill="#FFE69B"/>
<path d="M262.948 280.149C264.354 280.336 264.627 278.821 264.588 278.04C267.101 277.05 266.249 276.11 265.762 275.573C265.5 275.283 265.343 275.111 265.877 275.111C266.614 275.111 266.638 274.672 266.665 274.165C266.694 273.626 266.727 273.009 267.634 272.767C268.633 272.501 268.951 270.985 269.233 269.64L267.4 266.205L261.659 262.807C263.573 262.417 266.955 261.307 265.174 259.995C263.667 258.884 264.2 258.042 264.702 257.251C264.942 256.873 265.174 256.507 265.174 256.129C265.174 255.471 267.276 256.326 268.873 256.975C270.123 257.484 271.064 257.866 270.446 257.3C269.322 256.269 269.978 254.996 270.446 254.488C270.603 253.863 270.212 252.449 267.4 251.793C264.588 251.137 266.228 249.02 267.4 248.044C267.244 246.989 266.58 244.834 265.174 244.646C264.27 244.526 263.738 243.848 263.244 243.218C262.776 242.622 262.342 242.068 261.659 242.068C260.977 242.068 261.177 241.49 261.457 240.68C261.754 239.82 262.142 238.699 261.659 237.733C260.996 236.408 258.868 236.957 257.182 237.392C256.483 237.572 255.861 237.733 255.449 237.733C254.975 237.733 253.758 238.052 252.279 238.439C249.368 239.202 245.444 240.23 244.201 239.608C242.326 238.671 236.233 237.733 234.359 237.733C232.484 237.733 224.517 235.859 222.173 235.156C220.892 234.771 219.086 235.577 217.271 236.387C215.767 237.059 214.256 237.733 213.034 237.733C210.643 237.733 199.767 245.296 196.608 247.493C196.206 247.772 195.929 247.965 195.811 248.044C194.756 248.747 172.143 259.761 170.737 259.995C170.201 260.084 169.274 260.48 168.177 260.948C166.393 261.709 164.159 262.662 162.418 262.807C160.168 262.995 154.919 266.713 152.576 268.548C162.3 265.55 165.299 265.914 167.58 266.192C168.597 266.315 169.472 266.422 170.737 266.205C174.838 265.502 171.908 270.071 165.23 274.29C159.887 277.664 154.568 275.696 152.576 274.29C152.029 277.145 149.037 283.111 141.445 284.133C135.351 284.952 130.662 284.73 128.139 284.391C131.944 285.141 134.897 286.333 133.126 287.062C132.147 287.465 132.611 288.405 133.1 289.396C133.606 290.423 134.139 291.504 133.126 292.1C131.134 293.272 129.962 293.975 131.954 294.795C133.145 295.285 133.708 296.74 134.168 297.93C134.478 298.73 134.741 299.41 135.118 299.599C135.464 299.772 135.746 300.345 136.089 301.041C136.673 302.227 137.433 303.768 138.984 304.286C140.418 304.763 141.016 305.957 141.636 307.194C142.081 308.081 142.537 308.99 143.319 309.675C144.096 310.261 145.581 311.691 145.311 312.722C146.288 313.776 148.686 315.885 150.467 315.885C151.611 315.885 152.476 316.535 153.318 317.167C154.114 317.764 154.888 318.346 155.856 318.346C156.847 318.346 157.671 318.722 158.5 319.101C159.338 319.484 160.18 319.869 161.203 319.869C162.174 319.869 161.481 320.167 160.377 320.641C159.167 321.162 157.462 321.894 156.911 322.681C156.491 323.28 155.959 323.567 155.486 323.823C154.772 324.209 154.192 324.522 154.333 325.727C154.41 326.387 154.615 326.752 154.796 327.075C155.163 327.732 155.433 328.213 154.333 330.648C153.572 332.333 153.643 333.388 153.716 334.467C153.8 335.714 153.886 336.994 152.693 339.319C151.987 340.692 151.635 341.772 151.333 342.695C150.683 344.686 150.27 345.951 147.069 347.872C142.388 350.68 128.827 359.214 135.792 370.09C134.638 368.267 133.999 363.97 140.507 360.995C148.709 357.245 158.903 348.926 159.489 346.583C159.764 345.483 160.323 343.375 161.203 341.193L163.238 339.319C164.8 339.592 168.159 339.905 169.096 338.967C169.405 338.658 169.698 338.316 169.988 337.978C170.795 337.036 171.576 336.124 172.611 336.038C173.65 335.951 174.433 335.737 175.337 335.489C175.658 335.402 175.993 335.31 176.361 335.218C177.014 335.054 177.389 334.866 177.721 334.699C178.103 334.507 178.428 334.343 179.056 334.28C179.619 334.224 180.237 333.788 180.856 333.351C181.525 332.879 182.197 332.406 182.805 332.406C183.977 332.406 189.835 329.242 190.772 327.953C191.71 326.665 192.413 326.196 193.233 325.844C193.59 325.691 193.902 325.428 194.209 325.169C194.607 324.833 194.996 324.505 195.459 324.438C195.972 324.365 197.128 323.098 198.036 322.103C198.579 321.509 199.033 321.011 199.208 320.923C199.305 320.875 199.407 320.811 199.518 320.742C199.944 320.477 200.505 320.127 201.435 320.22C201.737 320.251 202.204 320.265 202.753 320.282C204.327 320.332 206.572 320.402 207.527 320.923C208.816 321.626 210.456 322.095 211.511 321.743C212.039 321.567 212.48 321.803 212.891 322.023C213.3 322.242 213.68 322.446 214.089 322.212C214.533 321.958 215.15 322.221 215.752 322.477C216.261 322.693 216.76 322.905 217.135 322.798C217.46 322.705 217.952 322.667 218.484 322.627C219.295 322.564 220.202 322.495 220.767 322.212C221.138 322.027 221.656 321.841 222.154 321.663C222.913 321.391 223.626 321.136 223.696 320.923C223.814 320.572 224.634 320.22 226.04 320.22C226.763 320.22 227.455 319.818 228.1 319.442C228.709 319.088 229.277 318.757 229.789 318.814C230.177 318.857 230.756 318.758 231.35 318.655C232.369 318.48 233.434 318.296 233.656 318.814C233.937 319.47 234.788 319.791 235.179 319.869C235.687 320.377 236.866 321.298 237.522 320.923C238.014 320.642 238.506 321.288 238.972 321.901C239.284 322.31 239.584 322.704 239.866 322.798C240.119 322.882 240.296 323.469 240.513 324.185C240.896 325.455 241.404 327.133 242.678 327.133C242.717 328.032 243.053 329.852 244.084 329.945C244.865 330.726 246.591 332.382 247.247 332.757C247.565 332.939 248.112 333.367 248.703 333.83C249.637 334.562 250.683 335.38 251.114 335.452C251.434 335.506 252.512 336.267 253.755 337.145C255.236 338.192 256.954 339.405 257.909 339.787C259.315 340.35 261.698 342.834 262.713 344.005C263.26 345.06 264.541 347.708 265.291 349.864C265.769 351.238 265.546 352.277 265.322 353.323C265.106 354.328 264.889 355.339 265.291 356.659C265.346 356.84 265.416 357.074 265.5 357.354C266.673 361.267 270.572 374.275 273.961 378.101C277.594 382.202 279.468 387.592 278.531 390.287C278.444 390.537 278.349 390.816 278.246 391.118C277.241 394.073 275.491 399.215 273.258 400.597C275.016 399.738 279.492 397.364 283.335 394.739C287.285 392.042 282.521 382.057 280.247 377.289C279.755 376.258 279.38 375.471 279.234 375.055C278.776 373.746 279.085 373.131 279.632 372.047C280.064 371.191 280.643 370.041 281.109 368.025C281.696 365.478 280.828 363.731 279.944 361.954C279.242 360.543 278.531 359.112 278.531 357.245C278.531 354.677 276.663 352.499 274.858 350.395C273.698 349.044 272.565 347.723 271.969 346.349C270.933 343.957 272.012 342.704 273.509 340.967C274.212 340.151 275.007 339.228 275.719 338.03C277.07 335.753 274.146 335.507 271.036 335.245C269.025 335.076 266.935 334.9 265.877 334.163C263.182 332.289 259.667 324.438 257.909 319.869C256.152 315.299 251.817 310.144 249.942 307.918C249.615 307.53 249.225 307.114 248.819 306.681C246.896 304.632 244.635 302.222 247.247 300.771C249.778 299.365 253.457 294.014 254.98 291.514C256.425 291.046 259.643 290.038 260.956 289.757C261.791 289.578 260.985 288.578 260.179 287.578C259.402 286.614 258.626 285.651 259.315 285.422C260.44 285.047 261.268 283.547 261.542 282.844C262.666 283.031 262.948 281.125 262.948 280.149Z" fill="#FFD97A"/>
<path d="M173.08 227.775C171.487 226.744 171.869 228.518 172.26 229.533C171.869 229.689 171.135 230.564 171.323 232.814C171.557 235.626 176.829 235.86 177.064 234.454C177.298 233.048 175.072 229.064 173.08 227.775Z" fill="black"/>
<path d="M196.865 229.064C194.803 229.158 193.116 232.618 192.53 234.336C191.241 239.14 195.108 237.969 198.271 238.437C201.435 238.906 204.247 234.336 206.356 233.048C208.043 232.016 208.621 229.962 208.699 229.064C205.614 229.025 198.927 228.97 196.865 229.064Z" fill="#FFD85A"/>
<path d="M226.274 220.745C225.524 221.963 222.056 225.158 220.416 226.603C222.056 228.244 229.321 229.533 233.421 230.118C237.522 230.704 239.163 231.993 240.217 231.993C241.272 231.993 239.163 227.658 238.108 225.432C237.054 223.205 239.163 222.502 239.163 221.565C239.163 220.628 236.819 218.402 234.242 216.644C231.664 214.887 228.5 216.058 228.5 216.644C228.5 217.23 227.212 219.222 226.274 220.745Z" fill="#FFD85A"/>
<path d="M226.743 210.083C226.368 212.239 226.04 215.121 227.212 216.879C228.384 218.636 231.289 218.379 233.07 219.222C235.296 220.277 236.234 219.574 236.234 218.168C236.234 216.762 233.422 213.715 233.539 212.309C233.656 210.903 231.313 210.083 230.844 209.614C230.375 209.146 228.969 207.154 228.384 206.568C227.798 205.982 227.212 207.388 226.743 210.083Z" fill="#FFC70E"/>
<path d="M178.118 238.906C177.743 240.968 173.9 240.858 172.026 240.546C176.478 245.233 180.579 241.483 180.462 240.194C180.345 238.906 181.165 238.085 181.516 237.031C181.868 235.976 181.048 233.516 180.227 232.579C179.407 231.641 179.29 230.118 178.704 230.118C178.118 230.118 178.704 233.047 179.29 234.57C179.876 236.094 178.587 236.328 178.118 238.906Z" fill="#FFCB22"/>
<path d="M184.094 226.955C182.969 227.986 182.766 225.119 182.805 223.557C181.516 224.26 181.516 226.017 180.462 227.54C179.407 229.064 181.516 231.524 182.805 233.867C184.094 236.211 183.274 237.031 182.219 238.437C181.165 239.843 183.157 242.421 184.094 243.124C185.031 243.827 186.906 241.483 189.249 240.194C191.593 238.906 190.655 238.906 191.358 237.968C192.061 237.031 190.655 236.211 189.249 236.211C187.843 236.211 189.484 235.039 188.429 233.867C187.375 232.696 189.015 231.758 187.609 230.235C186.203 228.712 187.492 228.126 187.96 226.955C188.429 225.783 185.5 225.666 184.094 226.955Z" fill="#FFCB22"/>
<path d="M222.436 230.803C226.999 231.547 230.257 234.072 234.359 233.967C238.228 234.117 242.04 234.118 245.867 235.839C246.015 235.966 246.63 235.956 247.112 235.884C247.616 235.816 248.137 235.708 248.656 235.599C250.556 235.244 252.498 234.54 254.609 235.099C254.685 235.126 254.748 235.182 254.784 235.254C254.82 235.327 254.826 235.411 254.801 235.487C254.775 235.564 254.72 235.627 254.648 235.664C254.575 235.701 254.491 235.707 254.414 235.683C252.681 235.267 250.714 235.957 248.837 236.388C248.316 236.515 247.787 236.643 247.239 236.734C246.677 236.789 246.141 237.004 245.346 236.583C242.148 235.27 238.062 235.196 234.359 235.175C229.984 235.382 225.991 232.716 222.379 232.246C219.877 232.103 217.47 234.697 214.089 234.645C210.921 235.028 207.6 237.432 204.749 239.548C204.729 239.563 204.668 239.604 204.647 239.616C202.994 240.552 201.323 241.485 199.653 242.409C189.214 247.95 179.361 254.1 167.725 257.935C162.87 258.387 158.62 262.073 153.35 263.12C152.742 263.211 152.151 263.393 151.595 263.66C149.946 264.456 148.61 265.988 147.946 267.709C147.919 267.786 147.864 267.849 147.791 267.885C147.719 267.921 147.635 267.927 147.558 267.901C147.482 267.876 147.418 267.821 147.382 267.748C147.345 267.676 147.339 267.592 147.363 267.515C148.037 265.582 149.393 263.909 151.232 262.936C151.85 262.615 152.517 262.386 153.207 262.262C158.084 261.183 162.105 257.371 167.656 256.668C178.196 252.857 188.58 246.473 198.859 240.974C200.515 240.058 202.172 239.135 203.814 238.214C206.892 236.018 209.808 233.623 214.089 233.09C216.735 233.275 218.938 230.766 222.436 230.803Z" fill="#FCD138"/>
<path d="M149.061 255.309C149.717 252.497 147.85 249.841 146.834 248.865C144.608 242.421 140.507 249.568 141.328 250.974C142.148 252.38 140.507 253.552 136.758 256.364C133.009 259.176 134.297 258.707 134.297 259.996V264.097V269.369C135.86 268.862 139.289 267.917 140.507 268.198C141.726 268.479 142.187 265.581 142.265 264.097C142.968 263.667 144.678 262.738 145.897 262.457C147.42 262.105 148.24 258.824 149.061 255.309Z" fill="#FFBB29"/>
</svg>
