<svg width="3324" height="2792" viewBox="0 0 3324 2792" fill="none" xmlns="http://www.w3.org/2000/svg">
<path d="M2377 2248.59C2428.17 2292.09 2524.2 2387.69 2499 2422.09C2504.83 2447.09 2504 2497.99 2454 2501.59C2468.33 2488.09 2492.7 2456.49 2475.5 2438.09C2468.83 2437.09 2451 2429.29 2433 2406.09C2410.5 2377.09 2273.5 2254.09 2270 2254.09C2269.29 2254.09 2271.46 2260.46 2274.98 2270.8C2284.4 2298.43 2303.49 2354.44 2303.05 2393.09C2309.03 2404.76 2321.1 2430.09 2321.5 2438.09C2322 2448.09 2328.95 2459.59 2316 2480.59C2303.05 2501.59 2306 2539.09 2316 2544.59C2326 2550.09 2353.5 2540.09 2359 2525.59C2357.5 2551.09 2357.5 2605.29 2369.5 2618.09C2384.5 2634.09 2378.5 2671.59 2382.5 2673.09C2386.5 2674.59 2401 2667.59 2403 2652.59C2405 2637.59 2416.5 2620.59 2416.5 2605.59C2416.5 2590.59 2409.5 2576.59 2411 2570.59C2412.5 2564.59 2422.5 2560.59 2423.5 2583.09C2424.5 2605.59 2428 2675.09 2439 2691.59C2450 2708.09 2459.5 2732.59 2454 2748.59C2458.5 2739.09 2468.3 2718.39 2471.5 2711.59C2475.5 2703.09 2479 2686.59 2479.5 2669.59C2480 2652.59 2476 2611.59 2471.5 2591.09C2467 2570.59 2469.5 2556.59 2465.5 2548.09C2461.5 2539.59 2473.5 2539.59 2479.5 2558.59C2485.5 2577.59 2514 2627.59 2528.5 2673.09C2543 2718.59 2587 2739.59 2582 2767.59C2578.9 2784.95 2576.4 2790.42 2574.97 2791.3C2583.11 2792.9 2600.25 2792.3 2611 2778.09C2625 2759.59 2627.5 2740.59 2616 2716.09C2604.5 2691.59 2571.5 2609.09 2559.5 2587.59C2547.5 2566.09 2521.5 2502.59 2523 2491.59C2524.5 2480.59 2521.5 2442.59 2540.5 2467.09C2559.5 2491.59 2567.5 2506.59 2582 2525.59C2593.6 2540.79 2590.83 2561.93 2588 2570.59C2595.17 2565.09 2610.8 2549.49 2616 2531.09C2622.5 2508.09 2616.5 2456.09 2588 2431.09C2559.5 2406.09 2531 2345.59 2511 2314.59C2491 2283.59 2492 2259.94 2447.5 2242.77C2426.14 2242.83 2402.71 2244.62 2377 2248.59Z" fill="#FFC46B"/>
<path d="M2103 1236.59L2041 1262.09L2089.5 1295.59H2057.5L2089.5 1319.09L2057.5 1330.59L2103 1347.09L2057.5 1362.09L2084 1383.09L2048 1410.09C2078.83 1471.93 2140.5 1600.29 2140.5 1619.09C2140.5 1632.7 2154.92 1657.2 2169.29 1679.59C2332.57 1537.09 2511 1210.59 2583.5 1106.09C2656 1001.59 2909.5 868.094 3008.5 809.594C3107.5 751.094 3179.5 576.594 3235.5 499.594C3280.3 437.994 3312.83 308.26 3323.5 251.094C3296 280.26 3225.5 357.894 3163.5 435.094C3086 531.594 2925.5 724.094 2749 792.594C2572.5 861.094 2309.5 1016.09 2283.5 1046.59C2262.7 1070.99 2113.17 1170.16 2041 1216.69L2103 1236.59Z" fill="#FFBC58"/>
<path d="M71.2104 1254.09C68.7408 1230.02 70.8118 1204.56 73 1190.59C72.306 1147.22 109.94 1133.82 136.355 1131.79C112.823 1131.15 78.5043 1123.97 71.2104 1098.09C62.6421 1067.69 22.2001 1029.09 3.05022 1013.59L6.5 1190.59C24.6403 1211.76 62.9787 1254.09 71.2104 1254.09Z" fill="#FFE17F"/>
<path fill-rule="evenodd" clip-rule="evenodd" d="M215.457 1239.09C214.695 1240.18 213.864 1241.47 213.007 1242.95C213.87 1241.78 214.691 1240.5 215.457 1239.09Z" fill="#FFEEAA"/>
<path d="M122.5 1293.09C133.667 1299.76 162.6 1313.19 189 1313.59H215.457C213.887 1306.38 211.204 1299.93 208.856 1294.28L208.856 1294.28L208.855 1294.28C207.789 1291.72 206.792 1289.32 206 1287.09C200.096 1271.39 207.146 1253.02 213.007 1242.95C205.255 1253.43 194.073 1254.84 189 1254.09C181.07 1252.87 174.256 1244.77 165.949 1234.89C160.637 1228.57 154.715 1221.53 147.5 1215.09C133.561 1202.66 115.933 1217.76 107.446 1232.59C104.668 1237.45 102.87 1242.27 102.5 1246.09C101.894 1252.36 98.1964 1261.62 93.8485 1270.59L122.5 1293.09Z" fill="#FFCF67"/>
<path fill-rule="evenodd" clip-rule="evenodd" d="M804 835.594C831.6 831.594 832.5 815.26 829.5 807.594C815.16 809.745 791.36 813.438 781.397 815.356C790.433 810.893 808.081 795.446 817 787.094L754 803.094C758 808.26 756 817.694 716 814.094C718 819.427 719.9 830.094 711.5 830.094C703.1 830.094 677.667 826.76 666 825.094C671 830.76 678 842.494 666 844.094C654 845.694 637.333 841.76 630.5 839.594C632.5 845.427 632.7 857.094 617.5 857.094H588.5C592.5 862.927 596.3 874.894 579.5 876.094C562.7 877.294 553.5 876.594 551 876.094C553.667 881.427 552.8 892.694 528 895.094C530 901.094 525.6 913.794 492 916.594C482.5 929.427 456.9 955.494 430.5 957.094C430.833 961.094 425.3 969.694 400.5 972.094C388.167 982.76 357.7 1004.29 334.5 1005.09C334.667 1012.93 328 1029.99 300 1035.59L304.5 1044.09L252 1060.09L265.5 1068.09C243.333 1086.76 197 1125.59 189 1131.59C185.238 1134.42 184.802 1132.5 183.592 1127.16C181.585 1118.33 177.451 1100.11 152.5 1078.59C115.396 1046.59 111.419 1037.82 92.2805 995.613C90.787 992.319 89.2011 988.822 87.5 985.094C64 933.594 14 870.094 0 857.094L3.05022 1013.59C22.2001 1029.09 62.6421 1067.69 71.2104 1098.09C78.5043 1123.97 112.823 1131.15 136.355 1131.79C109.94 1133.82 72.306 1147.22 73 1190.59C70.8118 1204.56 68.7408 1230.02 71.2104 1254.09C72.6908 1268.52 75.8031 1282.45 81.5 1293.09C84.7149 1287.9 89.5934 1279.38 93.8485 1270.59C98.1964 1261.62 101.894 1252.36 102.5 1246.09C102.87 1242.27 104.668 1237.45 107.446 1232.59C115.933 1217.76 133.561 1202.66 147.5 1215.09C154.715 1221.53 160.637 1228.57 165.949 1234.89C174.256 1244.77 181.07 1252.87 189 1254.09C194.073 1254.84 205.255 1253.43 213.007 1242.95C207.146 1253.02 200.096 1271.39 206 1287.09C206.792 1289.32 207.789 1291.72 208.855 1294.28L208.856 1294.28L208.856 1294.28C211.204 1299.93 213.887 1306.38 215.457 1313.59C220.383 1336.23 214.339 1366.38 152.5 1402.59C180.5 1406.76 244.1 1393.99 274.5 1309.59C360 1328.59 579.5 1135.59 597.5 1115.59C590.167 1119.09 572.1 1125.29 558.5 1122.09C545.336 1119 552.259 1102.71 558.376 1088.32C560.158 1084.12 561.872 1080.09 563 1076.59C568 1061.09 532 1074.09 514.5 1082.09C500.5 1088.49 500.333 1079.43 502 1074.09C508 1071.09 520.8 1061.59 524 1047.59C528 1030.09 552.5 986.094 560.5 990.594C568.5 995.094 565 1004.59 560.5 1013.09C556 1021.59 540.5 1052.59 563 1047.59C585.5 1042.59 606.5 1050.59 609 1055.09C611.5 1059.59 627 1062.59 629.5 1055.09C632 1047.59 643.5 1047.59 648.5 1047.59C649.351 1047.59 652.113 1047.85 656.228 1048.24C676.29 1050.14 728.499 1055.06 748 1047.59C754.998 1044.91 765.278 1042.01 776.343 1038.89L776.345 1038.89C802.436 1031.52 832.893 1022.92 835 1013.09C838.373 1002.97 837.6 996.091 837.001 990.762C836.268 984.241 835.796 980.046 843.5 975.094C837.5 968.76 828.4 955.094 840 951.094C845.965 949.037 843.469 944.95 840.795 940.572C836.969 934.307 832.781 927.448 852.5 925.094C868.007 923.242 864.444 919.998 859.515 915.51C853.796 910.302 846.238 903.419 864.5 895.094C861.653 888.927 856.814 874.194 860.23 864.594C859.145 861.091 858.156 857.678 857.235 854.496C854.115 843.723 851.761 835.594 849 835.594H804ZM215.457 1239.09C214.695 1240.18 213.864 1241.47 213.007 1242.95C213.87 1241.78 214.691 1240.5 215.457 1239.09ZM781.397 815.356C779.795 816.148 778.464 816.594 777.5 816.594C775.689 816.594 777.465 816.113 781.397 815.356Z" fill="#FFEEAA"/>
<path d="M786 1108.09C806.4 1096.09 817.833 1103.09 821 1108.09C831.725 1098.96 891.162 1086.93 919.409 1081.21L919.41 1081.21L919.412 1081.21L920 1081.09C879.512 1046.83 885.971 991.042 890.559 951.417C893.336 927.428 895.428 909.365 886 905.594C872.921 900.362 865.452 881.445 860.23 864.594C856.814 874.194 861.653 888.927 864.5 895.094C846.238 903.419 853.796 910.302 859.515 915.51C864.444 919.998 868.007 923.242 852.5 925.094C832.781 927.448 836.969 934.307 840.795 940.572C843.469 944.95 845.965 949.037 840 951.094C828.4 955.094 837.5 968.76 843.5 975.094C835.796 980.046 836.268 984.241 837.001 990.762C837.6 996.091 838.373 1002.97 835 1013.09C832.893 1022.92 802.436 1031.52 776.345 1038.89L776.343 1038.89C765.278 1042.01 754.998 1044.91 748 1047.59C728.499 1055.06 676.29 1050.14 656.228 1048.24C652.113 1047.85 649.351 1047.59 648.5 1047.59C643.5 1047.59 632 1047.59 629.5 1055.09C627 1062.59 611.5 1059.59 609 1055.09C606.5 1050.59 585.5 1042.59 563 1047.59C540.5 1052.59 556 1021.59 560.5 1013.09C565 1004.59 568.5 995.094 560.5 990.594C552.5 986.094 528 1030.09 524 1047.59C520.8 1061.59 508 1071.09 502 1074.09C500.333 1079.43 500.5 1088.49 514.5 1082.09C532 1074.09 568 1061.09 563 1076.59C561.872 1080.09 560.158 1084.12 558.376 1088.32C552.259 1102.71 545.336 1119 558.5 1122.09C572.1 1125.29 590.167 1119.09 597.5 1115.59C610.147 1101.54 663.521 1107.73 702.993 1112.31L702.995 1112.31L702.997 1112.31C719.703 1114.24 733.917 1115.89 741.5 1115.59C761.9 1114.79 779.667 1110.26 786 1108.09Z" fill="#FFE17F"/>
<path d="M920 1081.09C985 1136.09 1005.5 1157.09 1003 1217.59C1001 1265.99 1108.83 1402.43 1163 1464.59C1170.83 1473.59 1188.6 1493.49 1197 1501.09C1185 1504.59 1159.5 1516.79 1153.5 1537.59C1150.33 1548.59 1144.02 1558.25 1137.81 1567.77C1129.32 1580.77 1121 1593.51 1121 1609.09C1121 1618.44 1115.73 1624.36 1109.46 1631.4C1097.61 1644.72 1082.19 1662.05 1092 1714.09C1099.02 1736.57 1114.6 1782.73 1120.78 1787.59C1128.5 1793.68 1163 1838.59 1163 1855.09C1163 1868.29 1151.67 1920.59 1146 1945.09C1179 1933.09 1273 1889.59 1286.5 1838.59C1291.83 1822.26 1299.3 1780.59 1286.5 1744.59C1273.7 1708.59 1266.83 1675.59 1265 1663.59C1285.33 1657.43 1337.6 1651.99 1384 1679.59C1405.33 1680.26 1450 1685.89 1458 1703.09C1468 1724.59 1569 1739.59 1598 1737.09C1607.12 1736.31 1622.52 1738.29 1640.94 1740.66C1681.12 1745.83 1735.69 1752.86 1771 1737.09C1822.5 1714.09 1823.5 1537.09 1818.5 1525.59C1740.5 1476.69 1741.88 1406.55 1742.64 1368.26C1742.81 1359.18 1742.96 1351.89 1742 1347.09C1737.9 1326.59 1712.94 1328.62 1695.83 1330.01C1692.07 1330.32 1688.7 1330.59 1686 1330.59C1676.3 1330.59 1665.76 1322.44 1652.9 1312.48C1645.87 1307.04 1638.15 1301.07 1629.5 1295.59C1618.96 1288.92 1610.64 1283.36 1603.38 1278.52C1593.78 1272.1 1586.05 1266.94 1577.5 1262.09C1565.12 1255.08 1568.75 1216.74 1570.39 1199.34C1570.74 1195.65 1571 1192.9 1571 1191.59C1571 1188.02 1572.48 1178.52 1574.03 1168.59L1574.03 1168.59L1574.03 1168.58L1574.03 1168.58C1575.72 1157.7 1577.5 1146.3 1577.5 1141.59V1103.09C1569 1105.93 1549.2 1111.59 1538 1111.59C1529.83 1111.59 1521.14 1114.15 1511.54 1116.98C1504.71 1118.99 1497.41 1121.14 1489.5 1122.59C1479.14 1124.5 1470.27 1121.06 1461.18 1117.53C1453.6 1114.59 1445.87 1111.59 1437 1111.59C1421.4 1111.59 1404.17 1105.93 1397.5 1103.09L1369.5 1111.59L1366 1100.59H1339L1318 1103.09L1321.5 1094.09L1300 1100.59H1273.5L1242 1103.09L1258 1080.59L1231.5 1082.59L1250 1057.09L1260 1048.09L1237.5 1052.09L1219.5 1054.09L1225 1041.09L1211.5 1046.09L1193 1052.09C1194.83 1048.59 1199.8 1040.49 1205 1036.09C1211.5 1030.59 1191.5 1018.59 1187 1021.59C1183.4 1023.99 1170.17 1025.93 1164 1026.59L1175.5 1011.09H1142.5H1120C1102.67 1004.26 1062.5 984.994 1040.49 962.594C1027.88 949.767 1008.89 940.823 990.174 932.011C968.037 921.588 946.296 911.351 936 895.094C920.8 871.094 879.153 864.76 860.23 864.594C865.452 881.445 872.921 900.362 886 905.594C895.428 909.365 893.336 927.428 890.559 951.417C885.971 991.042 879.512 1046.83 920 1081.09Z" fill="#FFBC58"/>
<path d="M1163 1464.59C1121.67 1474.43 1043.4 1512.49 1061 1586.09C1078.6 1659.69 1089 1702.09 1092 1714.09C1082.19 1662.05 1097.61 1644.72 1109.46 1631.4C1115.73 1624.36 1121 1618.44 1121 1609.09C1121 1593.51 1129.32 1580.77 1137.81 1567.77C1144.02 1558.25 1150.33 1548.59 1153.5 1537.59C1159.5 1516.79 1185 1504.59 1197 1501.09C1188.6 1493.49 1170.83 1473.59 1163 1464.59Z" fill="#FFEEAA"/>
<path d="M1092 1714.09C1085.17 1719.93 1069.4 1734.19 1061 1744.59C1057.83 1748.51 1050.12 1746.8 1040.49 1744.65C1018.16 1739.68 985.478 1732.41 975 1787.59C990.167 1779.93 1023 1769.19 1033 1787.59C1034.21 1789.82 1035.36 1791.84 1036.41 1793.68L1036.41 1793.68C1046.18 1810.82 1047.14 1812.5 1006.5 1825.59C1003.54 1826.55 1000.7 1827.46 997.978 1828.33L997.852 1828.37L997.809 1828.38C959.368 1840.69 945.168 1845.24 947.5 1861.09C973.167 1858.76 1024.5 1857.59 1024.5 1871.59C1024.5 1879.64 1013.08 1889.7 1000.21 1901.03C985.096 1914.35 967.971 1929.43 965 1945.09C963.815 1951.34 962.676 1956.55 961.719 1960.92C958.234 1976.85 957.155 1981.78 965 1986.09C968.977 1988.28 973.429 1984.14 979.644 1978.36C989.057 1969.61 1002.52 1957.09 1024.5 1957.09C1053.55 1957.09 1106.45 1894.74 1120.78 1877.85L1121 1877.59C1117.56 1882.92 1109.36 1893.34 1099.7 1905.63L1099.7 1905.64L1099.7 1905.64C1079.42 1931.43 1052.71 1965.4 1050 1977.59C1045 2000.09 1056 2024.59 1061 2032.59C1064.08 2037.52 1068.3 2030.88 1073.19 2023.18C1076.23 2018.38 1079.54 2013.17 1083 2010.09C1085.48 2007.89 1088.86 2002.89 1093.16 1996.54C1104.47 1979.82 1122.08 1953.79 1146 1945.09C1151.67 1920.59 1163 1868.29 1163 1855.09C1163 1838.59 1128.5 1793.68 1120.78 1787.59C1114.6 1782.73 1099.02 1736.57 1092 1714.09Z" fill="#FFE066"/>
<path d="M2108 2254.09C2117 2234.59 2106 2144.09 2092.5 2126.59C2087.31 2119.87 2086.04 2107.31 2084.34 2090.54C2081.61 2063.66 2077.78 2025.96 2055 1984.09C2018 1916.09 1928.5 1706.09 1924.5 1654.59C1905.83 1701.59 1851.4 1794.49 1783 1790.09C1697.5 1784.59 1648.5 1827.87 1677 1846.73C1712.52 1850.78 1752.34 1851.5 1771 1840.09C1785.33 1850.09 1822.7 1869.19 1857.5 1865.59C1893.5 1904.59 1970 1986.19 1988 2000.59C2006 2014.99 2030.17 2080.26 2040 2111.09C2047.67 2138.59 2066.9 2196.79 2082.5 2209.59C2098.1 2222.39 2106 2244.59 2108 2254.09Z" fill="#FFBC58"/>
<path d="M1981 1176.59L2034 1158.09C2002.33 1144.48 1950.09 1114.73 1973 1096.64C1957.11 1103.9 1922.18 1116.16 1903 1122.59L1934.5 1128.09C1926.33 1132.93 1908.6 1143.79 1903 1148.59C1897.4 1153.39 1885.33 1156.93 1880 1158.09C1890.67 1164.43 1913.3 1178.89 1918.5 1186.09C1923.7 1193.29 1920.67 1199.43 1918.5 1201.59C1933.5 1212.09 1964.5 1235.99 1968.5 1247.59C1971.16 1255.3 1979.04 1266.11 1986.07 1275.75L1986.07 1275.75C1992.26 1284.25 1997.8 1291.85 1998.5 1295.59C1999.16 1299.09 2003.72 1304.21 2008.66 1309.74C2015.02 1316.87 2022 1324.68 2022 1330.59C2022 1335.38 2025.94 1342.34 2030.24 1349.92L2030.24 1349.92C2035.37 1358.98 2041 1368.93 2041 1377.09C2041 1389.09 2045.67 1404.09 2048 1410.09L2084 1383.09L2057.5 1362.09L2103 1347.09L2057.5 1330.59L2089.5 1319.09L2057.5 1295.59H2089.5L2041 1262.09L2103 1236.59L2041 1216.69L2022 1210.59L2065.5 1176.59H1981Z" fill="#FFEEAA"/>
<path fill-rule="evenodd" clip-rule="evenodd" d="M1265.5 49.0935C1262.83 23.4268 1276.7 -20.2065 1353.5 10.5935C1430.3 41.3935 1467.17 61.0937 1476 67.0938C1487.67 71.9271 1512.2 84.6937 1517 97.0938C1519.92 104.641 1534.58 110.054 1550.18 115.815C1566.61 121.887 1584.1 128.345 1590 138.094C1598.11 151.5 1635.6 145.988 1665.58 141.58C1678.09 139.741 1689.29 138.094 1696.5 138.094C1705.71 138.094 1719.57 135.552 1734.28 132.856C1758.71 128.378 1785.45 123.476 1797 129.094C1802.11 131.578 1815.67 130.748 1832.53 129.716C1876.75 127.01 1943.62 122.917 1940 173.594C1935 243.594 1960 280.094 1978.5 284.594C1988.08 286.925 1986.13 292.478 1983.89 298.818C1981.81 304.715 1979.49 311.293 1986 316.594C1992.59 321.964 1994.65 325.666 1996.43 328.863C1998.3 332.215 1999.86 335.011 2006 338.594C2018 345.594 2022.5 349.594 2024 358.594C2025.5 367.594 2044.5 374.594 2058.5 377.094C2072.5 379.594 2077.5 380.094 2089.5 381.094C2099.1 381.894 2087.17 397.094 2080 404.594L2146 412.094C2119.5 428.26 2064.9 471.094 2058.5 513.094C2050.5 565.594 2059.5 592.594 2089.5 584.594C2113.5 578.194 2137.17 576.594 2146 576.594L2115.5 596.594L2168.5 591.594C2145.33 606.26 2097.1 638.194 2089.5 648.594C2080 661.594 2098.5 707.594 2140.5 690.594C2182.5 673.594 2240.5 660.594 2221 675.594C2216.47 679.079 2207.62 684.562 2197.45 690.863C2163.85 711.681 2115.82 741.432 2161.5 737.594C2173.15 736.615 2184.59 735.54 2195.25 734.538C2239.04 730.423 2269.71 727.542 2248 737.594C2242.6 740.094 2234.28 743.534 2224.71 747.49C2186.44 763.314 2128.2 787.394 2157 792.594C2176.32 796.082 2198.81 793.234 2214.58 791.237C2228.18 789.513 2236.78 788.424 2234 792.594C2230.92 797.209 2206.15 807.612 2185.1 816.449C2165.1 824.843 2148.48 831.824 2157 831.094C2164.3 830.468 2173.42 827.496 2181.07 825.004C2191.76 821.519 2199.58 818.971 2195.5 825.094C2189.9 833.494 2179.83 839.26 2175.5 841.094L2226 848.094L2140.5 868.094C2141.33 874.594 2139.7 888.194 2126.5 890.594C2120.28 891.726 2131.41 891.648 2146.63 891.541C2171.74 891.365 2207.95 891.112 2195.5 896.094C2179.5 902.494 2142.83 906.76 2126.5 908.094C2136.67 911.427 2157 919.194 2157 923.594C2157 926.171 2168.31 927.102 2178.99 927.98C2191.11 928.976 2202.41 929.906 2195.5 933.094C2191.82 934.793 2183.17 937.093 2172.55 939.915C2145.68 947.06 2106.23 957.549 2103 970.094C2100.17 981.118 2126.9 997.699 2147.07 1010.21C2158.92 1017.56 2168.5 1023.5 2168.5 1026.09C2168.5 1031.69 2115.83 1013.09 2089.5 1003.09L2079 981.094C2072.17 972.26 2055 950.294 2041 933.094C2027 915.894 2051.5 922.518 2065.5 927.98C2054.7 910.69 2070 911.851 2079 914.594C2074.5 909.76 2064.1 896.194 2058.5 880.594C2052.9 864.994 2033.17 849.427 2024 843.594L1986 849.094C1970 846.694 1970.67 829.76 1973 821.594C1954.25 825.994 1940.19 810.427 1935.5 802.094C1935.5 795.094 1938.4 780.694 1950 779.094C1961.6 777.494 1970.17 755.094 1973 744.094L1859 753.594C1842 701.26 1798.9 602.694 1762.5 627.094C1726.1 651.494 1710.67 637.26 1707.5 627.094C1683.02 622.446 1684.08 611.652 1684.86 603.759C1685.33 598.916 1685.7 595.164 1680 594.594C1668 593.394 1656.33 575.427 1652 566.594L1611 552.594C1602.33 554.76 1583.8 557.794 1579 552.594C1573 546.094 1546.5 535.594 1530.5 533.094C1520.22 531.488 1510.98 545.149 1503.95 555.523C1500.04 561.3 1496.82 566.057 1494.5 566.594C1492.48 567.061 1489.44 570.094 1485.17 574.352C1475.72 583.778 1460.26 599.206 1436.5 606.094C1408.9 614.094 1364 644.427 1345 658.594C1332.33 667.927 1303.8 686.594 1291 686.594C1278.2 686.594 1252.67 696.26 1241.5 701.094C1235.17 703.26 1220.6 709.394 1213 716.594C1205.4 723.794 1184.17 725.927 1174.5 726.094C1168.33 728.927 1154.4 735.794 1148 740.594C1141.6 745.394 1133 738.594 1129.5 734.594C1122.83 738.094 1107.5 746.394 1099.5 751.594C1091.5 756.794 1067.5 761.427 1056.5 763.094C1061.83 752.76 1071.6 732.594 1068 734.594C1064.4 736.594 1037.5 729.76 1024.5 726.094L1041 693.594C1035 695.594 1005.5 699.427 991.5 701.094V671.094C981.667 671.094 956.8 673.794 936 684.594C910 698.094 886 707.594 866.5 707.594C855.923 707.594 854.614 715.684 853.157 724.684C851.927 732.277 850.593 740.518 843.5 745.094C831.1 753.094 820.667 776.427 817 787.094L729.5 796.094L786.5 753.594L690 745.094C757.5 734.094 794 707.594 777.5 711.094C761 714.594 678.5 713.594 678.5 707.594C678.5 705.396 698.022 701.253 720.921 696.393C760.538 687.985 810.264 677.431 786.5 671.094C756.5 663.094 709.667 636.094 690 623.594C708.833 627.76 744.7 635.694 737.5 634.094C730.3 632.494 696.167 611.427 680 601.094C705 606.094 786.5 615.594 762 605.094C742.4 596.694 698.167 564.927 678.5 550.094C696.5 552.26 729.3 555.294 716.5 550.094C703.7 544.894 685.833 527.26 678.5 519.094L746.5 514.094L690 490.594L769.5 485.594L706 451.094L786.5 459.594L774 447.094C790.667 448.094 824 449.494 824 447.094C824 444.694 799 433.427 786.5 428.094C795.7 420.894 843.667 425.094 866.5 428.094L851.5 417.094L888 420.094C879.333 409.76 861.4 386.694 859 377.094C856.6 367.494 834.667 339.76 824 327.094L866.5 343.094L828.5 294.094C833.096 293.875 843.726 299.211 855.317 305.031C870.21 312.507 886.69 320.781 894 319.094C904.4 316.694 898.333 294.427 894 283.594C904.833 284.76 928.4 285.794 936 280.594C943.6 275.394 917.833 258.094 904 250.094L915 245.594L904 231.594L915 234.594L904 213.094L915 216.094C912.667 209.094 908.5 195.794 910.5 198.594C912.5 201.394 917.667 199.76 920 198.594C924.4 188.994 904.5 154.26 894 138.094C908 145.294 927.833 141.094 936 138.094C967.2 162.494 975.333 148.26 975.5 138.094C1023.1 145.294 1034 135.094 1033.5 129.094C1084.3 135.494 1070.33 110.427 1057 97.0938C1067.33 104.76 1091.2 117.594 1104 107.594C1116.8 97.5938 1187 83.7604 1220.5 78.0938C1231.3 62.8937 1255 52.4269 1265.5 49.0935ZM2178.86 1694.31C2178.86 1694.31 2178.86 1694.31 2178.86 1694.3L2178.86 1694.31Z" fill="#FFEA97"/>
<path d="M2103 1026.09C2113.8 1026.09 2098.5 1010.76 2089.5 1003.09L2079 981.094C2072.17 972.26 2055 950.294 2041 933.094C2027 915.894 2051.5 922.518 2065.5 927.98C2054.7 910.69 2070 911.851 2079 914.594C2074.5 909.76 2064.1 896.194 2058.5 880.594C2052.9 864.994 2033.17 849.427 2024 843.594L1986 849.094C1970 846.694 1970.67 829.76 1973 821.594C1954.25 825.994 1940.19 810.427 1935.5 802.094C1935.5 795.094 1938.4 780.694 1950 779.094C1961.6 777.494 1970.17 755.094 1973 744.094L1859 753.594C1842 701.26 1798.9 602.694 1762.5 627.094C1726.1 651.494 1710.67 637.26 1707.5 627.094C1683.02 622.446 1684.08 611.652 1684.86 603.759C1685.33 598.916 1685.7 595.164 1680 594.594C1668 593.394 1656.33 575.427 1652 566.594L1611 552.594C1602.33 554.76 1583.8 557.794 1579 552.594C1573 546.094 1546.5 535.594 1530.5 533.094C1520.22 531.488 1510.98 545.149 1503.95 555.523C1500.04 561.3 1496.82 566.057 1494.5 566.594C1492.48 567.061 1489.44 570.094 1485.17 574.352C1475.72 583.778 1460.26 599.206 1436.5 606.094C1408.9 614.094 1364 644.427 1345 658.594C1332.33 667.927 1303.8 686.594 1291 686.594C1278.2 686.594 1252.67 696.26 1241.5 701.094C1235.17 703.26 1220.6 709.394 1213 716.594C1205.4 723.794 1184.17 725.927 1174.5 726.094C1168.33 728.927 1154.4 735.794 1148 740.594C1141.6 745.394 1133 738.594 1129.5 734.594C1122.83 738.094 1107.5 746.394 1099.5 751.594C1091.5 756.794 1067.5 761.427 1056.5 763.094C1061.83 752.76 1071.6 732.594 1068 734.594C1064.4 736.594 1037.5 729.76 1024.5 726.094L1041 693.594C1035 695.594 1005.5 699.427 991.5 701.094V671.094C981.667 671.094 956.8 673.794 936 684.594C910 698.094 886 707.594 866.5 707.594C855.923 707.594 854.614 715.684 853.157 724.684C851.927 732.277 850.593 740.518 843.5 745.094C831.1 753.094 820.667 776.427 817 787.094C808.081 795.446 790.433 810.893 781.397 815.356C791.36 813.438 815.16 809.745 829.5 807.594C832.5 815.26 831.6 831.594 804 835.594H849C851.761 835.594 854.115 843.723 857.235 854.496C858.156 857.678 859.145 861.091 860.23 864.594C879.153 864.76 920.8 871.094 936 895.094C946.296 911.351 968.037 921.588 990.174 932.011C1008.89 940.823 1027.88 949.767 1040.49 962.594C1062.5 984.994 1102.67 1004.26 1120 1011.09H1142.5H1175.5L1164 1026.59C1170.17 1025.93 1183.4 1023.99 1187 1021.59C1191.5 1018.59 1211.5 1030.59 1205 1036.09C1199.8 1040.49 1194.83 1048.59 1193 1052.09L1211.5 1046.09L1225 1041.09L1219.5 1054.09L1237.5 1052.09L1260 1048.09L1250 1057.09L1231.5 1082.59L1258 1080.59L1242 1103.09L1273.5 1100.59H1300L1321.5 1094.09L1318 1103.09L1339 1100.59H1366L1369.5 1111.59L1397.5 1103.09C1404.17 1105.93 1421.4 1111.59 1437 1111.59C1445.87 1111.59 1453.6 1114.59 1461.18 1117.53C1470.27 1121.06 1479.14 1124.5 1489.5 1122.59C1497.41 1121.14 1504.71 1118.99 1511.54 1116.98C1521.14 1114.15 1529.83 1111.59 1538 1111.59C1549.2 1111.59 1569 1105.93 1577.5 1103.09V1141.59C1577.5 1146.3 1575.72 1157.7 1574.03 1168.58L1574.03 1168.58L1574.03 1168.59L1574.03 1168.59C1572.48 1178.52 1571 1188.02 1571 1191.59C1571 1192.9 1570.74 1195.65 1570.39 1199.34C1568.75 1216.74 1565.12 1255.08 1577.5 1262.09C1586.05 1266.94 1593.78 1272.1 1603.38 1278.52C1610.64 1283.36 1618.96 1288.92 1629.5 1295.59C1638.15 1301.07 1645.87 1307.04 1652.9 1312.48C1665.76 1322.44 1676.3 1330.59 1686 1330.59C1688.7 1330.59 1692.07 1330.32 1695.83 1330.01C1712.94 1328.62 1737.9 1326.59 1742 1347.09C1742.96 1351.89 1742.81 1359.18 1742.64 1368.26C1741.88 1406.55 1740.5 1476.69 1818.5 1525.59C1838.5 1538.59 1882 1564.29 1896 1563.09L1924.5 1654.59C1928.5 1706.09 2018 1916.09 2055 1984.09C2077.78 2025.96 2081.61 2063.66 2084.34 2090.54C2086.04 2107.31 2087.31 2119.87 2092.5 2126.59C2106 2144.09 2117 2234.59 2108 2254.09C2100.8 2269.69 2101 2300.93 2102 2314.59C2090 2362.99 2107 2381.43 2117 2384.59C2113 2363.09 2133 2329.59 2150.5 2321.59C2164.43 2315.23 2174.57 2255.51 2177.95 2226.02C2177.96 2225.92 2177.97 2225.82 2177.98 2225.72C2177.99 2225.68 2177.99 2225.64 2178 2225.59L2177.95 2226.02C2177.62 2232.25 2189.7 2260.9 2202.95 2292.32L2202.95 2292.33C2216.82 2325.23 2231.96 2361.18 2235.5 2377.59C2241.1 2403.59 2245.83 2418.09 2247.5 2422.09C2254.7 2444.09 2219.5 2448.59 2201 2448.09C2239.8 2505.29 2274.5 2460.59 2287 2431.09C2298.47 2425.17 2302.85 2410.99 2303.05 2393.09C2303.49 2354.44 2284.4 2298.43 2274.98 2270.8C2271.46 2260.46 2269.29 2254.09 2270 2254.09C2273.5 2254.09 2410.5 2377.09 2433 2406.09C2451 2429.29 2468.83 2437.09 2475.5 2438.09C2492.7 2456.49 2468.33 2488.09 2454 2501.59C2504 2497.99 2504.83 2447.09 2499 2422.09C2524.2 2387.69 2428.17 2292.09 2377 2248.59C2402.71 2244.62 2426.14 2242.83 2447.5 2242.77C2582.25 2242.39 2634.26 2311 2653.49 2336.37C2658.83 2343.41 2661.65 2347.12 2663 2345.09C2668.6 2336.69 2670.33 2317.26 2670.5 2308.59C2694.5 2258.59 2585.83 2198.09 2528.5 2174.09C2537.67 2127.65 2474.58 2117.62 2418.76 2108.74C2383.23 2103.09 2350.64 2097.9 2341.5 2084.09C2331.6 2069.13 2314.41 2058.26 2297.36 2047.46C2273.94 2032.64 2250.76 2017.97 2247 1993.09C2241.8 1958.69 2228.83 1876.76 2223 1840.09H2231.5C2230.3 1833.69 2212.67 1807.76 2204 1795.59H2217.5C2213.1 1783.19 2191 1740.09 2180.5 1720.09H2195C2191.87 1714.25 2186.41 1705.84 2180.12 1696.24L2178.86 1694.31L2178.86 1694.3L2178.85 1694.3L2178.85 1694.29L2178.83 1694.27L2178.82 1694.25L2178.82 1694.25L2178.81 1694.24C2175.75 1689.56 2172.52 1684.63 2169.29 1679.59C2154.92 1657.2 2140.5 1632.7 2140.5 1619.09C2140.5 1600.29 2078.83 1471.93 2048 1410.09C2045.67 1404.09 2041 1389.09 2041 1377.09C2041 1368.93 2035.37 1358.98 2030.24 1349.92L2030.24 1349.92C2025.94 1342.34 2022 1335.38 2022 1330.59C2022 1324.68 2015.02 1316.87 2008.66 1309.74C2003.72 1304.21 1999.16 1299.09 1998.5 1295.59C1997.8 1291.85 1992.26 1284.25 1986.07 1275.75L1986.07 1275.75C1979.04 1266.11 1971.16 1255.3 1968.5 1247.59C1964.5 1235.99 1933.5 1212.09 1918.5 1201.59C1920.67 1199.43 1923.7 1193.29 1918.5 1186.09C1913.3 1178.89 1890.67 1164.43 1880 1158.09C1885.33 1156.93 1897.4 1153.39 1903 1148.59C1908.6 1143.79 1926.33 1132.93 1934.5 1128.09L1903 1122.59C1922.18 1116.16 1957.11 1103.9 1973 1096.64C1975.04 1095.03 1977.69 1093.5 1981 1092.09C2006.94 1081.05 2026.68 1067.5 2040.69 1057.88C2053.96 1048.77 2062.1 1043.19 2065.5 1046.59C2071.1 1052.19 2101.17 1066.93 2115.5 1073.59L2079 1039.59C2082.5 1035.09 2092.2 1026.09 2103 1026.09Z" fill="#FFD06A"/>
<path d="M1384 1679.59C1442 1714.09 1550.5 1823.59 1627 1838.59C1639.67 1841.35 1657.7 1844.53 1677 1846.73C1648.5 1827.87 1697.5 1784.59 1783 1790.09C1851.4 1794.49 1905.83 1701.59 1924.5 1654.59L1896 1563.09C1882 1564.29 1838.5 1538.59 1818.5 1525.59C1823.5 1537.09 1822.5 1714.09 1771 1737.09C1735.69 1752.86 1681.12 1745.83 1640.94 1740.66C1622.52 1738.29 1607.12 1736.31 1598 1737.09C1569 1739.59 1468 1724.59 1458 1703.09C1450 1685.89 1405.33 1680.26 1384 1679.59Z" fill="#FFD97A"/>
<path d="M1042.5 518.5C1020.1 509.7 971.5 498.167 950 493.5C1031 520.501 1042.5 580 1111 618C1179.5 656 1331.5 578.5 1337.5 572.5C1343.5 566.5 1416.5 534.5 1435 518.5C1449.8 505.7 1509.83 473.834 1538 459.5C1522 455 1265 528 1203.5 534.5C1142 541 1070.5 529.5 1042.5 518.5Z" fill="#FFDB63"/>
<path d="M1668.5 476.5C1699.33 499.667 1764.2 550.1 1777 566.5C1789.8 582.9 1822.33 608.333 1837 619C1812.45 587.564 1765.8 529.055 1750.01 513.424C1745.78 510.946 1743.71 509.5 1745 509.5C1745.72 509.5 1747.47 510.905 1750.01 513.424C1767.03 523.395 1818.99 550.08 1827 566.5C1837 587 1938 672.5 1954 673.5C1970 674.5 2028 680.5 2044 699C2056.8 713.8 2065.67 727.5 2068.5 732.5C2047.5 736.167 1997.9 746.7 1967.5 759.5C1929.5 775.5 1871.5 806 1842 765.5C1812.5 725 1752 578.5 1706.5 572.5C1715.5 565.167 1728.1 547.3 1706.5 534.5C1684.9 521.7 1672.17 490.5 1668.5 476.5Z" fill="#FFDB63"/>
<path d="M1336 349.5C1339.6 367.5 1402.17 350.667 1433 340C1411 340 1381 288.5 1367.5 275.5C1354 262.5 1343 293 1341.5 309C1340 325 1331.5 327 1336 349.5Z" fill="#FFDF5F"/>
<path d="M1859.5 376.499C1840.3 400.499 1796.5 400.832 1777 397.999C1788 435.998 1868 513.5 1913 529.5C1958 545.5 1972.5 500.5 1972.5 492.5C1972.5 484.5 1959 483.5 1964.5 482.5C1970 481.5 1980.5 465.5 1980.5 456C1980.5 446.5 1943.5 464 1932 465.5C1920.5 467 1905 448.5 1932 450C1959 451.5 1972.5 424.5 1980.5 397.999C1988.5 371.498 1964.5 346.5 1959 333C1953.5 319.5 1972 311.5 1972.5 306.5C1972.9 302.5 1967.33 296.5 1964.5 294C1957.5 298.5 1941.2 310 1932 319.999C1920.5 332.498 1917.5 330 1913 319.999C1908.5 309.998 1936.5 268 1939 259.5C1941.5 251 1940 236 1932 234C1925.6 232.4 1907 276.333 1898.5 298.499C1893.33 290.832 1880 276.599 1868 280.999C1853 286.499 1877.5 306.499 1883 319.999C1888.5 333.499 1883.5 346.499 1859.5 376.499Z" fill="#FFD773"/>
<path d="M1284 245C1286.4 237.8 1278.67 232 1274.5 230C1224.5 224.8 1178 247.166 1161 259C1160 267 1157.9 286.2 1157.5 299C1157 315 1164 336.5 1177.5 348C1191 359.5 1210.5 349.5 1223.5 348C1236.5 346.5 1259.5 299 1264 283C1268.5 267 1281 254 1284 245Z" fill="#FFCC49"/>
<path d="M1249 270C1250.6 260.4 1233.67 256.667 1225 256C1225 219.334 1221.3 146.6 1206.5 149C1188 152 1170 174.5 1166 179C1162.8 182.6 1153.33 181.834 1149 181C1151.67 184.167 1156.6 191.3 1155 194.5C1153.4 197.7 1142.33 200.5 1137 201.5C1141.83 201.834 1151.5 203.4 1151.5 207C1151.5 210.6 1145.83 214.5 1143 216C1147 217.667 1154.3 221.5 1151.5 223.5C1148.7 225.5 1142.33 228 1139.5 229C1144.67 232.167 1155 239.2 1155 242C1155 244.8 1148.67 248.5 1145.5 250C1150.33 251.334 1160 254.4 1160 256C1160 257.6 1152.67 262 1149 264C1152.67 265 1160.3 267.6 1161.5 270C1162.7 272.4 1157.67 277.334 1155 279.5C1160 278.167 1170 275.8 1170 277C1170 278.2 1163.33 286.5 1160 290.5C1164.67 288.834 1174 286.2 1174 289C1174 291.8 1168.67 297.834 1166 300.5C1171.5 299.167 1182.5 296.9 1182.5 298.5C1182.5 300.5 1173 306 1174 307.5C1174.8 308.7 1185 307 1190 306L1182.5 310.5C1186.5 317 1234 305.5 1236 304C1238 302.5 1227.5 293 1234 294C1239.2 294.8 1246.17 291 1249 289L1242.5 284C1244 283.334 1247.4 279.6 1249 270Z" fill="#FFF1C1"/>
<path d="M1211.5 111.5C1198.3 115.5 1202 143.834 1205.5 157.5C1211.9 177.5 1228.17 218.167 1235.5 236C1265.5 292 1296.5 192.5 1296.5 184.5C1296.5 176.5 1303 116 1296.5 82.5002C1290 49.0002 1252.5 82.5002 1245.5 82.5002C1238.5 82.5002 1228 106.5 1211.5 111.5Z" fill="#FFDB4C"/>
<path d="M1218.5 166.5C1187 166.5 1178.5 249.5 1211 261.5C1255.19 277.815 1240.5 171 1218.5 166.5Z" fill="black"/>
<path d="M1933.5 299C1930.3 312.2 1932.17 345.833 1933.5 361C1938.3 337 1969.5 299.333 1984.5 283.5C1953.5 283.5 1951.5 251.5 1948 252C1944.5 252.5 1937.5 282.5 1933.5 299Z" fill="#FFE957"/>
<path d="M1963.5 357.5C1959.9 351.5 1952 336.333 1948.5 329.5C1931 342 1904 417 1937 417C1970 417 1968 365 1963.5 357.5Z" fill="black"/>
<path d="M1939.5 377C1939.5 374.2 1938.32 372 1933.82 372C1929.32 372 1922.32 380.5 1928.32 384.5C1934.32 388.5 1939.5 380.5 1939.5 377Z" fill="#FFEDBA"/>
<path d="M1553.54 372.58C1573.7 367.826 1596.36 373.117 1614.09 377.889C1635.6 384.825 1658.65 382.637 1683.08 395.634C1704.68 407.557 1722.83 421.547 1741.69 435.069C1830.4 500.382 1894.44 594.545 1984.8 647.55C1985.98 648.007 1987.2 648.452 1988.42 648.877C1997.27 651.939 2006.64 654.216 2016.08 656.684C2020.8 657.925 2025.58 659.184 2030.4 660.837C2032.81 661.684 2035.25 662.601 2037.78 664C2039.05 664.728 2040.34 665.521 2041.69 666.931C2042.99 668.209 2044.45 670.984 2043.88 673.647C2043.69 674.662 2043.12 675.57 2042.27 676.169C2041.43 676.768 2040.38 677.01 2039.36 676.841C2038.34 676.671 2037.43 676.103 2036.82 675.262C2036.29 674.514 2036.03 673.604 2036.08 672.693C2036.05 672.656 2035.99 672.589 2035.89 672.503C2035.53 672.152 2034.77 671.655 2033.9 671.224C2032.14 670.345 2029.97 669.601 2027.78 668.947C2023.37 667.645 2018.65 666.609 2013.95 665.588C2004.51 663.541 1994.87 661.643 1985.22 658.74C1983.89 658.336 1982.53 657.903 1981.2 657.45C1881.64 604.15 1817.29 512.479 1730.31 450.931C1711.57 437.872 1692.5 423.809 1673.67 413.714C1657 404.117 1631.64 405.013 1608.91 398.111C1589.95 393.277 1574.55 389.398 1557.25 393.249C1488.92 409.419 1417.81 427.298 1346.94 440.899C1247.62 456.874 1152.2 489.986 1046.61 475.28C1044.68 474.257 1042.39 473.361 1040.04 472.574C1022.46 467.111 1002.84 464.904 983.833 463.434C982.803 463.366 981.83 462.907 981.132 462.141C980.434 461.374 980.067 460.365 980.111 459.334C980.155 458.303 980.607 457.329 981.368 456.625C982.128 455.921 983.135 455.545 984.167 455.565C1003.86 456.24 1023.28 457.43 1043.11 462.672C1045.84 463.468 1048.59 464.387 1051.39 465.719C1144.21 474.154 1245.92 440.074 1343.06 422.1C1414.01 407.241 1481.93 389.464 1553.54 372.58Z" fill="#FCD138"/>
<path d="M904.5 821.5C903.7 828.3 895.5 846.333 891.5 854.5C905.833 843.5 934.9 817.9 936.5 803.5C938.5 785.5 944.5 789.5 958.5 778.5C972.5 767.5 963 763.5 969.5 755C976 746.5 999.5 734.5 1008.5 725C1015.7 717.4 1018.5 707.833 1019 704C1005.67 710.833 974.9 726.5 958.5 734.5C938 744.5 950 755.5 944.5 763.5C939 771.5 925.5 799.5 924 803.5C922.5 807.5 905.5 813 904.5 821.5Z" fill="#FFBC58"/>
<path d="M990 840C984.4 845.6 979.667 869 978 880C982 875.333 991.2 863.7 996 854.5C1002 843 1008.5 846.5 1023.5 840C1038.5 833.5 1037.5 826 1037.5 815V799.5C1031.33 800.833 1016.9 804.4 1008.5 808C998 812.5 997 833 990 840Z" fill="#FFBC58"/>
<path d="M1008.5 902C1008.5 914 1011.17 919.667 1012.5 921C1014.67 919.167 1019.9 914.2 1023.5 909C1028 902.5 1023.5 894.5 1023.5 890.5C1023.5 886.5 1031.5 877 1037.5 870C1042.3 864.4 1039.5 857.333 1037.5 854.5C1032.83 856 1021.3 860.3 1012.5 865.5C1001.5 872 1008.5 865.5 1005 877C1001.5 888.5 1008.5 887 1008.5 902Z" fill="#FFBC58"/>
<path d="M1037.5 909C1033.5 918.2 1035.83 925.5 1037.5 928C1037.5 915.5 1051 909 1051 902C1051 895 1057.5 888 1061 880C1064.5 872 1066 865.5 1066 859C1066 852.5 1069 840 1071.5 840C1074 840 1073 821.5 1061 821.5C1051.4 821.5 1050.33 838.833 1051 847.5C1052.5 852.167 1053 867.3 1043 890.5C1042 901 1042.5 897.5 1037.5 909Z" fill="#FFBC58"/>
<path d="M1066 890.5C1070 888 1078 882.4 1078 880C1078 877 1085.5 872 1086.5 865.5C1087.5 859 1097.5 833 1110.5 835C1123.5 837 1133 829.5 1130.5 847.5C1128 865.5 1123 860 1119.5 870C1116 880 1092 889 1092.5 895.5C1093 902 1077 919.5 1071.5 928C1066.85 935.187 1055.41 934.51 1051.98 935.943C1051.36 937.314 1051 937.805 1051 937C1051 936.537 1051.36 936.204 1051.98 935.943C1053.68 932.203 1057.34 921.915 1061 913.5C1065 904.3 1066 894.333 1066 890.5Z" fill="#FFBC58"/>
<path d="M1174.5 969C1170.1 973.8 1167 984.667 1166 989.5C1170 980.5 1189.5 984 1189.5 979C1189.5 974 1202 973 1206.5 969C1211 965 1202 959.5 1202 954.5C1202 949.5 1189.5 950.5 1189.5 954.5C1189.5 958.5 1180 963 1174.5 969Z" fill="#FFBC58"/>
<path d="M1412.5 1028C1408.1 1033.2 1414.33 1043.17 1418 1047.5C1423.5 1042.5 1439 1035 1436 1028C1433 1021 1434 1020 1430.5 1016C1427 1012 1418 1021.5 1412.5 1028Z" fill="#FFBC58"/>
<path d="M1568.5 1059.5C1563.3 1061.5 1561 1067.33 1560.5 1070C1565.83 1070 1576.2 1071.7 1575 1078.5C1573.5 1087 1568.5 1088 1565 1094C1561.5 1100 1581 1098 1591 1092C1601 1086 1591 1080.5 1591 1059.5C1593.8 1051.1 1585.5 1051.33 1581 1052.5C1579 1054 1573.7 1057.5 1568.5 1059.5Z" fill="#FFBC58"/>
<path d="M1808 1045C1809.2 1039 1815.83 1032.5 1819 1030C1825.5 1044.5 1819 1056 1824 1065C1829 1074 1831.5 1082.5 1831.5 1092C1831.5 1099.6 1823.17 1110.5 1819 1115C1817.83 1111.33 1814 1101.6 1808 1092C1800.5 1080 1801.5 1070 1801.5 1065C1801.5 1060 1806.5 1052.5 1808 1045Z" fill="#FFBC58"/>
<path d="M1940 1010.5C1942.8 1000.1 1945.83 991.167 1947 988C1948.33 990.167 1951 996.1 1951 1002.5C1951 1010.5 1947 1018 1951 1030C1955 1042 1953.5 1041 1947 1052.5C1941.8 1061.7 1944.83 1073.67 1947 1078.5C1940.5 1065 1940 1048.5 1940 1041C1940 1033.5 1936.5 1023.5 1940 1010.5Z" fill="#FFBC58"/>
<path d="M1865.5 988C1864.3 980.4 1870.67 967.167 1874 961.5C1875.5 964.833 1878.5 973.4 1878.5 981C1878.5 990.5 1876.5 990 1878.5 999C1880.5 1008 1888.5 1015.5 1886 1026C1883.5 1036.5 1891 1041 1892.5 1052.5C1894 1064 1890 1070 1882 1078.5C1874 1087 1886 1111.5 1878.5 1106.5C1871 1101.5 1870 1085 1874 1070C1878 1055 1870 1059.5 1870 1049C1870 1038.5 1869 1041 1870 1030C1871 1019 1865.5 1018 1861.5 1010.5C1857.5 1003 1867 997.5 1865.5 988Z" fill="#FFBC58"/>
</svg>
