<svg width="402" height="874" viewBox="0 0 402 874" fill="none" xmlns="http://www.w3.org/2000/svg">
<path d="M0 32C0 14.3269 14.3269 0 32 0H370C387.673 0 402 14.3269 402 32V842C402 859.673 387.673 874 370 874H32C14.3269 874 0 859.673 0 842V32Z" fill="url(#paint0_radial_1033_11333)" fill-opacity="0.5"/>
<path d="M0 32C0 14.3269 14.3269 0 32 0H370C387.673 0 402 14.3269 402 32V842C402 859.673 387.673 874 370 874H32C14.3269 874 0 859.673 0 842V32Z" fill="url(#paint1_radial_1033_11333)" fill-opacity="0.5"/>
<path d="M0 32C0 14.3269 14.3269 0 32 0H370C387.673 0 402 14.3269 402 32V842C402 859.673 387.673 874 370 874H32C14.3269 874 0 859.673 0 842V32Z" fill="url(#paint2_radial_1033_11333)" fill-opacity="0.3"/>
<path d="M0 32C0 14.3269 14.3269 0 32 0H370C387.673 0 402 14.3269 402 32V842C402 859.673 387.673 874 370 874H32C14.3269 874 0 859.673 0 842V32Z" fill="url(#paint3_radial_1033_11333)" fill-opacity="0.45"/>
<path d="M0 32C0 14.3269 14.3269 0 32 0H370C387.673 0 402 14.3269 402 32V842C402 859.673 387.673 874 370 874H32C14.3269 874 0 859.673 0 842V32Z" fill="url(#paint4_radial_1033_11333)" fill-opacity="0.15"/>
<path d="M0 32C0 14.3269 14.3269 0 32 0H370C387.673 0 402 14.3269 402 32V842C402 859.673 387.673 874 370 874H32C14.3269 874 0 859.673 0 842V32Z" fill="url(#paint5_radial_1033_11333)" fill-opacity="0.15"/>
<path d="M0 32C0 14.3269 14.3269 0 32 0H370C387.673 0 402 14.3269 402 32V842C402 859.673 387.673 874 370 874H32C14.3269 874 0 859.673 0 842V32Z" fill="url(#paint6_radial_1033_11333)" fill-opacity="0.3"/>
<path d="M0 32C0 14.3269 14.3269 0 32 0H370C387.673 0 402 14.3269 402 32V842C402 859.673 387.673 874 370 874H32C14.3269 874 0 859.673 0 842V32Z" fill="url(#paint7_radial_1033_11333)" fill-opacity="0.3"/>
<path d="M0 32C0 14.3269 14.3269 0 32 0H370C387.673 0 402 14.3269 402 32V842C402 859.673 387.673 874 370 874H32C14.3269 874 0 859.673 0 842V32Z" fill="url(#paint8_radial_1033_11333)" fill-opacity="0.25"/>
<path d="M55.8156 33.704C56.509 33.704 57.1276 33.8373 57.6716 34.104C58.2156 34.3707 58.6423 34.76 58.9516 35.272C59.2716 35.784 59.4316 36.4187 59.4316 37.176C59.4316 37.9973 59.261 38.7067 58.9196 39.304C58.5783 39.9013 58.0663 40.36 57.3836 40.68C56.7116 41 55.8743 41.16 54.8716 41.16C54.2743 41.16 53.709 41.1067 53.1756 41C52.653 40.8933 52.1943 40.7387 51.7996 40.536V38.456C52.1943 38.6587 52.669 38.8347 53.2236 38.984C53.7783 39.1227 54.301 39.192 54.7916 39.192C55.2716 39.192 55.6716 39.128 55.9916 39C56.3223 38.872 56.573 38.6747 56.7436 38.408C56.9143 38.1413 56.9996 37.8 56.9996 37.384C56.9996 36.8187 56.813 36.392 56.4396 36.104C56.0663 35.8053 55.4903 35.656 54.7116 35.656C54.413 35.656 54.1036 35.688 53.7836 35.752C53.4636 35.8053 53.197 35.8587 52.9836 35.912L52.0236 35.4L52.4556 29.576H58.6476V31.624H54.5676L54.3596 33.864C54.541 33.832 54.733 33.8 54.9356 33.768C55.149 33.7253 55.4423 33.704 55.8156 33.704ZM61.0359 39.88C61.0359 39.3787 61.1692 39.032 61.4359 38.84C61.7132 38.6373 62.0439 38.536 62.4279 38.536C62.8012 38.536 63.1212 38.6373 63.3879 38.84C63.6652 39.032 63.8039 39.3787 63.8039 39.88C63.8039 40.3493 63.6652 40.6907 63.3879 40.904C63.1212 41.1067 62.8012 41.208 62.4279 41.208C62.0439 41.208 61.7132 41.1067 61.4359 40.904C61.1692 40.6907 61.0359 40.3493 61.0359 39.88ZM61.0359 33.432C61.0359 32.9413 61.1692 32.6 61.4359 32.408C61.7132 32.2053 62.0439 32.104 62.4279 32.104C62.8012 32.104 63.1212 32.2053 63.3879 32.408C63.6652 32.6 63.8039 32.9413 63.8039 33.432C63.8039 33.912 63.6652 34.2587 63.3879 34.472C63.1212 34.6747 62.8012 34.776 62.4279 34.776C62.0439 34.776 61.7132 34.6747 61.4359 34.472C61.1692 34.2587 61.0359 33.912 61.0359 33.432ZM73.2319 35.288C73.2319 36.2053 73.1572 37.0267 73.0079 37.752C72.8692 38.4773 72.6399 39.096 72.3199 39.608C72.0105 40.1093 71.5999 40.4933 71.0879 40.76C70.5865 41.0267 69.9679 41.16 69.2319 41.16C68.3145 41.16 67.5625 40.9253 66.9759 40.456C66.3892 39.9867 65.9519 39.3147 65.6639 38.44C65.3865 37.5653 65.2479 36.5147 65.2479 35.288C65.2479 34.0507 65.3759 32.9947 65.6319 32.12C65.8879 31.2453 66.3092 30.5733 66.8959 30.104C67.4825 29.6347 68.2612 29.4 69.2319 29.4C70.1492 29.4 70.9012 29.6347 71.4879 30.104C72.0745 30.5627 72.5119 31.2347 72.7999 32.12C73.0879 32.9947 73.2319 34.0507 73.2319 35.288ZM67.6479 35.288C67.6479 36.152 67.6959 36.8773 67.7919 37.464C67.8879 38.04 68.0479 38.4773 68.2719 38.776C68.5065 39.064 68.8265 39.208 69.2319 39.208C69.6372 39.208 69.9519 39.064 70.1759 38.776C70.4105 38.488 70.5759 38.056 70.6719 37.48C70.7785 36.8933 70.8319 36.1627 70.8319 35.288C70.8319 34.4133 70.7785 33.688 70.6719 33.112C70.5759 32.5253 70.4105 32.088 70.1759 31.8C69.9519 31.5013 69.6372 31.352 69.2319 31.352C68.8265 31.352 68.5065 31.5013 68.2719 31.8C68.0479 32.088 67.8879 32.5253 67.7919 33.112C67.6959 33.688 67.6479 34.4133 67.6479 35.288ZM75.6041 41L79.8921 31.608H74.2601V29.576H82.4521V31.096L78.1321 41H75.6041Z" fill="#FFFEFA"/>
<path d="M310 32C310 31.4477 310.448 31 311 31H312C312.552 31 313 31.4477 313 32V40C313 40.5523 312.552 41 312 41H311C310.448 41 310 40.5523 310 40V32Z" fill="#FFFEFA"/>
<path d="M315 30C315 29.4477 315.448 29 316 29H317C317.552 29 318 29.4477 318 30V40C318 40.5523 317.552 41 317 41H316C315.448 41 315 40.5523 315 40V30Z" fill="#FFFEFA"/>
<path d="M305 35.5C305 34.9477 305.448 34.5 306 34.5H307C307.552 34.5 308 34.9477 308 35.5V40C308 40.5523 307.552 41 307 41H306C305.448 41 305 40.5523 305 40V35.5Z" fill="#FFFEFA"/>
<path d="M300 38C300 37.4477 300.448 37 301 37H302C302.552 37 303 37.4477 303 38V40C303 40.5523 302.552 41 302 41H301C300.448 41 300 40.5523 300 40V38Z" fill="#FFFEFA"/>
<path d="M327.915 38.002C329.334 36.7764 331.414 36.7763 332.834 38.002C332.905 38.0679 332.947 38.1615 332.949 38.2598C332.951 38.3579 332.913 38.4527 332.844 38.5215L330.621 40.8115C330.555 40.8788 330.466 40.917 330.374 40.917C330.281 40.9169 330.193 40.8787 330.128 40.8115L327.904 38.5215C327.835 38.4526 327.797 38.3579 327.799 38.2598C327.801 38.1615 327.843 38.0678 327.915 38.002ZM324.909 35.2617C327.968 32.3571 332.705 32.3571 335.764 35.2617C335.833 35.3297 335.873 35.4228 335.874 35.5205C335.875 35.6185 335.837 35.7137 335.769 35.7832L334.484 37.1084C334.352 37.2437 334.137 37.2468 334.002 37.1152C332.997 36.1867 331.69 35.6718 330.335 35.6719C328.98 35.6726 327.674 36.1874 326.67 37.1152C326.535 37.2465 326.321 37.2434 326.189 37.1084L324.904 35.7832C324.836 35.7138 324.798 35.6186 324.799 35.5205C324.8 35.4227 324.84 35.3297 324.909 35.2617ZM321.906 32.5254C326.598 27.9356 334 27.9356 338.692 32.5254C338.76 32.5935 338.799 32.6861 338.799 32.7832C338.8 32.8804 338.762 32.974 338.695 33.043L337.409 34.3691C337.276 34.505 337.061 34.5066 336.926 34.373C335.139 32.6383 332.766 31.67 330.299 31.6699C327.833 31.67 325.46 32.6382 323.672 34.373C323.538 34.5069 323.322 34.5052 323.19 34.3691L321.903 33.043C321.836 32.9739 321.799 32.8804 321.799 32.7832C321.8 32.6862 321.838 32.5934 321.906 32.5254Z" fill="#FFFEFA"/>
<path opacity="0.35" d="M346.599 29H363.599C365.532 29 367.099 30.567 367.099 32.5V37.5C367.099 39.433 365.532 41 363.599 41H346.599C344.666 41 343.099 39.433 343.099 37.5V32.5C343.099 30.567 344.666 29 346.599 29Z" stroke="#FFFEFA"/>
<path opacity="0.4" d="M368.599 33.5V37.7203C369.448 37.3629 370 36.5314 370 35.6102C370 34.6889 369.448 33.8574 368.599 33.5Z" fill="#FFFEFA"/>
<path d="M344.599 32.5C344.599 31.3954 345.494 30.5 346.599 30.5H363.599C364.703 30.5 365.599 31.3954 365.599 32.5V37.5C365.599 38.6046 364.703 39.5 363.599 39.5H346.599C345.494 39.5 344.599 38.6046 344.599 37.5V32.5Z" fill="#FFFEFA"/>
<rect width="402" height="734" transform="translate(0 70)" fill="#FFFEFA"/>
<g filter="url(#filter0_i_1033_11333)">
<path d="M357.634 108.288C364.464 108.288 370 114.034 370 121.123V144.584C370 151.672 364.464 157.419 357.634 157.419H336.392L327.704 174.632C326.161 177.69 321.945 177.69 320.402 174.632L311.714 157.419H44.3658C37.5364 157.419 32 151.672 32 144.584V121.123C32 114.034 37.5364 108.288 44.3658 108.288H357.634Z" fill="#FFFEFA"/>
<path d="M60.16 138.524H61.912V145.1H60.16V138.524ZM56.536 132.716V134.996H65.608V132.716H56.536ZM54.856 131.348H67.384V136.388H54.856V131.348ZM52.648 137.756H69.76V146.42H67.96V139.172H54.376V146.468H52.648V137.756ZM53.632 141.092H68.608V142.412H53.632V141.092ZM53.632 144.38H68.608V145.772H53.632V144.38ZM60.04 124.34H61.864V128.852H60.04V124.34ZM50.992 128.012H71.248V133.004H69.472V129.596H52.72V133.004H50.992V128.012ZM52.96 125.3L54.568 124.628C54.968 125.092 55.36 125.604 55.744 126.164C56.144 126.708 56.448 127.188 56.656 127.604L55 128.396C54.808 127.964 54.512 127.452 54.112 126.86C53.728 126.268 53.344 125.748 52.96 125.3ZM67.36 124.556L69.232 125.18C68.816 125.74 68.384 126.308 67.936 126.884C67.504 127.444 67.104 127.924 66.736 128.324L65.248 127.748C65.488 127.46 65.736 127.132 65.992 126.764C66.264 126.38 66.52 125.996 66.76 125.612C67.016 125.212 67.216 124.86 67.36 124.556ZM74.272 128.132H95.728V129.788H74.272V128.132ZM76.744 135.86H83.488V137.276H76.744V135.86ZM76.744 139.7H83.488V141.116H76.744V139.7ZM87.496 132.164H89.176V142.004H87.496V132.164ZM82.816 131.948H84.568V144.356C84.568 144.804 84.504 145.156 84.376 145.412C84.264 145.668 84.04 145.868 83.704 146.012C83.368 146.156 82.928 146.244 82.384 146.276C81.856 146.308 81.184 146.324 80.368 146.324C80.32 146.1 80.232 145.828 80.104 145.508C79.992 145.204 79.872 144.94 79.744 144.716C80.352 144.732 80.904 144.74 81.4 144.74C81.896 144.756 82.224 144.756 82.384 144.74C82.56 144.74 82.672 144.708 82.72 144.644C82.784 144.58 82.816 144.476 82.816 144.332V131.948ZM92.368 131.444H94.144V144.188C94.144 144.7 94.072 145.092 93.928 145.364C93.784 145.652 93.52 145.868 93.136 146.012C92.768 146.156 92.272 146.244 91.648 146.276C91.04 146.324 90.272 146.34 89.344 146.324C89.296 146.084 89.208 145.796 89.08 145.46C88.952 145.14 88.824 144.852 88.696 144.596C89.416 144.628 90.072 144.644 90.664 144.644C91.256 144.644 91.656 144.636 91.864 144.62C92.056 144.62 92.184 144.588 92.248 144.524C92.328 144.46 92.368 144.34 92.368 144.164V131.444ZM77.992 124.916L79.672 124.316C80.136 124.812 80.592 125.38 81.04 126.02C81.488 126.66 81.832 127.212 82.072 127.676L80.296 128.348C80.104 127.884 79.784 127.332 79.336 126.692C78.904 126.036 78.456 125.444 77.992 124.916ZM90.352 124.22L92.272 124.844C91.824 125.596 91.336 126.356 90.808 127.124C90.296 127.892 89.824 128.556 89.392 129.116L87.784 128.54C88.088 128.14 88.4 127.692 88.72 127.196C89.04 126.684 89.336 126.172 89.608 125.66C89.896 125.132 90.144 124.652 90.352 124.22ZM75.784 131.948H83.392V133.484H77.488V146.3H75.784V131.948ZM100.624 132.212L102.016 132.692C101.696 133.268 101.36 133.86 101.008 134.468C100.656 135.06 100.328 135.572 100.024 136.004L98.92 135.596C99.224 135.148 99.536 134.596 99.856 133.94C100.176 133.284 100.432 132.708 100.624 132.212ZM102.64 134.156L103.984 134.756C103.568 135.348 103.128 135.972 102.664 136.628C102.216 137.268 101.76 137.892 101.296 138.5C100.832 139.092 100.384 139.62 99.952 140.084L98.992 139.532C99.408 139.068 99.84 138.524 100.288 137.9C100.736 137.26 101.168 136.612 101.584 135.956C102.016 135.284 102.368 134.684 102.64 134.156ZM100.672 129.596V131.348H107.44V129.596H100.672ZM100.672 126.716V128.42H107.44V126.716H100.672ZM99.112 125.492H109.048V132.572H99.112V125.492ZM98.032 135.308L98.776 134.3C99.32 134.668 99.856 135.092 100.384 135.572C100.912 136.036 101.32 136.452 101.608 136.82L100.816 137.948C100.528 137.58 100.12 137.148 99.592 136.652C99.08 136.14 98.56 135.692 98.032 135.308ZM102.04 137.78L103.072 137.42C103.328 137.916 103.56 138.468 103.768 139.076C103.976 139.668 104.12 140.188 104.2 140.636L103.12 141.068C103.04 140.62 102.896 140.092 102.688 139.484C102.496 138.876 102.28 138.308 102.04 137.78ZM101.776 141.956L103 141.764C103.144 142.388 103.264 143.052 103.36 143.756C103.456 144.46 103.52 145.076 103.552 145.604L102.208 145.82C102.224 145.308 102.184 144.692 102.088 143.972C101.992 143.236 101.888 142.564 101.776 141.956ZM104.272 141.764L105.448 141.476C105.688 142.02 105.912 142.612 106.12 143.252C106.328 143.892 106.472 144.452 106.552 144.932L105.304 145.268C105.224 144.804 105.08 144.244 104.872 143.588C104.68 142.932 104.48 142.324 104.272 141.764ZM106.672 141.452L107.776 140.996C108.112 141.444 108.44 141.94 108.76 142.484C109.08 143.012 109.312 143.468 109.456 143.852L108.28 144.404C108.136 143.988 107.904 143.508 107.584 142.964C107.28 142.42 106.976 141.916 106.672 141.452ZM99.52 141.476L100.84 141.908C100.68 142.692 100.456 143.492 100.168 144.308C99.896 145.124 99.504 145.796 98.992 146.324L97.72 145.556C98.184 145.092 98.56 144.484 98.848 143.732C99.152 142.964 99.376 142.212 99.52 141.476ZM97.96 139.292C98.712 139.26 99.56 139.228 100.504 139.196C101.464 139.164 102.464 139.124 103.504 139.076L103.48 140.324C102.504 140.388 101.56 140.452 100.648 140.516C99.736 140.564 98.88 140.612 98.08 140.66L97.96 139.292ZM106 132.212L107.392 132.692C107.072 133.268 106.728 133.86 106.36 134.468C106.008 135.06 105.68 135.572 105.376 136.004L104.296 135.596C104.6 135.148 104.912 134.596 105.232 133.94C105.552 133.284 105.808 132.708 106 132.212ZM108.064 134.108L109.384 134.732C108.984 135.308 108.544 135.924 108.064 136.58C107.6 137.236 107.128 137.86 106.648 138.452C106.168 139.044 105.712 139.572 105.28 140.036L104.32 139.508C104.736 139.044 105.176 138.5 105.64 137.876C106.104 137.236 106.552 136.588 106.984 135.932C107.416 135.26 107.776 134.652 108.064 134.108ZM103.456 135.356L104.2 134.348C104.728 134.7 105.248 135.108 105.76 135.572C106.288 136.036 106.696 136.452 106.984 136.82L106.168 137.948C105.896 137.58 105.504 137.148 104.992 136.652C104.48 136.156 103.968 135.724 103.456 135.356ZM107.488 137.756L108.568 137.3C108.888 137.844 109.184 138.428 109.456 139.052C109.744 139.676 109.936 140.22 110.032 140.684L108.904 141.188C108.792 140.724 108.6 140.172 108.328 139.532C108.072 138.876 107.792 138.284 107.488 137.756ZM103.984 139.316C104.672 139.284 105.448 139.244 106.312 139.196C107.192 139.148 108.112 139.1 109.072 139.052V140.3C108.192 140.38 107.336 140.452 106.504 140.516C105.688 140.564 104.904 140.62 104.152 140.684L103.984 139.316ZM110.056 125.492H119.728V127.052H110.056V125.492ZM112.24 134.372V136.7H117.712V134.372H112.24ZM112.24 138.044V140.396H117.712V138.044H112.24ZM112.24 130.724V133.004H117.712V130.724H112.24ZM110.704 129.284H119.272V141.836H110.704V129.284ZM113.992 126.212L115.888 126.452C115.728 127.124 115.568 127.812 115.408 128.516C115.264 129.204 115.12 129.804 114.976 130.316L113.488 130.028C113.6 129.484 113.704 128.852 113.8 128.132C113.896 127.412 113.96 126.772 113.992 126.212ZM112.84 142.436L114.352 143.276C114 143.676 113.576 144.076 113.08 144.476C112.6 144.86 112.096 145.228 111.568 145.58C111.04 145.932 110.536 146.228 110.056 146.468C109.912 146.308 109.72 146.116 109.48 145.892C109.256 145.684 109.048 145.508 108.856 145.364C109.352 145.124 109.848 144.836 110.344 144.5C110.856 144.18 111.328 143.836 111.76 143.468C112.208 143.1 112.568 142.756 112.84 142.436ZM115.816 143.324L117.112 142.484C117.496 142.772 117.888 143.1 118.288 143.468C118.688 143.836 119.072 144.196 119.44 144.548C119.808 144.916 120.104 145.244 120.328 145.532L118.936 146.468C118.728 146.18 118.448 145.844 118.096 145.46C117.744 145.092 117.368 144.724 116.968 144.356C116.568 143.972 116.184 143.628 115.816 143.324ZM132.064 132.884H134.008V144.068C134.008 144.644 133.92 145.084 133.744 145.388C133.584 145.692 133.288 145.924 132.856 146.084C132.424 146.228 131.848 146.316 131.128 146.348C130.424 146.38 129.536 146.396 128.464 146.396C128.432 146.124 128.352 145.804 128.224 145.436C128.096 145.084 127.96 144.772 127.816 144.5C128.36 144.516 128.88 144.532 129.376 144.548C129.888 144.564 130.328 144.564 130.696 144.548C131.08 144.548 131.344 144.548 131.488 144.548C131.712 144.532 131.864 144.492 131.944 144.428C132.024 144.364 132.064 144.236 132.064 144.044V132.884ZM126.616 136.076L128.464 136.58C128.08 137.556 127.616 138.516 127.072 139.46C126.544 140.404 125.968 141.284 125.344 142.1C124.736 142.916 124.12 143.628 123.496 144.236C123.384 144.124 123.224 144.004 123.016 143.876C122.808 143.732 122.592 143.596 122.368 143.468C122.16 143.324 121.984 143.22 121.84 143.156C122.816 142.308 123.72 141.26 124.552 140.012C125.4 138.748 126.088 137.436 126.616 136.076ZM137.416 136.82L139.072 136.124C139.664 136.86 140.24 137.668 140.8 138.548C141.376 139.428 141.896 140.292 142.36 141.14C142.824 141.988 143.176 142.756 143.416 143.444L141.616 144.26C141.408 143.588 141.08 142.82 140.632 141.956C140.184 141.092 139.68 140.212 139.12 139.316C138.56 138.404 137.992 137.572 137.416 136.82ZM124.576 126.116H141.472V127.892H124.576V126.116ZM122.44 131.948H143.584V133.724H122.44V131.948Z" fill="#FFAA1E"/>
<path d="M195.19 134.028C195.19 137.868 194.47 141.084 193.03 143.676C191.622 146.268 189.59 148.22 186.934 149.532C184.278 150.844 181.062 151.5 177.286 151.5H167.734V117.228H178.294C181.75 117.228 184.742 117.868 187.27 119.148C189.798 120.428 191.75 122.316 193.126 124.812C194.502 127.276 195.19 130.348 195.19 134.028ZM190.63 134.172C190.63 131.132 190.118 128.636 189.094 126.684C188.102 124.732 186.63 123.292 184.678 122.364C182.758 121.404 180.422 120.924 177.67 120.924H172.054V147.804H176.71C181.35 147.804 184.822 146.668 187.126 144.396C189.462 142.092 190.63 138.684 190.63 134.172ZM221.949 151.5H202.797V117.228H221.949V121.02H207.117V131.724H221.085V135.468H207.117V147.708H221.949V151.5ZM229.469 151.5V117.228H233.789V147.66H248.765V151.5H229.469ZM273.792 151.5H254.64V117.228H273.792V121.02H258.96V131.724H272.928V135.468H258.96V147.708H273.792V151.5ZM292.16 151.5H287.84V121.02H277.136V117.228H302.816V121.02H292.16V151.5ZM327.136 151.5H307.984V117.228H327.136V121.02H312.304V131.724H326.272V135.468H312.304V147.708H327.136V151.5Z" fill="#5F5F5F"/>
</g>
<g filter="url(#filter1_d_1033_11333)">
<path d="M32 224C32 215.163 39.1634 208 48 208H354C362.837 208 370 215.163 370 224V756C370 764.837 362.837 772 354 772H48C39.1634 772 32 764.837 32 756V224Z" fill="#FFFEFA" shape-rendering="crispEdges"/>
<g filter="url(#filter2_d_1033_11333)">
<path d="M47 254C47 245.163 54.1634 238 63 238H339C347.837 238 355 245.163 355 254V477C355 485.837 347.837 493 339 493H63C54.1634 493 47 485.837 47 477V254Z" fill="#FFFEFA" shape-rendering="crispEdges"/>
<path d="M51 238H71V278C71 280.761 68.7614 283 66 283H56C53.2386 283 51 280.761 51 278V238Z" fill="#FFD239"/>
<path d="M103.394 274.038L103.255 274.01L103.116 274.038C100.866 274.488 98.743 274.933 97.1908 273.693C95.649 272.458 94.5 270.104 94.5 265.965C94.5 261.731 95.454 260.012 96.71 259.383C97.3678 259.055 98.2177 258.959 99.2986 259.083C100.379 259.208 101.625 259.545 103.031 260.013L103.277 260.095L103.518 259.998C105.867 259.059 107.979 258.699 109.462 259.392C110.853 260.04 112.01 261.794 112.01 265.965C112.01 270.105 110.862 272.458 109.319 273.692C107.767 274.934 105.644 274.489 103.394 274.038Z" stroke="#FF9600"/>
<path d="M103.255 259.813C103.255 257.446 102.308 256.5 100.415 256.5" stroke="#FF9600" stroke-linecap="round" stroke-linejoin="round"/>
<path d="M150.088 260.952H159.04V262.632H150.088V260.952ZM137.464 255.36H148.072V256.872H137.464V255.36ZM137.2 264.864H148.168V266.448H137.2V264.864ZM137.128 260.832H148.36V262.368H137.128V260.832ZM154.576 261.624H156.304V274.8H154.576V261.624ZM141.928 252.936H143.68V256.128H141.928V252.936ZM141.928 262.104H143.68V274.872H141.928V262.104ZM149.224 254.808L151.432 255.48C151.416 255.656 151.256 255.768 150.952 255.816V263.232C150.952 264.128 150.904 265.088 150.808 266.112C150.728 267.136 150.56 268.176 150.304 269.232C150.048 270.272 149.664 271.288 149.152 272.28C148.64 273.272 147.968 274.184 147.136 275.016C147.056 274.888 146.936 274.744 146.776 274.584C146.632 274.424 146.472 274.264 146.296 274.104C146.136 273.96 145.984 273.856 145.84 273.792C146.608 273.04 147.216 272.224 147.664 271.344C148.128 270.464 148.464 269.56 148.672 268.632C148.896 267.704 149.04 266.784 149.104 265.872C149.184 264.944 149.224 264.056 149.224 263.208V254.808ZM157.264 253.104L158.728 254.424C157.976 254.76 157.12 255.08 156.16 255.384C155.2 255.672 154.208 255.936 153.184 256.176C152.176 256.4 151.192 256.6 150.232 256.776C150.184 256.584 150.104 256.352 149.992 256.08C149.88 255.792 149.768 255.56 149.656 255.384C150.552 255.192 151.472 254.976 152.416 254.736C153.376 254.496 154.28 254.24 155.128 253.968C155.976 253.68 156.688 253.392 157.264 253.104ZM143.488 266.88C143.68 267.008 143.96 267.224 144.328 267.528C144.712 267.816 145.12 268.136 145.552 268.488C145.984 268.84 146.376 269.168 146.728 269.472C147.08 269.76 147.336 269.968 147.496 270.096L146.416 271.44C146.224 271.216 145.96 270.936 145.624 270.6C145.288 270.264 144.92 269.912 144.52 269.544C144.136 269.16 143.76 268.808 143.392 268.488C143.04 268.152 142.752 267.896 142.528 267.72L143.488 266.88ZM138.904 257.328L140.344 256.992C140.584 257.52 140.8 258.104 140.992 258.744C141.184 259.384 141.312 259.936 141.376 260.4L139.84 260.808C139.808 260.328 139.704 259.768 139.528 259.128C139.352 258.472 139.144 257.872 138.904 257.328ZM145.072 256.944L146.704 257.304C146.48 257.912 146.248 258.528 146.008 259.152C145.768 259.776 145.536 260.312 145.312 260.76L143.848 260.4C143.992 260.08 144.136 259.72 144.28 259.32C144.44 258.92 144.592 258.512 144.736 258.096C144.88 257.664 144.992 257.28 145.072 256.944ZM141.928 265.68L143.224 266.184C142.824 267.048 142.328 267.928 141.736 268.824C141.144 269.704 140.512 270.528 139.84 271.296C139.184 272.048 138.536 272.672 137.896 273.168C137.752 272.96 137.56 272.736 137.32 272.496C137.096 272.24 136.88 272.032 136.672 271.872C137.328 271.456 137.984 270.912 138.64 270.24C139.312 269.568 139.936 268.832 140.512 268.032C141.088 267.232 141.56 266.448 141.928 265.68ZM161.056 258.72H167.488V260.424H161.056V258.72ZM163.6 253.176H165.352V268.896H163.6V253.176ZM160.672 269.304C161.28 269.064 161.984 268.792 162.784 268.488C163.584 268.168 164.424 267.824 165.304 267.456C166.2 267.088 167.088 266.72 167.968 266.352L168.4 267.984C167.168 268.528 165.928 269.072 164.68 269.616C163.448 270.16 162.328 270.648 161.32 271.08L160.672 269.304ZM170.032 266.16H180.64V274.848H178.864V267.552H171.736V274.92H170.032V266.16ZM170.944 272.616H180.016V274.008H170.944V272.616ZM170.896 269.424H179.896V270.696H170.896V269.424ZM174.52 258.672H175.888V264.072H174.52V258.672ZM170.32 259.368V263.424H180.232V259.368H170.32ZM168.88 258H181.768V264.816H168.88V258ZM171.232 260.232L172.336 259.92C172.576 260.336 172.792 260.8 172.984 261.312C173.176 261.824 173.312 262.264 173.392 262.632L172.24 263.016C172.16 262.648 172.024 262.2 171.832 261.672C171.64 261.144 171.44 260.664 171.232 260.232ZM177.88 259.896L179.152 260.304C178.928 260.784 178.696 261.264 178.456 261.744C178.232 262.224 178.008 262.648 177.784 263.016L176.824 262.656C177 262.256 177.192 261.792 177.4 261.264C177.624 260.736 177.784 260.28 177.88 259.896ZM173.272 253.464H178.168V255.048H173.272V253.464ZM171.256 254.136L172.864 254.616C172.304 255.688 171.608 256.728 170.776 257.736C169.944 258.744 169.104 259.592 168.256 260.28C168.176 260.168 168.056 260.032 167.896 259.872C167.752 259.712 167.6 259.552 167.44 259.392C167.296 259.232 167.16 259.104 167.032 259.008C167.848 258.416 168.632 257.688 169.384 256.824C170.152 255.96 170.776 255.064 171.256 254.136ZM176.704 253.464H178.504C178.888 254.136 179.352 254.8 179.896 255.456C180.456 256.112 181.048 256.72 181.672 257.28C182.296 257.824 182.904 258.272 183.496 258.624C183.368 258.736 183.232 258.872 183.088 259.032C182.944 259.192 182.8 259.36 182.656 259.536C182.528 259.712 182.416 259.872 182.32 260.016C181.696 259.568 181.064 259.04 180.424 258.432C179.8 257.824 179.2 257.176 178.624 256.488C178.064 255.784 177.576 255.08 177.16 254.376H176.704V253.464ZM194.536 264.264H205.816V265.656H194.536V264.264ZM193.144 253.896H207.04V255.384H193.144V253.896ZM193.024 267.384H207.04V268.896H193.024V267.384ZM202.552 270.336L203.824 269.496C204.24 269.864 204.664 270.264 205.096 270.696C205.528 271.128 205.928 271.56 206.296 271.992C206.68 272.408 206.984 272.792 207.208 273.144L205.864 274.104C205.656 273.768 205.368 273.384 205 272.952C204.632 272.504 204.232 272.056 203.8 271.608C203.368 271.144 202.952 270.72 202.552 270.336ZM195.424 258.48V261.432H204.856V258.48H195.424ZM193.912 257.064H206.44V262.824H193.912V257.064ZM199.144 268.056H200.824V273.144C200.824 273.544 200.776 273.864 200.68 274.104C200.584 274.36 200.376 274.552 200.056 274.68C199.736 274.792 199.328 274.864 198.832 274.896C198.336 274.928 197.712 274.944 196.96 274.944C196.928 274.72 196.856 274.464 196.744 274.176C196.632 273.904 196.52 273.656 196.408 273.432C197 273.448 197.504 273.456 197.92 273.456C198.336 273.472 198.616 273.472 198.76 273.456C198.92 273.44 199.024 273.408 199.072 273.36C199.12 273.312 199.144 273.232 199.144 273.12V268.056ZM195.808 269.424L197.176 270.192C196.712 270.912 196.128 271.616 195.424 272.304C194.72 272.992 194 273.584 193.264 274.08C193.136 273.92 192.96 273.736 192.736 273.528C192.528 273.32 192.328 273.144 192.136 273C192.84 272.536 193.528 271.976 194.2 271.32C194.872 270.664 195.408 270.032 195.808 269.424ZM197.464 254.736H198.928V257.928H197.464V254.736ZM197.584 257.688H198.904V262.248H197.584V257.688ZM201.136 254.736H202.624V257.928H201.136V254.736ZM201.136 257.688H202.48V262.248H201.136V257.688ZM185.248 258.048H192.976V259.728H185.248V258.048ZM188.608 252.84H190.264V274.896H188.608V252.84ZM188.56 259.056L189.688 259.416C189.496 260.376 189.256 261.368 188.968 262.392C188.696 263.416 188.384 264.424 188.032 265.416C187.68 266.408 187.304 267.328 186.904 268.176C186.504 269.024 186.088 269.752 185.656 270.36C185.576 270.12 185.44 269.856 185.248 269.568C185.056 269.264 184.888 269.008 184.744 268.8C185.144 268.256 185.536 267.608 185.92 266.856C186.304 266.104 186.664 265.288 187 264.408C187.336 263.528 187.64 262.632 187.912 261.72C188.184 260.792 188.4 259.904 188.56 259.056ZM190.144 261.24C190.288 261.4 190.496 261.688 190.768 262.104C191.056 262.504 191.36 262.944 191.68 263.424C192.016 263.904 192.32 264.352 192.592 264.768C192.864 265.168 193.048 265.456 193.144 265.632L192.16 266.976C192.016 266.672 191.816 266.288 191.56 265.824C191.32 265.36 191.056 264.88 190.768 264.384C190.48 263.888 190.208 263.432 189.952 263.016C189.696 262.584 189.488 262.248 189.328 262.008L190.144 261.24ZM212.152 258.24V260.064H216.832V258.24H212.152ZM212.152 255.168V256.968H216.832V255.168H212.152ZM210.52 253.848H218.512V261.384H210.52V253.848ZM209.104 263.16H219.928V264.576H209.104V263.16ZM219.784 254.016H230.728V255.384H219.784V254.016ZM213.88 263.592H215.44V272.736L213.88 271.8V263.592ZM214.696 267.144H219.52V268.536H214.696V267.144ZM224.536 254.352L226.216 254.688C225.992 255.296 225.76 255.92 225.52 256.56C225.296 257.2 225.072 257.744 224.848 258.192L223.504 257.88C223.696 257.368 223.888 256.784 224.08 256.128C224.272 255.472 224.424 254.88 224.536 254.352ZM222.352 261.624V263.424H228.064V261.624H222.352ZM222.352 264.696V266.52H228.064V264.696H222.352ZM222.352 258.552V260.352H228.064V258.552H222.352ZM220.696 257.232H229.744V267.864H220.696V257.232ZM222.688 268.272L224.224 268.728C223.696 269.4 223.032 270.056 222.232 270.696C221.448 271.336 220.68 271.864 219.928 272.28C219.848 272.184 219.736 272.064 219.592 271.92C219.448 271.776 219.296 271.632 219.136 271.488C218.992 271.344 218.856 271.24 218.728 271.176C219.48 270.808 220.216 270.376 220.936 269.88C221.656 269.368 222.24 268.832 222.688 268.272ZM210.76 265.872H212.296C212.248 267.04 212.144 268.192 211.984 269.328C211.84 270.448 211.608 271.504 211.288 272.496C210.968 273.472 210.52 274.304 209.944 274.992C209.832 274.8 209.664 274.584 209.44 274.344C209.216 274.12 209.008 273.944 208.816 273.816C209.296 273.24 209.672 272.52 209.944 271.656C210.216 270.776 210.408 269.84 210.52 268.848C210.648 267.856 210.728 266.864 210.76 265.872ZM211.888 268.248C212.32 269.272 212.872 270.096 213.544 270.72C214.216 271.328 215.008 271.792 215.92 272.112C216.848 272.432 217.88 272.648 219.016 272.76C220.152 272.856 221.392 272.904 222.736 272.904C222.96 272.904 223.344 272.904 223.888 272.904C224.432 272.904 225.056 272.904 225.76 272.904C226.48 272.888 227.2 272.88 227.92 272.88C228.656 272.88 229.312 272.88 229.888 272.88C230.464 272.864 230.896 272.856 231.184 272.856C231.072 273.032 230.952 273.272 230.824 273.576C230.696 273.88 230.6 274.152 230.536 274.392H228.904H222.736C221.216 274.392 219.824 274.32 218.56 274.176C217.312 274.048 216.192 273.784 215.2 273.384C214.224 272.984 213.36 272.408 212.608 271.656C211.872 270.888 211.264 269.888 210.784 268.656L211.888 268.248ZM226.048 268.944L227.296 268.224C227.76 268.512 228.224 268.84 228.688 269.208C229.168 269.576 229.616 269.944 230.032 270.312C230.448 270.68 230.784 271.024 231.04 271.344L229.744 272.184C229.488 271.848 229.152 271.488 228.736 271.104C228.32 270.72 227.88 270.336 227.416 269.952C226.952 269.568 226.496 269.232 226.048 268.944Z" fill="#FFC500"/>
<rect x="306" y="258" width="40" height="16" rx="8" fill="#FFAA1E"/>
<circle cx="336" cy="266" r="9.5" fill="#FF9600" stroke="#FF9600"/>
<path d="M55 296.5H72C73.933 296.5 75.5 298.067 75.5 300V322C75.5 323.933 73.933 325.5 72 325.5H55C53.067 325.5 51.5 323.933 51.5 322V300C51.5 298.067 53.067 296.5 55 296.5Z" fill="#FFFEFA"/>
<path d="M55 296.5H72C73.933 296.5 75.5 298.067 75.5 300V322C75.5 323.933 73.933 325.5 72 325.5H55C53.067 325.5 51.5 323.933 51.5 322V300C51.5 298.067 53.067 296.5 55 296.5Z" stroke="#FFAA1E"/>
<path d="M58.964 304.692H68.148V316.396H67.028V305.742H60.042V316.466H58.964V304.692ZM59.692 309.536H67.504V310.572H59.692V309.536ZM59.664 314.506H67.518V315.556H59.664V314.506Z" fill="#FF9600"/>
<path d="M100.833 296.5H117.833C119.766 296.5 121.333 298.067 121.333 300V322C121.333 323.933 119.766 325.5 117.833 325.5H100.833C98.9003 325.5 97.3333 323.933 97.3333 322V300C97.3333 298.067 98.9003 296.5 100.833 296.5Z" fill="#FFFEFA"/>
<path d="M100.833 296.5H117.833C119.766 296.5 121.333 298.067 121.333 300V322C121.333 323.933 119.766 325.5 117.833 325.5H100.833C98.9003 325.5 97.3333 323.933 97.3333 322V300C97.3333 298.067 98.9003 296.5 100.833 296.5Z" stroke="#FFAA1E"/>
<path d="M102.949 309.466H115.773V310.614H102.949V309.466Z" fill="#FF9600"/>
<path d="M146.667 296.5H163.667C165.6 296.5 167.167 298.067 167.167 300V322C167.167 323.933 165.6 325.5 163.667 325.5H146.667C144.734 325.5 143.167 323.933 143.167 322V300C143.167 298.067 144.734 296.5 146.667 296.5Z" fill="#FFFEFA"/>
<path d="M146.667 296.5H163.667C165.6 296.5 167.167 298.067 167.167 300V322C167.167 323.933 165.6 325.5 163.667 325.5H146.667C144.734 325.5 143.167 323.933 143.167 322V300C143.167 298.067 144.734 296.5 146.667 296.5Z" stroke="#FFAA1E"/>
<path d="M150.141 305.742H160.207V306.876H150.141V305.742ZM148.965 314.044H161.397V315.22H148.965V314.044Z" fill="#FF9600"/>
<path d="M192.5 296.5H209.5C211.433 296.5 213 298.067 213 300V322C213 323.933 211.433 325.5 209.5 325.5H192.5C190.567 325.5 189 323.933 189 322V300C189 298.067 190.567 296.5 192.5 296.5Z" fill="#FFFEFA"/>
<path d="M192.5 296.5H209.5C211.433 296.5 213 298.067 213 300V322C213 323.933 211.433 325.5 209.5 325.5H192.5C190.567 325.5 189 323.933 189 322V300C189 298.067 190.567 296.5 192.5 296.5Z" stroke="#FFAA1E"/>
<path d="M195.722 305.098H206.306V306.162H195.722V305.098ZM196.618 309.676H205.214V310.726H196.618V309.676ZM194.91 314.534H207.076V315.598H194.91V314.534Z" fill="#FF9600"/>
<path d="M238.333 296.5H255.333C257.266 296.5 258.833 298.067 258.833 300V322C258.833 323.933 257.266 325.5 255.333 325.5H238.333C236.4 325.5 234.833 323.933 234.833 322V300C234.833 298.067 236.4 296.5 238.333 296.5Z" fill="#FFFEFA"/>
<path d="M238.333 296.5H255.333C257.266 296.5 258.833 298.067 258.833 300V322C258.833 323.933 257.266 325.5 255.333 325.5H238.333C236.4 325.5 234.833 323.933 234.833 322V300C234.833 298.067 236.4 296.5 238.333 296.5Z" stroke="#FFAA1E"/>
<path d="M241.093 305.028H252.615V316.102H251.523V306.036H242.157V316.214H241.093V305.028ZM241.653 314.198H252.111V315.22H241.653V314.198ZM247.645 305.7H248.667V310.152C248.667 310.441 248.705 310.605 248.779 310.642C248.863 310.679 248.989 310.698 249.157 310.698C249.223 310.698 249.321 310.698 249.451 310.698C249.591 310.698 249.708 310.698 249.801 310.698C249.895 310.698 249.983 310.693 250.067 310.684C250.161 310.675 250.231 310.665 250.277 310.656C250.324 310.628 250.366 310.591 250.403 310.544C250.441 310.488 250.469 310.409 250.487 310.306C250.515 310.203 250.529 310.04 250.529 309.816C250.539 309.592 250.548 309.326 250.557 309.018C250.66 309.102 250.786 309.186 250.935 309.27C251.094 309.345 251.239 309.405 251.369 309.452C251.36 309.741 251.341 310.031 251.313 310.32C251.295 310.609 251.262 310.819 251.215 310.95C251.169 311.071 251.103 311.174 251.019 311.258C250.945 311.333 250.851 311.398 250.739 311.454C250.637 311.501 250.501 311.533 250.333 311.552C250.175 311.571 250.021 311.58 249.871 311.58C249.806 311.58 249.708 311.58 249.577 311.58C249.456 311.58 249.33 311.58 249.199 311.58C249.078 311.58 248.985 311.58 248.919 311.58C248.761 311.58 248.593 311.561 248.415 311.524C248.247 311.487 248.107 311.421 247.995 311.328C247.865 311.244 247.771 311.118 247.715 310.95C247.669 310.782 247.645 310.488 247.645 310.068V305.7ZM244.789 305.658H245.811C245.765 306.703 245.667 307.66 245.517 308.528C245.377 309.387 245.116 310.147 244.733 310.81C244.351 311.473 243.781 312.023 243.025 312.462C242.969 312.341 242.871 312.205 242.731 312.056C242.601 311.907 242.479 311.785 242.367 311.692C243.039 311.309 243.543 310.829 243.879 310.25C244.215 309.662 244.439 308.985 244.551 308.22C244.673 307.445 244.752 306.591 244.789 305.658Z" fill="#FF9600"/>
<path d="M284.167 296.5H301.167C303.1 296.5 304.667 298.067 304.667 300V322C304.667 323.933 303.1 325.5 301.167 325.5H284.167C282.234 325.5 280.667 323.933 280.667 322V300C280.667 298.067 282.234 296.5 284.167 296.5Z" fill="#FFFEFA"/>
<path d="M284.167 296.5H301.167C303.1 296.5 304.667 298.067 304.667 300V322C304.667 323.933 303.1 325.5 301.167 325.5H284.167C282.234 325.5 280.667 323.933 280.667 322V300C280.667 298.067 282.234 296.5 284.167 296.5Z" stroke="#FFAA1E"/>
<path d="M287.347 305.098H297.917V306.134H287.347V305.098ZM286.451 314.814H298.911V315.85H286.451V314.814ZM291.435 305.462H292.611C292.471 306.265 292.317 307.119 292.149 308.024C291.981 308.929 291.808 309.835 291.631 310.74C291.453 311.645 291.276 312.504 291.099 313.316C290.921 314.128 290.758 314.837 290.609 315.444H289.433C289.601 314.819 289.773 314.095 289.951 313.274C290.137 312.453 290.319 311.589 290.497 310.684C290.683 309.779 290.856 308.878 291.015 307.982C291.183 307.086 291.323 306.246 291.435 305.462ZM287.893 309.228H296.587V315.29H295.509V310.25H287.893V309.228Z" fill="#FF9600"/>
<path d="M330 296.5H347C348.933 296.5 350.5 298.067 350.5 300V322C350.5 323.933 348.933 325.5 347 325.5H330C328.067 325.5 326.5 323.933 326.5 322V300C326.5 298.067 328.067 296.5 330 296.5Z" fill="#FFFEFA"/>
<path d="M330 296.5H347C348.933 296.5 350.5 298.067 350.5 300V322C350.5 323.933 348.933 325.5 347 325.5H330C328.067 325.5 326.5 323.933 326.5 322V300C326.5 298.067 328.067 296.5 330 296.5Z" stroke="#FFAA1E"/>
<path d="M332.354 307.044H344.66V308.122H332.354V307.044ZM337.898 303.81H339.018V307.604H337.898V303.81ZM335.588 310.054L336.764 310.362C336.475 311.137 336.129 311.902 335.728 312.658C335.336 313.405 334.921 314.109 334.482 314.772C334.043 315.425 333.591 315.999 333.124 316.494C333.049 316.429 332.947 316.349 332.816 316.256C332.695 316.163 332.569 316.069 332.438 315.976C332.307 315.892 332.195 315.822 332.102 315.766C332.569 315.309 333.017 314.772 333.446 314.156C333.885 313.54 334.286 312.882 334.65 312.182C335.014 311.482 335.327 310.773 335.588 310.054ZM340.166 310.502L341.202 310.082C341.538 310.539 341.879 311.029 342.224 311.552C342.569 312.065 342.901 312.588 343.218 313.12C343.535 313.643 343.82 314.151 344.072 314.646C344.324 315.131 344.529 315.575 344.688 315.976L343.526 316.48C343.395 316.088 343.204 315.649 342.952 315.164C342.709 314.669 342.434 314.151 342.126 313.61C341.827 313.069 341.51 312.532 341.174 312C340.838 311.468 340.502 310.969 340.166 310.502Z" fill="#FF9600"/>
<path d="M65.6364 342H56.3636C53.9537 342 52 343.954 52 346.364V355.636C52 358.046 53.9537 360 56.3636 360H65.6364C68.0463 360 70 358.046 70 355.636V346.364C70 343.954 68.0463 342 65.6364 342Z" stroke="#FFC500" stroke-linecap="round" stroke-linejoin="round"/>
<path d="M111.342 347.06H120.54V348.266H111.342V347.06ZM109.974 355.304H123.276V356.51H109.974V355.304ZM107.274 351.074H123.762V352.298H107.274V351.074ZM110.874 344.198H122.88V345.422H110.874V344.198ZM120.126 347.06H121.458C121.458 347.06 121.458 347.102 121.458 347.186C121.458 347.27 121.452 347.366 121.44 347.474C121.44 347.57 121.44 347.654 121.44 347.726C121.344 349.55 121.248 351.092 121.152 352.352C121.056 353.612 120.948 354.644 120.828 355.448C120.72 356.252 120.594 356.876 120.45 357.32C120.318 357.764 120.168 358.088 120 358.292C119.808 358.52 119.604 358.676 119.388 358.76C119.184 358.856 118.932 358.922 118.632 358.958C118.356 358.97 117.99 358.97 117.534 358.958C117.078 358.958 116.598 358.94 116.094 358.904C116.082 358.748 116.052 358.568 116.004 358.364C115.956 358.172 115.878 357.998 115.77 357.842C116.286 357.89 116.748 357.92 117.156 357.932C117.576 357.944 117.888 357.95 118.092 357.95C118.26 357.95 118.398 357.932 118.506 357.896C118.614 357.86 118.716 357.788 118.812 357.68C118.956 357.524 119.088 357.23 119.208 356.798C119.34 356.354 119.46 355.73 119.568 354.926C119.676 354.122 119.778 353.102 119.874 351.866C119.97 350.618 120.054 349.112 120.126 347.348V347.06ZM110.784 347.06H112.134C112.026 347.9 111.9 348.8 111.756 349.76C111.612 350.708 111.462 351.662 111.306 352.622C111.15 353.582 111 354.494 110.856 355.358C110.712 356.21 110.574 356.966 110.442 357.626L109.074 357.536C109.218 356.864 109.368 356.102 109.524 355.25C109.68 354.386 109.836 353.48 109.992 352.532C110.148 351.584 110.292 350.642 110.424 349.706C110.568 348.758 110.688 347.876 110.784 347.06ZM115.338 347.654H116.616C116.544 348.314 116.466 349.028 116.382 349.796C116.31 350.552 116.226 351.308 116.13 352.064C116.034 352.82 115.938 353.54 115.842 354.224C115.758 354.908 115.674 355.502 115.59 356.006H114.33C114.426 355.49 114.522 354.89 114.618 354.206C114.714 353.51 114.804 352.784 114.888 352.028C114.984 351.26 115.068 350.504 115.14 349.76C115.224 349.004 115.29 348.302 115.338 347.654ZM111.558 342.38L112.998 342.614C112.698 343.274 112.344 343.952 111.936 344.648C111.54 345.344 111.078 346.028 110.55 346.7C110.022 347.36 109.428 347.99 108.768 348.59C108.684 348.482 108.576 348.38 108.444 348.284C108.312 348.176 108.174 348.074 108.03 347.978C107.898 347.882 107.772 347.81 107.652 347.762C108.288 347.234 108.858 346.664 109.362 346.052C109.866 345.428 110.298 344.798 110.658 344.162C111.03 343.526 111.33 342.932 111.558 342.38ZM135.696 354.962H136.812V358.58H135.696V354.962ZM133.734 346.466V348.338H138.918V346.466H133.734ZM132.456 345.494H140.286V349.31H132.456V345.494ZM131.43 343.352H141.384V344.486H131.43V343.352ZM133.644 354.71H139.008V355.682H133.644V354.71ZM131.304 350.372H140.718V351.452H132.528V358.94H131.304V350.372ZM140.052 350.372H141.294V357.554C141.294 357.854 141.258 358.094 141.186 358.274C141.114 358.454 140.97 358.598 140.754 358.706C140.538 358.802 140.262 358.856 139.926 358.868C139.59 358.892 139.17 358.904 138.666 358.904C138.642 358.748 138.588 358.562 138.504 358.346C138.432 358.13 138.354 357.938 138.27 357.77C138.618 357.782 138.93 357.788 139.206 357.788C139.494 357.788 139.686 357.788 139.782 357.788C139.962 357.788 140.052 357.704 140.052 357.536V350.372ZM136.884 350.732H137.784V352.658C137.784 352.802 137.808 352.892 137.856 352.928C137.916 352.964 138.048 352.982 138.252 352.982C138.312 352.982 138.438 352.982 138.63 352.982C138.822 352.982 139.02 352.982 139.224 352.982C139.428 352.982 139.566 352.982 139.638 352.982C139.782 352.982 139.878 352.976 139.926 352.964C139.974 352.952 140.004 352.934 140.016 352.91C140.1 352.982 140.22 353.048 140.376 353.108C140.532 353.156 140.682 353.198 140.826 353.234C140.778 353.45 140.676 353.606 140.52 353.702C140.364 353.786 140.124 353.828 139.8 353.828C139.752 353.828 139.65 353.828 139.494 353.828C139.338 353.828 139.164 353.828 138.972 353.828C138.792 353.828 138.624 353.828 138.468 353.828C138.312 353.828 138.21 353.828 138.162 353.828C137.658 353.828 137.316 353.75 137.136 353.594C136.968 353.438 136.884 353.126 136.884 352.658V350.732ZM134.724 350.858H135.66C135.624 351.47 135.522 352.004 135.354 352.46C135.198 352.904 134.946 353.282 134.598 353.594C134.25 353.894 133.764 354.146 133.14 354.35C133.092 354.23 133.014 354.098 132.906 353.954C132.798 353.81 132.696 353.702 132.6 353.63C133.128 353.474 133.536 353.282 133.824 353.054C134.124 352.814 134.34 352.514 134.472 352.154C134.604 351.794 134.688 351.362 134.724 350.858ZM125.94 343.154H129.882V344.378H127.128V358.94H125.94V343.154ZM129.558 343.154H129.792L129.99 343.1L130.854 343.622C130.698 344.114 130.524 344.636 130.332 345.188C130.152 345.74 129.96 346.292 129.756 346.844C129.564 347.396 129.372 347.918 129.18 348.41C129.792 349.154 130.194 349.85 130.386 350.498C130.59 351.146 130.692 351.752 130.692 352.316C130.704 352.784 130.65 353.204 130.53 353.576C130.422 353.936 130.248 354.206 130.008 354.386C129.78 354.542 129.48 354.644 129.108 354.692C128.952 354.704 128.772 354.716 128.568 354.728C128.376 354.74 128.184 354.74 127.992 354.728C127.992 354.56 127.962 354.362 127.902 354.134C127.854 353.906 127.782 353.708 127.686 353.54C127.866 353.552 128.034 353.564 128.19 353.576C128.358 353.576 128.502 353.57 128.622 353.558C128.85 353.558 129.03 353.51 129.162 353.414C129.282 353.306 129.366 353.138 129.414 352.91C129.474 352.682 129.504 352.436 129.504 352.172C129.492 351.68 129.384 351.134 129.18 350.534C128.988 349.922 128.592 349.262 127.992 348.554C128.136 348.146 128.28 347.714 128.424 347.258C128.58 346.79 128.724 346.334 128.856 345.89C129 345.434 129.132 345.002 129.252 344.594C129.372 344.186 129.474 343.832 129.558 343.532V343.154Z" fill="#FFC500"/>
<path d="M184.74 357.5H183.192V348.518C183.192 348.17 183.192 347.876 183.192 347.636C183.204 347.396 183.216 347.174 183.228 346.97C183.24 346.754 183.252 346.532 183.264 346.304C183.072 346.496 182.898 346.658 182.742 346.79C182.586 346.922 182.388 347.09 182.148 347.294L180.78 348.41L179.952 347.348L183.426 344.648H184.74V357.5Z" fill="#FFC500"/>
<rect x="224.5" y="336" width="30" height="30" rx="5" fill="#FFFEFA"/>
<path d="M240.238 349.886C240.598 351.23 241.102 352.43 241.75 353.486C242.41 354.53 243.244 355.412 244.252 356.132C245.272 356.84 246.478 357.368 247.87 357.716C247.774 357.812 247.666 357.932 247.546 358.076C247.426 358.22 247.312 358.37 247.204 358.526C247.108 358.694 247.024 358.844 246.952 358.976C245.488 358.556 244.234 357.95 243.19 357.158C242.158 356.366 241.294 355.388 240.598 354.224C239.914 353.048 239.362 351.698 238.942 350.174L240.238 349.886ZM232.138 349.364H246.952V350.75H232.138V349.364ZM231.58 343.766H247.402V345.152H231.58V343.766ZM238.654 344.144H240.094V348.356C240.094 349.112 240.04 349.886 239.932 350.678C239.836 351.458 239.638 352.238 239.338 353.018C239.038 353.786 238.594 354.53 238.006 355.25C237.418 355.97 236.638 356.648 235.666 357.284C234.706 357.92 233.506 358.484 232.066 358.976C232.018 358.868 231.946 358.736 231.85 358.58C231.754 358.436 231.646 358.292 231.526 358.148C231.418 358.004 231.322 357.89 231.238 357.806C232.582 357.338 233.704 356.822 234.604 356.258C235.504 355.682 236.224 355.076 236.764 354.44C237.304 353.792 237.712 353.126 237.988 352.442C238.264 351.758 238.444 351.068 238.528 350.372C238.612 349.676 238.654 349.004 238.654 348.356V344.144Z" fill="#FFC500"/>
<path d="M301.788 357.5H300.24V348.518C300.24 348.17 300.24 347.876 300.24 347.636C300.252 347.396 300.264 347.174 300.276 346.97C300.288 346.754 300.3 346.532 300.312 346.304C300.12 346.496 299.946 346.658 299.79 346.79C299.634 346.922 299.436 347.09 299.196 347.294L297.828 348.41L297 347.348L300.474 344.648H301.788V357.5ZM315.059 357.5H306.563V356.186L309.929 352.784C310.577 352.136 311.123 351.56 311.567 351.056C312.011 350.552 312.347 350.06 312.575 349.58C312.803 349.088 312.917 348.554 312.917 347.978C312.917 347.27 312.707 346.736 312.287 346.376C311.867 346.004 311.321 345.818 310.649 345.818C310.025 345.818 309.473 345.926 308.993 346.142C308.525 346.358 308.045 346.658 307.553 347.042L306.707 345.98C307.043 345.692 307.409 345.434 307.805 345.206C308.213 344.978 308.651 344.798 309.119 344.666C309.599 344.534 310.109 344.468 310.649 344.468C311.453 344.468 312.143 344.606 312.719 344.882C313.295 345.158 313.739 345.554 314.051 346.07C314.375 346.574 314.537 347.18 314.537 347.888C314.537 348.56 314.399 349.19 314.123 349.778C313.847 350.366 313.463 350.948 312.971 351.524C312.479 352.088 311.903 352.694 311.243 353.342L308.561 355.988V356.06H315.059V357.5ZM320.5 350.426C320.176 350.426 319.894 350.318 319.654 350.102C319.414 349.874 319.294 349.574 319.294 349.202C319.294 348.83 319.414 348.524 319.654 348.284C319.894 348.044 320.176 347.924 320.5 347.924C320.824 347.924 321.106 348.044 321.346 348.284C321.586 348.524 321.706 348.83 321.706 349.202C321.706 349.574 321.586 349.874 321.346 350.102C321.106 350.318 320.824 350.426 320.5 350.426ZM320.5 357.716C320.176 357.716 319.894 357.608 319.654 357.392C319.414 357.164 319.294 356.864 319.294 356.492C319.294 356.108 319.414 355.802 319.654 355.574C319.894 355.334 320.176 355.214 320.5 355.214C320.824 355.214 321.106 355.334 321.346 355.574C321.586 355.802 321.706 356.108 321.706 356.492C321.706 356.864 321.586 357.164 321.346 357.392C321.106 357.608 320.824 357.716 320.5 357.716ZM334.414 351.056C334.414 352.1 334.336 353.03 334.18 353.846C334.024 354.662 333.772 355.358 333.424 355.934C333.088 356.498 332.644 356.93 332.092 357.23C331.552 357.53 330.898 357.68 330.13 357.68C329.17 357.68 328.372 357.416 327.736 356.888C327.112 356.36 326.644 355.604 326.332 354.62C326.032 353.624 325.882 352.436 325.882 351.056C325.882 349.664 326.02 348.476 326.296 347.492C326.584 346.508 327.04 345.758 327.664 345.242C328.288 344.714 329.11 344.45 330.13 344.45C331.09 344.45 331.888 344.714 332.524 345.242C333.16 345.758 333.634 346.508 333.946 347.492C334.258 348.476 334.414 349.664 334.414 351.056ZM327.466 351.056C327.466 352.232 327.55 353.21 327.718 353.99C327.898 354.77 328.18 355.358 328.564 355.754C328.96 356.138 329.482 356.33 330.13 356.33C330.778 356.33 331.294 356.138 331.678 355.754C332.074 355.37 332.362 354.788 332.542 354.008C332.722 353.216 332.812 352.232 332.812 351.056C332.812 349.88 332.722 348.908 332.542 348.14C332.362 347.36 332.074 346.778 331.678 346.394C331.294 345.998 330.778 345.8 330.13 345.8C329.482 345.8 328.96 345.998 328.564 346.394C328.18 346.778 327.898 347.36 327.718 348.14C327.55 348.908 327.466 349.88 327.466 351.056ZM344.715 351.056C344.715 352.1 344.637 353.03 344.481 353.846C344.325 354.662 344.073 355.358 343.725 355.934C343.389 356.498 342.945 356.93 342.393 357.23C341.853 357.53 341.199 357.68 340.431 357.68C339.471 357.68 338.673 357.416 338.037 356.888C337.413 356.36 336.945 355.604 336.633 354.62C336.333 353.624 336.183 352.436 336.183 351.056C336.183 349.664 336.321 348.476 336.597 347.492C336.885 346.508 337.341 345.758 337.965 345.242C338.589 344.714 339.411 344.45 340.431 344.45C341.391 344.45 342.189 344.714 342.825 345.242C343.461 345.758 343.935 346.508 344.247 347.492C344.559 348.476 344.715 349.664 344.715 351.056ZM337.767 351.056C337.767 352.232 337.851 353.21 338.019 353.99C338.199 354.77 338.481 355.358 338.865 355.754C339.261 356.138 339.783 356.33 340.431 356.33C341.079 356.33 341.595 356.138 341.979 355.754C342.375 355.37 342.663 354.788 342.843 354.008C343.023 353.216 343.113 352.232 343.113 351.056C343.113 349.88 343.023 348.908 342.843 348.14C342.663 347.36 342.375 346.778 341.979 346.394C341.595 345.998 341.079 345.8 340.431 345.8C339.783 345.8 339.261 345.998 338.865 346.394C338.481 346.778 338.199 347.36 338.019 348.14C337.851 348.908 337.767 349.88 337.767 351.056Z" fill="#FFC500"/>
<path d="M92.36 397.5H83.864V396.186L87.23 392.784C87.878 392.136 88.424 391.56 88.868 391.056C89.312 390.552 89.648 390.06 89.876 389.58C90.104 389.088 90.218 388.554 90.218 387.978C90.218 387.27 90.008 386.736 89.588 386.376C89.168 386.004 88.622 385.818 87.95 385.818C87.326 385.818 86.774 385.926 86.294 386.142C85.826 386.358 85.346 386.658 84.854 387.042L84.008 385.98C84.344 385.692 84.71 385.434 85.106 385.206C85.514 384.978 85.952 384.798 86.42 384.666C86.9 384.534 87.41 384.468 87.95 384.468C88.754 384.468 89.444 384.606 90.02 384.882C90.596 385.158 91.04 385.554 91.352 386.07C91.676 386.574 91.838 387.18 91.838 387.888C91.838 388.392 91.76 388.872 91.604 389.328C91.448 389.772 91.226 390.21 90.938 390.642C90.65 391.074 90.302 391.512 89.894 391.956C89.486 392.4 89.036 392.862 88.544 393.342L85.862 395.988V396.06H92.36V397.5ZM102.715 391.056C102.715 392.1 102.637 393.03 102.481 393.846C102.325 394.662 102.073 395.358 101.725 395.934C101.389 396.498 100.945 396.93 100.393 397.23C99.8528 397.53 99.1988 397.68 98.4308 397.68C97.4708 397.68 96.6728 397.416 96.0368 396.888C95.4128 396.36 94.9448 395.604 94.6328 394.62C94.3328 393.624 94.1828 392.436 94.1828 391.056C94.1828 389.664 94.3208 388.476 94.5968 387.492C94.8848 386.508 95.3408 385.758 95.9648 385.242C96.5888 384.714 97.4108 384.45 98.4308 384.45C99.3908 384.45 100.189 384.714 100.825 385.242C101.461 385.758 101.935 386.508 102.247 387.492C102.559 388.476 102.715 389.664 102.715 391.056ZM95.7668 391.056C95.7668 392.232 95.8508 393.21 96.0188 393.99C96.1988 394.77 96.4808 395.358 96.8648 395.754C97.2608 396.138 97.7828 396.33 98.4308 396.33C99.0788 396.33 99.5948 396.138 99.9788 395.754C100.375 395.37 100.663 394.788 100.843 394.008C101.023 393.216 101.113 392.232 101.113 391.056C101.113 389.88 101.023 388.908 100.843 388.14C100.663 387.36 100.375 386.778 99.9788 386.394C99.5948 385.998 99.0788 385.8 98.4308 385.8C97.7828 385.8 97.2608 385.998 96.8648 386.394C96.4808 386.778 96.1988 387.36 96.0188 388.14C95.8508 388.908 95.7668 389.88 95.7668 391.056ZM112.962 397.5H104.466V396.186L107.832 392.784C108.48 392.136 109.026 391.56 109.47 391.056C109.914 390.552 110.25 390.06 110.478 389.58C110.706 389.088 110.82 388.554 110.82 387.978C110.82 387.27 110.61 386.736 110.19 386.376C109.77 386.004 109.224 385.818 108.552 385.818C107.928 385.818 107.376 385.926 106.896 386.142C106.428 386.358 105.948 386.658 105.456 387.042L104.61 385.98C104.946 385.692 105.312 385.434 105.708 385.206C106.116 384.978 106.554 384.798 107.022 384.666C107.502 384.534 108.012 384.468 108.552 384.468C109.356 384.468 110.046 384.606 110.622 384.882C111.198 385.158 111.642 385.554 111.954 386.07C112.278 386.574 112.44 387.18 112.44 387.888C112.44 388.392 112.362 388.872 112.206 389.328C112.05 389.772 111.828 390.21 111.54 390.642C111.252 391.074 110.904 391.512 110.496 391.956C110.088 392.4 109.638 392.862 109.146 393.342L106.464 395.988V396.06H112.962V397.5ZM118.852 389.616C119.728 389.616 120.49 389.766 121.138 390.066C121.786 390.366 122.284 390.798 122.632 391.362C122.992 391.914 123.172 392.592 123.172 393.396C123.172 394.284 122.98 395.052 122.596 395.7C122.212 396.336 121.66 396.828 120.94 397.176C120.232 397.512 119.374 397.68 118.366 397.68C117.706 397.68 117.082 397.62 116.494 397.5C115.918 397.38 115.432 397.206 115.036 396.978V395.484C115.468 395.748 115.99 395.958 116.602 396.114C117.226 396.258 117.82 396.33 118.384 396.33C119.02 396.33 119.572 396.234 120.04 396.042C120.52 395.838 120.892 395.532 121.156 395.124C121.42 394.704 121.552 394.182 121.552 393.558C121.552 392.718 121.294 392.076 120.778 391.632C120.262 391.176 119.446 390.948 118.33 390.948C117.994 390.948 117.61 390.978 117.178 391.038C116.746 391.098 116.398 391.158 116.134 391.218L115.342 390.714L115.828 384.648H122.272V386.088H117.178L116.872 389.814C117.076 389.778 117.352 389.736 117.7 389.688C118.048 389.64 118.432 389.616 118.852 389.616ZM129.189 382.308L130.557 382.668C130.221 383.544 129.825 384.402 129.369 385.242C128.925 386.07 128.439 386.844 127.911 387.564C127.383 388.272 126.837 388.896 126.273 389.436C126.189 389.364 126.075 389.274 125.931 389.166C125.799 389.046 125.655 388.932 125.499 388.824C125.355 388.716 125.223 388.632 125.103 388.572C125.679 388.068 126.219 387.492 126.723 386.844C127.239 386.184 127.707 385.47 128.127 384.702C128.547 383.922 128.901 383.124 129.189 382.308ZM128.919 384.558H140.529V385.854H128.253L128.919 384.558ZM128.037 388.626H140.115V389.904H129.387V394.152H128.037V388.626ZM125.067 393.486H141.375V394.782H125.067V393.486ZM133.419 385.242H134.805V398.94H133.419V385.242ZM149.327 397.5L154.601 386.088H147.671V384.648H156.293V385.872L151.073 397.5H149.327ZM161.752 383.334H171.13V384.648H161.752V383.334ZM161.752 387.672H171.22V388.95H161.752V387.672ZM161.608 392.01H171.13V393.324H161.608V392.01ZM160.906 383.334H162.274V388.878C162.274 389.658 162.232 390.492 162.148 391.38C162.076 392.268 161.92 393.168 161.68 394.08C161.44 394.98 161.08 395.85 160.6 396.69C160.132 397.53 159.508 398.286 158.728 398.958C158.668 398.862 158.572 398.748 158.44 398.616C158.32 398.484 158.194 398.358 158.062 398.238C157.93 398.13 157.81 398.046 157.702 397.986C158.434 397.338 159.01 396.642 159.43 395.898C159.862 395.142 160.18 394.362 160.384 393.558C160.6 392.754 160.738 391.956 160.798 391.164C160.87 390.36 160.906 389.598 160.906 388.878V383.334ZM170.536 383.334H171.958V396.942C171.958 397.422 171.886 397.788 171.742 398.04C171.598 398.292 171.358 398.478 171.022 398.598C170.674 398.718 170.188 398.79 169.564 398.814C168.94 398.85 168.148 398.868 167.188 398.868C167.164 398.724 167.116 398.568 167.044 398.4C166.984 398.232 166.912 398.058 166.828 397.878C166.756 397.71 166.684 397.566 166.612 397.446C167.116 397.458 167.596 397.47 168.052 397.482C168.52 397.482 168.922 397.482 169.258 397.482C169.606 397.47 169.846 397.464 169.978 397.464C170.194 397.452 170.338 397.41 170.41 397.338C170.494 397.254 170.536 397.116 170.536 396.924V383.334ZM188.729 387.654C188.729 388.23 188.621 388.728 188.405 389.148C188.189 389.568 187.877 389.91 187.469 390.174C187.073 390.438 186.605 390.624 186.065 390.732V390.804C187.097 390.924 187.865 391.248 188.369 391.776C188.873 392.304 189.125 392.994 189.125 393.846C189.125 394.59 188.951 395.256 188.603 395.844C188.255 396.42 187.715 396.87 186.983 397.194C186.263 397.518 185.333 397.68 184.193 397.68C183.521 397.68 182.897 397.626 182.321 397.518C181.745 397.422 181.193 397.242 180.665 396.978V395.502C181.205 395.766 181.787 395.976 182.411 396.132C183.035 396.276 183.635 396.348 184.211 396.348C185.363 396.348 186.191 396.126 186.695 395.682C187.211 395.226 187.469 394.602 187.469 393.81C187.469 393.27 187.325 392.838 187.037 392.514C186.761 392.178 186.353 391.932 185.813 391.776C185.273 391.62 184.625 391.542 183.869 391.542H182.627V390.192H183.887C184.595 390.192 185.183 390.09 185.651 389.886C186.131 389.682 186.491 389.4 186.731 389.04C186.983 388.668 187.109 388.242 187.109 387.762C187.109 387.138 186.899 386.658 186.479 386.322C186.059 385.974 185.489 385.8 184.769 385.8C184.313 385.8 183.899 385.848 183.527 385.944C183.155 386.028 182.807 386.154 182.483 386.322C182.171 386.478 181.853 386.664 181.529 386.88L180.737 385.8C181.049 385.56 181.403 385.338 181.799 385.134C182.207 384.93 182.657 384.768 183.149 384.648C183.641 384.528 184.175 384.468 184.751 384.468C186.095 384.468 187.091 384.768 187.739 385.368C188.399 385.968 188.729 386.73 188.729 387.654ZM199.57 391.056C199.57 392.1 199.492 393.03 199.336 393.846C199.18 394.662 198.928 395.358 198.58 395.934C198.244 396.498 197.8 396.93 197.248 397.23C196.708 397.53 196.054 397.68 195.286 397.68C194.326 397.68 193.528 397.416 192.892 396.888C192.268 396.36 191.8 395.604 191.488 394.62C191.188 393.624 191.038 392.436 191.038 391.056C191.038 389.664 191.176 388.476 191.452 387.492C191.74 386.508 192.196 385.758 192.82 385.242C193.444 384.714 194.266 384.45 195.286 384.45C196.246 384.45 197.044 384.714 197.68 385.242C198.316 385.758 198.79 386.508 199.102 387.492C199.414 388.476 199.57 389.664 199.57 391.056ZM192.622 391.056C192.622 392.232 192.706 393.21 192.874 393.99C193.054 394.77 193.336 395.358 193.72 395.754C194.116 396.138 194.638 396.33 195.286 396.33C195.934 396.33 196.45 396.138 196.834 395.754C197.23 395.37 197.518 394.788 197.698 394.008C197.878 393.216 197.968 392.232 197.968 391.056C197.968 389.88 197.878 388.908 197.698 388.14C197.518 387.36 197.23 386.778 196.834 386.394C196.45 385.998 195.934 385.8 195.286 385.8C194.638 385.8 194.116 385.998 193.72 386.394C193.336 386.778 193.054 387.36 192.874 388.14C192.706 388.908 192.622 389.88 192.622 391.056ZM203.625 383.604H215.433V398.652H213.993V384.954H205.011V398.742H203.625V383.604ZM204.561 389.832H214.605V391.164H204.561V389.832ZM204.525 396.222H214.623V397.572H204.525V396.222ZM239.639 384.648L236.219 397.5H234.581L232.079 389.076C232.007 388.824 231.935 388.566 231.863 388.302C231.791 388.038 231.725 387.786 231.665 387.546C231.605 387.306 231.551 387.102 231.503 386.934C231.467 386.754 231.443 386.622 231.431 386.538C231.419 386.622 231.395 386.754 231.359 386.934C231.335 387.102 231.293 387.306 231.233 387.546C231.173 387.786 231.107 388.044 231.035 388.32C230.975 388.584 230.903 388.854 230.819 389.13L228.389 397.5H226.751L223.349 384.648H225.041L227.039 392.496C227.111 392.772 227.177 393.048 227.237 393.324C227.297 393.588 227.351 393.852 227.399 394.116C227.459 394.368 227.507 394.614 227.543 394.854C227.579 395.094 227.615 395.328 227.651 395.556C227.687 395.316 227.723 395.07 227.759 394.818C227.807 394.566 227.861 394.308 227.921 394.044C227.981 393.768 228.047 393.492 228.119 393.216C228.191 392.94 228.263 392.67 228.335 392.406L230.603 384.648H232.277L234.635 392.46C234.719 392.736 234.797 393.018 234.869 393.306C234.941 393.582 235.007 393.852 235.067 394.116C235.127 394.38 235.175 394.638 235.211 394.89C235.259 395.13 235.301 395.352 235.337 395.556C235.373 395.256 235.421 394.944 235.481 394.62C235.541 394.284 235.613 393.936 235.697 393.576C235.781 393.216 235.871 392.85 235.967 392.478L237.947 384.648H239.639ZM248.795 397.5H241.613V384.648H248.795V386.07H243.233V390.084H248.471V391.488H243.233V396.078H248.795V397.5ZM261.911 390.948C261.911 392.388 261.641 393.594 261.101 394.566C260.573 395.538 259.811 396.27 258.815 396.762C257.819 397.254 256.613 397.5 255.197 397.5H251.615V384.648H255.575C256.871 384.648 257.993 384.888 258.941 385.368C259.889 385.848 260.621 386.556 261.137 387.492C261.653 388.416 261.911 389.568 261.911 390.948ZM260.201 391.002C260.201 389.862 260.009 388.926 259.625 388.194C259.253 387.462 258.701 386.922 257.969 386.574C257.249 386.214 256.373 386.034 255.341 386.034H253.235V396.114H254.981C256.721 396.114 258.023 395.688 258.887 394.836C259.763 393.972 260.201 392.694 260.201 391.002Z" fill="#FFC500"/>
<path d="M298.393 386.607L309 397.213L319.607 386.607" stroke="#FFC500" stroke-linecap="round" stroke-linejoin="round"/>
<path d="M59.478 413.524H60.738V417.736H59.478V413.524ZM64.122 413.524H65.4V417.736H64.122V413.524ZM62.916 421.264H64.014V429.85H62.916V421.264ZM56.544 415.072H68.226V416.26H56.544V415.072ZM59.892 423.496H67.056V424.45H59.892V423.496ZM59.892 425.998H67.056V426.952H59.892V425.998ZM57.462 418.366H68.316V419.554H57.462V418.366ZM56.868 418.366H58.11V422.254C58.11 422.818 58.092 423.436 58.056 424.108C58.02 424.768 57.942 425.446 57.822 426.142C57.702 426.826 57.528 427.492 57.3 428.14C57.084 428.788 56.802 429.388 56.454 429.94C56.382 429.856 56.28 429.76 56.148 429.652C56.028 429.544 55.902 429.436 55.77 429.328C55.65 429.232 55.542 429.16 55.446 429.112C55.878 428.428 56.19 427.684 56.382 426.88C56.586 426.076 56.718 425.272 56.778 424.468C56.838 423.664 56.868 422.92 56.868 422.236V418.366ZM59.208 420.886H67.218V421.93H60.378V429.94H59.208V420.886ZM66.678 420.886H67.848V428.626C67.848 428.926 67.812 429.16 67.74 429.328C67.668 429.508 67.53 429.646 67.326 429.742C67.11 429.838 66.822 429.898 66.462 429.922C66.114 429.946 65.67 429.952 65.13 429.94C65.118 429.796 65.076 429.622 65.004 429.418C64.944 429.214 64.872 429.034 64.788 428.878C65.172 428.89 65.514 428.896 65.814 428.896C66.114 428.896 66.312 428.89 66.408 428.878C66.588 428.878 66.678 428.788 66.678 428.608V420.886ZM55.194 413.47L56.436 413.812C56.1 414.856 55.698 415.888 55.23 416.908C54.774 417.928 54.276 418.894 53.736 419.806C53.196 420.706 52.626 421.504 52.026 422.2C51.99 422.092 51.93 421.954 51.846 421.786C51.762 421.606 51.672 421.432 51.576 421.264C51.48 421.084 51.396 420.94 51.324 420.832C51.852 420.22 52.356 419.524 52.836 418.744C53.316 417.952 53.754 417.106 54.15 416.206C54.558 415.306 54.906 414.394 55.194 413.47ZM53.736 417.88L54.996 416.638L55.032 416.674V429.94H53.736V417.88ZM70.854 414.028H75.57V415.108H70.854V414.028ZM70.656 418.906H75.75V419.986H70.656V418.906ZM70.656 421.3H75.75V422.38H70.656V421.3ZM69.72 416.404H76.704V417.556H69.72V416.404ZM76.956 416.944H85.938V418.204H76.956V416.944ZM76.416 428.086H86.298V429.364H76.416V428.086ZM77.262 422.236H85.686V423.496H77.262V422.236ZM71.25 423.712H75.876V428.788H71.25V427.708H74.616V424.792H71.25V423.712ZM70.548 423.712H71.79V429.67H70.548V423.712ZM80.682 413.434H82.014V417.556H80.682V413.434ZM80.682 417.358H82.014V428.752H80.682V417.358Z" fill="#FFC500"/>
</g>
</g>
<g filter="url(#filter3_ddii_1033_11333)">
<path d="M254 738C254 729.163 261.163 722 270 722H288C296.837 722 304 729.163 304 738V756C304 764.837 296.837 772 288 772H270C261.163 772 254 764.837 254 756V738Z" fill="#FFE691" shape-rendering="crispEdges"/>
<path d="M273.222 735.444L266 742.667L273.222 749.889" stroke="#FFFEFA" stroke-width="1.5" stroke-linecap="round" stroke-linejoin="round"/>
<path d="M266 742.667H277.556C285.533 742.667 292 749.133 292 757.111V758.555" stroke="#FFFEFA" stroke-width="1.5" stroke-linecap="round" stroke-linejoin="round"/>
</g>
<g filter="url(#filter4_ddii_1033_11333)">
<path d="M320 738C320 729.163 327.163 722 336 722H354C362.837 722 370 729.163 370 738V756C370 764.837 362.837 772 354 772H336C327.163 772 320 764.837 320 756V738Z" fill="#FFE691" shape-rendering="crispEdges"/>
<path d="M356.471 739.353L341.176 754.647L333.529 747" stroke="#FFFEFA" stroke-width="1.5" stroke-linecap="round" stroke-linejoin="round"/>
</g>
<g clip-path="url(#clip0_1033_11333)">
<path d="M69.8502 836.298V844.295M74.7391 838.963V844.295M79.628 833.632V844.295" stroke="#FFFEFA" stroke-width="1.5" stroke-linecap="round" stroke-linejoin="round"/>
<path d="M83.5217 828H66.4782C65.1335 828 64.0435 829.231 64.0435 830.75V847.25C64.0435 848.769 65.1335 850 66.4782 850H83.5217C84.8664 850 85.9565 848.769 85.9565 847.25V830.75C85.9565 829.231 84.8664 828 83.5217 828Z" stroke="#FFFEFA" stroke-width="1.5"/>
</g>
<path d="M128.5 847.587V830.413C128.5 829.763 128.75 829.139 129.196 828.679C129.641 828.218 130.245 827.96 130.875 827.96H146.787C146.976 827.96 147.158 828.038 147.291 828.176C147.425 828.314 147.5 828.501 147.5 828.696V844.782M130.875 845.133H147.5M130.875 850.04H147.5" stroke="#FFFEFA" stroke-width="1.5" stroke-linecap="round"/>
<path d="M130.875 850.04C130.245 850.04 129.641 849.781 129.196 849.321C128.75 848.861 128.5 848.237 128.5 847.587C128.5 846.936 128.75 846.312 129.196 845.852C129.641 845.392 130.245 845.133 130.875 845.133" stroke="#FFFEFA" stroke-width="1.5" stroke-linecap="round" stroke-linejoin="round"/>
<path d="M134.438 832.867H141.562" stroke="#FFFEFA" stroke-width="1.5" stroke-linecap="round"/>
<path d="M193 850.25C191.393 850.25 190.091 849.025 190.091 847.513V836.51C190.091 835.679 190.493 834.892 191.182 834.373L199.182 828.35C199.693 827.962 200.336 827.75 201 827.75C201.664 827.75 202.307 827.962 202.818 828.35L210.817 834.373C211.507 834.892 211.909 835.679 211.909 836.51V847.513C211.909 849.025 210.607 850.25 209 850.25H193Z" stroke="#FFFEFA" stroke-width="1.5" stroke-linecap="round" stroke-linejoin="round"/>
<path d="M197.591 850.25V843.375C197.591 842.712 197.878 842.077 198.39 841.608C198.901 841.139 199.595 840.875 200.318 840.875H201.682C202.405 840.875 203.099 841.139 203.61 841.608C204.122 842.077 204.409 842.712 204.409 843.375V850.25" stroke="#FFFEFA" stroke-width="1.5" stroke-linecap="round" stroke-linejoin="round"/>
<g filter="url(#filter5_ii_1033_11333)">
<path d="M239 830C239 821.163 246.163 814 255 814H273C281.837 814 289 821.163 289 830V848C289 856.837 281.837 864 273 864H255C246.163 864 239 856.837 239 848V830Z" fill="#FFE691"/>
<path d="M262.787 832.78H270.066M257.934 832.78H259.147M257.934 839H259.147M257.934 845.22H259.147M262.787 839H270.066M262.787 845.22H270.066M252.474 839C252.474 833.429 252.474 830.643 254.162 828.912C255.849 827.182 258.566 827.182 264 827.182C269.433 827.182 272.151 827.182 273.838 828.912C275.526 830.643 275.526 833.428 275.526 839C275.526 844.571 275.526 847.357 273.838 849.088C272.151 850.818 269.434 850.818 264 850.818C258.567 850.818 255.849 850.818 254.162 849.088C252.474 847.357 252.474 844.572 252.474 839Z" stroke="#FFFEFA" stroke-width="1.5" stroke-linecap="round" stroke-linejoin="round"/>
</g>
<path d="M327.001 841.526C328.397 841.526 329.528 840.395 329.528 839C329.528 837.605 328.397 836.474 327.001 836.474C325.606 836.474 324.474 837.605 324.474 839C324.474 840.395 325.606 841.526 327.001 841.526Z" stroke="#FFFEFA"/>
<path d="M318.661 831.27L318.976 830.722C318.852 830.65 318.708 830.623 318.566 830.644C318.424 830.666 318.294 830.735 318.197 830.84L318.661 831.27ZM316.135 835.645L315.531 835.458C315.489 835.595 315.494 835.742 315.547 835.875C315.599 836.008 315.695 836.12 315.819 836.191L316.135 835.645ZM316.132 842.353L315.816 841.806C315.692 841.878 315.596 841.99 315.544 842.123C315.491 842.256 315.486 842.403 315.528 842.54L316.132 842.353ZM318.659 846.728L318.196 847.158C318.293 847.263 318.423 847.332 318.565 847.353C318.706 847.374 318.851 847.347 318.975 847.275L318.659 846.728ZM324.472 850.082H323.84C323.84 850.225 323.889 850.364 323.978 850.476C324.068 850.588 324.193 850.667 324.333 850.698L324.472 850.082ZM329.527 850.084L329.667 850.701C329.807 850.669 329.932 850.591 330.021 850.479C330.11 850.367 330.159 850.228 330.159 850.084H329.527ZM335.341 846.73L335.025 847.277C335.149 847.348 335.294 847.376 335.435 847.354C335.577 847.333 335.707 847.264 335.804 847.159L335.341 846.73ZM337.865 842.352L338.469 842.539C338.511 842.402 338.506 842.255 338.453 842.122C338.401 841.989 338.305 841.878 338.181 841.806L337.865 842.352ZM337.868 835.644L338.184 836.191C338.308 836.12 338.404 836.008 338.456 835.875C338.509 835.741 338.514 835.594 338.472 835.457L337.868 835.644ZM335.341 831.268L335.804 830.838C335.707 830.733 335.577 830.664 335.435 830.643C335.294 830.622 335.149 830.649 335.025 830.721L335.341 831.268ZM329.528 827.917H330.16C330.16 827.774 330.111 827.635 330.022 827.524C329.933 827.412 329.808 827.334 329.669 827.302L329.528 827.917ZM324.474 827.914L324.334 827.298C324.194 827.33 324.069 827.408 323.979 827.52C323.89 827.632 323.841 827.771 323.841 827.914H324.474ZM316.739 835.832C317.213 834.293 318.028 832.88 319.123 831.698L318.197 830.84C316.973 832.16 316.061 833.738 315.531 835.458L316.739 835.832ZM317.699 844.368C317.297 843.673 316.975 842.935 316.737 842.168L315.529 842.542C315.795 843.398 316.156 844.223 316.606 844.999L317.699 844.368ZM319.124 846.3C318.579 845.711 318.1 845.063 317.699 844.368L316.606 844.999C317.054 845.776 317.587 846.501 318.197 847.159L319.124 846.3ZM329.388 849.47C327.817 849.828 326.185 849.827 324.614 849.468L324.334 850.698C326.089 851.099 327.913 851.101 329.669 850.702L329.388 849.47ZM337.264 842.168C336.789 843.707 335.974 845.12 334.879 846.302L335.806 847.16C337.03 845.84 337.941 844.261 338.472 842.54L337.264 842.168ZM336.304 833.632C336.713 834.343 337.033 835.081 337.266 835.832L338.473 835.458C338.207 834.602 337.846 833.777 337.396 833.001L336.304 833.632ZM334.878 831.7C335.424 832.289 335.903 832.937 336.304 833.632L337.396 833.001C336.949 832.224 336.415 831.499 335.806 830.841L334.878 831.7ZM324.614 828.53C326.186 828.172 327.817 828.173 329.388 828.532L329.669 827.302C327.913 826.901 326.09 826.899 324.334 827.298L324.614 828.53ZM325.106 830.25V827.913H323.842V830.25H325.106ZM320.999 831.889L318.976 830.722L318.345 831.815L320.366 832.983L320.999 831.889ZM317.841 840.639L315.816 841.806L316.449 842.9L318.471 841.733L317.841 840.639ZM318.472 836.264L316.451 835.099L315.819 836.192L317.841 837.358L318.472 836.264ZM325.106 850.082V847.749H323.842V850.082H325.106ZM320.368 845.015L318.345 846.182L318.976 847.275L320.998 846.108L320.368 845.015ZM335.658 846.183L333.635 845.015L333.003 846.11L335.025 847.277L335.658 846.183ZM330.16 850.086V847.749H328.897V850.086H330.16ZM337.553 835.097L335.53 836.264L336.162 837.358L338.184 836.191L337.553 835.097ZM338.182 841.805L336.162 840.642L335.53 841.736L337.552 842.901L338.182 841.805ZM330.16 830.25V827.917H328.897V830.25H330.16ZM335.026 830.722L333.003 831.89L333.635 832.984L335.658 831.816L335.026 830.722ZM328.897 830.25C328.897 832.68 331.529 834.199 333.635 832.984L333.003 831.89C332.715 832.057 332.388 832.144 332.055 832.144C331.722 832.144 331.395 832.057 331.107 831.89C330.819 831.724 330.58 831.484 330.414 831.196C330.247 830.908 330.16 830.582 330.16 830.25H328.897ZM335.53 836.266C333.424 837.481 333.424 840.519 335.53 841.734L336.162 840.641C335.874 840.474 335.635 840.235 335.468 839.947C335.302 839.659 335.214 839.333 335.214 839C335.214 838.667 335.302 838.341 335.468 838.053C335.635 837.765 335.874 837.526 336.162 837.359L335.53 836.266ZM333.635 845.016C331.529 843.801 328.897 845.318 328.897 847.749H330.16C330.16 847.416 330.248 847.091 330.414 846.803C330.58 846.515 330.82 846.276 331.108 846.11C331.396 845.943 331.723 845.856 332.055 845.856C332.388 845.856 332.715 845.943 333.003 846.11L333.635 845.016ZM325.106 847.749C325.106 845.319 322.474 843.801 320.368 845.016L320.999 846.11C321.288 845.943 321.615 845.856 321.947 845.856C322.28 845.856 322.607 845.943 322.895 846.11C323.183 846.276 323.423 846.516 323.589 846.804C323.755 847.092 323.843 847.419 323.842 847.751L325.106 847.749ZM318.472 841.734C320.579 840.519 320.579 837.481 318.472 836.266L317.841 837.359C319.104 838.088 319.104 839.909 317.841 840.639L318.472 841.734ZM323.842 830.25C323.842 830.582 323.754 830.909 323.588 831.197C323.422 831.484 323.182 831.723 322.894 831.89C322.606 832.056 322.279 832.143 321.947 832.143C321.614 832.143 321.287 832.055 320.999 831.889L320.368 832.984C322.474 834.199 325.106 832.681 325.106 830.25H323.842Z" fill="#FFFEFA"/>
<defs>
<filter id="filter0_i_1033_11333" x="32" y="102" width="340" height="92" filterUnits="userSpaceOnUse" color-interpolation-filters="sRGB">
<feFlood flood-opacity="0" result="BackgroundImageFix"/>
<feBlend mode="normal" in="SourceGraphic" in2="BackgroundImageFix" result="shape"/>
<feColorMatrix in="SourceAlpha" type="matrix" values="0 0 0 0 0 0 0 0 0 0 0 0 0 0 0 0 0 0 127 0" result="hardAlpha"/>
<feOffset dx="2" dy="2"/>
<feGaussianBlur stdDeviation="3.5"/>
<feComposite in2="hardAlpha" operator="arithmetic" k2="-1" k3="1"/>
<feColorMatrix type="matrix" values="0 0 0 0 0 0 0 0 0 0 0 0 0 0 0 0 0 0 0.25 0"/>
<feBlend mode="normal" in2="shape" result="effect1_innerShadow_1033_11333"/>
</filter>
<filter id="filter1_d_1033_11333" x="26" y="202" width="358" height="584" filterUnits="userSpaceOnUse" color-interpolation-filters="sRGB">
<feFlood flood-opacity="0" result="BackgroundImageFix"/>
<feColorMatrix in="SourceAlpha" type="matrix" values="0 0 0 0 0 0 0 0 0 0 0 0 0 0 0 0 0 0 127 0" result="hardAlpha"/>
<feOffset dx="4" dy="4"/>
<feGaussianBlur stdDeviation="5"/>
<feComposite in2="hardAlpha" operator="out"/>
<feColorMatrix type="matrix" values="0 0 0 0 0 0 0 0 0 0 0 0 0 0 0 0 0 0 0.25 0"/>
<feBlend mode="normal" in2="BackgroundImageFix" result="effect1_dropShadow_1033_11333"/>
<feBlend mode="normal" in="SourceGraphic" in2="effect1_dropShadow_1033_11333" result="shape"/>
</filter>
<filter id="filter2_d_1033_11333" x="45" y="236" width="316" height="263" filterUnits="userSpaceOnUse" color-interpolation-filters="sRGB">
<feFlood flood-opacity="0" result="BackgroundImageFix"/>
<feColorMatrix in="SourceAlpha" type="matrix" values="0 0 0 0 0 0 0 0 0 0 0 0 0 0 0 0 0 0 127 0" result="hardAlpha"/>
<feOffset dx="2" dy="2"/>
<feGaussianBlur stdDeviation="2"/>
<feComposite in2="hardAlpha" operator="out"/>
<feColorMatrix type="matrix" values="0 0 0 0 0 0 0 0 0 0 0 0 0 0 0 0 0 0 0.25 0"/>
<feBlend mode="normal" in2="BackgroundImageFix" result="effect1_dropShadow_1033_11333"/>
<feBlend mode="normal" in="SourceGraphic" in2="effect1_dropShadow_1033_11333" result="shape"/>
</filter>
<filter id="filter3_ddii_1033_11333" x="253" y="721" width="56" height="56" filterUnits="userSpaceOnUse" color-interpolation-filters="sRGB">
<feFlood flood-opacity="0" result="BackgroundImageFix"/>
<feColorMatrix in="SourceAlpha" type="matrix" values="0 0 0 0 0 0 0 0 0 0 0 0 0 0 0 0 0 0 127 0" result="hardAlpha"/>
<feOffset dx="1" dy="1"/>
<feGaussianBlur stdDeviation="0.5"/>
<feComposite in2="hardAlpha" operator="out"/>
<feColorMatrix type="matrix" values="0 0 0 0 0 0 0 0 0 0 0 0 0 0 0 0 0 0 0.25 0"/>
<feBlend mode="normal" in2="BackgroundImageFix" result="effect1_dropShadow_1033_11333"/>
<feColorMatrix in="SourceAlpha" type="matrix" values="0 0 0 0 0 0 0 0 0 0 0 0 0 0 0 0 0 0 127 0" result="hardAlpha"/>
<feOffset dx="2" dy="2"/>
<feGaussianBlur stdDeviation="1.5"/>
<feComposite in2="hardAlpha" operator="out"/>
<feColorMatrix type="matrix" values="0 0 0 0 0 0 0 0 0 0 0 0 0 0 0 0 0 0 0.25 0"/>
<feBlend mode="normal" in2="effect1_dropShadow_1033_11333" result="effect2_dropShadow_1033_11333"/>
<feBlend mode="normal" in="SourceGraphic" in2="effect2_dropShadow_1033_11333" result="shape"/>
<feColorMatrix in="SourceAlpha" type="matrix" values="0 0 0 0 0 0 0 0 0 0 0 0 0 0 0 0 0 0 127 0" result="hardAlpha"/>
<feOffset dx="-1" dy="-1"/>
<feGaussianBlur stdDeviation="2"/>
<feComposite in2="hardAlpha" operator="arithmetic" k2="-1" k3="1"/>
<feColorMatrix type="matrix" values="0 0 0 0 1 0 0 0 0 1 0 0 0 0 1 0 0 0 0.55 0"/>
<feBlend mode="normal" in2="shape" result="effect3_innerShadow_1033_11333"/>
<feColorMatrix in="SourceAlpha" type="matrix" values="0 0 0 0 0 0 0 0 0 0 0 0 0 0 0 0 0 0 127 0" result="hardAlpha"/>
<feOffset dx="1" dy="1"/>
<feGaussianBlur stdDeviation="0.5"/>
<feComposite in2="hardAlpha" operator="arithmetic" k2="-1" k3="1"/>
<feColorMatrix type="matrix" values="0 0 0 0 0 0 0 0 0 0 0 0 0 0 0 0 0 0 0.25 0"/>
<feBlend mode="normal" in2="effect3_innerShadow_1033_11333" result="effect4_innerShadow_1033_11333"/>
</filter>
<filter id="filter4_ddii_1033_11333" x="319" y="721" width="56" height="56" filterUnits="userSpaceOnUse" color-interpolation-filters="sRGB">
<feFlood flood-opacity="0" result="BackgroundImageFix"/>
<feColorMatrix in="SourceAlpha" type="matrix" values="0 0 0 0 0 0 0 0 0 0 0 0 0 0 0 0 0 0 127 0" result="hardAlpha"/>
<feOffset dx="1" dy="1"/>
<feGaussianBlur stdDeviation="0.5"/>
<feComposite in2="hardAlpha" operator="out"/>
<feColorMatrix type="matrix" values="0 0 0 0 0 0 0 0 0 0 0 0 0 0 0 0 0 0 0.25 0"/>
<feBlend mode="normal" in2="BackgroundImageFix" result="effect1_dropShadow_1033_11333"/>
<feColorMatrix in="SourceAlpha" type="matrix" values="0 0 0 0 0 0 0 0 0 0 0 0 0 0 0 0 0 0 127 0" result="hardAlpha"/>
<feOffset dx="2" dy="2"/>
<feGaussianBlur stdDeviation="1.5"/>
<feComposite in2="hardAlpha" operator="out"/>
<feColorMatrix type="matrix" values="0 0 0 0 0 0 0 0 0 0 0 0 0 0 0 0 0 0 0.25 0"/>
<feBlend mode="normal" in2="effect1_dropShadow_1033_11333" result="effect2_dropShadow_1033_11333"/>
<feBlend mode="normal" in="SourceGraphic" in2="effect2_dropShadow_1033_11333" result="shape"/>
<feColorMatrix in="SourceAlpha" type="matrix" values="0 0 0 0 0 0 0 0 0 0 0 0 0 0 0 0 0 0 127 0" result="hardAlpha"/>
<feOffset dx="-1" dy="-1"/>
<feGaussianBlur stdDeviation="2"/>
<feComposite in2="hardAlpha" operator="arithmetic" k2="-1" k3="1"/>
<feColorMatrix type="matrix" values="0 0 0 0 1 0 0 0 0 1 0 0 0 0 1 0 0 0 0.55 0"/>
<feBlend mode="normal" in2="shape" result="effect3_innerShadow_1033_11333"/>
<feColorMatrix in="SourceAlpha" type="matrix" values="0 0 0 0 0 0 0 0 0 0 0 0 0 0 0 0 0 0 127 0" result="hardAlpha"/>
<feOffset dx="1" dy="1"/>
<feGaussianBlur stdDeviation="0.5"/>
<feComposite in2="hardAlpha" operator="arithmetic" k2="-1" k3="1"/>
<feColorMatrix type="matrix" values="0 0 0 0 0 0 0 0 0 0 0 0 0 0 0 0 0 0 0.25 0"/>
<feBlend mode="normal" in2="effect3_innerShadow_1033_11333" result="effect4_innerShadow_1033_11333"/>
</filter>
<filter id="filter5_ii_1033_11333" x="237" y="812" width="54" height="54" filterUnits="userSpaceOnUse" color-interpolation-filters="sRGB">
<feFlood flood-opacity="0" result="BackgroundImageFix"/>
<feBlend mode="normal" in="SourceGraphic" in2="BackgroundImageFix" result="shape"/>
<feColorMatrix in="SourceAlpha" type="matrix" values="0 0 0 0 0 0 0 0 0 0 0 0 0 0 0 0 0 0 127 0" result="hardAlpha"/>
<feOffset dx="2" dy="2"/>
<feGaussianBlur stdDeviation="1"/>
<feComposite in2="hardAlpha" operator="arithmetic" k2="-1" k3="1"/>
<feColorMatrix type="matrix" values="0 0 0 0 0 0 0 0 0 0 0 0 0 0 0 0 0 0 0.25 0"/>
<feBlend mode="normal" in2="shape" result="effect1_innerShadow_1033_11333"/>
<feColorMatrix in="SourceAlpha" type="matrix" values="0 0 0 0 0 0 0 0 0 0 0 0 0 0 0 0 0 0 127 0" result="hardAlpha"/>
<feOffset dx="-2" dy="-2"/>
<feGaussianBlur stdDeviation="1"/>
<feComposite in2="hardAlpha" operator="arithmetic" k2="-1" k3="1"/>
<feColorMatrix type="matrix" values="0 0 0 0 1 0 0 0 0 1 0 0 0 0 1 0 0 0 0.25 0"/>
<feBlend mode="normal" in2="effect1_innerShadow_1033_11333" result="effect2_innerShadow_1033_11333"/>
</filter>
<radialGradient id="paint0_radial_1033_11333" cx="0" cy="0" r="1" gradientTransform="matrix(504.37 -616.969 705.929 583.161 -57.4954 843.457)" gradientUnits="userSpaceOnUse">
<stop stop-color="#FFAA1E"/>
<stop offset="1" stop-color="#FFFEFA"/>
</radialGradient>
<radialGradient id="paint1_radial_1033_11333" cx="0" cy="0" r="1" gradientTransform="matrix(-350.114 -188.427 215.596 -404.808 432.851 897.965)" gradientUnits="userSpaceOnUse">
<stop stop-color="#FFC500"/>
<stop offset="1" stop-color="#FFFEFA"/>
</radialGradient>
<radialGradient id="paint2_radial_1033_11333" cx="0" cy="0" r="1" gradientTransform="matrix(356.658 370.275 -423.665 412.374 -35.5256 -45.1097)" gradientUnits="userSpaceOnUse">
<stop stop-color="#FFC500"/>
<stop offset="1" stop-color="#FFFEFA"/>
</radialGradient>
<radialGradient id="paint3_radial_1033_11333" cx="0" cy="0" r="1" gradientTransform="matrix(-467.442 874 -1000.02 -540.465 467.442 -22.0849)" gradientUnits="userSpaceOnUse">
<stop stop-color="#FFD239"/>
<stop offset="0.328855" stop-color="#FFE691"/>
<stop offset="1" stop-color="#FFFEFA"/>
</radialGradient>
<radialGradient id="paint4_radial_1033_11333" cx="0" cy="0" r="1" gradientTransform="matrix(489.412 322.346 -339.99 521.626 -42.5372 8.7727e-06)" gradientUnits="userSpaceOnUse">
<stop stop-color="#FFAA1E"/>
<stop offset="1" stop-color="#FFFEFA"/>
</radialGradient>
<radialGradient id="paint5_radial_1033_11333" cx="0" cy="0" r="1" gradientTransform="matrix(-457.626 -643.753 736.575 -529.115 421.633 750.418)" gradientUnits="userSpaceOnUse">
<stop stop-color="#FFAA1E"/>
<stop offset="0.356743" stop-color="#FFFEFA"/>
<stop offset="1" stop-color="#FFE691"/>
</radialGradient>
<radialGradient id="paint6_radial_1033_11333" cx="0" cy="0" r="1" gradientTransform="matrix(-84.607 -420.554 406.135 -82.5652 60.3 787.07)" gradientUnits="userSpaceOnUse">
<stop stop-color="#FFC500"/>
<stop offset="0.451629" stop-color="#FFE691"/>
<stop offset="1" stop-color="#FFFEFA"/>
</radialGradient>
<radialGradient id="paint7_radial_1033_11333" cx="0" cy="0" r="1" gradientTransform="matrix(-135.091 -1002.28 967.918 -131.831 -26.6441 920.519)" gradientUnits="userSpaceOnUse">
<stop stop-color="#FFC500"/>
<stop offset="0.244262" stop-color="#FFE691"/>
<stop offset="0.447933" stop-color="#FFFEFA"/>
<stop offset="0.745991" stop-color="#FFFEFA" stop-opacity="0.5"/>
<stop offset="0.93882" stop-color="#FFC500"/>
</radialGradient>
<radialGradient id="paint8_radial_1033_11333" cx="0" cy="0" r="1" gradientTransform="matrix(136.493 -1055.38 1019.19 133.199 402 940.725)" gradientUnits="userSpaceOnUse">
<stop offset="0.0611801" stop-color="#FFAA1E"/>
<stop offset="0.424693" stop-color="#FFFEFA" stop-opacity="0.5"/>
<stop offset="1" stop-color="#FFE691"/>
</radialGradient>
<clipPath id="clip0_1033_11333">
<rect width="50" height="50" fill="white" transform="translate(50 814)"/>
</clipPath>
</defs>
</svg>
