<svg width="25" height="30" viewBox="0 0 25 30" fill="none" xmlns="http://www.w3.org/2000/svg">
<path d="M4 0.5H21C22.933 0.5 24.5 2.067 24.5 4V26C24.5 27.933 22.933 29.5 21 29.5H4C2.067 29.5 0.5 27.933 0.5 26V4C0.5 2.067 2.067 0.5 4 0.5Z" fill="#FFFEFA"/>
<path d="M4 0.5H21C22.933 0.5 24.5 2.067 24.5 4V26C24.5 27.933 22.933 29.5 21 29.5H4C2.067 29.5 0.5 27.933 0.5 26V4C0.5 2.067 2.067 0.5 4 0.5Z" stroke="#FFAA1E"/>
<path d="M6.354 11.044H18.66V12.122H6.354V11.044ZM11.898 7.81H13.018V11.604H11.898V7.81ZM9.588 14.054L10.764 14.362C10.4747 15.1367 10.1293 15.902 9.728 16.658C9.336 17.4047 8.92067 18.1093 8.482 18.772C8.04333 19.4253 7.59067 19.9993 7.124 20.494C7.04933 20.4287 6.94667 20.3493 6.816 20.256C6.69467 20.1627 6.56867 20.0693 6.438 19.976C6.30733 19.892 6.19533 19.822 6.102 19.766C6.56867 19.3087 7.01667 18.772 7.446 18.156C7.88467 17.54 8.286 16.882 8.65 16.182C9.014 15.482 9.32667 14.7727 9.588 14.054ZM14.166 14.502L15.202 14.082C15.538 14.5393 15.8787 15.0293 16.224 15.552C16.5693 16.0653 16.9007 16.588 17.218 17.12C17.5353 17.6427 17.82 18.1513 18.072 18.646C18.324 19.1313 18.5293 19.5747 18.688 19.976L17.526 20.48C17.3953 20.088 17.204 19.6493 16.952 19.164C16.7093 18.6693 16.434 18.1513 16.126 17.61C15.8273 17.0687 15.51 16.532 15.174 16C14.838 15.468 14.502 14.9687 14.166 14.502Z" fill="#FF9600"/>
</svg>
