<svg width="25" height="30" viewBox="0 0 25 30" fill="none" xmlns="http://www.w3.org/2000/svg">
<path d="M4 0.5H21C22.933 0.5 24.5 2.067 24.5 4V26C24.5 27.933 22.933 29.5 21 29.5H4C2.067 29.5 0.5 27.933 0.5 26V4C0.5 2.067 2.067 0.5 4 0.5Z" fill="#FFFEFA"/>
<path d="M4 0.5H21C22.933 0.5 24.5 2.067 24.5 4V26C24.5 27.933 22.933 29.5 21 29.5H4C2.067 29.5 0.5 27.933 0.5 26V4C0.5 2.067 2.067 0.5 4 0.5Z" stroke="#FFAA1E"/>
<path d="M7.18 9.098H17.75V10.134H7.18V9.098ZM6.284 18.814H18.744V19.85H6.284V18.814ZM11.268 9.462H12.444C12.304 10.2647 12.15 11.1187 11.982 12.024C11.814 12.9293 11.6413 13.8347 11.464 14.74C11.2867 15.6453 11.1093 16.504 10.932 17.316C10.7547 18.128 10.5913 18.8373 10.442 19.444H9.266C9.434 18.8187 9.60667 18.0953 9.784 17.274C9.97067 16.4527 10.1527 15.5893 10.33 14.684C10.5167 13.7787 10.6893 12.878 10.848 11.982C11.016 11.086 11.156 10.246 11.268 9.462ZM7.726 13.228H16.42V19.29H15.342V14.25H7.726V13.228Z" fill="#FF9600"/>
</svg>
