<svg width="380" height="600" viewBox="0 0 380 600" fill="none" xmlns="http://www.w3.org/2000/svg">
<path d="M4 16C4 7.16343 11.1634 0 20 0H360C368.837 0 376 7.16344 376 16V584C376 592.837 368.837 600 360 600H20C11.1635 600 4 592.837 4 584V16Z" fill="#FFFEFA"/>
<g filter="url(#filter0_i_375_16468)">
<path d="M90 32C90 23.1634 97.1634 16 106 16H274C282.837 16 290 23.1634 290 32V55C290 63.8366 282.837 71 274 71H106C97.1634 71 90 63.8366 90 55V32Z" fill="#FFFEFA"/>
<path d="M125.088 52.4092C126.124 52.4094 127.135 52.091 127.98 51.4981C128.825 50.9051 129.463 50.0669 129.806 49.0993C130.15 48.1316 130.181 47.0823 129.896 46.0964C129.61 45.1105 129.023 44.2366 128.214 43.5955C128.093 43.5046 127.995 43.3877 127.925 43.2537C127.856 43.1197 127.819 42.9719 127.815 42.8215V37.1092C127.815 36.3931 127.528 35.7063 127.017 35.2C126.505 34.6936 125.812 34.4092 125.088 34.4092C124.365 34.4092 123.671 34.6936 123.16 35.2C122.649 35.7063 122.361 36.3931 122.361 37.1092V42.8224C122.361 43.1266 122.202 43.4056 121.962 43.5964C121.154 44.2376 120.567 45.1114 120.282 46.0972C119.997 47.0829 120.028 48.132 120.371 49.0994C120.715 50.0668 121.353 50.9049 122.198 51.4978C123.043 52.0907 124.053 52.4091 125.088 52.4092Z" stroke="#FF9600"/>
<path d="M125.089 45.2091C124.486 45.2091 123.908 45.4462 123.482 45.8681C123.055 46.2901 122.816 46.8624 122.816 47.4591C122.816 48.0559 123.055 48.6282 123.482 49.0501C123.908 49.4721 124.486 49.7091 125.089 49.7091C125.691 49.7091 126.269 49.4721 126.695 49.0501C127.122 48.6282 127.361 48.0559 127.361 47.4591C127.361 46.8624 127.122 46.2901 126.695 45.8681C126.269 45.4462 125.691 45.2091 125.089 45.2091ZM125.089 45.2091V37.1091" stroke="#FF9600" stroke-linecap="round"/>
<path d="M153.184 44.676H166.432V52.932H164.728V46.236H162.352V52.932H160.936V46.236H158.56V52.932H157.168V46.236H154.84V52.932H153.184V44.676ZM151.024 52.116H168.088V53.724H151.024V52.116ZM147.136 33.852L148.168 32.556C148.648 32.764 149.152 33.02 149.68 33.324C150.208 33.612 150.696 33.916 151.144 34.236C151.608 34.54 151.984 34.828 152.272 35.1L151.216 36.588C150.928 36.3 150.552 35.988 150.088 35.652C149.64 35.316 149.16 34.996 148.648 34.692C148.136 34.372 147.632 34.092 147.136 33.852ZM145.912 40.332L146.92 38.988C147.4 39.18 147.904 39.412 148.432 39.684C148.96 39.956 149.456 40.244 149.92 40.548C150.4 40.836 150.784 41.116 151.072 41.388L150.04 42.852C149.752 42.58 149.376 42.292 148.912 41.988C148.448 41.684 147.952 41.388 147.424 41.1C146.912 40.796 146.408 40.54 145.912 40.332ZM146.464 53.004C146.848 52.38 147.264 51.644 147.712 50.796C148.16 49.932 148.616 49.02 149.08 48.06C149.544 47.1 149.976 46.172 150.376 45.276L151.792 46.356C151.44 47.188 151.048 48.06 150.616 48.972C150.2 49.884 149.768 50.78 149.32 51.66C148.888 52.54 148.464 53.356 148.048 54.108L146.464 53.004ZM155.704 34.884V41.46H163.864V34.884H155.704ZM154.048 33.468H165.568V42.876H154.048V33.468ZM159.376 35.292L160.696 35.46C160.504 36.532 160.088 37.572 159.448 38.58C158.824 39.588 158.008 40.38 157 40.956C156.904 40.812 156.776 40.652 156.616 40.476C156.456 40.3 156.312 40.156 156.184 40.044C157.096 39.532 157.816 38.844 158.344 37.98C158.888 37.1 159.232 36.204 159.376 35.292ZM158.872 37.788L159.784 37.068C160.184 37.372 160.6 37.716 161.032 38.1C161.464 38.468 161.864 38.828 162.232 39.18C162.616 39.516 162.936 39.82 163.192 40.092L162.256 40.932C162.016 40.644 161.704 40.316 161.32 39.948C160.936 39.58 160.528 39.204 160.096 38.82C159.68 38.436 159.272 38.092 158.872 37.788ZM174.4 39.06H191.488V40.548H174.4V39.06ZM174.736 46.068H188.488V47.556H174.736V46.068ZM178.264 36.972H179.992V43.092H185.824V36.972H187.6V44.532H178.264V36.972ZM188.008 46.068H188.368L188.68 45.996L189.808 46.596C189.152 47.844 188.296 48.924 187.24 49.836C186.184 50.732 184.984 51.484 183.64 52.092C182.296 52.7 180.856 53.188 179.32 53.556C177.784 53.94 176.2 54.228 174.568 54.42C174.52 54.212 174.416 53.956 174.256 53.652C174.112 53.348 173.96 53.1 173.8 52.908C175.32 52.748 176.808 52.516 178.264 52.212C179.72 51.892 181.08 51.468 182.344 50.94C183.624 50.412 184.752 49.772 185.728 49.02C186.704 48.268 187.464 47.372 188.008 46.332V46.068ZM179.008 47.316C179.776 48.388 180.808 49.308 182.104 50.076C183.416 50.844 184.92 51.46 186.616 51.924C188.312 52.388 190.128 52.716 192.064 52.908C191.952 53.036 191.824 53.196 191.68 53.388C191.552 53.58 191.424 53.764 191.296 53.94C191.184 54.132 191.088 54.308 191.008 54.468C189.04 54.212 187.192 53.804 185.464 53.244C183.736 52.7 182.184 51.988 180.808 51.108C179.448 50.212 178.336 49.148 177.472 47.916L179.008 47.316ZM180.784 32.34H182.632V35.628H180.784V32.34ZM172.792 34.716H191.632V36.348H172.792V34.716ZM171.904 34.716H173.632V41.652C173.632 42.58 173.6 43.596 173.536 44.7C173.488 45.804 173.376 46.932 173.2 48.084C173.04 49.236 172.8 50.356 172.48 51.444C172.176 52.532 171.76 53.532 171.232 54.444C171.136 54.348 170.992 54.228 170.8 54.084C170.624 53.956 170.44 53.828 170.248 53.7C170.072 53.588 169.904 53.508 169.744 53.46C170.24 52.596 170.632 51.668 170.92 50.676C171.208 49.668 171.424 48.636 171.568 47.58C171.712 46.524 171.8 45.492 171.832 44.484C171.88 43.46 171.904 42.516 171.904 41.652V34.716ZM194.152 39.108C195.048 39.108 196.08 39.1 197.248 39.084C198.432 39.052 199.664 39.028 200.944 39.012L200.92 40.212C199.72 40.26 198.552 40.308 197.416 40.356C196.28 40.404 195.24 40.452 194.296 40.5L194.152 39.108ZM194.464 35.436L195.304 34.5C195.8 34.884 196.312 35.324 196.84 35.82C197.368 36.3 197.768 36.724 198.04 37.092L197.2 38.196C196.928 37.796 196.528 37.34 196 36.828C195.488 36.3 194.976 35.836 194.464 35.436ZM198.928 37.908L199.96 37.356C200.344 37.804 200.736 38.308 201.136 38.868C201.536 39.412 201.832 39.892 202.024 40.308L200.968 40.932C200.792 40.516 200.504 40.028 200.104 39.468C199.72 38.892 199.328 38.372 198.928 37.908ZM199.24 41.724L200.368 41.316C200.624 41.716 200.864 42.164 201.088 42.66C201.328 43.156 201.496 43.58 201.592 43.932L200.44 44.436C200.344 44.068 200.184 43.628 199.96 43.116C199.736 42.604 199.496 42.14 199.24 41.724ZM197.488 32.316L198.784 32.844C198.432 33.404 198.056 33.964 197.656 34.524C197.256 35.084 196.88 35.572 196.528 35.988L195.52 35.508C195.744 35.22 195.976 34.892 196.216 34.524C196.472 34.14 196.712 33.756 196.936 33.372C197.16 32.972 197.344 32.62 197.488 32.316ZM199.408 34.38L200.704 35.028C200.256 35.588 199.768 36.172 199.24 36.78C198.712 37.372 198.184 37.948 197.656 38.508C197.128 39.068 196.632 39.564 196.168 39.996L195.208 39.42C195.672 38.988 196.16 38.484 196.672 37.908C197.2 37.316 197.704 36.708 198.184 36.084C198.664 35.46 199.072 34.892 199.408 34.38ZM197.32 39.54H198.736V46.02H197.32V39.54ZM195.4 41.364L196.744 41.676C196.584 42.38 196.36 43.1 196.072 43.836C195.8 44.556 195.504 45.172 195.184 45.684C195.056 45.588 194.864 45.468 194.608 45.324C194.368 45.18 194.16 45.068 193.984 44.988C194.32 44.492 194.6 43.932 194.824 43.308C195.064 42.668 195.256 42.02 195.4 41.364ZM207.784 39.108C208.68 39.108 209.728 39.1 210.928 39.084C212.144 39.052 213.416 39.028 214.744 39.012L214.696 40.212C213.48 40.26 212.288 40.308 211.12 40.356C209.952 40.404 208.896 40.452 207.952 40.5L207.784 39.108ZM208.12 35.628L208.936 34.668C209.432 35.02 209.944 35.428 210.472 35.892C211 36.34 211.408 36.732 211.696 37.068L210.856 38.196C210.568 37.828 210.16 37.404 209.632 36.924C209.12 36.428 208.616 35.996 208.12 35.628ZM212.632 37.812L213.64 37.212C214.104 37.708 214.576 38.252 215.056 38.844C215.536 39.436 215.888 39.956 216.112 40.404L215.032 41.1C214.824 40.636 214.48 40.1 214 39.492C213.536 38.868 213.08 38.308 212.632 37.812ZM213.16 41.82L214.288 41.34C214.656 41.868 215.008 42.452 215.344 43.092C215.68 43.716 215.92 44.252 216.064 44.7L214.864 45.276C214.736 44.828 214.504 44.276 214.168 43.62C213.848 42.948 213.512 42.348 213.16 41.82ZM211.144 32.316L212.464 32.844C212.096 33.404 211.704 33.972 211.288 34.548C210.872 35.108 210.488 35.588 210.136 35.988L209.104 35.508C209.344 35.22 209.592 34.892 209.848 34.524C210.104 34.14 210.344 33.756 210.568 33.372C210.808 32.972 211 32.62 211.144 32.316ZM213.328 34.188L214.624 34.86C214.144 35.42 213.624 36.012 213.064 36.636C212.52 37.26 211.968 37.86 211.408 38.436C210.848 38.996 210.32 39.492 209.824 39.924L208.864 39.348C209.344 38.9 209.864 38.38 210.424 37.788C210.984 37.18 211.512 36.564 212.008 35.94C212.52 35.3 212.96 34.716 213.328 34.188ZM211.048 39.54H212.464V46.02H211.048V39.54ZM209.032 41.388L210.352 41.676C210.176 42.364 209.952 43.044 209.68 43.716C209.424 44.372 209.128 44.948 208.792 45.444C208.664 45.348 208.48 45.236 208.24 45.108C208 44.98 207.792 44.884 207.616 44.82C207.952 44.356 208.24 43.828 208.48 43.236C208.72 42.628 208.904 42.012 209.032 41.388ZM202.288 32.988H207.448V34.044H202.288V32.988ZM202.24 37.212H207.496V38.244H202.24V37.212ZM199.648 46.644H215.2V48.108H199.648V46.644ZM202.24 39.252H207.496V40.308H202.24V39.252ZM201.28 35.028H208.24V36.18H201.28V35.028ZM209.896 47.076L211.648 47.628C210.848 48.7 209.848 49.628 208.648 50.412C207.448 51.196 206.104 51.852 204.616 52.38C203.144 52.892 201.576 53.316 199.912 53.652C198.264 54.004 196.584 54.292 194.872 54.516C194.824 54.372 194.744 54.204 194.632 54.012C194.536 53.82 194.424 53.628 194.296 53.436C194.184 53.244 194.072 53.084 193.96 52.956C195.656 52.796 197.312 52.572 198.928 52.284C200.544 51.996 202.056 51.62 203.464 51.156C204.888 50.692 206.152 50.132 207.256 49.476C208.36 48.804 209.24 48.004 209.896 47.076ZM201.184 44.508L202.816 44.988C202.32 45.836 201.688 46.62 200.92 47.34C200.168 48.06 199.344 48.716 198.448 49.308C197.568 49.884 196.672 50.388 195.76 50.82C195.68 50.708 195.56 50.572 195.4 50.412C195.256 50.252 195.104 50.1 194.944 49.956C194.784 49.796 194.632 49.668 194.488 49.572C195.4 49.22 196.28 48.788 197.128 48.276C197.976 47.764 198.752 47.188 199.456 46.548C200.176 45.908 200.752 45.228 201.184 44.508ZM199.912 47.724C200.696 48.444 201.672 49.1 202.84 49.692C204.024 50.268 205.328 50.772 206.752 51.204C208.192 51.636 209.712 51.996 211.312 52.284C212.912 52.572 214.528 52.788 216.16 52.932C215.984 53.124 215.8 53.372 215.608 53.676C215.432 53.98 215.288 54.244 215.176 54.468C213.544 54.292 211.92 54.036 210.304 53.7C208.688 53.364 207.152 52.948 205.696 52.452C204.24 51.956 202.896 51.372 201.664 50.7C200.432 50.028 199.376 49.268 198.496 48.42L199.912 47.724ZM203.512 42.42V44.172H206.2V42.42H203.512ZM202.192 41.388H207.544V45.228H202.192V41.388ZM228.664 32.916H230.488V50.748C230.488 51.196 230.528 51.54 230.608 51.78C230.688 52.004 230.84 52.164 231.064 52.26C231.304 52.34 231.648 52.38 232.096 52.38C232.256 52.38 232.544 52.38 232.96 52.38C233.392 52.38 233.864 52.38 234.376 52.38C234.904 52.38 235.392 52.38 235.84 52.38C236.288 52.38 236.608 52.38 236.8 52.38C237.248 52.38 237.576 52.26 237.784 52.02C238.008 51.764 238.168 51.316 238.264 50.676C238.376 50.036 238.456 49.14 238.504 47.988C238.728 48.148 239 48.308 239.32 48.468C239.656 48.612 239.952 48.708 240.208 48.756C240.128 50.068 239.984 51.116 239.776 51.9C239.584 52.668 239.264 53.22 238.816 53.556C238.384 53.892 237.744 54.06 236.896 54.06C236.768 54.06 236.536 54.06 236.2 54.06C235.88 54.06 235.496 54.06 235.048 54.06C234.616 54.06 234.184 54.06 233.752 54.06C233.32 54.06 232.936 54.06 232.6 54.06C232.28 54.06 232.064 54.06 231.952 54.06C231.12 54.06 230.464 53.964 229.984 53.772C229.504 53.58 229.16 53.236 228.952 52.74C228.76 52.26 228.664 51.58 228.664 50.7V32.916ZM237.688 36.9L238.984 38.436C238.184 39.108 237.28 39.772 236.272 40.428C235.264 41.068 234.208 41.692 233.104 42.3C232.016 42.908 230.944 43.484 229.888 44.028C229.824 43.82 229.712 43.588 229.552 43.332C229.408 43.06 229.272 42.82 229.144 42.612C230.168 42.068 231.208 41.476 232.264 40.836C233.32 40.196 234.32 39.54 235.264 38.868C236.208 38.18 237.016 37.524 237.688 36.9ZM224.512 32.7L226.264 33.3C225.656 34.692 224.944 36.06 224.128 37.404C223.312 38.748 222.432 40.012 221.488 41.196C220.56 42.364 219.592 43.396 218.584 44.292C218.536 44.132 218.44 43.94 218.296 43.716C218.168 43.492 218.032 43.268 217.888 43.044C217.744 42.804 217.616 42.612 217.504 42.468C218.432 41.7 219.328 40.804 220.192 39.78C221.072 38.74 221.88 37.62 222.616 36.42C223.352 35.204 223.984 33.964 224.512 32.7ZM221.752 38.988L223.528 37.212L223.552 37.26V54.372H221.752V38.988ZM249.688 37.044V38.628H256.216V37.044H249.688ZM248.2 35.988H257.776V39.708H248.2V35.988ZM248.872 44.124V49.476H257.032V44.124H248.872ZM247.432 42.996H258.544V50.604H247.432V42.996ZM251.536 46.092V47.508H254.32V46.092H251.536ZM250.408 45.132H255.52V48.444H250.408V45.132ZM245.8 40.812H260.248V41.94H245.8V40.812ZM252.136 38.988H253.696V41.34H252.136V38.988ZM242.968 33.324H263.08V54.396H261.328V34.836H244.672V54.396H242.968V33.324ZM244.024 51.9H262.24V53.436H244.024V51.9Z" fill="#FF9600"/>
</g>
<g filter="url(#filter1_d_375_16468)">
<path d="M4 117C4 108.163 11.1634 101 20 101H360C368.837 101 376 108.163 376 117V485C376 493.837 368.837 501 360 501H20C11.1635 501 4 493.837 4 485V117Z" fill="#FFFEFA"/>
<path d="M59 414H325" stroke="#FFC500" stroke-width="0.5" stroke-linecap="round"/>
<path d="M59 387H325" stroke="#FFC500" stroke-width="0.5" stroke-linecap="round"/>
<path d="M59 358H325" stroke="#FFC500" stroke-width="0.5" stroke-linecap="round"/>
<path d="M59 331H325" stroke="#FFC500" stroke-width="0.5" stroke-linecap="round"/>
<path d="M59 303H325" stroke="#FFC500" stroke-width="0.5" stroke-linecap="round"/>
<path d="M59 275H325" stroke="#FFC500" stroke-width="0.5" stroke-linecap="round"/>
<path d="M59 247H325" stroke="#FFC500" stroke-width="0.5" stroke-linecap="round"/>
<path d="M59 219H325" stroke="#FFC500" stroke-width="0.5" stroke-linecap="round"/>
<path d="M59 190H325" stroke="#FFC500" stroke-width="0.5" stroke-linecap="round"/>
<g filter="url(#filter2_ii_375_16468)">
<rect x="65" y="150" width="10" height="300" rx="5" fill="#FFFEFA"/>
</g>
<g filter="url(#filter3_ii_375_16468)">
<rect x="99" y="150" width="10" height="300" rx="5" fill="#FFFEFA"/>
</g>
<g filter="url(#filter4_ii_375_16468)">
<rect x="133" y="150" width="10" height="300" rx="5" fill="#FFFEFA"/>
</g>
<g filter="url(#filter5_ii_375_16468)">
<rect x="201" y="150" width="10" height="300" rx="5" fill="#FFFEFA"/>
</g>
<g filter="url(#filter6_ii_375_16468)">
<rect x="167" y="150" width="10" height="300" rx="5" fill="#FFFEFA"/>
</g>
<g filter="url(#filter7_ii_375_16468)">
<rect x="235" y="150" width="10" height="300" rx="5" fill="#FFFEFA"/>
</g>
<g filter="url(#filter8_ii_375_16468)">
<rect x="269" y="150" width="10" height="300" rx="5" fill="#FFFEFA"/>
</g>
<g filter="url(#filter9_ii_375_16468)">
<rect x="303" y="150" width="10" height="300" rx="5" fill="#FFFEFA"/>
</g>
<rect x="65" y="303" width="10" height="147" rx="5" fill="#FF9600"/>
<rect x="99" y="303" width="10" height="147" rx="5" fill="#FF9600"/>
<rect x="201" y="303" width="10" height="147" rx="5" fill="#FF9600"/>
<rect x="133" y="303" width="10" height="147" rx="5" fill="#FF9600"/>
<rect x="167" y="286" width="10" height="164" rx="5" fill="#FF9600"/>
<rect x="235" y="286" width="10" height="164" rx="5" fill="#FF9600"/>
<rect x="269" y="286" width="10" height="164" rx="5" fill="#FF9600"/>
<rect x="303" y="303" width="10" height="147" rx="5" fill="#FF9600"/>
<path d="M73.3161 467.988C73.3161 468.8 73.2555 469.523 73.1341 470.158C73.0128 470.793 72.8168 471.334 72.5461 471.782C72.2848 472.221 71.9395 472.557 71.5101 472.79C71.0901 473.023 70.5815 473.14 69.9841 473.14C69.2375 473.14 68.6168 472.935 68.1221 472.524C67.6368 472.113 67.2728 471.525 67.0301 470.76C66.7968 469.985 66.6801 469.061 66.6801 467.988C66.6801 466.905 66.7875 465.981 67.0021 465.216C67.2261 464.451 67.5808 463.867 68.0661 463.466C68.5515 463.055 69.1908 462.85 69.9841 462.85C70.7308 462.85 71.3515 463.055 71.8461 463.466C72.3408 463.867 72.7095 464.451 72.9521 465.216C73.1948 465.981 73.3161 466.905 73.3161 467.988ZM67.9121 467.988C67.9121 468.903 67.9775 469.663 68.1081 470.27C68.2481 470.877 68.4675 471.334 68.7661 471.642C69.0741 471.941 69.4801 472.09 69.9841 472.09C70.4881 472.09 70.8895 471.941 71.1881 471.642C71.4961 471.343 71.7201 470.891 71.8601 470.284C72.0001 469.668 72.0701 468.903 72.0701 467.988C72.0701 467.073 72.0001 466.317 71.8601 465.72C71.7201 465.113 71.4961 464.661 71.1881 464.362C70.8895 464.054 70.4881 463.9 69.9841 463.9C69.4801 463.9 69.0741 464.054 68.7661 464.362C68.4675 464.661 68.2481 465.113 68.1081 465.72C67.9775 466.317 67.9121 467.073 67.9121 467.988Z" fill="#FF9600"/>
<path d="M134.764 468.73C134.764 468.151 134.801 467.582 134.876 467.022C134.96 466.462 135.1 465.935 135.296 465.44C135.492 464.936 135.763 464.493 136.108 464.11C136.453 463.718 136.887 463.415 137.41 463.2C137.942 462.976 138.586 462.864 139.342 462.864C139.538 462.864 139.753 462.873 139.986 462.892C140.229 462.911 140.425 462.943 140.574 462.99V464.04C140.406 463.984 140.215 463.942 140 463.914C139.795 463.886 139.585 463.872 139.37 463.872C138.726 463.872 138.189 463.979 137.76 464.194C137.331 464.409 136.99 464.703 136.738 465.076C136.495 465.449 136.318 465.879 136.206 466.364C136.094 466.849 136.024 467.367 135.996 467.918H136.08C136.22 467.694 136.397 467.493 136.612 467.316C136.827 467.139 137.083 466.999 137.382 466.896C137.69 466.793 138.045 466.742 138.446 466.742C139.025 466.742 139.529 466.863 139.958 467.106C140.397 467.339 140.737 467.685 140.98 468.142C141.223 468.59 141.344 469.136 141.344 469.78C141.344 470.471 141.213 471.068 140.952 471.572C140.691 472.076 140.322 472.463 139.846 472.734C139.379 473.005 138.819 473.14 138.166 473.14C137.69 473.14 137.247 473.051 136.836 472.874C136.425 472.697 136.061 472.426 135.744 472.062C135.436 471.698 135.193 471.241 135.016 470.69C134.848 470.13 134.764 469.477 134.764 468.73ZM138.152 472.104C138.74 472.104 139.216 471.917 139.58 471.544C139.944 471.161 140.126 470.573 140.126 469.78C140.126 469.145 139.963 468.641 139.636 468.268C139.319 467.895 138.838 467.708 138.194 467.708C137.755 467.708 137.373 467.801 137.046 467.988C136.719 468.165 136.463 468.394 136.276 468.674C136.099 468.954 136.01 469.243 136.01 469.542C136.01 469.85 136.052 470.153 136.136 470.452C136.229 470.751 136.365 471.026 136.542 471.278C136.729 471.53 136.953 471.731 137.214 471.88C137.485 472.029 137.797 472.104 138.152 472.104Z" fill="#FF9600"/>
<path d="M175.274 467.274C175.274 467.843 175.232 468.413 175.148 468.982C175.073 469.542 174.938 470.074 174.742 470.578C174.546 471.073 174.275 471.516 173.93 471.908C173.585 472.291 173.146 472.594 172.614 472.818C172.082 473.033 171.438 473.14 170.682 473.14C170.495 473.14 170.276 473.126 170.024 473.098C169.781 473.079 169.581 473.047 169.422 473V471.95C169.59 472.006 169.786 472.053 170.01 472.09C170.234 472.118 170.449 472.132 170.654 472.132C171.307 472.132 171.844 472.025 172.264 471.81C172.693 471.595 173.034 471.306 173.286 470.942C173.538 470.569 173.72 470.139 173.832 469.654C173.944 469.159 174.009 468.641 174.028 468.1H173.944C173.804 468.315 173.627 468.511 173.412 468.688C173.197 468.865 172.936 469.005 172.628 469.108C172.329 469.211 171.975 469.262 171.564 469.262C170.995 469.262 170.491 469.145 170.052 468.912C169.623 468.669 169.287 468.324 169.044 467.876C168.811 467.428 168.694 466.882 168.694 466.238C168.694 465.538 168.825 464.936 169.086 464.432C169.357 463.928 169.73 463.541 170.206 463.27C170.682 462.999 171.242 462.864 171.886 462.864C172.362 462.864 172.805 462.957 173.216 463.144C173.627 463.321 173.986 463.592 174.294 463.956C174.602 464.32 174.84 464.777 175.008 465.328C175.185 465.879 175.274 466.527 175.274 467.274ZM171.886 463.9C171.307 463.9 170.831 464.091 170.458 464.474C170.094 464.857 169.912 465.44 169.912 466.224C169.912 466.868 170.066 467.377 170.374 467.75C170.691 468.114 171.177 468.296 171.83 468.296C172.278 468.296 172.665 468.207 172.992 468.03C173.319 467.843 173.571 467.61 173.748 467.33C173.935 467.05 174.028 466.761 174.028 466.462C174.028 466.163 173.981 465.865 173.888 465.566C173.804 465.258 173.673 464.978 173.496 464.726C173.319 464.474 173.095 464.273 172.824 464.124C172.553 463.975 172.241 463.9 171.886 463.9Z" fill="#FF9600"/>
<path d="M202.958 473H201.754V466.014C201.754 465.743 201.754 465.515 201.754 465.328C201.764 465.141 201.773 464.969 201.782 464.81C201.792 464.642 201.801 464.469 201.81 464.292C201.661 464.441 201.526 464.567 201.404 464.67C201.283 464.773 201.129 464.903 200.942 465.062L199.878 465.93L199.234 465.104L201.936 463.004H202.958V473ZM213.28 473H206.672V471.978L209.29 469.332C209.794 468.828 210.219 468.38 210.564 467.988C210.909 467.596 211.171 467.213 211.348 466.84C211.525 466.457 211.614 466.042 211.614 465.594C211.614 465.043 211.451 464.628 211.124 464.348C210.797 464.059 210.373 463.914 209.85 463.914C209.365 463.914 208.935 463.998 208.562 464.166C208.198 464.334 207.825 464.567 207.442 464.866L206.784 464.04C207.045 463.816 207.33 463.615 207.638 463.438C207.955 463.261 208.296 463.121 208.66 463.018C209.033 462.915 209.43 462.864 209.85 462.864C210.475 462.864 211.012 462.971 211.46 463.186C211.908 463.401 212.253 463.709 212.496 464.11C212.748 464.502 212.874 464.973 212.874 465.524C212.874 465.916 212.813 466.289 212.692 466.644C212.571 466.989 212.398 467.33 212.174 467.666C211.95 468.002 211.679 468.343 211.362 468.688C211.045 469.033 210.695 469.393 210.312 469.766L208.226 471.824V471.88H213.28V473Z" fill="#FF9600"/>
<path d="M236.958 473H235.754V466.014C235.754 465.743 235.754 465.515 235.754 465.328C235.764 465.141 235.773 464.969 235.782 464.81C235.792 464.642 235.801 464.469 235.81 464.292C235.661 464.441 235.526 464.567 235.404 464.67C235.283 464.773 235.129 464.903 234.942 465.062L233.878 465.93L233.234 465.104L235.936 463.004H236.958V473ZM243.85 466.868C244.531 466.868 245.124 466.985 245.628 467.218C246.132 467.451 246.519 467.787 246.79 468.226C247.07 468.655 247.21 469.183 247.21 469.808C247.21 470.499 247.061 471.096 246.762 471.6C246.463 472.095 246.034 472.477 245.474 472.748C244.923 473.009 244.256 473.14 243.472 473.14C242.959 473.14 242.473 473.093 242.016 473C241.568 472.907 241.19 472.771 240.882 472.594V471.432C241.218 471.637 241.624 471.801 242.1 471.922C242.585 472.034 243.047 472.09 243.486 472.09C243.981 472.09 244.41 472.015 244.774 471.866C245.147 471.707 245.437 471.469 245.642 471.152C245.847 470.825 245.95 470.419 245.95 469.934C245.95 469.281 245.749 468.781 245.348 468.436C244.947 468.081 244.312 467.904 243.444 467.904C243.183 467.904 242.884 467.927 242.548 467.974C242.212 468.021 241.941 468.067 241.736 468.114L241.12 467.722L241.498 463.004H246.51V464.124H242.548L242.31 467.022C242.469 466.994 242.683 466.961 242.954 466.924C243.225 466.887 243.523 466.868 243.85 466.868Z" fill="#FF9600"/>
<path d="M270.958 473H269.754V466.014C269.754 465.743 269.754 465.515 269.754 465.328C269.764 465.141 269.773 464.969 269.782 464.81C269.792 464.642 269.801 464.469 269.81 464.292C269.661 464.441 269.526 464.567 269.404 464.67C269.283 464.773 269.129 464.903 268.942 465.062L267.878 465.93L267.234 465.104L269.936 463.004H270.958V473ZM277.99 462.864C278.578 462.864 279.096 462.957 279.544 463.144C279.992 463.321 280.342 463.587 280.594 463.942C280.855 464.297 280.986 464.735 280.986 465.258C280.986 465.659 280.897 466.009 280.72 466.308C280.552 466.607 280.323 466.873 280.034 467.106C279.745 467.33 279.427 467.531 279.082 467.708C279.493 467.904 279.866 468.128 280.202 468.38C280.538 468.623 280.804 468.907 281 469.234C281.205 469.561 281.308 469.953 281.308 470.41C281.308 470.97 281.173 471.455 280.902 471.866C280.631 472.267 280.249 472.58 279.754 472.804C279.269 473.028 278.695 473.14 278.032 473.14C277.313 473.14 276.702 473.033 276.198 472.818C275.703 472.603 275.325 472.3 275.064 471.908C274.812 471.507 274.686 471.021 274.686 470.452C274.686 469.995 274.779 469.598 274.966 469.262C275.162 468.926 275.419 468.637 275.736 468.394C276.053 468.151 276.394 467.946 276.758 467.778C276.431 467.591 276.133 467.381 275.862 467.148C275.601 466.905 275.391 466.63 275.232 466.322C275.083 466.014 275.008 465.655 275.008 465.244C275.008 464.731 275.139 464.301 275.4 463.956C275.661 463.601 276.016 463.331 276.464 463.144C276.912 462.957 277.421 462.864 277.99 462.864ZM275.89 470.466C275.89 470.951 276.063 471.357 276.408 471.684C276.753 472.001 277.285 472.16 278.004 472.16C278.461 472.16 278.844 472.085 279.152 471.936C279.46 471.787 279.693 471.581 279.852 471.32C280.02 471.059 280.104 470.76 280.104 470.424C280.104 470.097 280.015 469.813 279.838 469.57C279.67 469.318 279.427 469.094 279.11 468.898C278.802 468.702 278.433 468.525 278.004 468.366L277.78 468.282C277.369 468.459 277.024 468.651 276.744 468.856C276.464 469.061 276.249 469.295 276.1 469.556C275.96 469.817 275.89 470.121 275.89 470.466ZM277.976 463.858C277.463 463.858 277.038 463.984 276.702 464.236C276.375 464.479 276.212 464.833 276.212 465.3C276.212 465.645 276.291 465.935 276.45 466.168C276.618 466.401 276.842 466.602 277.122 466.77C277.402 466.929 277.71 467.083 278.046 467.232C278.373 467.092 278.662 466.938 278.914 466.77C279.175 466.602 279.381 466.401 279.53 466.168C279.689 465.925 279.768 465.636 279.768 465.3C279.768 464.833 279.605 464.479 279.278 464.236C278.951 463.984 278.517 463.858 277.976 463.858Z" fill="#FF9600"/>
<path d="M307.268 473H300.66V471.978L303.278 469.332C303.782 468.828 304.207 468.38 304.552 467.988C304.898 467.596 305.159 467.213 305.336 466.84C305.514 466.457 305.602 466.042 305.602 465.594C305.602 465.043 305.439 464.628 305.112 464.348C304.786 464.059 304.361 463.914 303.838 463.914C303.353 463.914 302.924 463.998 302.55 464.166C302.186 464.334 301.813 464.567 301.43 464.866L300.772 464.04C301.034 463.816 301.318 463.615 301.626 463.438C301.944 463.261 302.284 463.121 302.648 463.018C303.022 462.915 303.418 462.864 303.838 462.864C304.464 462.864 305 462.971 305.448 463.186C305.896 463.401 306.242 463.709 306.484 464.11C306.736 464.502 306.862 464.973 306.862 465.524C306.862 465.916 306.802 466.289 306.68 466.644C306.559 466.989 306.386 467.33 306.162 467.666C305.938 468.002 305.668 468.343 305.35 468.688C305.033 469.033 304.683 469.393 304.3 469.766L302.214 471.824V471.88H307.268V473ZM312.97 473H311.766V466.014C311.766 465.743 311.766 465.515 311.766 465.328C311.775 465.141 311.785 464.969 311.794 464.81C311.803 464.642 311.813 464.469 311.822 464.292C311.673 464.441 311.537 464.567 311.416 464.67C311.295 464.773 311.141 464.903 310.954 465.062L309.89 465.93L309.246 465.104L311.948 463.004H312.97V473Z" fill="#FF9600"/>
<path d="M106.896 465.342C106.896 465.79 106.812 466.177 106.644 466.504C106.476 466.831 106.233 467.097 105.916 467.302C105.608 467.507 105.244 467.652 104.824 467.736V467.792C105.627 467.885 106.224 468.137 106.616 468.548C107.008 468.959 107.204 469.495 107.204 470.158C107.204 470.737 107.069 471.255 106.798 471.712C106.527 472.16 106.107 472.51 105.538 472.762C104.978 473.014 104.255 473.14 103.368 473.14C102.845 473.14 102.36 473.098 101.912 473.014C101.464 472.939 101.035 472.799 100.624 472.594V471.446C101.044 471.651 101.497 471.815 101.982 471.936C102.467 472.048 102.934 472.104 103.382 472.104C104.278 472.104 104.922 471.931 105.314 471.586C105.715 471.231 105.916 470.746 105.916 470.13C105.916 469.71 105.804 469.374 105.58 469.122C105.365 468.861 105.048 468.669 104.628 468.548C104.208 468.427 103.704 468.366 103.116 468.366H102.15V467.316H103.13C103.681 467.316 104.138 467.237 104.502 467.078C104.875 466.919 105.155 466.7 105.342 466.42C105.538 466.131 105.636 465.799 105.636 465.426C105.636 464.941 105.473 464.567 105.146 464.306C104.819 464.035 104.376 463.9 103.816 463.9C103.461 463.9 103.139 463.937 102.85 464.012C102.561 464.077 102.29 464.175 102.038 464.306C101.795 464.427 101.548 464.572 101.296 464.74L100.68 463.9C100.923 463.713 101.198 463.541 101.506 463.382C101.823 463.223 102.173 463.097 102.556 463.004C102.939 462.911 103.354 462.864 103.802 462.864C104.847 462.864 105.622 463.097 106.126 463.564C106.639 464.031 106.896 464.623 106.896 465.342Z" fill="#FF9600"/>
<path d="M21.9898 131.436H29.7178V136.252H28.7238V132.346H27.3378V136.252H26.5118V132.346H25.1258V136.252H24.3138V132.346H22.9558V136.252H21.9898V131.436ZM20.7298 135.776H30.6838V136.714H20.7298V135.776ZM18.4618 125.122L19.0638 124.366C19.3438 124.487 19.6378 124.637 19.9458 124.814C20.2538 124.982 20.5385 125.159 20.7998 125.346C21.0705 125.523 21.2898 125.691 21.4578 125.85L20.8418 126.718C20.6738 126.55 20.4545 126.368 20.1838 126.172C19.9225 125.976 19.6425 125.789 19.3438 125.612C19.0452 125.425 18.7512 125.262 18.4618 125.122ZM17.7478 128.902L18.3358 128.118C18.6158 128.23 18.9098 128.365 19.2178 128.524C19.5258 128.683 19.8152 128.851 20.0858 129.028C20.3658 129.196 20.5898 129.359 20.7578 129.518L20.1558 130.372C19.9878 130.213 19.7685 130.045 19.4978 129.868C19.2272 129.691 18.9378 129.518 18.6298 129.35C18.3312 129.173 18.0372 129.023 17.7478 128.902ZM18.0698 136.294C18.2938 135.93 18.5365 135.501 18.7978 135.006C19.0592 134.502 19.3252 133.97 19.5958 133.41C19.8665 132.85 20.1185 132.309 20.3518 131.786L21.1778 132.416C20.9725 132.901 20.7438 133.41 20.4918 133.942C20.2492 134.474 19.9972 134.997 19.7358 135.51C19.4838 136.023 19.2365 136.499 18.9938 136.938L18.0698 136.294ZM23.4598 125.724V129.56H28.2198V125.724H23.4598ZM22.4938 124.898H29.2138V130.386H22.4938V124.898ZM25.6018 125.962L26.3718 126.06C26.2598 126.685 26.0172 127.292 25.6438 127.88C25.2798 128.468 24.8038 128.93 24.2158 129.266C24.1598 129.182 24.0852 129.089 23.9918 128.986C23.8985 128.883 23.8145 128.799 23.7398 128.734C24.2718 128.435 24.6918 128.034 24.9998 127.53C25.3172 127.017 25.5178 126.494 25.6018 125.962ZM25.3078 127.418L25.8398 126.998C26.0732 127.175 26.3158 127.376 26.5678 127.6C26.8198 127.815 27.0532 128.025 27.2678 128.23C27.4918 128.426 27.6785 128.603 27.8278 128.762L27.2818 129.252C27.1418 129.084 26.9598 128.893 26.7358 128.678C26.5118 128.463 26.2738 128.244 26.0218 128.02C25.7792 127.796 25.5412 127.595 25.3078 127.418ZM34.3658 128.16H44.3338V129.028H34.3658V128.16ZM34.5618 132.248H42.5838V133.116H34.5618V132.248ZM36.6198 126.942H37.6278V130.512H41.0298V126.942H42.0658V131.352H36.6198V126.942ZM42.3038 132.248H42.5138L42.6958 132.206L43.3538 132.556C42.9712 133.284 42.4718 133.914 41.8558 134.446C41.2398 134.969 40.5398 135.407 39.7558 135.762C38.9718 136.117 38.1318 136.401 37.2358 136.616C36.3398 136.84 35.4158 137.008 34.4638 137.12C34.4358 136.999 34.3752 136.849 34.2818 136.672C34.1978 136.495 34.1092 136.35 34.0158 136.238C34.9025 136.145 35.7705 136.009 36.6198 135.832C37.4692 135.645 38.2625 135.398 38.9998 135.09C39.7465 134.782 40.4045 134.409 40.9738 133.97C41.5432 133.531 41.9865 133.009 42.3038 132.402V132.248ZM37.0538 132.976C37.5018 133.601 38.1038 134.138 38.8598 134.586C39.6252 135.034 40.5025 135.393 41.4918 135.664C42.4812 135.935 43.5405 136.126 44.6698 136.238C44.6045 136.313 44.5298 136.406 44.4458 136.518C44.3712 136.63 44.2965 136.737 44.2218 136.84C44.1565 136.952 44.1005 137.055 44.0538 137.148C42.9058 136.999 41.8278 136.761 40.8198 136.434C39.8118 136.117 38.9065 135.701 38.1038 135.188C37.3105 134.665 36.6618 134.045 36.1578 133.326L37.0538 132.976ZM38.0898 124.24H39.1678V126.158H38.0898V124.24ZM33.4278 125.626H44.4178V126.578H33.4278V125.626ZM32.9098 125.626H33.9178V129.672C33.9178 130.213 33.8992 130.806 33.8618 131.45C33.8338 132.094 33.7685 132.752 33.6658 133.424C33.5725 134.096 33.4325 134.749 33.2458 135.384C33.0685 136.019 32.8258 136.602 32.5178 137.134C32.4618 137.078 32.3778 137.008 32.2658 136.924C32.1632 136.849 32.0558 136.775 31.9438 136.7C31.8412 136.635 31.7432 136.588 31.6498 136.56C31.9392 136.056 32.1678 135.515 32.3358 134.936C32.5038 134.348 32.6298 133.746 32.7138 133.13C32.7978 132.514 32.8492 131.912 32.8678 131.324C32.8958 130.727 32.9098 130.176 32.9098 129.672V125.626ZM51.8485 130.162C51.4005 130.162 51.0085 130.073 50.6725 129.896C50.3459 129.709 50.0892 129.457 49.9025 129.14C49.7159 128.813 49.6225 128.44 49.6225 128.02C49.6225 127.591 49.7112 127.217 49.8885 126.9C50.0752 126.573 50.3319 126.321 50.6585 126.144C50.9945 125.957 51.3912 125.864 51.8485 125.864C52.2872 125.864 52.6745 125.957 53.0105 126.144C53.3465 126.321 53.6079 126.573 53.7945 126.9C53.9812 127.217 54.0745 127.591 54.0745 128.02C54.0745 128.44 53.9812 128.813 53.7945 129.14C53.6079 129.457 53.3465 129.709 53.0105 129.896C52.6745 130.073 52.2872 130.162 51.8485 130.162ZM51.8625 129.336C52.3105 129.336 52.6372 129.215 52.8425 128.972C53.0572 128.729 53.1645 128.412 53.1645 128.02C53.1645 127.749 53.1132 127.516 53.0105 127.32C52.9172 127.115 52.7725 126.956 52.5765 126.844C52.3899 126.732 52.1519 126.676 51.8625 126.676C51.4052 126.676 51.0692 126.797 50.8545 127.04C50.6399 127.283 50.5325 127.609 50.5325 128.02C50.5325 128.412 50.6399 128.729 50.8545 128.972C51.0692 129.215 51.4052 129.336 51.8625 129.336ZM59.6745 126.97C59.1425 126.97 58.6619 127.063 58.2325 127.25C57.8032 127.427 57.4392 127.693 57.1405 128.048C56.8419 128.393 56.6132 128.818 56.4545 129.322C56.2959 129.817 56.2165 130.377 56.2165 131.002C56.2165 131.823 56.3425 132.537 56.5945 133.144C56.8559 133.751 57.2385 134.217 57.7425 134.544C58.2559 134.871 58.8952 135.034 59.6605 135.034C60.0992 135.034 60.5145 134.997 60.9065 134.922C61.2985 134.847 61.6812 134.754 62.0545 134.642V135.734C61.6812 135.874 61.2939 135.977 60.8925 136.042C60.5005 136.107 60.0292 136.14 59.4785 136.14C58.4612 136.14 57.6119 135.93 56.9305 135.51C56.2492 135.09 55.7359 134.493 55.3905 133.718C55.0545 132.943 54.8865 132.033 54.8865 130.988C54.8865 130.232 54.9892 129.541 55.1945 128.916C55.4092 128.291 55.7172 127.749 56.1185 127.292C56.5292 126.835 57.0332 126.485 57.6305 126.242C58.2279 125.99 58.9139 125.864 59.6885 125.864C60.2019 125.864 60.6965 125.915 61.1725 126.018C61.6485 126.121 62.0732 126.265 62.4465 126.452L61.9425 127.516C61.6345 127.376 61.2892 127.25 60.9065 127.138C60.5332 127.026 60.1225 126.97 59.6745 126.97Z" fill="#FF9600"/>
<path d="M39.7163 161.732H38.2603V164H37.0703V161.732H32.2823V160.682L36.9863 153.948H38.2603V160.626H39.7163V161.732ZM37.0703 157.476C37.0703 157.233 37.0703 157.014 37.0703 156.818C37.0796 156.613 37.0889 156.421 37.0983 156.244C37.1076 156.067 37.1123 155.899 37.1123 155.74C37.1216 155.572 37.1309 155.413 37.1403 155.264H37.0843C37.0096 155.441 36.9163 155.633 36.8043 155.838C36.6923 156.043 36.5849 156.216 36.4823 156.356L33.4863 160.626H37.0703V157.476ZM47.322 158.988C47.322 159.8 47.2613 160.523 47.14 161.158C47.0187 161.793 46.8227 162.334 46.552 162.782C46.2907 163.221 45.9453 163.557 45.516 163.79C45.096 164.023 44.5873 164.14 43.99 164.14C43.2433 164.14 42.6227 163.935 42.128 163.524C41.6427 163.113 41.2787 162.525 41.036 161.76C40.8027 160.985 40.686 160.061 40.686 158.988C40.686 157.905 40.7933 156.981 41.008 156.216C41.232 155.451 41.5867 154.867 42.072 154.466C42.5573 154.055 43.1967 153.85 43.99 153.85C44.7367 153.85 45.3573 154.055 45.852 154.466C46.3467 154.867 46.7153 155.451 46.958 156.216C47.2007 156.981 47.322 157.905 47.322 158.988ZM41.918 158.988C41.918 159.903 41.9833 160.663 42.114 161.27C42.254 161.877 42.4733 162.334 42.772 162.642C43.08 162.941 43.486 163.09 43.99 163.09C44.494 163.09 44.8953 162.941 45.194 162.642C45.502 162.343 45.726 161.891 45.866 161.284C46.006 160.668 46.076 159.903 46.076 158.988C46.076 158.073 46.006 157.317 45.866 156.72C45.726 156.113 45.502 155.661 45.194 155.362C44.8953 155.054 44.494 154.9 43.99 154.9C43.486 154.9 43.08 155.054 42.772 155.362C42.4733 155.661 42.254 156.113 42.114 156.72C41.9833 157.317 41.918 158.073 41.918 158.988Z" fill="#FF9600"/>
<path d="M38.8903 184.342C38.8903 184.79 38.8063 185.177 38.6383 185.504C38.4703 185.831 38.2276 186.097 37.9103 186.302C37.6023 186.507 37.2383 186.652 36.8183 186.736V186.792C37.6209 186.885 38.2183 187.137 38.6103 187.548C39.0023 187.959 39.1983 188.495 39.1983 189.158C39.1983 189.737 39.0629 190.255 38.7923 190.712C38.5216 191.16 38.1016 191.51 37.5323 191.762C36.9723 192.014 36.2489 192.14 35.3623 192.14C34.8396 192.14 34.3543 192.098 33.9063 192.014C33.4583 191.939 33.0289 191.799 32.6183 191.594V190.446C33.0383 190.651 33.4909 190.815 33.9763 190.936C34.4616 191.048 34.9283 191.104 35.3763 191.104C36.2723 191.104 36.9163 190.931 37.3083 190.586C37.7096 190.231 37.9103 189.746 37.9103 189.13C37.9103 188.71 37.7983 188.374 37.5743 188.122C37.3596 187.861 37.0423 187.669 36.6223 187.548C36.2023 187.427 35.6983 187.366 35.1103 187.366H34.1443V186.316H35.1243C35.6749 186.316 36.1323 186.237 36.4963 186.078C36.8696 185.919 37.1496 185.7 37.3363 185.42C37.5323 185.131 37.6303 184.799 37.6303 184.426C37.6303 183.941 37.4669 183.567 37.1403 183.306C36.8136 183.035 36.3703 182.9 35.8103 182.9C35.4556 182.9 35.1336 182.937 34.8443 183.012C34.5549 183.077 34.2843 183.175 34.0323 183.306C33.7896 183.427 33.5423 183.572 33.2903 183.74L32.6743 182.9C32.9169 182.713 33.1923 182.541 33.5003 182.382C33.8176 182.223 34.1676 182.097 34.5503 182.004C34.9329 181.911 35.3483 181.864 35.7963 181.864C36.8416 181.864 37.6163 182.097 38.1203 182.564C38.6336 183.031 38.8903 183.623 38.8903 184.342ZM43.99 181.864C44.578 181.864 45.096 181.957 45.544 182.144C45.992 182.321 46.342 182.587 46.594 182.942C46.8553 183.297 46.986 183.735 46.986 184.258C46.986 184.659 46.8973 185.009 46.72 185.308C46.552 185.607 46.3233 185.873 46.034 186.106C45.7447 186.33 45.4273 186.531 45.082 186.708C45.4927 186.904 45.866 187.128 46.202 187.38C46.538 187.623 46.804 187.907 47 188.234C47.2053 188.561 47.308 188.953 47.308 189.41C47.308 189.97 47.1727 190.455 46.902 190.866C46.6313 191.267 46.2487 191.58 45.754 191.804C45.2687 192.028 44.6947 192.14 44.032 192.14C43.3133 192.14 42.702 192.033 42.198 191.818C41.7033 191.603 41.3253 191.3 41.064 190.908C40.812 190.507 40.686 190.021 40.686 189.452C40.686 188.995 40.7793 188.598 40.966 188.262C41.162 187.926 41.4187 187.637 41.736 187.394C42.0533 187.151 42.394 186.946 42.758 186.778C42.4313 186.591 42.1327 186.381 41.862 186.148C41.6007 185.905 41.3907 185.63 41.232 185.322C41.0827 185.014 41.008 184.655 41.008 184.244C41.008 183.731 41.1387 183.301 41.4 182.956C41.6613 182.601 42.016 182.331 42.464 182.144C42.912 181.957 43.4207 181.864 43.99 181.864ZM41.89 189.466C41.89 189.951 42.0627 190.357 42.408 190.684C42.7533 191.001 43.2853 191.16 44.004 191.16C44.4613 191.16 44.844 191.085 45.152 190.936C45.46 190.787 45.6933 190.581 45.852 190.32C46.02 190.059 46.104 189.76 46.104 189.424C46.104 189.097 46.0153 188.813 45.838 188.57C45.67 188.318 45.4273 188.094 45.11 187.898C44.802 187.702 44.4333 187.525 44.004 187.366L43.78 187.282C43.3693 187.459 43.024 187.651 42.744 187.856C42.464 188.061 42.2493 188.295 42.1 188.556C41.96 188.817 41.89 189.121 41.89 189.466ZM43.976 182.858C43.4627 182.858 43.038 182.984 42.702 183.236C42.3753 183.479 42.212 183.833 42.212 184.3C42.212 184.645 42.2913 184.935 42.45 185.168C42.618 185.401 42.842 185.602 43.122 185.77C43.402 185.929 43.71 186.083 44.046 186.232C44.3727 186.092 44.662 185.938 44.914 185.77C45.1753 185.602 45.3807 185.401 45.53 185.168C45.6887 184.925 45.768 184.636 45.768 184.3C45.768 183.833 45.6047 183.479 45.278 183.236C44.9513 182.984 44.5173 182.858 43.976 182.858Z" fill="#FF9600"/>
<path d="M38.8903 212.342C38.8903 212.79 38.8063 213.177 38.6383 213.504C38.4703 213.831 38.2276 214.097 37.9103 214.302C37.6023 214.507 37.2383 214.652 36.8183 214.736V214.792C37.6209 214.885 38.2183 215.137 38.6103 215.548C39.0023 215.959 39.1983 216.495 39.1983 217.158C39.1983 217.737 39.0629 218.255 38.7923 218.712C38.5216 219.16 38.1016 219.51 37.5323 219.762C36.9723 220.014 36.2489 220.14 35.3623 220.14C34.8396 220.14 34.3543 220.098 33.9063 220.014C33.4583 219.939 33.0289 219.799 32.6183 219.594V218.446C33.0383 218.651 33.4909 218.815 33.9763 218.936C34.4616 219.048 34.9283 219.104 35.3763 219.104C36.2723 219.104 36.9163 218.931 37.3083 218.586C37.7096 218.231 37.9103 217.746 37.9103 217.13C37.9103 216.71 37.7983 216.374 37.5743 216.122C37.3596 215.861 37.0423 215.669 36.6223 215.548C36.2023 215.427 35.6983 215.366 35.1103 215.366H34.1443V214.316H35.1243C35.6749 214.316 36.1323 214.237 36.4963 214.078C36.8696 213.919 37.1496 213.7 37.3363 213.42C37.5323 213.131 37.6303 212.799 37.6303 212.426C37.6303 211.941 37.4669 211.567 37.1403 211.306C36.8136 211.035 36.3703 210.9 35.8103 210.9C35.4556 210.9 35.1336 210.937 34.8443 211.012C34.5549 211.077 34.2843 211.175 34.0323 211.306C33.7896 211.427 33.5423 211.572 33.2903 211.74L32.6743 210.9C32.9169 210.713 33.1923 210.541 33.5003 210.382C33.8176 210.223 34.1676 210.097 34.5503 210.004C34.9329 209.911 35.3483 209.864 35.7963 209.864C36.8416 209.864 37.6163 210.097 38.1203 210.564C38.6336 211.031 38.8903 211.623 38.8903 212.342ZM40.77 215.73C40.77 215.151 40.8073 214.582 40.882 214.022C40.966 213.462 41.106 212.935 41.302 212.44C41.498 211.936 41.7687 211.493 42.114 211.11C42.4593 210.718 42.8933 210.415 43.416 210.2C43.948 209.976 44.592 209.864 45.348 209.864C45.544 209.864 45.7587 209.873 45.992 209.892C46.2347 209.911 46.4307 209.943 46.58 209.99V211.04C46.412 210.984 46.2207 210.942 46.006 210.914C45.8007 210.886 45.5907 210.872 45.376 210.872C44.732 210.872 44.1953 210.979 43.766 211.194C43.3367 211.409 42.996 211.703 42.744 212.076C42.5013 212.449 42.324 212.879 42.212 213.364C42.1 213.849 42.03 214.367 42.002 214.918H42.086C42.226 214.694 42.4033 214.493 42.618 214.316C42.8327 214.139 43.0893 213.999 43.388 213.896C43.696 213.793 44.0507 213.742 44.452 213.742C45.0307 213.742 45.5347 213.863 45.964 214.106C46.4027 214.339 46.7433 214.685 46.986 215.142C47.2287 215.59 47.35 216.136 47.35 216.78C47.35 217.471 47.2193 218.068 46.958 218.572C46.6967 219.076 46.328 219.463 45.852 219.734C45.3853 220.005 44.8253 220.14 44.172 220.14C43.696 220.14 43.2527 220.051 42.842 219.874C42.4313 219.697 42.0673 219.426 41.75 219.062C41.442 218.698 41.1993 218.241 41.022 217.69C40.854 217.13 40.77 216.477 40.77 215.73ZM44.158 219.104C44.746 219.104 45.222 218.917 45.586 218.544C45.95 218.161 46.132 217.573 46.132 216.78C46.132 216.145 45.9687 215.641 45.642 215.268C45.3247 214.895 44.844 214.708 44.2 214.708C43.7613 214.708 43.3787 214.801 43.052 214.988C42.7253 215.165 42.4687 215.394 42.282 215.674C42.1047 215.954 42.016 216.243 42.016 216.542C42.016 216.85 42.058 217.153 42.142 217.452C42.2353 217.751 42.3707 218.026 42.548 218.278C42.7347 218.53 42.9587 218.731 43.22 218.88C43.4907 219.029 43.8033 219.104 44.158 219.104Z" fill="#FF9600"/>
<path d="M38.8903 240.342C38.8903 240.79 38.8063 241.177 38.6383 241.504C38.4703 241.831 38.2276 242.097 37.9103 242.302C37.6023 242.507 37.2383 242.652 36.8183 242.736V242.792C37.6209 242.885 38.2183 243.137 38.6103 243.548C39.0023 243.959 39.1983 244.495 39.1983 245.158C39.1983 245.737 39.0629 246.255 38.7923 246.712C38.5216 247.16 38.1016 247.51 37.5323 247.762C36.9723 248.014 36.2489 248.14 35.3623 248.14C34.8396 248.14 34.3543 248.098 33.9063 248.014C33.4583 247.939 33.0289 247.799 32.6183 247.594V246.446C33.0383 246.651 33.4909 246.815 33.9763 246.936C34.4616 247.048 34.9283 247.104 35.3763 247.104C36.2723 247.104 36.9163 246.931 37.3083 246.586C37.7096 246.231 37.9103 245.746 37.9103 245.13C37.9103 244.71 37.7983 244.374 37.5743 244.122C37.3596 243.861 37.0423 243.669 36.6223 243.548C36.2023 243.427 35.6983 243.366 35.1103 243.366H34.1443V242.316H35.1243C35.6749 242.316 36.1323 242.237 36.4963 242.078C36.8696 241.919 37.1496 241.7 37.3363 241.42C37.5323 241.131 37.6303 240.799 37.6303 240.426C37.6303 239.941 37.4669 239.567 37.1403 239.306C36.8136 239.035 36.3703 238.9 35.8103 238.9C35.4556 238.9 35.1336 238.937 34.8443 239.012C34.5549 239.077 34.2843 239.175 34.0323 239.306C33.7896 239.427 33.5423 239.572 33.2903 239.74L32.6743 238.9C32.9169 238.713 33.1923 238.541 33.5003 238.382C33.8176 238.223 34.1676 238.097 34.5503 238.004C34.9329 237.911 35.3483 237.864 35.7963 237.864C36.8416 237.864 37.6163 238.097 38.1203 238.564C38.6336 239.031 38.8903 239.623 38.8903 240.342ZM47.728 245.732H46.272V248H45.082V245.732H40.294V244.682L44.998 237.948H46.272V244.626H47.728V245.732ZM45.082 241.476C45.082 241.233 45.082 241.014 45.082 240.818C45.0913 240.613 45.1007 240.421 45.11 240.244C45.1193 240.067 45.124 239.899 45.124 239.74C45.1333 239.572 45.1427 239.413 45.152 239.264H45.096C45.0213 239.441 44.928 239.633 44.816 239.838C44.704 240.043 44.5967 240.216 44.494 240.356L41.498 244.626H45.082V241.476Z" fill="#FF9600"/>
<path d="M38.8903 268.342C38.8903 268.79 38.8063 269.177 38.6383 269.504C38.4703 269.831 38.2276 270.097 37.9103 270.302C37.6023 270.507 37.2383 270.652 36.8183 270.736V270.792C37.6209 270.885 38.2183 271.137 38.6103 271.548C39.0023 271.959 39.1983 272.495 39.1983 273.158C39.1983 273.737 39.0629 274.255 38.7923 274.712C38.5216 275.16 38.1016 275.51 37.5323 275.762C36.9723 276.014 36.2489 276.14 35.3623 276.14C34.8396 276.14 34.3543 276.098 33.9063 276.014C33.4583 275.939 33.0289 275.799 32.6183 275.594V274.446C33.0383 274.651 33.4909 274.815 33.9763 274.936C34.4616 275.048 34.9283 275.104 35.3763 275.104C36.2723 275.104 36.9163 274.931 37.3083 274.586C37.7096 274.231 37.9103 273.746 37.9103 273.13C37.9103 272.71 37.7983 272.374 37.5743 272.122C37.3596 271.861 37.0423 271.669 36.6223 271.548C36.2023 271.427 35.6983 271.366 35.1103 271.366H34.1443V270.316H35.1243C35.6749 270.316 36.1323 270.237 36.4963 270.078C36.8696 269.919 37.1496 269.7 37.3363 269.42C37.5323 269.131 37.6303 268.799 37.6303 268.426C37.6303 267.941 37.4669 267.567 37.1403 267.306C36.8136 267.035 36.3703 266.9 35.8103 266.9C35.4556 266.9 35.1336 266.937 34.8443 267.012C34.5549 267.077 34.2843 267.175 34.0323 267.306C33.7896 267.427 33.5423 267.572 33.2903 267.74L32.6743 266.9C32.9169 266.713 33.1923 266.541 33.5003 266.382C33.8176 266.223 34.1676 266.097 34.5503 266.004C34.9329 265.911 35.3483 265.864 35.7963 265.864C36.8416 265.864 37.6163 266.097 38.1203 266.564C38.6336 267.031 38.8903 267.623 38.8903 268.342ZM47.28 276H40.672V274.978L43.29 272.332C43.794 271.828 44.2187 271.38 44.564 270.988C44.9093 270.596 45.1707 270.213 45.348 269.84C45.5253 269.457 45.614 269.042 45.614 268.594C45.614 268.043 45.4507 267.628 45.124 267.348C44.7973 267.059 44.3727 266.914 43.85 266.914C43.3647 266.914 42.9353 266.998 42.562 267.166C42.198 267.334 41.8247 267.567 41.442 267.866L40.784 267.04C41.0453 266.816 41.33 266.615 41.638 266.438C41.9553 266.261 42.296 266.121 42.66 266.018C43.0333 265.915 43.43 265.864 43.85 265.864C44.4753 265.864 45.012 265.971 45.46 266.186C45.908 266.401 46.2533 266.709 46.496 267.11C46.748 267.502 46.874 267.973 46.874 268.524C46.874 268.916 46.8133 269.289 46.692 269.644C46.5707 269.989 46.398 270.33 46.174 270.666C45.95 271.002 45.6793 271.343 45.362 271.688C45.0447 272.033 44.6947 272.393 44.312 272.766L42.226 274.824V274.88H47.28V276Z" fill="#FF9600"/>
<path d="M38.8903 296.342C38.8903 296.79 38.8063 297.177 38.6383 297.504C38.4703 297.831 38.2276 298.097 37.9103 298.302C37.6023 298.507 37.2383 298.652 36.8183 298.736V298.792C37.6209 298.885 38.2183 299.137 38.6103 299.548C39.0023 299.959 39.1983 300.495 39.1983 301.158C39.1983 301.737 39.0629 302.255 38.7923 302.712C38.5216 303.16 38.1016 303.51 37.5323 303.762C36.9723 304.014 36.2489 304.14 35.3623 304.14C34.8396 304.14 34.3543 304.098 33.9063 304.014C33.4583 303.939 33.0289 303.799 32.6183 303.594V302.446C33.0383 302.651 33.4909 302.815 33.9763 302.936C34.4616 303.048 34.9283 303.104 35.3763 303.104C36.2723 303.104 36.9163 302.931 37.3083 302.586C37.7096 302.231 37.9103 301.746 37.9103 301.13C37.9103 300.71 37.7983 300.374 37.5743 300.122C37.3596 299.861 37.0423 299.669 36.6223 299.548C36.2023 299.427 35.6983 299.366 35.1103 299.366H34.1443V298.316H35.1243C35.6749 298.316 36.1323 298.237 36.4963 298.078C36.8696 297.919 37.1496 297.7 37.3363 297.42C37.5323 297.131 37.6303 296.799 37.6303 296.426C37.6303 295.941 37.4669 295.567 37.1403 295.306C36.8136 295.035 36.3703 294.9 35.8103 294.9C35.4556 294.9 35.1336 294.937 34.8443 295.012C34.5549 295.077 34.2843 295.175 34.0323 295.306C33.7896 295.427 33.5423 295.572 33.2903 295.74L32.6743 294.9C32.9169 294.713 33.1923 294.541 33.5003 294.382C33.8176 294.223 34.1676 294.097 34.5503 294.004C34.9329 293.911 35.3483 293.864 35.7963 293.864C36.8416 293.864 37.6163 294.097 38.1203 294.564C38.6336 295.031 38.8903 295.623 38.8903 296.342ZM47.322 298.988C47.322 299.8 47.2613 300.523 47.14 301.158C47.0187 301.793 46.8227 302.334 46.552 302.782C46.2907 303.221 45.9453 303.557 45.516 303.79C45.096 304.023 44.5873 304.14 43.99 304.14C43.2433 304.14 42.6227 303.935 42.128 303.524C41.6427 303.113 41.2787 302.525 41.036 301.76C40.8027 300.985 40.686 300.061 40.686 298.988C40.686 297.905 40.7933 296.981 41.008 296.216C41.232 295.451 41.5867 294.867 42.072 294.466C42.5573 294.055 43.1967 293.85 43.99 293.85C44.7367 293.85 45.3573 294.055 45.852 294.466C46.3467 294.867 46.7153 295.451 46.958 296.216C47.2007 296.981 47.322 297.905 47.322 298.988ZM41.918 298.988C41.918 299.903 41.9833 300.663 42.114 301.27C42.254 301.877 42.4733 302.334 42.772 302.642C43.08 302.941 43.486 303.09 43.99 303.09C44.494 303.09 44.8953 302.941 45.194 302.642C45.502 302.343 45.726 301.891 45.866 301.284C46.006 300.668 46.076 299.903 46.076 298.988C46.076 298.073 46.006 297.317 45.866 296.72C45.726 296.113 45.502 295.661 45.194 295.362C44.8953 295.054 44.494 294.9 43.99 294.9C43.486 294.9 43.08 295.054 42.772 295.362C42.4733 295.661 42.254 296.113 42.114 296.72C41.9833 297.317 41.918 298.073 41.918 298.988Z" fill="#FF9600"/>
<path d="M39.2683 332H32.6603V330.978L35.2783 328.332C35.7823 327.828 36.2069 327.38 36.5523 326.988C36.8976 326.596 37.1589 326.213 37.3363 325.84C37.5136 325.457 37.6023 325.042 37.6023 324.594C37.6023 324.043 37.4389 323.628 37.1123 323.348C36.7856 323.059 36.3609 322.914 35.8383 322.914C35.3529 322.914 34.9236 322.998 34.5503 323.166C34.1863 323.334 33.8129 323.567 33.4303 323.866L32.7723 323.04C33.0336 322.816 33.3183 322.615 33.6263 322.438C33.9436 322.261 34.2843 322.121 34.6483 322.018C35.0216 321.915 35.4183 321.864 35.8383 321.864C36.4636 321.864 37.0003 321.971 37.4483 322.186C37.8963 322.401 38.2416 322.709 38.4843 323.11C38.7363 323.502 38.8623 323.973 38.8623 324.524C38.8623 324.916 38.8016 325.289 38.6803 325.644C38.5589 325.989 38.3863 326.33 38.1623 326.666C37.9383 327.002 37.6676 327.343 37.3503 327.688C37.0329 328.033 36.6829 328.393 36.3003 328.766L34.2143 330.824V330.88H39.2683V332ZM43.99 321.864C44.578 321.864 45.096 321.957 45.544 322.144C45.992 322.321 46.342 322.587 46.594 322.942C46.8553 323.297 46.986 323.735 46.986 324.258C46.986 324.659 46.8973 325.009 46.72 325.308C46.552 325.607 46.3233 325.873 46.034 326.106C45.7447 326.33 45.4273 326.531 45.082 326.708C45.4927 326.904 45.866 327.128 46.202 327.38C46.538 327.623 46.804 327.907 47 328.234C47.2053 328.561 47.308 328.953 47.308 329.41C47.308 329.97 47.1727 330.455 46.902 330.866C46.6313 331.267 46.2487 331.58 45.754 331.804C45.2687 332.028 44.6947 332.14 44.032 332.14C43.3133 332.14 42.702 332.033 42.198 331.818C41.7033 331.603 41.3253 331.3 41.064 330.908C40.812 330.507 40.686 330.021 40.686 329.452C40.686 328.995 40.7793 328.598 40.966 328.262C41.162 327.926 41.4187 327.637 41.736 327.394C42.0533 327.151 42.394 326.946 42.758 326.778C42.4313 326.591 42.1327 326.381 41.862 326.148C41.6007 325.905 41.3907 325.63 41.232 325.322C41.0827 325.014 41.008 324.655 41.008 324.244C41.008 323.731 41.1387 323.301 41.4 322.956C41.6613 322.601 42.016 322.331 42.464 322.144C42.912 321.957 43.4207 321.864 43.99 321.864ZM41.89 329.466C41.89 329.951 42.0627 330.357 42.408 330.684C42.7533 331.001 43.2853 331.16 44.004 331.16C44.4613 331.16 44.844 331.085 45.152 330.936C45.46 330.787 45.6933 330.581 45.852 330.32C46.02 330.059 46.104 329.76 46.104 329.424C46.104 329.097 46.0153 328.813 45.838 328.57C45.67 328.318 45.4273 328.094 45.11 327.898C44.802 327.702 44.4333 327.525 44.004 327.366L43.78 327.282C43.3693 327.459 43.024 327.651 42.744 327.856C42.464 328.061 42.2493 328.295 42.1 328.556C41.96 328.817 41.89 329.121 41.89 329.466ZM43.976 322.858C43.4627 322.858 43.038 322.984 42.702 323.236C42.3753 323.479 42.212 323.833 42.212 324.3C42.212 324.645 42.2913 324.935 42.45 325.168C42.618 325.401 42.842 325.602 43.122 325.77C43.402 325.929 43.71 326.083 44.046 326.232C44.3727 326.092 44.662 325.938 44.914 325.77C45.1753 325.602 45.3807 325.401 45.53 325.168C45.6887 324.925 45.768 324.636 45.768 324.3C45.768 323.833 45.6047 323.479 45.278 323.236C44.9513 322.984 44.5173 322.858 43.976 322.858Z" fill="#FF9600"/>
<path d="M39.2683 360H32.6603V358.978L35.2783 356.332C35.7823 355.828 36.2069 355.38 36.5523 354.988C36.8976 354.596 37.1589 354.213 37.3363 353.84C37.5136 353.457 37.6023 353.042 37.6023 352.594C37.6023 352.043 37.4389 351.628 37.1123 351.348C36.7856 351.059 36.3609 350.914 35.8383 350.914C35.3529 350.914 34.9236 350.998 34.5503 351.166C34.1863 351.334 33.8129 351.567 33.4303 351.866L32.7723 351.04C33.0336 350.816 33.3183 350.615 33.6263 350.438C33.9436 350.261 34.2843 350.121 34.6483 350.018C35.0216 349.915 35.4183 349.864 35.8383 349.864C36.4636 349.864 37.0003 349.971 37.4483 350.186C37.8963 350.401 38.2416 350.709 38.4843 351.11C38.7363 351.502 38.8623 351.973 38.8623 352.524C38.8623 352.916 38.8016 353.289 38.6803 353.644C38.5589 353.989 38.3863 354.33 38.1623 354.666C37.9383 355.002 37.6676 355.343 37.3503 355.688C37.0329 356.033 36.6829 356.393 36.3003 356.766L34.2143 358.824V358.88H39.2683V360ZM40.77 355.73C40.77 355.151 40.8073 354.582 40.882 354.022C40.966 353.462 41.106 352.935 41.302 352.44C41.498 351.936 41.7687 351.493 42.114 351.11C42.4593 350.718 42.8933 350.415 43.416 350.2C43.948 349.976 44.592 349.864 45.348 349.864C45.544 349.864 45.7587 349.873 45.992 349.892C46.2347 349.911 46.4307 349.943 46.58 349.99V351.04C46.412 350.984 46.2207 350.942 46.006 350.914C45.8007 350.886 45.5907 350.872 45.376 350.872C44.732 350.872 44.1953 350.979 43.766 351.194C43.3367 351.409 42.996 351.703 42.744 352.076C42.5013 352.449 42.324 352.879 42.212 353.364C42.1 353.849 42.03 354.367 42.002 354.918H42.086C42.226 354.694 42.4033 354.493 42.618 354.316C42.8327 354.139 43.0893 353.999 43.388 353.896C43.696 353.793 44.0507 353.742 44.452 353.742C45.0307 353.742 45.5347 353.863 45.964 354.106C46.4027 354.339 46.7433 354.685 46.986 355.142C47.2287 355.59 47.35 356.136 47.35 356.78C47.35 357.471 47.2193 358.068 46.958 358.572C46.6967 359.076 46.328 359.463 45.852 359.734C45.3853 360.005 44.8253 360.14 44.172 360.14C43.696 360.14 43.2527 360.051 42.842 359.874C42.4313 359.697 42.0673 359.426 41.75 359.062C41.442 358.698 41.1993 358.241 41.022 357.69C40.854 357.13 40.77 356.477 40.77 355.73ZM44.158 359.104C44.746 359.104 45.222 358.917 45.586 358.544C45.95 358.161 46.132 357.573 46.132 356.78C46.132 356.145 45.9687 355.641 45.642 355.268C45.3247 354.895 44.844 354.708 44.2 354.708C43.7613 354.708 43.3787 354.801 43.052 354.988C42.7253 355.165 42.4687 355.394 42.282 355.674C42.1047 355.954 42.016 356.243 42.016 356.542C42.016 356.85 42.058 357.153 42.142 357.452C42.2353 357.751 42.3707 358.026 42.548 358.278C42.7347 358.53 42.9587 358.731 43.22 358.88C43.4907 359.029 43.8033 359.104 44.158 359.104Z" fill="#FF9600"/>
<path d="M39.2683 388H32.6603V386.978L35.2783 384.332C35.7823 383.828 36.2069 383.38 36.5523 382.988C36.8976 382.596 37.1589 382.213 37.3363 381.84C37.5136 381.457 37.6023 381.042 37.6023 380.594C37.6023 380.043 37.4389 379.628 37.1123 379.348C36.7856 379.059 36.3609 378.914 35.8383 378.914C35.3529 378.914 34.9236 378.998 34.5503 379.166C34.1863 379.334 33.8129 379.567 33.4303 379.866L32.7723 379.04C33.0336 378.816 33.3183 378.615 33.6263 378.438C33.9436 378.261 34.2843 378.121 34.6483 378.018C35.0216 377.915 35.4183 377.864 35.8383 377.864C36.4636 377.864 37.0003 377.971 37.4483 378.186C37.8963 378.401 38.2416 378.709 38.4843 379.11C38.7363 379.502 38.8623 379.973 38.8623 380.524C38.8623 380.916 38.8016 381.289 38.6803 381.644C38.5589 381.989 38.3863 382.33 38.1623 382.666C37.9383 383.002 37.6676 383.343 37.3503 383.688C37.0329 384.033 36.6829 384.393 36.3003 384.766L34.2143 386.824V386.88H39.2683V388ZM47.728 385.732H46.272V388H45.082V385.732H40.294V384.682L44.998 377.948H46.272V384.626H47.728V385.732ZM45.082 381.476C45.082 381.233 45.082 381.014 45.082 380.818C45.0913 380.613 45.1007 380.421 45.11 380.244C45.1193 380.067 45.124 379.899 45.124 379.74C45.1333 379.572 45.1427 379.413 45.152 379.264H45.096C45.0213 379.441 44.928 379.633 44.816 379.838C44.704 380.043 44.5967 380.216 44.494 380.356L41.498 384.626H45.082V381.476Z" fill="#FF9600"/>
<path d="M39.2683 416H32.6603V414.978L35.2783 412.332C35.7823 411.828 36.2069 411.38 36.5523 410.988C36.8976 410.596 37.1589 410.213 37.3363 409.84C37.5136 409.457 37.6023 409.042 37.6023 408.594C37.6023 408.043 37.4389 407.628 37.1123 407.348C36.7856 407.059 36.3609 406.914 35.8383 406.914C35.3529 406.914 34.9236 406.998 34.5503 407.166C34.1863 407.334 33.8129 407.567 33.4303 407.866L32.7723 407.04C33.0336 406.816 33.3183 406.615 33.6263 406.438C33.9436 406.261 34.2843 406.121 34.6483 406.018C35.0216 405.915 35.4183 405.864 35.8383 405.864C36.4636 405.864 37.0003 405.971 37.4483 406.186C37.8963 406.401 38.2416 406.709 38.4843 407.11C38.7363 407.502 38.8623 407.973 38.8623 408.524C38.8623 408.916 38.8016 409.289 38.6803 409.644C38.5589 409.989 38.3863 410.33 38.1623 410.666C37.9383 411.002 37.6676 411.343 37.3503 411.688C37.0329 412.033 36.6829 412.393 36.3003 412.766L34.2143 414.824V414.88H39.2683V416ZM47.28 416H40.672V414.978L43.29 412.332C43.794 411.828 44.2187 411.38 44.564 410.988C44.9093 410.596 45.1707 410.213 45.348 409.84C45.5253 409.457 45.614 409.042 45.614 408.594C45.614 408.043 45.4507 407.628 45.124 407.348C44.7973 407.059 44.3727 406.914 43.85 406.914C43.3647 406.914 42.9353 406.998 42.562 407.166C42.198 407.334 41.8247 407.567 41.442 407.866L40.784 407.04C41.0453 406.816 41.33 406.615 41.638 406.438C41.9553 406.261 42.296 406.121 42.66 406.018C43.0333 405.915 43.43 405.864 43.85 405.864C44.4753 405.864 45.012 405.971 45.46 406.186C45.908 406.401 46.2533 406.709 46.496 407.11C46.748 407.502 46.874 407.973 46.874 408.524C46.874 408.916 46.8133 409.289 46.692 409.644C46.5707 409.989 46.398 410.33 46.174 410.666C45.95 411.002 45.6793 411.343 45.362 411.688C45.0447 412.033 44.6947 412.393 44.312 412.766L42.226 414.824V414.88H47.28V416Z" fill="#FF9600"/>
<path d="M39.2683 444H32.6603V442.978L35.2783 440.332C35.7823 439.828 36.2069 439.38 36.5523 438.988C36.8976 438.596 37.1589 438.213 37.3363 437.84C37.5136 437.457 37.6023 437.042 37.6023 436.594C37.6023 436.043 37.4389 435.628 37.1123 435.348C36.7856 435.059 36.3609 434.914 35.8383 434.914C35.3529 434.914 34.9236 434.998 34.5503 435.166C34.1863 435.334 33.8129 435.567 33.4303 435.866L32.7723 435.04C33.0336 434.816 33.3183 434.615 33.6263 434.438C33.9436 434.261 34.2843 434.121 34.6483 434.018C35.0216 433.915 35.4183 433.864 35.8383 433.864C36.4636 433.864 37.0003 433.971 37.4483 434.186C37.8963 434.401 38.2416 434.709 38.4843 435.11C38.7363 435.502 38.8623 435.973 38.8623 436.524C38.8623 436.916 38.8016 437.289 38.6803 437.644C38.5589 437.989 38.3863 438.33 38.1623 438.666C37.9383 439.002 37.6676 439.343 37.3503 439.688C37.0329 440.033 36.6829 440.393 36.3003 440.766L34.2143 442.824V442.88H39.2683V444ZM47.322 438.988C47.322 439.8 47.2613 440.523 47.14 441.158C47.0187 441.793 46.8227 442.334 46.552 442.782C46.2907 443.221 45.9453 443.557 45.516 443.79C45.096 444.023 44.5873 444.14 43.99 444.14C43.2433 444.14 42.6227 443.935 42.128 443.524C41.6427 443.113 41.2787 442.525 41.036 441.76C40.8027 440.985 40.686 440.061 40.686 438.988C40.686 437.905 40.7933 436.981 41.008 436.216C41.232 435.451 41.5867 434.867 42.072 434.466C42.5573 434.055 43.1967 433.85 43.99 433.85C44.7367 433.85 45.3573 434.055 45.852 434.466C46.3467 434.867 46.7153 435.451 46.958 436.216C47.2007 436.981 47.322 437.905 47.322 438.988ZM41.918 438.988C41.918 439.903 41.9833 440.663 42.114 441.27C42.254 441.877 42.4733 442.334 42.772 442.642C43.08 442.941 43.486 443.09 43.99 443.09C44.494 443.09 44.8953 442.941 45.194 442.642C45.502 442.343 45.726 441.891 45.866 441.284C46.006 440.668 46.076 439.903 46.076 438.988C46.076 438.073 46.006 437.317 45.866 436.72C45.726 436.113 45.502 435.661 45.194 435.362C44.8953 435.054 44.494 434.9 43.99 434.9C43.486 434.9 43.08 435.054 42.772 435.362C42.4733 435.661 42.254 436.113 42.114 436.72C41.9833 437.317 41.918 438.073 41.918 438.988Z" fill="#FF9600"/>
<path d="M345.894 462.906H352.908V463.844H345.894V462.906ZM345.306 465.622H353.496V466.574H345.306V465.622ZM345.376 468.156H353.356V469.094H345.376V468.156ZM348.834 461.226H349.87V466.21H348.834V461.226ZM350.682 466.42H351.718V472.874C351.718 473.173 351.676 473.401 351.592 473.56C351.508 473.728 351.359 473.849 351.144 473.924C350.92 474.008 350.626 474.059 350.262 474.078C349.898 474.097 349.431 474.106 348.862 474.106C348.843 473.966 348.797 473.798 348.722 473.602C348.657 473.415 348.587 473.252 348.512 473.112C348.941 473.121 349.333 473.126 349.688 473.126C350.043 473.135 350.276 473.135 350.388 473.126C350.5 473.126 350.575 473.107 350.612 473.07C350.659 473.033 350.682 472.963 350.682 472.86V466.42ZM346.23 470.074L347.07 469.584C347.303 469.817 347.541 470.079 347.784 470.368C348.027 470.657 348.246 470.942 348.442 471.222C348.647 471.502 348.801 471.759 348.904 471.992L348.008 472.538C347.905 472.305 347.756 472.048 347.56 471.768C347.373 471.479 347.163 471.189 346.93 470.9C346.697 470.601 346.463 470.326 346.23 470.074ZM341.568 462.15H345.068V471.362H341.568V470.41H344.074V463.116H341.568V462.15ZM341.61 466.224H344.536V467.176H341.61V466.224ZM341.064 462.15H342.044V472.51H341.064V462.15Z" fill="#FF9600"/>
</g>
<g filter="url(#filter10_d_375_16468)">
<path d="M115 532C115 523.163 122.163 516 131 516H249C257.837 516 265 523.163 265 532V550C265 558.837 257.837 566 249 566H131C122.163 566 115 558.837 115 550V532Z" fill="#FFFEFA" shape-rendering="crispEdges"/>
<path d="M139.9 533.64C139.5 534.253 139 534.9 138.4 535.58C137.813 536.26 137.16 536.94 136.44 537.62C135.72 538.3 134.953 538.953 134.14 539.58C133.327 540.207 132.493 540.773 131.64 541.28C131.573 541.16 131.487 541.033 131.38 540.9C131.273 540.753 131.16 540.607 131.04 540.46C130.92 540.313 130.807 540.193 130.7 540.1C131.567 539.607 132.413 539.04 133.24 538.4C134.067 537.76 134.847 537.087 135.58 536.38C136.327 535.66 137 534.94 137.6 534.22C138.2 533.5 138.693 532.807 139.08 532.14H140.58C141.1 532.887 141.7 533.633 142.38 534.38C143.06 535.113 143.787 535.82 144.56 536.5C145.347 537.18 146.147 537.813 146.96 538.4C147.787 538.973 148.587 539.467 149.36 539.88C149.173 540.053 148.993 540.26 148.82 540.5C148.647 540.727 148.493 540.953 148.36 541.18C147.587 540.713 146.793 540.18 145.98 539.58C145.18 538.98 144.4 538.347 143.64 537.68C142.88 537 142.18 536.32 141.54 535.64C140.9 534.947 140.353 534.28 139.9 533.64ZM135.62 538.52H144.38V539.92H135.62V538.52ZM133.04 542.44H145.18V543.88H133.04V542.44ZM144.88 542.44H145.1L145.38 542.36L146.56 542.72C146.24 543.453 145.867 544.287 145.44 545.22C145.027 546.14 144.587 547.073 144.12 548.02C143.667 548.953 143.227 549.84 142.8 550.68L141.24 550.24C141.56 549.627 141.893 548.973 142.24 548.28C142.587 547.573 142.927 546.873 143.26 546.18C143.593 545.487 143.9 544.833 144.18 544.22C144.46 543.607 144.693 543.08 144.88 542.64V542.44ZM153.52 533.56H166.64V550.28H165.04V535.06H155.06V550.38H153.52V533.56ZM154.56 540.48H165.72V541.96H154.56V540.48ZM154.52 547.58H165.74V549.08H154.52V547.58ZM176.82 542.48H187.86V549.36H186.44V543.78H184.46V549.36H183.28V543.78H181.3V549.36H180.14V543.78H178.2V549.36H176.82V542.48ZM175.02 548.68H189.24V550.02H175.02V548.68ZM171.78 533.46L172.64 532.38C173.04 532.553 173.46 532.767 173.9 533.02C174.34 533.26 174.747 533.513 175.12 533.78C175.507 534.033 175.82 534.273 176.06 534.5L175.18 535.74C174.94 535.5 174.627 535.24 174.24 534.96C173.867 534.68 173.467 534.413 173.04 534.16C172.613 533.893 172.193 533.66 171.78 533.46ZM170.76 538.86L171.6 537.74C172 537.9 172.42 538.093 172.86 538.32C173.3 538.547 173.713 538.787 174.1 539.04C174.5 539.28 174.82 539.513 175.06 539.74L174.2 540.96C173.96 540.733 173.647 540.493 173.26 540.24C172.873 539.987 172.46 539.74 172.02 539.5C171.593 539.247 171.173 539.033 170.76 538.86ZM171.22 549.42C171.54 548.9 171.887 548.287 172.26 547.58C172.633 546.86 173.013 546.1 173.4 545.3C173.787 544.5 174.147 543.727 174.48 542.98L175.66 543.88C175.367 544.573 175.04 545.3 174.68 546.06C174.333 546.82 173.973 547.567 173.6 548.3C173.24 549.033 172.887 549.713 172.54 550.34L171.22 549.42ZM178.92 534.32V539.8H185.72V534.32H178.92ZM177.54 533.14H187.14V540.98H177.54V533.14ZM181.98 534.66L183.08 534.8C182.92 535.693 182.573 536.56 182.04 537.4C181.52 538.24 180.84 538.9 180 539.38C179.92 539.26 179.813 539.127 179.68 538.98C179.547 538.833 179.427 538.713 179.32 538.62C180.08 538.193 180.68 537.62 181.12 536.9C181.573 536.167 181.86 535.42 181.98 534.66ZM181.56 536.74L182.32 536.14C182.653 536.393 183 536.68 183.36 537C183.72 537.307 184.053 537.607 184.36 537.9C184.68 538.18 184.947 538.433 185.16 538.66L184.38 539.36C184.18 539.12 183.92 538.847 183.6 538.54C183.28 538.233 182.94 537.92 182.58 537.6C182.233 537.28 181.893 536.993 181.56 536.74ZM194.5 537.8H208.74V539.04H194.5V537.8ZM194.78 543.64H206.24V544.88H194.78V543.64ZM197.72 536.06H199.16V541.16H204.02V536.06H205.5V542.36H197.72V536.06ZM205.84 543.64H206.14L206.4 543.58L207.34 544.08C206.793 545.12 206.08 546.02 205.2 546.78C204.32 547.527 203.32 548.153 202.2 548.66C201.08 549.167 199.88 549.573 198.6 549.88C197.32 550.2 196 550.44 194.64 550.6C194.6 550.427 194.513 550.213 194.38 549.96C194.26 549.707 194.133 549.5 194 549.34C195.267 549.207 196.507 549.013 197.72 548.76C198.933 548.493 200.067 548.14 201.12 547.7C202.187 547.26 203.127 546.727 203.94 546.1C204.753 545.473 205.387 544.727 205.84 543.86V543.64ZM198.34 544.68C198.98 545.573 199.84 546.34 200.92 546.98C202.013 547.62 203.267 548.133 204.68 548.52C206.093 548.907 207.607 549.18 209.22 549.34C209.127 549.447 209.02 549.58 208.9 549.74C208.793 549.9 208.687 550.053 208.58 550.2C208.487 550.36 208.407 550.507 208.34 550.64C206.7 550.427 205.16 550.087 203.72 549.62C202.28 549.167 200.987 548.573 199.84 547.84C198.707 547.093 197.78 546.207 197.06 545.18L198.34 544.68ZM199.82 532.2H201.36V534.94H199.82V532.2ZM193.16 534.18H208.86V535.54H193.16V534.18ZM192.42 534.18H193.86V539.96C193.86 540.733 193.833 541.58 193.78 542.5C193.74 543.42 193.647 544.36 193.5 545.32C193.367 546.28 193.167 547.213 192.9 548.12C192.647 549.027 192.3 549.86 191.86 550.62C191.78 550.54 191.66 550.44 191.5 550.32C191.353 550.213 191.2 550.107 191.04 550C190.893 549.907 190.753 549.84 190.62 549.8C191.033 549.08 191.36 548.307 191.6 547.48C191.84 546.64 192.02 545.78 192.14 544.9C192.26 544.02 192.333 543.16 192.36 542.32C192.4 541.467 192.42 540.68 192.42 539.96V534.18ZM220.9 539.56L222.22 539.88C221.86 540.733 221.407 541.56 220.86 542.36C220.327 543.147 219.773 543.82 219.2 544.38C219.12 544.3 219.007 544.213 218.86 544.12C218.713 544.013 218.567 543.913 218.42 543.82C218.287 543.713 218.167 543.633 218.06 543.58C218.647 543.073 219.187 542.467 219.68 541.76C220.187 541.053 220.593 540.32 220.9 539.56ZM221.02 540.9H227.82V542H220.3L221.02 540.9ZM227.44 540.9H228.74C228.74 540.9 228.74 540.973 228.74 541.12C228.74 541.253 228.733 541.367 228.72 541.46C228.64 542.753 228.56 543.8 228.48 544.6C228.4 545.4 228.307 546.013 228.2 546.44C228.093 546.853 227.953 547.147 227.78 547.32C227.66 547.48 227.507 547.593 227.32 547.66C227.147 547.727 226.933 547.767 226.68 547.78C226.493 547.807 226.22 547.82 225.86 547.82C225.5 547.807 225.127 547.793 224.74 547.78C224.727 547.62 224.693 547.44 224.64 547.24C224.587 547.027 224.513 546.847 224.42 546.7C224.807 546.74 225.153 546.767 225.46 546.78C225.767 546.78 225.98 546.78 226.1 546.78C226.247 546.793 226.367 546.787 226.46 546.76C226.553 546.733 226.633 546.68 226.7 546.6C226.807 546.48 226.9 546.227 226.98 545.84C227.06 545.453 227.14 544.88 227.22 544.12C227.3 543.36 227.373 542.36 227.44 541.12V540.9ZM222.22 542.62H223.36V544.6C223.36 544.933 223.307 545.267 223.2 545.6C223.107 545.933 222.927 546.26 222.66 546.58C222.393 546.887 222.007 547.173 221.5 547.44C221.007 547.707 220.353 547.94 219.54 548.14C219.473 548.007 219.373 547.86 219.24 547.7C219.12 547.54 218.993 547.407 218.86 547.3C219.593 547.153 220.18 546.973 220.62 546.76C221.06 546.547 221.393 546.32 221.62 546.08C221.86 545.84 222.02 545.593 222.1 545.34C222.18 545.073 222.22 544.827 222.22 544.6V542.62ZM219.68 543.02H220.74V544.78H224.88V543.02H225.96V545.78H219.68V543.02ZM221.08 532.1L222.38 532.42C222.02 533.287 221.567 534.12 221.02 534.92C220.487 535.72 219.927 536.393 219.34 536.94C219.26 536.873 219.153 536.793 219.02 536.7C218.887 536.607 218.747 536.513 218.6 536.42C218.467 536.313 218.34 536.233 218.22 536.18C218.82 535.673 219.367 535.06 219.86 534.34C220.367 533.62 220.773 532.873 221.08 532.1ZM221.18 533.4H227.78V534.5H220.44L221.18 533.4ZM227.36 533.4H228.66C228.66 533.4 228.653 533.473 228.64 533.62C228.64 533.753 228.633 533.867 228.62 533.96C228.567 535.173 228.493 536.16 228.4 536.92C228.32 537.667 228.227 538.24 228.12 538.64C228.013 539.027 227.887 539.307 227.74 539.48C227.607 539.64 227.453 539.753 227.28 539.82C227.107 539.887 226.9 539.927 226.66 539.94C226.46 539.953 226.187 539.96 225.84 539.96C225.507 539.96 225.14 539.947 224.74 539.92C224.727 539.76 224.693 539.587 224.64 539.4C224.6 539.2 224.533 539.033 224.44 538.9C224.813 538.94 225.147 538.967 225.44 538.98C225.747 538.98 225.967 538.98 226.1 538.98C226.22 538.98 226.327 538.973 226.42 538.96C226.513 538.933 226.593 538.88 226.66 538.8C226.767 538.68 226.86 538.44 226.94 538.08C227.02 537.72 227.093 537.18 227.16 536.46C227.24 535.74 227.307 534.793 227.36 533.62V533.4ZM222.38 535.1H223.44V537.2C223.44 537.52 223.387 537.833 223.28 538.14C223.173 538.447 222.987 538.74 222.72 539.02C222.453 539.3 222.067 539.56 221.56 539.8C221.067 540.027 220.42 540.227 219.62 540.4C219.567 540.28 219.48 540.147 219.36 540C219.253 539.84 219.147 539.707 219.04 539.6C219.747 539.48 220.32 539.333 220.76 539.16C221.2 538.973 221.533 538.773 221.76 538.56C222 538.333 222.16 538.107 222.24 537.88C222.333 537.64 222.38 537.413 222.38 537.2V535.1ZM219.9 535.48H220.92V537.16H224.92V535.48H226V538.12H219.9V535.48ZM211.48 534.64H218.28V535.96H211.48V534.64ZM210.98 538.32H218.8V539.68H210.98V538.32ZM215.2 542.2H218.56V543.54H215.2V542.2ZM214.28 532.2H215.66V539.14H214.28V532.2ZM214.7 539.24H216.04V548.26H214.7V539.24ZM213.12 543.6C213.4 544.653 213.767 545.513 214.22 546.18C214.673 546.833 215.22 547.34 215.86 547.7C216.513 548.047 217.28 548.293 218.16 548.44C219.053 548.573 220.08 548.64 221.24 548.64C221.4 548.64 221.673 548.64 222.06 548.64C222.46 548.64 222.927 548.64 223.46 548.64C224.007 548.64 224.573 548.64 225.16 548.64C225.76 548.64 226.333 548.64 226.88 548.64C227.44 548.627 227.933 548.62 228.36 548.62C228.8 548.607 229.113 548.6 229.3 548.6C229.22 548.707 229.14 548.847 229.06 549.02C228.98 549.207 228.907 549.393 228.84 549.58C228.773 549.767 228.727 549.933 228.7 550.08H227.24H221.24C219.907 550.08 218.733 549.993 217.72 549.82C216.72 549.66 215.853 549.36 215.12 548.92C214.4 548.48 213.787 547.86 213.28 547.06C212.773 546.26 212.347 545.233 212 543.98L213.12 543.6ZM211.96 541.24L213.2 541.32C213.213 542.307 213.187 543.347 213.12 544.44C213.053 545.52 212.893 546.587 212.64 547.64C212.4 548.693 212.007 549.667 211.46 550.56C211.393 550.453 211.3 550.34 211.18 550.22C211.073 550.113 210.953 550.007 210.82 549.9C210.7 549.807 210.587 549.74 210.48 549.7C210.947 548.887 211.287 547.993 211.5 547.02C211.713 546.047 211.847 545.067 211.9 544.08C211.967 543.08 211.987 542.133 211.96 541.24ZM234.88 538.52H236.26V542.52L234.88 542.62V538.52ZM231.08 535.44H240.14V536.5H231.08V535.44ZM231.88 533.36H239.3V534.38H231.88V533.36ZM234.88 532.2H236.26V536.1H234.88V532.2ZM230.94 542.26C231.673 542.207 232.513 542.153 233.46 542.1C234.407 542.047 235.413 541.98 236.48 541.9C237.547 541.82 238.62 541.74 239.7 541.66L239.68 542.74C238.64 542.82 237.6 542.9 236.56 542.98C235.52 543.06 234.527 543.14 233.58 543.22C232.647 543.287 231.8 543.353 231.04 543.42L230.94 542.26ZM233.64 536.18L234.82 536.22C234.7 537.047 234.353 537.713 233.78 538.22C233.207 538.713 232.48 539.087 231.6 539.34C231.547 539.207 231.453 539.047 231.32 538.86C231.2 538.66 231.087 538.5 230.98 538.38C231.7 538.22 232.3 537.967 232.78 537.62C233.273 537.273 233.56 536.793 233.64 536.18ZM236.26 535.94H237.46V537.42C237.46 537.58 237.48 537.68 237.52 537.72C237.56 537.76 237.653 537.78 237.8 537.78C237.853 537.78 237.94 537.78 238.06 537.78C238.193 537.78 238.327 537.78 238.46 537.78C238.607 537.78 238.707 537.78 238.76 537.78C238.907 537.78 239 537.74 239.04 537.66C239.093 537.58 239.127 537.38 239.14 537.06C239.247 537.14 239.393 537.213 239.58 537.28C239.78 537.333 239.96 537.38 240.12 537.42C240.08 537.913 239.973 538.247 239.8 538.42C239.627 538.593 239.34 538.68 238.94 538.68C238.873 538.68 238.747 538.68 238.56 538.68C238.387 538.68 238.207 538.68 238.02 538.68C237.847 538.68 237.72 538.68 237.64 538.68C237.28 538.68 236.993 538.647 236.78 538.58C236.58 538.513 236.44 538.393 236.36 538.22C236.293 538.033 236.26 537.767 236.26 537.42V535.94ZM231.82 539.64H239.4V540.66H231.82V539.64ZM232.24 544.68H246.32V545.88H232.24V544.68ZM245.92 544.68H247.46C247.46 544.68 247.453 544.72 247.44 544.8C247.44 544.867 247.433 544.953 247.42 545.06C247.42 545.167 247.413 545.253 247.4 545.32C247.293 546.307 247.18 547.12 247.06 547.76C246.953 548.387 246.827 548.88 246.68 549.24C246.547 549.613 246.387 549.893 246.2 550.08C246 550.253 245.787 550.373 245.56 550.44C245.347 550.507 245.087 550.553 244.78 550.58C244.487 550.593 244.087 550.593 243.58 550.58C243.073 550.58 242.527 550.567 241.94 550.54C241.927 550.327 241.88 550.093 241.8 549.84C241.72 549.587 241.62 549.367 241.5 549.18C242.06 549.22 242.6 549.247 243.12 549.26C243.64 549.287 243.993 549.3 244.18 549.3C244.393 549.3 244.553 549.287 244.66 549.26C244.78 549.247 244.887 549.2 244.98 549.12C245.113 549 245.233 548.787 245.34 548.48C245.447 548.16 245.547 547.713 245.64 547.14C245.747 546.553 245.84 545.8 245.92 544.88V544.68ZM239.12 543.46H240.66C240.54 544.26 240.36 544.993 240.12 545.66C239.893 546.313 239.58 546.907 239.18 547.44C238.78 547.973 238.26 548.447 237.62 548.86C236.98 549.273 236.187 549.627 235.24 549.92C234.293 550.213 233.153 550.453 231.82 550.64C231.78 550.467 231.687 550.253 231.54 550C231.393 549.76 231.26 549.56 231.14 549.4C232.367 549.24 233.413 549.04 234.28 548.8C235.147 548.56 235.873 548.273 236.46 547.94C237.047 547.607 237.513 547.22 237.86 546.78C238.22 546.34 238.493 545.847 238.68 545.3C238.867 544.74 239.013 544.127 239.12 543.46ZM240.26 538.08L240.92 537.12C241.493 537.387 242.08 537.7 242.68 538.06C243.293 538.407 243.86 538.767 244.38 539.14C244.913 539.5 245.347 539.847 245.68 540.18L244.98 541.3C244.66 540.953 244.24 540.587 243.72 540.2C243.2 539.813 242.633 539.433 242.02 539.06C241.42 538.687 240.833 538.36 240.26 538.08ZM240.6 534.58H246.66V535.84H240.6V534.58ZM246.08 534.58H247.44C247.44 535.7 247.44 536.733 247.44 537.68C247.453 538.627 247.48 539.453 247.52 540.16C247.573 540.853 247.653 541.393 247.76 541.78C247.88 542.167 248.04 542.36 248.24 542.36C248.373 542.373 248.46 542.14 248.5 541.66C248.553 541.18 248.587 540.587 248.6 539.88C248.733 540.027 248.887 540.173 249.06 540.32C249.233 540.467 249.387 540.587 249.52 540.68C249.453 541.76 249.333 542.533 249.16 543C248.987 543.453 248.64 543.68 248.12 543.68C247.627 543.68 247.24 543.46 246.96 543.02C246.68 542.567 246.48 541.94 246.36 541.14C246.24 540.327 246.16 539.367 246.12 538.26C246.093 537.14 246.08 535.913 246.08 534.58ZM242.88 532.2H244.2C244.173 533.573 244.113 534.833 244.02 535.98C243.927 537.113 243.76 538.14 243.52 539.06C243.28 539.967 242.927 540.773 242.46 541.48C241.993 542.173 241.367 542.773 240.58 543.28C240.5 543.133 240.367 542.967 240.18 542.78C240.007 542.58 239.847 542.427 239.7 542.32C240.42 541.867 240.987 541.327 241.4 540.7C241.813 540.06 242.12 539.327 242.32 538.5C242.533 537.673 242.673 536.74 242.74 535.7C242.82 534.647 242.867 533.48 242.88 532.2Z" fill="#FF9600"/>
</g>
<defs>
<filter id="filter0_i_375_16468" x="90" y="16" width="204" height="59" filterUnits="userSpaceOnUse" color-interpolation-filters="sRGB">
<feFlood flood-opacity="0" result="BackgroundImageFix"/>
<feBlend mode="normal" in="SourceGraphic" in2="BackgroundImageFix" result="shape"/>
<feColorMatrix in="SourceAlpha" type="matrix" values="0 0 0 0 0 0 0 0 0 0 0 0 0 0 0 0 0 0 127 0" result="hardAlpha"/>
<feOffset dx="4" dy="4"/>
<feGaussianBlur stdDeviation="2"/>
<feComposite in2="hardAlpha" operator="arithmetic" k2="-1" k3="1"/>
<feColorMatrix type="matrix" values="0 0 0 0 0 0 0 0 0 0 0 0 0 0 0 0 0 0 0.25 0"/>
<feBlend mode="normal" in2="shape" result="effect1_innerShadow_375_16468"/>
</filter>
<filter id="filter1_d_375_16468" x="0" y="101" width="380" height="408" filterUnits="userSpaceOnUse" color-interpolation-filters="sRGB">
<feFlood flood-opacity="0" result="BackgroundImageFix"/>
<feColorMatrix in="SourceAlpha" type="matrix" values="0 0 0 0 0 0 0 0 0 0 0 0 0 0 0 0 0 0 127 0" result="hardAlpha"/>
<feOffset dy="4"/>
<feGaussianBlur stdDeviation="2"/>
<feComposite in2="hardAlpha" operator="out"/>
<feColorMatrix type="matrix" values="0 0 0 0 0 0 0 0 0 0 0 0 0 0 0 0 0 0 0.25 0"/>
<feBlend mode="normal" in2="BackgroundImageFix" result="effect1_dropShadow_375_16468"/>
<feBlend mode="normal" in="SourceGraphic" in2="effect1_dropShadow_375_16468" result="shape"/>
</filter>
<filter id="filter2_ii_375_16468" x="63" y="148" width="14" height="304" filterUnits="userSpaceOnUse" color-interpolation-filters="sRGB">
<feFlood flood-opacity="0" result="BackgroundImageFix"/>
<feBlend mode="normal" in="SourceGraphic" in2="BackgroundImageFix" result="shape"/>
<feColorMatrix in="SourceAlpha" type="matrix" values="0 0 0 0 0 0 0 0 0 0 0 0 0 0 0 0 0 0 127 0" result="hardAlpha"/>
<feOffset dx="2" dy="2"/>
<feGaussianBlur stdDeviation="2"/>
<feComposite in2="hardAlpha" operator="arithmetic" k2="-1" k3="1"/>
<feColorMatrix type="matrix" values="0 0 0 0 0 0 0 0 0 0 0 0 0 0 0 0 0 0 0.25 0"/>
<feBlend mode="normal" in2="shape" result="effect1_innerShadow_375_16468"/>
<feColorMatrix in="SourceAlpha" type="matrix" values="0 0 0 0 0 0 0 0 0 0 0 0 0 0 0 0 0 0 127 0" result="hardAlpha"/>
<feOffset dx="-2" dy="-2"/>
<feGaussianBlur stdDeviation="2"/>
<feComposite in2="hardAlpha" operator="arithmetic" k2="-1" k3="1"/>
<feColorMatrix type="matrix" values="0 0 0 0 1 0 0 0 0 1 0 0 0 0 1 0 0 0 0.75 0"/>
<feBlend mode="normal" in2="effect1_innerShadow_375_16468" result="effect2_innerShadow_375_16468"/>
</filter>
<filter id="filter3_ii_375_16468" x="97" y="148" width="14" height="304" filterUnits="userSpaceOnUse" color-interpolation-filters="sRGB">
<feFlood flood-opacity="0" result="BackgroundImageFix"/>
<feBlend mode="normal" in="SourceGraphic" in2="BackgroundImageFix" result="shape"/>
<feColorMatrix in="SourceAlpha" type="matrix" values="0 0 0 0 0 0 0 0 0 0 0 0 0 0 0 0 0 0 127 0" result="hardAlpha"/>
<feOffset dx="2" dy="2"/>
<feGaussianBlur stdDeviation="2"/>
<feComposite in2="hardAlpha" operator="arithmetic" k2="-1" k3="1"/>
<feColorMatrix type="matrix" values="0 0 0 0 0 0 0 0 0 0 0 0 0 0 0 0 0 0 0.25 0"/>
<feBlend mode="normal" in2="shape" result="effect1_innerShadow_375_16468"/>
<feColorMatrix in="SourceAlpha" type="matrix" values="0 0 0 0 0 0 0 0 0 0 0 0 0 0 0 0 0 0 127 0" result="hardAlpha"/>
<feOffset dx="-2" dy="-2"/>
<feGaussianBlur stdDeviation="2"/>
<feComposite in2="hardAlpha" operator="arithmetic" k2="-1" k3="1"/>
<feColorMatrix type="matrix" values="0 0 0 0 1 0 0 0 0 1 0 0 0 0 1 0 0 0 0.75 0"/>
<feBlend mode="normal" in2="effect1_innerShadow_375_16468" result="effect2_innerShadow_375_16468"/>
</filter>
<filter id="filter4_ii_375_16468" x="131" y="148" width="14" height="304" filterUnits="userSpaceOnUse" color-interpolation-filters="sRGB">
<feFlood flood-opacity="0" result="BackgroundImageFix"/>
<feBlend mode="normal" in="SourceGraphic" in2="BackgroundImageFix" result="shape"/>
<feColorMatrix in="SourceAlpha" type="matrix" values="0 0 0 0 0 0 0 0 0 0 0 0 0 0 0 0 0 0 127 0" result="hardAlpha"/>
<feOffset dx="2" dy="2"/>
<feGaussianBlur stdDeviation="2"/>
<feComposite in2="hardAlpha" operator="arithmetic" k2="-1" k3="1"/>
<feColorMatrix type="matrix" values="0 0 0 0 0 0 0 0 0 0 0 0 0 0 0 0 0 0 0.25 0"/>
<feBlend mode="normal" in2="shape" result="effect1_innerShadow_375_16468"/>
<feColorMatrix in="SourceAlpha" type="matrix" values="0 0 0 0 0 0 0 0 0 0 0 0 0 0 0 0 0 0 127 0" result="hardAlpha"/>
<feOffset dx="-2" dy="-2"/>
<feGaussianBlur stdDeviation="2"/>
<feComposite in2="hardAlpha" operator="arithmetic" k2="-1" k3="1"/>
<feColorMatrix type="matrix" values="0 0 0 0 1 0 0 0 0 1 0 0 0 0 1 0 0 0 0.75 0"/>
<feBlend mode="normal" in2="effect1_innerShadow_375_16468" result="effect2_innerShadow_375_16468"/>
</filter>
<filter id="filter5_ii_375_16468" x="199" y="148" width="14" height="304" filterUnits="userSpaceOnUse" color-interpolation-filters="sRGB">
<feFlood flood-opacity="0" result="BackgroundImageFix"/>
<feBlend mode="normal" in="SourceGraphic" in2="BackgroundImageFix" result="shape"/>
<feColorMatrix in="SourceAlpha" type="matrix" values="0 0 0 0 0 0 0 0 0 0 0 0 0 0 0 0 0 0 127 0" result="hardAlpha"/>
<feOffset dx="2" dy="2"/>
<feGaussianBlur stdDeviation="2"/>
<feComposite in2="hardAlpha" operator="arithmetic" k2="-1" k3="1"/>
<feColorMatrix type="matrix" values="0 0 0 0 0 0 0 0 0 0 0 0 0 0 0 0 0 0 0.25 0"/>
<feBlend mode="normal" in2="shape" result="effect1_innerShadow_375_16468"/>
<feColorMatrix in="SourceAlpha" type="matrix" values="0 0 0 0 0 0 0 0 0 0 0 0 0 0 0 0 0 0 127 0" result="hardAlpha"/>
<feOffset dx="-2" dy="-2"/>
<feGaussianBlur stdDeviation="2"/>
<feComposite in2="hardAlpha" operator="arithmetic" k2="-1" k3="1"/>
<feColorMatrix type="matrix" values="0 0 0 0 1 0 0 0 0 1 0 0 0 0 1 0 0 0 0.75 0"/>
<feBlend mode="normal" in2="effect1_innerShadow_375_16468" result="effect2_innerShadow_375_16468"/>
</filter>
<filter id="filter6_ii_375_16468" x="165" y="148" width="14" height="304" filterUnits="userSpaceOnUse" color-interpolation-filters="sRGB">
<feFlood flood-opacity="0" result="BackgroundImageFix"/>
<feBlend mode="normal" in="SourceGraphic" in2="BackgroundImageFix" result="shape"/>
<feColorMatrix in="SourceAlpha" type="matrix" values="0 0 0 0 0 0 0 0 0 0 0 0 0 0 0 0 0 0 127 0" result="hardAlpha"/>
<feOffset dx="2" dy="2"/>
<feGaussianBlur stdDeviation="2"/>
<feComposite in2="hardAlpha" operator="arithmetic" k2="-1" k3="1"/>
<feColorMatrix type="matrix" values="0 0 0 0 0 0 0 0 0 0 0 0 0 0 0 0 0 0 0.25 0"/>
<feBlend mode="normal" in2="shape" result="effect1_innerShadow_375_16468"/>
<feColorMatrix in="SourceAlpha" type="matrix" values="0 0 0 0 0 0 0 0 0 0 0 0 0 0 0 0 0 0 127 0" result="hardAlpha"/>
<feOffset dx="-2" dy="-2"/>
<feGaussianBlur stdDeviation="2"/>
<feComposite in2="hardAlpha" operator="arithmetic" k2="-1" k3="1"/>
<feColorMatrix type="matrix" values="0 0 0 0 1 0 0 0 0 1 0 0 0 0 1 0 0 0 0.75 0"/>
<feBlend mode="normal" in2="effect1_innerShadow_375_16468" result="effect2_innerShadow_375_16468"/>
</filter>
<filter id="filter7_ii_375_16468" x="233" y="148" width="14" height="304" filterUnits="userSpaceOnUse" color-interpolation-filters="sRGB">
<feFlood flood-opacity="0" result="BackgroundImageFix"/>
<feBlend mode="normal" in="SourceGraphic" in2="BackgroundImageFix" result="shape"/>
<feColorMatrix in="SourceAlpha" type="matrix" values="0 0 0 0 0 0 0 0 0 0 0 0 0 0 0 0 0 0 127 0" result="hardAlpha"/>
<feOffset dx="2" dy="2"/>
<feGaussianBlur stdDeviation="2"/>
<feComposite in2="hardAlpha" operator="arithmetic" k2="-1" k3="1"/>
<feColorMatrix type="matrix" values="0 0 0 0 0 0 0 0 0 0 0 0 0 0 0 0 0 0 0.25 0"/>
<feBlend mode="normal" in2="shape" result="effect1_innerShadow_375_16468"/>
<feColorMatrix in="SourceAlpha" type="matrix" values="0 0 0 0 0 0 0 0 0 0 0 0 0 0 0 0 0 0 127 0" result="hardAlpha"/>
<feOffset dx="-2" dy="-2"/>
<feGaussianBlur stdDeviation="2"/>
<feComposite in2="hardAlpha" operator="arithmetic" k2="-1" k3="1"/>
<feColorMatrix type="matrix" values="0 0 0 0 1 0 0 0 0 1 0 0 0 0 1 0 0 0 0.75 0"/>
<feBlend mode="normal" in2="effect1_innerShadow_375_16468" result="effect2_innerShadow_375_16468"/>
</filter>
<filter id="filter8_ii_375_16468" x="267" y="148" width="14" height="304" filterUnits="userSpaceOnUse" color-interpolation-filters="sRGB">
<feFlood flood-opacity="0" result="BackgroundImageFix"/>
<feBlend mode="normal" in="SourceGraphic" in2="BackgroundImageFix" result="shape"/>
<feColorMatrix in="SourceAlpha" type="matrix" values="0 0 0 0 0 0 0 0 0 0 0 0 0 0 0 0 0 0 127 0" result="hardAlpha"/>
<feOffset dx="2" dy="2"/>
<feGaussianBlur stdDeviation="2"/>
<feComposite in2="hardAlpha" operator="arithmetic" k2="-1" k3="1"/>
<feColorMatrix type="matrix" values="0 0 0 0 0 0 0 0 0 0 0 0 0 0 0 0 0 0 0.25 0"/>
<feBlend mode="normal" in2="shape" result="effect1_innerShadow_375_16468"/>
<feColorMatrix in="SourceAlpha" type="matrix" values="0 0 0 0 0 0 0 0 0 0 0 0 0 0 0 0 0 0 127 0" result="hardAlpha"/>
<feOffset dx="-2" dy="-2"/>
<feGaussianBlur stdDeviation="2"/>
<feComposite in2="hardAlpha" operator="arithmetic" k2="-1" k3="1"/>
<feColorMatrix type="matrix" values="0 0 0 0 1 0 0 0 0 1 0 0 0 0 1 0 0 0 0.75 0"/>
<feBlend mode="normal" in2="effect1_innerShadow_375_16468" result="effect2_innerShadow_375_16468"/>
</filter>
<filter id="filter9_ii_375_16468" x="301" y="148" width="14" height="304" filterUnits="userSpaceOnUse" color-interpolation-filters="sRGB">
<feFlood flood-opacity="0" result="BackgroundImageFix"/>
<feBlend mode="normal" in="SourceGraphic" in2="BackgroundImageFix" result="shape"/>
<feColorMatrix in="SourceAlpha" type="matrix" values="0 0 0 0 0 0 0 0 0 0 0 0 0 0 0 0 0 0 127 0" result="hardAlpha"/>
<feOffset dx="2" dy="2"/>
<feGaussianBlur stdDeviation="2"/>
<feComposite in2="hardAlpha" operator="arithmetic" k2="-1" k3="1"/>
<feColorMatrix type="matrix" values="0 0 0 0 0 0 0 0 0 0 0 0 0 0 0 0 0 0 0.25 0"/>
<feBlend mode="normal" in2="shape" result="effect1_innerShadow_375_16468"/>
<feColorMatrix in="SourceAlpha" type="matrix" values="0 0 0 0 0 0 0 0 0 0 0 0 0 0 0 0 0 0 127 0" result="hardAlpha"/>
<feOffset dx="-2" dy="-2"/>
<feGaussianBlur stdDeviation="2"/>
<feComposite in2="hardAlpha" operator="arithmetic" k2="-1" k3="1"/>
<feColorMatrix type="matrix" values="0 0 0 0 1 0 0 0 0 1 0 0 0 0 1 0 0 0 0.75 0"/>
<feBlend mode="normal" in2="effect1_innerShadow_375_16468" result="effect2_innerShadow_375_16468"/>
</filter>
<filter id="filter10_d_375_16468" x="113" y="516" width="158" height="58" filterUnits="userSpaceOnUse" color-interpolation-filters="sRGB">
<feFlood flood-opacity="0" result="BackgroundImageFix"/>
<feColorMatrix in="SourceAlpha" type="matrix" values="0 0 0 0 0 0 0 0 0 0 0 0 0 0 0 0 0 0 127 0" result="hardAlpha"/>
<feOffset dx="2" dy="4"/>
<feGaussianBlur stdDeviation="2"/>
<feComposite in2="hardAlpha" operator="out"/>
<feColorMatrix type="matrix" values="0 0 0 0 0 0 0 0 0 0 0 0 0 0 0 0 0 0 0.25 0"/>
<feBlend mode="normal" in2="BackgroundImageFix" result="effect1_dropShadow_375_16468"/>
<feBlend mode="normal" in="SourceGraphic" in2="effect1_dropShadow_375_16468" result="shape"/>
</filter>
</defs>
</svg>
