<svg width="50" height="50" viewBox="0 0 50 50" fill="none" xmlns="http://www.w3.org/2000/svg">
<path d="M10.9375 21.8747V37.5002C10.9375 37.9146 11.1021 38.3119 11.3951 38.6049C11.6881 38.8979 12.0854 39.0625 12.4998 39.0625H37.5002C37.9146 39.0625 38.3119 38.8979 38.6049 38.6049C38.8979 38.3119 39.0625 37.9146 39.0625 37.5002V21.8747M10.9375 21.8747H39.0625M10.9375 21.8747V15.625C10.9375 15.2107 11.1021 14.8133 11.3951 14.5203C11.6881 14.2273 12.0854 14.0627 12.4998 14.0627H37.5002C37.9146 14.0627 38.3119 14.2273 38.6049 14.5203C38.8979 14.8133 39.0625 15.2107 39.0625 15.625V21.8747" stroke="#FFFEFA" stroke-width="1.5" stroke-linecap="round" stroke-linejoin="round"/>
<path d="M31.2497 10.9375V17.1873M18.7502 10.9375V17.1873" stroke="#FFFEFA" stroke-width="1.5" stroke-linecap="round" stroke-linejoin="round"/>
</svg>
