<svg width="50" height="50" viewBox="0 0 50 50" fill="none" xmlns="http://www.w3.org/2000/svg">
<path d="M16.5255 32.015V17.3095C16.5255 15.4177 16.6056 13.2221 18.0234 11.9646C19.1852 10.935 20.8281 10.935 22.3838 10.935H32.6657C34.1102 10.935 35.6082 10.9603 36.9022 11.5961C37.0072 11.6477 37.1071 11.7016 37.2018 11.7578C39.1245 12.8873 39.0655 15.5794 39.0655 17.806V32.6198C39.0655 34.0841 38.998 35.5891 38.3903 36.9225C37.808 38.1982 37.0119 38.7707 35.5435 39.0407M16.5255 32.015H28.9453C29.5262 32.015 30.0495 32.3709 30.2534 32.9124C30.4306 33.3864 30.5769 33.7943 30.7077 34.1783C31.1621 35.5258 31.5615 36.9478 32.518 37.9999C33.0932 38.6328 33.6967 38.9535 34.5012 39.0407M16.5255 32.015H12.2974C11.5195 32.015 10.8753 32.6437 10.9386 33.4173C11.0047 34.2275 11.1496 34.9336 11.4169 35.6889C11.8895 37.0252 12.7109 38.3769 14.0612 38.8185C14.5591 38.9803 15.1105 39.0337 15.8208 39.0407H34.5012M35.5435 39.0407C35.1963 39.0731 34.8483 39.0731 34.5012 39.0407M35.5435 39.0407H34.5012M22.8465 17.9678H32.6924M22.8465 23.594H27.7694" stroke="#FFFEFA" stroke-width="1.5" stroke-linecap="round" stroke-linejoin="round"/>
</svg>
