<svg width="50" height="50" viewBox="0 0 50 50" fill="none" xmlns="http://www.w3.org/2000/svg">
<path d="M35.425 19.1052C36.0258 18.5046 36.3634 17.6899 36.3635 16.8403C36.3636 15.9907 36.0263 15.1759 35.4256 14.5751C34.825 13.9743 34.0102 13.6367 33.1607 13.6366C32.3111 13.6365 31.4963 13.9739 30.8955 14.5746L15.7296 29.7439C15.4657 30.0069 15.2706 30.3308 15.1614 30.6871L13.6603 35.6325C13.6309 35.7308 13.6287 35.8352 13.6538 35.9346C13.679 36.0341 13.7306 36.1248 13.8032 36.1973C13.8758 36.2698 13.9667 36.3212 14.0661 36.3462C14.1656 36.3712 14.27 36.3689 14.3682 36.3393L19.3148 34.8393C19.6707 34.7311 19.9946 34.5372 20.258 34.2746L35.425 19.1052Z" stroke="#FFFEFA" stroke-width="1.5" stroke-linecap="round" stroke-linejoin="round"/>
</svg>
