<svg width="50" height="50" viewBox="0 0 50 50" fill="none" xmlns="http://www.w3.org/2000/svg">
<path d="M23.8801 19.2584H30.5998M19.4003 19.2584H20.5203M19.4003 25H20.5203M19.4003 30.7416H20.5203M23.8801 25H30.5998M23.8801 30.7416H30.5998M14.3606 25C14.3606 19.8578 14.3606 17.2856 15.9184 15.6882C17.4763 14.0909 19.9838 14.0909 25.0001 14.0909C30.0152 14.0909 32.5238 14.0909 34.0817 15.6882C35.6395 17.2856 35.6395 19.8567 35.6395 25C35.6395 30.1422 35.6395 32.7145 34.0817 34.3118C32.5238 35.9091 30.0163 35.9091 25.0001 35.9091C19.9849 35.9091 17.4763 35.9091 15.9184 34.3118C14.3606 32.7145 14.3606 30.1434 14.3606 25Z" stroke="#FFFEFA" stroke-width="1.5" stroke-linecap="round" stroke-linejoin="round"/>
</svg>
