<svg width="42" height="40" viewBox="0 0 42 40" fill="none" xmlns="http://www.w3.org/2000/svg">
<path d="M40.9752 10.5809C41.0464 10.8624 40.9564 11.1729 40.8058 11.4156L36.0025 19.1997C35.8242 19.5006 35.4499 19.6656 35.1371 19.6656C35.048 19.6656 34.7985 19.6462 34.7014 19.6171L30.8515 18.5882V37.0294C30.8515 37.5924 30.4861 38 29.9604 38H11.2459C10.7201 38 10.3547 37.5924 10.3547 37.0294V18.5882L6.89703 19.6268C6.49601 19.7626 6.14845 19.5879 5.92566 19.2094L1.15793 11.4447C1.00643 11.1924 0.961876 10.9109 1.03317 10.6294C1.09555 10.3382 1.28269 10.1441 1.52331 10.0082L11.2459 5H15.7017C16.2275 5 16.5929 5.39794 16.5929 5.97059C16.5929 7.97 19.1684 9.38706 21.0042 9.38706C22.84 9.38706 25.5045 7.97971 25.5045 5.97059C25.5045 5.40765 25.8699 5 26.3957 5H30.8515L40.4761 9.91118C40.7256 10.0471 40.9039 10.2897 40.9752 10.5809Z" stroke="#FF9600" stroke-width="2" stroke-linejoin="round"/>
</svg>
