<svg width="50" height="50" viewBox="0 0 50 50" fill="none" xmlns="http://www.w3.org/2000/svg">
<path d="M16.9996 36.2502C15.3932 36.2502 14.0909 35.0252 14.0909 33.5127V22.5102C14.0909 21.6789 14.4932 20.8914 15.1819 20.3727L23.1823 14.3502C23.6935 13.9621 24.3364 13.7498 25 13.7498C25.6637 13.7498 26.3066 13.9621 26.8178 14.3502L34.8169 20.3727C35.5069 20.8914 35.9091 21.6789 35.9091 22.5102V33.5127C35.9091 35.0252 34.6069 36.2502 33.0005 36.2502H16.9996Z" stroke="#FFFEFA" stroke-width="1.5" stroke-linecap="round" stroke-linejoin="round"/>
<path d="M21.5909 36.2502V29.3752C21.5909 28.7121 21.8783 28.0763 22.3897 27.6074C22.9012 27.1386 23.5949 26.8752 24.3182 26.8752H25.6819C26.4052 26.8752 27.0989 27.1386 27.6103 27.6074C28.1218 28.0763 28.4091 28.7121 28.4091 29.3752V36.2502" stroke="#FFFEFA" stroke-width="1.5" stroke-linecap="round" stroke-linejoin="round"/>
</svg>
