<svg width="50" height="50" viewBox="0 0 50 50" fill="none" xmlns="http://www.w3.org/2000/svg">
<path d="M25.0012 27.5261C26.3969 27.5261 27.5283 26.3951 27.5283 25C27.5283 23.6049 26.3969 22.474 25.0012 22.474C23.6055 22.474 22.4741 23.6049 22.4741 25C22.4741 26.3951 23.6055 27.5261 25.0012 27.5261Z" stroke="#FFFEFA"/>
<path d="M16.6606 17.2703L16.9765 16.7221C16.8524 16.6505 16.7077 16.6231 16.5661 16.6444C16.4244 16.6657 16.2942 16.7346 16.1968 16.8396L16.6606 17.2703ZM14.1347 21.6454L13.5308 21.4585C13.4887 21.5952 13.4943 21.742 13.5467 21.8751C13.599 22.0082 13.695 22.1196 13.8188 22.191L14.1347 21.6454ZM14.1322 28.3533L13.8163 27.8064C13.6922 27.878 13.596 27.9896 13.5437 28.1229C13.4913 28.2562 13.4859 28.4034 13.5282 28.5403L14.1322 28.3533ZM16.6593 32.7284L16.1956 33.1579C16.293 33.2629 16.4232 33.3317 16.5648 33.3531C16.7065 33.3744 16.8512 33.347 16.9752 33.2753L16.6593 32.7284ZM22.4716 36.0818H21.8399C21.8398 36.2252 21.8885 36.3643 21.9781 36.4763C22.0677 36.5884 22.1927 36.6666 22.3326 36.6981L22.4716 36.0818ZM27.5271 36.0843L27.6674 36.7006C27.8071 36.6688 27.9318 36.5905 28.0211 36.4785C28.1104 36.3665 28.159 36.2275 28.1589 36.0843H27.5271ZM33.3407 32.7297L33.0248 33.2766C33.1488 33.3483 33.2935 33.3757 33.4352 33.3543C33.5768 33.333 33.707 33.2642 33.8044 33.1591L33.3407 32.7297ZM35.8653 28.3521L36.4692 28.539C36.5113 28.4023 36.5057 28.2554 36.4533 28.1224C36.401 27.9893 36.305 27.8779 36.1812 27.8064L35.8653 28.3521ZM35.8678 21.6441L36.1837 22.191C36.3078 22.1195 36.404 22.0079 36.4563 21.8746C36.5087 21.7412 36.5141 21.5941 36.4718 21.4572L35.8678 21.6441ZM33.3407 17.2678L33.8044 16.8383C33.707 16.7333 33.5768 16.6645 33.4352 16.6431C33.2935 16.6218 33.1488 16.6492 33.0248 16.7209L33.3407 17.2678ZM27.5284 13.917H28.1601C28.16 13.774 28.1113 13.6352 28.022 13.5235C27.9327 13.4118 27.8081 13.3336 27.6686 13.3019L27.5284 13.917ZM22.4742 13.9144L22.3339 13.2981C22.194 13.3296 22.0689 13.4079 21.9794 13.5199C21.8898 13.6319 21.8411 13.771 21.8411 13.9144H22.4742ZM14.7387 21.8323C15.2132 20.293 16.0281 18.8802 17.123 17.6985L16.1968 16.8396C14.9726 18.1602 14.0614 19.738 13.5308 21.4585L14.7387 21.8323ZM15.699 30.3678C15.2972 29.6727 14.9747 28.9347 14.7374 28.1677L13.5295 28.5415C13.7953 29.3985 14.1564 30.2229 14.606 30.9994L15.699 30.3678ZM17.1243 32.3003C16.5789 31.7114 16.0999 31.0632 15.699 30.3678L14.606 30.9994C15.0539 31.7764 15.5875 32.5009 16.1968 33.1591L17.1243 32.3003ZM27.3881 35.4705C25.8168 35.8276 24.1853 35.8267 22.6144 35.4679L22.3339 36.6981C24.0894 37.0993 25.9126 37.1006 27.6686 36.7019L27.3881 35.4705ZM35.2638 28.1677C34.7893 29.707 33.9744 31.1198 32.8795 32.3015L33.8057 33.1604C35.0299 31.8398 35.9411 30.2607 36.4718 28.5403L35.2638 28.1677ZM34.3035 19.6322C34.7129 20.3432 35.0326 21.0808 35.2663 21.8323L36.473 21.4585C36.2072 20.6015 35.8461 19.7771 35.3965 19.0006L34.3035 19.6322ZM32.8782 17.6997C33.4237 18.2886 33.9026 18.9368 34.3035 19.6322L35.3965 19.0006C34.9486 18.2236 34.415 17.4991 33.8057 16.8409L32.8782 17.6997ZM22.6144 14.5295C24.1857 14.1724 25.8172 14.1733 27.3881 14.5321L27.6686 13.3019C25.9132 12.9007 24.0899 12.8994 22.3339 13.2981L22.6144 14.5295ZM23.1059 16.2498V13.9132H21.8424V16.2498H23.1059ZM18.9994 17.8892L16.9765 16.7221L16.3447 17.8147L18.3664 18.983L18.9994 17.8892ZM15.8405 26.6394L13.8163 27.8064L14.4494 28.9002L16.471 27.7332L15.8405 26.6394ZM16.4723 22.2643L14.4506 21.0985L13.8188 22.1923L15.8405 23.3581L16.4723 22.2643ZM23.1059 36.0818V33.749H21.8424V36.0818H23.1059ZM18.3676 31.0145L16.3447 32.1816L16.9765 33.2753L18.9981 32.1083L18.3676 31.0145ZM33.6578 32.1828L31.6349 31.0145L31.0031 32.1096L33.0248 33.2766L33.6578 32.1828ZM28.1601 36.0856V33.749H26.8966V36.0856H28.1601ZM35.5532 21.0973L33.5302 22.2643L34.162 23.3581L36.1837 22.191L35.5532 21.0973ZM36.1824 27.8052L34.162 26.6419L33.5302 27.7357L35.5519 28.9015L36.1824 27.8052ZM28.1601 16.2498V13.917H26.8966V16.2498H28.1601ZM33.0261 16.7221L31.0031 17.8904L31.6349 18.9842L33.6578 17.8159L33.0261 16.7221ZM26.8966 16.2498C26.8966 18.6798 29.5286 20.1992 31.6349 18.9842L31.0031 17.8904C30.7149 18.0568 30.388 18.1443 30.0552 18.1443C29.7224 18.1442 29.3954 18.0566 29.1073 17.8901C28.8191 17.7237 28.5799 17.4844 28.4136 17.1962C28.2473 16.908 28.1599 16.5824 28.1601 16.2498H26.8966ZM33.5302 22.2656C31.4239 23.4806 31.4239 26.5194 33.5302 27.7344L34.162 26.6407C33.8739 26.4744 33.6347 26.2352 33.4683 25.9472C33.302 25.6592 33.2144 25.3325 33.2144 25C33.2144 24.6675 33.302 24.3408 33.4683 24.0528C33.6347 23.7648 33.8739 23.5256 34.162 23.3593L33.5302 22.2656ZM31.6349 31.0158C29.5286 29.8008 26.8966 31.3176 26.8966 33.749H28.1601C28.1601 33.4164 28.2477 33.091 28.4141 32.803C28.5804 32.515 28.8197 32.2758 29.1078 32.1095C29.3959 31.9433 29.7228 31.8557 30.0555 31.8557C30.3882 31.8557 30.715 31.9433 31.0031 32.1096L31.6349 31.0158ZM23.1059 33.749C23.1059 31.3189 20.474 29.8008 18.3676 31.0158L18.9994 32.1096C19.2876 31.9432 19.6146 31.8557 19.9474 31.8557C20.2802 31.8558 20.6071 31.9434 20.8953 32.1099C21.1834 32.2763 21.4227 32.5156 21.5889 32.8038C21.7552 33.092 21.8426 33.4188 21.8424 33.7515L23.1059 33.749ZM16.4723 27.7344C18.5786 26.5194 18.5786 23.4806 16.4723 22.2656L15.8405 23.3593C17.1041 24.0881 17.1041 25.9094 15.8405 26.6394L16.4723 27.7344ZM21.8424 16.2498C21.8422 16.5822 21.7544 16.9088 21.588 17.1966C21.4215 17.4844 21.1822 17.7234 20.8942 17.8895C20.6061 18.0556 20.2793 18.1431 19.9467 18.143C19.6141 18.1429 19.2874 18.0554 18.9994 17.8892L18.3676 18.9842C20.474 20.1992 23.1059 18.6811 23.1059 16.2498H21.8424Z" fill="#FFFEFA"/>
</svg>
