<svg width="50" height="50" viewBox="0 0 50 50" fill="none" xmlns="http://www.w3.org/2000/svg">
<path d="M15.5 33.5867V16.4133C15.5 15.7627 15.7502 15.1386 16.1956 14.6786C16.641 14.2185 17.2451 13.96 17.875 13.96H33.7875C33.9765 13.96 34.1577 14.0375 34.2913 14.1756C34.4249 14.3136 34.5 14.5008 34.5 14.696V30.7825M17.875 31.1333H34.5M17.875 36.04H34.5" stroke="#FFFEFA" stroke-width="1.5" stroke-linecap="round"/>
<path d="M17.875 36.04C17.2451 36.04 16.641 35.7815 16.1956 35.3214C15.7502 34.8613 15.5 34.2373 15.5 33.5867C15.5 32.936 15.7502 32.312 16.1956 31.8519C16.641 31.3918 17.2451 31.1333 17.875 31.1333" stroke="#FFFEFA" stroke-width="1.5" stroke-linecap="round" stroke-linejoin="round"/>
<path d="M21.4375 18.8667H28.5625" stroke="#FFFEFA" stroke-width="1.5" stroke-linecap="round"/>
</svg>
