<svg width="25" height="19" viewBox="0 0 25 19" fill="none" xmlns="http://www.w3.org/2000/svg">
<path d="M14.0623 4.75C17.914 4.75 20.0984 7.24217 20.4156 10.2505H20.5124C22.9906 10.2505 25 12.2091 25 14.6253C25 17.0414 22.9906 19 20.5124 19H7.61226C5.1341 19 3.1247 17.0414 3.1247 14.6253C3.1247 12.2091 5.1341 10.2505 7.61226 10.2505H7.70914C8.02945 7.22158 10.2107 4.75 14.0623 4.75ZM14.0623 6.33333C11.4842 6.33333 9.23884 8.34417 9.23884 11.1229C9.23884 11.5631 8.84196 11.9082 8.38727 11.9082H7.52788C5.95911 11.9082 4.68722 13.1417 4.68722 14.6632C4.68722 16.1817 5.95911 17.4167 7.52788 17.4167H20.5968C22.1656 17.4167 23.4375 16.1833 23.4375 14.6617C23.4375 13.1417 22.1656 11.9082 20.5968 11.9082H19.7374C19.2843 11.9082 18.8859 11.5631 18.8859 11.1229C18.8859 8.30933 16.6405 6.33333 14.0623 6.33333ZM9.98729 5.5188e-08C12.2623 5.5188e-08 14.2467 1.311 15.2264 3.23792C14.5608 3.15361 13.8882 3.14193 13.2202 3.20308C12.834 2.69996 12.3397 2.29261 11.775 2.01195C11.2102 1.7313 10.5897 1.58471 9.96073 1.58333C8.97822 1.58805 8.02888 1.94401 7.27998 2.58847C6.53107 3.23294 6.03067 4.12457 5.86692 5.10625L5.80911 5.43875C5.74647 5.80672 5.5575 6.14041 5.27558 6.38088C4.99367 6.62135 4.63696 6.75313 4.26846 6.75292H3.86533C2.59344 6.75292 1.56218 7.81058 1.56218 9.11525C1.56218 10.0177 2.05437 10.8015 2.77782 11.1989C2.44344 11.6296 2.16843 12.1109 1.96531 12.6271C1.22094 12.1675 0.640609 11.4794 0.308683 10.6627C-0.023243 9.84597 -0.0894654 8.94328 0.119642 8.08582C0.32875 7.22836 0.802288 6.46083 1.47142 5.89479C2.14055 5.32876 2.9704 4.99374 3.84033 4.93842L4.18565 4.9305C4.42659 3.54877 5.14019 2.29721 6.20114 1.39556C7.2621 0.493914 8.6026 -0.000190659 9.98729 5.5188e-08Z" fill="#FF9600"/>
</svg>
