<svg width="17" height="19" viewBox="0 0 17 19" fill="none" xmlns="http://www.w3.org/2000/svg">
<path d="M8.0778 0.5V18M10.3325 2.375C9.65202 2.78513 8.8723 3.00127 8.0778 3C7.28329 3.00127 6.50358 2.78513 5.82311 2.375M5.82311 16.125C6.50408 15.716 7.28346 15.5 8.0778 15.5C8.87213 15.5 9.65151 15.716 10.3325 16.125M15.6555 4.875L0.500061 13.625M15.1587 7.76562C14.4639 7.3803 13.887 6.8132 13.4899 6.12507C13.0928 5.43695 12.8904 4.65374 12.9044 3.85938M0.996936 10.7344C1.69173 11.1197 2.2686 11.6868 2.66571 12.3749C3.06283 13.063 3.26523 13.8463 3.25123 14.6406M0.500061 4.875L15.6555 13.625M0.996936 7.76562C1.69173 7.3803 2.2686 6.8132 2.66571 6.12507C3.06283 5.43695 3.26523 4.65374 3.25123 3.85938M15.1587 10.7344C14.4639 11.1197 13.887 11.6868 13.4899 12.3749C13.0928 13.063 12.8904 13.8463 12.9044 14.6406" stroke="#FF9600" stroke-linecap="round" stroke-linejoin="round"/>
</svg>
