<svg width="20" height="17" viewBox="0 0 20 17" fill="none" xmlns="http://www.w3.org/2000/svg">
<path d="M10 9.40539e-06C7.98313 9.40539e-06 6.22312 1.41126 5.75187 3.34001C5.36625 3.49037 5.01404 3.71524 4.71537 4.00179C4.41671 4.28834 4.17744 4.63094 4.01125 5.01001C1.82625 4.84876 0 6.59688 0 8.75001C0 10.8181 1.68187 12.5 3.75 12.5V11.25C2.37063 11.25 1.25 10.1294 1.25 8.75001C1.25 7.37063 2.37063 6.25001 3.75 6.25001C3.92313 6.25001 4.10375 6.27188 4.30188 6.31563L4.91188 6.45501L5.04938 5.84251C5.12673 5.50127 5.29803 5.18848 5.54389 4.93953C5.78976 4.69057 6.10038 4.51538 6.44063 4.43376L6.85313 4.33626L6.91437 3.91626C7.13625 2.39501 8.46437 1.25001 10 1.25001C10.5785 1.24917 11.1457 1.40955 11.6381 1.71315C12.1304 2.01674 12.5285 2.45154 12.7875 2.96876L13.0344 3.45688L13.5525 3.27626C13.845 3.17626 14.1138 3.12501 14.375 3.12501C15.7544 3.12501 16.875 4.24563 16.875 5.62501C16.875 5.65001 16.87 5.67126 16.865 5.69376L16.8525 5.82251L16.8138 6.27251L17.2288 6.45001C17.6804 6.64129 18.0656 6.96151 18.3362 7.37061C18.6068 7.77971 18.7507 8.25952 18.75 8.75001C18.75 10.1294 17.6294 11.25 16.25 11.25H14.6606C14.8244 11.4308 14.9683 11.6263 15.0925 11.8363C15.2179 12.0458 15.3221 12.2671 15.405 12.5H16.25C18.3181 12.5 20 10.82 20 8.75001C20.0002 8.09109 19.8267 7.44377 19.4971 6.87321C19.1675 6.30266 18.6934 5.82903 18.1225 5.50001C18.0885 4.52823 17.679 3.60748 16.9801 2.93142C16.2812 2.25537 15.3474 1.87668 14.375 1.87501C14.1313 1.87501 13.8894 1.90188 13.6425 1.95313C13.2445 1.35144 12.7034 0.857986 12.0676 0.517087C11.4319 0.176187 10.7214 -0.00148949 10 9.40539e-06ZM9.6875 5.62501C8.97688 5.62501 8.3375 5.96876 7.93937 6.49876L8.93812 7.24876C9.02518 7.13228 9.1383 7.0378 9.26843 6.9729C9.39856 6.908 9.54208 6.87447 9.6875 6.87501C10.2125 6.87501 10.625 7.28751 10.625 7.81251C10.625 8.33751 10.2125 8.75001 9.6875 8.75001H5.625V10H9.6875C10.8888 10 11.875 9.01376 11.875 7.81251C11.875 6.61126 10.8888 5.62501 9.6875 5.62501ZM5 11.25V12.5H6.875C7.22875 12.5 7.5 12.7713 7.5 13.125C7.5 13.4788 7.22875 13.75 6.875 13.75C6.76535 13.751 6.65746 13.7225 6.56258 13.6675C6.46771 13.6125 6.38933 13.5331 6.33563 13.4375L5.25437 14.07C5.42057 14.3523 5.65738 14.5866 5.94153 14.7496C6.22569 14.9127 6.54739 14.999 6.875 15C7.90312 15 8.75 14.1531 8.75 13.125C8.74671 12.9115 8.70697 12.7001 8.6325 12.5H11.875C12.5731 12.5 13.125 13.0519 13.125 13.75C13.125 14.4481 12.5731 15 11.875 15C11.6162 15.0001 11.3637 14.9198 11.1524 14.7702C10.9412 14.6206 10.7816 14.4092 10.6956 14.165L9.51688 14.58C9.68871 15.0682 10.0078 15.4911 10.4302 15.7902C10.8526 16.0893 11.3574 16.25 11.875 16.25C13.25 16.25 14.375 15.125 14.375 13.75C14.375 12.375 13.25 11.25 11.875 11.25H5Z" fill="#FF9600"/>
</svg>
