<svg width="24" height="24" viewBox="0 0 24 24" fill="none" xmlns="http://www.w3.org/2000/svg">
<path d="M3.65864 23.2503C2.05227 23.2503 0.75 22.0253 0.75 20.5128V9.51035C0.75 8.6791 1.15227 7.8916 1.84091 7.37285L9.84136 1.35035C10.3525 0.962324 10.9954 0.75 11.6591 0.75C12.3228 0.75 12.9656 0.962324 13.4768 1.35035L21.4759 7.37285C22.1659 7.8916 22.5682 8.6791 22.5682 9.51035V20.5128C22.5682 22.0253 21.2659 23.2503 19.6595 23.2503H3.65864Z" stroke="#FFFEFA" stroke-width="1.5" stroke-linecap="round" stroke-linejoin="round"/>
<path d="M8.25 23.2504V16.3754C8.25 15.7123 8.53734 15.0764 9.0488 14.6076C9.56026 14.1388 10.254 13.8754 10.9773 13.8754H12.3409C13.0642 13.8754 13.7579 14.1388 14.2694 14.6076C14.7808 15.0764 15.0682 15.7123 15.0682 16.3754V23.2504" stroke="#FFFEFA" stroke-width="1.5" stroke-linecap="round" stroke-linejoin="round"/>
</svg>
