<svg width="23" height="24" viewBox="0 0 23 24" fill="none" xmlns="http://www.w3.org/2000/svg">
<path d="M10.2695 5.91746H16.9892M5.78974 5.91746H6.90969M5.78974 11.6591H6.90969M5.78974 17.4007H6.90969M10.2695 11.6591H16.9892M10.2695 17.4007H16.9892M0.75 11.6591C0.75 6.51689 0.75 3.94464 2.30784 2.34732C3.86568 0.75 6.37323 0.75 11.3895 0.75C16.4046 0.75 18.9132 0.75 20.4711 2.34732C22.0289 3.94464 22.0289 6.51574 22.0289 11.6591C22.0289 16.8013 22.0289 19.3735 20.4711 20.9709C18.9132 22.5682 16.4057 22.5682 11.3895 22.5682C6.37435 22.5682 3.86568 22.5682 2.30784 20.9709C0.75 19.3735 0.75 16.8024 0.75 11.6591Z" stroke="#FFFEFA" stroke-width="1.5" stroke-linecap="round" stroke-linejoin="round"/>
</svg>
