<svg width="21" height="24" viewBox="0 0 21 24" fill="none" xmlns="http://www.w3.org/2000/svg">
<path d="M0.75 20.3767V3.20333C0.75 2.55267 1.00022 1.92865 1.44562 1.46856C1.89102 1.00848 2.49511 0.75 3.125 0.75H19.0375C19.2265 0.75 19.4077 0.827543 19.5413 0.965569C19.6749 1.1036 19.75 1.2908 19.75 1.486V17.5725M3.125 17.9233H19.75M3.125 22.83H19.75" stroke="#FFFEFA" stroke-width="1.5" stroke-linecap="round"/>
<path d="M3.125 22.83C2.49511 22.83 1.89102 22.5715 1.44562 22.1114C1.00022 21.6514 0.75 21.0273 0.75 20.3767C0.75 19.726 1.00022 19.102 1.44562 18.6419C1.89102 18.1818 2.49511 17.9233 3.125 17.9233" stroke="#FFFEFA" stroke-width="1.5" stroke-linecap="round" stroke-linejoin="round"/>
<path d="M6.6875 5.65668H13.8125" stroke="#FFFEFA" stroke-width="1.5" stroke-linecap="round"/>
</svg>
