<svg width="23" height="24" viewBox="0 0 23 24" fill="none" xmlns="http://www.w3.org/2000/svg">
<path d="M11.5012 14.5261C12.8969 14.5261 14.0283 13.3951 14.0283 12C14.0283 10.6049 12.8969 9.47397 11.5012 9.47397C10.1055 9.47397 8.97412 10.6049 8.97412 12C8.97412 13.3951 10.1055 14.5261 11.5012 14.5261Z" stroke="#FFFEFA"/>
<path d="M3.16057 4.2703L3.47646 3.72215C3.35244 3.65047 3.20773 3.62306 3.06607 3.6444C2.92442 3.66574 2.79422 3.73458 2.69685 3.83961L3.16057 4.2703ZM0.634733 8.64541L0.0307562 8.45848C-0.0112822 8.59515 -0.0056764 8.74204 0.0466567 8.87511C0.0989898 9.00819 0.194952 9.11957 0.318846 9.19104L0.634733 8.64541ZM0.632206 15.3533L0.316319 14.8064C0.192158 14.878 0.0960127 14.9896 0.0436634 15.1229C-0.00868586 15.2562 -0.0141283 15.4034 0.0282293 15.5403L0.632206 15.3533ZM3.15931 19.7284L2.69558 20.1579C2.79296 20.2629 2.92315 20.3317 3.06481 20.3531C3.20647 20.3744 3.35117 20.347 3.47519 20.2753L3.15931 19.7284ZM8.97164 23.0818H8.33986C8.33979 23.2252 8.38854 23.3643 8.47811 23.4763C8.56767 23.5884 8.6927 23.6666 8.83265 23.6981L8.97164 23.0818ZM14.0271 23.0843L14.1674 23.7006C14.3071 23.6688 14.4318 23.5905 14.5211 23.4785C14.6104 23.3665 14.659 23.2275 14.6589 23.0843H14.0271ZM19.8407 19.7297L19.5248 20.2766C19.6488 20.3483 19.7935 20.3757 19.9352 20.3543C20.0768 20.333 20.207 20.2642 20.3044 20.1591L19.8407 19.7297ZM22.3653 15.3521L22.9692 15.539C23.0113 15.4023 23.0057 15.2554 22.9533 15.1224C22.901 14.9893 22.805 14.8779 22.6812 14.8064L22.3653 15.3521ZM22.3678 8.64415L22.6837 9.19104C22.8078 9.11951 22.904 9.00792 22.9563 8.87458C23.0087 8.74123 23.0141 8.59406 22.9718 8.45722L22.3678 8.64415ZM19.8407 4.26777L20.3044 3.83835C20.207 3.73331 20.0768 3.66448 19.9352 3.64314C19.7935 3.6218 19.6488 3.64921 19.5248 3.72088L19.8407 4.26777ZM14.0284 0.916973H14.6601C14.66 0.773965 14.6113 0.635242 14.522 0.523503C14.4327 0.411765 14.3081 0.333629 14.1686 0.301881L14.0284 0.916973ZM8.97416 0.914447L8.83391 0.298092C8.69397 0.32964 8.56893 0.407856 8.47937 0.519876C8.38981 0.631896 8.34105 0.771049 8.34112 0.914447H8.97416ZM1.23871 8.83234C1.71318 7.29304 2.52808 5.88019 3.62303 4.69846L2.69685 3.83961C1.47264 5.16021 0.561429 6.738 0.0307562 8.45848L1.23871 8.83234ZM2.19901 17.3678C1.79719 16.6727 1.47466 15.9347 1.23745 15.1677L0.0294928 15.5415C0.295284 16.3985 0.65639 17.2229 1.10604 17.9994L2.19901 17.3678ZM3.62429 19.3003C3.07885 18.7114 2.59993 18.0632 2.19901 17.3678L1.10604 17.9994C1.55389 18.7764 2.0875 19.5009 2.69685 20.1591L3.62429 19.3003ZM13.8881 22.4705C12.3168 22.8276 10.6853 22.8267 9.11442 22.4679L8.83391 23.6981C10.5894 24.0993 12.4126 24.1006 14.1686 23.7019L13.8881 22.4705ZM21.7638 15.1677C21.2893 16.707 20.4744 18.1198 19.3795 19.3015L20.3057 20.1604C21.5299 18.8398 22.4411 17.2607 22.9718 15.5403L21.7638 15.1677ZM20.8035 6.63215C21.2129 7.34323 21.5326 8.08084 21.7663 8.83234L22.973 8.45848C22.7072 7.60155 22.3461 6.77711 21.8965 6.00064L20.8035 6.63215ZM19.3782 4.69973C19.9237 5.28864 20.4026 5.93683 20.8035 6.63215L21.8965 6.00064C21.4486 5.22355 20.915 4.49911 20.3057 3.84087L19.3782 4.69973ZM9.11442 1.52954C10.6857 1.17242 12.3172 1.17328 13.8881 1.53207L14.1686 0.301881C12.4132 -0.099344 10.5899 -0.100639 8.83391 0.298092L9.11442 1.52954ZM9.60594 3.24978V0.913184H8.34239V3.24978H9.60594ZM5.4994 4.88918L3.47646 3.72215L2.84468 4.81466L4.86636 5.98296L5.4994 4.88918ZM2.34053 13.6394L0.316319 14.8064L0.949357 15.9002L2.97104 14.7332L2.34053 13.6394ZM2.9723 9.26429L0.950621 8.09852L0.318846 9.1923L2.34053 10.3581L2.9723 9.26429ZM9.60594 23.0818V20.749H8.34239V23.0818H9.60594ZM4.86763 18.0145L2.84468 19.1816L3.47646 20.2753L5.49814 19.1083L4.86763 18.0145ZM20.1578 19.1828L18.1349 18.0145L17.5031 19.1096L19.5248 20.2766L20.1578 19.1828ZM14.6601 23.0856V20.749H13.3966V23.0856H14.6601ZM22.0532 8.09726L20.0302 9.26429L20.662 10.3581L22.6837 9.19104L22.0532 8.09726ZM22.6824 14.8052L20.662 13.6419L20.0302 14.7357L22.0519 15.9015L22.6824 14.8052ZM14.6601 3.24978V0.916973H13.3966V3.24978H14.6601ZM19.5261 3.72215L17.5031 4.89044L18.1349 5.98422L20.1578 4.81593L19.5261 3.72215ZM13.3966 3.24978C13.3966 5.67983 16.0286 7.19925 18.1349 5.98422L17.5031 4.89044C17.2149 5.05678 16.888 5.14432 16.5552 5.14426C16.2224 5.14421 15.8954 5.05656 15.6073 4.89014C15.3191 4.72372 15.0799 4.48438 14.9136 4.19621C14.7473 3.90803 14.6599 3.58244 14.6601 3.24978H13.3966ZM20.0302 9.26556C17.9239 10.4806 17.9239 13.5194 20.0302 14.7344L20.662 13.6407C20.3739 13.4744 20.1347 13.2352 19.9683 12.9472C19.802 12.6592 19.7144 12.3325 19.7144 12C19.7144 11.6675 19.802 11.3408 19.9683 11.0528C20.1347 10.7648 20.3739 10.5256 20.662 10.3593L20.0302 9.26556ZM18.1349 18.0158C16.0286 16.8008 13.3966 18.3176 13.3966 20.749H14.6601C14.6601 20.4164 14.7477 20.091 14.9141 19.803C15.0804 19.515 15.3197 19.2758 15.6078 19.1095C15.8959 18.9433 16.2228 18.8557 16.5555 18.8557C16.8882 18.8557 17.215 18.9433 17.5031 19.1096L18.1349 18.0158ZM9.60594 20.749C9.60594 18.3189 6.97396 16.8008 4.86763 18.0158L5.4994 19.1096C5.78762 18.9432 6.11456 18.8557 6.44737 18.8557C6.78017 18.8558 7.10709 18.9434 7.39525 19.1099C7.68341 19.2763 7.92266 19.5156 8.08892 19.8038C8.25518 20.092 8.3426 20.4188 8.34239 20.7515L9.60594 20.749ZM2.9723 14.7344C5.07864 13.5194 5.07864 10.4806 2.9723 9.26556L2.34053 10.3593C3.60408 11.0881 3.60408 12.9094 2.34053 13.6394L2.9723 14.7344ZM8.34239 3.24978C8.34216 3.58223 8.25441 3.90876 8.08797 4.19658C7.92153 4.48441 7.68225 4.72338 7.39416 4.88951C7.10607 5.05563 6.77932 5.14306 6.44674 5.143C6.11415 5.14294 5.78743 5.05541 5.4994 4.88918L4.86763 5.98422C6.97396 7.19925 9.60594 5.6811 9.60594 3.24978H8.34239Z" fill="#FFFEFA"/>
</svg>
