<svg width="40" height="40" viewBox="0 0 40 40" fill="none" xmlns="http://www.w3.org/2000/svg">
<path d="M29.15 17.7935C30.423 17.7935 31.6439 18.3027 32.5441 19.2092C33.4443 20.1156 33.95 21.345 33.95 22.6269C33.95 23.9088 33.4443 25.1382 32.5441 26.0447C31.6439 26.9511 30.423 27.4604 29.15 27.4604H33.95C35.223 27.4604 36.4439 27.9696 37.3441 28.876C38.2443 29.7825 38.75 31.0119 38.75 32.2938C38.75 33.5757 38.2443 34.8051 37.3441 35.7116C36.4439 36.618 35.223 37.1273 33.95 37.1273H7.55C6.27696 37.1273 5.05606 36.618 4.15589 35.7116C3.25571 34.8051 2.75 33.5757 2.75 32.2938C2.75 31.0119 3.25571 29.7825 4.15589 28.876C5.05606 27.9696 6.27696 27.4604 7.55 27.4604H12.35C11.077 27.4604 9.85606 26.9511 8.95589 26.0447C8.05571 25.1382 7.55 23.9088 7.55 22.6269C7.55 21.345 8.05571 20.1156 8.95589 19.2092C9.85606 18.3027 11.077 17.7935 12.35 17.7935H17.15C15.877 17.7935 14.6561 17.2842 13.7559 16.3778C12.8557 15.4713 12.35 14.2419 12.35 12.96C12.35 11.6781 12.8557 10.4487 13.7559 9.54226C14.6561 8.63582 15.877 8.12658 17.15 8.12658C18.6952 8.12716 20.1996 7.62716 21.4408 6.70047C22.6821 5.77378 23.5944 4.46956 24.0428 2.98057C24.1042 2.77957 24.2166 2.59817 24.3689 2.4543C24.5212 2.31044 24.7081 2.20909 24.9113 2.16027C25.1144 2.11145 25.3266 2.11686 25.5271 2.17595C25.7275 2.23505 25.9091 2.34579 26.054 2.49723C27.995 4.40868 29.4661 6.75006 30.35 9.33494C31.4108 13.1211 29.7772 17.7935 24.35 17.7935H29.15Z" stroke="#FF9600" stroke-width="2" stroke-linecap="round" stroke-linejoin="round"/>
</svg>
