<svg width="42" height="42" viewBox="0 0 42 42" fill="none" xmlns="http://www.w3.org/2000/svg">
<path d="M7.47635 20.9973L12.5473 26.0705M14.2362 14.2352L19.3094 19.3062M21.0005 7.47318L26.0737 12.5442M4.42976 24.0417L24.0426 4.42881C25.9381 2.53552 26.887 1.58887 27.9759 1.23333C28.9381 0.922224 29.9714 0.922224 30.9313 1.23333C32.0224 1.58887 32.9691 2.53552 34.8601 4.42659L37.5712 7.13541C39.4645 9.0287 40.4111 9.97979 40.7667 11.0686C41.0778 12.0308 41.0778 13.0619 40.7667 14.0241C40.4111 15.113 39.4645 16.0619 37.5712 17.9574L17.9583 37.5702C16.0628 39.4635 15.1139 40.4102 14.0251 40.7657C13.0629 41.0768 12.0318 41.0768 11.0696 40.7657C9.98074 40.4102 9.02965 39.4635 7.13636 37.568L4.42531 34.8614C2.53647 32.9681 1.58983 32.0237 1.23428 30.9304C0.921907 29.97 0.921907 28.9353 1.23428 27.9749C1.58983 26.886 2.53647 25.9372 4.42976 24.0417Z" stroke="#FF9600" stroke-width="2" stroke-linecap="round" stroke-linejoin="round"/>
</svg>
