<svg width="40" height="40" viewBox="0 0 40 40" fill="none" xmlns="http://www.w3.org/2000/svg">
<path d="M32.7273 25.4546V19.8873C32.7263 17.989 31.9719 16.1686 30.6297 14.8261C29.2876 13.4836 27.4674 12.7287 25.5691 12.7273H14.4291C12.531 12.7292 10.7114 13.4843 9.3696 14.8268C8.02783 16.1692 7.27367 17.9893 7.27271 19.8873V25.4546C7.27271 27.1259 7.60191 28.7809 8.24151 30.3251C8.88112 31.8692 9.8186 33.2723 11.0004 34.4541C12.1823 35.6359 13.5853 36.5734 15.1295 37.213C16.6736 37.8526 18.3286 38.1818 20 38.1818C21.6713 38.1818 23.3264 37.8526 24.8705 37.213C26.4146 36.5734 27.8177 35.6359 28.9995 34.4541C30.1814 33.2723 31.1188 31.8692 31.7584 30.3251C32.3981 28.7809 32.7273 27.1259 32.7273 25.4546Z" stroke="#FF9600" stroke-width="2"/>
<path d="M28.1819 13.6364V11.8182C28.1819 9.64822 27.3199 7.56714 25.7855 6.03275C24.2511 4.49836 22.17 3.63635 20.0001 3.63635C17.8301 3.63635 15.749 4.49836 14.2146 6.03275C12.6802 7.56714 11.8182 9.64822 11.8182 11.8182V13.6364" stroke="#FF9600" stroke-width="2"/>
<path d="M32.7273 23.6364H38.1818M7.27272 23.6364H1.81818M24.5454 4.54545L29.0909 1.81818M15.4545 4.54545L10.9091 1.81818M35.4545 34.5454L31.8182 33.0909M35.4545 12.7273L31.8182 14.1818M4.54545 34.5454L8.18181 33.0909M4.54545 12.7273L8.18181 14.1818M20 37.2727V25.4545" stroke="#FF9600" stroke-width="2" stroke-linecap="round"/>
</svg>
