<svg width="40" height="40" viewBox="0 0 40 40" fill="none" xmlns="http://www.w3.org/2000/svg">
<path d="M24.8297 30.2284C25.4636 30.2284 26.0038 30.0094 26.4503 29.5713C26.8983 29.1316 27.1223 28.5994 27.1223 27.9746C27.1223 27.3483 26.8998 26.8138 26.4549 26.3711C26.013 25.9315 25.475 25.7117 24.8411 25.7117C24.2072 25.7117 23.6663 25.93 23.2183 26.3666C22.7703 26.8032 22.5478 27.3355 22.5509 27.9633C22.5509 28.5896 22.7718 29.1233 23.2137 29.5645C23.6571 30.0071 24.1958 30.2284 24.8297 30.2284ZM13.3623 29.7068C13.5848 29.9266 13.8514 30.0365 14.1623 30.0365C14.4731 30.0365 14.7459 29.9258 14.9806 29.7045L26.592 18.2319C26.816 18.0016 26.928 17.7321 26.928 17.4234C26.928 17.1148 26.8168 16.8513 26.5943 16.633C26.3718 16.4147 26.1074 16.3048 25.8011 16.3033C25.4949 16.3018 25.2305 16.4117 25.008 16.633L13.3623 28.1394C13.1398 28.3593 13.0286 28.6205 13.0286 28.9231C13.0286 29.2257 13.1398 29.4869 13.3623 29.7068ZM15.1589 20.6732C15.7928 20.6732 16.3337 20.4542 16.7817 20.016C17.2297 19.5779 17.453 19.0457 17.4514 18.4194C17.4499 17.793 17.2282 17.2593 16.7863 16.8182C16.3444 16.377 15.8057 16.1565 15.1703 16.1565C14.5349 16.1565 13.9947 16.3748 13.5497 16.8114C13.1048 17.248 12.8808 17.7802 12.8777 18.4081C12.8747 19.0359 13.0971 19.5704 13.5451 20.0115C13.9931 20.4527 14.531 20.6732 15.1589 20.6732ZM19.9931 39C15.4232 39 11.6152 37.4477 8.56914 34.3432C5.52305 31.2372 4 27.3716 4 22.7464C4 20.6988 4.47238 18.6362 5.41714 16.5585C6.36038 14.4807 7.53905 12.4873 8.95314 10.5783C10.3703 8.66767 11.8987 6.86699 13.5383 5.17621C15.1794 3.48393 16.7032 2.01147 18.1097 0.758816C18.384 0.516417 18.6834 0.328971 19.008 0.19648C19.331 0.0654934 19.6617 0 20 0C20.3383 0 20.669 0.0654934 20.992 0.19648C21.315 0.327466 21.6145 0.515664 21.8903 0.761074C23.2968 2.01071 24.8206 3.48242 26.4617 5.17621C28.1029 6.86699 29.6312 8.66692 31.0469 10.576C32.4625 12.4851 33.6419 14.4792 34.5851 16.5585C35.5284 18.6377 36 20.7003 36 22.7464C36 27.3716 34.4747 31.2372 31.424 34.3432C28.3703 37.4477 24.5615 39 19.9931 39ZM20 36.7416C23.9619 36.7416 27.2381 35.4144 29.8286 32.7601C32.419 30.1057 33.7143 26.7656 33.7143 22.7396C33.7143 19.9919 32.5615 16.8867 30.256 13.4238C27.9505 9.96097 24.5318 6.17818 20 2.07545C15.4667 6.17818 12.048 9.96097 9.744 13.4238C7.44 16.8867 6.28724 19.9919 6.28571 22.7396C6.28571 26.7671 7.58095 30.108 10.1714 32.7623C12.7619 35.4167 16.0381 36.7431 20 36.7416Z" fill="#FF9600"/>
</svg>
