<svg width="40" height="40" viewBox="0 0 40 40" fill="none" xmlns="http://www.w3.org/2000/svg">
<path d="M19.8209 38.1819C21.8558 38.1822 23.8405 37.5391 25.5008 36.3412C27.1611 35.1434 28.415 33.45 29.0893 31.4952C29.7635 29.5404 29.8247 27.4206 29.2645 25.4288C28.7043 23.437 27.5503 21.6715 25.962 20.3764C25.7241 20.1927 25.53 19.9567 25.3943 19.6859C25.2585 19.4152 25.1846 19.1167 25.178 18.8128V7.27278C25.178 5.82615 24.6136 4.43876 23.609 3.41584C22.6043 2.39291 21.2417 1.81824 19.8209 1.81824C18.4001 1.81824 17.0375 2.39291 16.0328 3.41584C15.0282 4.43876 14.4638 5.82615 14.4638 7.27278V18.8146C14.4638 19.4291 14.1513 19.9928 13.6798 20.3782C12.0922 21.6735 10.9389 23.4389 10.3791 25.4303C9.81932 27.4218 9.88074 29.5411 10.5549 31.4955C11.229 33.4499 12.4826 35.1429 14.1424 36.3406C15.8023 37.5384 17.7865 38.1818 19.8209 38.1819Z" stroke="#FFF7D7" stroke-width="2"/>
<path d="M19.821 23.6363C18.637 23.6363 17.5015 24.1152 16.6642 24.9677C15.827 25.8201 15.3567 26.9763 15.3567 28.1818C15.3567 29.3873 15.827 30.5435 16.6642 31.3959C17.5015 32.2484 18.637 32.7273 19.821 32.7273C21.005 32.7273 22.1405 32.2484 22.9777 31.3959C23.8149 30.5435 24.2853 29.3873 24.2853 28.1818C24.2853 26.9763 23.8149 25.8201 22.9777 24.9677C22.1405 24.1152 21.005 23.6363 19.821 23.6363ZM19.821 23.6363V7.27271" stroke="#FFF7D7" stroke-width="2" stroke-linecap="round"/>
</svg>
