<svg width="42" height="42" viewBox="0 0 42 42" fill="none" xmlns="http://www.w3.org/2000/svg">
<path d="M31.7692 1H10.2308C5.13276 1 1 5.13276 1 10.2308V31.7692C1 36.8672 5.13276 41 10.2308 41H31.7692C36.8672 41 41 36.8672 41 31.7692V10.2308C41 5.13276 36.8672 1 31.7692 1Z" stroke="currentColor" stroke-width="2" stroke-linejoin="round"/>
<path d="M33.7828 10.9573C31.4309 8.81501 27.1751 6.01501 21.0001 6.01501C14.8251 6.01501 10.5694 8.81501 8.21744 10.9573C7.5785 11.5393 7.19066 12.3468 7.13576 13.2094C7.08087 14.0719 7.36321 14.9221 7.92321 15.5804L11.1271 19.3506C11.5165 19.8069 12.0567 20.1083 12.6495 20.2002C13.2423 20.2922 13.8485 20.1684 14.3578 19.8516C15.8886 18.9064 18.2915 17.7708 21.0021 17.7708C23.7126 17.7708 26.1155 18.9064 27.6463 19.8516C28.1556 20.1684 28.7618 20.2922 29.3546 20.2002C29.9474 20.1083 30.4876 19.8069 30.8771 19.3506L34.077 15.5804C34.637 14.9221 34.9194 14.0719 34.8645 13.2094C34.8096 12.3468 34.4218 11.5393 33.7828 10.9573Z" stroke="currentColor" stroke-width="2" stroke-linejoin="round"/>
</svg>
