<svg width="40" height="40" viewBox="0 0 40 40" fill="none" xmlns="http://www.w3.org/2000/svg">
<path d="M20.1768 37.8182C22.2486 37.8186 24.2693 37.1818 25.9597 35.996C27.6501 34.8101 28.9267 33.1337 29.6132 31.1984C30.2996 29.2632 30.3619 27.1646 29.7916 25.1927C29.2212 23.2208 28.0463 21.473 26.4292 20.1908C26.187 20.009 25.9894 19.7753 25.8512 19.5073C25.713 19.2392 25.6378 18.9437 25.6311 18.6428V7.21824C25.6311 5.78607 25.0564 4.41256 24.0336 3.39986C23.0107 2.38716 21.6234 1.81824 20.1768 1.81824C18.7303 1.81824 17.343 2.38716 16.3201 3.39986C15.2973 4.41256 14.7226 5.78607 14.7226 7.21824V18.6446C14.7226 19.253 14.4045 19.811 13.9245 20.1926C12.3081 21.475 11.1339 23.2227 10.564 25.1942C9.99403 27.1658 10.0566 29.2639 10.7429 31.1987C11.4293 33.1336 12.7056 34.8097 14.3955 35.9954C16.0854 37.1812 18.1055 37.8181 20.1768 37.8182Z" stroke="currentColor" stroke-width="2"/>
<path d="M20.1769 23.4182C18.9714 23.4182 17.8154 23.8923 16.963 24.7362C16.1106 25.5801 15.6317 26.7247 15.6317 27.9182C15.6317 29.1116 16.1106 30.2562 16.963 31.1001C17.8154 31.9441 18.9714 32.4182 20.1769 32.4182C21.3824 32.4182 22.5384 31.9441 23.3908 31.1001C24.2432 30.2562 24.7221 29.1116 24.7221 27.9182C24.7221 26.7247 24.2432 25.5801 23.3908 24.7362C22.5384 23.8923 21.3824 23.4182 20.1769 23.4182ZM20.1769 23.4182V7.21816" stroke="currentColor" stroke-width="2" stroke-linecap="round"/>
</svg>
