<svg width="24" height="25" viewBox="0 0 24 25" fill="none" xmlns="http://www.w3.org/2000/svg">
<g clip-path="url(#clip0_701_3251)">
<path d="M11.8661 23.4176C10.9099 24.6488 8.92039 24.0063 8.8825 22.4538L8.5806 10.1288C8.5731 9.83298 8.64632 9.54063 8.79255 9.2825C8.93878 9.02438 9.15262 8.81003 9.41156 8.66201C9.6705 8.514 9.96497 8.43779 10.264 8.44141C10.563 8.44502 10.8555 8.52833 11.1107 8.68256L21.7465 15.1038C23.0854 15.9126 22.6534 17.9388 21.0985 18.1426L16.0623 18.8013C15.6252 18.8588 15.2286 19.0851 14.9608 19.4301L11.8661 23.4176Z" stroke="currentColor" stroke-width="1.5" stroke-linejoin="round"/>
<path d="M1.00671 8.43756H4.16461M8.90145 4.06006V0.935059M4.81892 4.70631L2.58566 2.49756M12.984 4.70631L15.2172 2.49756" stroke="currentColor" stroke-width="1.5" stroke-linecap="round" stroke-linejoin="round"/>
</g>
<defs>
<clipPath id="clip0_701_3251">
<rect width="24" height="25" fill="white"/>
</clipPath>
</defs>
</svg>
