<svg width="25" height="25" viewBox="0 0 25 25" fill="none" xmlns="http://www.w3.org/2000/svg">
<path d="M9.82112 3.69348C10.0579 3.69348 10.285 3.78262 10.4524 3.9413C10.6199 4.09997 10.7139 4.31518 10.7139 4.53958C10.7139 4.76398 10.6199 4.97919 10.4524 5.13787C10.285 5.29654 10.0579 5.38569 9.82112 5.38569H4.46414C3.75376 5.38569 3.07248 5.65312 2.57017 6.12914C2.06785 6.60517 1.78566 7.2508 1.78566 7.924V19.7695C1.78566 20.4427 2.06785 21.0883 2.57017 21.5643C3.07248 22.0404 3.75376 22.3078 4.46414 22.3078H16.9637C17.6741 22.3078 18.3554 22.0404 18.8577 21.5643C19.36 21.0883 19.6422 20.4427 19.6422 19.7695V16.3851C19.6422 16.1607 19.7363 15.9454 19.9037 15.7868C20.0712 15.6281 20.2983 15.5389 20.5351 15.5389C20.7719 15.5389 20.9989 15.6281 21.1664 15.7868C21.3338 15.9454 21.4279 16.1607 21.4279 16.3851V19.7695C21.4279 20.8915 20.9576 21.9675 20.1204 22.7609C19.2832 23.5543 18.1477 24 16.9637 24H4.46414C3.28018 24 2.14471 23.5543 1.30752 22.7609C0.470328 21.9675 0 20.8915 0 19.7695V7.924C0 6.802 0.470328 5.72595 1.30752 4.93257C2.14471 4.13919 3.28018 3.69348 4.46414 3.69348H9.82112ZM15.6781 2.08588C15.8284 2.01629 15.9963 1.98812 16.1627 2.00457C16.3291 2.02103 16.4872 2.08145 16.6191 2.17895L24.6546 8.10169C24.7621 8.18077 24.8491 8.28212 24.909 8.39797C24.9689 8.51382 25 8.64111 25 8.77011C25 8.89911 24.9689 9.0264 24.909 9.14225C24.8491 9.2581 24.7621 9.35944 24.6546 9.43853L16.6191 15.3613C16.4871 15.4586 16.329 15.5188 16.1627 15.5351C15.9964 15.5513 15.8286 15.523 15.6784 15.4534C15.5282 15.3837 15.4017 15.2755 15.3133 15.141C15.2248 15.0066 15.178 14.8513 15.1781 14.6928V12.1968C11.1925 12.586 8.70687 15.5356 7.32834 17.9487L7.04799 18.4563C6.95791 18.6266 6.8098 18.7632 6.62764 18.8438C6.44548 18.9244 6.23994 18.9444 6.04429 18.9006C5.84864 18.8567 5.67433 18.7516 5.54959 18.6022C5.42486 18.4527 5.35699 18.2678 5.35697 18.0773C5.35697 14.5642 6.28194 11.4083 8.10153 9.10855C9.77647 6.99329 12.1835 5.6446 15.1781 5.42122V2.84737C15.1778 2.6888 15.2245 2.53332 15.3129 2.39868C15.4013 2.26404 15.5278 2.15565 15.6781 2.08588Z" fill="#FF9600"/>
</svg>
