<svg width="25" height="27" viewBox="0 0 25 27" fill="none" xmlns="http://www.w3.org/2000/svg">
<path d="M8.12498 20.1944V21.5833C8.12498 22.6884 8.58592 23.7482 9.40639 24.5296C10.2269 25.311 11.3397 25.75 12.5 25.75C13.6603 25.75 14.7731 25.311 15.5936 24.5296C16.414 23.7482 16.875 22.6884 16.875 21.5833V20.1944M9.58331 3.52778C9.58331 2.79107 9.8906 2.08453 10.4376 1.56359C10.9846 1.04266 11.7264 0.75 12.5 0.75C13.2735 0.75 14.0154 1.04266 14.5624 1.56359C15.1094 2.08453 15.4166 2.79107 15.4166 3.52778C17.0914 4.28198 18.5191 5.45601 19.5467 6.92403C20.5743 8.39205 21.1631 10.0987 21.25 11.8611V16.0278C21.3597 16.8913 21.6808 17.7181 22.1874 18.4418C22.694 19.1655 23.3719 19.7659 24.1666 20.1944H0.833313C1.62802 19.7659 2.30595 19.1655 2.81254 18.4418C3.31914 17.7181 3.64023 16.8913 3.74998 16.0278V11.8611C3.83684 10.0987 4.42563 8.39205 5.45324 6.92403C6.48085 5.45601 7.90855 4.28198 9.58331 3.52778Z" stroke="currentColor" stroke-width="1.5" stroke-linecap="round" stroke-linejoin="round"/>
</svg>
