<svg width="25" height="25" viewBox="0 0 25 25" fill="none" xmlns="http://www.w3.org/2000/svg">
<g clip-path="url(#clip0_1363_4764)">
<path d="M18.1818 9.09314C20.6534 9.10678 21.992 9.217 22.8648 10.0897C23.8636 11.0886 23.8636 12.6954 23.8636 15.909V17.0454C23.8636 20.2602 23.8636 21.867 22.8648 22.8659C21.867 23.8636 20.2591 23.8636 17.0454 23.8636H7.95453C4.7409 23.8636 3.13294 23.8636 2.13522 22.8659C1.13635 21.8659 1.13635 20.2602 1.13635 17.0454V15.909C1.13635 12.6954 1.13635 11.0886 2.13522 10.0897C3.00794 9.217 4.34658 9.10678 6.81817 9.09314" stroke="currentColor" stroke-width="1.5" stroke-linecap="round"/>
<path d="M12.5 15.9091V1.13635M12.5 1.13635L15.9091 5.11363M12.5 1.13635L9.09094 5.11363" stroke="currentColor" stroke-width="1.5" stroke-linecap="round" stroke-linejoin="round"/>
</g>
<defs>
<clipPath id="clip0_1363_4764">
<rect width="25" height="25" fill="white"/>
</clipPath>
</defs>
</svg>
