<svg width="40" height="40" viewBox="0 0 40 40" fill="none" xmlns="http://www.w3.org/2000/svg">
<path d="M32.7273 25.4545V19.8873C32.7263 17.9889 31.9719 16.1686 30.6297 14.8261C29.2876 13.4836 27.4674 12.7287 25.5691 12.7273H14.4291C12.531 12.7292 10.7114 13.4843 9.3696 14.8267C8.02783 16.1692 7.27367 17.9892 7.27271 19.8873V25.4545C7.27271 27.1259 7.60191 28.7809 8.24151 30.3251C8.88112 31.8692 9.8186 33.2722 11.0004 34.4541C12.1823 35.6359 13.5853 36.5734 15.1295 37.213C16.6736 37.8526 18.3286 38.1818 20 38.1818C21.6713 38.1818 23.3264 37.8526 24.8705 37.213C26.4146 36.5734 27.8177 35.6359 28.9995 34.4541C30.1814 33.2722 31.1188 31.8692 31.7584 30.3251C32.3981 28.7809 32.7273 27.1259 32.7273 25.4545Z" stroke="currentColor" stroke-width="2"/>
<path d="M28.1819 13.6364V11.8182C28.1819 9.64823 27.3199 7.56715 25.7855 6.03276C24.2511 4.49837 22.17 3.63636 20.0001 3.63636C17.8301 3.63636 15.749 4.49837 14.2146 6.03276C12.6802 7.56715 11.8182 9.64823 11.8182 11.8182V13.6364" stroke="currentColor" stroke-width="2"/>
<path d="M32.7273 23.6364H38.1819M7.27278 23.6364H1.81824M24.5455 4.54546L29.091 1.81818M15.4546 4.54546L10.9091 1.81818M35.4546 34.5455L31.8182 33.0909M35.4546 12.7273L31.8182 14.1818M4.54551 34.5455L8.18187 33.0909M4.54551 12.7273L8.18187 14.1818M20.0001 37.2727V25.4545" stroke="currentColor" stroke-width="2" stroke-linecap="round"/>
</svg>
