<svg width="27" height="25" viewBox="0 0 27 25" fill="none" xmlns="http://www.w3.org/2000/svg">
<path d="M15.125 11.75C16.2853 11.75 17.3981 11.2891 18.2186 10.4686C19.0391 9.64812 19.5 8.53532 19.5 7.375C19.5 6.21468 19.0391 5.10188 18.2186 4.28141C17.3981 3.46094 16.2853 3 15.125 3M14.6787 23H3.07125C1.78875 23 0.75 22.0412 0.75 20.8575C0.75 17.8987 3.34875 15.5 6.55375 15.5H11.1963C12.4389 15.4956 13.6535 15.8692 14.6787 16.5713M22 15.5V23M25.75 19.25H18.25M13.25 7.375C13.25 8.53532 12.7891 9.64812 11.9686 10.4686C11.1481 11.2891 10.0353 11.75 8.875 11.75C7.71468 11.75 6.60188 11.2891 5.78141 10.4686C4.96094 9.64812 4.5 8.53532 4.5 7.375C4.5 6.21468 4.96094 5.10188 5.78141 4.28141C6.60188 3.46094 7.71468 3 8.875 3C10.0353 3 11.1481 3.46094 11.9686 4.28141C12.7891 5.10188 13.25 6.21468 13.25 7.375Z" stroke="currentColor" stroke-width="1.5" stroke-linecap="round" stroke-linejoin="round"/>
</svg>
