<svg width="25" height="25" viewBox="0 0 25 25" fill="none" xmlns="http://www.w3.org/2000/svg">
<path d="M12.5 2.27271H4.54543C3.94267 2.27271 3.36459 2.51215 2.93837 2.93837C2.51215 3.36459 2.27271 3.94267 2.27271 4.54543V20.4545C2.27271 21.0573 2.51215 21.6354 2.93837 22.0616C3.36459 22.4878 3.94267 22.7273 4.54543 22.7273H20.4545C21.0573 22.7273 21.6354 22.4878 22.0616 22.0616C22.4878 21.6354 22.7273 21.0573 22.7273 20.4545V12.5" stroke="currentColor" stroke-width="2" stroke-linecap="round" stroke-linejoin="round"/>
<path d="M19.7443 1.84655C20.1963 1.39448 20.8095 1.1405 21.4488 1.1405C22.0881 1.1405 22.7013 1.39448 23.1534 1.84655C23.6054 2.29862 23.8594 2.91177 23.8594 3.55109C23.8594 4.19042 23.6054 4.80357 23.1534 5.25564L12.9113 15.4988C12.6415 15.7684 12.3081 15.9658 11.942 16.0727L8.67722 17.0272C8.57944 17.0557 8.47579 17.0575 8.37712 17.0322C8.27845 17.0069 8.18839 16.9556 8.11637 16.8835C8.04434 16.8115 7.99301 16.7215 7.96773 16.6228C7.94245 16.5241 7.94416 16.4205 7.97268 16.3227L8.92722 13.0579C9.03464 12.6921 9.23238 12.3591 9.50222 12.0897L19.7443 1.84655Z" stroke="currentColor" stroke-width="2" stroke-linecap="round" stroke-linejoin="round"/>
</svg>
