<svg width="27" height="27" viewBox="0 0 27 27" fill="none" xmlns="http://www.w3.org/2000/svg">
<path d="M4.5 17H6.2425C7.225 17 7.7175 17 8.13125 17.2213C8.54625 17.4438 8.81875 17.8525 9.36375 18.67L9.56375 18.97C10.0912 19.7613 10.355 20.1575 10.7137 20.1363C11.0712 20.115 11.2875 19.6913 11.7175 18.8413L14.175 13.995C14.6237 13.1125 14.8475 12.67 15.2138 12.6563C15.58 12.6413 15.8387 13.0638 16.3562 13.9075L17.1525 15.2075C17.69 16.0838 17.9575 16.5213 18.3838 16.7613C18.8113 16.9988 19.3238 16.9988 20.35 16.9988H22" stroke="#FF9600" stroke-width="1.5" stroke-linecap="round"/>
<path d="M0.75 13.25C0.75 7.3575 0.75 4.41125 2.58 2.58C4.4125 0.75 7.3575 0.75 13.25 0.75C19.1425 0.75 22.0887 0.75 23.9187 2.58C25.75 4.4125 25.75 7.3575 25.75 13.25C25.75 19.1425 25.75 22.0887 23.9187 23.9187C22.09 25.75 19.1425 25.75 13.25 25.75C7.3575 25.75 4.41125 25.75 2.58 23.9187C0.75 22.09 0.75 19.1425 0.75 13.25Z" stroke="#FF9600" stroke-width="1.5"/>
</svg>
