<svg width="27" height="27" viewBox="0 0 27 27" fill="none" xmlns="http://www.w3.org/2000/svg">
<path d="M24.7176 6.76553C25.3785 6.1048 25.7499 5.2086 25.75 4.27408C25.7501 3.33955 25.379 2.44325 24.7183 1.78236C24.0575 1.12147 23.1613 0.750117 22.2268 0.75C21.2923 0.749883 20.396 1.12101 19.7351 1.78174L3.05244 18.4681C2.76221 18.7575 2.54758 19.1138 2.42743 19.5056L0.776168 24.9457C0.743862 25.0538 0.741422 25.1686 0.769107 25.278C0.796792 25.3874 0.853569 25.4872 0.933415 25.567C1.01326 25.6467 1.1132 25.7033 1.22262 25.7308C1.33204 25.7583 1.44687 25.7557 1.55493 25.7232L6.99623 24.0732C7.38769 23.9541 7.74395 23.7408 8.03374 23.4519L24.7176 6.76553Z" stroke="#FF9600" stroke-width="1.5" stroke-linecap="round" stroke-linejoin="round"/>
</svg>
