<svg width="25" height="25" viewBox="0 0 25 25" fill="none" xmlns="http://www.w3.org/2000/svg">
<path d="M18.7798 3.04567C18.8639 3.00866 18.958 2.99368 19.0511 3.00243C19.1443 3.01118 19.2329 3.04332 19.3067 3.09517L23.8066 6.24494C23.8668 6.287 23.9155 6.3409 23.949 6.40251C23.9826 6.46412 24 6.53181 24 6.60042C24 6.66902 23.9826 6.73671 23.949 6.79832C23.9155 6.85993 23.8668 6.91383 23.8066 6.95589L19.3067 10.1057C19.2328 10.1574 19.1443 10.1894 19.0511 10.1981C18.958 10.2067 18.864 10.1917 18.78 10.1547C18.6959 10.1176 18.625 10.0601 18.5755 9.98855C18.5259 9.91704 18.4997 9.83446 18.4998 9.75019V8.42279C16.2679 8.62977 14.8759 10.1984 14.104 11.4817L13.947 11.7516C13.8965 11.8422 13.8136 11.9148 13.7116 11.9577C13.6096 12.0006 13.4945 12.0112 13.3849 11.9879C13.2753 11.9646 13.1777 11.9087 13.1079 11.8292C13.038 11.7497 13 11.6514 13 11.5501C13 9.6818 13.518 8.00342 14.5369 6.7804C15.4749 5.65548 16.8228 4.93824 18.4998 4.81944V3.45064C18.4996 3.36631 18.5257 3.28363 18.5752 3.21202C18.6247 3.14042 18.6956 3.08278 18.7798 3.04567Z" fill="#FF9600"/>
<path d="M11.5 3.5H5C3.34315 3.5 2 4.84315 2 6.5V19C2 20.6569 3.34315 22 5 22H18.5C20.1569 22 21.5 20.6569 21.5 19V15" stroke="#FF9600" stroke-width="1.5" stroke-linecap="round"/>
</svg>
